<?xml version="1.0" encoding="utf-8"?>
<!-- Generator: Adobe Illustrator 17.0.0, SVG Export Plug-In . SVG Version: 6.00 Build 0)  -->
<!DOCTYPE svg PUBLIC "-//W3C//DTD SVG 1.1//EN" "http://www.w3.org/Graphics/SVG/1.1/DTD/svg11.dtd">
<svg version="1.1" id="Layer_1" xmlns="http://www.w3.org/2000/svg" xmlns:xlink="http://www.w3.org/1999/xlink" x="0px" y="0px"
	 width="512px" height="512px" viewBox="0 0 512 512" enable-background="new 0 0 512 512" xml:space="preserve">
<g>
	<path fill="#2D333B" d="M256,31C131.747,31,31,131.747,31,256s100.747,225,225,225s225-100.747,225-225S380.253,31,256,31z"/>
	<g>
		<g>
			<path fill="#F9D366" d="M389.567,239.316l2.812-0.57c3.711-0.752,3.711-6.056,0-6.809l-2.812-0.57
				c-7.084-1.436-12.62-6.972-14.056-14.056l-0.57-2.812c-0.752-3.711-6.057-3.711-6.809,0l-0.57,2.812
				c-1.436,7.084-6.972,12.62-14.056,14.056l-2.812,0.57c-3.711,0.752-3.711,6.057,0,6.809l2.812,0.57
				c7.084,1.436,12.62,6.972,14.056,14.056l0.57,2.812c0.752,3.711,6.056,3.711,6.809,0l0.57-2.812
				C376.947,246.288,382.484,240.752,389.567,239.316z"/>
			<path fill="#F9D366" d="M246.045,150.759l2.812-0.57c3.711-0.752,3.711-6.056,0-6.809l-2.812-0.57
				c-7.084-1.436-12.62-6.972-14.056-14.056l-0.57-2.812c-0.752-3.711-6.057-3.711-6.809,0l-0.57,2.812
				c-1.436,7.084-6.972,12.62-14.056,14.056l-2.812,0.57c-3.711,0.752-3.711,6.057,0,6.809l2.812,0.57
				c7.084,1.436,12.62,6.972,14.056,14.056l0.57,2.812c0.752,3.711,6.056,3.711,6.809,0l0.57-2.812
				C233.426,157.732,238.962,152.195,246.045,150.759z"/>
			<path fill="#F9D366" d="M198.836,264.983l1.818-0.369c2.399-0.486,2.399-3.914,0-4.401l-1.818-0.369
				c-4.579-0.928-8.158-4.507-9.086-9.086l-0.369-1.818c-0.486-2.399-3.915-2.399-4.401,0l-0.369,1.818
				c-0.928,4.579-4.507,8.158-9.086,9.086l-1.818,0.369c-2.399,0.486-2.399,3.915,0,4.401l1.818,0.369
				c4.579,0.928,8.158,4.507,9.086,9.086l0.369,1.818c0.486,2.399,3.914,2.399,4.401,0l0.369-1.818
				C190.679,269.49,194.258,265.911,198.836,264.983z"/>
			<path fill="#F9D366" d="M336.929,259.97l1.307-0.265c1.725-0.35,1.725-2.815,0-3.165l-1.307-0.265
				c-3.293-0.667-5.866-3.241-6.534-6.534l-0.265-1.307c-0.35-1.725-2.815-1.725-3.165,0l-0.265,1.307
				c-0.667,3.293-3.241,5.866-6.534,6.534l-1.307,0.265c-1.725,0.35-1.725,2.815,0,3.165l1.307,0.265
				c3.293,0.668,5.866,3.241,6.534,6.534l0.265,1.307c0.35,1.725,2.815,1.725,3.165,0l0.265-1.307
				C331.063,263.211,333.637,260.638,336.929,259.97z"/>
			<path fill="#F9D366" d="M214.579,217.342c-2.458,0-4.449-1.992-4.449-4.449v-11.568c0-2.457,1.991-4.449,4.449-4.449
				c2.458,0,4.449,1.992,4.449,4.449v11.568C219.028,215.35,217.036,217.342,214.579,217.342z"/>
			<path fill="#F9D366" d="M214.579,248.486c-2.458,0-4.449-1.992-4.449-4.449v-11.568c0-2.457,1.991-4.449,4.449-4.449
				c2.458,0,4.449,1.992,4.449,4.449v11.568C219.028,246.494,217.036,248.486,214.579,248.486z"/>
			<path fill="#F9D366" d="M235.935,227.13h-11.568c-2.458,0-4.449-1.992-4.449-4.449s1.991-4.449,4.449-4.449h11.568
				c2.458,0,4.449,1.992,4.449,4.449S238.392,227.13,235.935,227.13z"/>
			<path fill="#F9D366" d="M204.791,227.13h-11.568c-2.458,0-4.449-1.992-4.449-4.449s1.991-4.449,4.449-4.449h11.568
				c2.458,0,4.449,1.992,4.449,4.449S207.249,227.13,204.791,227.13z"/>
			<path fill="#F9D366" d="M291.459,298.454c-0.975,0-1.764-0.79-1.764-1.764v-4.587c0-0.975,0.79-1.764,1.764-1.764
				s1.764,0.79,1.764,1.764v4.587C293.224,297.664,292.434,298.454,291.459,298.454z"/>
			<path fill="#F9D366" d="M291.459,310.804c-0.975,0-1.764-0.79-1.764-1.764v-4.587c0-0.975,0.79-1.764,1.764-1.764
				s1.764,0.79,1.764,1.764v4.587C293.224,310.014,292.434,310.804,291.459,310.804z"/>
			<path fill="#F9D366" d="M299.928,302.335h-4.587c-0.975,0-1.764-0.79-1.764-1.764s0.79-1.764,1.764-1.764h4.587
				c0.975,0,1.764,0.79,1.764,1.764S300.902,302.335,299.928,302.335z"/>
			<path fill="#F9D366" d="M287.578,302.335h-4.587c-0.975,0-1.764-0.79-1.764-1.764s0.79-1.764,1.764-1.764h4.587
				c0.975,0,1.764,0.79,1.764,1.764S288.552,302.335,287.578,302.335z"/>
		</g>
		<path fill="#FFFFFF" d="M342.702,205.805l-46.32,46.326L149.235,399.274l-24.281-24.281L272.1,227.85l46.32-46.326
			C330.583,184.14,340.086,193.644,342.702,205.805z"/>
		<path fill="#E7E7E7" d="M132.073,382.109L279.22,234.968l46.32-46.326c4.367,0.939,8.387,2.77,11.873,5.29
			c-4.497-6.222-11.197-10.732-18.992-12.408l-46.32,46.326L124.955,374.991L132.073,382.109z"/>
		<path fill="#E07DB2" d="M342.702,205.805l-46.32,46.326L272.1,227.85l22.466-22.466l23.854-23.86
			c3.655,0.789,7.066,2.195,10.127,4.111C335.672,190.091,340.876,197.298,342.702,205.805z"/>
		<path fill="#EE8C31" d="M301.247,247.261l-13.49,13.484c-1.827-8.507-7.024-15.715-14.149-20.164
			c-3.061-1.916-6.472-3.328-10.127-4.111l8.62-8.62l4.871-4.871c3.655,0.789,7.066,2.195,10.121,4.117
			c2.035,1.264,3.909,2.759,5.594,4.443C296.91,235.764,299.942,241.175,301.247,247.261z"/>
		<path fill="#ED4896" d="M328.548,185.635l-26.862,26.868l-22.466,22.466l-7.119-7.119l22.466-22.466l23.854-23.86
			C322.075,182.313,325.487,183.719,328.548,185.635z"/>
		<path fill="#D7792A" d="M287.092,227.097l-7.872,7.872l-5.612,5.612c-3.061-1.916-6.472-3.328-10.127-4.111l8.62-8.62l4.871-4.871
			C280.626,223.769,284.037,225.175,287.092,227.097z"/>
		<path fill="#F9D366" d="M339.337,163.649l11.115-2.254c5.248-1.064,5.248-8.564,0-9.628l-11.115-2.254
			c-10.954-2.221-19.515-10.781-21.736-21.736l-2.253-11.115c-1.064-5.248-8.564-5.248-9.628,0l-2.254,11.115
			c-2.221,10.954-10.781,19.515-21.736,21.736l-11.115,2.254c-5.248,1.064-5.248,8.564,0,9.628l11.115,2.254
			c10.954,2.221,19.515,10.781,21.736,21.736l2.254,11.115c1.064,5.248,8.564,5.248,9.628,0l2.254-11.115
			C319.822,174.43,328.383,165.869,339.337,163.649z"/>
	</g>
</g>
</svg>
