<?xml version="1.0" encoding="utf-8"?>
<!-- Generator: Adobe Illustrator 17.0.0, SVG Export Plug-In . SVG Version: 6.00 Build 0)  -->
<!DOCTYPE svg PUBLIC "-//W3C//DTD SVG 1.1//EN" "http://www.w3.org/Graphics/SVG/1.1/DTD/svg11.dtd">
<svg version="1.1" id="Layer_1" xmlns="http://www.w3.org/2000/svg" xmlns:xlink="http://www.w3.org/1999/xlink" x="0px" y="0px"
	 width="512px" height="512px" viewBox="0 0 512 512" enable-background="new 0 0 512 512" xml:space="preserve">
<g>
	<path fill="#FFD400" d="M256,31C131.747,31,31,131.747,31,256s100.747,225,225,225s225-100.747,225-225S380.253,31,256,31z"/>
	<g>
		<defs>
			<path id="SVGID_1_" d="M256,31C131.747,31,31,131.747,31,256s100.747,225,225,225s225-100.747,225-225S380.253,31,256,31z"/>
		</defs>
		<clipPath id="SVGID_2_">
			<use xlink:href="#SVGID_1_"  overflow="visible"/>
		</clipPath>
		<g clip-path="url(#SVGID_2_)">
			<polygon fill="#656D78" points="256.001,101.469 284.908,172.134 227.093,172.134 			"/>
			<g opacity="0.2">
				<polygon fill="#FFFFFF" points="256.001,101.469 227.093,172.134 233.517,172.134 259.213,109.32 				"/>
			</g>
			<g opacity="0.2">
				<polygon points="259.204,109.302 284.908,172.134 278.485,172.134 256.017,117.212 				"/>
			</g>
			<polygon fill="#656D78" points="284.908,191.406 227.093,191.406 188.548,236.374 323.453,236.374 			"/>
			<g opacity="0.2">
				<polygon fill="#FFFFFF" points="227.093,191.406 188.548,236.374 201.397,236.374 239.941,191.406 				"/>
			</g>
			<g opacity="0.2">
				<polygon points="284.908,191.406 323.453,236.374 310.605,236.374 272.06,191.406 				"/>
			</g>
			<rect x="188.547" y="422.675" fill="#E9573F" width="134.908" height="64.24"/>
			<rect x="188.547" y="236.375" fill="#FC6E51" width="134.908" height="25.696"/>
			<g>
				<path fill="#3A3847" d="M246.556,149.649c-1.772,0-3.244-1.437-3.244-3.212c0-1.776,1.405-3.212,3.181-3.212h0.063
					c1.776,0,3.212,1.437,3.212,3.212C249.769,148.212,248.332,149.649,246.556,149.649z"/>
				<path fill="#3A3847" d="M256.192,156.073c-1.773,0-3.244-1.437-3.244-3.212c0-1.776,1.405-3.212,3.181-3.212h0.063
					c1.776,0,3.212,1.437,3.212,3.212C259.404,154.636,257.968,156.073,256.192,156.073z"/>
				<path fill="#3A3847" d="M265.825,149.649c-1.769,0-3.237-1.437-3.237-3.212c0-1.776,1.405-3.212,3.175-3.212h0.063
					c1.782,0,3.212,1.437,3.212,3.212C269.037,148.212,267.607,149.649,265.825,149.649z"/>
				<path fill="#3A3847" d="M265.825,162.497c-1.769,0-3.237-1.437-3.237-3.212c0-1.775,1.405-3.212,3.175-3.212h0.063
					c1.782,0,3.212,1.437,3.212,3.212C269.037,161.061,267.607,162.497,265.825,162.497z"/>
				<path fill="#3A3847" d="M246.556,162.497c-1.772,0-3.244-1.437-3.244-3.212c0-1.775,1.405-3.212,3.181-3.212h0.063
					c1.776,0,3.212,1.437,3.212,3.212C249.769,161.061,248.332,162.497,246.556,162.497z"/>
			</g>
			<g>
				<rect x="227.096" y="172.133" fill="#FC6E51" width="57.815" height="19.272"/>
				<path fill="#FC6E51" d="M207.821,422.671h-32.12V262.07h32.12h19.273h19.272h19.272h19.272h19.272h32.12v160.601h-32.12h-19.272
					h-19.272h-19.272h-19.272H207.821L207.821,422.671z M201.397,287.767v109.208h109.209V287.767H201.397z"/>
			</g>
			<path fill="#656D78" d="M297.757,342.37c0-23.061-18.694-41.756-41.756-41.756s-41.756,18.695-41.756,41.756
				c0,23.062,18.694,41.757,41.756,41.757S297.757,365.432,297.757,342.37z M201.397,396.975V287.767h109.209v109.208
				L201.397,396.975L201.397,396.975z"/>
			<circle fill="#E6E9ED" cx="256.001" cy="342.371" r="41.757"/>
			<path fill="#FFFFFF" d="M227.093,342.37c0-20.872,15.328-38.118,35.331-41.211c-2.097-0.326-4.233-0.546-6.423-0.546
				c-23.062,0-41.756,18.695-41.756,41.756c0,23.062,18.694,41.757,41.756,41.757c2.19,0,4.326-0.219,6.423-0.546
				C242.422,380.488,227.093,363.243,227.093,342.37z"/>
			<g opacity="0.2">
				<path d="M284.908,342.37c0,20.872-15.332,38.118-35.331,41.211c2.097,0.326,4.233,0.546,6.423,0.546
					c23.062,0,41.756-18.695,41.756-41.757c0-23.061-18.694-41.756-41.756-41.756c-2.19,0-4.326,0.219-6.423,0.546
					C269.577,304.252,284.908,321.499,284.908,342.37z"/>
			</g>
			<g opacity="0.4">
				<rect x="227.096" y="172.133" fill="#FFFFFF" width="9.636" height="19.272"/>
			</g>
			<g opacity="0.2">
				<rect x="275.276" y="172.133" width="9.636" height="19.272"/>
			</g>
			<g opacity="0.4">
				<rect x="188.547" y="236.375" fill="#FFFFFF" width="12.848" height="19.272"/>
			</g>
			<g opacity="0.4">
				<rect x="175.697" y="262.067" fill="#FFFFFF" width="12.848" height="160.6"/>
			</g>
			<g opacity="0.4">
				<rect x="188.547" y="429.092" fill="#FFFFFF" width="12.848" height="57.816"/>
			</g>
			<g opacity="0.2">
				<rect x="310.605" y="429.092" width="12.848" height="57.816"/>
			</g>
			<g opacity="0.2">
				<rect x="323.455" y="262.067" width="12.847" height="160.6"/>
			</g>
			<g opacity="0.2">
				<rect x="310.605" y="236.375" width="12.848" height="19.272"/>
			</g>
			<g opacity="0.2">
				<rect x="201.397" y="287.767" fill="#FFFFFF" width="6.424" height="109.209"/>
			</g>
			<g opacity="0.2">
				<rect x="304.18" y="287.767" width="6.425" height="109.209"/>
			</g>
			<g>
				<path fill="#3A3847" d="M336.3,425.884H175.7c-1.775,0-3.212-1.437-3.212-3.212V262.07c0-1.775,1.437-3.212,3.212-3.212h160.6
					c1.776,0,3.212,1.437,3.212,3.212v160.601C339.513,424.447,338.076,425.884,336.3,425.884z M178.912,419.46h154.177V265.282
					H178.912V419.46z"/>
				<path fill="#3A3847" d="M310.605,400.187H201.397c-1.776,0-3.212-1.436-3.212-3.212V287.767c0-1.776,1.437-3.212,3.212-3.212
					h109.209c1.776,0,3.212,1.437,3.212,3.212v109.208C313.818,398.75,312.381,400.187,310.605,400.187z M204.609,393.763h102.784
					V290.978H204.609V393.763z"/>
				<path fill="#3A3847" d="M256.001,387.339c-24.796,0-44.968-20.176-44.968-44.968c0-24.792,20.172-44.968,44.968-44.968
					c24.793,0,44.968,20.175,44.968,44.968C300.969,367.163,280.794,387.339,256.001,387.339z M256.001,303.826
					c-21.255,0-38.543,17.29-38.543,38.544c0,21.255,17.289,38.544,38.543,38.544s38.543-17.29,38.543-38.544
					C294.544,321.116,277.255,303.826,256.001,303.826z"/>
				<path fill="#3A3847" d="M207.821,425.884c-1.775,0-3.212-1.437-3.212-3.212v-6.423c0-1.776,1.437-3.212,3.212-3.212
					c1.775,0,3.212,1.437,3.212,3.212v6.423C211.032,424.447,209.596,425.884,207.821,425.884z"/>
				<path fill="#3A3847" d="M227.093,425.884c-1.776,0-3.212-1.437-3.212-3.212v-6.423c0-1.776,1.437-3.212,3.212-3.212
					c1.775,0,3.211,1.437,3.211,3.212v6.423C230.304,424.447,228.868,425.884,227.093,425.884z"/>
				<path fill="#3A3847" d="M246.365,425.884c-1.776,0-3.212-1.437-3.212-3.212v-6.423c0-1.776,1.437-3.212,3.212-3.212
					c1.776,0,3.212,1.437,3.212,3.212v6.423C249.577,424.447,248.141,425.884,246.365,425.884z"/>
				<path fill="#3A3847" d="M265.637,425.884c-1.776,0-3.212-1.437-3.212-3.212v-6.423c0-1.776,1.437-3.212,3.212-3.212
					c1.776,0,3.212,1.437,3.212,3.212v6.423C268.849,424.447,267.412,425.884,265.637,425.884z"/>
				<path fill="#3A3847" d="M284.908,425.884c-1.776,0-3.211-1.437-3.211-3.212v-6.423c0-1.776,1.435-3.212,3.211-3.212
					c1.776,0,3.212,1.437,3.212,3.212v6.423C288.121,424.447,286.684,425.884,284.908,425.884z"/>
				<path fill="#3A3847" d="M304.18,425.884c-1.774,0-3.211-1.437-3.211-3.212v-6.423c0-1.776,1.437-3.212,3.211-3.212
					c1.776,0,3.212,1.437,3.212,3.212v6.423C307.393,424.447,305.956,425.884,304.18,425.884z"/>
				<path fill="#3A3847" d="M323.453,413.035c-1.776,0-3.212-1.437-3.212-3.212V274.918c0-1.776,1.437-3.212,3.212-3.212
					c1.774,0,3.211,1.436,3.211,3.212v134.905C326.664,411.599,325.228,413.035,323.453,413.035z"/>
				<path fill="#3A3847" d="M188.548,413.035c-1.775,0-3.212-1.437-3.212-3.212V274.918c0-1.776,1.437-3.212,3.212-3.212
					c1.776,0,3.212,1.436,3.212,3.212v134.905C191.761,411.599,190.324,413.035,188.548,413.035z"/>
				<path fill="#3A3847" d="M188.548,258.858c-1.775,0-3.212-1.437-3.212-3.212v-38.544c0-1.775,1.437-3.212,3.212-3.212
					c1.776,0,3.212,1.437,3.212,3.212v38.544C191.761,257.422,190.324,258.858,188.548,258.858z"/>
				<path fill="#3A3847" d="M323.453,239.586H188.548c-1.775,0-3.212-1.436-3.212-3.212c0-1.776,1.437-3.212,3.212-3.212h134.906
					c1.774,0,3.211,1.437,3.211,3.212C326.665,238.15,325.228,239.586,323.453,239.586z"/>
				<path fill="#3A3847" d="M323.453,258.858c-1.776,0-3.212-1.437-3.212-3.212v-38.544c0-1.775,1.437-3.212,3.212-3.212
					c1.774,0,3.211,1.437,3.211,3.212v38.544C326.664,257.422,325.228,258.858,323.453,258.858z"/>
				<path fill="#3A3847" d="M227.093,265.282c-1.776,0-3.212-1.437-3.212-3.212v-12.848c0-1.775,1.437-3.212,3.212-3.212
					c1.775,0,3.211,1.437,3.211,3.212v12.848C230.304,263.846,228.868,265.282,227.093,265.282z"/>
				<path fill="#3A3847" d="M207.821,265.282c-1.775,0-3.212-1.437-3.212-3.212v-12.848c0-1.775,1.437-3.212,3.212-3.212
					c1.775,0,3.212,1.437,3.212,3.212v12.848C211.032,263.846,209.596,265.282,207.821,265.282z"/>
				<path fill="#3A3847" d="M246.365,265.282c-1.776,0-3.212-1.437-3.212-3.212v-12.848c0-1.775,1.437-3.212,3.212-3.212
					c1.776,0,3.212,1.437,3.212,3.212v12.848C249.577,263.846,248.141,265.282,246.365,265.282z"/>
				<path fill="#3A3847" d="M265.637,265.282c-1.776,0-3.212-1.437-3.212-3.212v-12.848c0-1.775,1.437-3.212,3.212-3.212
					c1.776,0,3.212,1.437,3.212,3.212v12.848C268.849,263.846,267.412,265.282,265.637,265.282z"/>
				<path fill="#3A3847" d="M284.908,265.282c-1.776,0-3.211-1.437-3.211-3.212v-12.848c0-1.775,1.435-3.212,3.211-3.212
					c1.776,0,3.212,1.437,3.212,3.212v12.848C288.121,263.846,286.684,265.282,284.908,265.282z"/>
				<path fill="#3A3847" d="M304.18,265.282c-1.774,0-3.211-1.437-3.211-3.212v-12.848c0-1.775,1.437-3.212,3.211-3.212
					c1.776,0,3.212,1.437,3.212,3.212v12.848C307.393,263.846,305.956,265.282,304.18,265.282z"/>
				<path fill="#3A3847" d="M175.701,265.282c-1.775,0-3.212-1.437-3.212-3.212v-12.848c0-1.775,1.437-3.212,3.212-3.212
					c1.776,0,3.212,1.437,3.212,3.212v12.848C178.912,263.846,177.476,265.282,175.701,265.282z"/>
				<path fill="#3A3847" d="M336.3,265.282c-1.774,0-3.211-1.437-3.211-3.212v-12.848c0-1.775,1.437-3.212,3.211-3.212
					c1.776,0,3.212,1.437,3.212,3.212v12.848C339.513,263.846,338.076,265.282,336.3,265.282z"/>
				<path fill="#3A3847" d="M256.001,345.582c-1.776,0-3.213-1.436-3.213-3.212v-28.908c0-1.775,1.437-3.212,3.213-3.212
					c1.776,0,3.212,1.437,3.212,3.212v28.908C259.213,344.146,257.776,345.582,256.001,345.582z"/>
				<path fill="#3A3847" d="M276.427,366.009c-0.816,0-1.644-0.314-2.271-0.941l-20.427-20.427c-1.255-1.255-1.255-3.287,0-4.542
					c1.255-1.254,3.288-1.255,4.542,0l20.427,20.427c1.255,1.255,1.255,3.287,0,4.542
					C278.071,365.695,277.255,366.009,276.427,366.009z"/>
				<path fill="#3A3847" d="M194.97,233.162c-0.724,0-1.453-0.245-2.055-0.743c-1.361-1.136-1.547-3.163-0.411-4.526l32.12-38.544
					c1.136-1.365,3.159-1.544,4.526-0.411c1.36,1.136,1.546,3.162,0.411,4.526l-32.12,38.544
					C196.804,232.77,195.892,233.162,194.97,233.162z"/>
				<path fill="#3A3847" d="M284.908,194.618h-57.815c-1.776,0-3.212-1.437-3.212-3.212c0-1.775,1.437-3.212,3.212-3.212h57.815
					c1.776,0,3.212,1.437,3.212,3.212C288.121,193.181,286.684,194.618,284.908,194.618z"/>
				<path fill="#3A3847" d="M317.028,233.162c-0.916,0-1.832-0.392-2.472-1.154l-32.12-38.544c-1.128-1.365-0.946-3.391,0.414-4.526
					c1.368-1.132,3.388-0.954,4.53,0.411l32.12,38.544c1.129,1.365,0.948,3.391-0.414,4.526
					C318.485,232.918,317.757,233.162,317.028,233.162z"/>
				<path fill="#3A3847" d="M227.093,194.618c-1.776,0-3.212-1.437-3.212-3.212v-19.272c0-1.776,1.437-3.212,3.212-3.212
					c1.775,0,3.211,1.437,3.211,3.212v19.272C230.304,193.181,228.868,194.618,227.093,194.618z"/>
				<path fill="#3A3847" d="M284.908,194.618c-1.776,0-3.211-1.437-3.211-3.212v-19.272c0-1.776,1.435-3.212,3.211-3.212
					c1.776,0,3.212,1.437,3.212,3.212v19.272C288.121,193.181,286.684,194.618,284.908,194.618z"/>
				<path fill="#3A3847" d="M284.908,175.346h-57.815c-1.776,0-3.212-1.437-3.212-3.212c0-1.776,1.437-3.212,3.212-3.212h57.815
					c1.776,0,3.212,1.437,3.212,3.212C288.121,173.909,286.684,175.346,284.908,175.346z"/>
				<path fill="#3A3847" d="M227.093,175.346c-0.408,0-0.819-0.076-1.218-0.239c-1.641-0.671-2.428-2.547-1.757-4.191l28.908-70.664
					c0.671-1.64,2.56-2.421,4.191-1.756c1.641,0.671,2.428,2.547,1.757,4.191l-28.909,70.664
					C229.558,174.593,228.357,175.346,227.093,175.346z"/>
				<path fill="#3A3847" d="M284.908,175.346c-1.267,0-2.466-0.753-2.972-1.994l-28.909-70.664
					c-0.671-1.644,0.116-3.519,1.757-4.191c1.631-0.684,3.517,0.112,4.191,1.756l28.908,70.664c0.671,1.644-0.113,3.519-1.757,4.191
					C285.724,175.27,285.31,175.346,284.908,175.346z"/>
				<path fill="#3A3847" d="M256.001,104.681c-1.776,0-3.213-1.437-3.213-3.212V82.197c0-1.776,1.437-3.212,3.213-3.212
					c1.776,0,3.212,1.437,3.212,3.212v19.272C259.213,103.245,257.776,104.681,256.001,104.681z"/>
				<path fill="#3A3847" d="M188.548,490.124c-1.775,0-3.212-1.437-3.212-3.212v-57.816c0-1.775,1.437-3.212,3.212-3.212
					c1.776,0,3.212,1.437,3.212,3.212v57.816C191.761,488.687,190.324,490.124,188.548,490.124z"/>
				<path fill="#3A3847" d="M201.397,490.124c-1.776,0-3.212-1.437-3.212-3.212v-57.816c0-1.775,1.437-3.212,3.212-3.212
					c1.776,0,3.212,1.437,3.212,3.212v57.816C204.609,488.687,203.172,490.124,201.397,490.124z"/>
				<path fill="#3A3847" d="M323.453,490.124c-1.776,0-3.212-1.437-3.212-3.212v-57.816c0-1.775,1.437-3.212,3.212-3.212
					c1.774,0,3.211,1.437,3.211,3.212v57.816C326.664,488.687,325.228,490.124,323.453,490.124z"/>
				<path fill="#3A3847" d="M310.605,490.124c-1.776,0-3.212-1.437-3.212-3.212v-57.816c0-1.775,1.437-3.212,3.212-3.212
					s3.212,1.437,3.212,3.212v57.816C313.818,488.687,312.381,490.124,310.605,490.124z"/>
				<path fill="#3A3847" d="M284.908,490.124c-1.776,0-3.211-1.437-3.211-3.212v-32.12c0-1.776,1.435-3.212,3.211-3.212
					c1.776,0,3.212,1.436,3.212,3.212v32.12C288.121,488.687,286.684,490.124,284.908,490.124z"/>
				<path fill="#3A3847" d="M256.001,490.124c-1.776,0-3.213-1.437-3.213-3.212v-12.848c0-1.776,1.437-3.212,3.213-3.212
					c1.776,0,3.212,1.437,3.212,3.212v12.848C259.213,488.687,257.776,490.124,256.001,490.124z"/>
				<path fill="#3A3847" d="M227.093,490.124c-1.776,0-3.212-1.437-3.212-3.212v-32.12c0-1.776,1.437-3.212,3.212-3.212
					c1.775,0,3.211,1.436,3.211,3.212v32.12C230.304,488.687,228.868,490.124,227.093,490.124z"/>
				<path fill="#3A3847" d="M227.093,213.89c-0.822,0-1.644-0.314-2.271-0.941c-1.255-1.254-1.255-3.287,0-4.542l6.423-6.424
					c1.255-1.254,3.288-1.254,4.542,0c1.255,1.255,1.255,3.288,0,4.542l-6.424,6.424C228.736,213.576,227.915,213.89,227.093,213.89
					z"/>
				<path fill="#3A3847" d="M239.941,213.89c-0.821,0-1.643-0.314-2.27-0.941l-6.425-6.424c-1.255-1.254-1.255-3.287,0-4.542
					c1.255-1.254,3.288-1.254,4.542,0l6.423,6.424c1.255,1.255,1.255,3.287,0,4.542C241.584,213.576,240.762,213.89,239.941,213.89z
					"/>
				<path fill="#3A3847" d="M249.577,226.738c-0.822,0-1.644-0.314-2.271-0.941c-1.255-1.255-1.255-3.287,0-4.542l6.423-6.424
					c1.255-1.255,3.288-1.255,4.542,0s1.255,3.287,0,4.542l-6.425,6.424C251.22,226.424,250.398,226.738,249.577,226.738z"/>
				<path fill="#3A3847" d="M262.424,226.738c-0.822,0-1.644-0.314-2.27-0.941l-6.425-6.424c-1.255-1.255-1.255-3.287,0-4.542
					c1.255-1.254,3.288-1.255,4.542,0l6.423,6.424c1.255,1.254,1.255,3.287,0,4.542
					C264.068,226.424,263.246,226.738,262.424,226.738z"/>
				<path fill="#3A3847" d="M272.06,213.89c-0.82,0-1.642-0.314-2.27-0.941c-1.255-1.254-1.255-3.287,0-4.542l6.423-6.424
					c1.255-1.254,3.288-1.254,4.542,0c1.255,1.255,1.255,3.288,0,4.542l-6.425,6.424C273.704,213.576,272.882,213.89,272.06,213.89z
					"/>
				<path fill="#3A3847" d="M284.908,213.89c-0.822,0-1.644-0.314-2.271-0.941l-6.423-6.424c-1.255-1.254-1.255-3.287,0-4.542
					c1.255-1.254,3.288-1.254,4.542,0l6.423,6.424c1.255,1.255,1.255,3.287,0,4.542C286.552,213.576,285.731,213.89,284.908,213.89z
					"/>
			</g>
			<g opacity="0.2">
				<rect x="188.547" y="422.675" width="134.908" height="6.424"/>
			</g>
			<g opacity="0.2">
				<rect x="188.547" y="255.642" width="134.908" height="6.424"/>
			</g>
		</g>
	</g>
</g>
</svg>
