<?xml version="1.0" encoding="utf-8"?>
<!-- Generator: Adobe Illustrator 17.0.0, SVG Export Plug-In . SVG Version: 6.00 Build 0)  -->
<!DOCTYPE svg PUBLIC "-//W3C//DTD SVG 1.1//EN" "http://www.w3.org/Graphics/SVG/1.1/DTD/svg11.dtd">
<svg version="1.1" id="Layer_1" xmlns="http://www.w3.org/2000/svg" xmlns:xlink="http://www.w3.org/1999/xlink" x="0px" y="0px"
	 width="512px" height="512px" viewBox="0 0 512 512" enable-background="new 0 0 512 512" xml:space="preserve">
<g>
	<path fill="#26A9E0" d="M256,31C131.747,31,31,131.747,31,256s100.747,225,225,225s225-100.747,225-225S380.253,31,256,31z"/>
	<g>
		<path fill="#FFB464" d="M115.565,125.529c0,0,53.814,34.821,56.404,72.519c41.056,11.319,39.713,48.346,39.713,48.346
			s43.934-7.674,78.851,31.08h23.022l-20.409-34.014c-4.723-7.872-7.218-16.879-7.218-26.058v-36.62L115.565,125.529z"/>
		<path fill="#ED7D5C" d="M207.658,254.453c-1.331,0-2.649-0.571-3.557-1.677c-1.619-1.965-1.34-4.865,0.625-6.48l66.234-54.547
			l-104.22,12.026c-2.473,0.281-4.811-1.52-5.099-4.047c-0.292-2.527,1.52-4.811,4.047-5.104l119.715-13.813
			c2.01-0.223,3.966,0.895,4.762,2.774c0.801,1.877,0.265,4.058-1.309,5.355L210.58,253.4
			C209.722,254.106,208.688,254.453,207.658,254.453z"/>
		<g>
			<path fill="#BE4150" d="M314.372,266.897l-17.545-26.712c-4.119-6.587-6.295-14.182-6.295-21.961v-29.519l3.148,1.049
				c0.486,0.162,0.976,0.239,1.457,0.239c1.929,0,3.723-1.221,4.366-3.15c0.805-2.412-0.499-5.02-2.909-5.825l-179.571-59.857
				c-2.428-0.812-5.023,0.504-5.823,2.912c-0.805,2.412,0.499,5.02,2.909,5.825l167.216,55.739v32.588
				c0,9.506,2.662,18.787,7.698,26.844l17.71,28.093C308.675,270.553,311.214,268.371,314.372,266.897z"/>
			<path fill="#BE4150" d="M239.885,272.87c-35.601,0-64.462,28.86-64.462,64.462c0,12.715-10.307,23.022-23.022,23.022
				c-12.715,0-23.022-10.307-23.022-23.022V314.31c0-12.504-4.968-24.497-13.809-33.34l-0.003-0.003v56.365
				c0,22.887,18.553,41.44,41.44,41.44s41.44-18.553,41.44-41.44c0-15.258,12.369-27.627,27.627-27.627h13.813l32.233-36.835
				L239.885,272.87L239.885,272.87z"/>
		</g>
		<g>
			<path fill="#DC4655" d="M391.83,176.178h-5.394c-2.442,0-4.785-0.97-6.511-2.697l-1.117-1.117
				c-3.454-3.454-8.139-5.394-13.023-5.394h-6.185h-14.893h-8.129l0.207,1.858c-5,2.396-8.835,6.943-10.075,12.647l-17.504,80.517
				c-1.38,6.35-7,10.879-13.498,10.879h-32.761c-15.244,0-27.607,12.348-27.627,27.592l-0.007,5.82
				c-0.007,5.266,1.492,10.424,4.319,14.866l18.809,29.556l9.071-8.768v-23.022h8.882c6.106,0,11.962,2.426,16.28,6.744l4.931,4.931
				c3.332,3.332,7.583,5.519,12.157,6.344c2.192,0.395,3.795,2.27,3.795,4.498v28.681l27.626-46.593V217.618
				c0-5.086,4.123-9.209,9.209-9.209h9.209h4.604v-4.604c0-5.086,4.123-9.209,9.209-9.209h23.022c2.543,0,4.604-2.062,4.604-4.604
				v-4.604C401.039,180.301,396.916,176.178,391.83,176.178z"/>
			<path fill="#DC4655" d="M193.84,336.031L193.84,336.031c0,19.6-14.757,36.741-34.312,38.052
				c-21.447,1.437-39.358-15.605-39.358-36.75V272.87c0-2.545-2.059-4.604-4.604-4.604c-2.545,0-4.605,2.059-4.605,4.604v62.836
				c0,25.052,19.312,46.734,44.348,47.638c26.312,0.95,47.995-20.313,47.738-46.475c-0.124-12.536,10.488-22.561,23.024-22.561
				h18.418v-13.813h-15.115C209.749,300.497,193.84,316.406,193.84,336.031z"/>
		</g>
		<g>
			<path fill="#BE4150" d="M391.83,217.618c-2.545,0-4.604-2.059-4.604-4.604h-27.627c-10.158,0-18.418-8.262-18.418-18.418
				c0-2.543,2.059-4.604,4.604-4.604s4.604,2.062,4.604,4.604c0,5.079,4.133,9.209,9.209,9.209h27.626
				c5.076,0,9.209,4.13,9.209,9.209C396.434,215.558,394.375,217.618,391.83,217.618z"/>
			<path fill="#BE4150" d="M267.511,300.497c-2.545,0-4.604,2.059-4.604,4.604v29.205c0,3.692-1.439,7.163-4.047,9.771
				l-21.439,21.439c-4.348,4.348-6.745,10.131-6.745,16.282v6.183h-6.906c-2.545,0-4.604,2.059-4.604,4.604s2.059,4.604,4.604,4.604
				h10.665c2.842,0,5.477-0.801,7.63-2.316c2.118-1.497,4.551-2.289,7.028-2.289c3.885,0,6.709,1.844,8.399,3.395
				c0.886,0.81,1.997,1.21,3.112,1.21c1.245,0,2.487-0.504,3.395-1.493c1.718-1.875,1.592-4.784-0.283-6.506
				c-6.535-5.994-16.079-7.314-23.831-3.656v-3.736c0-3.692,1.439-7.163,4.047-9.771l21.439-21.439
				c4.348-4.348,6.745-10.131,6.745-16.282v-29.205C272.115,302.556,270.056,300.497,267.511,300.497z"/>
			<path fill="#BE4150" d="M346.406,389.19c-6.485-5.945-15.923-7.29-23.642-3.739v-15.34c0-5.468,1.605-10.769,4.64-15.324
				l7.59-11.385c4.047-6.075,6.187-13.138,6.187-20.432v-17.869c0-2.545-2.059-4.604-4.604-4.604s-4.604,2.059-4.604,4.604v17.869
				c0,5.468-1.605,10.769-4.64,15.324l-7.59,11.385c-4.047,6.075-6.187,13.138-6.187,20.432v17.869h-7.096
				c-2.545,0-4.604,2.059-4.604,4.604s2.059,4.604,4.604,4.604h10.67c2.846,0,5.481-0.801,7.626-2.316
				c2.118-1.497,4.551-2.289,7.028-2.289c3.885,0,6.709,1.844,8.399,3.395c0.885,0.81,1.997,1.21,3.112,1.21
				c1.245,0,2.487-0.504,3.395-1.493C348.407,393.822,348.281,390.913,346.406,389.19z"/>
		</g>
		<circle fill="#FFB464" cx="368.807" cy="180.779" r="4.604"/>
		<path fill="#BE4150" d="M350.39,171.573h-18.418v-9.209h18.418c2.543,0,4.604,2.062,4.604,4.604l0,0
			C354.994,169.512,352.933,171.573,350.39,171.573z"/>
		<path fill="#EBC9A0" d="M313.555,171.573h23.022c2.543,0,4.604-2.062,4.604-4.604l0,0c0-2.543-2.062-4.604-4.604-4.604h-23.022
			c-2.543,0-4.604,2.062-4.604,4.604l0,0C308.95,169.512,311.012,171.573,313.555,171.573z"/>
	</g>
</g>
</svg>
