<?xml version="1.0" encoding="utf-8"?>
<!-- Generator: Adobe Illustrator 17.0.0, SVG Export Plug-In . SVG Version: 6.00 Build 0)  -->
<!DOCTYPE svg PUBLIC "-//W3C//DTD SVG 1.1//EN" "http://www.w3.org/Graphics/SVG/1.1/DTD/svg11.dtd">
<svg version="1.1" id="Layer_1" xmlns="http://www.w3.org/2000/svg" xmlns:xlink="http://www.w3.org/1999/xlink" x="0px" y="0px"
	 width="512px" height="512px" viewBox="0 0 512 512" enable-background="new 0 0 512 512" xml:space="preserve">
<g>
	<path fill="#F15B2A" d="M256,31C131.747,31,31,131.747,31,256s100.747,225,225,225s225-100.747,225-225S380.253,31,256,31z"/>
	<g>
		<path fill="#975454" d="M395.922,308.346c-1.718,10.318-7.365,13.525-10.591,14.512L147.55,396.147
			c-1.581,0.494-3.29,0.329-4.752-0.439c-1.462-0.777-2.559-2.102-3.043-3.674l-14.695-47.665c-1.014-3.29,0.832-6.772,4.122-7.786
			l237.79-73.289c1.215-0.384,2.476-0.567,3.756-0.567c9.358,0,18.715,9.979,23.303,24.838
			C396.269,294.841,396.936,302.225,395.922,308.346z"/>
		<path fill="#EAAE7A" d="M131.019,342.542c6.58-2.029,15.206,6.991,19.264,20.16c4.057,13.159,2.01,25.459-4.569,27.488
			c-6.579,2.029-15.206-6.991-19.264-20.15C122.392,356.88,124.439,344.571,131.019,342.542z"/>
		<g>
			<path fill="#804646" d="M156.24,360.856c2.239,7.274,2.915,14.658,1.891,20.78c-1.27,7.649-5.026,12.803-10.582,14.512
				c-1.215,0.384-2.476,0.567-3.756,0.567c-9.358,0-18.724-9.979-23.302-24.838c-2.239-7.274-2.915-14.658-1.891-20.78
				c1.27-7.649,5.026-12.803,10.582-14.512c1.206-0.375,2.476-0.567,3.755-0.567l0,0
				C142.295,336.017,151.662,345.996,156.24,360.856z M143.876,384.24c0.201-0.064,1.371-1.124,1.956-4.643
				c0.704-4.194,0.146-9.687-1.508-15.069c-3.244-10.528-9.139-16.048-11.386-16.048c-0.036,0-0.064,0.009-0.082,0.018
				c-0.201,0.055-1.37,1.124-1.955,4.643c-0.704,4.185-0.146,9.687,1.508,15.06c3.244,10.527,9.139,16.047,11.386,16.047
				C143.821,384.249,143.849,384.249,143.876,384.24z"/>
			<path fill="#804646" d="M338.388,317.759c-3.199,0.987-3.93,2.559-4.213,3.966c-0.338,1.626-0.018,3.354,0.128,3.893
				l-0.018-0.073l-11.917,3.682c-0.237-0.795-2.294-7.959,1.243-14.667c1.526-2.888,4.688-6.735,11.103-8.709
				c10.006-3.079,47.875-15.169,59.152-18.77c0.055,0.156,0.11,0.32,0.164,0.484c1.224,3.984,1.983,8.006,2.248,11.834
				C383.55,303.467,348.065,314.78,338.388,317.759z"/>
			<path fill="#804646" d="M233.86,317.339l-11.916,3.692l-0.018-0.073c0.156,0.53,0.466,2.266,0.137,3.884
				c-0.292,1.407-1.024,2.979-4.213,3.965c-11.907,3.665-71.479,22.051-71.479,22.051l3.683,11.907c0,0,59.563-18.378,71.461-22.051
				c6.415-1.974,9.577-5.83,11.103-8.709C236.154,325.299,234.107,318.143,233.86,317.339z"/>
		</g>
		<path fill="#A85E5E" d="M389.461,344.369l-14.694,47.665c-1.014,3.29-4.505,5.136-7.795,4.112l-237.79-73.288
			c-3.217-0.987-8.873-4.195-10.582-14.512c-1.024-6.122-0.347-13.506,1.891-20.78c4.578-14.859,13.945-24.838,23.302-24.838l0,0
			c1.28,0,2.541,0.182,3.756,0.567l237.79,73.289c1.572,0.484,2.897,1.58,3.674,3.042
			C389.781,341.079,389.946,342.798,389.461,344.369z"/>
		<g>
			<path fill="#975454" d="M189.686,315.438c1.252,3.199,1.864,7.155,1.818,11.734c-0.082,7.173-1.763,13.753-1.828,14.036
				c-0.027,0.091-0.064,0.182-0.091,0.274l-11.917-3.674c0.274-1.187,1.316-5.912,1.371-10.773c0.018-1.965-0.128-8.417-2.906-9.275
				c-10.792-3.327-50.909-15.828-57.918-18.02c0.247-3.93,1.014-8.06,2.276-12.172c0.018-0.055,0.036-0.091,0.046-0.146
				c0.119,0.036,0.229,0.055,0.347,0.091c0.466,0.146,47.162,14.712,58.924,18.34C182.988,306.83,187.283,309.288,189.686,315.438z"
				/>
			<path fill="#975454" d="M296.672,328.807c11.907,3.665,71.469,22.051,71.469,22.051l-3.674,11.907
				c0,0-59.562-18.378-71.469-22.051c-5.374-1.645-11.816-6.689-12.017-21.255c-0.091-7.21,1.407-13.835,1.471-14.109
				c0.036-0.146,0.073-0.292,0.119-0.439l11.935,3.673C292.852,316.224,292.861,327.628,296.672,328.807z"/>
		</g>
		<path fill="#F3BE8D" d="M383.504,342.542c-6.58-2.029-15.207,7-19.264,20.16c-4.058,13.159-2.011,25.459,4.569,27.488
			c6.58,2.029,15.207-6.991,19.264-20.15C392.13,356.88,390.083,344.571,383.504,342.542z"/>
		<path fill="#975454" d="M385.34,336.584c5.556,1.718,9.312,6.862,10.582,14.512c1.014,6.123,0.347,13.507-1.891,20.78
			c-4.588,14.859-13.945,24.838-23.303,24.838c-1.28,0-2.541-0.182-3.756-0.567c-5.556-1.709-9.312-6.863-10.583-14.512
			c-1.023-6.122-0.347-13.506,1.891-20.78c4.578-14.859,13.946-24.838,23.303-24.838
			C382.864,336.017,384.125,336.209,385.34,336.584z M382.115,368.202c1.654-5.373,2.211-10.874,1.508-15.06
			c-0.585-3.519-1.755-4.588-1.956-4.643c-0.018-0.009-0.046-0.018-0.082-0.018c-2.248,0-8.143,5.52-11.387,16.048
			c-1.654,5.382-2.211,10.874-1.508,15.069c0.585,3.519,1.755,4.578,1.956,4.643c0.018,0.009,0.046,0.009,0.082,0.009
			C372.976,384.249,378.871,378.729,382.115,368.202z"/>
		<path fill="#F5BB42" d="M338.36,235.78c-3.308-15.402-11.972-30.654-25.76-45.321c-14.959-15.914-23.385-34.524-25.039-55.314
			c-1.252-15.677,2.02-26.807,2.047-26.903l3.363-10.97l-11.03,3.153c-30.16,8.617-53.07,22.58-68.075,41.514
			c-11.706,14.758-18.761,32.692-21.064,53.473c-0.064-0.082-0.119-0.164-0.174-0.242c-1.407-2.029-2.869-4.126-4.359-5.977
			l-6.461-8.051l-4.112,9.471c-7.64,17.582-10.966,34.78-9.887,51.124c0.978,14.822,5.519,28.648,13.506,41.104
			c8.471,13.214,20.616,24.389,35.11,32.34c13.533,7.421,28.721,11.661,42.74,11.944c0.676,0.009,1.362,0.027,2.047,0.027
			c24.595,0,59.548-19.447,73.128-50.854C339.978,263.259,341.34,249.62,338.36,235.78z"/>
		<path fill="#FFCF56" d="M288.246,248.299c-17.363-20.58-24.942-41.021-25.015-41.222l-3.207-8.85l-6.9,6.41
			c-18.514,17.221-30.933,33.642-36.891,48.812c-5.273,13.392-5.666,25.985-1.179,37.426c4.195,10.691,12.83,20.314,24.966,27.798
			c4.743,2.924,9.111,4.962,11.935,6.159c5.456,2.294,6.69,2.294,7.347,2.294l1.133,0.009l1.051-0.402
			c11.455-4.25,31.632-18.688,37.06-39.313C302.073,274.006,298.509,260.481,288.246,248.299z"/>
	</g>
</g>
</svg>
