<?xml version="1.0" encoding="utf-8"?>
<!-- Generator: Adobe Illustrator 17.0.0, SVG Export Plug-In . SVG Version: 6.00 Build 0)  -->
<!DOCTYPE svg PUBLIC "-//W3C//DTD SVG 1.1//EN" "http://www.w3.org/Graphics/SVG/1.1/DTD/svg11.dtd">
<svg version="1.1" id="Layer_1" xmlns="http://www.w3.org/2000/svg" xmlns:xlink="http://www.w3.org/1999/xlink" x="0px" y="0px"
	 width="512px" height="512px" viewBox="0 0 512 512" enable-background="new 0 0 512 512" xml:space="preserve">
<g>
	<path fill="#163A6C" d="M256,31C131.747,31,31,131.747,31,256s100.747,225,225,225s225-100.747,225-225S380.253,31,256,31z"/>
	<g>
		<g>
			<path id="XMLID_212_" fill="#FFFFFF" d="M397.44,378.595l-29.076-27.334l18.854-35.175c0.507-0.955,0.24-2.153-0.652-2.784
				c-0.879-0.641-2.094-0.527-2.843,0.269l-27.335,29.077l-35.183-18.846c-0.96-0.509-2.153-0.239-2.784,0.651
				c-0.644,0.882-0.516,2.096,0.277,2.843l29.087,27.345l-18.846,35.173c-0.517,0.966-0.24,2.155,0.64,2.795
				c0.893,0.631,2.107,0.517,2.852-0.277l27.337-29.087l35.166,18.846c0.954,0.508,2.15,0.239,2.783-0.651
				C398.358,380.559,398.233,379.333,397.44,378.595z"/>
			<path id="XMLID_211_" fill="#F05A28" d="M337.905,158.544l-12.844,23.965c-0.659,1.215-0.303,2.729,0.814,3.54
				c1.13,0.805,2.67,0.652,3.618-0.354l18.637-19.81l23.935,12.836c1.217,0.649,2.739,0.307,3.541-0.814
				c0.805-1.13,0.664-2.67-0.352-3.617l-19.795-18.617l12.845-23.957c0.651-1.215,0.295-2.729-0.822-3.542
				c-1.119-0.803-2.671-0.649-3.619,0.354l-18.614,19.803l-23.957-12.844c-1.227-0.65-2.74-0.296-3.541,0.824
				c-0.807,1.119-0.66,2.67,0.345,3.618L337.905,158.544z"/>
			<path id="XMLID_210_" fill="#F05A28" d="M182.603,326.7l-28.294,3.953l-11.157-26.282c-0.574-1.339-2.038-2.048-3.436-1.667
				c-1.41,0.395-2.297,1.761-2.099,3.2l3.953,28.281l-26.292,11.16c-1.33,0.575-2.046,2.038-1.656,3.436
				c0.386,1.406,1.753,2.299,3.188,2.097l28.292-3.954l11.157,26.292c0.568,1.342,2.039,2.05,3.437,1.666
				c1.398-0.391,2.297-1.752,2.098-3.195l-3.952-28.293l26.292-11.161c1.33-0.573,2.049-2.038,1.655-3.436
				C185.408,327.389,184.038,326.501,182.603,326.7z"/>
			<path id="XMLID_209_" fill="#95D600" d="M134.51,165.605l21.95,6.042l-0.146,22.701c-0.008,1.273,0.918,2.347,2.184,2.528
				c1.252,0.172,2.44-0.614,2.773-1.838l6.032-21.899l22.759,0.143c1.273,0.01,2.345-0.917,2.529-2.18
				c0.172-1.256-0.615-2.441-1.84-2.777l-21.938-6.048l0.135-22.732c0.011-1.273-0.929-2.345-2.18-2.527
				c-1.256-0.173-2.443,0.611-2.777,1.838l-6.04,21.926l-22.752-0.142c-1.261,0-2.345,0.927-2.518,2.18
				C132.51,164.076,133.296,165.271,134.51,165.605z"/>
		</g>
		<path id="XMLID_208_" fill="#FFD400" d="M294.458,266.397l88.554-11.706c1.005-0.133,1.75-0.985,1.75-1.991
			c0-1.005-0.745-1.855-1.75-1.991l-88.554-11.706l12.973-36.591c0.543-1.55,0.149-3.284-1.016-4.441
			c-1.158-1.168-2.893-1.549-4.441-1.005l-36.554,12.978l-11.706-88.523c-0.123-1.006-0.985-1.751-1.989-1.751
			c-1.004,0-1.859,0.745-1.993,1.751l-11.693,88.535l-36.601-12.989c-1.551-0.554-3.282-0.163-4.444,1.005
			c-1.166,1.157-1.559,2.891-1.005,4.441l12.981,36.601l-88.526,11.695c-1.004,0.136-1.75,0.985-1.75,1.991
			c0,1.006,0.746,1.858,1.75,1.991l88.526,11.696l-12.981,36.582c-0.554,1.55-0.161,3.283,1.005,4.441
			c1.161,1.167,2.892,1.56,4.444,1.002l36.601-12.967l11.693,88.534c0.134,1.003,0.99,1.751,1.993,1.751
			c1.005,0,1.866-0.748,1.989-1.751l11.706-88.534l36.573,12.979c1.547,0.555,3.282,0.162,4.441-1.007
			c1.169-1.156,1.559-2.89,1.004-4.439L294.458,266.397z"/>
	</g>
</g>
</svg>
