<?xml version="1.0" encoding="utf-8"?>
<!-- Generator: Adobe Illustrator 17.0.0, SVG Export Plug-In . SVG Version: 6.00 Build 0)  -->
<!DOCTYPE svg PUBLIC "-//W3C//DTD SVG 1.1//EN" "http://www.w3.org/Graphics/SVG/1.1/DTD/svg11.dtd">
<svg version="1.1" id="Layer_1" xmlns="http://www.w3.org/2000/svg" xmlns:xlink="http://www.w3.org/1999/xlink" x="0px" y="0px"
	 width="512px" height="512px" viewBox="0 0 512 512" enable-background="new 0 0 512 512" xml:space="preserve">
<g>
	<path fill="#163A6C" d="M256,31C131.747,31,31,131.747,31,256s100.747,225,225,225s225-100.747,225-225S380.253,31,256,31z"/>
	<g>
		<path fill="#ACACAD" d="M346.952,303.092l-31.884-40.862c-0.642-0.822-1.584-1.356-2.618-1.484
			c-1.036-0.13-2.079,0.162-2.901,0.802l-56.064,43.746c-0.955,0.745-1.513,1.889-1.513,3.1c0,1.211,0.558,2.355,1.513,3.1
			l47.781,37.283c0.715,0.557,1.568,0.832,2.418,0.832c1.012,0,2.019-0.389,2.782-1.151l40.167-40.167
			C348.036,306.888,348.173,304.657,346.952,303.092z"/>
		<path fill="#999999" d="M325.334,275.388l-10.267-13.157c-0.642-0.822-1.584-1.356-2.618-1.484
			c-1.036-0.13-2.079,0.162-2.901,0.802l-56.064,43.746c-0.955,0.745-1.513,1.889-1.513,3.1c0,1.211,0.558,2.355,1.513,3.1
			L266.946,322L325.334,275.388z"/>
		<path fill="#ACACAD" d="M265.08,198.166l-36.094-46.258c-0.529-0.677-1.265-1.163-2.095-1.383l-99.764-26.38
			c-1.352-0.357-2.795,0.031-3.786,1.021c-0.99,0.991-1.379,2.433-1.021,3.786l26.38,99.764c0.22,0.831,0.706,1.567,1.383,2.095
			l47.654,37.184c0.718,0.56,1.57,0.832,2.416,0.832c1.16,0,2.308-0.511,3.084-1.49l11.84-14.934l26.639-2.681
			c1.447-0.145,2.695-1.078,3.245-2.424c0.551-1.345,0.314-2.886-0.617-4.004l-11.162-13.414l18.39-23.498l11.079-1.923
			c1.362-0.237,2.5-1.17,2.996-2.459C266.146,200.711,265.93,199.255,265.08,198.166z"/>
		<path fill="#999999" d="M247.56,175.712l-62.71,82.229l12.887,10.055c0.718,0.56,1.57,0.832,2.416,0.832
			c1.16,0,2.308-0.511,3.084-1.49l11.84-14.934l26.639-2.681c1.447-0.145,2.695-1.078,3.245-2.424
			c0.551-1.345,0.314-2.886-0.617-4.004l-11.162-13.414l18.39-23.498l11.079-1.923c1.362-0.237,2.5-1.17,2.996-2.459
			c0.498-1.289,0.282-2.745-0.569-3.835L247.56,175.712z"/>
		<path fill="#E0E0E2" d="M388.466,125.168c-0.99-0.99-2.434-1.377-3.786-1.021l-99.763,26.379c-0.9,0.238-1.686,0.788-2.22,1.55
			l-13.955,19.985c-0.434,0.623-0.68,1.357-0.706,2.115l-0.744,21.496l-18.557,3.221c-0.96,0.166-1.824,0.684-2.425,1.451
			l-21.279,27.189c-1.141,1.458-1.11,3.515,0.074,4.938l8.46,10.166l-20.932,2.107c-1.058,0.106-2.027,0.637-2.687,1.47
			l-45.071,56.854c-1.24,1.564-1.111,3.812,0.301,5.224l40.167,40.167c0.764,0.763,1.77,1.151,2.782,1.151
			c0.85,0,1.703-0.274,2.418-0.832l151.183-117.966c0.677-0.529,1.163-1.264,1.383-2.095l26.38-99.763
			C389.845,127.6,389.457,126.158,388.466,125.168z"/>
		<path fill="#C6C5CA" d="M388.466,125.168c-0.99-0.99-2.434-1.377-3.786-1.021l-16.986,4.492l-24.117,91.209l-149.89,116.956
			l11.655,11.655c0.764,0.763,1.77,1.151,2.782,1.151c0.85,0,1.703-0.274,2.418-0.832l151.183-117.966
			c0.677-0.529,1.163-1.264,1.383-2.095l26.38-99.763C389.845,127.6,389.457,126.158,388.466,125.168z"/>
		<path fill="#999999" d="M178.975,338.591c-1.006,0-2.013-0.384-2.781-1.151c-1.536-1.536-1.536-4.026,0-5.562l139.702-139.701
			c1.536-1.535,4.026-1.535,5.562,0c1.536,1.536,1.536,4.026,0,5.562L181.756,337.439
			C180.988,338.206,179.981,338.591,178.975,338.591z"/>
		<g>
			<path fill="#848484" d="M225.224,232.612l-0.117-0.141c-1.184-1.423-1.215-3.48-0.074-4.938l2.737-3.498l-31.86-31.86
				c-1.536-1.535-4.026-1.535-5.562,0c-1.536,1.536-1.536,4.026,0,5.562L225.224,232.612z"/>
			<polygon fill="#848484" points="329.33,325.594 290.289,286.554 284.04,291.429 323.768,331.156 			"/>
		</g>
		<path fill="#3E3D42" d="M190.318,352.318l-29.002-29.002c-0.738-0.737-1.738-1.151-2.781-1.151c-1.043,0-2.043,0.414-2.781,1.151
			l-26.872,26.872c-9.53,9.53-9.53,25.035,0,34.564c4.765,4.764,11.023,7.147,17.282,7.147c6.259,0,12.517-2.383,17.282-7.147
			l26.872-26.872C191.853,356.344,191.853,353.855,190.318,352.318z"/>
		<path fill="#2D2D30" d="M190.318,352.318l-12.224-12.224c0.142,1.159-0.23,2.369-1.119,3.259l-26.872,26.872
			c-4.765,4.764-11.023,7.147-17.282,7.147c-3.34,0-6.678-0.686-9.791-2.043c1.164,3.446,3.112,6.682,5.854,9.424
			c4.765,4.764,11.023,7.147,17.282,7.147s12.517-2.383,17.282-7.147l26.872-26.872
			C191.853,356.344,191.853,353.855,190.318,352.318z"/>
		<g>
			
				<rect x="135.925" y="349.337" transform="matrix(-0.7071 -0.7071 0.7071 -0.7071 23.9619 716.4641)" fill="#999999" width="48.881" height="7.864"/>
			<path fill="#999999" d="M132.863,346.207l-3.981,3.981c-0.533,0.533-1.031,1.087-1.505,1.656l34.413,34.413
				c0.569-0.474,1.122-0.972,1.656-1.505l3.982-3.982L132.863,346.207z"/>
		</g>
		<path fill="#CC7400" d="M222.378,354.371l-63.116-63.116c-5.58-5.579-14.659-5.58-20.242,0.003l-0.322,0.322
			c-2.703,2.703-4.193,6.297-4.193,10.12c0,3.823,1.489,7.418,4.192,10.12l63.116,63.116c0.001,0,0.001,0,0.001,0
			c2.79,2.789,6.454,4.184,10.119,4.184c3.665,0,7.332-1.396,10.123-4.187l0.322-0.322c2.703-2.703,4.193-6.297,4.193-10.12
			C226.57,360.669,225.081,357.075,222.378,354.371z"/>
		<path fill="#BA6500" d="M222.378,354.371l-13.429-13.429c2.341,2.624,3.624,5.971,3.624,9.516c0,3.823-1.489,7.418-4.193,10.12
			l-0.322,0.322c-2.791,2.791-6.458,4.187-10.123,4.187s-7.33-1.395-10.119-4.184c0,0,0,0-0.001,0l13.998,14.034
			c0.001,0,0.001,0,0.001,0c2.79,2.789,6.454,4.184,10.119,4.184c3.665,0,7.332-1.396,10.123-4.187l0.322-0.322
			c2.703-2.703,4.193-6.297,4.193-10.12C226.57,360.669,225.081,357.075,222.378,354.371z"/>
		<path fill="#3E3D42" d="M321.682,352.318l29.002-29.002c0.738-0.737,1.738-1.151,2.781-1.151s2.043,0.414,2.781,1.151
			l26.872,26.872c9.53,9.53,9.53,25.035,0,34.564c-4.765,4.764-11.023,7.147-17.282,7.147c-6.259,0-12.517-2.383-17.282-7.147
			l-26.872-26.872C320.147,356.344,320.147,353.855,321.682,352.318z"/>
		<path fill="#2D2D30" d="M321.682,352.318l12.224-12.224c-0.142,1.159,0.23,2.369,1.119,3.259l26.872,26.872
			c4.765,4.764,11.023,7.147,17.282,7.147c3.34,0,6.678-0.686,9.791-2.043c-1.164,3.446-3.112,6.682-5.854,9.424
			c-4.765,4.764-11.023,7.147-17.282,7.147s-12.517-2.383-17.282-7.147l-26.872-26.872
			C320.147,356.344,320.147,353.855,321.682,352.318z"/>
		<g>
			
				<rect x="327.193" y="349.34" transform="matrix(0.7071 -0.7071 0.7071 0.7071 -146.8101 352.1135)" fill="#999999" width="48.881" height="7.864"/>
			<path fill="#999999" d="M379.138,346.207l3.981,3.981c0.533,0.533,1.031,1.087,1.505,1.656l-34.413,34.413
				c-0.569-0.474-1.122-0.972-1.656-1.505l-3.982-3.982L379.138,346.207z"/>
		</g>
		<path fill="#CC7400" d="M289.623,354.371l63.116-63.116c5.58-5.579,14.659-5.58,20.242,0.003l0.322,0.322
			c2.703,2.703,4.193,6.297,4.193,10.12c0,3.823-1.489,7.418-4.192,10.12l-63.115,63.116c-0.001,0-0.001,0-0.001,0
			c-2.79,2.789-6.454,4.184-10.119,4.184c-3.665,0-7.332-1.396-10.123-4.187l-0.322-0.322c-2.703-2.703-4.193-6.297-4.193-10.12
			C285.431,360.669,286.92,357.075,289.623,354.371z"/>
		<path fill="#BA6500" d="M289.623,354.371l13.429-13.429c-2.341,2.624-3.624,5.971-3.624,9.516c0,3.823,1.489,7.418,4.193,10.12
			l0.322,0.322c2.791,2.791,6.458,4.187,10.123,4.187c3.666,0,7.329-1.395,10.119-4.184c0,0,0,0,0.001,0l-13.998,14.034
			c-0.001,0-0.001,0-0.001,0c-2.79,2.789-6.454,4.184-10.119,4.184c-3.665,0-7.332-1.396-10.123-4.187l-0.322-0.322
			c-2.703-2.703-4.193-6.297-4.193-10.12C285.431,360.669,286.92,357.075,289.623,354.371z"/>
	</g>
</g>
</svg>
