<?xml version="1.0" encoding="utf-8"?>
<!-- Generator: Adobe Illustrator 17.0.0, SVG Export Plug-In . SVG Version: 6.00 Build 0)  -->
<!DOCTYPE svg PUBLIC "-//W3C//DTD SVG 1.1//EN" "http://www.w3.org/Graphics/SVG/1.1/DTD/svg11.dtd">
<svg version="1.1" id="Layer_1" xmlns="http://www.w3.org/2000/svg" xmlns:xlink="http://www.w3.org/1999/xlink" x="0px" y="0px"
	 width="512px" height="512px" viewBox="0 0 512 512" enable-background="new 0 0 512 512" xml:space="preserve">
<g>
	<g>
		<path fill="#2D333B" d="M481,256c0,81.39-43.251,152.718-108.007,192.196c-2.881,1.785-5.843,3.489-8.804,5.112
			c-10.549,5.802-21.585,10.752-33.067,14.809c-23.492,8.318-48.81,12.862-75.142,12.862c-10.427,0-20.693-0.69-30.714-2.11
			c-15.377-2.069-30.227-5.721-44.387-10.752C93.564,437.201,31,353.904,31,256C31,131.764,131.744,31.02,255.98,31.02
			C380.256,31.02,481,131.764,481,256z"/>
	</g>
	<g>
		<path fill="#FCD0B9" d="M366.819,371.994h-14.952c-3.644,0-6.596-2.954-6.596-6.596c0-3.643,2.953-6.596,6.596-6.596h14.952
			c3.644,0,6.596,2.954,6.596,6.596C373.415,369.04,370.463,371.994,366.819,371.994z"/>
		<path fill="#BC6E29" d="M372.998,284.483v163.714c-2.881,1.785-5.843,3.489-8.804,5.112V284.483H372.998z"/>
		<path fill="#FCD0B9" d="M375.614,378.151c-3.644,0-6.596-2.954-6.596-6.596v-10.554c0-3.643,2.953-6.596,6.596-6.596
			s6.596,2.954,6.596,6.596v10.554C382.21,375.198,379.257,378.151,375.614,378.151z"/>
		<path fill="#BC6E29" d="M374.297,303.833h-11.439c-2.429,0-4.397-1.97-4.397-4.397s1.968-4.397,4.397-4.397h11.439
			c2.429,0,4.397,1.97,4.397,4.397S376.727,303.833,374.297,303.833z"/>
		<path fill="#FCD0B9" d="M160.097,371.994h-14.952c-3.644,0-6.596-2.954-6.596-6.596c0-3.643,2.953-6.596,6.596-6.596h14.952
			c3.644,0,6.596,2.954,6.596,6.596C166.694,369.04,163.741,371.994,160.097,371.994z"/>
		<path fill="#F7B348" d="M138.772,382.926l-18.216-94.046l30.964,90.651c1.181,3.455-0.664,7.214-4.119,8.394
			c-3.455,1.18-7.214-0.664-8.394-4.12C138.911,383.527,138.828,383.208,138.772,382.926z"/>
		<path fill="#8776B6" d="M307.144,175.952l-0.07,0.704c-15.822-1.706-33.052-2.638-51.073-2.638
			c-6.482,0-12.867,0.115-19.112,0.351c-11.126,0.422-21.829,1.196-31.962,2.287l-0.07-0.704l51.145-85.567L307.144,175.952z"/>
		<path fill="#7160AA" d="M256.001,90.384l-18.03,83.633l-1.082,0.351c-11.126,0.422-21.829,1.196-31.962,2.287l-0.07-0.704
			L256.001,90.384z"/>
		<path fill="#8776B6" d="M331.126,468.118c-23.492,8.318-48.81,12.862-75.142,12.862c-10.427,0-20.693-0.69-30.714-2.11
			c-15.377-2.069-30.227-5.721-44.387-10.752l15.418-90.966l7.871-46.578c0-0.041,0-0.041,0-0.041l4.625-27.387l0.081-0.406
			l1.42-8.318c0,0.243,0.041,0.446,0.081,0.69c0,0.162,0.041,0.365,0.081,0.568c0,0,0,0,0,0.04c0.162,1.623,0.446,3.449,0.852,5.396
			c0.122,0.649,0.243,1.298,0.406,1.988c0.203,0.812,0.406,1.623,0.609,2.435c0.041,0.284,0.162,0.568,0.243,0.892
			c0.162,0.69,0.406,1.38,0.649,2.11c0.203,0.649,0.446,1.298,0.69,1.947c0.325,0.852,0.649,1.664,1.014,2.516
			c0.203,0.446,0.365,0.852,0.568,1.258c0.162,0.406,0.365,0.852,0.608,1.258c0.406,0.812,0.852,1.623,1.339,2.435
			c0.406,0.771,0.893,1.501,1.379,2.191c0.365,0.568,0.731,1.096,1.177,1.623c2.516,3.327,5.68,6.329,9.656,8.602
			c2.84,1.663,5.274,3.489,7.303,5.437c0.406,0.365,0.771,0.771,1.177,1.177c0.406,0.406,0.771,0.852,1.136,1.258
			c1.055,1.258,1.988,2.556,2.8,3.855c0.284,0.446,0.527,0.852,0.771,1.298c0.243,0.446,0.487,0.893,0.69,1.339
			c0.69,1.38,1.217,2.8,1.623,4.22c0.284,0.852,0.487,1.704,0.649,2.516c0.081,0.406,0.162,0.811,0.203,1.217
			c0.081,0.527,0.122,1.055,0.203,1.582c0.041,0.406,0.081,0.811,0.081,1.217c0.325,7.344-2.272,14.201-6.451,18.38
			c0.933-0.406,58.831-25.156,63.173-71.734l4.828,28.401l7.871,46.619L331.126,468.118z"/>
		<path fill="#7160AA" d="M238.903,311.748l-0.487,5.964l-1.461,18.096L225.27,478.87c-15.377-2.069-30.227-5.721-44.387-10.752
			l15.377-90.966l7.871-46.538l0.041-0.041c0-0.041,0-0.041,0-0.041l4.625-27.387l0.081-0.406l1.582-7.06l0.122-0.568l0.893-4.098
			l0.893-3.976l4.26-19.313l8.723,17.244l0.324,0.608l3.205,6.37l0.203,0.365l0.527,1.014L238.903,311.748z"/>
		<g>
			<path fill="#8776B6" d="M396.423,210.948c0,14.151-27.581,26.535-68.733,33.272c0.95-2.885,1.504-5.62,1.504-7.836
				c0-9.226-5.91-16.711-13.193-16.711c-1.073,0-2.102,0.176-3.096,0.484c-0.932-7.757-2.753-15.118-5.339-21.9
				c-15.735-1.662-33.193-2.586-51.566-2.586s-35.831,0.924-51.566,2.586c-2.586,6.781-4.407,14.142-5.339,21.9
				c-0.994-0.308-2.023-0.484-3.096-0.484c-7.282,0-13.193,7.485-13.193,16.711c0,2.217,0.554,4.952,1.504,7.836
				c-41.152-6.737-68.733-19.12-68.733-33.272c0-16.403,37.045-30.422,89.349-36.051c15.822-1.706,33.052-2.638,51.073-2.638
				c9.56,0,18.892,0.264,27.906,0.765c0.009,0,0.009,0,0.009,0c7.986,0.44,15.735,1.073,23.158,1.874
				C359.379,180.525,396.423,194.545,396.423,210.948z"/>
			<path fill="#8776B6" d="M351.867,354.844v37.819c0,0-24.802,3.263-36.148-15.506c-0.009,0-0.009-0.008-0.009-0.008l-7.889-46.623
				c0,0,3.183,5.083,8.734,10.66c0,0,0,0.009,0.008,0.018C324.4,349.074,336.942,357.931,351.867,354.844z"/>
		</g>
		<path fill="#FCD0B9" d="M329.194,236.383c0,2.217-0.554,4.952-1.504,7.836c-2.973,9.138-9.807,19.745-15.039,19.745l-0.888,0.563
			c-9.745-8.998-14.837-22.129-24.978-25.506c-15.831-5.277-30.783,13.193-30.783,13.193s-14.952-18.47-30.783-13.193
			c-3.483,1.161-6.368,3.465-9.059,6.368c-5.127,5.541-9.516,13.228-15.919,19.138l-0.888-0.563
			c-5.233,0-12.067-10.607-15.039-19.745c-0.95-2.885-1.504-5.62-1.504-7.836c0-9.226,5.91-16.711,13.193-16.711
			c1.073,0,2.102,0.176,3.096,0.484c0.932-7.757,2.753-15.118,5.339-21.9c15.735-1.662,33.193-2.586,51.566-2.586
			c18.373,0,35.831,0.924,51.566,2.586c1.381,3.615,2.542,7.388,3.457,11.302c0.818,3.43,1.442,6.975,1.882,10.598
			c0.994-0.308,2.023-0.484,3.096-0.484C323.283,219.672,329.194,227.157,329.194,236.383z"/>
		<path fill="#E2B39F" d="M256.001,258.81c-3.644,0-6.596-2.954-6.596-6.596v-16.711c0-3.643,2.953-6.596,6.596-6.596
			s6.596,2.954,6.596,6.596v16.711C262.597,255.857,259.645,258.81,256.001,258.81z"/>
		<path fill="#E6E6E5" d="M303.014,302.121c-4.327,46.606-62.226,71.337-63.166,71.733c9.164-9.182,10.853-31.24-10.194-43.465
			c-14.186-8.232-18.188-25.136-19.287-35.286c-0.026-0.22-0.053-0.44-0.07-0.66c-0.079-0.827-0.141-1.601-0.194-2.313
			c-0.211-3.114-0.132-5.11-0.123-5.268c2.128,0.228,4.353,0.351,6.667,0.351c18.391,0,31.407-19.868,36.711-29.657
			c1.741-3.211,2.647-5.339,2.647-5.339s0.906,2.128,2.647,5.339c5.303,9.789,18.32,29.657,36.711,29.657
			c2.481,0,4.855-0.141,7.124-0.405c0.431,2.771,0.686,5.47,0.756,8.109C303.312,297.381,303.233,299.781,303.014,302.121z"/>
		<path fill="#7160AA" d="M256.001,195.67c-18.373,0-35.831,0.924-51.566,2.586c-2.586,6.781-4.407,14.142-5.339,21.9
			c-0.994-0.308-2.023-0.484-3.096-0.484c-7.282,0-13.193,7.485-13.193,16.711c0,2.217,0.554,4.952,1.504,7.836
			c-41.152-6.737-68.733-19.12-68.733-33.272c0-16.403,37.045-30.422,89.349-36.051c15.822-1.706,33.052-2.638,51.073-2.638
			c9.56,0,18.892,0.264,27.906,0.765C283.239,173.058,248.164,174.782,256.001,195.67z"/>
		<g>
			<path fill="#CDCCCC" d="M303.242,294.918c-0.255,0.035-0.502,0.07-0.756,0.097c-2.269,0.264-4.644,0.405-7.124,0.405
				c-24.406,0-39.358-34.996-39.358-34.996s-1.692-6.53-0.002-8.21c5.303,9.789,20.97,34.999,39.361,34.999
				c2.481,0,4.855-0.141,7.124-0.405C302.917,289.579,303.171,292.279,303.242,294.918z"/>
			<path fill="#CDCCCC" d="M256.003,260.423c0,0-14.952,34.996-39.358,34.996c-2.172,0-4.274-0.105-6.279-0.317
				c-0.026-0.22-0.053-0.44-0.07-0.66c-0.44-4.407-0.325-7.388-0.317-7.582c2.128,0.228,4.353,0.351,6.667,0.351
				c18.391,0,26.312-27.423,39.355-34.999C257.689,253.893,256.003,260.423,256.003,260.423z"/>
		</g>
		<path fill="#7160AA" d="M204.18,330.535l17.083,31.786l-24.981,14.837l-0.035-0.008c-11.336,18.777-36.148,15.515-36.148,15.515
			v-37.819C185.605,360.121,204.18,330.535,204.18,330.535z"/>
		<path fill="#E2B39F" d="M311.023,209.558c-28.047-3.623-104.433-9.472-94.864,35.831c-5.127,5.541-9.516,13.228-15.919,19.138
			l-0.888-0.563c-5.233,0-12.067-10.607-15.039-19.745c-0.95-2.885-1.504-5.62-1.504-7.836c0-9.226,5.91-16.711,13.193-16.711
			c1.073,0,2.102,0.176,3.096,0.484c0.932-7.757,2.753-15.118,5.339-21.9c15.735-1.662,33.193-2.586,51.566-2.586
			c18.373,0,35.831,0.924,51.566,2.586C308.947,201.871,310.108,205.644,311.023,209.558z"/>
		<path fill="#7160AA" d="M351.867,392.663c0,0-24.802,3.263-36.148-15.505c-0.009,0-0.009-0.008-0.009-0.008l-7.889-46.623
			c0,0,3.183,5.083,8.734,10.66c0,0,0,0.009,0.008,0.018C317.003,342.293,335.359,387.447,351.867,392.663z"/>
		<g>
			<path fill="#4E4E4E" d="M243.162,221.584c-2.762-0.146-4.683-0.253-6.454-0.244l-4.737,0.004l-4.733,0.009
				c-1.77-0.009-3.689,0.094-6.459,0.232c0.166-2.787,1.75-5.038,3.811-6.629c2.086-1.579,4.738-2.41,7.381-2.405
				c2.642,0.005,5.293,0.834,7.376,2.416C241.404,216.558,242.989,218.805,243.162,221.584z"/>
			<path fill="#4E4E4E" d="M291.223,221.584c-2.762-0.146-4.682-0.253-6.454-0.244l-4.737,0.004l-4.733,0.009
				c-1.77-0.009-3.689,0.094-6.459,0.232c0.166-2.787,1.75-5.038,3.811-6.629c2.086-1.579,4.738-2.41,7.381-2.405
				c2.642,0.005,5.293,0.834,7.376,2.416C289.466,216.558,291.05,218.805,291.223,221.584z"/>
		</g>
		<g>
			<path fill="#E6E6E5" d="M302.482,286.805c-2.269,0.264-4.644,0.405-7.124,0.405c-24.406,0-39.358-34.996-39.358-34.996
				s14.952-18.47,30.783-13.193c10.14,3.377,15.233,16.508,24.978,25.506c5.47,5.048,12.401,8.795,22.516,8.795
				C334.277,273.322,322.562,284.527,302.482,286.805z"/>
			<path fill="#E6E6E5" d="M256.001,252.214c0,0-14.952,34.996-39.358,34.996c-2.313,0-4.538-0.123-6.667-0.352
				c-20.36-2.155-32.251-13.536-32.251-13.536c10.114,0,17.045-3.747,22.516-8.795c9.745-8.998,14.837-22.129,24.978-25.506
				C241.049,233.744,256.001,252.214,256.001,252.214z"/>
		</g>
		<path fill="#FCD0B9" d="M134.626,379.912c-2.851,0-5.48-1.863-6.325-4.737l-4.397-14.952c-1.028-3.495,0.972-7.162,4.467-8.19
			c3.496-1.029,7.162,0.972,8.19,4.467l4.397,14.952c1.028,3.495-0.972,7.162-4.467,8.19
			C135.869,379.824,135.242,379.912,134.626,379.912z"/>
		<circle fill="#D84262" cx="368.582" cy="273.489" r="14.952"/>
		<path fill="#C1395C" d="M362.421,273.489c0-6.728,4.442-12.414,10.554-14.292c-1.39-0.427-2.867-0.66-4.397-0.66
			c-8.258,0-14.952,6.693-14.952,14.952s6.693,14.952,14.952,14.952c1.531,0,3.007-0.232,4.397-0.66
			C366.863,285.903,362.421,280.217,362.421,273.489z"/>
		<path fill="#CDCCCC" d="M239.846,373.854c9.164-9.182,10.853-31.24-10.194-43.465c-14.186-8.232-18.188-25.136-19.287-35.286
			c-0.026-0.22-0.053-0.44-0.07-0.66c-0.079-0.827-0.141-1.601-0.194-2.313l1.926-1.557l17.625,1.451
			c0,0-1.795,15.259,10.519,27.573C252.485,331.91,258.51,355.19,239.846,373.854z"/>
	</g>
</g>
</svg>
