<?xml version="1.0" encoding="utf-8"?>
<!-- Generator: Adobe Illustrator 16.0.0, SVG Export Plug-In . SVG Version: 6.00 Build 0)  -->
<!DOCTYPE svg PUBLIC "-//W3C//DTD SVG 1.1 Tiny//EN" "http://www.w3.org/Graphics/SVG/1.1/DTD/svg11-tiny.dtd">
<svg version="1.1" baseProfile="tiny" id="Layer_1" xmlns="http://www.w3.org/2000/svg" xmlns:xlink="http://www.w3.org/1999/xlink"
	 x="0px" y="0px" width="300px" height="300px" viewBox="0 0 300 300" xml:space="preserve">
<g>
	<circle fill="#2C323A" cx="150" cy="150" r="131.6"/>
	<path fill="#895D39" d="M24.338,189.2C41.021,242.736,90.972,281.6,150,281.6s108.979-38.863,125.662-92.399H24.338z"/>
	<g>
		<path fill="#6BE9EE" d="M58.338,190.854v10.618h60.913c0,0,7.815-0.62,13.747-3.12l9.68-3.748l-1.249-10.936L58.338,190.854z"/>
		<path fill="#00D9E1" d="M62.087,158.993c3.124,0,30.301,0,30.301,0s6.243,17.49,20.615,19.989c14.372,2.5,28.426,0.313,28.426,2.5
			s0,2.187,0,2.187s-11.867,7.186-19.99,7.186s-63.101,0-63.101,0s4.062-10.935,4.062-13.746S62.087,158.993,62.087,158.993z"/>
		<path fill="#00A7E1" d="M88.327,170.552c-0.429,0-0.847-0.222-1.08-0.619c-0.348-0.596-0.147-1.361,0.448-1.71
			c0.931-0.546,9.218-5.219,13.069-1.365c0.488,0.488,0.488,1.279,0,1.768c-0.489,0.489-1.28,0.487-1.768,0
			c-2.119-2.122-8.108,0.627-10.04,1.755C88.759,170.496,88.542,170.552,88.327,170.552z"/>
		<path fill="#00A7E1" d="M94.249,178.036c-0.391,0-0.775-0.183-1.019-0.525c-0.4-0.562-0.27-1.343,0.293-1.742
			c0.879-0.628,8.717-6.018,12.899-2.523c0.529,0.443,0.6,1.231,0.157,1.761c-0.442,0.53-1.229,0.601-1.761,0.157
			c-2.301-1.925-8.024,1.344-9.847,2.641C94.753,177.961,94.5,178.036,94.249,178.036z"/>
		<path fill="#00A7E1" d="M104.163,182.811c-0.36,0-0.717-0.154-0.964-0.453c-0.44-0.532-0.365-1.319,0.166-1.76
			c0.833-0.688,8.262-6.631,12.681-3.454c0.561,0.403,0.688,1.184,0.285,1.744s-1.185,0.688-1.744,0.285
			c-2.434-1.751-7.904,1.925-9.628,3.351C104.726,182.716,104.443,182.811,104.163,182.811z"/>
	</g>
	<g>
		<path fill="#6BE9EE" d="M190.357,186.544l3.554,10.008l57.403-20.376c0,0,7.162-3.197,11.912-7.536l7.869-6.771l-4.833-9.885
			L190.357,186.544z"/>
		<path fill="#00D9E1" d="M183.235,155.263c2.943-1.045,28.553-10.135,28.553-10.135s11.735,14.396,26.117,11.941
			c14.381-2.451,26.894-9.212,27.626-7.151c0.731,2.065,0.731,2.065,0.731,2.065s-8.782,10.738-16.437,13.452
			c-7.654,2.72-59.469,21.108-59.469,21.108s0.176-11.662-0.766-14.312C188.649,169.586,183.235,155.263,183.235,155.263z"/>
		<path fill="#00A7E1" d="M211.411,157.454c-0.284,0-0.569-0.097-0.804-0.294c-0.528-0.445-0.596-1.233-0.151-1.761
			c0.695-0.826,6.938-8.005,11.858-5.658c0.623,0.297,0.887,1.043,0.59,1.666s-1.042,0.888-1.666,0.59
			c-2.701-1.288-7.43,3.302-8.87,5.012C212.121,157.303,211.768,157.454,211.411,157.454z"/>
		<path fill="#00A7E1" d="M219.495,162.527c-0.248,0-0.498-0.073-0.716-0.227c-0.565-0.396-0.703-1.176-0.307-1.74
			c0.62-0.886,6.2-8.593,11.312-6.694c0.647,0.239,0.978,0.958,0.738,1.605c-0.239,0.648-0.961,0.977-1.605,0.738
			c-2.821-1.038-7.114,3.953-8.398,5.784C220.276,162.342,219.889,162.527,219.495,162.527z"/>
		<path fill="#00A7E1" d="M230.435,163.707c-0.219,0-0.439-0.057-0.641-0.177c-0.592-0.354-0.785-1.121-0.432-1.713
			c0.555-0.928,5.563-9.017,10.795-7.496c0.663,0.192,1.044,0.886,0.852,1.549s-0.892,1.046-1.549,0.852
			c-2.869-0.84-6.802,4.459-7.952,6.378C231.273,163.49,230.859,163.707,230.435,163.707z"/>
	</g>
	<path fill="#0070A6" d="M58.338,162.458c0,0,21.25,4.545,38.741-1.181L123.01,21.171c0,0-28.906,5.828-48.206,20.82L58.338,162.458
		z"/>
	<path fill="#005AA6" d="M181.488,158.993c0,0,21.812-1.144,35.105-13.865L185.049,23.119c0,0-22.397-7.19-50.797-3.786
		L181.488,158.993z"/>
	<path fill="#F8AE32" d="M76.495,161.021l-0.99-0.143l0.427-2.97l0.99,0.143L76.495,161.021z M77.494,154.073l-0.99-0.143
		l0.427-2.97l0.99,0.143L77.494,154.073z M78.492,147.126l-0.99-0.143l0.427-2.97l0.99,0.143L78.492,147.126z M79.491,140.179
		l-0.99-0.143l0.427-2.97l0.99,0.143L79.491,140.179z M80.489,133.231l-0.99-0.143l0.427-2.97l0.99,0.143L80.489,133.231z
		 M81.488,126.284l-0.99-0.143l0.427-2.969l0.99,0.143L81.488,126.284z M82.486,119.337l-0.99-0.143l0.428-2.969l0.99,0.143
		L82.486,119.337z M83.485,112.39l-0.99-0.143l0.427-2.969l0.99,0.143L83.485,112.39z M84.484,105.442l-0.99-0.143l0.427-2.969
		l0.99,0.143L84.484,105.442z M85.482,98.496l-0.99-0.143l0.427-2.97l0.99,0.143L85.482,98.496z M86.481,91.549l-0.99-0.143
		l0.427-2.97l0.99,0.143L86.481,91.549z M87.479,84.602l-0.99-0.143l0.427-2.97l0.99,0.143L87.479,84.602z M88.479,77.654
		l-0.99-0.143l0.427-2.97l0.99,0.143L88.479,77.654z M89.478,70.707l-0.99-0.143l0.427-2.97l0.99,0.143L89.478,70.707z
		 M90.476,63.76l-0.99-0.143l0.427-2.97l0.99,0.143L90.476,63.76z M91.475,56.812l-0.99-0.143l0.427-2.97l0.99,0.143L91.475,56.812z
		 M92.473,49.865l-0.99-0.143l0.427-2.97l0.99,0.143L92.473,49.865z M93.472,42.918l-0.99-0.143l0.427-2.97l0.99,0.143
		L93.472,42.918z M94.47,35.971l-0.99-0.143l0.273-1.899l0.99,0.143L94.47,35.971z"/>
	<path fill="#F8AE32" d="M197.868,152.145l-0.895-2.863l0.955-0.299l0.895,2.863L197.868,152.145z M195.776,145.445l-0.895-2.864
		l0.955-0.299l0.895,2.864L195.776,145.445z M193.685,138.745l-0.894-2.863l0.955-0.299l0.894,2.863L193.685,138.745z
		 M191.593,132.045l-0.894-2.864l0.955-0.297l0.894,2.864L191.593,132.045z M189.501,125.346l-0.894-2.863l0.955-0.299l0.894,2.863
		L189.501,125.346z M187.409,118.646l-0.894-2.864l0.955-0.297l0.894,2.864L187.409,118.646z M185.317,111.946l-0.894-2.863
		l0.955-0.299l0.894,2.863L185.317,111.946z M183.226,105.246l-0.894-2.864l0.955-0.297l0.894,2.864L183.226,105.246z
		 M181.134,98.547l-0.894-2.863l0.955-0.299l0.894,2.863L181.134,98.547z M179.042,91.848l-0.894-2.863l0.955-0.299l0.894,2.863
		L179.042,91.848z M176.95,85.147l-0.894-2.863l0.955-0.299l0.894,2.863L176.95,85.147z M174.858,78.448l-0.894-2.863l0.955-0.299
		l0.894,2.863L174.858,78.448z M172.767,71.748l-0.894-2.864l0.955-0.297l0.894,2.864L172.767,71.748z M170.676,65.049l-0.895-2.863
		l0.955-0.299l0.895,2.863L170.676,65.049z M168.584,58.35l-0.895-2.864l0.955-0.299l0.895,2.864L168.584,58.35z M166.492,51.649
		l-0.895-2.863l0.955-0.299l0.895,2.863L166.492,51.649z M164.4,44.95l-0.895-2.864l0.955-0.299l0.895,2.864L164.4,44.95z
		 M162.309,38.25l-0.895-2.863l0.955-0.299l0.895,2.863L162.309,38.25z M160.217,31.551l-0.895-2.864l0.955-0.299l0.895,2.864
		L160.217,31.551z M158.125,24.851l-0.895-2.863l0.955-0.299l0.895,2.863L158.125,24.851z"/>
	<path fill="#7B4921" d="M44,210.18h219C263,210.18,150,219,44,210.18z"/>
	<path fill="#7B4921" d="M56.407,235.399h191.04C247.447,235.399,148.874,243.094,56.407,235.399z"/>
	<path fill="#7B4921" d="M88.184,260.541h130.632C218.815,260.541,151.412,265.803,88.184,260.541z"/>
	<polygon fill="#7B4921" points="64.271,235.4 61.211,235.4 85.124,210.18 88.184,210.18 	"/>
	<polygon fill="#7B4921" points="135.116,236.401 132.057,236.401 155.97,211.181 159.029,211.181 	"/>
	<polygon fill="#7B4921" points="147.073,262.33 144.014,262.33 167.927,237.109 170.986,237.109 	"/>
	<polygon fill="#7B4921" points="196.432,236.401 193.372,236.401 217.285,211.181 220.345,211.181 	"/>
	<path fill="#F8AE32" d="M148.477,124.618l8.924,27.294l-4.549-1.238l10.95-11.648l0.164-0.174c0.964-1.026,2.577-1.076,3.604-0.111
		c0.445,0.418,0.707,0.961,0.781,1.523l3.817,28.912l-9.024-27.732l4.549,1.238l-10.95,11.648l-0.166,0.177
		c-0.964,1.025-2.576,1.075-3.602,0.111c-0.445-0.419-0.707-0.964-0.781-1.526L148.477,124.618z"/>
	<path fill="#F8AE32" d="M131.758,159.001l16.729,14.817l-3.541,0.958l2.771-12.13l0.041-0.182c0.244-1.067,1.309-1.735,2.377-1.492
		c0.463,0.106,0.853,0.368,1.123,0.717l13.937,17.913l-16.968-15.073l3.541-0.957l-2.771,12.13l-0.042,0.184
		c-0.244,1.067-1.308,1.735-2.374,1.491c-0.465-0.105-0.854-0.369-1.125-0.718L131.758,159.001z"/>
</g>
</svg>
