<?xml version="1.0" encoding="utf-8"?>
<!-- Generator: Adobe Illustrator 16.0.0, SVG Export Plug-In . SVG Version: 6.00 Build 0)  -->
<!DOCTYPE svg PUBLIC "-//W3C//DTD SVG 1.1 Tiny//EN" "http://www.w3.org/Graphics/SVG/1.1/DTD/svg11-tiny.dtd">
<svg version="1.1" baseProfile="tiny" id="Layer_1" xmlns="http://www.w3.org/2000/svg" xmlns:xlink="http://www.w3.org/1999/xlink"
	 x="0px" y="0px" width="300px" height="300px" viewBox="0 0 300 300" xml:space="preserve">
<g>
	<circle fill="#609544" cx="150" cy="150" r="131.6"/>
	<g>
		<rect x="94.923" y="70.041" fill="#2A1932" width="113.685" height="178.363"/>
		<path fill="#64350C" d="M212.686,252.483H90.844V65.962h121.842V252.483z M99.001,244.325h105.527V74.12H99.001V244.325z"/>
	</g>
	<g>
		<g>
			<path fill="#2A1932" d="M208.607,73.777c-0.112-26.247-25.655-47.497-57.154-47.497S94.409,47.53,94.3,73.777H208.607z"/>
			<path fill="#64350C" d="M151.453,34.438c23.442,0,43.135,13.389,47.898,31.182h-95.797
				C108.316,47.827,128.01,34.438,151.453,34.438 M151.453,26.28c-31.499,0-57.044,21.25-57.153,47.497h114.308
				C208.495,47.53,182.952,26.28,151.453,26.28L151.453,26.28z"/>
		</g>
		<path fill="#64350C" d="M151.453,56.291c7.313,0,13.75,2.975,17.357,7.432h-34.715C137.703,59.267,144.141,56.291,151.453,56.291
			 M151.453,48.133c-15.75,0-28.522,10.625-28.578,23.748h57.154C179.976,58.758,167.203,48.133,151.453,48.133L151.453,48.133z"/>
		<rect x="147.693" y="29.967" fill="#64350C" width="8.157" height="21.389"/>
		
			<rect x="171.51" y="37.584" transform="matrix(0.7157 0.6984 -0.6984 0.7157 83.733 -108.8738)" fill="#64350C" width="8.157" height="21.644"/>
		
			<rect x="116.961" y="44.327" transform="matrix(0.6986 0.7155 -0.7155 0.6986 73.1539 -76.8435)" fill="#64350C" width="21.646" height="8.158"/>
	</g>
	<rect x="90.254" y="65.883" fill="#64350C" width="122.398" height="7.895"/>
	<rect x="90.254" y="73.777" fill="#582B00" width="9.338" height="174.9"/>
	<rect x="203.021" y="73.777" fill="#582B00" width="9.338" height="174.9"/>
	<g>
		<polygon fill="#764C28" points="203.941,248.808 109.095,261.922 109.095,87.021 203.941,73.907 		"/>
		<polygon fill="#6C3F19" points="190.291,130.637 122.745,139.977 122.745,107.369 190.291,98.029 		"/>
		<polygon fill="#602F06" points="122.745,107.369 122.745,110.123 190.291,100.783 190.291,98.029 		"/>
		<polygon fill="#6C3F19" points="190.291,176.263 122.745,185.602 122.745,152.994 190.291,143.655 		"/>
		<polygon fill="#6C3F19" points="190.291,220.438 122.745,229.777 122.745,197.17 190.291,187.831 		"/>
		<g>
			<path fill="#F8AE32" d="M127.48,174.86c0,3.558-2.636,5.884-5.889,6.334l-0.709,0.098c-3.254,0.45-5.891-1.147-5.891-4.705
				v-11.855c0-3.558,2.637-6.805,5.891-7.255l0.709-0.098c3.253-0.45,5.889,2.068,5.889,5.626V174.86z"/>
			<path fill="#FACF86" d="M125.204,164.91c0,2.396-1.775,4.583-3.967,4.886c-2.191,0.304-3.966-1.392-3.966-3.79
				c0-2.395,1.774-4.582,3.966-4.885S125.204,162.516,125.204,164.91z"/>
			<path fill="#D48200" d="M122.415,176.592c0,0.711-0.527,1.36-1.178,1.45l0,0c-0.651,0.09-1.179-0.414-1.179-1.125v-4.406
				c0-0.712,0.527-1.361,1.179-1.451l0,0c0.65-0.09,1.178,0.413,1.178,1.126V176.592z"/>
		</g>
		<polygon fill="#602F06" points="122.745,152.686 122.745,155.439 190.291,146.1 190.291,143.347 		"/>
		<polygon fill="#602F06" points="122.745,197.17 122.745,199.924 190.291,190.585 190.291,187.831 		"/>
		<g>
			<path fill="#F8AE32" d="M155.141,151.818c-6.75,0-11.841-5.516-11.841-12.83c0-7.686,5.787-14.738,12.901-15.722
				c0.566-0.078,1.138-0.118,1.699-0.118c6.749,0,11.838,5.516,11.838,12.829c0,7.686-5.786,14.738-12.898,15.723
				C156.272,151.778,155.701,151.818,155.141,151.818z M157.899,127.808c-0.348,0-0.705,0.024-1.061,0.074
				c-4.897,0.677-8.881,5.659-8.881,11.106c0,4.734,3.021,8.171,7.183,8.171c0.348,0,0.705-0.024,1.06-0.074
				c4.896-0.677,8.878-5.66,8.878-11.107C165.079,131.243,162.06,127.808,157.899,127.808z"/>
			<g>
				<path fill="#F2F2F2" d="M165.725,115.641c0,5.56-4.121,10.637-9.205,11.34s-9.207-3.234-9.207-8.794
					c0-5.561,4.123-9.94,9.207-10.644S165.725,110.08,165.725,115.641z"/>
				<path fill="#F2F2F2" d="M161.697,126.854c0,2.689-1.995,4.45-4.456,4.79l-1.444,0.2c-2.462,0.34-4.455-0.869-4.455-3.559v-5.359
					c0-2.689,1.993-5.146,4.455-5.486l1.444-0.2c2.461-0.34,4.456,1.565,4.456,4.255V126.854z"/>
				<path fill="#949696" d="M154.453,130.719c0,0.284-0.21,0.544-0.469,0.58l0,0c-0.261,0.035-0.471-0.166-0.471-0.45v-2.938
					c0-0.284,0.21-0.543,0.471-0.58l0,0c0.259-0.035,0.469,0.166,0.469,0.45V130.719z"/>
				<path fill="#949696" d="M156.989,130.368c0,0.284-0.21,0.544-0.47,0.579l0,0c-0.26,0.037-0.472-0.164-0.472-0.449v-2.938
					c0-0.285,0.212-0.545,0.472-0.58l0,0c0.26-0.036,0.47,0.165,0.47,0.449V130.368z"/>
				<path fill="#949696" d="M159.524,130.018c0,0.284-0.21,0.544-0.472,0.58l0,0c-0.259,0.035-0.47-0.166-0.47-0.449v-2.939
					c0-0.283,0.211-0.543,0.47-0.579l0,0c0.262-0.036,0.472,0.165,0.472,0.449V130.018z"/>
				<path fill="#949696" d="M155.316,119.923c0,1.635-1.246,3.13-2.783,3.343s-2.784-0.938-2.784-2.573
					c0-1.634,1.247-1.843,2.784-2.056S155.316,118.289,155.316,119.923z"/>
				<path fill="#949696" d="M162.962,118.865c0,1.635-1.245,3.131-2.783,3.344c-1.538,0.212-2.784-0.939-2.784-2.574
					c0-1.633,1.246-1.843,2.784-2.055C161.717,117.367,162.962,117.231,162.962,118.865z"/>
			</g>
		</g>
		<polygon fill="#6A3D16" points="115.769,86.1 115.769,89.072 119.111,88.61 119.111,92.697 126.585,92.954 130.386,96.085 
			131.306,98.754 134.875,98.261 136.419,101.273 140.747,103.9 138.19,100.599 136.616,97.16 132.683,97.059 130.883,94.637 
			127.961,91.474 121.238,91.112 121.236,87.671 118.915,85.664 		"/>
		<path fill="#F8AE32" d="M204.668,114.623c0,0.831-0.616,1.592-1.377,1.696l0,0c-0.76,0.105-1.376-0.484-1.376-1.315v-7.882
			c0-0.832,0.616-1.591,1.376-1.696l0,0c0.761-0.105,1.377,0.483,1.377,1.315V114.623z"/>
		<path fill="#F8AE32" d="M204.668,208.051c0,0.83-0.616,1.59-1.377,1.695l0,0c-0.76,0.105-1.376-0.484-1.376-1.314v-7.883
			c0-0.832,0.616-1.591,1.376-1.696l0,0c0.761-0.104,1.377,0.483,1.377,1.315V208.051z"/>
		<path fill="#6A3D16" d="M176.739,222.312l-4.721,6.745l3.934,2.038l-2.95,2.128l-2.753,5.111v4.518c0,0,6.49,0.179,6.49,1.039
			s1.574,4.514,1.574,4.514v-5.807l-5.705-0.932l-0.196-2.985l1.869-4.345l4.818-4.322l-3.343-1.688l3.343-6.341L176.739,222.312z"
			/>
		<polygon fill="#6A3D16" points="104.934,83.447 109.095,86.855 109.095,261.922 104.934,258.514 		"/>
		<polygon fill="#947357" points="104.934,83.447 109.095,86.855 203.941,73.907 179.1,73.907 		"/>
	</g>
	<path fill="#FFFFFF" d="M83.5,112.439c0,0-0.052,0.639,0.047,1.721c0.123,1.075,0.384,2.613,1.195,4.208
		c0.414,0.786,0.912,1.606,1.593,2.349c0.687,0.733,1.479,1.437,2.394,2.049c0.946,0.566,1.939,1.136,3.044,1.551
		c1.092,0.433,2.252,0.769,3.424,1.074l1.786,0.366c0.603,0.093,1.203,0.186,1.798,0.277c1.201,0.142,2.387,0.282,3.547,0.329
		c1.155,0.111,2.283,0.108,3.352,0.154c1.073,0.008,2.087,0.017,3.023,0.023c3.773-0.078,6.288-0.131,6.288-0.131
		s-0.616,0.143-1.694,0.393c-0.542,0.106-1.196,0.28-1.958,0.397c-0.761,0.12-1.62,0.275-2.562,0.409
		c-0.945,0.098-1.97,0.233-3.06,0.317c-1.092,0.045-2.244,0.149-3.444,0.129c-1.199,0.011-2.44-0.07-3.704-0.155
		c-0.63-0.078-1.266-0.156-1.904-0.236l-1.91-0.358c-0.632-0.159-1.267-0.315-1.894-0.493c-0.616-0.225-1.241-0.403-1.834-0.678
		c-1.204-0.488-2.339-1.128-3.356-1.863c-0.997-0.77-1.892-1.617-2.575-2.559c-0.687-0.936-1.185-1.924-1.5-2.872
		c-0.656-1.899-0.618-3.578-0.488-4.687C83.257,113.033,83.5,112.439,83.5,112.439z"/>
	<path fill="#FFFFFF" d="M83.5,192.519c0,0-0.052,0.639,0.047,1.722c0.123,1.074,0.384,2.612,1.195,4.207
		c0.414,0.787,0.912,1.606,1.593,2.349c0.687,0.733,1.479,1.437,2.394,2.049c0.946,0.566,1.939,1.136,3.044,1.55
		c1.092,0.434,2.252,0.77,3.424,1.074l1.786,0.367c0.603,0.094,1.203,0.186,1.798,0.277c1.201,0.142,2.387,0.281,3.547,0.33
		c1.155,0.11,2.283,0.107,3.352,0.153c1.073,0.009,2.087,0.017,3.023,0.024c3.773-0.079,6.288-0.132,6.288-0.132
		s-0.616,0.143-1.694,0.393c-0.542,0.106-1.196,0.28-1.958,0.397c-0.761,0.121-1.62,0.275-2.562,0.41
		c-0.945,0.097-1.97,0.232-3.06,0.316c-1.092,0.045-2.244,0.148-3.444,0.129c-1.199,0.012-2.44-0.07-3.704-0.155
		c-0.63-0.078-1.266-0.157-1.904-0.235l-1.91-0.359c-0.632-0.158-1.267-0.315-1.894-0.493c-0.616-0.225-1.241-0.403-1.834-0.679
		c-1.204-0.487-2.339-1.127-3.356-1.861c-0.997-0.771-1.892-1.618-2.575-2.56c-0.687-0.936-1.185-1.924-1.5-2.872
		c-0.656-1.9-0.618-3.578-0.488-4.687C83.257,193.112,83.5,192.519,83.5,192.519z"/>
</g>
</svg>
