<?xml version="1.0" encoding="utf-8"?>
<!-- Generator: Adobe Illustrator 16.0.0, SVG Export Plug-In . SVG Version: 6.00 Build 0)  -->
<!DOCTYPE svg PUBLIC "-//W3C//DTD SVG 1.1 Tiny//EN" "http://www.w3.org/Graphics/SVG/1.1/DTD/svg11-tiny.dtd">
<svg version="1.1" baseProfile="tiny" id="Layer_1" xmlns="http://www.w3.org/2000/svg" xmlns:xlink="http://www.w3.org/1999/xlink"
	 x="0px" y="0px" width="300px" height="300px" viewBox="0 0 300 300" xml:space="preserve">
<g>
	<circle fill="#EE5A28" cx="153.484" cy="150" r="131.6"/>
	<path fill="#D6D900" d="M218.833,264.279V133.074c0-36.091-29.257-65.35-65.35-65.35c-36.092,0-65.349,29.259-65.349,65.35v131.205
		c0,0,26.584,17.32,65.349,17.32S218.833,264.279,218.833,264.279z"/>
	<ellipse fill="#D6C600" cx="153.484" cy="77.425" rx="17.546" ry="5.782"/>
	<path fill="#F8D732" d="M164.52,69.197c1.966,12.845-4.932,9.218-11.016,9.218c-6.084,0-13.125,3.604-11.016-9.218
		c2.418-14.702,7.182-20.617,11.016-20.617C157.051,48.58,162.393,55.307,164.52,69.197z"/>
	<ellipse fill="#D6C600" cx="153.484" cy="104.645" rx="12.494" ry="4.117"/>
	<path fill="#F8D732" d="M161.342,98.785c1.4,9.146-3.512,6.564-7.844,6.564s-9.346,2.566-7.844-6.564
		c1.722-10.469,5.114-14.681,7.844-14.681C156.024,84.104,159.828,88.895,161.342,98.785z"/>
	<path fill="#D6C600" d="M193.679,150.978c0,19.565-17.219,27.562-38.459,27.562s-38.459-7.996-38.459-27.562
		c0-19.566,17.219-35.428,38.459-35.428S193.679,131.411,193.679,150.978z"/>
	<path fill="#FFFFFF" d="M180.67,150.156c0,12.947-11.395,15.542-25.45,15.542c-14.056,0-25.451-2.595-25.451-15.542
		c0-12.948,11.395-23.444,25.451-23.444C169.275,126.712,180.67,137.208,180.67,150.156z"/>
	<path fill="#393A39" d="M162.024,145.398c0,8.847-4.405,16.019-7.171,16.019c-4.043,0-6.448-7.172-6.448-16.019
		c0-8.846,0.749-16.018,7.448-16.018S162.024,136.553,162.024,145.398z"/>
	<path fill="#006236" d="M125.513,176.217c0,0,0.019,0.017,0.055,0.047c0.038,0.033,0.097,0.085,0.124,0.08
		c0.036,0.011,0.082,0.024,0.135,0.04c0.055,0.017,0.169,0.106,0.268,0.17c0.454,0.313,1.121,0.771,1.968,1.354
		c0.881,0.6,1.943,1.341,3.188,2.139c1.241,0.797,2.629,1.688,4.162,2.536c1.509,0.888,3.159,1.73,4.867,2.521
		c0.423,0.195,0.853,0.393,1.287,0.593c0.435,0.172,0.875,0.346,1.32,0.521c0.222,0.084,0.438,0.186,0.658,0.276l0.668,0.229
		c0.446,0.148,0.89,0.327,1.34,0.467c1.792,0.561,3.6,0.999,5.39,1.306c1.8,0.21,3.579,0.471,5.385,0.371
		c1.8,0.019,3.627-0.254,5.481-0.541c0.925-0.275,1.866-0.357,2.802-0.658c0.47-0.146,0.934-0.301,1.407-0.426
		c0.473-0.123,0.945-0.24,1.413-0.445c0.471-0.178,0.938-0.354,1.401-0.527c0.468-0.176,0.943-0.29,1.402-0.527
		c0.923-0.42,1.834-0.829,2.751-1.192c1.778-0.965,3.554-1.716,5.154-2.712c0.822-0.455,1.608-0.894,2.356-1.309
		c0.741-0.469,1.442-0.924,2.123-1.33c0.678-0.41,1.313-0.8,1.918-1.146c0.589-0.389,1.129-0.745,1.618-1.068
		c0.979-0.651,1.798-1.125,2.338-1.47c0.557-0.33,0.855-0.506,0.855-0.506l1.049-0.618c5.659-3.342,12.955-1.463,16.296,4.196
		c2.392,4.051,2.099,8.949-0.33,12.627c0,0-0.233,0.352-0.67,1.01c-0.455,0.645-1.094,1.619-1.972,2.812
		c-0.436,0.603-0.915,1.267-1.469,1.975c-0.578,0.699-1.222,1.438-1.911,2.232c-0.685,0.801-1.438,1.629-2.23,2.513
		c-0.835,0.861-1.768,1.724-2.724,2.645c-1.863,1.868-4.233,3.674-6.71,5.59c-1.319,0.905-2.705,1.802-4.127,2.714
		c-1.425,0.914-3.043,1.701-4.629,2.54c-0.785,0.434-1.641,0.8-2.506,1.166c-0.861,0.372-1.741,0.72-2.623,1.077
		c-0.867,0.379-1.82,0.646-2.751,0.95c-0.937,0.298-1.883,0.591-2.838,0.861c-0.967,0.252-1.971,0.439-2.963,0.653
		c-1.002,0.187-1.983,0.449-3.017,0.555c-2.057,0.223-4.113,0.508-6.211,0.498c-1.044,0.014-2.091,0.064-3.134,0.011
		c-1.042-0.077-2.082-0.153-3.121-0.23c-1.042-0.06-2.061-0.229-3.081-0.388c-1.014-0.177-2.039-0.32-3.024-0.561
		c-3.983-0.873-7.71-2.211-11.116-3.756c-3.355-1.616-6.432-3.396-9.08-5.323c-1.338-0.955-2.562-1.946-3.738-2.905
		c-1.137-1-2.233-1.959-3.213-2.934c-0.999-0.966-1.889-1.938-2.738-2.854c-0.821-0.945-1.593-1.836-2.279-2.708
		c-1.376-1.736-2.476-3.326-3.341-4.677c-0.872-1.359-1.48-2.481-1.934-3.302c-0.251-0.463-0.444-0.818-0.574-1.058
		c-0.083-0.149-0.105-0.208-0.121-0.25c-0.018-0.043-0.027-0.064-0.027-0.064c-2.529-6.182,0.431-13.242,6.611-15.77
		c4.299-1.76,9.024-0.863,12.354,1.926L125.513,176.217z"/>
	<path fill="#D6C600" d="M207.544,201.199c0,0-0.233,0.352-0.67,1.01c-0.455,0.645-1.094,1.619-1.972,2.812
		c-0.436,0.603-0.915,1.267-1.469,1.975c-0.578,0.699-1.222,1.438-1.911,2.232c-0.685,0.801-1.438,1.629-2.23,2.513
		c-0.835,0.861-1.768,1.724-2.724,2.645c-1.863,1.868-4.233,3.674-6.71,5.59c-1.319,0.905-2.705,1.802-4.127,2.714
		c-1.425,0.914-3.043,1.701-4.629,2.54c-0.785,0.434-1.641,0.8-2.506,1.166c-0.861,0.372-1.741,0.72-2.623,1.077
		c-0.867,0.379-1.82,0.646-2.751,0.95c-0.937,0.298-1.883,0.591-2.838,0.861c-0.967,0.252-1.971,0.439-2.963,0.653
		c-1.002,0.187-1.983,0.449-3.017,0.555c-2.057,0.223-4.113,0.508-6.211,0.498c-1.044,0.014-2.091,0.064-3.134,0.011
		c-1.042-0.077-2.082-0.153-3.121-0.23c-1.042-0.06-2.061-0.229-3.081-0.388c-1.014-0.177-2.039-0.32-3.024-0.561
		c-3.983-0.873-7.71-2.211-11.116-3.756c-3.355-1.616-6.432-3.396-9.08-5.323c-1.338-0.955-2.562-1.946-3.738-2.905
		c-1.137-1-2.233-1.959-3.213-2.934c-0.999-0.966-1.889-1.938-2.738-2.854c-0.821-0.945-1.593-1.836-2.279-2.708
		c-1.376-1.736-2.476-3.326-3.341-4.677c-0.872-1.359-1.48-2.481-1.934-3.302c-0.251-0.463-0.444-0.818-0.574-1.058
		c-0.083-0.149-0.105-0.208-0.121-0.25c-0.018-0.043-0.027-0.064-0.027-0.064c-0.226-0.553-0.393-1.113-0.533-1.676
		c-0.599,2.407-0.478,5.017,0.533,7.488c0,0,0.009,0.021,0.027,0.064c0.016,0.042,0.038,0.101,0.121,0.25
		c0.129,0.239,0.322,0.595,0.574,1.058c0.454,0.82,1.062,1.942,1.934,3.302c0.865,1.351,1.965,2.94,3.341,4.677
		c0.686,0.872,1.458,1.763,2.279,2.708c0.849,0.916,1.74,1.888,2.738,2.854c0.98,0.975,2.077,1.934,3.213,2.934
		c1.176,0.959,2.4,1.95,3.738,2.905c2.648,1.927,5.725,3.707,9.08,5.323c3.406,1.545,7.133,2.883,11.116,3.756
		c0.985,0.24,2.011,0.384,3.024,0.561c1.02,0.158,2.039,0.328,3.081,0.388c1.039,0.077,2.079,0.153,3.121,0.23
		c1.042,0.054,2.089,0.003,3.134-0.011c2.099,0.01,4.154-0.275,6.211-0.498c1.034-0.105,2.015-0.368,3.017-0.555
		c0.992-0.214,1.996-0.401,2.963-0.653c0.955-0.271,1.901-0.563,2.838-0.861c0.932-0.304,1.885-0.571,2.751-0.95
		c0.882-0.357,1.762-0.705,2.623-1.077c0.865-0.366,1.721-0.732,2.506-1.166c1.586-0.839,3.204-1.626,4.629-2.54
		c1.423-0.912,2.808-1.809,4.127-2.714c2.477-1.916,4.847-3.722,6.71-5.59c0.956-0.921,1.889-1.783,2.724-2.645
		c0.792-0.884,1.546-1.712,2.23-2.513c0.689-0.795,1.333-1.533,1.911-2.232c0.554-0.708,1.033-1.372,1.469-1.975
		c0.878-1.193,1.518-2.168,1.972-2.812c0.437-0.658,0.67-1.01,0.67-1.01c1.828-2.769,2.445-6.229,1.618-9.498
		C208.836,198.817,208.292,200.066,207.544,201.199z"/>
	<path fill="#FFFFFF" d="M153.036,193.426c-0.352,3.713-2.485,6.548-3.646,6.438c-1.697-0.16-2.421-3.266-2.07-6.979
		s0.583-2.808,3.395-2.541C153.526,190.609,153.387,189.714,153.036,193.426z"/>
	<path fill="#FFFFFF" d="M158.334,193.426c0.352,3.713,2.485,6.548,3.646,6.438c1.697-0.16,2.421-3.266,2.07-6.979
		s-0.583-2.808-3.395-2.541C157.844,190.609,157.983,189.714,158.334,193.426z"/>
	<path fill="#FFFFFF" d="M169.796,190.689c1.049,2.807,3.295,4.558,4.172,4.23c1.282-0.479,1.194-3.039,0.146-5.844
		s-1.039-2.055-3.163-1.261C168.827,188.61,168.747,187.887,169.796,190.689z"/>
	<path fill="#FFFFFF" d="M140.667,190.689c-1.049,2.807-3.295,4.558-4.172,4.23c-1.282-0.479-1.194-3.039-0.146-5.844
		s1.039-2.055,3.163-1.261C141.636,188.61,141.716,187.887,140.667,190.689z"/>
	<path fill="#EE7770" d="M129.77,210.9c0,0,24.874,15.571,52.462,0c0,0-14.834-8.233-25.268,2.2
		C156.964,213.101,149.917,202.1,129.77,210.9z"/>
	<path fill="#D6C600" d="M112.341,170.121c0,0-13.485,2.579-12.097,18.443C100.244,188.564,90.924,166.749,112.341,170.121z"/>
	<path fill="#D6C600" d="M199.628,170.121c0,0,13.485,2.579,12.097,18.443C211.726,188.564,221.046,166.749,199.628,170.121z"/>
	<ellipse fill="#D6C600" cx="119.135" cy="111.822" rx="10.635" ry="7.178"/>
	<ellipse fill="#D6C600" cx="127.341" cy="89.5" rx="8.206" ry="5.396"/>
	<ellipse fill="#D6C600" cx="174.904" cy="90.447" rx="5.766" ry="4.448"/>
	<ellipse fill="#D6C600" cx="183.835" cy="103.106" rx="3.165" ry="2.579"/>
	<ellipse fill="#D6C600" cx="198.921" cy="119.268" rx="9.421" ry="7.444"/>
	<path fill="#D6BC00" d="M112.341,275.031c0,0,16.524-25.762-3.841-46.127s-46.177-26.148-42.648-41.814S76.44,150,68.373,150
		s-17.143,26.914-20.168,40.052s0.504,29.271,19.16,35.322s3.849,27.334,3.849,27.334S88.241,268.217,112.341,275.031z"/>
	<path fill="#EBDE81" d="M108.967,228.838c-20.366-20.365-46.177-26.148-42.648-41.814c3.376-14.988,9.974-35.232,3.475-36.958
		c3.4,5.037-4.18,22.773-8.637,36.36c-5.149,15.697,20.716,24.148,39.576,46.998c11.973,14.508,8.507,29.775,4.38,38.998
		c2.472,0.93,5.038,1.791,7.695,2.543C112.809,274.965,129.333,249.203,108.967,228.838z"/>
	<path fill="#D6BC00" d="M193.793,275.031c0,0-16.524-25.762,3.841-46.127s46.177-26.148,42.648-41.814S229.694,150,237.761,150
		s17.143,26.914,20.168,40.052s-0.504,29.271-19.16,35.322s-3.849,27.334-3.849,27.334S217.893,268.217,193.793,275.031z"/>
	<path fill="#EBDE81" d="M197.167,228.838c20.366-20.365,46.177-26.148,42.648-41.814c-3.376-14.988-9.974-35.232-3.475-36.958
		c-3.4,5.037,4.18,22.773,8.637,36.36c5.149,15.697-20.716,24.148-39.576,46.998c-11.973,14.508-8.507,29.775-4.38,38.998
		c-2.472,0.93-5.038,1.791-7.695,2.543C193.326,274.965,176.801,249.203,197.167,228.838z"/>
	<path fill="#F8D732" d="M100.445,94.896c0,0-6.662,9.288-8.774,16.927c0,0-15.166-10.77-13.153-19.221
		S100.445,94.896,100.445,94.896z"/>
	<path fill="#F8D732" d="M206.502,94.896c0,0,6.662,9.288,8.774,16.927c0,0,15.166-10.77,13.153-19.221
		S206.502,94.896,206.502,94.896z"/>
	<g>
		<g>
			<path fill="#FFFFFF" d="M256.875,120.6h-14.564c-1.171,0-2.12-0.95-2.12-2.12c0-1.171,0.949-2.121,2.12-2.121h14.564
				c1.172,0,2.121,0.95,2.121,2.121C258.997,119.649,258.047,120.6,256.875,120.6z"/>
			<path fill="#FFFFFF" d="M252.61,145.705c-0.542,0-1.085-0.207-1.499-0.621l-10.299-10.3c-0.828-0.828-0.828-2.17,0-2.998
				s2.169-0.828,2.998,0l10.299,10.3c0.828,0.828,0.828,2.17,0,2.998C253.695,145.498,253.152,145.705,252.61,145.705z"/>
			<path fill="#FFFFFF" d="M242.311,105.706c-0.542,0-1.085-0.206-1.499-0.62c-0.828-0.828-0.828-2.171,0-2.998l10.299-10.3
				c0.826-0.828,2.17-0.828,2.998-0.001s0.828,2.17,0,2.998l-10.299,10.301C243.396,105.5,242.853,105.706,242.311,105.706z"/>
		</g>
		<g>
			<path fill="#FFFFFF" d="M49.127,120.6h14.564c1.171,0,2.12-0.95,2.12-2.12c0-1.171-0.949-2.121-2.12-2.121H49.127
				c-1.172,0-2.121,0.95-2.121,2.121C47.006,119.649,47.955,120.6,49.127,120.6z"/>
			<path fill="#FFFFFF" d="M53.393,145.705c0.542,0,1.085-0.207,1.499-0.621l10.299-10.3c0.828-0.828,0.828-2.17,0-2.998
				s-2.169-0.828-2.998,0l-10.299,10.3c-0.828,0.828-0.828,2.17,0,2.998C52.308,145.498,52.851,145.705,53.393,145.705z"/>
			<path fill="#FFFFFF" d="M63.691,105.706c0.542,0,1.085-0.206,1.499-0.62c0.828-0.828,0.828-2.171,0-2.998l-10.299-10.3
				c-0.826-0.828-2.17-0.828-2.998-0.001s-0.828,2.17,0,2.998l10.299,10.301C62.606,105.5,63.149,105.706,63.691,105.706z"/>
		</g>
	</g>
</g>
</svg>
