<?xml version="1.0" encoding="utf-8"?>
<!-- Generator: Adobe Illustrator 16.0.0, SVG Export Plug-In . SVG Version: 6.00 Build 0)  -->
<!DOCTYPE svg PUBLIC "-//W3C//DTD SVG 1.1 Tiny//EN" "http://www.w3.org/Graphics/SVG/1.1/DTD/svg11-tiny.dtd">
<svg version="1.1" baseProfile="tiny" id="Layer_1" xmlns="http://www.w3.org/2000/svg" xmlns:xlink="http://www.w3.org/1999/xlink"
	 x="0px" y="0px" width="300px" height="300px" viewBox="0 0 300 300" xml:space="preserve">
<g>
	<circle fill="#EE5A28" cx="150" cy="150" r="131.6"/>
	<path fill="#895D39" d="M95.186,149.228v121.212c0,0,50.461,25.087,111.725-1.039V143.293L95.186,149.228z"/>
	<path fill="#FFD202" d="M151.048,281.259c45.639-0.6,74.417-21.933,74.417-21.933c-7.035-54.296-67.039-49.664-75.392-48.751
		c-8.353-0.913-68.357-5.545-75.392,48.751c0,0,28.779,21.333,74.417,21.933v0.028c0.329,0,0.647-0.012,0.975-0.015
		c0.327,0.003,0.646,0.015,0.974,0.015V281.259z"/>
	<path fill="#F19574" d="M168.004,225.176c0,5.727-4.641,10.367-10.367,10.367h-13.178c-5.726,0-10.367-4.641-10.367-10.367v-52.949
		c0-5.725,4.641-10.365,10.367-10.365h13.178c5.726,0,10.367,4.641,10.367,10.365V225.176z"/>
	<path fill="#F3A285" d="M198.207,156.645c0,23.23-18.829,42.058-42.059,42.058h-12.304c-23.227,0-42.059-18.827-42.059-42.058
		V100.77c0-23.229,18.832-42.058,42.059-42.058h12.304c23.229,0,42.059,18.829,42.059,42.058V156.645z"/>
	<g>
		<path fill="#F3A285" d="M103.564,123.189c-0.16-0.006-0.319-0.014-0.48-0.014c-8.702,0-15.756,7.057-15.756,15.758
			s7.054,15.756,15.756,15.756c0.161,0,0.32-0.007,0.48-0.011V123.189z"/>
		<path fill="#F08660" d="M103.564,130.808c-0.083-0.002-0.165-0.007-0.248-0.007c-4.491,0-8.131,3.641-8.131,8.133
			c0,4.491,3.641,8.131,8.131,8.131c0.083,0,0.165-0.004,0.248-0.006V130.808z"/>
	</g>
	<g>
		<path fill="#F3A285" d="M197.55,123.189c0.159-0.006,0.318-0.014,0.479-0.014c8.702,0,15.756,7.057,15.756,15.758
			s-7.055,15.756-15.756,15.756c-0.161,0-0.32-0.007-0.479-0.011V123.189z"/>
		<path fill="#F08660" d="M197.55,130.808c0.083-0.002,0.164-0.007,0.247-0.007c4.491,0,8.132,3.641,8.132,8.133
			c0,4.491-3.641,8.131-8.132,8.131c-0.083,0-0.165-0.004-0.247-0.006V130.808z"/>
	</g>
	<g>
		<path fill="#E6352B" d="M164.094,180.772v-22.794c0-5.447-4.415-9.861-9.862-9.861h-6.366c-5.447,0-9.862,4.414-9.862,9.861
			v22.794H164.094z"/>
		<path fill="#FFFFFF" d="M162.158,152.128c-1.796-2.43-4.673-4.011-7.927-4.011h-6.366c-3.254,0-6.13,1.581-7.927,4.011H162.158z"
			/>
		<rect x="138.003" y="177.029" fill="#FFFFFF" width="26.091" height="3.743"/>
		<path fill="#F06782" d="M141.689,177.029h17.714C159.403,177.029,151.888,165.222,141.689,177.029z"/>
	</g>
	<path fill="#F19574" d="M101.786,123.233c0,0,30.489,2.3,42.902-14.288c0,0,7.212-30.398,40.917-14.518l0.821,10.207
		c0,0-26.082-13.349-27.022-0.803C158.461,116.393,126.603,141.158,101.786,123.233z"/>
	<path fill="#895D39" d="M101.786,123.233c0,0,36.424,4.147,45.681-19.55c9.257-23.696,38.138-9.256,38.138-9.256
		s0.042,28.748,12.425,28.748c0,0,6.77,0.632,8.881,2.743V97.02c0,0-0.201-26.4-12.42-26.4c0,0-1.851-35.435-44.495-35.435
		c-46.431,0-54.549,33.098-54.549,33.098s-10.186,26.146,1.327,56.213L101.786,123.233z"/>
	<path fill="#764C28" d="M129.993,135.787c-0.403,0-0.807-0.153-1.115-0.461c-5.07-5.07-13.632-3.018-13.717-2.995
		c-0.847,0.208-1.7-0.306-1.91-1.15s0.305-1.7,1.15-1.91c0.421-0.105,10.39-2.49,16.707,3.825c0.616,0.616,0.616,1.614,0,2.229
		C130.8,135.634,130.396,135.787,129.993,135.787z"/>
	<path fill="#764C28" d="M118.26,137.651c-0.337,0-0.669-0.161-0.872-0.462c-0.325-0.48-0.2-1.132,0.28-1.458
		c0.27-0.183,6.682-4.447,12.823-1.142c0.511,0.275,0.703,0.913,0.427,1.424c-0.274,0.511-0.911,0.703-1.423,0.428
		c-5.008-2.698-10.593,0.994-10.648,1.031C118.666,137.594,118.462,137.651,118.26,137.651z"/>
	<path fill="#764C28" d="M170.172,135.787c-0.404,0-0.807-0.153-1.115-0.462c-0.616-0.615-0.616-1.613,0-2.229
		c6.317-6.314,16.286-3.93,16.707-3.825c0.845,0.21,1.36,1.065,1.15,1.91s-1.062,1.358-1.909,1.15
		c-0.152-0.037-8.694-2.029-13.719,2.995C170.979,135.634,170.575,135.787,170.172,135.787z"/>
	<path fill="#764C28" d="M181.905,137.651c-0.202,0-0.406-0.058-0.586-0.179c-0.056-0.037-5.643-3.729-10.649-1.031
		c-0.51,0.275-1.149,0.083-1.423-0.428c-0.275-0.511-0.084-1.148,0.427-1.424c6.14-3.308,12.553,0.959,12.823,1.142
		c0.48,0.326,0.605,0.978,0.28,1.458C182.574,137.49,182.243,137.651,181.905,137.651z"/>
	<path fill="#F6B9A3" d="M159.403,137.681c0,1.205-0.977,2.182-2.182,2.182h-13.351c-1.205,0-2.182-0.977-2.182-2.182l0,0
		c0-1.205,0.977-2.181,2.182-2.181h13.351C158.426,135.5,159.403,136.476,159.403,137.681L159.403,137.681z"/>
	<circle fill="#FFD202" cx="95.447" cy="154.689" r="4.467"/>
	<circle fill="#FFD202" cx="205.929" cy="154.689" r="4.467"/>
</g>
</svg>
