<?xml version="1.0" encoding="utf-8"?>
<!-- Generator: Adobe Illustrator 17.0.0, SVG Export Plug-In . SVG Version: 6.00 Build 0)  -->
<!DOCTYPE svg PUBLIC "-//W3C//DTD SVG 1.1//EN" "http://www.w3.org/Graphics/SVG/1.1/DTD/svg11.dtd">
<svg version="1.1" id="Layer_1" xmlns="http://www.w3.org/2000/svg" xmlns:xlink="http://www.w3.org/1999/xlink" x="0px" y="0px"
	 width="512px" height="512px" viewBox="0 0 512 512" enable-background="new 0 0 512 512" xml:space="preserve">
<g>
	<path fill="#F05A28" d="M256,31C131.747,31,31,131.747,31,256s100.747,225,225,225s225-100.747,225-225S380.253,31,256,31z"/>
	<g>
		<path d="M319.142,343.639c1.967,0.849,2.98,2.834,2.298,4.451l0,0c-0.703,1.604-2.836,2.225-4.803,1.376l-216.438-93.173
			c-1.967-0.847-3.002-2.834-2.319-4.449l0,0c0.704-1.606,2.857-2.227,4.824-1.387L319.142,343.639z"/>
		<g>
			<path fill="#FFC20E" d="M330.444,365.153c21.608,10.37,30.26,38.634,30.26,38.634c-5.173-18.463-38.912-41.811-38.912-41.811
				c11.82,6.344,25.376,30.272,25.376,30.272c-6.643-15.563-42.969-38.923-42.969-38.923l-12.687-5.187l10.101,1.732l-16.724-6.634
				l10.37,2.887l-12.398-5.762l14.717,3.456l-14.717-5.484l14.139,0.867l-11.24-5.475l16.702,5.186l-14.116-6.345l12.398,2.599
				l-10.659-6.344l14.405,4.612l-16.144-7.783l16.724,4.327l-14.137-5.478l11.24,3.737l-9.21-7.772
				c4.617,5.765,27.818,10.743,27.818,10.743"/>
			<path fill="#FFC20E" d="M319.182,331.127c0,0,46.715,6.922,59.984-3.456c0,0-13.558,10.377-27.693,10.377
				c0,0,24.795-0.289,36.056-7.492c0,0-12.979,10.662-37.776,8.063l54.498,3.466l-56.526-1.727l46.426,3.456l-46.715-2.019
				l39.221,6.056l-40.07-4.617l37.772,9.23l-38.932-6.053l65.737,19.022l-67.185-17.584l68.923,22.199l-71.511-20.472l72.94,24.796
				l-75.527-22.779l68.323,23.357l-69.772-19.9l53.049,21.341l-53.631-19.323l57.375,26.526l-59.962-25.085l60.542,33.168
				l-61.122-30.56l63.997,36.905l-43.238-21.339l36.325,27.392l-36.615-24.227l25.954,28.831l-22.499-21.33l10.679,21.621
				c0,0-23.947-38.345-40.381-45.268"/>
		</g>
		<path d="M310.326,357.453c-1.057,2.66,0.249,5.681,2.897,6.737l0.807,0.321c2.67,1.064,5.693-0.228,6.748-2.897l10.453-26.256
			c1.055-2.659-0.248-5.681-2.897-6.737l-0.807-0.321c-2.67-1.056-5.693,0.238-6.748,2.91L310.326,357.453z"/>
		<path fill="#231F20" d="M191.333,213.696v0.012l1.075,2.813l2.817-0.867l-0.87-3.239l-0.083-0.135
			C193.113,212.953,192.036,213.437,191.333,213.696z"/>
		<g>
			<path fill="#5D3612" d="M185.164,197.707c-2.09,0-3.788,0.726-3.788,1.626c0,0.889,1.698,1.613,3.788,1.613
				c2.09,0,3.788-0.724,3.788-1.613C188.953,198.433,187.254,197.707,185.164,197.707z"/>
			<path fill="#5D3612" d="M186.386,180.341c-0.89,2.69-1.201,5.402,0.829,6.118c0.414,0.143,0.806,0.268,1.2,0.372l0.105-0.372
				c0-2.165-1.947-6.056-1.947-6.056L186.386,180.341z"/>
		</g>
		<path fill="#FFFFFF" d="M186.386,180.341l0.186,0.06c0,0,1.947,3.891,1.947,6.056l-0.105,0.372
			c3.849,1.064,7.245,0.714,7.245,0.714v-0.011c-2.67-3.912-4.843-8.32-6.188-13.267l-0.311,0.083
			C189.159,174.35,187.401,177.318,186.386,180.341z"/>
		<g>
			<path fill="#F9A21B" d="M181.811,182.133l6.707-9.947l0.435-0.094c0.165,0.737,0.331,1.459,0.517,2.175l-0.311,0.083
				c0,0-1.759,2.968-2.773,5.991c-0.89,2.69-1.201,5.402,0.829,6.118c0.414,0.143,0.806,0.268,1.2,0.372
				c3.849,1.064,7.245,0.714,7.245,0.714v-0.011c5.112,7.492,12.024,13.142,18.256,17.147l-0.103,0.155
				c0,0-1.945,6.056-3.228,12.761c-1.304,6.707-7.142,20.107-7.142,20.107c-1.304-2.588-2.587-4.068-4.989-3.902
				c-0.392,0.032-0.829,0.105-1.283,0.228c-3.249,0.87-12.107,3.466-13.639,2.597c-1.512-0.86-2.587-5.184,1.303-6.49
				c3.892-1.293,6.067-9.728,6.067-9.728c18.151,0,10.368-23.14,10.597-17.085c0.125,3.872-3.955,7.111-7.225,8.952
				c-1.158,0.674-2.236,1.16-2.939,1.418c-0.434,0.157-0.726,0.228-0.87,0.228c-1.077,0-12.976-13.413-12.976-13.413
				c-2.174,1.304-9.936,0.654-13.847-0.86c-3.891-1.51-5.836-8.434,0-15.574C169.476,176.946,181.811,182.133,181.811,182.133z
				 M185.164,200.945c2.09,0,3.788-0.724,3.788-1.613c0-0.9-1.698-1.626-3.788-1.626c-2.09,0-3.788,0.726-3.788,1.626
				C181.377,200.221,183.075,200.945,185.164,200.945z"/>
			<path fill="#F9A21B" d="M167.322,287.661c-0.867,1.947,2.153,4.543,3.685,8.009c1.51,3.446,6.044,4.1,11.446,4.1
				c5.422,0,10.825-5.187,9.315-14.271c-1.532-9.075,3.022-12.543,3.022-12.543l0.166-0.374c-2.07-0.973-4.037-1.862-5.549-2.514
				l-0.02,0.082c-3.043,7.568-14.282,8.001-17.53,8.22c-0.767,0.051-1.366,0.484-1.864,1.149c-0.372,1.313-0.91,3.372-1.904,5.267
				C167.818,285.994,167.592,287.069,167.322,287.661z"/>
			<path fill="#F9A21B" d="M153.061,266.693c-1.096,0.641-14.717,10.37,0.414,19.881c8.57,5.381,12.564,2.133,14.614-1.79
				c0.414-1.83,0.952-3.985,1.904-5.267c0.229-0.778,0.394-1.295,0.58-1.367c1.075-0.434,0.206-10.38,0.206-10.38l7.14-7.998
				l0.271-0.074c-1.409-1.304-2.939-2.733-3.912-3.849c-1.118,1.127-7.08,6.963-10.205,7.162
				C160.617,263.227,154.138,266.041,153.061,266.693z"/>
		</g>
		
			<linearGradient id="SVGID_1_" gradientUnits="userSpaceOnUse" x1="-132.1634" y1="458.8335" x2="-147.3335" y2="458.8335" gradientTransform="matrix(2.0639 0 0 2.0639 477.284 -697.9797)">
			<stop  offset="0" style="stop-color:#3E3E3F"/>
			<stop  offset="1" style="stop-color:#231F20"/>
		</linearGradient>
		<path fill="url(#SVGID_1_)" d="M203.441,237.704c-1.304-2.588-2.587-4.068-4.989-3.902v0.022c0,0-23.989,19.674-25.065,20.098
			c-0.454,0.186,0,0.921,0.89,1.925c0.973,1.116,2.504,2.545,3.912,3.849c0.434,0.404,0.847,0.787,1.241,1.149
			c2.816,2.597,4.326,3.674,5.402,3.249l0.455,0.051c0.767-1.046,2.256-1.924,4.74-2.215c7.142-0.867,14.49-20.978,14.49-20.978
			L203.441,237.704z"/>
		<path d="M323.654,212.848c0.993-3.645,0.311-7.588-0.703-10.816c4.863-3.891,8.939-5.712,8.939-5.712
			c-7.431-4.194-25.477-4.72-35.31,1.044c-9.831,5.765-24.175,16.755-24.175,16.755l-1.055,0.54c0,0-14.345,5.753-28.418-1.842
			c-14.074-7.594-22.562,4.192-22.562,4.192l0,0c0.103,0.052,1.469,0.798,3.602,2.185c-2.464,2.67-2.982,7.369-2.816,8.567
			c0.229,1.521-4.532-0.217-8.858,4.109c-4.324,4.326-7.783,9.086-7.783,9.086s-7.348,20.109-14.49,20.978
			c-2.482,0.291-3.972,1.17-4.74,2.215c-1.427,1.956-0.331,4.494,1.49,4.916c0.495,0.112,1.427,0.477,2.628,1.003
			c1.51,0.652,3.479,1.541,5.549,2.514c5.858,2.763,12.666,6.139,13.225,6.21c3.313-2.339,7.265-4.088,11.735-4.212
			c-0.022-0.123,0.062-0.101,0.186,0h-0.022c-0.042,0-0.103,0-0.165,0c0.311,1.493,0.455,4.431-1.987,7.028
			c-3.477,3.674-9.087-2.816-9.728-2.816c-0.02,0-0.02,0-0.02,0c-7.08,4.96-11.24,12.543-11.24,12.543
			c-6.811,11.292,5.464,21.318,5.838,21.621c-0.249-0.312-7.08-9.035,3.685-2.091c0.827,0.54,1.759,1.161,2.814,1.885
			c6.354,4.418,12.626,6.179,17.737,6.737h0.023c6.87,0.744,11.652-0.683,11.652-0.683c-1.532-3.02-19.475-12.327-19.475-13.184
			c0-0.869,10.161,1.076,28.976,7.346c18.814,6.273,23.803-6.27,23.803-6.27s2.361,2.381,18.153,4.543s31.357-7.142,31.357-7.142
			c-16.663-27.032,13.619-54.052,13.619-54.052c27.238-17.956,27.238-52.119,27.238-52.119
			C343.772,214.36,323.654,212.848,323.654,212.848z"/>
		<path d="M188.953,154.243c-1.098,5.712-1.14,10.948-0.394,15.738c0.125,0.715,0.249,1.418,0.394,2.111
			c0.165,0.737,0.331,1.459,0.517,2.175c1.346,4.947,3.519,9.355,6.188,13.267c5.112,7.492,12.024,13.142,18.256,17.147
			c8.238,5.309,15.255,7.731,15.255,7.731s6.913-9.739,18.379-3.466c11.468,6.27,23.14,1.521,23.14,1.521
			c-13.204-1.947-16.227-13.413-16.227-13.413s-40.422-30.915-42.368-44.979l-6.065-2.596c-6.045-2.587-3.249-11.455-2.816-17.51
			c0.434-6.064-2.794-5.186-2.794-5.186c-3.725,2.473-8.011,15.535-10.142,22.715C189.448,152.328,188.953,154.243,188.953,154.243z
			"/>
		<path d="M233.493,142.152c0.042,0.664-0.434,1.273-0.434,1.273c5.795,13.95,32.661,32.155,33.076,32.433
			c-0.062-0.155-3.106-7.874,9.748-17.508c12.978-9.73,17.076-33.523,17.076-35.25c0-1.729,1.739-5.836,5.175-3.675
			c3.477,2.164,6.934-0.434,6.934-0.434s3.022-5.618,12.109-4.534c9.086,1.078,19.683-5.629,21.195-5.629
			c1.512,0,7.555-1.293,7.555-5.621c0-4.324-3.663-3.465-3.663-3.465s-3.043,3.902-11.901,3.249
			c-8.859-0.654-34.38-4.761-34.38-4.761s-5.175-2.805-16.433,8.869c-11.239,11.685-23.783,19.892-24.859,19.892
			c-1.095,0-7.781,10.814-14.714,11.9C235.812,139.533,234.156,141.046,233.493,142.152L233.493,142.152z"/>
		<g>
			<path fill="#FFC20E" d="M204.084,343.885c-1.077,2.807-4.1,6.274-0.643,12.329c3.457,6.054,3.663,9.076,3.663,9.076
				s19.043-2.165,23.575-14.916c4.555-12.759,3.892,3.457,3.892,3.457l13.619-9.073l-21.153-25.274h-0.023
				c-5.11-0.558-11.382-2.319-17.737-6.737c-1.057-0.724-1.987-1.346-2.814-1.885l12.75,20.481c0,0,2.608,6.054-2.153,8
				C212.299,341.29,205.157,341.071,204.084,343.885z"/>
			<path fill="#FFC20E" d="M173.159,170.893c0,2.588,4.76-4.324,9.521-4.324c0,0-5.63,6.488-4.118,8.217
				c0,0,3.891-4.326,5.422-4.326c1.47,0-0.165,3.728-0.228,3.892l4.534-4.315l0.269-0.054c-0.746-4.79-0.704-10.028,0.394-15.738
				c0,0,0.495-1.915,1.324-4.741l-0.042-0.022l-13.621-6.913l7.142,10.37c0,0-17.739,5.848-18.586,9.956
				c0,0,12.107-3.685,16.847-1.522C182.017,161.371,173.159,168.296,173.159,170.893z"/>
			<path fill="#FFC20E" d="M203.441,237.704l1.077,3.249c0,0,3.457-4.76,7.783-9.086c4.324-4.324,9.087-2.588,8.858-4.109
				c-0.208-1.51,0.664-8.65,5.195-10.162c4.452-1.479,2.879-5.03,2.817-5.184l0,0c0,0-7.016-2.422-15.255-7.731l-0.103,0.155
				c0,0-1.945,6.056-3.228,12.761C209.279,224.304,203.441,237.704,203.441,237.704z"/>
			<path fill="#FFC20E" d="M229.169,140.394c-6.273,0-17.076,11.683-17.076,11.683c1.945,14.065,42.368,44.979,42.368,44.979
				l11.675-21.196l0,0c-0.415-0.278-27.281-18.483-33.076-32.433c0,0,0-0.549,0.434-1.273l0,0
				C233.452,141.325,232.625,140.394,229.169,140.394z"/>
		</g>
	</g>
</g>
</svg>
