<?xml version="1.0" encoding="utf-8"?>
<!-- Generator: Adobe Illustrator 16.0.0, SVG Export Plug-In . SVG Version: 6.00 Build 0)  -->
<!DOCTYPE svg PUBLIC "-//W3C//DTD SVG 1.1 Tiny//EN" "http://www.w3.org/Graphics/SVG/1.1/DTD/svg11-tiny.dtd">
<svg version="1.1" baseProfile="tiny" id="Layer_1" xmlns="http://www.w3.org/2000/svg" xmlns:xlink="http://www.w3.org/1999/xlink"
	 x="0px" y="0px" width="300px" height="300px" viewBox="0 0 300 300" xml:space="preserve">
<g>
	<circle fill="#EE5A28" cx="150" cy="150" r="131.6"/>
	<path fill="#EC450D" d="M59.142,245.2C82.764,267.751,114.764,281.6,150,281.6s67.236-13.849,90.858-36.399H59.142z"/>
	<circle fill="#FFFFFF" cx="157.834" cy="81.807" r="42.166"/>
	<g>
		<path fill="#393A39" d="M98.723,77.143c0,0-3.21,0.215-4.6-2.781c-1.392-2.994-3.959-11.34-3.959-11.34s-1.712-2.781-3.316,1.605
			c-1.604,4.385-5.563,8.451-3.853,13.907c0,0-7.703,12.517-9.093,20.22s-1.498,16.477,10.913,25.355c0,0-2.916,27.431,0.259,38.458
			c3.17,11.027,4.079,1.359,4.079,1.359s3.171,19.638,6.04,12.991c0,0,6.799,24.02,9.064,14.199c0,0,13.596,14.805,15.257,28.551
			c1.662,13.746,4.531,25.379,4.531,25.379s-11.479,3.021-11.479,9.215v5.589h28.399h58.612c0,0,22.507-31.271,7.25-65.562
			c0,0,3.776,1.209,2.115-3.322c-1.662-4.532-10.573-13.293-10.573-13.293s4.379,1.963,4.379,0.302
			c0-1.662-2.869-8.117-16.767-16.974c0,0-11.632-15.656-30.213-15.656l-13.065-20.393c0,0,12.915-14.652,10.951-23.565
			c-1.965-8.913-9.366-24.171-9.366-24.171s-0.301-4.38-2.568-9.517c-2.266-5.136-4.38-8.007-6.043-3.173
			c-1.661,4.834-3.474,9.971-3.474,9.971s-0.453,2.719-4.834,2.719L98.723,77.143z"/>
		<path fill="#F9E80E" d="M104.711,99.424c0,0-4.078-7.252-10.877-7.252c-6.796,0-8.912,5.137-8.912,5.137
			S92.475,106.523,104.711,99.424z"/>
		<path fill="#F9E80E" d="M121.033,99.424c0,0,4.079-7.252,10.877-7.252s8.913,5.137,8.913,5.137S133.27,106.523,121.033,99.424z"/>
		<path fill="#393A39" d="M191.624,240.558c0,0,0.084-0.039,0.248-0.115c0.198-0.097,0.519-0.253,0.959-0.487
			c0.874-0.461,2.207-1.196,3.869-2.243c1.659-1.048,3.66-2.388,5.833-4.077c2.164-1.693,4.54-3.699,6.869-6.098
			c2.343-2.386,4.67-5.14,6.729-8.266c2.082-3.113,3.847-6.616,5.146-10.409c0.302-0.954,0.626-1.913,0.855-2.904l0.194-0.74
			l0.049-0.186l0.024-0.093c0.012-0.055-0.056,0.322-0.022,0.136l0.012-0.056l0.088-0.447c0.116-0.596,0.233-1.193,0.351-1.792
			c0.125-0.892,0.281-1.78,0.358-2.817c0.064-0.503,0.07-0.996,0.094-1.492c0.034-0.5,0.035-0.994,0.02-1.485
			c-0.037-3.952-0.959-7.772-2.793-11.64c-1.814-3.871-4.541-7.756-7.432-11.824c-2.892-4.065-5.945-8.372-8.399-13.057
			c-0.613-1.168-1.197-2.353-1.724-3.56l-0.44-1l-0.323-0.818l-0.412-1.138l-0.329-1.055c-0.827-2.821-1.192-5.849-0.915-8.822
			c0.268-2.97,1.165-5.853,2.563-8.31c1.389-2.467,3.219-4.522,5.222-6.104c4.03-3.179,8.643-4.52,12.674-4.661
			c4.062-0.149,7.541,0.853,10.098,2.071c2.578,1.223,4.305,2.605,5.413,3.566c0.548,0.49,0.956,0.876,1.217,1.146
			c0.265,0.267,0.4,0.404,0.4,0.404c1.823,1.842,1.809,4.812-0.033,6.636c-1.816,1.799-4.732,1.808-6.561,0.04l-0.041-0.039
			c0-0.001-0.359-0.349-1.074-0.91c-0.718-0.55-1.807-1.304-3.293-1.894c-1.477-0.595-3.376-0.994-5.512-0.779
			c-2.118,0.202-4.489,1.097-6.357,2.79c-1.869,1.689-3.108,4.084-3.158,6.842c-0.036,1.381,0.219,2.871,0.778,4.414l0.221,0.577
			l0.207,0.479l0.362,0.781l0.022,0.05c0.051,0.114-0.043-0.101-0.025-0.063l0.044,0.085l0.088,0.17l0.177,0.341
			c0.458,0.912,0.972,1.819,1.517,2.729c2.173,3.646,5.008,7.255,8.132,11.16c3.1,3.914,6.543,8.16,9.369,13.342
			c1.404,2.581,2.627,5.386,3.515,8.327c0.894,2.938,1.442,5.999,1.651,9.014c0.062,0.756,0.102,1.508,0.101,2.252
			c0.011,0.747,0.031,1.496-0.012,2.229c-0.038,0.746-0.036,1.445-0.114,2.226c-0.075,0.772-0.15,1.542-0.226,2.31
			c-0.085,0.609-0.169,1.216-0.253,1.82l-0.063,0.451l-0.125,0.692l-0.199,1.032c-0.24,1.382-0.589,2.727-0.93,4.063
			c-1.449,5.318-3.581,10.239-6.082,14.545c-2.483,4.329-5.287,8.082-8.084,11.309c-2.789,3.243-5.601,5.935-8.175,8.214
			c-2.58,2.272-4.96,4.092-6.972,5.541c-2.014,1.447-3.677,2.509-4.864,3.233c-0.588,0.362-1.071,0.64-1.414,0.835
			c-0.381,0.209-0.577,0.317-0.577,0.317l-0.03,0.017c-4.557,2.513-10.288,0.855-12.801-3.701
			c-2.513-4.558-0.855-10.289,3.702-12.802C191.218,240.754,191.431,240.647,191.624,240.558z"/>
		<path fill="#393A39" d="M93.393,93.271c0,0-4.159,3.355,0,7.515C93.393,100.786,97.218,97.096,93.393,93.271z"/>
		<path fill="#393A39" d="M131.002,93.385c0,0-4.16,3.354,0,7.514C131.002,100.898,134.826,97.208,131.002,93.385z"/>
		<g>
			<path fill="#393A39" d="M100.91,108.458c-0.085,0-0.17-0.007-0.256-0.021l-39.854-6.843c-0.816-0.141-1.364-0.916-1.225-1.732
				c0.142-0.816,0.921-1.359,1.732-1.225l39.854,6.843c0.816,0.141,1.364,0.916,1.225,1.732
				C102.261,107.942,101.627,108.458,100.91,108.458z"/>
			<path fill="#393A39" d="M61.056,113.96c-0.563,0-1.103-0.318-1.358-0.861c-0.353-0.75-0.031-1.644,0.719-1.996
				c13.948-6.564,32.371-3.606,33.148-3.477c0.816,0.136,1.369,0.907,1.233,1.725c-0.136,0.816-0.903,1.366-1.725,1.234
				c-0.18-0.029-18.288-2.928-31.38,3.232C61.487,113.914,61.27,113.96,61.056,113.96z"/>
			<path fill="#393A39" d="M64.675,124.416c-0.371,0-0.742-0.137-1.032-0.412c-0.602-0.57-0.626-1.52-0.056-2.12
				c10.61-11.185,28.847-15.123,29.618-15.285c0.805-0.174,1.605,0.348,1.776,1.158s-0.349,1.606-1.158,1.777
				c-0.18,0.038-18.102,3.918-28.061,14.414C65.468,124.259,65.071,124.416,64.675,124.416z"/>
		</g>
		<g>
			<path fill="#393A39" d="M124.4,108.458c-0.717,0-1.351-0.516-1.477-1.246c-0.14-0.816,0.408-1.592,1.225-1.732l39.854-6.843
				c0.821-0.138,1.592,0.408,1.732,1.225c0.14,0.816-0.408,1.592-1.225,1.732l-39.854,6.843
				C124.57,108.451,124.484,108.458,124.4,108.458z"/>
			<path fill="#393A39" d="M164.255,113.96c-0.214,0-0.432-0.046-0.638-0.143c-13.114-6.172-31.2-3.263-31.38-3.232
				c-0.823,0.13-1.59-0.416-1.726-1.233s0.416-1.59,1.233-1.726c0.777-0.131,19.198-3.088,33.149,3.477
				c0.75,0.353,1.071,1.246,0.719,1.996C165.357,113.642,164.817,113.96,164.255,113.96z"/>
			<path fill="#393A39" d="M160.636,124.416c-0.396,0-0.793-0.156-1.088-0.468c-9.975-10.513-27.881-14.376-28.061-14.414
				c-0.811-0.17-1.33-0.966-1.159-1.776c0.17-0.812,0.972-1.333,1.776-1.159c0.771,0.162,19.009,4.101,29.619,15.285
				c0.57,0.601,0.546,1.55-0.056,2.12C161.378,124.279,161.007,124.416,160.636,124.416z"/>
		</g>
	</g>
</g>
</svg>
