<?xml version="1.0" encoding="utf-8"?>
<!-- Generator: Adobe Illustrator 16.0.0, SVG Export Plug-In . SVG Version: 6.00 Build 0)  -->
<!DOCTYPE svg PUBLIC "-//W3C//DTD SVG 1.1 Tiny//EN" "http://www.w3.org/Graphics/SVG/1.1/DTD/svg11-tiny.dtd">
<svg version="1.1" baseProfile="tiny" id="Layer_1" xmlns="http://www.w3.org/2000/svg" xmlns:xlink="http://www.w3.org/1999/xlink"
	 x="0px" y="0px" width="300px" height="300px" viewBox="0 0 300 300" xml:space="preserve">
<g>
	<circle fill="#25A7DE" cx="150" cy="150" r="131.6"/>
	<path fill="#9D6B33" d="M110.887,93.139c0,0,1.275-28.123-15.056-38.416c0,0-10.839-5.357-10.839,9.693s0,31.242,0,31.242
		L110.887,93.139z"/>
	<path fill="#F2F2F2" d="M181.852,128.136c0,0,1.038,3.827,1.729,6.379c0.692,2.552,3.165,1.575,3.26-0.884
		c0.094-2.46,0.994-9.247,0.994-9.247s-6.367,2.333-6.059,3.469"/>
	<path fill="#F2F2F2" d="M177.357,153.192c0,0,0.471-3.938,0.786-6.562c0.314-2.625-2.345-2.647-3.353-0.401
		c-1.009,2.245-4.385,8.202-4.385,8.202s6.777,0.22,6.917-0.946"/>
	<path fill="#A97D4C" d="M126.271,279.464l24.957-105.218c33.378-9.047,34.524-15.239,36.84-19.277
		c2.316-4.037-4.578-3.57-4.578-3.57l-32.188-2.328c-16.489,0.324-7.855-6.786-7.855-6.786l6.955-1.974
		c54.253-8.463,57.353-38.292,59.167-46.403c1.812-8.114-6.067-7.583-6.067-7.583s-43.08,9.553-55.038,12.794
		c-11.957,3.241-18.16-4.104-24.097-7.51c-5.937-3.405-15.131-3.529-17.447-3.696c-4.78-0.342-11.955,0.885-11.955,0.885
		c-1.411-15.524-9.192-27.201-16.589-34.933c-7.402-7.736-9.744,15.011-9.744,15.011s-12.98,65.076-13.331,71.188
		c-0.349,6.114-29.97,52.187-29.97,52.187S43.667,261.001,126.271,279.464z"/>
	<path fill="#9D6B33" d="M72.5,87.5h15c0,0-2.962-17.962-9.5-24.5S72.5,82.5,72.5,87.5z"/>
	<path fill="#9D6B33" d="M151.228,174.246l-21.51,90.688c0,0-4.218-56.434-4.218-60.934s-1.875,7.542-7.917,1.5
		s-2.083-11.5-2.083-16s-13.5-4.5-18-9s1.227-14.769,3.951-17.492S108.815,181.667,151.228,174.246z"/>
	<path fill="#623B17" d="M199.704,87.169l3.796-0.845c0,0,7.963-0.401,6.067,7.583c0,0-2.293,2.219-2.931,0
		s-3.957-1.835-3.446,0.462s6,4.595,2.298,5.488s-9.614-0.691-10.742-11.578L199.704,87.169z"/>
	<path fill="#623B17" d="M124.108,107.624c0.869,3.425-1.665,5.676-5.264,6.589c-3.6,0.912-6.9,0.141-7.769-3.285
		c-0.869-3.425,1.344-6.942,4.943-7.855C119.619,102.16,123.24,104.198,124.108,107.624z"/>
	<polygon fill="#00CDE1" points="210,126.79 244.642,105.58 248.583,113.963 	"/>
	<polygon fill="#00CDE1" points="209.838,149.523 248.744,161.196 245.125,169.723 	"/>
	<polygon fill="#00CDE1" points="215.077,137.654 244.472,132.62 244.877,139.409 	"/>
</g>
</svg>
