<?xml version="1.0" encoding="utf-8"?>
<!-- Generator: Adobe Illustrator 16.0.0, SVG Export Plug-In . SVG Version: 6.00 Build 0)  -->
<!DOCTYPE svg PUBLIC "-//W3C//DTD SVG 1.1 Tiny//EN" "http://www.w3.org/Graphics/SVG/1.1/DTD/svg11-tiny.dtd">
<svg version="1.1" baseProfile="tiny" id="Layer_1" xmlns="http://www.w3.org/2000/svg" xmlns:xlink="http://www.w3.org/1999/xlink"
	 x="0px" y="0px" width="300px" height="300px" viewBox="0 0 300 300" xml:space="preserve">
<g>
	<circle fill="#163A6C" cx="150" cy="150" r="131.6"/>
	<g>
		<path fill="#D2D3D3" d="M95.868,210.358v21.396c0,0,0,17.612,15.62,17.612c11.006,0,15.618-5.459,15.618-16.598
			s-0.816-26.988-0.816-26.988L95.868,210.358z"/>
		<path fill="#D2D3D3" d="M169.409,214.061h9.244c0,0,8.925-0.639,8.925,7.968v9.244c0,0-0.956,7.969,6.693,7.969
			c7.65,0,9.408-4.544,9.408-10.837s1.014-32.832-2.763-32.832s-24.495-13.705-31.508,1.275
			C162.397,211.828,169.409,214.061,169.409,214.061z"/>
		<path fill="#FFFFFF" d="M226.431,108.863c-17.048,0-22.194,0-22.194,0s-9.81-1.607-9.81-13.51c0-0.229-0.042-0.438-0.104-0.639
			c-1.474-22.516-20.186-40.318-43.076-40.318c-23.845,0-43.173,19.328-43.173,43.178v6.143c-0.068,1.784-1.06,8.58-12.237,8.58
			H74.606c0,0-11.901,0.964-11.901,12.223v16.511c0,0,0.965,5.79,7.72,5.79s2.251-13.349,12.706-13.349
			c8.846,0,8.846,4.912,8.846,15.563s0,50.782,0,50.782s-0.607,18.733,16.102,20.985c16.707,2.251,24.75,7.076,24.75,16.083
			s6.607,13.51,18.421,13.51c11.814,0,19.856-4.181,19.856-19.3v-12.867c0,0-0.322-15.117,10.936-15.117
			c11.259,0,9.973,13.51,9.973,13.51s-0.966,14.152,12.223,14.152c0,0,8.041-0.643,8.041-10.614v-75.913c0,0-0.32-11.9,7.399-11.9
			s8.041,10.293,8.041,10.293s1.287,6.396,7.076,6.396c5.79,0,8.686-6.076,8.686-14.76v-10.937
			C243.479,123.339,243.479,108.863,226.431,108.863z"/>
		<path fill="#E7E8E8" d="M88.104,134.342c0,0,3.858,2.192,3.858,11.195v49.533c0,0,0.335,5.789,5.482,5.789
			s5.147-3.537,5.147-5.789c0-2.253,0-50.181,0-50.181s1.928-18.335-5.791-18.335C88.104,126.555,88.104,134.342,88.104,134.342z"/>
		<path fill="#E7E8E8" d="M155.851,238.396c0,2.541-2.061,4.602-4.602,4.602l0,0c-2.542,0-4.602-2.061-4.602-4.602v-42.041
			c0-2.543,2.06-4.603,4.602-4.603l0,0c2.541,0,4.602,2.06,4.602,4.603V238.396z"/>
		<path fill="#E7E8E8" d="M203.68,222.111c0,1.524-1.237,2.762-2.762,2.762l0,0c-1.527,0-2.764-1.237-2.764-2.762v-50.524
			c0-1.527,1.236-2.765,2.764-2.765l0,0c1.524,0,2.762,1.237,2.762,2.765V222.111z"/>
		<path fill="#E7E8E8" d="M219.677,132.346c0,0-6.724,0.014-7.339,10.195v21.439c0,0-6.351-0.531-6.351-10.09v-12.85
			c0,0-0.532-11.259,5.628-11.259C217.776,129.782,219.677,132.346,219.677,132.346z"/>
		<ellipse fill="#E7E8E8" cx="137.644" cy="107.438" rx="10.2" ry="14.503"/>
		<ellipse fill="#E7E8E8" cx="164.855" cy="107.438" rx="10.2" ry="14.503"/>
		<path fill="#393A39" d="M143.459,101.35c0,7.573-2.604,8.801-5.814,8.801c-3.212,0-5.815-1.228-5.815-8.801
			c0-7.574,2.604-13.716,5.815-13.716C140.855,87.634,143.459,93.775,143.459,101.35z"/>
		<path fill="#393A39" d="M170.669,101.35c0,7.573-2.603,8.801-5.813,8.801c-3.212,0-5.815-1.228-5.815-8.801
			c0-7.574,2.604-13.716,5.815-13.716C168.066,87.634,170.669,93.775,170.669,101.35z"/>
	</g>
</g>
</svg>
