<?xml version="1.0" encoding="utf-8"?>
<!-- Generator: Adobe Illustrator 16.0.0, SVG Export Plug-In . SVG Version: 6.00 Build 0)  -->
<!DOCTYPE svg PUBLIC "-//W3C//DTD SVG 1.1 Tiny//EN" "http://www.w3.org/Graphics/SVG/1.1/DTD/svg11-tiny.dtd">
<svg version="1.1" baseProfile="tiny" id="Layer_1" xmlns="http://www.w3.org/2000/svg" xmlns:xlink="http://www.w3.org/1999/xlink"
	 x="0px" y="0px" width="300px" height="300px" viewBox="0 0 300 300" xml:space="preserve">
<g>
	<circle fill="#609544" cx="150" cy="150" r="131.6"/>
	<g>
		<polygon fill="#F2F2F2" points="205.056,207.513 204.905,207.465 187.359,201.941 176.779,189.05 177.627,177.911 
			178.625,177.987 177.807,188.726 187.943,201.076 205.056,206.464 219.541,201.919 219.84,202.874 		"/>
		<polygon fill="#F2F2F2" points="177.793,212.066 176.793,212.066 176.793,188.495 219.185,178.149 187.954,201.906 
			187.349,201.111 214.761,180.259 177.793,189.28 		"/>
		
			<rect x="211.162" y="176.517" transform="matrix(0.9102 0.4141 -0.4141 0.9102 98.7011 -70.3713)" fill="#F2F2F2" width="1" height="31.904"/>
		<polygon fill="#F2F2F2" points="219.69,198.665 208.916,198.641 196.831,194.725 190.027,185.877 188.508,178.045 189.49,177.854 
			190.965,185.455 197.435,193.869 209.149,197.665 219.69,197.665 		"/>
		<polygon fill="#F2F2F2" points="218.92,190.856 212.473,190.833 205.05,188.491 200.561,183.226 199.138,178.083 200.101,177.815 
			201.494,182.85 205.62,187.622 212.7,189.856 218.92,189.856 		"/>
		<polygon fill="#F2F2F2" points="221.112,186.236 214.584,186.236 210.854,183.905 208.614,181.337 207.192,178.153 
			208.104,177.745 209.496,180.859 211.555,183.188 214.867,185.236 221.112,185.236 		"/>
	</g>
	<g>
		<polygon fill="#F2F2F2" points="100.973,146.734 100.396,145.916 109.433,139.562 111.091,131.238 109.436,123.041 
			101.582,117.947 102.127,117.107 110.332,122.432 112.11,131.236 110.335,140.149 		"/>
		<polygon fill="#F2F2F2" points="66.544,141.163 109.571,122.327 126.975,100.807 127.752,101.436 110.196,123.146 
			110.084,123.194 75.78,138.212 111.498,130.748 123.271,128.873 123.427,129.861 111.679,131.731 		"/>
		<polygon fill="#F2F2F2" points="123.712,146.779 109.778,140.357 69.75,141.129 69.73,140.129 109.989,139.354 124.13,145.871 		
			"/>
		<polygon fill="#F2F2F2" points="93.471,146.681 92.768,145.97 98.805,139.991 100.178,133.694 99.346,127.381 94.901,123.097 
			95.595,122.376 100.291,126.904 101.191,133.737 99.719,140.493 		"/>
		<polygon fill="#F2F2F2" points="85.869,146.56 84.986,146.091 88.2,140.03 90.025,135.543 90.025,131.331 87.235,125.868 
			88.126,125.413 91.025,131.091 90.988,135.829 89.104,140.453 		"/>
		<polygon fill="#F2F2F2" points="79.649,146.525 78.733,146.125 81.287,140.282 81.405,137.422 81.289,135.163 80.162,132.795 
			81.064,132.365 82.282,135.013 82.404,137.417 82.241,140.597 		"/>
		<path fill="#F2F2F2" d="M73.477,146.679l-0.707-0.707c2.424-2.423,1.914-8.833,1.909-8.897l0.996-0.084
			C75.699,137.272,76.229,143.928,73.477,146.679z"/>
	</g>
	<g>
		<rect x="60.968" y="145.524" fill="#393A39" width="173.58" height="28.97"/>
		<rect x="119.042" y="116.149" fill="#393A39" width="57.432" height="30.176"/>
		
			<rect x="46.395" y="92.523" transform="matrix(0.834 -0.5517 0.5517 0.834 -30.4816 89.3003)" fill="#393A39" width="173.58" height="5.58"/>
		<path fill="#393A39" d="M214.727,147.125c-0.298,0-0.584-0.167-0.722-0.453l-38.252-79.408c-0.191-0.397-0.024-0.876,0.374-1.067
			c0.397-0.191,0.875-0.023,1.067,0.374l38.252,79.408c0.191,0.397,0.024,0.876-0.374,1.067
			C214.961,147.1,214.843,147.125,214.727,147.125z"/>
		<g>
			<rect x="123.772" y="119.635" fill="#D2D3D3" width="24.121" height="25.89"/>
			<rect x="147.894" y="119.635" fill="#E7E8E8" width="24.12" height="25.89"/>
		</g>
		<path fill="#E7E8E8" d="M168.703,125.019c0,0.344-0.278,0.622-0.621,0.622h-40.378c-0.343,0-0.621-0.278-0.621-0.622l0,0
			c0-0.343,0.278-0.62,0.621-0.62h40.378C168.425,124.398,168.703,124.676,168.703,125.019L168.703,125.019z"/>
		<path fill="#E7E8E8" d="M168.703,129.367c0,0.344-0.278,0.622-0.621,0.622h-40.378c-0.343,0-0.621-0.278-0.621-0.622l0,0
			c0-0.343,0.278-0.621,0.621-0.621h40.378C168.425,128.746,168.703,129.024,168.703,129.367L168.703,129.367z"/>
		<path fill="#E7E8E8" d="M168.703,133.716c0,0.343-0.278,0.621-0.621,0.621h-40.378c-0.343,0-0.621-0.278-0.621-0.621l0,0
			c0-0.344,0.278-0.621,0.621-0.621h40.378C168.425,133.095,168.703,133.372,168.703,133.716L168.703,133.716z"/>
		<path fill="#E7E8E8" d="M168.703,138.063c0,0.344-0.278,0.621-0.621,0.621h-40.378c-0.343,0-0.621-0.277-0.621-0.621l0,0
			c0-0.343,0.278-0.621,0.621-0.621h40.378C168.425,137.442,168.703,137.721,168.703,138.063L168.703,138.063z"/>
		<rect x="119.042" y="143.034" fill="#BDBEBF" width="57.432" height="3.291"/>
		<rect x="60.968" y="168.503" fill="#262726" width="173.58" height="10.701"/>
		<g>
			<rect x="65.727" y="160.7" fill="#D2D3D3" width="2.844" height="7.803"/>
			<rect x="69.74" y="160.7" fill="#D2D3D3" width="2.845" height="7.803"/>
			<rect x="73.755" y="160.7" fill="#D2D3D3" width="2.844" height="7.803"/>
			<rect x="77.77" y="160.7" fill="#D2D3D3" width="2.844" height="7.803"/>
			<rect x="81.783" y="160.7" fill="#D2D3D3" width="2.844" height="7.803"/>
			<rect x="85.798" y="160.7" fill="#D2D3D3" width="2.844" height="7.803"/>
			<rect x="89.812" y="160.7" fill="#D2D3D3" width="2.845" height="7.803"/>
			<rect x="93.826" y="160.7" fill="#D2D3D3" width="2.844" height="7.803"/>
			<rect x="97.84" y="160.7" fill="#D2D3D3" width="2.845" height="7.803"/>
			<rect x="101.854" y="160.7" fill="#D2D3D3" width="2.844" height="7.803"/>
			<rect x="105.868" y="160.7" fill="#D2D3D3" width="2.845" height="7.803"/>
			<rect x="109.884" y="160.7" fill="#D2D3D3" width="2.844" height="7.803"/>
			<rect x="113.897" y="160.7" fill="#D2D3D3" width="2.844" height="7.803"/>
			<rect x="117.912" y="160.7" fill="#D2D3D3" width="2.844" height="7.803"/>
			<rect x="121.927" y="160.7" fill="#D2D3D3" width="2.844" height="7.803"/>
			<rect x="125.94" y="160.7" fill="#D2D3D3" width="2.845" height="7.803"/>
			<rect x="129.955" y="160.7" fill="#D2D3D3" width="2.844" height="7.803"/>
			<rect x="133.969" y="160.7" fill="#D2D3D3" width="2.845" height="7.803"/>
			<rect x="137.983" y="160.7" fill="#D2D3D3" width="2.844" height="7.803"/>
			<rect x="141.997" y="160.7" fill="#D2D3D3" width="2.845" height="7.803"/>
			<rect x="146.012" y="160.7" fill="#D2D3D3" width="2.844" height="7.803"/>
			<rect x="150.026" y="160.7" fill="#D2D3D3" width="2.844" height="7.803"/>
			<rect x="154.04" y="160.7" fill="#D2D3D3" width="2.844" height="7.803"/>
			<rect x="158.055" y="160.7" fill="#D2D3D3" width="2.844" height="7.803"/>
			<rect x="162.068" y="160.7" fill="#D2D3D3" width="2.845" height="7.803"/>
			<rect x="166.083" y="160.7" fill="#D2D3D3" width="2.844" height="7.803"/>
			<rect x="170.098" y="160.7" fill="#D2D3D3" width="2.844" height="7.803"/>
			<rect x="174.112" y="160.7" fill="#D2D3D3" width="2.844" height="7.803"/>
			<rect x="178.126" y="160.7" fill="#D2D3D3" width="2.844" height="7.803"/>
			<rect x="182.141" y="160.7" fill="#D2D3D3" width="2.844" height="7.803"/>
			<rect x="186.155" y="160.7" fill="#D2D3D3" width="2.844" height="7.803"/>
			<rect x="190.169" y="160.7" fill="#D2D3D3" width="2.844" height="7.803"/>
			<rect x="194.184" y="160.7" fill="#D2D3D3" width="2.844" height="7.803"/>
			<rect x="198.197" y="160.7" fill="#D2D3D3" width="2.845" height="7.803"/>
			<rect x="202.212" y="160.7" fill="#D2D3D3" width="2.844" height="7.803"/>
			<rect x="206.227" y="160.7" fill="#D2D3D3" width="2.844" height="7.803"/>
			<rect x="210.24" y="160.7" fill="#D2D3D3" width="2.844" height="7.803"/>
			<rect x="214.254" y="160.7" fill="#D2D3D3" width="2.845" height="7.803"/>
			<rect x="218.269" y="160.7" fill="#D2D3D3" width="2.844" height="7.803"/>
			<rect x="222.283" y="160.7" fill="#D2D3D3" width="2.844" height="7.803"/>
			<rect x="226.297" y="160.7" fill="#D2D3D3" width="2.844" height="7.803"/>
			<rect x="71.7" y="160.7" fill="#1C1B1A" width="2.845" height="5.806"/>
			<rect x="99.818" y="160.7" fill="#1C1B1A" width="2.845" height="5.806"/>
			<rect x="84.005" y="160.7" fill="#1C1B1A" width="2.845" height="5.806"/>
			<rect x="87.681" y="160.7" fill="#1C1B1A" width="2.845" height="5.806"/>
			<rect x="91.697" y="160.7" fill="#1C1B1A" width="2.845" height="5.806"/>
			<rect x="107.925" y="160.7" fill="#1C1B1A" width="2.844" height="5.806"/>
			<rect x="111.601" y="160.7" fill="#1C1B1A" width="2.844" height="5.806"/>
			<rect x="115.616" y="160.7" fill="#1C1B1A" width="2.845" height="5.806"/>
			<rect x="123.921" y="160.7" fill="#1C1B1A" width="2.844" height="5.806"/>
			<rect x="132.026" y="160.7" fill="#1C1B1A" width="2.845" height="5.806"/>
			<rect x="135.702" y="160.7" fill="#1C1B1A" width="2.844" height="5.806"/>
			<rect x="139.718" y="160.7" fill="#1C1B1A" width="2.845" height="5.806"/>
			<rect x="151.948" y="160.7" fill="#1C1B1A" width="2.844" height="5.806"/>
			<rect x="160.054" y="160.7" fill="#1C1B1A" width="2.845" height="5.806"/>
			<rect x="163.729" y="160.7" fill="#1C1B1A" width="2.845" height="5.806"/>
			<rect x="167.745" y="160.7" fill="#1C1B1A" width="2.845" height="5.806"/>
			<rect x="175.87" y="160.7" fill="#1C1B1A" width="2.845" height="5.806"/>
			<rect x="183.976" y="160.7" fill="#1C1B1A" width="2.845" height="5.806"/>
			<rect x="187.651" y="160.7" fill="#1C1B1A" width="2.845" height="5.806"/>
			<rect x="191.668" y="160.7" fill="#1C1B1A" width="2.845" height="5.806"/>
			<rect x="200.278" y="160.7" fill="#1C1B1A" width="2.844" height="5.806"/>
			<rect x="208.384" y="160.7" fill="#1C1B1A" width="2.845" height="5.806"/>
			<rect x="212.06" y="160.7" fill="#1C1B1A" width="2.845" height="5.806"/>
			<rect x="216.075" y="160.7" fill="#1C1B1A" width="2.845" height="5.806"/>
		</g>
		<polygon fill="#262726" points="159.372,226.647 133.176,226.647 133.176,179.204 135.291,179.204 135.291,224.532 
			157.257,224.532 157.257,179.204 159.372,179.204 		"/>
		<path fill="#262726" d="M158.668,226.026c0,2.401-1.513,4.348-3.379,4.348h-18.555c-1.866,0-3.379-1.946-3.379-4.348l0,0
			c0-2.402,1.513-4.349,3.379-4.349h18.555C157.155,221.678,158.668,223.624,158.668,226.026L158.668,226.026z"/>
		<polygon fill="#393A39" points="76.168,229.085 68.75,229.085 67.148,179.204 77.77,179.204 		"/>
		<polygon fill="#393A39" points="225.992,229.085 218.574,229.085 216.973,179.204 227.594,179.204 		"/>
	</g>
	<g>
		<ellipse fill="#393A39" cx="177.103" cy="212.067" rx="4.159" ry="3.438"/>
		<path fill="#393A39" d="M175.265,211.162c-0.086,0-0.173-0.018-0.256-0.056l-3.855-1.765l-2.171,1.69
			c-0.265,0.209-0.652,0.162-0.861-0.107c-0.209-0.268-0.16-0.653,0.107-0.861l2.465-1.92c0.18-0.142,0.423-0.169,0.633-0.074
			l4.194,1.92c0.309,0.142,0.443,0.506,0.303,0.814C175.72,211.029,175.497,211.162,175.265,211.162z"/>
		<path fill="#393A39" d="M169.479,214.539c-0.142,0-0.284-0.049-0.399-0.147c-0.258-0.221-0.288-0.609-0.067-0.866l1.592-1.857
			c0.117-0.137,0.287-0.215,0.467-0.215h4.194c0.339,0,0.614,0.275,0.614,0.614s-0.275,0.614-0.614,0.614h-3.912l-1.407,1.643
			C169.823,214.466,169.651,214.539,169.479,214.539z"/>
		<path fill="#393A39" d="M171.945,218.999c-0.03,0-0.061-0.002-0.091-0.007c-0.336-0.05-0.567-0.362-0.518-0.697l0.428-2.88
			c0.031-0.213,0.172-0.394,0.37-0.477l3.771-1.58c0.312-0.131,0.673,0.017,0.804,0.329s-0.017,0.673-0.329,0.804l-3.452,1.446
			l-0.377,2.537C172.507,218.78,172.244,218.999,171.945,218.999z"/>
		<path fill="#393A39" d="M179.32,211.162c-0.232,0-0.455-0.133-0.559-0.358c-0.141-0.309-0.006-0.673,0.303-0.814l4.194-1.92
			c0.21-0.095,0.453-0.067,0.633,0.074l2.465,1.92c0.268,0.208,0.316,0.594,0.107,0.861c-0.209,0.27-0.597,0.316-0.861,0.107
			l-2.171-1.69l-3.855,1.765C179.493,211.145,179.406,211.162,179.32,211.162z"/>
		<path fill="#393A39" d="M185.106,214.539c-0.173,0-0.345-0.073-0.467-0.215l-1.407-1.643h-3.912c-0.339,0-0.614-0.275-0.614-0.614
			s0.275-0.614,0.614-0.614h4.194c0.18,0,0.35,0.078,0.467,0.215l1.592,1.857c0.221,0.257,0.19,0.646-0.067,0.866
			C185.391,214.49,185.248,214.539,185.106,214.539z"/>
		<path fill="#393A39" d="M182.641,218.999c-0.299,0-0.562-0.219-0.606-0.523l-0.378-2.538l-3.451-1.446
			c-0.312-0.131-0.46-0.491-0.329-0.804s0.491-0.46,0.804-0.329l3.771,1.58c0.198,0.083,0.339,0.264,0.37,0.476l0.429,2.88
			c0.05,0.336-0.182,0.648-0.517,0.698C182.701,218.997,182.671,218.999,182.641,218.999z"/>
	</g>
</g>
</svg>
