<?xml version="1.0" encoding="utf-8"?>
<!-- Generator: Adobe Illustrator 17.0.0, SVG Export Plug-In . SVG Version: 6.00 Build 0)  -->
<!DOCTYPE svg PUBLIC "-//W3C//DTD SVG 1.1//EN" "http://www.w3.org/Graphics/SVG/1.1/DTD/svg11.dtd">
<svg version="1.1" id="Layer_1" xmlns="http://www.w3.org/2000/svg" xmlns:xlink="http://www.w3.org/1999/xlink" x="0px" y="0px"
	 width="512px" height="512px" viewBox="0 0 512 512" enable-background="new 0 0 512 512" xml:space="preserve">
<g>
	<path fill="#2D333B" d="M256,31C131.747,31,31,131.747,31,256s100.747,225,225,225s225-100.747,225-225S380.253,31,256,31z"/>
	<g>
		<g>
			<g>
				<path fill="#892052" d="M151.834,237.997c-15.447-11.711-44.137-44.639-30.703-62.19c12.019-15.697,75.457,29.457,87.029,41.15
					c11.719-17.389-11.454-34.955,13.805-46.457c27.21-13.435,40.591,23.467,57.967,37.124c32.989-5.649,48.152-46.534,73.92-50.031
					c13.588-1.842,30.782,46.681,17.115,65.998c-19.541,30.918-58.37,42.353-83.696,67.429
					c-27.277,27.003-50.618,42.392-89.271,18.934c-21.253-13.673-32.72-46.69-55.943-54.559"/>
			</g>
			<g>
				<g>
					<path fill="#BD3771" d="M156.393,230.912c1.381-16.794,15.81-59.37,32.63-63.16c15.53-3.8,24.42,27.26,29.535,37.624
						c8.963,16.848,21.805,32.419,29.47,50.551c7.674,15.547,10.175,32.363,13.973,49.184c2.517,12.935,10.168,33.652,1.063,45.239
						c-19.525,27.04-70.863-43.007-81.136-57.273c-11.539-18.153-29.507-42.801-31.982-64.782"/>
				</g>
				<g>
					<path fill="#BD3771" d="M249.344,250.764c1.788-37.178,22.244-54.165,31.343-64.46c16.911-21.881,29.814-17.942,45.215,4.104
						c11.558,14.277,24.396,31.142,21.716,50.511c-2.689,20.667-10.562,43.891-19.699,61.935
						c-13.033,21.907-33.79,37.313-55.817,48.832c-5.137-6.49-5.092-15.534-7.635-23.3c-5.135-7.782-7.673-16.839-11.504-25.907
						C245.301,284.349,244.074,271.416,249.344,250.764"/>
				</g>
				<g>
					<path fill="#D45285" d="M249.625,374.262c-25.596,10.388-45.144,13.296-69.108-1.851
						c-40.443-25.75-40.248-64.815-56.578-103.966c-2.962-9.033-22.358-36.173-17.803-45.169
						c6.073-11.985,31.545,1.662,40.547,4.715c40.484,16.731,79.449,36.463,100.284,77.136c11.909,22.601,16.293,46.664,4.168,67.64
						"/>
				</g>
				<g>
					<path fill="#D45285" d="M252.674,365.26c1.451,10.527,14.953,15.103,23.958,16.65c24.026,3.125,49.652-13.274,61.776-32.745
						c10.614-19.482,12.239-43.516,22.854-62.992c10.63-22.486,27.241-38.934,46.84-52.358
						c-23.913-24.161-81.158,4.096-102.285,22.023c-30.17,23.889-33.361,59.934-45.552,94.433
						c-3.054,9.001-9.098,16.485-13.651,25.476"/>
				</g>
			</g>
		</g>
		<g>
			<path fill="#278268" d="M214.941,385.372c14.17,14.17,56.678,18.218,66.798-4.048c-4.046-4.05-12.143-18.218-18.216-18.218
				s-18.218,10.121-24.291,12.145c-10.121,4.048-22.266,6.073-30.364,10.121"/>
		</g>
	</g>
	<g>
		<path fill="#F9D366" d="M216.819,390.178l2.759-0.559c3.641-0.738,3.641-5.943,0-6.681l-2.759-0.559
			c-6.951-1.409-12.383-6.842-13.793-13.793l-0.559-2.759c-0.738-3.641-5.943-3.641-6.681,0l-0.559,2.759
			c-1.409,6.951-6.842,12.383-13.793,13.793l-2.759,0.559c-3.641,0.738-3.641,5.943,0,6.681l2.759,0.559
			c6.951,1.409,12.383,6.842,13.793,13.793l0.559,2.759c0.738,3.641,5.943,3.641,6.681,0l0.559-2.759
			C204.436,397.019,209.868,391.587,216.819,390.178z"/>
		<g>
			<path fill="#DD8834" d="M331.922,359.698c-1.711,0-3.098-1.387-3.098-3.098v-8.387c0-1.711,1.387-3.098,3.098-3.098
				c1.711,0,3.098,1.387,3.098,3.098v8.387C335.019,358.311,333.632,359.698,331.922,359.698z"/>
			<path fill="#DD8834" d="M331.922,382.279c-1.711,0-3.098-1.387-3.098-3.098v-8.387c0-1.711,1.387-3.098,3.098-3.098
				c1.711,0,3.098,1.387,3.098,3.098v8.387C335.019,380.892,333.632,382.279,331.922,382.279z"/>
			<path fill="#DD8834" d="M347.406,366.795h-8.387c-1.711,0-3.098-1.387-3.098-3.098c0-1.711,1.387-3.098,3.098-3.098h8.387
				c1.711,0,3.098,1.387,3.098,3.098C350.503,365.408,349.116,366.795,347.406,366.795z"/>
			<path fill="#DD8834" d="M324.825,366.795h-8.387c-1.711,0-3.098-1.387-3.098-3.098c0-1.711,1.387-3.098,3.098-3.098h8.387
				c1.711,0,3.098,1.387,3.098,3.098C327.922,365.408,326.536,366.795,324.825,366.795z"/>
			<path fill="#DD8834" d="M115.697,213.869c-1.711,0-3.098-1.387-3.098-3.098v-8.388c0-1.711,1.387-3.098,3.098-3.098
				c1.711,0,3.098,1.387,3.098,3.098v8.388C118.794,212.483,117.407,213.869,115.697,213.869z"/>
			<path fill="#DD8834" d="M115.697,236.45c-1.711,0-3.098-1.387-3.098-3.098v-8.388c0-1.711,1.387-3.098,3.098-3.098
				c1.711,0,3.098,1.387,3.098,3.098v8.388C118.794,235.064,117.407,236.45,115.697,236.45z"/>
			<path fill="#DD8834" d="M131.181,220.966h-8.388c-1.711,0-3.098-1.387-3.098-3.098c0-1.711,1.387-3.098,3.098-3.098h8.388
				c1.711,0,3.098,1.387,3.098,3.098C134.279,219.579,132.892,220.966,131.181,220.966z"/>
			<path fill="#DD8834" d="M108.6,220.966h-8.388c-1.711,0-3.098-1.387-3.098-3.098c0-1.711,1.387-3.098,3.098-3.098h8.388
				c1.711,0,3.098,1.387,3.098,3.098C111.698,219.579,110.311,220.966,108.6,220.966z"/>
			<g>
				<path fill="#DD8834" d="M286.953,131.051c-1.945,0-3.523-1.577-3.523-3.523v-9.538c0-1.945,1.577-3.523,3.523-3.523
					c1.945,0,3.523,1.577,3.523,3.523v9.538C290.475,129.474,288.899,131.051,286.953,131.051z"/>
				<path fill="#DD8834" d="M286.953,156.729c-1.945,0-3.523-1.577-3.523-3.523v-9.538c0-1.945,1.577-3.523,3.523-3.523
					c1.945,0,3.523,1.577,3.523,3.523v9.538C290.475,155.152,288.899,156.729,286.953,156.729z"/>
				<path fill="#DD8834" d="M304.561,139.121h-9.538c-1.945,0-3.523-1.577-3.523-3.523c0-1.945,1.577-3.523,3.523-3.523h9.538
					c1.945,0,3.523,1.577,3.523,3.523C308.084,137.544,306.507,139.121,304.561,139.121z"/>
				<path fill="#DD8834" d="M278.883,139.121h-9.538c-1.945,0-3.523-1.577-3.523-3.523c0-1.945,1.577-3.523,3.523-3.523h9.538
					c1.945,0,3.522,1.577,3.522,3.523C282.405,137.544,280.828,139.121,278.883,139.121z"/>
			</g>
		</g>
		<g>
			<path fill="#F9D366" d="M181.152,174.672l7.362-1.493c3.476-0.705,3.476-5.672,0-6.377l-7.362-1.493
				c-7.255-1.471-12.925-7.141-14.396-14.396l-1.493-7.362c-0.705-3.476-5.672-3.476-6.377,0l-1.493,7.362
				c-1.471,7.255-7.141,12.925-14.396,14.396l-7.362,1.493c-3.476,0.705-3.476,5.672,0,6.377l7.362,1.493
				c7.255,1.471,12.925,7.141,14.396,14.396l1.493,7.362c0.705,3.476,5.672,3.476,6.377,0l1.493-7.362
				C168.226,181.813,173.896,176.143,181.152,174.672z"/>
			<path fill="#F9D366" d="M355.528,199.338l5.599-1.135c2.644-0.536,2.644-4.314,0-4.85l-5.599-1.135
				c-5.518-1.119-9.83-5.431-10.949-10.949l-1.135-5.599c-0.536-2.644-4.314-2.644-4.85,0l-1.135,5.599
				c-1.119,5.518-5.431,9.83-10.949,10.949l-5.599,1.135c-2.644,0.536-2.644,4.314,0,4.85l5.599,1.135
				c5.518,1.119,9.83,5.431,10.949,10.949l1.135,5.599c0.536,2.644,4.314,2.644,4.85,0l1.135-5.599
				C345.698,204.769,350.01,200.456,355.528,199.338z"/>
		</g>
	</g>
</g>
</svg>
