<?xml version="1.0" encoding="utf-8"?>
<!-- Generator: Adobe Illustrator 17.0.0, SVG Export Plug-In . SVG Version: 6.00 Build 0)  -->
<!DOCTYPE svg PUBLIC "-//W3C//DTD SVG 1.1//EN" "http://www.w3.org/Graphics/SVG/1.1/DTD/svg11.dtd">
<svg version="1.1" id="Layer_1" xmlns="http://www.w3.org/2000/svg" xmlns:xlink="http://www.w3.org/1999/xlink" x="0px" y="0px"
	 width="512px" height="512px" viewBox="0 0 512 512" enable-background="new 0 0 512 512" xml:space="preserve">
<g>
	<g>
		<circle fill="#D71F2B" cx="256" cy="256" r="225"/>
	</g>
	<g>
		<path fill="#4E4E4E" d="M350.076,396.044c0,0-27.535-80.025-27.535-168.759H194.403c0,88.733-27.535,168.759-27.535,168.759h0.126
			c-0.083,0.304-0.126,0.61-0.126,0.918c0,9.634,41.012,17.444,91.604,17.444s91.604-7.81,91.604-17.444
			c0-0.308-0.043-0.614-0.126-0.918L350.076,396.044L350.076,396.044z"/>
		<path fill="#404040" d="M350.076,396.044c0,0-0.008-0.021-0.014-0.04c-0.005-0.013-0.012-0.037-0.019-0.056
			c-0.006-0.019-0.015-0.044-0.023-0.069c-0.014-0.044-0.032-0.093-0.052-0.155c-0.001-0.003-0.002-0.008-0.003-0.011
			c-0.315-0.933-1.275-3.83-2.656-8.389c-6.982-23.038-24.767-88.72-24.767-160.04h-31.735c0,50.837,9.038,98.815,16.758,130.524
			c5.172,21.246-10.526,41.859-32.385,42.447c-5.026,0.135-10.58,0.213-16.706,0.213c-42.845,0-78.816-5.602-88.828-13.169
			c-1.709,5.641-2.775,8.744-2.775,8.744h0.126c-0.083,0.304-0.126,0.61-0.126,0.918c0,8.604,32.708,15.752,75.736,17.183l0,0
			c0.001,0,0.002,0,0.003,0c1.282,0.042,2.573,0.08,3.873,0.113c0.008,0,0.016,0.001,0.024,0.001
			c1.217,0.03,2.443,0.055,3.675,0.076c0.163,0.003,0.326,0.006,0.489,0.008c1.18,0.019,2.367,0.034,3.559,0.044
			c0.185,0.002,0.37,0.003,0.555,0.004c1.224,0.009,2.453,0.015,3.69,0.015c50.592,0,91.604-7.81,91.604-17.444
			c0-0.308-0.044-0.614-0.126-0.918h0.127V396.044z"/>
		<path fill="#F04C51" d="M258.472,287.894c24.783,0,47.889-1.721,67.41-4.688c-2.038-17.74-3.341-36.623-3.341-55.92H194.403
			c0,19.297-1.303,38.18-3.341,55.92C210.583,286.174,233.689,287.894,258.472,287.894z"/>
		<path fill="#DD3954" d="M325.883,283.206c-0.003-0.024-0.005-0.049-0.008-0.073c-0.758-6.604-1.414-13.366-1.938-20.249
			c-0.006-0.074-0.011-0.147-0.016-0.221c-0.166-2.191-0.318-4.394-0.457-6.609c-0.011-0.174-0.021-0.347-0.032-0.521
			c-0.131-2.129-0.248-4.267-0.352-6.415c-0.01-0.221-0.021-0.442-0.031-0.664c-0.1-2.128-0.185-4.264-0.256-6.408
			c-0.007-0.215-0.014-0.431-0.021-0.646c-0.07-2.193-0.124-4.393-0.161-6.6c-0.003-0.151-0.006-0.302-0.009-0.453
			c-0.038-2.347-0.059-4.701-0.059-7.062h-31.735c0,20.544,1.477,40.621,3.745,59.347
			C305.716,285.832,316.238,284.672,325.883,283.206z"/>
		<ellipse fill="#434343" cx="258.472" cy="231.801" rx="112.114" ry="27.026"/>
		<path fill="#353635" d="M258.472,241.668c-24.191,0-47.802-1.972-66.486-5.553c-4.141-0.794-7.788-1.618-10.983-2.441
			c-1.939-0.499-1.939-3.243,0-3.743c3.195-0.823,6.842-1.647,10.983-2.441c18.683-3.581,42.294-5.553,66.486-5.553
			c24.191,0,47.802,1.972,66.486,5.553c4.141,0.794,7.788,1.618,10.983,2.441c1.939,0.499,1.939,3.243,0,3.743
			c-3.195,0.823-6.841,1.647-10.983,2.441C306.275,239.697,282.663,241.668,258.472,241.668z"/>
	</g>
	<g>
		<g>
			<g>
				<path fill="#BFD44B" d="M208.561,188.791c0.511-0.47,1.461,0.136,1.023,0.774c-0.503,0.733-0.988,1.459-1.463,2.182
					c-0.416,0.613-0.624,1.051-1.114,1.766c-1.545,2.557-2.816,5.189-3.557,8.271c-0.941,3.916-0.418,8.37-2.629,11.905
					c-3.916,6.264-14.712,8.325-20.067,2.885c-5.858-5.945-0.665-15.12,4.385-19.621c5.819-5.191,13.685-7.737,21.433-6.752
					c0.176,0.024,0.33,0.074,0.473,0.134C207.528,189.792,208.033,189.275,208.561,188.791z"/>
				<path fill="#BFD44B" d="M229.739,190.998c0.332,3.504-0.665,7.293-1.181,10.754c-0.425,2.854-0.791,5.941-2.885,8.125
					c-3.455,3.602-10.624,4.255-14.888,1.875c-5.212-2.907-4.684-9.255-1.045-13.23c4.484-4.901,11.404-7.3,17.859-7.77
					c0.488-0.035,0.819,0.16,0.999,0.453c0.065-0.152,0.128-0.306,0.197-0.459C229.026,190.243,229.695,190.549,229.739,190.998z"/>
				<path fill="#BFD44B" d="M216.364,176.758c0,0.015-0.004,0.026-0.004,0.041c0.006,0.006,0.013,0.011,0.021,0.019
					c0.522,0.477-0.002,1.45-0.693,1.216c-0.202-0.067-0.403-0.145-0.605-0.219c-0.137-0.026-0.271-0.076-0.395-0.148
					c-4.74-1.886-9.528-5.85-11.959-10.219c-2.133-3.828-3.021-9.586,0.756-12.744c3.797-3.177,8.639-0.325,10.408,3.587
					c1.145,2.532,1.422,5.475,1.788,8.199C216.145,169.931,216.371,173.292,216.364,176.758z"/>
				<path fill="#BFD44B" d="M192.476,167.841c0,0.052-0.017,0.091-0.024,0.139c0.796,1.01,1.504,2.074,2.055,3.219
					c0.156,0.327-0.214,0.629-0.496,0.39c-2.715-2.299-5.169-5-7.731-7.479c-2.2-2.128-4.371-4.25-6.131-6.768
					c-3.099-4.434-5.663-11.712-0.878-15.984c4.519-4.034,10.065-0.319,12.129,4.335c1.471,3.31,1.485,6.754,1.309,10.297
					C192.508,159.965,192.48,163.869,192.476,167.841z"/>
				<path fill="#BFD44B" d="M186.844,175.475c0.681,0.236,1.357,0.494,2.011,0.793c0.34,0.158,0.147,0.642-0.175,0.659
					c-6.892,0.321-28.377-4.874-24.075-15.733c1.708-4.313,7.172-4.331,10.432-1.886c5.351,4.014,5.269,11.795,11.409,15.089
					C186.89,174.636,186.977,175.091,186.844,175.475z"/>
				<path fill="#BFD44B" d="M183.581,180.748c0.214,0.058,0.384,0.15,0.52,0.269c1.296-1.04,2.852-1.786,4.35-1.244
					c0.041,0.013,0.05,0.056,0.024,0.091c-0.85,1.058-2.1,1.602-3.108,2.521c-1.227,1.12-2.204,2.48-3.062,3.895
					c-1.296,2.139-2.297,4.517-3.897,6.461c-2.594,3.149-7.052,3.498-9.675,0.108c-2.393-3.095-1.344-7.612,1.398-10.113
					C173.842,179.356,179.033,179.556,183.581,180.748z"/>
			</g>
			<path fill="#8E9F3A" d="M269.226,181.283c-2.941,3.247-7.735,4.181-11.847,5.282c-4.461,1.192-9.014,1.994-13.6,2.506
				c-3.229,0.36-6.472,0.546-9.716,0.568c-6.277,4.023-12.025,8.277-17.077,13.912c-0.206,0.232-0.6-0.063-0.433-0.325
				c3.214-5.115,7.425-10.002,12.384-13.7c-4.116-0.197-8.218-0.652-12.274-1.391c-0.81-0.147-1.617-0.312-2.419-0.481
				c-1.586,1.207-3.546,1.979-5.271,2.941c-2.428,1.357-4.809,2.811-7.103,4.378c-4.638,3.164-8.981,6.829-13.201,10.522
				c-0.546,0.475-1.207-0.214-0.785-0.769c3.47-4.58,7.566-8.396,12.202-11.801c2.243-1.647,4.566-3.184,6.99-4.558
				c0.973-0.551,1.987-1.155,3.032-1.686c-5.722-1.487-11.296-3.528-16.624-6.103c-0.143-0.071-0.282-0.145-0.425-0.214
				c-1.353,0.095-2.644-0.219-4.036,0.052c-1.344,0.262-2.679,0.663-3.958,1.158c-3.439,1.339-6.591,3.437-10.126,4.514
				c-0.225,0.067-0.325-0.238-0.154-0.362c3.576-2.562,8.004-4.552,11.903-6.611c0.637-0.338,1.385-0.672,2.174-0.923
				c-2.198-1.199-4.352-2.477-6.426-3.882c-2.93-1.983-6.647-4.103-8.652-7.09c-0.175-0.262,0.117-0.687,0.431-0.566
				c3.34,1.29,6.223,3.929,9.32,5.728c3.401,1.976,6.901,3.819,10.512,5.382c1.335,0.576,2.688,1.112,4.049,1.63
				c-0.471-0.676-0.912-1.346-1.329-1.933c-2.089-2.934-3.923-6.053-5.496-9.292c-2.848-5.869-5.271-12.571-5.414-19.157
				c-0.013-0.44,0.629-0.51,0.752-0.1c1.916,6.415,3.442,12.72,6.45,18.765c1.389,2.785,2.973,5.473,4.742,8.03
				c1.101,1.591,2.842,3.231,3.981,5.005c4.877,1.626,9.885,2.874,14.944,3.702c0.872,0.143,1.751,0.266,2.629,0.381
				c-2.204-2.655-3.966-5.973-5.356-8.661c-2.241-4.328-4.712-9.734-4.569-14.697c0.013-0.49,0.763-0.783,0.999-0.275
				c2.094,4.515,3.102,9.402,5.416,13.877c1.116,2.156,2.365,4.237,3.756,6.225c0.937,1.339,2.059,2.583,3.041,3.906
				c6.695,0.637,13.475,0.535,20.135-0.29c4.523-0.563,9.008-1.496,13.407-2.692c3.993-1.084,7.993-3.221,12.168-2.995
				C269.415,179.252,269.952,180.481,269.226,181.283z"/>
		</g>
		<g>
			<g>
				<path fill="#BFD44B" d="M251.642,239.039c-0.186-0.668,0.787-1.238,1.155-0.557c0.423,0.783,0.847,1.545,1.274,2.299
					c0.355,0.65,0.65,1.034,1.062,1.797c1.569,2.542,3.331,4.875,5.733,6.942c3.054,2.625,7.256,4.194,9.391,7.776
					c3.786,6.344,0.687,16.89-6.597,19.17c-7.965,2.495-13.756-6.314-15.453-12.863c-1.961-7.547-0.633-15.707,3.78-22.15
					c0.102-0.147,0.215-0.262,0.336-0.36C252.06,240.415,251.831,239.729,251.642,239.039z"/>
				<path fill="#BFD44B" d="M263.276,221.206c3.271,1.303,6.186,3.921,9.029,5.962c2.345,1.68,4.926,3.416,5.912,6.277
					c1.626,4.718-1.068,11.394-5.132,14.101c-4.966,3.308-10.373-0.06-12.248-5.113c-2.313-6.227-1.287-13.477,1.244-19.435
					c0.191-0.451,0.516-0.656,0.86-0.681c-0.106-0.128-0.214-0.254-0.317-0.384C262.281,221.496,262.856,221.041,263.276,221.206z"
					/>
				<path fill="#BFD44B" d="M244.501,226.601c0.011,0.007,0.02,0.015,0.033,0.022c0.007-0.002,0.017-0.006,0.026-0.009
					c0.663-0.247,1.288,0.663,0.765,1.172c-0.152,0.148-0.312,0.291-0.471,0.438c-0.086,0.11-0.191,0.206-0.312,0.284
					c-3.843,3.355-9.556,5.806-14.552,5.973c-4.38,0.148-9.907-1.691-10.993-6.493c-1.09-4.829,3.658-7.833,7.945-7.622
					c2.777,0.137,5.522,1.235,8.112,2.154C238.326,223.679,241.419,225.012,244.501,226.601z"/>
				<path fill="#BFD44B" d="M225.658,243.781c0.046,0.024,0.074,0.056,0.113,0.085c1.263-0.247,2.531-0.392,3.802-0.358
					c0.362,0.009,0.462,0.477,0.121,0.618c-3.284,1.367-6.808,2.315-10.184,3.463c-2.898,0.986-5.776,1.948-8.819,2.364
					c-5.36,0.733-13.006-0.31-14.623-6.517c-1.524-5.863,4.313-9.101,9.396-8.812c3.617,0.204,6.688,1.764,9.758,3.537
					C218.666,240.155,222.127,241.963,225.658,243.781z"/>
				<path fill="#BFD44B" d="M229.878,252.279c0.52-0.499,1.058-0.982,1.623-1.428c0.297-0.228,0.639,0.163,0.507,0.457
					c-2.861,6.279-17.295,23.019-24.992,14.233c-3.056-3.489-0.577-8.359,3.088-10.141c6.014-2.928,12.9,0.698,18.633-3.26
					C229.153,251.853,229.596,251.983,229.878,252.279z"/>
				<path fill="#BFD44B" d="M233.079,257.589c0.148-0.163,0.31-0.273,0.475-0.34c-0.33-1.628-0.286-3.353,0.88-4.437
					c0.032-0.032,0.074-0.02,0.093,0.019c0.553,1.24,0.466,2.601,0.824,3.917c0.436,1.602,1.199,3.093,2.066,4.502
					c1.313,2.13,2.971,4.107,3.97,6.418c1.617,3.745-0.11,7.87-4.322,8.656c-3.847,0.715-7.388-2.282-8.359-5.861
					C227.392,265.617,229.942,261.09,233.079,257.589z"/>
			</g>
			<path fill="#8E9F3A" d="M272.667,181.639c1.545,4.1,0.187,8.791-0.713,12.952c-0.975,4.514-2.341,8.93-3.979,13.244
				c-1.155,3.037-2.471,6.008-3.932,8.904c0.713,7.421,1.873,14.478,4.578,21.544c0.113,0.29-0.33,0.505-0.488,0.236
				c-3.082-5.193-5.507-11.171-6.532-17.272c-2.053,3.572-4.331,7.012-6.842,10.284c-0.501,0.654-1.016,1.298-1.534,1.933
				c0.351,1.963,0.143,4.059,0.21,6.032c0.098,2.781,0.305,5.563,0.652,8.32c0.696,5.572,1.972,11.108,3.331,16.548
				c0.175,0.704-0.741,0.976-1.041,0.347c-2.49-5.178-4.014-10.564-4.927-16.244c-0.44-2.748-0.746-5.516-0.861-8.299
				c-0.046-1.118-0.121-2.295-0.117-3.468c-3.934,4.411-8.295,8.438-13.021,12.003c-0.126,0.095-0.256,0.186-0.384,0.28
				c-0.533,1.248-1.402,2.252-1.795,3.615c-0.382,1.316-0.635,2.687-0.778,4.051c-0.381,3.669,0.048,7.432-0.609,11.069
				c-0.043,0.23-0.358,0.18-0.392-0.028c-0.648-4.352-0.395-9.2-0.448-13.609c-0.009-0.72,0.035-1.539,0.173-2.356
				c-2.072,1.409-4.192,2.74-6.387,3.943c-3.103,1.703-6.688,4.04-10.26,4.46c-0.314,0.035-0.559-0.418-0.308-0.642
				c2.673-2.382,6.339-3.741,9.354-5.676c3.308-2.124,6.547-4.395,9.588-6.894c1.121-0.925,2.217-1.884,3.299-2.857
				c-0.817,0.11-1.613,0.197-2.326,0.299c-3.563,0.52-7.176,0.726-10.776,0.646c-6.522-0.147-13.59-1.051-19.517-3.932
				c-0.395-0.189-0.165-0.793,0.256-0.715c6.582,1.225,12.889,2.748,19.639,2.831c3.112,0.037,6.225-0.145,9.309-0.552
				c1.918-0.252,4.172-1.053,6.272-1.255c3.672-3.596,7.07-7.482,10.117-11.604c0.526-0.711,1.034-1.437,1.539-2.165
				c-3.368,0.748-7.124,0.8-10.152,0.81c-4.874,0.017-10.813-0.252-15.161-2.646c-0.431-0.236-0.349-1.038,0.212-1.016
				c4.974,0.199,9.781,1.534,14.818,1.519c2.427-0.007,4.85-0.169,7.254-0.498c1.619-0.223,3.238-0.654,4.864-0.923
				c3.624-5.664,6.63-11.743,8.938-18.045c1.565-4.279,2.781-8.698,3.728-13.156c0.858-4.047,0.783-8.581,2.893-12.193
				C270.945,180.544,272.284,180.627,272.667,181.639z"/>
		</g>
		<g>
			<g>
				<path fill="#042C2B" d="M145.661,198.659c-0.394,0.375-0.641,0.895-0.602,1.582c0.642,8.147,5.603,14.61,12.128,18.938
					c-3.097-0.026-6.181-0.117-9.268-0.206c-0.206-0.158-0.431-0.31-0.728-0.41c-4.599-1.465-8.203-4.718-13.019-5.644
					c-5.024-0.964-10.72,0.923-14.812,3.724c-1.032,0.691-1.043,1.797-0.542,2.642c0.05,0.446,0.23,0.876,0.626,1.255
					c6.862,6.333,18.108,8.336,26.076,2.954c0.215-0.132,0.36-0.299,0.47-0.487c5.182,0.186,10.392,0.269,15.633,0.29
					c-4.02,2.425-8.423,3.854-11.858,7.354c-3.602,3.669-5.184,9.183-5.644,14.146c-0.071,0.871,0.334,1.507,0.891,1.922
					c0.347,0.488,0.897,0.813,1.712,0.728c13.03-1.721,16.437-13.351,21.255-23.804c0.061-0.139,0.052-0.251,0.095-0.383
					c4.339-0.069,8.648-0.21,12.995-0.425c-5.02,5.165-6.196,13.18-5.836,20.614c-0.024,0.095,0.013,0.199,0.021,0.314
					c0.004,0.085-0.002,0.147,0,0.234c0.009,0.022,0.018,0.048,0.018,0.048c0.007,0.115,0.037,0.191,0.063,0.269
					c0.253,1.105,1.188,1.613,2.113,1.517c0.234,0.002,0.444-0.076,0.676-0.158c0.022-0.007,0.048-0.017,0.076-0.026
					c0.095-0.063,0.187-0.037,0.282-0.1c8.357-5.109,15.007-13.279,14.014-23.457c3.143-0.251,6.255-0.576,9.356-0.928
					c-4.653,5.212-4.137,13.403-1.623,20.681c0.186,0.518,0.505,0.839,0.873,1.054c0.071,1.344,1.678,2.661,3.243,1.749
					c9.268-5.403,12.144-15.247,9.614-25.109c4.164-0.646,8.305-1.426,12.419-2.287c-4.809,6.493-6.454,14.996-1.669,22.36
					c0.054,0.065,0.124,0.1,0.18,0.169c0.123,1.235,1.177,2.313,2.575,1.667c9.816-4.673,11.615-16.983,8.888-26.481
					c4.879-1.248,9.744-2.612,14.511-4.17c-0.967,2.267-1.801,4.573-2.362,6.987c-1.203,4.94,0.087,11.225,2.588,15.538
					c0.017,0.054,0.052,0.069,0.074,0.121c0.208,1.322,1.708,2.501,3.165,1.456c9.322-6.56,12.532-17.833,7.402-28.041
					c4.408-1.753,8.741-3.619,13.002-5.698c-2.683,7.881-1.445,18.264,2.098,24.183c0.089,0.169,0.251,0.288,0.381,0.416
					c0.442,1.062,1.78,1.866,3.067,1.084c9.777-5.852,7.733-21.992,4.835-30.993c-0.011-0.026-0.044-0.043-0.065-0.095
					c2.878-1.639,5.696-3.346,8.459-5.148c2.211-1.459-0.132-4.84-2.345-3.379c-2.169,1.415-4.376,2.729-6.582,4.038
					c-2.96-9.411-17.246-11.87-25.753-11.561c-1.844,0.045-2.209,2.037-1.409,3.205c-0.024,0.418,0.033,0.83,0.329,1.255
					c2.629,3.858,5.28,6.955,9.437,9.222c2.634,1.441,5.457,2.326,8.37,2.83c-4.853,2.462-9.857,4.656-14.896,6.66
					c0.004-10.067-12.053-14.658-21.099-14.653c-0.986,0.004-1.563,0.587-1.738,1.316c-0.338,0.356-0.52,0.828-0.412,1.459
					c0.538,4.025,2.594,7.248,5.672,9.84c1.545,1.309,3.431,2.759,5.227,3.717c1.238,0.693,2.562,1.062,3.914,1.422
					c-5.228,1.81-10.538,3.39-15.952,4.773c0.089-4.395-1.983-7.989-5.041-11.493c-4.012-4.558-7.729-5.678-13.099-7.913
					c-0.611-0.249-1.17-0.195-1.652,0.006c-0.732,0.232-1.302,0.845-1.253,1.786c-0.017,0.039-0.009,0.063-0.009,0.063
					c0.02,0.05-0.022,0.097-0.007,0.149c0.011,0.111,0.037,0.249,0.046,0.362c0.028,0.078,0.021,0.137,0.05,0.215
					c0.535,3.793,0.949,8.269,2.727,11.621c1.745,3.335,5.122,5.791,8.737,7.438c-4.543,0.954-9.092,1.825-13.669,2.529
					c-0.351-10.581-7.802-18.971-17.662-22.543c-0.271-0.108-0.548-0.154-0.86-0.13c-0.232-0.007-0.447,0.043-0.657,0.115
					c-0.05,0.019-0.102,0.039-0.18,0.067c-0.076,0.028-0.119,0.072-0.189,0.126c-0.436,0.243-0.804,0.607-0.962,1.129
					c-0.108,0.269-0.156,0.549-0.147,0.811c-0.067,5.432-0.121,11.298,3.877,15.484c2.237,2.343,4.831,4.558,7.69,6.21
					c-3.957,0.487-7.909,0.906-11.896,1.227c-0.416-4.909-0.585-8.955-3.756-13.288c-2.612-3.544-6.117-6.92-10.148-8.767
					c-0.291-0.241-0.685-0.364-1.079-0.399c-0.954-0.152-1.782,0.379-2.184,1.133c-0.059,0.078-0.072,0.199-0.122,0.305
					c-0.074,0.199-0.113,0.418-0.123,0.626l-0.019,0.035c-0.108,7.601,3.052,16.101,9.149,20.963
					c-4.992,0.269-9.994,0.429-14.972,0.522c-0.308-10.713-10.729-20.425-20.956-21.921
					C146.709,197.032,145.929,197.777,145.661,198.659z"/>
			</g>
		</g>
		<g>
			<path fill="#4B4B38" d="M206.463,174.939c10.056-3.338,21.303-4.402,31.834-2.744c-3.192-2.462-6.201-5.201-8.968-8.191
				c-1.333-1.446-2.599-2.95-3.808-4.513c-5.07-2.141-10.065-4.343-15.388-5.925c-3.444-1.021-6.929-1.899-10.46-2.597
				c-3.054-0.609-6.344-0.761-9.211-2.035c-0.657-0.29-0.574-1.38,0.193-1.521c3.338-0.624,6.762,0.23,10.005,0.841
				c3.34,0.631,6.656,1.413,9.922,2.35c3.788,1.084,7.644,2.311,11.366,3.814c-3.528-5.514-6.372-11.558-8.433-17.842
				c-0.522-1.619-0.999-3.253-1.426-4.905c-6.062-2.15-11.775-5.861-17.634-8.47c-0.42-0.186-0.279-1.008,0.223-0.889
				c5.42,1.235,11.372,2.544,16.442,5.195c-0.425-2.137-0.771-4.294-1.003-6.485c-0.523-4.774-1.038-10.219,0.646-14.888
				c0.121-0.325,0.635-0.382,0.733-0.033c1.353,4.538,1.3,9.56,2.12,14.259c0.553,3.143,1.292,6.255,2.18,9.309
				c1.437-3.06,3.394-6.021,5.128-8.617c3.038-4.558,6.418-8.353,10.446-11.94c0.505-0.447,1.244,0.275,0.802,0.819
				c-3.1,3.864-6.06,8.056-8.617,12.326c-2.399,3.997-3.866,8.507-6.118,12.525c2.284,6.298,5.353,12.204,9.088,17.595
				c0.459-2.973,1.392-5.99,2.217-8.481c1.569-4.781,4.062-10.776,8.026-13.932c0.587-0.466,1.333,0.124,1.088,0.834
				c-1.602,4.701-4.382,8.843-5.813,13.689c-0.752,2.557-1.279,5.159-1.58,7.802c-0.187,1.647-0.152,3.258-0.368,4.857
				c0.78,0.951,1.578,1.883,2.404,2.794c7.306,8.073,16.496,14.151,26.557,17.894c10.206,3.795,20.798,4.374,31.585,5.273
				c1.376,0.117,1.246,2.064,0.011,2.426c-11.071,3.216-23.11,1.038-33.49-2.841c-3.537-1.322-6.96-2.924-10.241-4.779
				c-6.142-1.385-12.142-2.662-18.512-3.015c-7.144-0.399-14.534,0.083-21.684,1.049
				C206.182,176.019,205.881,175.128,206.463,174.939z"/>
			<g>
				<path fill="#A81D35" d="M211.49,177.009c-2.466,6.342-11.68,2.772-9.209-3.581C204.755,167.092,213.961,170.657,211.49,177.009
					L211.49,177.009z"/>
			</g>
			<g>
				<path fill="#A81D35" d="M241.23,131.267c-0.423,1.086-1.311,2.061-2.336,2.553c-0.969,0.464-2.319,0.583-3.29,0.152
					c-1.003-0.451-1.929-1.226-2.324-2.336c-0.386-1.112-0.44-2.308,0.009-3.459c0.423-1.092,1.309-2.063,2.334-2.557
					c0.969-0.468,2.321-0.579,3.29-0.152c1.004,0.449,1.931,1.229,2.326,2.339C241.625,128.92,241.679,130.114,241.23,131.267
					L241.23,131.267z"/>
			</g>
			<g>
				<path fill="#A81D35" d="M235.274,110.036c-0.356,0.899-1.084,1.708-1.937,2.113c-0.806,0.388-1.918,0.484-2.724,0.124
					c-0.832-0.373-1.6-1.012-1.922-1.938c-0.327-0.917-0.371-1.903,0.007-2.857c0.347-0.904,1.082-1.708,1.927-2.115
					c0.806-0.39,1.918-0.483,2.727-0.128c0.836,0.371,1.599,1.016,1.923,1.935C235.599,108.089,235.643,109.076,235.274,110.036
					L235.274,110.036z"/>
			</g>
			<g>
				<path fill="#A81D35" d="M215.738,105.926c-0.55,1.426-1.721,2.705-3.056,3.349c-0.681,0.36-1.392,0.527-2.128,0.499
					c-0.752,0.11-1.483,0.007-2.195-0.297c-1.316-0.591-2.529-1.61-3.045-3.069c-0.516-1.456-0.579-3.026,0.011-4.539
					c0.552-1.43,1.716-2.703,3.058-3.349c0.681-0.356,1.393-0.524,2.12-0.496c0.759-0.11,1.491-0.007,2.2,0.295
					c1.316,0.59,2.532,1.608,3.049,3.069C216.262,102.844,216.331,104.416,215.738,105.926L215.738,105.926z"/>
			</g>
			<g>
				<path fill="#A81D35" d="M197.699,122.84c-1.74,4.462-8.214,1.948-6.476-2.516C192.956,115.862,199.431,118.374,197.699,122.84
					L197.699,122.84z"/>
			</g>
			<g>
				<path fill="#A81D35" d="M193.943,148.376c-2.181,5.609-10.33,2.449-8.145-3.166
					C187.978,139.596,196.127,142.758,193.943,148.376L193.943,148.376z"/>
			</g>
		</g>
		<g>
			<g>
				<path fill="#C8973C" d="M352.979,170.628c2.881,0.254,4.35,3.81,6.374,5.308c3.604,2.77,8.617,4.306,10.811,8.334
					c2.711,4.41-2.898,5.317-5.54,7.759c-3.672,3.19-3.693,6.721-2.209,10.828c2.985,8.76-3.899,15.884-11.855,18.024
					c-9.757,2.792-20.703,2.293-30.074-1.552c-5.024-2.081-9.582-5.444-12.839-9.835c-4.246-6.075-2.54-10.59,1.129-16.377
					c5.887-9.365,16.019-14.703,24.634-21.168c6.29-4.686,13.074-4.911,20.016-1.114"/>
			</g>
			<g>
				<path fill="#042C2B" d="M328.807,181.394c3.255-3.269,10.521-1.075,13.711,1.12c4.003,3.017,1.391,4.164,2.54,7.588
					c0.817,2.447,5.148,3.986,7.025,6.353c2.778,4.235,1.314,5.546-1.043,9.062c-2.525,3.834-1.222,3.667-0.236,7.425
					c1.155,5.874-5.622,8.41-10.509,9.231C323.245,224.897,321.31,189.894,328.807,181.394"/>
			</g>
			<g>
				<path fill="#E8C31E" d="M290.615,199.879c10.798,5.743,22.332,14.008,34.63,15.687c11.749,1.686,18.979-7.059,22.309-17.36
					c2.352-7.347,0.538-13.377-1.457-20.445c-0.789-2.683-2.274-6.788,1.246-7.324c2.699-0.234,5.633,2.232,8.62,2.272
					c-1.489-4.107-5.646-8.212-10.752-10.793c-4.612-2.321-12.501-2.46-20.475,0.98c-8.806,3.795-12.259,17.378-20.126,22.82
					c-4.079,2.594-8.435,4.918-12.291,7.605c-3.689,2.634-5.999,4.959-0.98,7.038"/>
			</g>
			<g>
				<path fill="#FAE500" d="M357.078,217.775c-9.621,5.54-16.086,1.981-23.247-3.962c-4.458-3.585-9.029-7.501-14.019-10.518
					c-4.103-2.605-8.483-3.431-12.996-5.135c-4.293-1.608-7.783-2.011-12.287-1.121c-3.63,0.752-9.623,1.615-8.121,6.277
					c2.642,8.327,14.337,14.491,21.565,18.557c8.175,4.645,17.599,9.805,26.99,8.42
					C347.866,228.397,357.078,217.775,357.078,217.775z"/>
			</g>
			<g>
				<path fill="#C8973C" d="M295.817,197.582l-1.74-2.501c2.48-1.784,5.197-3.002,7.892-3.873c2.696-0.86,5.397-1.368,8.065-1.652
					c0.735-0.085,1.467-0.128,2.196-0.184c0,0,3.502,0.202,6.734,0.969c1.625,0.347,3.19,0.821,4.33,1.216
					c1.136,0.403,1.868,0.711,1.868,0.711s-0.214-0.022-0.589-0.069c-0.375-0.032-0.886-0.122-1.541-0.147
					c-1.272-0.106-3-0.145-4.732-0.095c-1.73,0.071-3.466,0.226-4.762,0.403c-0.644,0.089-1.184,0.171-1.558,0.221
					c-0.377,0.071-0.594,0.108-0.594,0.108c-0.538,0.048-1.069,0.069-1.6,0.147C304.907,193.351,299.825,194.714,295.817,197.582z"
					/>
				<path fill="#C8973C" d="M297.063,194.899l-1.487-2.674c1.294-0.73,2.625-1.565,3.897-2.204l1.922-1.023l1.845-1.008
					c1.263-0.648,2.339-1.459,3.5-2.176c1.179-0.796,2.371-1.664,3.567-2.508c0.628-0.438,1.242-0.876,1.892-1.307
					c0,0,0.21-0.108,0.581-0.299c0.362-0.186,0.873-0.468,1.521-0.767c1.276-0.624,3.01-1.407,4.768-1.998
					c0.887-0.288,1.747-0.585,2.583-0.761c0.826-0.184,1.574-0.399,2.237-0.483c1.3-0.201,2.167-0.338,2.167-0.338
					s-0.865,0.338-2.159,0.845c-1.279,0.538-2.952,1.335-4.517,2.295c-0.797,0.438-1.545,1.01-2.26,1.469
					c-0.702,0.499-1.339,1.006-1.89,1.413c-1.084,0.88-1.807,1.461-1.807,1.461c-0.481,0.319-0.965,0.683-1.445,1.016l-3.565,2.503
					c-1.285,0.808-2.558,1.736-3.869,2.404l-1.946,1.073l-1.901,1.014C299.406,193.496,298.281,194.216,297.063,194.899z"/>
			</g>
			<g>
				<path fill="#042C2B" d="M295.096,180.989c5.143,4.456-10.249,13.741-12.291,15.776c-2.748,2.67-5.679,6.879-3.047,10.57
					c2.13,3.316,7.64,5.213,10.743,7.625c3.498,3.006,10.767,8.722,7.703,14.099c13.156-1.604-2.518-14.123-4.881-18.091
					c3.669-1.147,8.841,2.364,12.601,2.492c2.876,0.256,2.848-0.845,0.212-2.49c-1.968-1.333-4.697-2.198-6.933-3.244
					c-2.176-0.887-4.413-1.935-6.69-2.597c-3.117-0.914-3.938-0.614-1.964-3.368c2.403-3.099,6.032-5.897,7.874-9.534
					C300.789,187.471,298.765,183.936,295.096,180.989"/>
			</g>
		</g>
		<g>
			<g>
				<path fill="#8C3C7C" d="M259.063,130.363c-1.14-3.652,2.438-7.534,5.362-9.151c5.438-3.082,8.618-0.171,12.311,3.385
					c1.396-5.312,10.007-7.048,14.63-6.511c2.896,0.336,6.06,1.68,7.768,3.834c1.741,1.766,1.454,4.274,2.607,6.164
					c1.589,3.117,2.072,0.633,5.251,0.221c2.572-0.29,6.623,0.182,8.606,1.584c3.615,2.572,1.389,9.935,4.642,10.509
					c2.299,0.462,3.121-1.593,5.665,0.072c1.987,1.404,2.729,3.442,3.056,5.633c0.431,4.74-1.842,9.166-5.499,12.064
					c-8.546,6.238-21.465,4.738-30.861,1.495c-7.896-2.672-15.323-9.4-20.846-15.707c-2.241-2.611-9.64-14.604-13.223-14.045"/>
			</g>
			<g>
				<path fill="#042C2B" d="M277.07,145.452c-1.181-3.266,2.634-7.512,5.15-8.981c3.329-1.762,3.279,0.381,5.978,0.695
					c1.929,0.225,4.363-2.228,6.574-2.753c3.774-0.538,4.198,0.876,5.833,3.609c1.803,2.945,2.113,2.005,4.982,2.53
					c4.372,1.095,3.934,6.519,2.933,10.113C304.924,163.149,280.466,153.272,277.07,145.452"/>
			</g>
			<g>
				<path fill="#EDCB19" d="M297.204,141.287c3.026-0.46,3.734,4.224,0.711,4.682C294.89,146.428,294.187,141.74,297.204,141.287z"
					/>
				<path fill="#EDCB19" d="M299.25,146.651l0.245-0.039c3.017-0.455,3.728,4.229,0.706,4.69l-0.241,0.035
					C296.94,151.794,296.227,147.104,299.25,146.651z"/>
				<path fill="#EDCB19" d="M297.621,151.018l0.035,0.24c0.457,3.024-4.226,3.732-4.688,0.713l-0.033-0.24
					C292.477,148.708,297.167,147.999,297.621,151.018z"/>
				<path fill="#EDCB19" d="M292.748,144.423l0.486-0.072c3.015-0.457,3.726,4.233,0.707,4.688l-0.488,0.074
					C290.433,149.571,289.725,144.885,292.748,144.423z"/>
				<path fill="#EDCB19" d="M288.678,140.355c3.019-0.459,3.728,4.231,0.706,4.686C286.359,145.5,285.652,140.812,288.678,140.355z"
					/>
				<path fill="#EDCB19" d="M293.076,138.452l0.243-0.037c3.019-0.453,3.732,4.231,0.711,4.684l-0.245,0.043
					C290.765,143.597,290.056,138.907,293.076,138.452z"/>
				<path fill="#EDCB19" d="M302.376,141.239c3.028-0.457,3.736,4.231,0.713,4.69C300.063,146.387,299.357,141.699,302.376,141.239z
					"/>
				<path fill="#EDCB19" d="M292.04,151.614l0.033,0.243c0.455,3.024-4.229,3.73-4.688,0.711l-0.035-0.241
					C286.894,149.304,291.578,148.597,292.04,151.614z"/>
				<path fill="#EDCB19" d="M286.402,144.887c3.024-0.451,3.73,4.233,0.706,4.69C284.089,150.036,283.379,145.348,286.402,144.887z"
					/>
			</g>
			<g>
				<g>
					<g>
						<path fill="#F8A98E" d="M283.328,187.19l-1.606-2.665c4.493-2.683,8.183-6.533,11.037-10.975l0.985-1.575
							c0,0,0.509-0.569,1.164-1.513c0.67-0.933,1.61-2.166,2.416-3.494c0.42-0.657,0.84-1.314,1.234-1.931
							c0.369-0.633,0.713-1.224,1.008-1.731c0.592-1.018,0.987-1.697,0.987-1.697s-0.225,0.776-0.563,1.941
							c-0.171,0.584-0.371,1.265-0.585,1.995c-0.243,0.723-0.503,1.494-0.763,2.265c-0.483,1.562-1.159,3.06-1.605,4.217
							c-0.221,0.58-0.432,1.052-0.601,1.374c-0.159,0.327-0.25,0.513-0.25,0.513l-0.827,1.324
							C292.32,179.986,288.255,184.249,283.328,187.19z"/>
					</g>
				</g>
			</g>
			<g>
				<g>
					<g>
						<path fill="#F8A98E" d="M288.183,190.628l-1.15-2.891c8.11-3.313,15.444-8.378,21.843-14.495l1.362-1.316
							c0,0,0.627-0.457,1.568-1.143c0.916-0.725,2.138-1.691,3.36-2.657c1.234-0.962,2.403-2,3.312-2.748
							c0.901-0.759,1.501-1.264,1.501-1.264s-0.473,0.654-1.184,1.635c-0.723,0.972-1.634,2.315-2.64,3.585
							c-0.995,1.28-1.968,2.587-2.743,3.532c-0.785,0.94-1.308,1.566-1.308,1.566l-1.102,1.065
							C304.427,181.791,296.733,187.141,288.183,190.628z"/>
					</g>
				</g>
			</g>
			<g>
				<g>
					<g>
						<path fill="#F8A98E" d="M274.23,181.96l-2.638,1.65c-2.624-4.238-5.096-8.601-7.124-13.207
							c-1.047-2.286-1.915-4.662-2.72-7.059c-0.338-1.224-0.759-2.419-1.018-3.669l-0.433-1.86l-0.322-1.89
							c-0.127-0.65-0.203-1.311-0.26-1.976c0,0,0.006-0.204,0.018-0.56c0.02-0.357,0.008-0.861,0.069-1.469
							c0.066-0.604,0.143-1.309,0.226-2.065c0.07-0.749,0.28-1.544,0.418-2.328c0.125-0.787,0.379-1.555,0.589-2.268
							c0.206-0.715,0.4-1.373,0.65-1.916c0.446-1.084,0.744-1.807,0.744-1.807s-0.115,0.791-0.288,1.978
							c-0.114,0.582-0.123,1.284-0.157,2.023c-0.016,0.368-0.033,0.748-0.05,1.135c-0.008,0.386,0.031,0.782,0.045,1.174
							c0.022,1.566,0.293,3.114,0.447,4.26c0.245,1.139,0.409,1.899,0.409,1.899c0.035,0.482,0.116,0.96,0.203,1.438l0.299,1.757
							l0.407,1.743c0.24,1.168,0.644,2.305,0.96,3.459c0.767,2.276,1.592,4.541,2.602,6.742
							C269.257,173.569,271.661,177.814,274.23,181.96z"/>
					</g>
				</g>
			</g>
			<g>
				<path fill="#A871A0" d="M281.35,189.236c-2.202-1.235-1.849-7.642-1.97-10.002c-0.141-5.49,0.31-11.103,2.657-16.11
					c2.317-4.811,6.199-9.638,10.822-12.423c1.866-0.956,4.083-1.482,6.205-1.235c1.923,0.223,3.63,2.376,5.173,2.555
					c4.653,0.345,8.743-7.974,14.057-3.253c4.993-7.629,15.722-14.2,18.486-0.98c2.161,10.022-2.971,20.568-9.823,27.393
					c-6.829,6.634-16.134,11.028-25.024,13.513c-3.437,0.967-19.168,5.202-20.369,0.373"/>
			</g>
			<g>
				<path fill="#E4D4E1" d="M279.67,190.215c5.094-6.834,6.429-16.648,7.972-24.875c1.37-8.438,4.69-25.252-6.465-28.503
					c-2.072-0.629-4.053-0.471-5.898,0.293c2.711-9.851-10.607-23.119-19.903-15.406c-7.796,6.522-8.553,21.485-6.283,30.543
					c2.603,11.247,8.039,21.648,16.511,29.472c2.841,2.482,6.361,5.822,9.937,7.018c3.361,1.368,4.458,0.321,6.701-2.156"/>
			</g>
			<g>
				<path fill="#8C3C7C" d="M295.938,186.502l-1.199-1.948c0,0,1.353-0.902,3.387-2.259c0.967-0.746,2.1-1.617,3.316-2.549
					c1.172-0.984,2.397-2.074,3.624-3.151c1.153-1.158,2.345-2.284,3.398-3.396c1.017-1.142,1.966-2.211,2.781-3.127
					c1.374-1.762,2.285-2.937,2.285-2.937c1.069-1.071,2.024-2.235,3.052-3.373c0.962-1.179,1.836-2.426,2.776-3.667l-0.921,2.198
					l-0.46,1.108c-0.148,0.371-0.312,0.741-0.505,1.088l-1.11,2.131c-0.373,0.711-0.743,1.439-1.181,2.106
					c0,0-0.202,0.264-0.559,0.722c-0.215,0.277-0.475,0.607-0.774,0.991c-0.318,0.397-0.652,0.865-1.06,1.335
					c-0.826,0.932-1.799,2.02-2.835,3.184c-1.097,1.105-2.284,2.274-3.468,3.435c-1.257,1.09-2.488,2.209-3.691,3.199
					c-1.237,0.949-2.38,1.847-3.39,2.594C297.323,185.577,295.938,186.502,295.938,186.502z"/>
				<path fill="#8C3C7C" d="M301.088,186.762l-1.142-2.408c0,0,1.684-0.873,4.205-2.185c1.222-0.743,2.644-1.606,4.166-2.533
					c1.484-0.99,3.038-2.094,4.593-3.188c1.482-1.196,3.008-2.347,4.365-3.5c1.32-1.192,2.557-2.31,3.615-3.268
					c1.818-1.868,3.023-3.11,3.023-3.11c1.37-1.105,2.623-2.334,3.96-3.52c1.261-1.24,2.434-2.577,3.676-3.892l-1.342,2.427
					l-0.676,1.227c-0.223,0.408-0.453,0.815-0.72,1.194l-1.558,2.326c-0.522,0.778-1.04,1.572-1.632,2.289
					c0,0-0.269,0.28-0.743,0.765c-0.278,0.291-0.624,0.642-1.017,1.049c-0.42,0.42-0.869,0.917-1.396,1.411
					c-1.077,0.975-2.336,2.111-3.687,3.327c-1.411,1.142-2.932,2.343-4.454,3.537c-1.589,1.101-3.158,2.241-4.677,3.234
					c-1.552,0.943-2.995,1.838-4.254,2.575C302.811,185.865,301.088,186.762,301.088,186.762z"/>
				<path fill="#8C3C7C" d="M285.915,186.684l-2.228,0.533c-0.217-1.03-0.121-1.895-0.02-2.733c0.121-0.826,0.295-1.621,0.494-2.393
					c0.39-1.545,0.872-3.036,1.298-4.493c0.403-1.457,0.921-2.991,1.385-4.482c0.217-0.759,0.52-1.489,0.813-2.219
					c0.29-0.73,0.581-1.463,0.873-2.195c0.184-0.44,0.33-0.899,0.559-1.32c0,0,0.33-0.49,0.821-1.225
					c0.496-0.724,1.12-1.706,1.797-2.646c1.433-1.819,2.863-3.641,2.863-3.641s-0.967,2.157-1.937,4.309
					c-0.796,2.202-1.593,4.402-1.593,4.402c-0.145,0.332-0.273,0.676-0.412,1.014l-0.841,2.117
					c-0.286,0.704-0.574,1.402-0.784,2.137c-0.445,1.461-0.926,2.859-1.352,4.376c-0.44,1.517-0.904,2.971-1.276,4.426
					c-0.187,0.726-0.342,1.448-0.438,2.15C285.837,185.49,285.808,186.195,285.915,186.684z"/>
			</g>
			<g>
				<path fill="#A871A0" d="M280.414,185.77l-1.892,1.285c0,0-1.216-1.738-3.041-4.341c-1.836-2.584-4.22-6.138-6.626-9.662
					c-0.598-0.889-1.142-1.86-1.706-2.77c-0.293-0.449-0.514-0.941-0.746-1.422c-0.228-0.477-0.457-0.947-0.676-1.415
					c-0.824-1.886-1.467-3.711-1.849-5.308c-0.104-0.399-0.208-0.778-0.303-1.144c-0.082-0.364-0.139-0.713-0.199-1.04
					c-0.1-0.538-0.186-1.006-0.256-1.387c-0.052-0.295-0.095-0.525-0.123-0.681c-0.015-0.158-0.024-0.241-0.024-0.241
					c-0.007-3.158,0.31-6.235,0.704-9.28c0.353,3.145,0.834,6.259,1.587,9.252c0,0,0.054,0.312,0.158,0.854
					c0.074,0.405,0.163,0.893,0.267,1.454c0.089,0.618,0.317,1.276,0.498,2.013c0.1,0.368,0.2,0.752,0.304,1.145
					c0.119,0.392,0.282,0.785,0.429,1.192c0.314,0.809,0.574,1.689,1.029,2.529c0.763,1.742,1.818,3.457,2.946,5.189
					c2.354,3.448,4.677,6.899,6.506,9.474C279.213,184.049,280.414,185.77,280.414,185.77z"/>
				<path fill="#A871A0" d="M269.434,179.328l-1.892,1.285c0,0-1.214-1.738-3.039-4.343c-1.838-2.583-4.224-6.138-6.628-9.662
					c-0.6-0.887-1.144-1.858-1.706-2.77c-0.293-0.448-0.514-0.941-0.746-1.422c-0.228-0.475-0.457-0.947-0.679-1.415
					c-0.821-1.886-1.459-3.71-1.842-5.308c-0.108-0.397-0.208-0.78-0.305-1.142c-0.085-0.364-0.141-0.715-0.201-1.04
					c-0.104-0.538-0.182-1.006-0.256-1.389c-0.048-0.293-0.093-0.524-0.123-0.681c-0.017-0.158-0.028-0.24-0.028-0.24
					c-0.004-3.16,0.314-6.236,0.706-9.281c0.356,3.145,0.835,6.259,1.587,9.252c0,0,0.061,0.312,0.16,0.856
					c0.074,0.403,0.164,0.893,0.267,1.454c0.082,0.616,0.316,1.277,0.499,2.013c0.098,0.368,0.199,0.752,0.303,1.147
					c0.119,0.392,0.282,0.782,0.429,1.19c0.31,0.81,0.577,1.688,1.025,2.529c0.763,1.74,1.821,3.455,2.95,5.191
					c2.351,3.444,4.677,6.898,6.506,9.473C268.233,177.605,269.434,179.328,269.434,179.328z"/>
			</g>
			<g>
				<path fill="#042C2B" d="M260.489,173.641c6.767,18.644,20.564,24.387,38.768,15.752c2.687-1.253,14.11-8.721,5.102-8.594
					c-5.681,0.124-11.792,3.908-16.584,6.481c0.496-4.246,2.184-12.061-3.206-14.446c-4.836-2.124-6.043,8.288-7.371,11.262
					c-2.465-4.001-6.574-8.975-10.124-12.12c-1.064-0.906-5.188-4.122-6.48-3.1C259.54,169.538,259.785,172.972,260.489,173.641z"/>
			</g>
		</g>
		<g>
			<path fill="#FBD4AF" d="M248.569,170.715c-2.15,3.206-5.629,0.31-8.635-0.03c-2.69-0.31-5.429,0.347-7.885,1.387
				c-4.801,2.042-7.594,6.58-8.524,11.532c-0.499,2.653-0.251,5.449,0.47,8.028c0.702,2.495,4.918,5.928,4.463,8.617
				c-0.091,0.041-0.187,0.102-0.275,0.189c-10.434,10.646-5.8,30.326,5.806,38.215c7.044,4.798,16.975,4.645,24.181,0.388
				c3.032-1.79,5.772-8.631,9.534-7.387c3.056,1.008,6.96,0.061,9.892-0.902c6.855-2.252,12.525-8.095,15.102-14.738
				c2.705-6.972,0.223-13.888-4.937-18.93c-1.56-1.528-3.297-3.19-5.304-4.124c-2.594-1.203-3.815-1.83-3.13-4.937
				c0.787-3.537-0.227-8.203-1.186-11.612c-2.027-7.2-7.063-14.266-15.419-14.014C256.716,162.575,251.872,165.81,248.569,170.715z"
				/>
			<path fill="#042C2B" d="M242.115,198.793c0.043,0.327,0.247,0.516,0.485,0.607c1.418,6.513,8.401,12.844,14.86,12.857
				c6.929,0.011,11.108-9.005,9.541-14.89c-1.621-6.071-7.068-13.398-14.114-13.052
				C245.591,184.673,241.252,191.808,242.115,198.793z"/>
			<g>
				<path fill="#F8A793" d="M229.353,216.893c-3.992,4.28,4.333,11.416,7.583,13.689c4.261,2.991,10.446,4.491,15.488,2.859
					c0.318-0.106,0.587-0.329,0.115-0.429c-1.827-0.382-3.695-0.319-5.536-0.718c-2.878-0.635-5.429-2.209-7.718-3.999
					c-2.013-1.58-3.671-3.665-5.08-5.776c-1.242-1.857-1.606-4.079-2.9-5.852C231.039,216.291,229.63,216.603,229.353,216.893z"/>
				<path fill="#F8A793" d="M281.595,202.049c-0.657,2.23,0.966,3.687,2.152,5.486c1.175,1.775,1.769,3.658,1.929,5.763
					c0.321,4.151-3.251,7.094-5.785,9.79c0.037-0.041,1.99-0.041,2.441-0.279c4.016-2.046,7.441-4.402,8.546-9.016
					c1.145-4.779-3.242-10.219-7.224-12.087C283.411,201.596,281.673,201.774,281.595,202.049z"/>
				<path fill="#F8A793" d="M229.359,182.781c-3.166,5.158-2.334,13.017,3.074,16.119c0.401,0.232,2.727-0.503,2.757-0.455
					c-3.75-5.667-4.929-18.659,3.988-20.525c0.033-0.006,0.741-0.176,0.577-0.225C235.983,176.572,231.173,179.822,229.359,182.781z
					"/>
				<path fill="#F8A793" d="M246.041,179.794c-0.505,0.206,1.01,0.08,1.14,0.06c7.544-1.179,13.338,0.16,18.808,5.54
					c3.964,3.904,6.687,9.142,6.829,14.74c0.004,0.173,2.181,0.017,2.31-0.342c2.865-7.881-5.215-16.454-11.773-19.836
					C258.562,177.482,250.985,177.764,246.041,179.794z"/>
				<path fill="#F8A793" d="M253.734,171.641c0.449,0.889,2.319,0.514,3.138,0.501c2.971-0.054,5.689-0.46,8.576,0.553
					c4.662,1.639,7.935,6.326,9.578,10.735c0.111,0.295,2.492-0.056,2.603-0.39c1.437-4.285-2.664-8.429-5.923-10.693
					c-4.061-2.816-10.568-1.4-15.122-1.285C256.356,171.069,253.645,171.446,253.734,171.641z"/>
				<path fill="#F8A793" d="M236.69,211.769c-0.483,2.122,0.147,3.957,1.454,5.54c-0.214,2.298,3.216,5.065,4.937,6.32
					c3.405,2.484,7.013,3.49,11.144,4.001c4.797,0.6,11.429,0.145,15.443-2.928c1.344-0.627,2.532-1.424,3.368-2.471
					c0.026-0.057,0.048-0.104,0.069-0.154l-0.254-0.377c1.233-1.062,1.645-2.412,0.507-4.118c-0.507-0.767-2.913-0.163-3.446,0.383
					c-0.596,0.614-1.086,1.255-1.55,1.879c-0.529,0.433-1.053,0.86-1.623,1.251c-3.028,2.068-7.44,1.203-10.746,0.512
					c-3.297-0.696-6.322-2.052-9.17-3.819c-0.542-0.336-1.114-0.559-1.673-0.691c-1.944-1.699-3.745-3.645-5.644-5.748
					C239.178,210.983,236.809,211.251,236.69,211.769z"/>
			</g>
			<g>
				<path fill="#EDCB19" d="M260.966,204.667c-0.388,3.99-6.567,3.385-6.175-0.605C255.181,200.072,261.365,200.683,260.966,204.667
					z"/>
				<path fill="#EDCB19" d="M253.497,205.54l-0.028,0.319c-0.395,3.984-6.574,3.379-6.186-0.609l0.032-0.319
					C247.704,200.948,253.89,201.557,253.497,205.54z"/>
				<path fill="#EDCB19" d="M248.469,202.068l-0.316-0.032c-3.988-0.394-3.381-6.574,0.605-6.186l0.314,0.032
					C253.06,196.273,252.455,202.456,248.469,202.068z"/>
				<path fill="#EDCB19" d="M258.417,197.994l-0.063,0.644c-0.39,3.981-6.576,3.368-6.184-0.613l0.061-0.639
					C252.62,193.395,258.805,194.006,258.417,197.994z"/>
				<path fill="#EDCB19" d="M264.898,194.134c-0.394,3.981-6.578,3.373-6.186-0.611C259.104,189.535,265.29,190.146,264.898,194.134
					z"/>
				<path fill="#EDCB19" d="M265.895,200.334l-0.03,0.319c-0.392,3.984-6.574,3.383-6.181-0.602l0.024-0.327
					C260.106,195.74,266.289,196.351,265.895,200.334z"/>
				<path fill="#EDCB19" d="M259.362,211.254c-0.392,3.994-6.572,3.383-6.186-0.607
					C253.569,206.659,259.754,207.268,259.362,211.254z"/>
				<path fill="#EDCB19" d="M249.507,194.784l-0.318-0.035c-3.988-0.396-3.379-6.576,0.603-6.186l0.318,0.032
					C254.102,188.988,253.489,195.169,249.507,194.784z"/>
				<path fill="#EDCB19" d="M259.869,189.782c-0.399,3.986-6.576,3.381-6.184-0.609
					C254.072,185.183,260.257,185.796,259.869,189.782z"/>
			</g>
		</g>
	</g>
	<g>
		<path fill="#FED401" d="M228.585,371.674l2.876-0.583c3.796-0.77,3.796-6.195,0-6.965l-2.876-0.583
			c-7.246-1.469-12.909-7.132-14.378-14.378l-0.583-2.876c-0.77-3.796-6.195-3.796-6.965,0l-0.583,2.876
			c-1.469,7.246-7.132,12.909-14.378,14.378l-2.876,0.583c-3.796,0.77-3.796,6.195,0,6.965l2.876,0.583
			c7.246,1.469,12.909,7.132,14.378,14.378l0.583,2.876c0.77,3.796,6.195,3.796,6.965,0l0.583-2.876
			C215.676,378.806,221.339,373.143,228.585,371.674z"/>
		<g>
			<path fill="#FED401" d="M348.575,339.9c-1.783,0-3.229-1.446-3.229-3.229v-8.744c0-1.783,1.446-3.229,3.229-3.229
				c1.783,0,3.229,1.446,3.229,3.229v8.744C351.805,338.454,350.359,339.9,348.575,339.9z"/>
			<path fill="#FED401" d="M348.575,363.439c-1.783,0-3.229-1.446-3.229-3.229v-8.744c0-1.783,1.446-3.229,3.229-3.229
				c1.783,0,3.229,1.446,3.229,3.229v8.744C351.805,361.994,350.359,363.439,348.575,363.439z"/>
			<path fill="#FED401" d="M364.717,347.298h-8.744c-1.783,0-3.229-1.446-3.229-3.229s1.446-3.229,3.229-3.229h8.744
				c1.783,0,3.229,1.446,3.229,3.229S366.5,347.298,364.717,347.298z"/>
			<path fill="#FED401" d="M341.177,347.298h-8.744c-1.783,0-3.229-1.446-3.229-3.229s1.446-3.229,3.229-3.229h8.744
				c1.783,0,3.229,1.446,3.229,3.229S342.961,347.298,341.177,347.298z"/>
			<path fill="#FED401" d="M123.169,187.879c-1.783,0-3.229-1.446-3.229-3.229v-8.744c0-1.783,1.446-3.229,3.229-3.229
				s3.229,1.446,3.229,3.229v8.744C126.398,186.433,124.953,187.879,123.169,187.879z"/>
			<path fill="#FED401" d="M123.169,211.419c-1.783,0-3.229-1.446-3.229-3.229v-8.744c0-1.783,1.446-3.229,3.229-3.229
				s3.229,1.446,3.229,3.229v8.744C126.398,209.973,124.953,211.419,123.169,211.419z"/>
			<path fill="#FED401" d="M139.311,195.277h-8.744c-1.783,0-3.229-1.446-3.229-3.229s1.446-3.229,3.229-3.229h8.744
				c1.783,0,3.229,1.446,3.229,3.229S141.094,195.277,139.311,195.277z"/>
			<path fill="#FED401" d="M115.771,195.277h-8.744c-1.783,0-3.229-1.446-3.229-3.229s1.446-3.229,3.229-3.229h8.744
				c1.783,0,3.229,1.446,3.229,3.229S117.555,195.277,115.771,195.277z"/>
			<g>
				<path fill="#FED401" d="M301.697,101.545c-2.028,0-3.672-1.644-3.672-3.672v-9.943c0-2.028,1.644-3.672,3.672-3.672
					c2.028,0,3.672,1.644,3.672,3.672v9.943C305.369,99.9,303.726,101.545,301.697,101.545z"/>
				<path fill="#FED401" d="M301.697,128.313c-2.028,0-3.672-1.644-3.672-3.672v-9.943c0-2.028,1.644-3.672,3.672-3.672
					c2.028,0,3.672,1.644,3.672,3.672v9.943C305.369,126.669,303.726,128.313,301.697,128.313z"/>
				<path fill="#FED401" d="M320.053,109.957h-9.943c-2.028,0-3.672-1.644-3.672-3.672c0-2.028,1.644-3.672,3.672-3.672h9.943
					c2.028,0,3.672,1.644,3.672,3.672C323.726,108.313,322.081,109.957,320.053,109.957z"/>
				<path fill="#FED401" d="M293.285,109.957h-9.943c-2.028,0-3.672-1.644-3.672-3.672c0-2.028,1.644-3.672,3.672-3.672h9.943
					c2.028,0,3.672,1.644,3.672,3.672C296.957,108.313,295.313,109.957,293.285,109.957z"/>
			</g>
		</g>
		<g>
			<path fill="#FED401" d="M191.403,147.017l7.675-1.556c3.623-0.735,3.623-5.913,0-6.648l-7.675-1.556
				c-7.563-1.533-13.474-7.444-15.007-15.007l-1.556-7.675c-0.735-3.623-5.913-3.623-6.648,0l-1.556,7.675
				c-1.533,7.563-7.444,13.474-15.007,15.007l-7.675,1.556c-3.623,0.735-3.623,5.913,0,6.648l7.675,1.556
				c7.563,1.533,13.474,7.444,15.007,15.007l1.556,7.675c0.735,3.623,5.913,3.623,6.648,0l1.556-7.675
				C177.929,154.461,183.84,148.551,191.403,147.017z"/>
			<path fill="#FED401" d="M373.184,172.73l5.837-1.184c2.756-0.559,2.756-4.497,0-5.056l-5.837-1.184
				c-5.752-1.166-10.248-5.662-11.414-11.414l-1.184-5.837c-0.559-2.756-4.497-2.756-5.056,0l-1.184,5.837
				c-1.166,5.752-5.662,10.248-11.414,11.414l-5.837,1.184c-2.756,0.559-2.756,4.497,0,5.056l5.837,1.184
				c5.752,1.166,10.248,5.662,11.414,11.414l1.184,5.837c0.559,2.756,4.497,2.756,5.056,0l1.184-5.837
				C362.937,178.392,367.432,173.896,373.184,172.73z"/>
		</g>
	</g>
</g>
</svg>
