<?xml version="1.0" encoding="utf-8"?>
<!-- Generator: Adobe Illustrator 17.0.0, SVG Export Plug-In . SVG Version: 6.00 Build 0)  -->
<!DOCTYPE svg PUBLIC "-//W3C//DTD SVG 1.1//EN" "http://www.w3.org/Graphics/SVG/1.1/DTD/svg11.dtd">
<svg version="1.1" id="Layer_1" xmlns="http://www.w3.org/2000/svg" xmlns:xlink="http://www.w3.org/1999/xlink" x="0px" y="0px"
	 width="512px" height="512px" viewBox="0 0 512 512" enable-background="new 0 0 512 512" xml:space="preserve">
<g>
	<path fill="#2D333B" d="M256,31C131.747,31,31,131.747,31,256s100.747,225,225,225s225-100.747,225-225S380.253,31,256,31z"/>
	<g>
		<g>
			<path fill="#B6B2B4" d="M234.729,411.643c-2.709,0-4.904-2.195-4.904-4.904V139.839c0-2.708,2.196-4.904,4.904-4.904
				c2.709,0,4.904,2.196,4.904,4.904v266.899C239.634,409.447,237.438,411.643,234.729,411.643z"/>
			<path fill="#B6B2B4" d="M261.049,362.613c-2.709,0-4.904-2.196-4.904-4.904V146.983c0-2.708,2.196-4.904,4.904-4.904
				s4.904,2.196,4.904,4.904v210.726C265.953,360.417,263.758,362.613,261.049,362.613z"/>
			<path fill="#B6B2B4" d="M287.368,322.186c-2.709,0-4.904-2.195-4.904-4.904V166.588c0-2.708,2.195-4.904,4.904-4.904
				c2.709,0,4.904,2.195,4.904,4.904v150.693C292.272,319.99,290.076,322.186,287.368,322.186z"/>
			<path fill="#B6B2B4" d="M313.687,289.193c-2.709,0-4.904-2.195-4.904-4.904v-86.967c0-2.708,2.196-4.904,4.904-4.904
				c2.709,0,4.904,2.196,4.904,4.904v86.968C318.591,286.998,316.396,289.193,313.687,289.193z"/>
			<path fill="#B6B2B4" d="M340.007,249.389c-2.709,0-4.904-2.196-4.904-4.904v-50.9c0-2.708,2.195-4.904,4.904-4.904
				c2.709,0,4.904,2.196,4.904,4.904v50.9C344.911,247.194,342.715,249.389,340.007,249.389z"/>
		</g>
		<path fill="#FEC93E" d="M379.697,185.408c-3.623-5.73-9.406-9.33-16.724-10.409c-6.999-1.032-15.237,0.312-24.481,3.996
			c-12.178,4.853-19.629,6.352-22.778,4.581c-3.322-1.867-6.337-9.309-10.155-18.731c-2.031-5.013-4.333-10.695-7.279-17.136
			c-9.808-21.444-23.951-29.994-34.089-33.39c-11.128-3.727-39.839-2.237-63.69-2.055v41.557
			c23.841-0.158,71.093-8.461,87.294,25.435c5.993,12.54,15.726,37.293,56.768,17.618c10.191-4.885,17.802-6.173,21.273-2.703
			c3.658,3.658,3.561,10.061-7.635,23.051c-9.717,11.277-120.23,145.53-128.492,191.056h47.219
			c6.859-40.846,17.669-74.195,92.432-179.037C384.36,208.204,387.472,197.705,379.697,185.408z"/>
		<path fill="#EFB531" d="M373.028,189.064c-12.751-11.334-34.112,4.521-53.817,5.039c-2.53,0.067-4.619-0.482-6.381-1.472
			c-5.119-2.877-12.573-10.142-17.726-21.222c-6.764-14.548-16.303-26.546-28.009-32.586c-29.093-15.012-66.005-6.619-66.596-6.329
			v21.328c23.841-0.158,71.093-8.461,87.294,25.435c5.993,12.54,15.726,37.293,56.768,17.618
			c10.191-4.885,17.802-6.173,21.274-2.703c3.658,3.658,3.561,10.061-7.635,23.051c-9.718,11.277-120.23,145.53-128.492,191.056
			h21.095c0,0,26.943-89.649,111.87-184.013C375.426,210.098,380.35,195.573,373.028,189.064z"/>
		<rect x="188.693" y="118.938" fill="#F8A839" width="21.689" height="282.216"/>
		<rect x="199.537" y="118.938" fill="#EA962D" width="10.844" height="282.216"/>
		<path fill="#F36F32" d="M215.077,144.81h-31.084c-1.197,0-2.167-0.97-2.167-2.167v-11.346c0-1.197,0.97-2.167,2.167-2.167h31.084
			c1.197,0,2.167,0.97,2.167,2.167v11.347C217.244,143.841,216.274,144.81,215.077,144.81z"/>
		<path fill="#FEC93E" d="M211.193,129.13h-23.316l-5.633-35.47c-0.07-0.445,0.2-0.859,0.56-0.859h33.462
			c0.361,0,0.631,0.415,0.56,0.859L211.193,129.13z"/>
		<path fill="#F36F32" d="M215.077,344.419h-31.084c-1.197,0-2.167,0.97-2.167,2.167v11.347c0,1.197,0.97,2.167,2.167,2.167h31.084
			c1.197,0,2.167-0.97,2.167-2.167v-11.347C217.244,345.39,216.274,344.419,215.077,344.419z"/>
		<path fill="#FEC93E" d="M211.193,360.1h-23.316l-5.633,35.47c-0.07,0.445,0.2,0.859,0.56,0.859h33.462
			c0.361,0,0.631-0.415,0.56-0.859L211.193,360.1z"/>
		<g>
			<path fill="#E85624" d="M215.077,129.13h-15.542v15.68h15.542c1.197,0,2.167-0.97,2.167-2.167v-11.346
				C217.244,130.1,216.274,129.13,215.077,129.13z"/>
			<path fill="#E85624" d="M215.077,344.419h-15.542v15.68h15.542c1.197,0,2.167-0.97,2.167-2.167v-11.347
				C217.244,345.39,216.274,344.419,215.077,344.419z"/>
		</g>
		<g>
			<path fill="#EFB531" d="M216.266,92.8h-16.731v36.33h11.658l5.633-35.47C216.897,93.215,216.626,92.8,216.266,92.8z"/>
			<path fill="#EFB531" d="M211.193,360.1h-11.658v36.33h16.731c0.361,0,0.631-0.414,0.56-0.859L211.193,360.1z"/>
		</g>
		<path fill="#F36F32" d="M287.439,417.31H172.055c-3.245,0-5.876-2.631-5.876-5.876v-10.287c0-3.245,2.631-5.876,5.876-5.876
			h115.384c3.245,0,5.876,2.631,5.876,5.876v10.287C293.315,414.679,290.684,417.31,287.439,417.31z"/>
		<path fill="#E85624" d="M293.306,400.98c-0.089,3.168-2.678,5.711-5.868,5.711H172.055c-3.189,0-5.779-2.543-5.867-5.711
			c-0.001,0.056-0.008,0.11-0.008,0.166v10.287c0,3.245,2.631,5.876,5.876,5.876H287.44c3.245,0,5.876-2.63,5.876-5.876v-10.287
			C293.315,401.091,293.308,401.036,293.306,400.98z"/>
	</g>
</g>
</svg>
