<?xml version="1.0" encoding="utf-8"?>
<!-- Generator: Adobe Illustrator 17.0.0, SVG Export Plug-In . SVG Version: 6.00 Build 0)  -->
<!DOCTYPE svg PUBLIC "-//W3C//DTD SVG 1.1//EN" "http://www.w3.org/Graphics/SVG/1.1/DTD/svg11.dtd">
<svg version="1.1" id="Layer_1" xmlns="http://www.w3.org/2000/svg" xmlns:xlink="http://www.w3.org/1999/xlink" x="0px" y="0px"
	 width="512px" height="512px" viewBox="0 0 512 512" enable-background="new 0 0 512 512" xml:space="preserve">
<g>
	<path fill="#F05A28" d="M256,31C131.747,31,31,131.747,31,256s100.747,225,225,225s225-100.747,225-225S380.253,31,256,31z"/>
	<g>
		<path fill="none" d="M354.773,320.323c1.721,3,3.109,6.209,4.105,9.594l8.778-9.594H354.773z"/>
		<path fill="none" d="M360.54,346.105c-0.072,0.922-0.184,1.831-0.311,2.736l2.503-2.736H360.54z"/>
		<path fill="#72C5D5" d="M192.382,145.854c-0.094,0.896-0.11,1.813-0.15,2.725l2.493-2.725H192.382z"/>
		<path fill="#72C5D5" d="M197.333,129.629l14.846,16.226h-12.263l18.838,20.587h-14.906l18.018,19.693h-12.095
			c7.543,5.771,16.943,9.238,27.175,9.238h58.049h32.426c10.598,0,19.19,8.592,19.19,19.189c0,10.173-7.942,18.415-17.951,19.065
			l1.628,1.78h-15.561l18.81,20.557h-16.735l3.12,3.411h62.834c24.749,0,44.814-20.063,44.814-44.814
			c0-24.75-20.063-44.814-44.814-44.814h-87.761h-21.284c-10.598,0-19.19-8.592-19.19-19.189s8.592-19.189,19.19-19.189h169.605
			c-6.015-9.022-12.662-17.583-19.882-25.623H236.945C219.76,105.745,204.852,115.43,197.333,129.629z"/>
		<path fill="#72C5D5" d="M350.714,370.769h-10.546l20.062-21.927c0.127-0.906,0.239-1.814,0.311-2.736h-16.474l14.812-16.188
			c-0.995-3.385-2.383-6.594-4.105-9.594h-2.475l1.487-1.626c-7.938-12.57-21.915-20.944-37.881-20.944H195.721
			c-10.598,0-19.19-8.592-19.19-19.19c0-10.598,8.592-19.189,19.19-19.189h99.275h0.91l3.121-3.411h-16.735l18.81-20.557h-15.56
			l1.514-1.655h-157.81c-24.75,0-44.814,20.063-44.814,44.812c0,16.11,8.53,30.194,21.291,38.092l8.472-9.259H96.128l20.304-22.191
			H99.636l21.226-23.199h-13.818l16.743-18.299l16.743,18.299h-13.819l21.226,23.199h-16.797l20.304,22.191h-18.064l14.622,15.981
			h39.291h91.847c10.598,0,19.19,8.592,19.19,19.19c0,10.598-8.592,19.19-19.19,19.19H57.397
			c4.762,8.923,10.127,17.469,16.005,25.624h242.503C329.964,387.381,342.497,380.897,350.714,370.769z"/>
		<rect x="300.665" y="278.001" fill="#CEBE9B" width="14.492" height="13.078"/>
		<path fill="#82B236" d="M327.421,233.752c0.424,0,0.821-0.098,1.239-0.125l-18.036-19.711h12.801l-15.51-16.953l-15.512,16.953
			h12.801l-18.149,19.836h7.94H327.421z"/>
		<polygon fill="#82B236" points="278.863,278.001 300.665,278.001 300.665,274.649 315.157,274.649 315.157,278.001 
			336.963,278.001 319.922,259.375 295.905,259.375 		"/>
		<path fill="#82B236" d="M333.537,255.964l-18.81-20.557h15.561l-1.628-1.78c-0.418,0.027-0.815,0.125-1.239,0.125h-32.426h-7.94
			l-1.514,1.655h15.56l-18.81,20.557h16.735l-3.121,3.411h24.016l-3.12-3.411H333.537z"/>
		<rect x="300.665" y="274.649" fill="#82B236" width="14.492" height="3.352"/>
		<rect x="362.211" y="397.204" fill="#CEBE9B" width="17.385" height="15.683"/>
		<path fill="#82B236" d="M367.656,320.323l-8.778,9.594c1.181,4.015,1.841,8.253,1.841,12.65c0,1.194-0.087,2.367-0.179,3.538
			h2.192l-2.503,2.736c-1.157,8.237-4.515,15.763-9.516,21.927h9.532l-24.189,26.436h26.154v-4.024h17.385v4.024h26.161
			l-24.189-26.436h20.078l-22.565-24.663h18.667l-23.589-25.782h15.357l-18.608-20.337l-17.121,18.712
			c0.339,0.536,0.672,1.075,0.987,1.626H367.656z"/>
		<path fill="#82B236" d="M340.168,370.769h10.546c5.001-6.164,8.359-13.69,9.516-21.927L340.168,370.769z"/>
		<path fill="#82B236" d="M358.878,329.917l-14.812,16.188h16.474c0.092-1.171,0.179-2.343,0.179-3.538
			C360.719,338.17,360.059,333.932,358.878,329.917z"/>
		<path fill="#82B236" d="M354.773,320.323c-0.316-0.551-0.649-1.09-0.987-1.626l-1.487,1.626H354.773z"/>
		<rect x="362.211" y="393.181" fill="#82B236" width="17.385" height="4.024"/>
		<rect x="190.379" y="207.245" fill="#CEBE9B" width="13.882" height="12.529"/>
		<path fill="#82B236" d="M197.321,129.615l-14.859,16.24h9.92c0.607-5.814,2.338-11.289,4.951-16.226L197.321,129.615z"/>
		<path fill="#82B236" d="M192.132,150.559c0-0.668,0.071-1.319,0.1-1.98l-16.344,17.863h14.906l-18.019,19.693h16.032
			l-19.315,21.11h20.886v-3.21h13.882v3.21h20.887l-19.314-21.11h3.936C199.066,177.945,192.132,165.078,192.132,150.559z"/>
		<path fill="#82B236" d="M203.848,166.442h14.906l-18.838-20.587h12.263l-14.846-16.226c-2.614,4.937-4.345,10.412-4.951,16.226
			h2.343l-2.493,2.725c-0.029,0.661-0.1,1.312-0.1,1.98c0,14.519,6.935,27.386,17.639,35.576h12.095L203.848,166.442z"/>
		<rect x="190.379" y="204.034" fill="#82B236" width="13.882" height="3.21"/>
		<rect x="128.514" y="176.259" fill="#CEBE9B" width="12.825" height="11.571"/>
		<polygon fill="#82B236" points="128.514,176.259 128.514,173.291 141.339,173.291 141.339,176.259 160.637,176.259 
			142.794,156.757 157.604,156.757 140.958,138.563 154.729,138.563 137.326,119.544 148.656,119.544 134.928,104.54 
			121.201,119.544 132.53,119.544 115.128,138.563 128.899,138.563 112.252,156.757 127.063,156.757 109.219,176.259 		"/>
		<rect x="128.514" y="173.291" fill="#82B236" width="12.825" height="2.968"/>
		<rect x="115.968" y="331.184" fill="#CEBE9B" width="15.643" height="14.112"/>
		<path fill="#82B236" d="M115.968,331.184v-3.62h15.643v3.62h23.533l-7.142-7.806h-18.758c-8.639,0-16.679-2.487-23.523-6.722
			l-13.293,14.528H115.968z"/>
		<path fill="#82B236" d="M148.003,323.378l-14.622-15.981h18.064l-20.304-22.191h16.797l-21.226-23.199h13.819l-16.743-18.299
			l-16.743,18.299h13.818l-21.226,23.199h16.796l-20.304,22.191h18.065l-8.472,9.259c6.843,4.236,14.883,6.722,23.523,6.722H148.003
			z"/>
		<rect x="115.968" y="327.564" fill="#82B236" width="15.643" height="3.62"/>
	</g>
</g>
</svg>
