<?xml version="1.0" encoding="utf-8"?>
<!-- Generator: Adobe Illustrator 17.0.0, SVG Export Plug-In . SVG Version: 6.00 Build 0)  -->
<!DOCTYPE svg PUBLIC "-//W3C//DTD SVG 1.1//EN" "http://www.w3.org/Graphics/SVG/1.1/DTD/svg11.dtd">
<svg version="1.1" id="Layer_1" xmlns="http://www.w3.org/2000/svg" xmlns:xlink="http://www.w3.org/1999/xlink" x="0px" y="0px"
	 width="512px" height="512px" viewBox="0 0 512 512" enable-background="new 0 0 512 512" xml:space="preserve">
<g>
	<path fill="#FED401" d="M256,31C131.747,31,31,131.747,31,256s100.747,225,225,225s225-100.747,225-225S380.253,31,256,31z"/>
	<g>
		<g>
			<path fill="#289849" d="M371.098,237.179c0.383,1.301-0.813,32.064-14.068,47.658l-3.516-1.172
				c0.913,0.304,6.585-14.012,6.936-14.95c3.683-9.843,6.696-21.057,5.112-31.598C365.93,237.044,370.95,236.875,371.098,237.179z"
				/>
			<path fill="#0A8B44" d="M357.091,285.055l-3.634-1.212c-0.001,0-0.002-0.001-0.002-0.001l0.119-0.356
				c-0.022-0.007-0.041-0.004-0.045-0.003c0.914-0.319,5.84-12.411,6.746-14.835c3.013-8.05,6.819-20.075,5.102-31.504l-0.027-0.178
				l0.176-0.035c0.052-0.01,5.489-0.35,5.741,0.164l0.011,0.029c0.338,1.15-0.771,32.146-14.105,47.833L357.091,285.055z
				 M353.945,283.611l3.023,1.008c12.991-15.404,14.251-45.409,13.962-47.323c-0.548-0.174-4.236-0.091-5.155-0.015
				c1.66,11.458-2.139,23.455-5.15,31.5c-0.184,0.49-1.675,4.268-3.261,7.95C355.339,281.433,354.418,283.068,353.945,283.611z
				 M353.573,283.486 M370.973,237.312L370.973,237.312L370.973,237.312z"/>
			<g>
				<path fill="#54B854" d="M159.43,212.068c0,0-58.899-54.21-63.001-77.36c0,0,3.223,27.545,61.536,79.411L159.43,212.068z"/>
				<path fill="#0A8B44" d="M157.84,214.259c-16.636-14.797-39.278-37.079-52.671-59.199c-8.024-13.251-8.919-20.262-8.927-20.331
					l0.371-0.055c4.045,22.823,62.355,76.713,62.944,77.255l-0.254,0.276c-0.522-0.48-46.338-42.824-59.677-68.458
					c1.319,3,3.204,6.728,5.89,11.16c13.373,22.068,35.971,44.303,52.574,59.07L157.84,214.259z"/>
			</g>
			<path fill="#54B854" d="M274.005,390.523c0,0,7.326,11.721,17.289,10.549c0,0-14.358,3.809-20.805-9.67L274.005,390.523z"/>
			<path fill="#0A8B44" d="M286.801,401.687c-4.814,0-12.291-1.55-16.44-10.225c-0.018-0.038-0.018-0.083,0-0.121
				c0.018-0.038,0.052-0.066,0.093-0.077l3.516-0.879c0.057-0.016,0.121,0.01,0.153,0.062c0.073,0.117,7.398,11.639,17.153,10.484
				c0.077-0.006,0.141,0.041,0.155,0.114c0.014,0.073-0.031,0.143-0.102,0.163C291.278,401.221,289.44,401.687,286.801,401.687z
				 M270.691,391.496c4.901,10.046,14.378,10.236,18.533,9.779c-8.434-0.474-14.633-9.599-15.283-10.591L270.691,391.496z"/>
			<path fill="#96CA4F" d="M182.286,210.016c0.879,0,20.219,9.963,22.856,19.34c0,0,12.307,4.102,16.996,10.549
				c0,0,9.084,2.93,20.805,15.824c29.823,20.453,63.892,36.962,98.376,47.639c8.164,2.528,16.586,4.047,24.891,6.016
				c4.795,1.137,19.79,2.839,20.134,9.562c0.34,6.776-15.558,10.087-20.368,11.372c-14.428,3.855-28.482,2.855-43.134,1.439
				c-16.839-1.627-33.626-4.041-50.115-7.865c-0.258-0.06-0.515-0.12-0.773-0.18c-39.852-9.377-52.159-19.047-57.141-29.889
				c0,0-14.945,1.172-20.219-9.377c0,0-6.154-2.637-9.67-9.963c0,0-9.377-0.586-7.326-19.047L182.286,210.016z"/>
			<path fill="#96CA4F" d="M213.122,293.858c-4.057-0.05-14.339-1.034-18.528-9.412c0,0-6.154-2.637-9.67-9.963
				c0,0-9.377-0.586-7.326-19.047l4.688-45.42c0.879,0,20.219,9.963,22.856,19.34c0,0,12.307,4.102,16.996,10.549
				c0,0,7.259,2.362,17.163,12.055c-2.528,2.591-6.186,7.784-9.252,17.834C230.05,269.795,224.617,286.865,213.122,293.858z"/>
			<path fill="#0A8B44" d="M221.886,239.394c0,0-0.188,0.114-0.54,0.328c-0.176,0.107-0.393,0.239-0.648,0.394
				c-0.252,0.16-0.558,0.32-0.863,0.555c-0.621,0.452-1.397,0.969-2.191,1.688c-0.203,0.173-0.412,0.352-0.628,0.536
				c-0.2,0.201-0.405,0.408-0.616,0.621c-0.212,0.211-0.429,0.428-0.651,0.65c-0.209,0.234-0.412,0.483-0.626,0.732
				c-0.209,0.253-0.435,0.5-0.643,0.771c-0.198,0.278-0.399,0.561-0.605,0.849c-0.433,0.56-0.77,1.212-1.163,1.851
				c-0.199,0.318-0.343,0.673-0.521,1.015c-0.161,0.35-0.362,0.686-0.497,1.057c-0.292,0.732-0.616,1.47-0.849,2.257
				c-0.532,1.55-0.891,3.212-1.169,4.91c-0.061,0.426-0.122,0.854-0.183,1.284c-0.059,0.429-0.087,0.864-0.132,1.298
				c-0.099,0.867-0.122,1.743-0.173,2.617c-0.037,0.879-0.034,1.742-0.065,2.634c-0.051,0.885-0.164,1.756-0.317,2.614
				c-0.304,1.716-0.786,3.369-1.396,4.913c-0.623,1.538-1.379,2.965-2.258,4.207c-0.872,1.247-1.841,2.321-2.83,3.204
				c-0.99,0.882-1.987,1.588-2.924,2.116c-0.464,0.271-0.918,0.491-1.332,0.7c-0.427,0.183-0.813,0.368-1.173,0.505
				c-0.362,0.132-0.685,0.249-0.966,0.352c-0.284,0.093-0.53,0.158-0.728,0.218c-0.395,0.116-0.606,0.177-0.606,0.177
				s0.209-0.068,0.6-0.197c0.195-0.066,0.439-0.139,0.719-0.241c0.277-0.11,0.596-0.236,0.953-0.377
				c0.355-0.145,0.735-0.338,1.155-0.53c0.407-0.217,0.852-0.447,1.306-0.727c0.916-0.547,1.885-1.27,2.853-2.152
				c0.964-0.887,1.905-1.961,2.746-3.203c0.849-1.238,1.569-2.656,2.181-4.173c0.594-1.525,1.062-3.159,1.354-4.853
				c0.146-0.846,0.254-1.708,0.299-2.572c0.026-0.858,0.019-1.754,0.053-2.631c0.055-0.88,0.083-1.763,0.187-2.636
				c0.048-0.437,0.078-0.875,0.14-1.308c0.064-0.433,0.128-0.865,0.191-1.294c0.289-1.713,0.66-3.391,1.206-4.957
				c0.241-0.794,0.567-1.543,0.877-2.278c0.142-0.374,0.35-0.712,0.519-1.064c0.185-0.343,0.336-0.699,0.542-1.019
				c0.407-0.641,0.758-1.295,1.204-1.856c0.212-0.288,0.42-0.571,0.624-0.849c0.213-0.27,0.445-0.518,0.66-0.769
				c0.219-0.248,0.428-0.497,0.643-0.729c0.228-0.22,0.451-0.434,0.669-0.644c0.218-0.208,0.43-0.411,0.637-0.608
				c0.222-0.18,0.437-0.354,0.646-0.523c0.816-0.701,1.611-1.202,2.245-1.638c0.311-0.228,0.621-0.379,0.877-0.532
				c0.259-0.149,0.48-0.275,0.658-0.377C221.695,239.503,221.886,239.394,221.886,239.394z"/>
			<path fill="#0A8B44" d="M205.143,229.356c0,0-0.707,0.424-1.733,1.419c-0.255,0.249-0.539,0.523-0.818,0.85
				c-0.143,0.16-0.292,0.326-0.447,0.499c-0.143,0.182-0.292,0.371-0.445,0.566c-0.151,0.197-0.314,0.394-0.469,0.607
				c-0.148,0.218-0.299,0.443-0.455,0.673c-0.151,0.234-0.327,0.459-0.472,0.712c-0.147,0.252-0.298,0.51-0.452,0.773
				c-0.325,0.517-0.593,1.094-0.883,1.684c-0.309,0.581-0.547,1.219-0.809,1.866c-0.123,0.327-0.278,0.646-0.38,0.991
				c-0.109,0.342-0.219,0.687-0.33,1.037c-0.108,0.35-0.229,0.701-0.333,1.06c-0.089,0.364-0.178,0.731-0.269,1.101
				c-0.09,0.37-0.182,0.743-0.273,1.119c-0.092,0.376-0.137,0.765-0.209,1.15c-0.065,0.387-0.131,0.776-0.197,1.167l-0.099,0.588
				c-0.027,0.197-0.041,0.397-0.062,0.596c-0.078,0.797-0.156,1.6-0.235,2.406c-0.038,0.809-0.052,1.623-0.079,2.436
				c-0.006,0.403-0.045,0.821-0.026,1.212c0.016,0.412,0.022,0.822,0.018,1.231c-0.005,0.818-0.041,1.632-0.104,2.437
				c-0.127,1.61-0.352,3.188-0.698,4.689c-0.34,1.502-0.795,2.926-1.362,4.221c-0.567,1.294-1.242,2.458-1.981,3.445
				c-0.731,0.995-1.554,1.788-2.338,2.407c-0.776,0.635-1.547,1.053-2.179,1.387c-0.326,0.149-0.621,0.272-0.876,0.382
				c-0.254,0.114-0.486,0.168-0.666,0.234c-0.364,0.119-0.558,0.183-0.558,0.183s0.192-0.07,0.551-0.202
				c0.177-0.072,0.406-0.134,0.655-0.256c0.25-0.118,0.538-0.254,0.861-0.406c0.62-0.349,1.374-0.782,2.124-1.43
				c0.758-0.633,1.547-1.434,2.256-2.424c0.714-0.985,1.36-2.142,1.9-3.427c0.539-1.286,0.962-2.7,1.296-4.185
				c0.333-1.485,0.549-3.049,0.666-4.644c0.058-0.798,0.09-1.604,0.091-2.412c0.002-0.404-0.007-0.81-0.024-1.213
				c-0.022-0.424,0.014-0.823,0.02-1.236c0.032-0.819,0.05-1.638,0.093-2.453c0.083-0.812,0.167-1.621,0.249-2.424
				c0.022-0.2,0.037-0.401,0.066-0.6l0.103-0.593c0.069-0.394,0.137-0.786,0.205-1.176c0.074-0.388,0.122-0.78,0.217-1.159
				c0.095-0.379,0.189-0.755,0.282-1.128c0.093-0.373,0.186-0.743,0.277-1.109c0.105-0.363,0.233-0.715,0.349-1.067
				c0.118-0.351,0.234-0.698,0.349-1.041c0.108-0.345,0.27-0.666,0.399-0.994c0.274-0.65,0.525-1.288,0.846-1.87
				c0.302-0.591,0.581-1.168,0.917-1.684c0.16-0.263,0.316-0.52,0.468-0.772c0.15-0.253,0.33-0.479,0.49-0.709
				c0.163-0.227,0.323-0.449,0.477-0.665c0.161-0.21,0.332-0.405,0.489-0.598c0.16-0.192,0.314-0.377,0.463-0.556
				c0.16-0.169,0.315-0.333,0.463-0.489c0.29-0.32,0.582-0.588,0.846-0.831C204.424,229.76,205.143,229.356,205.143,229.356z"/>
			<path fill="#96CA4F" d="M170.859,204.742c0.869-0.189,22.562-1.165,22.27,29.596c-0.069,7.204-1.52,14.712-4.102,21.418
				c-2.076,5.392-5.14,10.614-9.753,14.215c-5.642,4.404-12.616,5.93-18.973,2.282c-4.591-2.635-7.209-7.355-8.845-12.224
				c-3.391-10.096-3.813-24.114-1.385-34.449C152.623,214.712,159.821,207.138,170.859,204.742z"/>
			<path fill="#96CA4F" d="M215.722,243.977c6.283-1.407,10.748,5.513,13.992,9.59c3.843,4.83,6.783,10.239,11.272,14.535
				c4.193,4.013,8.563,7.965,13.311,11.369c14.981,10.744,30.614,18.588,47.766,25.308c8.002,3.135,16.483,5.084,24.275,8.44
				c9.267,3.991,19.186,5.132,28.986,7.636c6.117,1.563,12.551,3.727,18.874,2.897c1.3-0.17,9.157,0.195,9.934-0.488
				c-4.48,3.936-14.507,6.079-18.157,7.054c-14.428,3.855-28.482,2.855-43.134,1.439c-16.839-1.627-33.626-4.041-50.115-7.865
				c-0.258-0.06-0.515-0.12-0.773-0.18c-39.852-9.377-52.159-19.047-57.141-29.889c0,0-5.651,0.439-11.23-1.673
				c-3.302-1.281-6.231-3.336-8.164-6.28c-0.033-0.051-0.066-0.101-0.098-0.152c-0.261-0.408-0.506-0.83-0.727-1.272
				c0,0-6.154-2.637-9.67-9.963c0,0-0.016-0.001-0.052-0.005c-0.025-0.003-0.06-0.007-0.121-0.016
				c-2.549-0.375-4.538-2.426-5.297-4.825c-2.828,3.361-9.155,5.21-13.356,4.203c-4.7-1.127-8.558-4.707-10.86-8.956
				c-2.302-4.25-3.205-9.124-3.544-13.945c-0.484-6.87,0.21-14.775,1.794-21.462c1.422-6.005,3.748-11.023,8.536-14.938
				c4.355-3.561,10.238-4.606,15.73-4.128c9.56,0.831,14.397,8.301,20.009,15.151c0.702,0.857,5.399,7.943,2.312,8.773
				c4.293-1.155,8.968,1,12.436,3.418C213.436,238.398,218.886,243.268,215.722,243.977z"/>
			<g>
				<path fill="#96CA4F" d="M253.163,297.615c10.064,5.356,1.352,23.879-9.739,15.993c-4.362-3.101-4.896-7.019-3.827-12.012
					L253.163,297.615z"/>
				<path fill="#96CA4F" d="M253.163,297.615c10.064,5.356,1.352,23.879-9.739,15.993c-4.362-3.101-4.896-7.019-3.827-12.012
					L253.163,297.615z"/>
				<path fill="#0A8B44" d="M253.163,297.615c0,0,0.147,0.086,0.421,0.249c0.136,0.083,0.309,0.177,0.504,0.302
					c0.185,0.14,0.397,0.302,0.635,0.482c0.24,0.179,0.459,0.429,0.724,0.674c0.136,0.119,0.238,0.28,0.367,0.426
					c0.118,0.154,0.261,0.301,0.372,0.477c0.478,0.685,0.898,1.543,1.174,2.536c0.561,1.983,0.431,4.513-0.565,6.895
					c-0.497,1.188-1.201,2.347-2.137,3.332c-0.93,0.986-2.091,1.804-3.4,2.268c-1.307,0.476-2.75,0.515-4.076,0.22
					c-1.327-0.3-2.561-0.879-3.608-1.626c-1.061-0.719-1.994-1.578-2.706-2.521c-0.716-0.942-1.198-1.975-1.462-2.971
					c-0.27-0.997-0.332-1.946-0.325-2.777c-0.001-0.834,0.095-1.554,0.169-2.145c0.096-0.589,0.175-1.05,0.247-1.361
					c0.065-0.312,0.1-0.479,0.1-0.479s-0.031,0.167-0.088,0.481c-0.064,0.313-0.131,0.776-0.212,1.365
					c-0.059,0.591-0.136,1.312-0.114,2.139c0.016,0.824,0.101,1.759,0.376,2.735c0.274,0.974,0.759,1.977,1.472,2.888
					c0.712,0.914,1.63,1.733,2.681,2.444c1.032,0.73,2.24,1.286,3.526,1.571c1.285,0.279,2.671,0.234,3.928-0.229
					c1.263-0.441,2.392-1.227,3.302-2.183c0.917-0.955,1.611-2.086,2.103-3.247c0.985-2.327,1.166-4.802,0.637-6.759
					c-0.262-0.977-0.652-1.83-1.105-2.519c-0.106-0.177-0.242-0.325-0.356-0.48c-0.123-0.148-0.22-0.31-0.352-0.431
					c-0.256-0.248-0.469-0.503-0.702-0.687c-0.232-0.186-0.439-0.351-0.619-0.495c-0.191-0.129-0.362-0.229-0.496-0.315
					C253.308,297.705,253.163,297.615,253.163,297.615z"/>
			</g>
			<path fill="#D7E7A5" d="M359.197,331.576l-0.232-0.295c8.03-6.309,6.683-22.529,6.668-22.692l0.374-0.034
				C366.023,308.72,367.387,325.141,359.197,331.576z"/>
			<path fill="#D7E7A5" d="M339.773,333.018l-0.272-0.259c0.855-0.897,1.701-1.824,2.516-2.757
				c5.713-6.546,7.969-16.781,5.747-26.074l0.365-0.087c2.25,9.407-0.038,19.773-5.829,26.408
				C341.482,331.185,340.632,332.117,339.773,333.018z"/>
			<path fill="#D7E7A5" d="M324.791,332.143l-0.22-0.304c4.277-3.087,7.45-7.208,9.177-11.916c2.229-6.078,2.496-13.294,0.732-19.8
				l0.363-0.098c1.783,6.579,1.513,13.878-0.742,20.027C332.349,324.831,329.129,329.012,324.791,332.143z"/>
			<path fill="#D7E7A5" d="M310.159,330.017l-0.223-0.302c13.234-9.781,10.214-32.995,10.182-33.229l0.372-0.051
				C320.522,296.67,323.573,320.102,310.159,330.017z"/>
			<path fill="none" stroke="#231F20" stroke-width="0.9588" stroke-miterlimit="10" d="M205.143,288.548"/>
			<path fill="#289849" d="M303.112,282.102c1.523,0.506,5.495-1.69,6.862-2.191c12.271-4.502,24.309-10.008,35.586-16.622
				c4.674-2.741,34.506-21.949,24.638-28.433c-2.835-1.863-6.146,0.175-8.48,1.925c0,0-78.141,28.912-96.114,28.131L303.112,282.102
				z"/>
			<path fill="#0A8B44" d="M303.649,282.364c-0.221,0-0.421-0.026-0.595-0.084l-0.019-0.008l-38.381-17.591l0.959,0.042
				c0.235,0.01,0.483,0.015,0.739,0.015c18.907,0,93.525-27.479,95.277-28.126c2.333-1.746,5.76-3.829,8.674-1.915
				c1.413,0.928,2.11,2.166,2.071,3.678c-0.202,7.928-21.125,21.795-26.717,25.074c-10.785,6.326-22.768,11.923-35.616,16.637
				c-0.324,0.119-0.806,0.339-1.364,0.594C307.083,281.407,304.985,282.364,303.649,282.364z M303.181,281.927
				c1.092,0.351,3.645-0.815,5.338-1.588c0.565-0.258,1.053-0.481,1.391-0.605c12.827-4.706,24.79-10.294,35.556-16.608
				c1.851-1.086,8.527-5.301,14.711-10.259c7.647-6.131,11.735-11.146,11.82-14.501c0.035-1.373-0.605-2.502-1.902-3.355
				c-2.695-1.77-5.832,0.095-8.264,1.918l-0.047,0.026c-0.769,0.285-75.913,28.005-95.286,28.157L303.181,281.927z"/>
			<g>
				
					<ellipse transform="matrix(-0.9773 -0.2117 0.2117 -0.9773 286.1615 497.8482)" fill="#30302F" cx="169.727" cy="233.608" rx="10.809" ry="16.098"/>
				<path fill="#0A8B44" d="M167.878,249.714c-0.535,0-1.07-0.056-1.602-0.171c-5.936-1.285-9.217-9.48-7.314-18.267
					c0.919-4.242,2.894-7.993,5.562-10.56c2.69-2.589,5.763-3.67,8.655-3.043c2.891,0.626,5.242,2.882,6.62,6.351
					c1.367,3.442,1.613,7.673,0.694,11.915C178.76,243.939,173.318,249.714,167.878,249.714z M171.557,217.912
					c-2.288,0-4.635,1.068-6.748,3.101c-2.61,2.511-4.543,6.187-5.445,10.35c-1.855,8.564,1.285,16.539,6.999,17.776
					c0.505,0.109,1.014,0.163,1.523,0.163c5.246,0.001,10.512-5.643,12.203-13.45c0.901-4.163,0.662-8.309-0.675-11.675
					c-1.325-3.338-3.571-5.505-6.323-6.1C172.585,217.967,172.073,217.912,171.557,217.912z"/>
			</g>
			<path fill="#96CA4F" d="M196.006,277.343c-0.41,0.254-0.86,0.486-1.342,0.489c-1.047,0.008-1.821-1.1-1.849-2.147
				c-0.029-1.047,0.471-2.026,0.942-2.961c1.324-2.626,2.522-5.315,3.589-8.056c1.86-4.775,1.479-9.129,2.354-14.043
				c0.188-1.055,0.519-2.223,1.456-2.743c1.929-1.07,4.026,1.066,4.397,2.784c0.637,2.953-0.254,7.024-0.753,9.954
				C203.762,266.707,201.584,273.897,196.006,277.343z"/>
			<g>
				<circle fill="#FFFFFF" cx="206.901" cy="235.803" r="1.758"/>
				<path fill="#0A8B44" d="M206.901,237.672c-1.03,0-1.869-0.838-1.869-1.869c0-1.03,0.838-1.869,1.869-1.869
					c1.031,0,1.869,0.838,1.869,1.869C208.77,236.834,207.932,237.672,206.901,237.672z M206.901,234.156
					c-0.908,0-1.647,0.739-1.647,1.647c0,0.908,0.739,1.647,1.647,1.647c0.908,0,1.647-0.739,1.647-1.647
					C208.548,234.895,207.809,234.156,206.901,234.156z"/>
			</g>
			<g>
				<circle fill="#191918" cx="197.377" cy="226.28" r="1.758"/>
				<path fill="#0A8B44" d="M197.378,228.203c-1.061,0-1.923-0.863-1.923-1.923c0-1.061,0.863-1.923,1.923-1.923
					s1.923,0.863,1.923,1.923C199.301,227.34,198.438,228.203,197.378,228.203z M197.378,224.687c-0.878,0-1.593,0.715-1.593,1.593
					c0,0.878,0.715,1.593,1.593,1.593c0.878,0,1.593-0.715,1.593-1.593C198.971,225.402,198.256,224.687,197.378,224.687z"/>
			</g>
			<g>
				<circle fill="#191918" cx="195.961" cy="233.557" r="1.465"/>
				<path fill="#0A8B44" d="M195.961,235.159c-0.884,0-1.603-0.719-1.603-1.603c0-0.884,0.719-1.603,1.603-1.603
					c0.883,0,1.603,0.719,1.603,1.603C197.564,234.44,196.845,235.159,195.961,235.159z M195.961,232.229
					c-0.732,0-1.328,0.596-1.328,1.328c0,0.732,0.596,1.327,1.328,1.327c0.732,0,1.327-0.596,1.327-1.327
					C197.288,232.825,196.693,232.229,195.961,232.229z"/>
			</g>
			<g>
				<circle fill="#191918" cx="195.18" cy="219.882" r="1.074"/>
				<path fill="#0A8B44" d="M195.18,221.057c-0.648,0-1.176-0.527-1.176-1.175c0-0.648,0.527-1.175,1.176-1.175
					c0.648,0,1.175,0.527,1.175,1.175C196.355,220.53,195.828,221.057,195.18,221.057z M195.18,218.908
					c-0.537,0-0.974,0.437-0.974,0.973s0.437,0.973,0.974,0.973c0.537,0,0.973-0.437,0.973-0.973S195.716,218.908,195.18,218.908z"
					/>
			</g>
			<g>
				<circle fill="#FFFFFF" cx="211.003" cy="242.25" r="1.465"/>
				<path fill="#0A8B44" d="M211.003,243.807c-0.859,0-1.557-0.699-1.557-1.557c0-0.859,0.699-1.558,1.557-1.558
					c0.859,0,1.558,0.699,1.558,1.558C212.561,243.109,211.862,243.807,211.003,243.807z M211.003,240.877
					c-0.757,0-1.372,0.616-1.372,1.373c0,0.757,0.615,1.372,1.372,1.372s1.373-0.615,1.373-1.372
					C212.376,241.493,211.76,240.877,211.003,240.877z"/>
			</g>
			<g>
				<circle fill="#FFFFFF" cx="200.747" cy="242.25" r="1.465"/>
				<path fill="#0A8B44" d="M200.747,243.807c-0.859,0-1.557-0.699-1.557-1.557c0-0.859,0.699-1.558,1.557-1.558
					c0.859,0,1.558,0.699,1.558,1.558C202.305,243.109,201.606,243.807,200.747,243.807z M200.747,240.877
					c-0.757,0-1.372,0.616-1.372,1.373c0,0.757,0.615,1.372,1.372,1.372c0.757,0,1.373-0.615,1.373-1.372
					C202.12,241.493,201.504,240.877,200.747,240.877z"/>
			</g>
			<path fill="#0A8B44" d="M214.813,293.823c0,0,0.187-0.065,0.539-0.186c0.174-0.064,0.396-0.127,0.644-0.231
				c0.248-0.104,0.533-0.223,0.852-0.357c0.31-0.153,0.654-0.323,1.027-0.508c0.357-0.215,0.761-0.418,1.16-0.688
				c0.818-0.509,1.675-1.18,2.56-1.963c0.882-0.788,1.76-1.728,2.587-2.801c0.83-1.071,1.609-2.273,2.322-3.567
				c0.717-1.293,1.339-2.695,1.807-4.167c0.474-1.475,0.809-3.02,1.071-4.577c0.536-3.113,0.833-6.286,1.536-9.193
				c0.086-0.363,0.17-0.724,0.276-1.076c0.103-0.346,0.188-0.715,0.316-1.047c0.059-0.169,0.118-0.337,0.177-0.503
				c0.062-0.166,0.14-0.33,0.208-0.493c0.133-0.331,0.296-0.64,0.455-0.945c0.646-1.216,1.442-2.26,2.28-3.115
				c0.835-0.861,1.715-1.53,2.54-2.04c0.827-0.508,1.588-0.885,2.241-1.125c0.321-0.135,0.618-0.226,0.876-0.304
				c0.256-0.085,0.478-0.144,0.66-0.181c0.362-0.085,0.555-0.13,0.555-0.13s-0.191,0.052-0.55,0.15
				c-0.18,0.044-0.399,0.11-0.652,0.204c-0.254,0.087-0.547,0.186-0.863,0.329c-0.643,0.256-1.388,0.651-2.193,1.175
				c-0.803,0.527-1.652,1.211-2.463,2.069c-0.812,0.855-1.577,1.895-2.19,3.096c-0.151,0.301-0.306,0.606-0.428,0.927
				c-0.064,0.16-0.135,0.316-0.195,0.481c-0.056,0.168-0.112,0.336-0.169,0.506c-0.208,0.672-0.405,1.377-0.566,2.098
				c-0.682,2.882-0.96,6.044-1.484,9.182c-0.272,1.567-0.619,3.127-1.108,4.621c-0.486,1.5-1.124,2.915-1.855,4.217
				c-1.45,2.614-3.244,4.807-5.054,6.368c-0.904,0.781-1.79,1.432-2.629,1.92c-0.409,0.26-0.822,0.453-1.187,0.659
				c-0.381,0.175-0.731,0.335-1.047,0.48c-0.324,0.125-0.614,0.236-0.866,0.333c-0.252,0.097-0.474,0.153-0.65,0.212
				C215.002,293.764,214.813,293.823,214.813,293.823z"/>
			<path fill="#0A8B44" d="M188.238,252.211c0,0,0.209-0.635,0.6-1.826c0.38-1.194,0.931-2.948,1.527-5.209
				c0.587-2.262,1.232-5.034,1.644-8.263c0.394-3.223,0.584-6.924,0.003-10.885c-0.288-1.978-0.719-4.025-1.334-6.089
				c-0.625-2.06-1.486-4.131-2.678-6.081c-1.211-1.932-2.78-3.728-4.71-5.149c-1.933-1.412-4.161-2.512-6.536-3.257
				c-1.189-0.36-2.421-0.643-3.676-0.704c-0.626-0.037-1.258-0.016-1.875,0.094c-0.309,0.041-0.611,0.132-0.926,0.209l-0.936,0.237
				c-2.472,0.676-4.893,1.673-7.127,3.034c-2.234,1.357-4.27,3.077-5.987,5.088c-1.723,2.008-3.104,4.31-4.16,6.745
				c-1.068,2.441-1.781,5.001-2.271,7.623c-0.498,2.6-0.801,5.239-0.959,7.858c-0.306,5.24-0.101,10.435,0.656,15.38
				c0.376,2.472,0.88,4.883,1.54,7.197c0.662,2.312,1.492,4.525,2.559,6.549c1.059,2.025,2.383,3.848,3.957,5.31
				c1.558,1.475,3.393,2.551,5.266,3.202c1.89,0.631,3.818,0.854,5.631,0.762c1.818-0.077,3.519-0.467,5.047-1.005
				c1.525-0.555,2.882-1.266,4.042-2.059c1.161-0.794,2.123-1.669,2.924-2.517c0.803-0.849,1.437-1.681,1.953-2.428
				c0.522-0.743,0.911-1.412,1.226-1.953c0.301-0.549,0.529-0.972,0.669-1.264c0.145-0.289,0.22-0.439,0.22-0.439
				s-0.074,0.15-0.216,0.441c-0.138,0.293-0.362,0.718-0.658,1.271c-0.311,0.544-0.694,1.217-1.21,1.966
				c-0.51,0.752-1.138,1.592-1.936,2.451c-0.796,0.858-1.754,1.746-2.915,2.555c-1.161,0.809-2.518,1.535-4.051,2.109
				c-1.536,0.556-3.249,0.965-5.086,1.06c-1.834,0.11-3.788-0.118-5.708-0.75c-1.913-0.659-3.764-1.739-5.354-3.232
				c-1.6-1.478-2.946-3.32-4.021-5.361c-1.083-2.04-1.926-4.267-2.599-6.59c-0.671-2.325-1.185-4.746-1.57-7.228
				c-0.776-4.964-0.997-10.178-0.706-15.444c0.152-2.635,0.446-5.279,0.942-7.912c0.48-2.612,1.198-5.24,2.273-7.703
				c1.077-2.464,2.485-4.795,4.239-6.826c1.748-2.035,3.819-3.774,6.087-5.142c2.266-1.372,4.722-2.374,7.225-3.05l0.937-0.234
				c0.309-0.074,0.624-0.167,0.951-0.211c0.645-0.112,1.299-0.132,1.943-0.092c1.291,0.067,2.541,0.36,3.746,0.728
				c2.405,0.764,4.651,1.88,6.61,3.32c1.954,1.448,3.541,3.276,4.76,5.235c1.2,1.977,2.062,4.07,2.685,6.145
				c0.613,2.081,1.039,4.135,1.323,6.125c0.58,3.989,0.353,7.706-0.071,10.933c-0.441,3.234-1.112,6.004-1.719,8.262
				c-0.617,2.258-1.183,4.007-1.574,5.198C188.452,251.577,188.238,252.211,188.238,252.211z"/>
			<path fill="#96CA4F" d="M251.336,286.049c-0.733,1.766-2.994,2.286-4.904,2.206c-1.911-0.08-3.93-0.495-5.662,0.314
				c-1.737,0.811-3.039,2.789-4.954,2.703c-2.227-0.1-3.214-2.817-3.528-5.025C229.484,266.503,253.944,279.757,251.336,286.049z"/>
			<path fill="#96CA4F" d="M260.153,286.846c0.337,0.264,0.639,0.579,0.892,0.919c1.602,2.153,2.019,4.72-0.704,6.059
				c-1.218,0.599-2.821,0.292-3.721-0.725c-0.467-0.528-0.742-1.204-0.893-1.893c-0.42-1.916-0.533-5.081,2.196-5.164
				C258.735,286.017,259.509,286.34,260.153,286.846z"/>
			<path fill="#54B854" d="M254.665,345.689c0,0,12.307,15.531,19.926,43.368c0,0,1.758,4.395-0.586,5.275
				c0,0-1.812,1.036-3.734-3.951c-0.123-0.318-0.246-0.661-0.369-1.03c-2.051-6.154-14.048-31.328-19.34-39.266
				C249.976,349.206,254.665,345.689,254.665,345.689z"/>
			<path fill="#0A8B44" d="M273.581,394.563c-0.148,0-0.325-0.024-0.526-0.095c-0.72-0.256-1.81-1.164-2.916-4.036
				c-0.126-0.329-0.251-0.677-0.371-1.036c-2.089-6.265-14.091-31.382-19.323-39.232c-0.628-0.942,3.334-3.985,4.135-4.586
				c0.06-0.045,0.147-0.034,0.195,0.025c0.123,0.156,12.412,15.872,19.951,43.419c0.041,0.099,1.108,2.808,0.393,4.428
				c-0.216,0.49-0.575,0.831-1.066,1.016l0,0C274.057,394.464,273.88,394.563,273.581,394.563z M254.638,345.885
				c-1.888,1.43-4.306,3.602-3.959,4.121c5.242,7.863,17.265,33.023,19.356,39.3c0.119,0.355,0.242,0.7,0.367,1.024
				c1.062,2.756,2.072,3.624,2.733,3.866c0.487,0.179,0.788,0.02,0.801,0.013c0.436-0.166,0.742-0.457,0.926-0.874
				c0.668-1.512-0.391-4.198-0.402-4.225C267.259,362.803,255.738,347.322,254.638,345.885z"/>
			<path fill="#0A8B44" d="M343.647,333.214c-6.758,0-13.627-0.569-20.825-1.264c-18.696-1.806-35.097-4.38-50.139-7.868
				l-0.773-0.181c-34.529-8.125-51.126-16.787-57.217-29.876c-1.517,0.08-15.268,0.515-20.272-9.492
				c-0.072-0.118-0.633-0.361-0.903-0.477c-0.198-0.086-0.354-0.153-0.443-0.208c-1.244-0.754-2.449-1.683-3.583-2.76
				c-1.554-1.478-3.242-3.241-3.975-5.113c-0.099-0.254-0.153-0.463-0.2-0.647c-0.118-0.458-0.172-0.667-0.771-0.944
				c-2.236-1.032-4.623-2.399-5.38-4.722c-0.033-0.102,0.023-0.211,0.124-0.244c0.102-0.033,0.212,0.023,0.244,0.124
				c0.71,2.181,3.014,3.494,5.174,4.491c0.767,0.354,0.858,0.708,0.984,1.199c0.045,0.174,0.096,0.371,0.186,0.602
				c0.705,1.801,2.358,3.525,3.881,4.974c1.113,1.058,2.297,1.97,3.517,2.71c0.067,0.041,0.227,0.11,0.396,0.183
				c0.59,0.255,0.985,0.439,1.095,0.659c5.156,10.313,19.882,9.283,20.03,9.271c0.088-0.005,0.158,0.039,0.191,0.112
				c5.99,13.035,22.506,21.663,57.009,29.781l0.773,0.181c15.026,3.485,31.41,6.056,50.089,7.86
				c15.149,1.463,28.846,2.366,43.065-1.433c0.447-0.119,0.989-0.256,1.605-0.412c5.662-1.429,18.921-4.774,18.62-10.764
				c-0.284-5.553-11.276-7.672-17.182-8.81c-1.112-0.215-2.073-0.4-2.803-0.573c-2.56-0.607-5.176-1.181-7.705-1.736
				c-5.676-1.245-11.546-2.533-17.199-4.283c-34.501-10.682-68.537-27.164-98.428-47.664c-0.012-0.008-0.024-0.018-0.034-0.029
				c-9.237-10.16-17.593-14.758-20.721-15.77c-0.039-0.013-0.073-0.037-0.097-0.07c-4.566-6.278-16.397-10.31-16.899-10.479
				c-0.221-0.074-0.395-0.449-0.728-1.319c-0.064-0.167-0.114-0.303-0.144-0.358c-0.676-1.287-1.539-2.593-2.567-3.883
				c-1.801-2.261-4.084-4.386-6.786-6.317c-1.142-0.816-2.386-1.533-3.589-2.226c-1.252-0.722-2.547-1.468-3.729-2.327
				c-0.086-0.063-0.106-0.184-0.043-0.271c0.063-0.087,0.185-0.105,0.271-0.043c1.165,0.848,2.451,1.588,3.695,2.305
				c1.211,0.698,2.463,1.42,3.621,2.247c2.731,1.951,5.04,4.102,6.863,6.39c1.043,1.309,1.92,2.636,2.607,3.944
				c0.033,0.062,0.091,0.213,0.163,0.4c0.115,0.3,0.383,1.003,0.508,1.1c0.487,0.16,12.368,4.211,17.033,10.558
				c3.203,1.057,11.579,5.689,20.813,15.841c29.855,20.473,63.846,36.932,98.305,47.601c5.638,1.745,11.499,3.031,17.167,4.275
				c2.531,0.555,5.148,1.129,7.711,1.737c0.722,0.171,1.679,0.356,2.787,0.569c6.431,1.24,17.196,3.315,17.496,9.171
				c0.317,6.307-12.671,9.584-18.912,11.159c-0.614,0.155-1.155,0.291-1.6,0.41C358.512,332.513,351.148,333.214,343.647,333.214z"
				/>
			<g>
				<g>
					<path fill="#D9F0F6" d="M234.72,258.669c4.594,8.708,11.698,13.574,19.231,19.47c7.848,6.143,16.557,11.135,25.548,15.399
						c18.382,8.719,37.998,14.854,58.082,18.109c14.99,2.429,30.17,3.728,45.358,3.697c7.39-0.015,14.792-0.324,22.144-1.088
						c2.175-0.226,5.747-0.025,7.762-1.029c8.312-4.142,0.591-7.879-0.578-7.793c-24.255-6.087-48.412-12.605-72.481-19.386
						c-16.454-4.635-32.861-9.452-49.131-14.702c-7.926-2.558-15.946-5.047-23.831-7.65c-8.573-2.83-17.269-5.62-25.617-8.905
						L234.72,258.669z"/>
					<path fill="#9FBEC4" d="M382.421,315.533c-14.625,0-29.717-1.244-44.87-3.7c-20.078-3.254-39.636-9.352-58.133-18.125
						c-10.043-4.763-18.411-9.807-25.583-15.421c-0.812-0.636-1.62-1.26-2.42-1.878c-6.554-5.064-12.744-9.848-16.861-17.652
						l0.332-0.175c4.079,7.732,10.238,12.492,16.759,17.53c0.801,0.619,1.609,1.243,2.422,1.879
						c7.15,5.597,15.495,10.627,25.512,15.377c18.465,8.758,37.99,14.846,58.032,18.094c15.31,2.481,30.567,3.723,45.327,3.695
						c8.01-0.016,15.247-0.372,22.125-1.087c0.608-0.064,1.321-0.093,2.076-0.125c1.969-0.083,4.2-0.177,5.621-0.885
						c2.773-1.382,4.027-2.882,3.627-4.338c-0.504-1.837-3.489-3.145-4.107-3.099l-0.03,0.002l-0.029-0.007
						c-22.605-5.673-46.316-12.015-72.486-19.387c-19.174-5.402-34.788-10.074-49.138-14.705c-3.043-0.982-6.099-1.954-9.157-2.926
						c-4.826-1.535-9.816-3.121-14.675-4.725l-3.014-0.993c-7.49-2.465-15.236-5.013-22.612-7.916l0.138-0.35
						c7.366,2.899,15.107,5.446,22.592,7.909l3.015,0.993c4.857,1.604,9.846,3.19,14.671,4.724c3.058,0.972,6.115,1.944,9.159,2.926
						c14.345,4.629,29.954,9.299,49.124,14.7c26.157,7.369,49.855,13.708,72.45,19.378c0.004,0,0.008,0,0.012,0
						c0.809,0,3.889,1.329,4.451,3.376c0.46,1.674-0.826,3.281-3.822,4.774c-1.493,0.744-3.767,0.84-5.773,0.924
						c-0.749,0.032-1.457,0.062-2.054,0.124c-6.89,0.717-14.14,1.073-22.163,1.09C382.768,315.533,382.594,315.533,382.421,315.533z
						"/>
				</g>
				<path fill="#FFFFFF" d="M398.106,311.097c0,0-0.662-0.079-1.902-0.228c-1.241-0.147-3.06-0.365-5.373-0.667
					c-1.157-0.145-2.437-0.314-3.83-0.507c-1.393-0.189-2.9-0.393-4.507-0.629c-3.217-0.454-6.841-1.007-10.786-1.656
					c-7.892-1.295-17.074-2.963-26.864-4.988c-4.895-1.012-9.943-2.108-15.06-3.276c-5.115-1.18-10.304-2.396-15.49-3.639
					c-5.18-1.262-10.347-2.59-15.394-4.037c-5.043-1.46-9.971-3.027-14.659-4.773c-2.344-0.869-4.627-1.792-6.851-2.702
					c-2.228-0.902-4.419-1.764-6.533-2.65c-4.232-1.758-8.143-3.676-11.516-5.839c-3.385-2.132-6.384-4.25-8.972-6.215
					c-2.591-1.962-4.777-3.767-6.542-5.292c-0.882-0.763-1.661-1.454-2.332-2.063c-0.667-0.612-1.253-1.116-1.658-1.595
					c-0.408-0.475-0.631-0.911-0.721-1.221c-0.049-0.154-0.072-0.275-0.082-0.356c-0.011-0.081-0.017-0.122-0.017-0.122
					s0.006,0.041,0.018,0.122c0.011,0.081,0.035,0.202,0.085,0.355c0.092,0.309,0.319,0.742,0.73,1.212
					c0.408,0.474,0.997,0.973,1.67,1.579c0.676,0.603,1.46,1.288,2.348,2.043c3.551,3.019,8.807,7.141,15.579,11.39
					c3.369,2.146,7.27,4.047,11.501,5.79c2.114,0.879,4.305,1.734,6.538,2.63c2.23,0.905,4.507,1.818,6.851,2.68
					c4.685,1.729,9.611,3.281,14.652,4.724c5.046,1.432,10.212,2.741,15.392,3.991c5.179,1.256,10.367,2.487,15.475,3.682
					c5.112,1.182,10.154,2.292,15.045,3.318c9.781,2.052,18.955,3.746,26.841,5.063c1.973,0.321,3.863,0.628,5.662,0.921
					c1.798,0.293,3.506,0.557,5.112,0.798c1.605,0.249,3.109,0.465,4.501,0.666c1.391,0.205,2.669,0.383,3.825,0.538
					c2.31,0.321,4.128,0.554,5.367,0.711C397.445,311.012,398.106,311.097,398.106,311.097z"/>
				<path fill="#FFFFFF" d="M378.03,301.442c0,0-2.003-0.42-5.509-1.155c-1.75-0.379-3.876-0.84-6.314-1.368
					c-2.437-0.536-5.184-1.147-8.175-1.843c-11.965-2.77-27.882-6.643-43.659-11.044c-1.97-0.557-3.94-1.115-5.896-1.692
					c-0.979-0.286-1.956-0.571-2.93-0.856c-0.972-0.293-1.94-0.584-2.905-0.875c-3.861-1.158-7.645-2.35-11.296-3.537
					c-3.651-1.187-7.162-2.39-10.478-3.569c-1.658-0.589-3.259-1.196-4.814-1.765c-1.549-0.584-3.035-1.178-4.467-1.732
					c-1.426-0.57-2.781-1.145-4.074-1.681c-1.289-0.545-2.492-1.11-3.633-1.615c-0.285-0.128-0.564-0.254-0.84-0.377
					c-0.271-0.132-0.538-0.262-0.8-0.389c-0.524-0.255-1.029-0.501-1.515-0.738c-0.485-0.237-0.95-0.465-1.394-0.683
					c-0.436-0.233-0.853-0.456-1.248-0.667c-0.788-0.426-1.499-0.793-2.104-1.135c-0.597-0.357-1.105-0.661-1.517-0.907
					c-0.823-0.493-1.262-0.755-1.262-0.755s0.442,0.258,1.271,0.741c0.414,0.242,0.925,0.54,1.526,0.89
					c0.609,0.336,1.324,0.694,2.116,1.111c0.397,0.207,0.815,0.424,1.254,0.653c0.447,0.213,0.914,0.435,1.401,0.667
					c0.488,0.231,0.995,0.471,1.522,0.72c0.263,0.124,0.531,0.251,0.804,0.38c0.276,0.121,0.558,0.243,0.843,0.368
					c1.146,0.492,2.353,1.043,3.647,1.573c1.298,0.522,2.651,1.098,4.079,1.66c1.433,0.548,2.92,1.136,4.47,1.713
					c1.556,0.562,3.157,1.163,4.817,1.745c3.318,1.165,6.832,2.354,10.485,3.526c3.653,1.173,7.439,2.349,11.303,3.492
					c0.966,0.287,1.935,0.575,2.907,0.863c0.975,0.281,1.952,0.562,2.931,0.844c1.957,0.57,3.929,1.118,5.899,1.67
					c15.753,4.46,31.651,8.394,43.603,11.209c5.977,1.404,10.961,2.565,14.457,3.346C376.032,300.999,378.03,301.442,378.03,301.442
					z"/>
			</g>
			<g>
				<path fill="#54B854" d="M350.779,384.858c0,0,9.768,6.642,11.135,17.191c0,0-4.689-9.377-13.284-14.065
					C348.63,387.983,347.067,383.099,350.779,384.858z"/>
				<path fill="#0A8B44" d="M362.243,403.126l-0.497-0.993c-0.047-0.093-4.763-9.38-13.206-13.985l-0.066-0.036l-0.023-0.072
					c-0.034-0.107-0.823-2.617,0.154-3.472c0.466-0.408,1.224-0.368,2.254,0.12l0.025,0.015c0.098,0.067,9.853,6.811,11.216,17.322
					L362.243,403.126z M348.786,387.855c6.902,3.793,11.326,10.658,12.774,13.163c-1.794-9.578-10.503-15.738-10.876-15.997
					c-0.874-0.412-1.491-0.47-1.832-0.171C348.216,385.407,348.571,387.143,348.786,387.855z"/>
				<path fill="#54B854" d="M353.705,341.342c-0.147,3.455-0.131,6.912-0.295,10.366c-0.168,3.528-0.365,7.054-0.562,10.581
					c-0.431,7.711-0.863,15.423-1.294,23.134c-0.225,4.027-3.939,3.545-4.214-0.171c-0.378-5.118-0.277-10.329-0.279-15.458
					c-0.003-10.258,0.369-20.511,1.071-30.744c0.476,2.235,4.897-1.348,5.878-2.143
					C353.861,338.384,353.768,339.863,353.705,341.342z"/>
				<path fill="#0A8B44" d="M349.591,388.434c-1.098,0-2.284-1.085-2.438-3.169c-0.312-4.217-0.298-8.548-0.284-12.737
					c0.003-0.913,0.006-1.825,0.005-2.735c-0.003-9.994,0.357-20.342,1.071-30.757c0.007-0.093,0.081-0.168,0.174-0.174
					c0.103-0.009,0.178,0.057,0.197,0.148c0.06,0.283,0.191,0.457,0.4,0.531c0.452,0.161,1.729,0.014,5.176-2.78
					c0.059-0.048,0.141-0.056,0.207-0.02c0.067,0.036,0.105,0.109,0.098,0.184c-0.134,1.329-0.234,2.776-0.304,4.424l0,0
					c-0.069,1.637-0.103,3.302-0.135,4.913c-0.036,1.787-0.073,3.636-0.159,5.454c-0.165,3.483-0.363,7.021-0.555,10.443
					l-1.301,23.273c-0.123,2.202-1.228,2.993-2.136,3.001C349.601,388.434,349.596,388.434,349.591,388.434z M348.276,339.709
					c-0.685,10.187-1.03,20.306-1.027,30.084c0,0.91-0.003,1.822-0.005,2.736c-0.013,4.181-0.028,8.505,0.283,12.708
					c0.137,1.855,1.14,2.821,2.063,2.821c0.004,0,0.008,0,0.012,0c0.746-0.007,1.656-0.704,1.765-2.646l1.301-23.274
					c0.192-3.421,0.389-6.959,0.555-10.44c0.086-1.813,0.123-3.659,0.159-5.444c0.033-1.613,0.066-3.281,0.136-4.921l0,0
					c0.063-1.474,0.149-2.788,0.263-4.002c-2.547,2.018-4.289,2.882-5.19,2.564C348.47,339.852,348.365,339.79,348.276,339.709z"/>
				<g>
					<path fill="#54B854" d="M375.393,275.069c0,0-13.772,53.331-20.219,64.174c0,0-1.758,4.395-5.568,3.223
						c0,0-2.344-2.344-0.293-5.861c0,0,15.824-39.852,15.238-55.676L375.393,275.069z"/>
					<path fill="#0A8B44" d="M350.859,342.805c-0.403,0-0.834-0.062-1.294-0.204c-0.022-0.007-0.042-0.019-0.058-0.035
						c-0.024-0.024-2.397-2.462-0.315-6.031c0.149-0.379,15.797-39.987,15.218-55.599c-0.002-0.054,0.027-0.104,0.074-0.129
						l10.842-5.86c0.049-0.027,0.109-0.021,0.154,0.013c0.044,0.034,0.063,0.092,0.049,0.146
						c-0.138,0.534-13.851,53.475-20.234,64.21C355.288,339.337,353.861,342.805,350.859,342.805z M349.683,342.342
						c3.619,1.084,5.343-3.109,5.36-3.152c6.116-10.289,18.984-59.43,20.132-63.843l-10.481,5.665
						c0.52,15.731-15.092,55.248-15.25,55.646C347.571,339.871,349.45,342.088,349.683,342.342z"/>
					<g>
						<path fill="#96CA4F" d="M373.342,279.758c1.263-1.151,4.395-9.67-2.051-10.842s-8.205,2.93-10.842,3.516
							c0,0-92.011,15.824-111.644,33.991c0,0-8.498,8.498,0.293,14.065C249.097,320.489,300.67,345.982,373.342,279.758z"/>
						<path fill="#96CA4F" d="M373.342,279.758c1.263-1.151,4.395-9.67-2.051-10.842s-8.205,2.93-10.842,3.516
							c0,0-92.011,15.824-111.644,33.991c0,0-8.498,8.498,0.293,14.065C249.097,320.489,300.67,345.982,373.342,279.758z"/>
						<path fill="#0A8B44" d="M275.942,325.497c-16.915,0-26.815-4.784-26.928-4.839c-2.445-1.548-3.801-3.456-4.048-5.681
							c-0.491-4.432,3.534-8.514,3.705-8.685c19.454-18.003,110.825-33.886,111.745-34.044c0.805-0.179,1.54-0.717,2.392-1.34
							c1.815-1.329,4.075-2.984,8.516-2.176c2.033,0.369,3.326,1.47,3.842,3.271c0.869,3.026-0.792,7.069-1.698,7.895l-0.127-0.139
							l0.127,0.139c-16.591,15.118-33.453,26.67-50.12,34.335c-13.339,6.134-26.583,9.805-39.365,10.913
							C281.154,325.39,278.468,325.497,275.942,325.497z M369.112,268.895c-2.922,0-4.645,1.262-6.082,2.314
							c-0.885,0.648-1.65,1.208-2.541,1.406c-0.928,0.16-92.189,16.024-111.557,33.946c-0.035,0.036-4.065,4.123-3.592,8.375
							c0.234,2.106,1.532,3.921,3.858,5.394c0.111,0.054,13.099,6.323,34.782,4.438c12.736-1.108,25.936-4.771,39.231-10.887
							c16.625-7.648,33.449-19.175,50.004-34.262c0.764-0.696,2.429-4.595,1.591-7.514c-0.474-1.652-1.668-2.663-3.549-3.005
							C370.476,268.958,369.764,268.895,369.112,268.895z"/>
					</g>
					<path fill="#96CA4F" d="M287.492,295.846c-10.177,3.657-20.329,7.764-29.105,14.082c-1.517,1.092-3.044,2.316-3.813,4.019
						c-0.77,1.703-0.523,4.007,1.026,5.054c0.846,0.572,1.913,0.682,2.931,0.763c15.157,1.205,30.522-0.439,45.111-4.707
						c7.432-2.174,14.667-5.03,21.571-8.537c6.214-3.157,12.12-8.551,2.107-12.26c5.428-1.132,10.721-2.917,15.727-5.302
						c7.089-3.379,14.064-6.136,20.342-11.066c0.801-0.629,1.671-1.486,1.489-2.489c-2.815-0.914-5.872-0.267-8.751,0.417
						C333.167,281.278,309.707,287.863,287.492,295.846z"/>
				</g>
			</g>
			<path fill="#54B854" d="M223.311,294.702c0,0-10.256,9.963,26.08,54.797c0,0,6.154,4.102,6.447-3.809
				c0,0-26.959-28.717-25.201-47.178L223.311,294.702z"/>
			<path fill="#0A8B44" d="M252.582,350.705c-1.612,0-3.185-1.033-3.27-1.089c-0.012-0.008-0.023-0.017-0.031-0.028
				c-10.369-12.794-23.417-30.86-26.693-44.266c-1.974-8.08,0.518-10.616,0.625-10.72c0.044-0.042,0.109-0.052,0.163-0.024
				l7.326,3.809c0.051,0.027,0.081,0.081,0.075,0.138c-1.732,18.187,24.894,46.781,25.163,47.068
				c0.026,0.028,0.04,0.064,0.038,0.102c-0.092,2.481-0.768,4.062-2.011,4.697C253.526,350.617,253.052,350.705,252.582,350.705z
				 M249.485,349.393c0.228,0.145,2.626,1.633,4.353,0.748c1.135-0.581,1.759-2.061,1.855-4.398
				c-1.186-1.279-26.821-29.166-25.206-47.149l-7.144-3.715c-0.382,0.472-2.245,3.238-0.462,10.457
				C224.7,312.702,230.793,326.325,249.485,349.393z"/>
			<g>
				<path fill="#96CA4F" d="M232.924,296.468c0.389,3.031,0.256,6.845-2.843,8.394c-7.696,3.847-12.181-8.227-6.539-12.872
					L232.924,296.468z"/>
				<path fill="#96CA4F" d="M232.924,296.468c0.389,3.031,0.256,6.845-2.843,8.394c-7.696,3.847-12.181-8.227-6.539-12.872
					L232.924,296.468z"/>
				<path fill="#0A8B44" d="M232.924,296.468c0,0,0.016,0.116,0.045,0.335c0.031,0.218,0.066,0.539,0.102,0.95
					c0.029,0.41,0.064,0.91,0.048,1.485c-0.016,0.574-0.052,1.227-0.214,1.921c-0.157,0.692-0.416,1.435-0.871,2.124
					c-0.451,0.689-1.106,1.305-1.93,1.702c-0.779,0.387-1.701,0.688-2.642,0.741c-0.947,0.068-1.925-0.16-2.772-0.617
					c-0.849-0.46-1.567-1.133-2.111-1.9c-0.55-0.765-0.95-1.609-1.22-2.458c-0.273-0.85-0.408-1.709-0.437-2.524
					c-0.027-0.815,0.039-1.59,0.203-2.283c0.163-0.692,0.39-1.308,0.663-1.817c0.13-0.257,0.283-0.481,0.412-0.693
					c0.152-0.198,0.284-0.385,0.415-0.543c0.14-0.151,0.265-0.287,0.373-0.404c0.11-0.116,0.22-0.199,0.3-0.274
					c0.165-0.146,0.253-0.223,0.253-0.223s-0.085,0.081-0.245,0.232c-0.078,0.078-0.183,0.164-0.289,0.283
					c-0.104,0.121-0.223,0.26-0.356,0.415c-0.125,0.162-0.249,0.353-0.391,0.553c-0.12,0.215-0.263,0.441-0.382,0.699
					c-0.25,0.511-0.449,1.124-0.599,1.805c-0.285,1.366-0.226,3.043,0.312,4.699c0.269,0.826,0.664,1.643,1.2,2.378
					c0.53,0.737,1.224,1.376,2.032,1.807c0.801,0.439,1.723,0.661,2.625,0.602c0.91-0.05,1.757-0.313,2.557-0.702
					c0.768-0.37,1.415-0.942,1.859-1.594c0.45-0.653,0.719-1.37,0.886-2.046c0.169-0.678,0.23-1.321,0.267-1.889
					c0.037-0.57,0.02-1.069,0.006-1.479c-0.02-0.41-0.043-0.732-0.067-0.951C232.935,296.585,232.924,296.468,232.924,296.468z"/>
			</g>
			<g>
				<g>
					<path fill="#54B854" d="M170.565,364.736c-1.172,0-9.67,4.395-11.428,8.205c0,0,10.549-6.447,12.893-6.74L170.565,364.736z"/>
					<path fill="#0A8B44" d="M159.137,373.082c-0.034,0-0.067-0.012-0.094-0.036c-0.046-0.041-0.06-0.108-0.034-0.164
						c1.803-3.907,10.443-8.287,11.556-8.287c0.037,0,0.073,0.015,0.099,0.041l1.465,1.465c0.038,0.038,0.051,0.094,0.034,0.145
						c-0.017,0.051-0.062,0.087-0.116,0.094c-2.288,0.286-12.732,6.656-12.837,6.72
						C159.188,373.075,159.162,373.082,159.137,373.082z M170.51,364.88c-1.239,0.124-8.875,4.026-11.013,7.678
						c1.957-1.183,9.777-5.853,12.245-6.445L170.51,364.88z"/>
					<path fill="#54B854" d="M183.752,334.554l-11.721,31.647c0,0-1.172,1.758-2.93-0.293c0,0,3.516-19.633,10.842-34.871
						L183.752,334.554z"/>
					<path fill="#0A8B44" d="M170.774,367.044c-0.588,0-1.187-0.351-1.781-1.043c-0.027-0.032-0.039-0.075-0.031-0.117
						c0.035-0.197,3.604-19.826,10.853-34.907c0.02-0.04,0.057-0.069,0.101-0.077c0.044-0.008,0.089,0.005,0.122,0.035l3.809,3.517
						c0.042,0.039,0.056,0.099,0.036,0.153l-11.721,31.647c-0.034,0.058-0.499,0.742-1.299,0.791
						C170.834,367.043,170.804,367.044,170.774,367.044z M169.251,365.867c0.548,0.623,1.072,0.922,1.596,0.893
						c0.662-0.04,1.063-0.631,1.067-0.636l11.673-31.53l-3.6-3.323C173.019,345.854,169.484,364.603,169.251,365.867z"/>
					<path fill="#54B854" d="M208.073,293.237c0,0-9.084,33.698-24.321,43.075c0,0-0.293,0.879-2.93-0.586c0,0-2.637,0-0.879-4.688
						c0,0,12.014-2.344,22.856-41.317L208.073,293.237z"/>
					<path fill="#0A8B44" d="M183.4,336.834c-0.551,0-1.342-0.276-2.361-0.824c-0.163-0.008-0.791-0.078-1.217-0.678
						c-0.583-0.821-0.519-2.23,0.19-4.187c0.016-0.046,0.056-0.08,0.104-0.09c0.029-0.007,3.024-0.691,7.248-6.122
						c7.07-9.091,12.078-24.24,15.034-35.349c0.012-0.044,0.044-0.079,0.086-0.095c0.042-0.016,0.089-0.012,0.127,0.013l5.314,3.456
						c0.05,0.033,0.075,0.095,0.06,0.153c-0.087,0.338-8.878,33.913-23.862,43.41c-0.037,0.064-0.12,0.17-0.295,0.24
						C183.706,336.809,183.564,336.834,183.4,336.834z M181.076,335.729c0.023,0,0.046,0.006,0.067,0.017
						c1.621,0.877,2.298,0.854,2.558,0.761c0.144-0.051,0.177-0.129,0.179-0.132c0.011-0.027,0.033-0.055,0.057-0.071
						c14.511-9.157,23.21-41.143,23.747-43.165l-5.065-3.295c-2.976,11.141-7.993,26.238-15.071,35.309
						c-3.951,5.063-6.787,6.021-7.298,6.158c-0.811,2.275-0.558,3.354-0.2,3.858c0.394,0.555,1.002,0.561,1.023,0.561h0
						C181.075,335.729,181.076,335.729,181.076,335.729z"/>
				</g>
				<g>
					<path fill="#96CA4F" d="M211.007,288.892c0.677,3.394-1.41,7.283-5.115,7.513c-2.493,0.155-4.455-1.986-4.89-4.307
						c-0.514-2.749,1.703-5.611,3.859-7.126L211.007,288.892z"/>
					<path fill="#96CA4F" d="M211.007,288.892c0.677,3.394-1.41,7.283-5.115,7.513c-2.493,0.155-4.455-1.986-4.89-4.307
						c-0.514-2.749,1.703-5.611,3.859-7.126L211.007,288.892z"/>
					<path fill="#0A8B44" d="M211.007,288.892c0,0,0.017,0.1,0.049,0.287c0.016,0.093,0.035,0.209,0.058,0.344
						c0.01,0.138,0.021,0.296,0.034,0.473c0.021,0.178,0.006,0.374,0.003,0.589c0.003,0.215-0.03,0.445-0.059,0.692
						c-0.018,0.249-0.095,0.503-0.147,0.778c-0.079,0.267-0.157,0.552-0.279,0.834c-0.216,0.575-0.566,1.153-1.009,1.701
						c-0.448,0.543-1.022,1.053-1.723,1.393c-0.695,0.349-1.492,0.539-2.308,0.557c-0.826,0.016-1.653-0.262-2.353-0.708
						c-1.389-0.934-2.262-2.506-2.433-4.043c-0.088-0.776,0.044-1.537,0.272-2.201c0.229-0.669,0.551-1.256,0.888-1.766
						c0.335-0.513,0.697-0.942,1.04-1.299c0.338-0.363,0.663-0.647,0.932-0.878c0.274-0.225,0.494-0.396,0.651-0.503
						c0.155-0.11,0.237-0.168,0.237-0.168s-0.08,0.062-0.23,0.178c-0.152,0.113-0.364,0.293-0.627,0.529
						c-0.517,0.478-1.229,1.207-1.87,2.227c-0.319,0.509-0.62,1.091-0.826,1.744c-0.206,0.653-0.308,1.373-0.225,2.107
						c0.172,1.467,1.03,2.97,2.345,3.838c0.658,0.424,1.425,0.689,2.198,0.681c0.774-0.011,1.536-0.186,2.2-0.513
						c0.668-0.322,1.231-0.792,1.676-1.307c0.441-0.519,0.795-1.073,1.019-1.63c0.235-0.551,0.389-1.084,0.471-1.566
						c0.039-0.241,0.082-0.467,0.087-0.68c0.012-0.212,0.035-0.407,0.022-0.582c-0.005-0.176-0.01-0.334-0.014-0.471
						c-0.017-0.136-0.032-0.252-0.044-0.346C211.02,288.992,211.007,288.892,211.007,288.892z"/>
				</g>
			</g>
			<path fill="#96CA4F" d="M222.042,277.987c-3.228,5.48-8.238,11.044-15.107,10.982c-0.463-0.004-0.943-0.037-1.352-0.255
				c-0.892-0.476-1.14-1.704-0.826-2.665c0.315-0.96,1.047-1.716,1.748-2.444c4.287-4.448,8.41-9.508,9.498-15.589
				c0.647-3.613,0.185-7.439,1.46-10.881c0.728-1.965,2.274-3.873,4.362-4.045c5.244-0.431,5.423,5.615,5.042,9.368
				C226.312,267.941,224.819,273.274,222.042,277.987z"/>
			<path fill="#54B854" d="M168.319,206.305c0,0-24.615-42.978-4.688-104.319c0,0-23.442,49.62,1.172,105.491L168.319,206.305z"/>
			<path fill="#96CA4F" d="M168.319,206.305c0,0-24.615-42.978-4.688-104.319c0,0-23.442,49.62,1.172,105.491L168.319,206.305z"/>
			<path fill="#0A8B44" d="M164.802,207.671c-0.074,0-0.145-0.043-0.178-0.116c-12.733-28.903-12.374-56.088-9.831-73.803
				c2.756-19.196,8.602-31.725,8.661-31.849c0.044-0.093,0.152-0.136,0.247-0.097c0.095,0.038,0.145,0.143,0.113,0.24
				c-10.278,31.639-8.46,58.274-5.126,75.047c3.613,18.176,9.737,29.008,9.798,29.115c0.053,0.093,0.021,0.211-0.072,0.265
				c-0.093,0.052-0.211,0.021-0.265-0.072c-0.062-0.108-6.211-10.983-9.838-29.215c-3.197-16.072-5.006-41.175,3.829-71.052
				c-1.948,5.163-5.138,14.953-6.965,27.688c-2.534,17.661-2.89,44.763,9.804,73.577c0.043,0.098-0.002,0.212-0.099,0.256
				C164.855,207.665,164.828,207.671,164.802,207.671z"/>
		</g>
		
			<ellipse transform="matrix(-0.9618 -0.2739 0.2739 -0.9618 263.1472 499.8437)" fill="#FFFFFF" cx="166.463" cy="231.554" rx="3.516" ry="6.007"/>
	</g>
</g>
</svg>
