<?xml version="1.0" encoding="utf-8"?>
<!-- Generator: Adobe Illustrator 17.0.0, SVG Export Plug-In . SVG Version: 6.00 Build 0)  -->
<!DOCTYPE svg PUBLIC "-//W3C//DTD SVG 1.1//EN" "http://www.w3.org/Graphics/SVG/1.1/DTD/svg11.dtd">
<svg version="1.1" id="Layer_1" xmlns="http://www.w3.org/2000/svg" xmlns:xlink="http://www.w3.org/1999/xlink" x="0px" y="0px"
	 width="512px" height="512px" viewBox="0 0 512 512" enable-background="new 0 0 512 512" xml:space="preserve">
<g>
	<path fill="#2C323A" d="M256,31C131.747,31,31,131.747,31,256s100.747,225,225,225s225-100.747,225-225S380.253,31,256,31z"/>
	<g>
		<path fill="#C0826C" d="M318.446,414.104c-4.029-7.486-8.35-16.079-12.974-26.007
			C305.472,388.097,310.689,399.749,318.446,414.104z"/>
		<path fill="#C0826C" d="M326.18,427.74c-0.152-0.252-0.308-0.519-0.46-0.775C325.873,427.224,326.026,427.482,326.18,427.74z"/>
		<path fill="#C0826C" d="M326.919,428.962c7.282,12.067,15.607,23.956,23.647,31.194c0.476-0.221,0.962-0.425,1.436-0.649
			C346.944,456.391,338.529,448.036,326.919,428.962z"/>
		<path fill="#C0826C" d="M391.793,313.58c0.109,2.731-0.964,5.419-3.047,7.329l-50.261,46.073l39.938,77.751
			c31.621-20.556,57.778-48.799,75.749-82.134C433.854,351.704,396.924,329.976,391.793,313.58z"/>
		<path fill="#5D5360" d="M252.937,153.386v-20.97c-15.587,3.147-27.601,9.103-34.929,13.712c-2.209,1.39-2.358,4.531-0.316,6.155
			l7.484,5.949c-11.588,7.725-21.262,16.389-27.201,22.146c-2.445,2.369-0.777,6.5,2.627,6.5h6.718l23.814-21.35
			C237.606,159.981,244.945,155.912,252.937,153.386z"/>
		<path fill="#5D5360" d="M345.509,217.39l3.184-5.439c1.345-2.296,4.578-2.522,6.228-0.434l5.147,6.513
			c12.14,15.361,24.576,45.816,32.949,68.898c-0.583,4.083-3.944,6.664-7.538,6.97c0.009,0.025,0.017,0.048,0.026,0.073
			c3.992-0.31,7.705-3.443,7.705-8.248v-45.654c0-5.191-1.405-10.327-4.126-14.749c-9.526-15.477-17.529-23.48-17.529-23.48
			l5.235-5.511c1.309-1.377,1.414-3.495,0.212-4.967c-5.485-6.722-21.618-24.604-42.854-31.26l4.329-7.305
			c1.082-1.825,0.447-4.226-1.407-5.256c-23.545-13.081-45.023-17.436-63.365-17.28c3.957,5.412,7.67,12.489,10.311,21.657
			C317.134,159.743,336.943,196.912,345.509,217.39z"/>
		<path fill="#4B3F4E" d="M252.937,163.422v-10.036c-7.992,2.526-15.331,6.594-21.802,12.141l-23.814,21.35h14.155l15.81-14.175
			C242.255,168.443,247.53,165.476,252.937,163.422z"/>
		<path fill="#4B3F4E" d="M393.018,286.928c-8.373-23.082-20.809-53.537-32.949-68.898l-5.147-6.513
			c-1.65-2.088-4.883-1.863-6.228,0.434l-3.184,5.439c-8.566-20.479-28.375-57.647-61.495-65.471
			c0.934,3.241,1.736,6.734,2.361,10.521c30.431,10.509,48.311,50.912,54.468,69.289c1.028,3.067,5.196,3.463,6.831,0.671
			l4.981-8.509c12.072,15.276,24.902,47.788,32.825,70.007C389.074,293.592,392.435,291.011,393.018,286.928z"/>
		<path fill="#C0826C" d="M187.14,321.449c-1.679,0.756-3.327,1.507-4.91,2.241C183.812,322.956,185.463,322.205,187.14,321.449z"/>
		<path fill="#C0826C" d="M103.491,306.039c-0.273-0.315-0.544-0.634-0.79-0.996C102.947,305.404,103.218,305.724,103.491,306.039z"
			/>
		<path fill="#C0826C" d="M107.033,308.733c-0.005-0.003-0.011-0.004-0.016-0.007c0.527,0.256,1.061,0.485,1.605,0.665
			c-0.002-0.001-0.004-0.003-0.006-0.004C108.079,309.21,107.552,308.984,107.033,308.733z"/>
		<path fill="#C0826C" d="M182.18,323.714c-1.606,0.745-3.139,1.469-4.632,2.18C179.04,325.183,180.576,324.458,182.18,323.714z"/>
		<path fill="#C0826C" d="M104.745,307.282c-0.362-0.299-0.712-0.621-1.044-0.979C104.032,306.661,104.383,306.982,104.745,307.282z
			"/>
		<path fill="#C0826C" d="M176.7,326.298c-1.444,0.691-2.832,1.363-4.151,2.008C173.866,327.661,175.258,326.988,176.7,326.298z"/>
		<path fill="#C0826C" d="M168.084,330.52c-1.189,0.597-2.284,1.153-3.305,1.675C165.797,331.674,166.898,331.115,168.084,330.52z"
			/>
		<path fill="#C0826C" d="M172.016,328.569c-1.252,0.615-2.442,1.205-3.563,1.766C169.572,329.775,170.766,329.183,172.016,328.569z
			"/>
		<path fill="#C0826C" d="M104.815,307.347c0.69,0.56,1.432,1.004,2.196,1.376c-0.01-0.005-0.019-0.012-0.029-0.017
			C106.229,308.337,105.496,307.9,104.815,307.347z"/>
		<path fill="#C0826C" d="M152.728,333.685c2.761,1.519,6.068,1.616,8.878,0.148c0.807-0.421,1.736-0.901,2.726-1.409
			c-0.987,0.507-1.918,0.987-2.723,1.407C158.808,335.294,155.483,335.198,152.728,333.685z"/>
		<path fill="#C0826C" d="M130.268,326.836c-1.179,0.644-2.431,1.008-3.683,1.115C127.837,327.844,129.089,327.48,130.268,326.836
			c1.712-0.935,3.586-2.079,5.508-3.301l0,0C133.853,324.757,131.98,325.901,130.268,326.836z"/>
		<path fill="#C0826C" d="M101.341,302.308c-0.063-0.171-0.141-0.319-0.199-0.497C101.2,301.989,101.278,302.137,101.341,302.308z"
			/>
		<path fill="#C0826C" d="M298.862,267.804c5.856-13.013,5.703-27.771-0.438-42.68c-0.992-2.414,0.157-5.175,2.57-6.169
			c2.427-0.992,5.178,0.157,6.169,2.57c7.152,17.373,7.263,34.716,0.318,50.155c-1.717,3.816-3.864,7.419-6.378,10.789
			c-2.245,3.011-2.57,7.032-0.735,10.31l35.041,68.217l55.757-50.476c0.056,0.993,0.301,2.02,0.626,3.06
			c-0.034-0.857-0.169-1.718-0.446-2.561c-1.337-4.075-3.353-10.065-5.842-17.048c-0.23,0.018-0.46,0.021-0.691,0.02
			c-0.02,0-0.039-0.001-0.059-0.002c-0.734-0.009-1.466-0.108-2.184-0.319c-0.069-0.02-0.133-0.049-0.202-0.071
			c-0.691-0.223-1.363-0.53-1.996-0.957c-0.05-0.034-0.095-0.078-0.145-0.113c-0.65-0.46-1.263-1.016-1.806-1.71l-81.287-103.942
			h-75.66L151.27,249.82c4.114,15.563,16.88,20.579,32.465,22.895c21.566,3.206,35.988,18.496,28.95,38.196
			c-0.01,0.004-0.02,0.007-0.029,0.011c13.093-4.848,26.739-8.945,38.805-10.645c6.719-0.947,12.964-2.739,18.744-5.12l-0.017-0.044
			C283.375,289.287,293.532,279.656,298.862,267.804z M251.46,222.315v2.362c0,7.829-6.347,14.175-14.175,14.175
			c-7.829,0-14.175-6.346-14.175-14.175v-4.725c0-7.828,6.346-14.175,14.175-14.175c7.828,0,14.175,6.346,14.175,14.175V222.315z"/>
		<polygon fill="#C0826C" points="103.066,293.037 103.066,293.037 107.707,288.876 		"/>
		<path fill="#C0826C" d="M212.346,311.04c-1.858,0.69-3.7,1.397-5.529,2.113C208.646,312.437,210.488,311.73,212.346,311.04z"/>
		<path fill="#C0826C" d="M205.522,313.66c-1.837,0.726-3.656,1.46-5.448,2.2C201.865,315.12,203.685,314.386,205.522,313.66z"/>
		<path fill="#C0826C" d="M193.345,318.706c-1.748,0.757-3.454,1.51-5.126,2.258C189.891,320.216,191.598,319.462,193.345,318.706z"
			/>
		<path fill="#C0826C" d="M102.393,304.511c-0.189-0.312-0.385-0.613-0.553-0.959C102.008,303.897,102.204,304.199,102.393,304.511z
			"/>
		<path fill="#C0826C" d="M199.027,316.296c-1.633,0.68-3.242,1.36-4.825,2.042C195.784,317.657,197.395,316.975,199.027,316.296z"
			/>
		<path fill="#C0826C" d="M335.41,360.995l3.075,5.986l50.261-46.073c2.083-1.91,3.156-4.598,3.047-7.329
			c-0.326-1.041-0.57-2.067-0.626-3.06L335.41,360.995z"/>
		<path fill="#C0826C" d="M384.755,293.989c-0.732-0.003-1.466-0.111-2.184-0.319C383.289,293.881,384.022,293.98,384.755,293.989z"
			/>
		<path fill="#C0826C" d="M380.229,292.529c-0.648-0.459-1.262-1.014-1.806-1.71C378.966,291.513,379.58,292.069,380.229,292.529z"
			/>
		<path fill="#C0826C" d="M384.815,293.991c0.231,0.001,0.461-0.002,0.691-0.02c-0.009-0.025-0.017-0.048-0.026-0.073
			C385.256,293.917,385.04,293.99,384.815,293.991z"/>
		<path fill="#C0826C" d="M382.37,293.599c-0.69-0.221-1.363-0.53-1.996-0.957C381.007,293.069,381.68,293.376,382.37,293.599z"/>
		<path fill="#C0826C" d="M380.374,292.642c-0.05-0.034-0.096-0.078-0.145-0.113C380.279,292.564,380.324,292.608,380.374,292.642z"
			/>
		<path fill="#C0826C" d="M384.815,293.991c-0.02,0-0.04-0.001-0.059-0.002C384.775,293.989,384.795,293.991,384.815,293.991z"/>
		<path fill="#C0826C" d="M382.572,293.67c-0.068-0.02-0.134-0.049-0.202-0.071C382.438,293.621,382.503,293.65,382.572,293.67z"/>
		<path fill="#C0826C" d="M378.423,290.819c0.544,0.695,1.158,1.251,1.806,1.71c0.049,0.035,0.095,0.08,0.145,0.113
			c0.633,0.427,1.307,0.736,1.996,0.957c0.068,0.022,0.134,0.051,0.202,0.071c0.717,0.208,1.451,0.316,2.184,0.319
			c0.02,0,0.04,0.001,0.059,0.002c0.225-0.001,0.441-0.074,0.665-0.093c-7.923-22.219-20.752-54.732-32.825-70.007l-4.981,8.509
			c-1.634,2.792-5.803,2.396-6.831-0.671c-6.158-18.376-24.038-58.78-54.468-69.289c0.326,1.977,0.615,4.015,0.842,6.149
			c0.728,6.857-6.02,12.483-13.545,11.35l-10.996-1.655c-5.62-0.846-9.739-5.237-9.739-10.383v-4.48
			c-5.407,2.054-10.681,5.021-15.651,9.281l-15.81,14.175h75.66L378.423,290.819z"/>
		<path fill="#F5DCB4" d="M102.701,305.043c-0.111-0.164-0.203-0.359-0.308-0.532C102.498,304.684,102.59,304.88,102.701,305.043z"
			/>
		<path fill="#F5DCB4" d="M103.701,306.302c-0.074-0.08-0.138-0.18-0.21-0.263C103.564,306.122,103.627,306.222,103.701,306.302z"/>
		<path fill="#F5DCB4" d="M194.202,318.338c-0.285,0.123-0.573,0.245-0.857,0.367C193.628,318.583,193.918,318.461,194.202,318.338z
			"/>
		<path fill="#F5DCB4" d="M182.23,323.69c-0.017,0.008-0.033,0.016-0.05,0.023C182.197,323.706,182.213,323.698,182.23,323.69z"/>
		<path fill="#F5DCB4" d="M200.074,315.859c-0.353,0.146-0.697,0.291-1.047,0.437C199.376,316.151,199.722,316.005,200.074,315.859z
			"/>
		<path fill="#F5DCB4" d="M206.817,313.152c-0.433,0.169-0.864,0.337-1.295,0.507C205.952,313.49,206.385,313.321,206.817,313.152z"
			/>
		<path fill="#F5DCB4" d="M104.815,307.347c-0.025-0.02-0.046-0.046-0.07-0.066C104.769,307.302,104.791,307.327,104.815,307.347z"
			/>
		<path fill="#F5DCB4" d="M212.655,310.923c-0.104,0.038-0.206,0.079-0.309,0.117C212.449,311.001,212.551,310.961,212.655,310.923z
			"/>
		<path fill="#F5DCB4" d="M164.778,332.195c-0.154,0.079-0.296,0.152-0.446,0.229C164.481,332.348,164.627,332.273,164.778,332.195z
			"/>
		<path fill="#F5DCB4" d="M168.453,330.335c-0.122,0.061-0.249,0.124-0.369,0.185C168.203,330.46,168.332,330.396,168.453,330.335z"
			/>
		<path fill="#F5DCB4" d="M172.55,328.306c-0.184,0.09-0.353,0.174-0.534,0.263C172.196,328.48,172.367,328.396,172.55,328.306z"/>
		<path fill="#F5DCB4" d="M177.549,325.894c-0.285,0.136-0.568,0.27-0.848,0.404C176.98,326.164,177.265,326.029,177.549,325.894z"
			/>
		<path fill="#F5DCB4" d="M188.22,320.964c-0.364,0.163-0.72,0.323-1.08,0.485C187.499,321.288,187.857,321.126,188.22,320.964z"/>
		<path fill="#F5DCB4" d="M101.84,303.552c-0.186-0.384-0.342-0.816-0.499-1.244C101.498,302.736,101.654,303.167,101.84,303.552z"
			/>
		<path fill="#F5DCB4" d="M117.298,322.676c0,0-3.218-6.498-5.052-10.199c-0.182-0.368-0.491-0.628-0.737-0.944
			c-0.015,0.001-0.026,0.005-0.041,0.006c-0.001-0.001-0.002-0.001-0.002-0.001c0.236,0.305,0.534,0.555,0.71,0.907L117.298,322.676
			c1.775,3.618,5.53,5.598,9.286,5.275C122.828,328.274,119.073,326.294,117.298,322.676z"/>
		<path fill="#F5DCB4" d="M103.066,293.037L103.066,293.037c-1.89,1.695-2.91,4.262-2.436,6.756c0.137,0.72,0.309,1.391,0.513,2.017
			c-0.203-0.626-0.375-1.296-0.512-2.015C100.157,297.301,101.175,294.733,103.066,293.037z"/>
		<path fill="#F5DCB4" d="M108.95,309.569c-0.115-0.048-0.204-0.136-0.324-0.176c-0.001,0-0.003-0.001-0.003-0.001
			c0.612,0.204,1.142,0.559,1.654,0.93c-0.011-0.009-0.019-0.022-0.031-0.031C109.84,310.009,109.419,309.751,108.95,309.569z"/>
		<path fill="#F5DCB4" d="M145.243,329.184c-0.013,0.008-0.028,0.019-0.041,0.027l-9.426-5.676c0.003-0.002,0.007-0.004,0.01-0.007
			c-0.004,0.002-0.007,0.004-0.011,0.007l16.591,9.989c0.115,0.069,0.245,0.096,0.362,0.16c-0.117-0.064-0.246-0.09-0.361-0.16
			L145.243,329.184z"/>
		<polygon fill="#F5DCB4" points="151.27,249.82 107.707,288.876 151.27,249.82 		"/>
		<path fill="#F5DCB4" d="M183.735,272.715c-15.585-2.316-28.352-7.333-32.465-22.895l-43.562,39.056l-4.641,4.161
			c-1.891,1.696-2.909,4.264-2.435,6.759c0.136,0.719,0.308,1.389,0.512,2.015c0.058,0.178,0.136,0.326,0.199,0.497
			c0.157,0.428,0.313,0.86,0.499,1.244c0.168,0.345,0.364,0.647,0.553,0.959c0.105,0.174,0.197,0.369,0.308,0.532
			c0.246,0.362,0.517,0.681,0.79,0.996c0.072,0.084,0.136,0.183,0.21,0.263c0.331,0.359,0.682,0.681,1.044,0.979
			c0.024,0.02,0.046,0.046,0.07,0.066c0.681,0.553,1.414,0.99,2.167,1.359c-0.511-0.257-1.012-0.551-1.495-0.886
			c4.277-0.816,5.632-2.839,7.175-4.983c3.161-4.393,7.831-4.171,9.253-1.279c1.63,3.314-1.371,9.231-10.407,9.975
			c0.247,0.316,0.555,0.576,0.737,0.944c1.833,3.701,5.052,10.199,5.052,10.199c1.775,3.618,5.53,5.598,9.286,5.275
			c1.252-0.107,2.504-0.471,3.683-1.115c1.712-0.935,3.586-2.08,5.508-3.301l0,0c0.004-0.002,0.007-0.004,0.011-0.007
			c7.697-4.947,18.994-11.964,27.162-20.204c1.837-1.853,4.825-1.872,6.684-0.03c1.85,1.837,1.865,4.829,0.027,6.682
			c-7.356,7.424-16.36,14.138-24.417,19.207l7.124,4.341c0.114,0.069,0.244,0.096,0.361,0.16c2.755,1.513,6.08,1.609,8.882,0.146
			c0.805-0.42,1.736-0.9,2.723-1.407c0.15-0.077,0.291-0.15,0.446-0.229c1.021-0.523,2.116-1.078,3.305-1.675
			c0.12-0.06,0.248-0.123,0.369-0.185c1.121-0.562,2.311-1.152,3.563-1.766c0.181-0.089,0.35-0.173,0.534-0.263
			c1.318-0.645,2.707-1.317,4.151-2.008c0.28-0.134,0.563-0.268,0.848-0.404c1.493-0.711,3.026-1.435,4.632-2.18
			c0.017-0.008,0.033-0.016,0.05-0.023c1.583-0.734,3.232-1.485,4.91-2.241c0.36-0.162,0.716-0.322,1.08-0.485
			c1.672-0.748,3.377-1.501,5.126-2.258c0.283-0.123,0.572-0.244,0.857-0.367c1.583-0.682,3.192-1.362,4.825-2.042
			c0.351-0.146,0.695-0.291,1.047-0.437c1.792-0.74,3.61-1.473,5.448-2.2c0.431-0.171,0.862-0.338,1.295-0.507
			c1.829-0.715,3.67-1.422,5.529-2.113c0.104-0.038,0.206-0.079,0.309-0.117c0.01-0.004,0.02-0.007,0.029-0.011
			C219.723,291.211,205.301,275.921,183.735,272.715z"/>
		<path fill="#F5DCB4" d="M108.95,309.569c0.469,0.182,0.89,0.44,1.295,0.722C109.859,309.983,109.413,309.763,108.95,309.569z"/>
		<path fill="#F5DCB4" d="M108.615,309.387c-0.536-0.178-1.065-0.397-1.582-0.654C107.552,308.984,108.079,309.21,108.615,309.387
			c0.002,0.001,0.004,0.003,0.006,0.004c0,0,0.003,0.001,0.004,0.001C108.622,309.392,108.619,309.388,108.615,309.387z"/>
		<path fill="#AF6E5A" d="M260.357,117.414c-3.104-2.02-7.42-0.09-7.42,3.364v11.638c6.352-1.282,13.298-2.091,20.767-2.154
			C269.127,124.003,264.241,119.941,260.357,117.414z"/>
		<path fill="#AF6E5A" d="M253.41,153.214c6.027-1.852,12.063-2.79,17.941-2.79c4.425,0,8.637,0.544,12.664,1.496
			c-2.641-9.168-6.353-16.246-10.311-21.657c-7.469,0.064-14.415,0.872-20.767,2.154v20.97
			C253.097,153.336,253.249,153.263,253.41,153.214z"/>
		<path fill="#AF6E5A" d="M271.351,150.423c-5.877,0-11.914,0.939-17.941,2.79c-0.161,0.05-0.313,0.122-0.473,0.173v10.036
			c1.08-0.41,2.158-0.84,3.249-1.175c11.173-3.432,21.221-2.905,30.19,0.192c-0.625-3.787-1.427-7.279-2.361-10.521
			C279.987,150.968,275.775,150.423,271.351,150.423z"/>
		<path fill="#AF6E5A" d="M256.185,162.247c-1.09,0.335-2.168,0.764-3.249,1.175v4.48c0,5.146,4.119,9.537,9.739,10.383
			l10.996,1.655c7.525,1.132,14.272-4.493,13.545-11.35c-0.227-2.134-0.516-4.172-0.842-6.149
			C277.406,159.342,267.359,158.815,256.185,162.247z"/>
		<path fill="#4B3F4E" d="M237.285,205.777c-7.829,0-14.175,6.347-14.175,14.175v4.725c0,7.829,6.347,14.175,14.175,14.175
			c7.828,0,14.175-6.346,14.175-14.175v-2.362c0,3.914-3.173,7.088-7.087,7.088c-3.914,0-7.088-3.173-7.088-7.088v-2.365
			c-2.609-0.001-4.723-2.116-4.723-4.725c0-2.609,2.114-4.724,4.723-4.725V205.777c7.828,0,14.175,6.347,14.175,14.175
			C251.46,212.124,245.114,205.777,237.285,205.777z"/>
		<path fill="#5D5360" d="M237.285,205.778v4.723l0.002,0c2.609,0,4.725,2.115,4.725,4.725c0,2.609-2.115,4.725-4.725,4.725
			l-0.002,0v2.365c0,3.914,3.173,7.088,7.088,7.088c3.914,0,7.087-3.173,7.087-7.088v-2.363
			C251.46,212.124,245.114,205.778,237.285,205.778z"/>
		<path fill="#FFFFFF" d="M232.562,215.225c0,2.609,2.114,4.724,4.723,4.725v-9.449
			C234.676,210.502,232.562,212.616,232.562,215.225z"/>
		<path fill="#FFFFFF" d="M242.012,215.225c0-2.609-2.115-4.725-4.725-4.725l-0.002,0v9.449l0.002,0
			C239.896,219.95,242.012,217.835,242.012,215.225z"/>
		<path fill="#AF6E5A" d="M325.72,426.966c-2.593-4.371-5.039-8.727-7.274-12.862C320.991,418.832,323.416,423.106,325.72,426.966z"
			/>
		<polygon fill="#AF6E5A" points="270.205,295.158 270.205,295.158 305.472,388.097 305.579,388.001 		"/>
		<path fill="#AF6E5A" d="M326.919,428.962c-0.246-0.407-0.495-0.814-0.739-1.222C326.428,428.152,326.674,428.56,326.919,428.962z"
			/>
		<path fill="#AF6E5A" d="M313.291,390.076c-2.46,2.255-6.42,1.318-7.608-1.801l-0.104-0.274l-0.107,0.096
			c4.624,9.927,8.945,18.52,12.974,26.007c2.235,4.135,4.681,8.491,7.274,12.862c0.153,0.256,0.309,0.523,0.46,0.775
			c0.243,0.408,0.493,0.815,0.739,1.222c11.61,19.074,20.025,27.428,25.083,30.544c9.17-4.334,17.981-9.289,26.421-14.774
			l-39.938-77.751L313.291,390.076z"/>
		<path fill="#AF6E5A" d="M305.579,388.001l29.831-27.006l-35.041-68.217c-1.835-3.277-1.51-7.298,0.735-10.31
			c2.514-3.37,4.661-6.973,6.378-10.789c6.945-15.439,6.834-32.782-0.318-50.155c-0.992-2.413-3.742-3.562-6.169-2.57
			c-2.413,0.994-3.562,3.756-2.57,6.169c6.141,14.909,6.294,29.667,0.438,42.68c-5.331,11.852-15.488,21.483-28.674,27.311
			l0.017,0.044l0,0L305.579,388.001z"/>
		<path fill="#AF6E5A" d="M305.579,388.001l0.104,0.274c1.188,3.118,5.148,4.056,7.608,1.801l25.194-23.094l-3.075-5.986
			L305.579,388.001z"/>
		<path fill="#965A50" d="M107.017,308.726l-0.005-0.003L107.017,308.726z"/>
		<path fill="#965A50" d="M110.276,310.322c0.439,0.355,0.84,0.762,1.189,1.215C111.112,311.08,110.743,310.66,110.276,310.322z"/>
		<path fill="#965A50" d="M106.982,308.706c0.01,0.005,0.019,0.012,0.029,0.017l0.005,0.003c0.005,0.003,0.011,0.004,0.016,0.007
			C107.016,308.724,106.999,308.714,106.982,308.706z"/>
		<path fill="#965A50" d="M108.626,309.393c0.12,0.04,0.209,0.128,0.324,0.176c-0.107-0.042-0.185-0.129-0.295-0.164
			C108.645,309.401,108.636,309.396,108.626,309.393z"/>
		<path fill="#965A50" d="M111.509,311.533c-0.372-0.475-0.77-0.899-1.263-1.242c0.012,0.009,0.02,0.022,0.031,0.031
			c0.466,0.338,0.836,0.758,1.189,1.215c0,0,0.002,0.001,0.002,0.002C111.483,311.538,111.494,311.534,111.509,311.533z"/>
		<path fill="#965A50" d="M108.615,309.387c0.004,0.001,0.007,0.004,0.011,0.006c0.01,0.003,0.019,0.008,0.029,0.011
			c0.109,0.036,0.188,0.123,0.295,0.164c0.463,0.195,0.909,0.415,1.295,0.722c0.494,0.343,0.892,0.767,1.263,1.242
			c9.035-0.744,12.036-6.661,10.407-9.975c-1.422-2.892-6.092-3.114-9.253,1.279c-1.543,2.145-2.898,4.167-7.175,4.983
			c0.483,0.335,0.984,0.628,1.495,0.886c0.017,0.008,0.033,0.018,0.05,0.026C107.55,308.99,108.079,309.209,108.615,309.387z"/>
		<path fill="#965A50" d="M145.202,329.211c0.013-0.008,0.028-0.019,0.041-0.027l-9.37-5.709c-0.029,0.019-0.057,0.035-0.087,0.054
			c-0.003,0.002-0.007,0.004-0.01,0.007L145.202,329.211z"/>
		<path fill="#965A50" d="M145.243,329.184c8.057-5.069,17.061-11.782,24.417-19.207c1.838-1.853,1.823-4.845-0.027-6.682
			c-1.859-1.842-4.847-1.823-6.684,0.03c-8.168,8.24-19.465,15.257-27.162,20.204c0.029-0.019,0.057-0.035,0.087-0.054
			L145.243,329.184z"/>
	</g>
</g>
</svg>
