<?xml version="1.0" encoding="utf-8"?>
<!-- Generator: Adobe Illustrator 17.0.0, SVG Export Plug-In . SVG Version: 6.00 Build 0)  -->
<!DOCTYPE svg PUBLIC "-//W3C//DTD SVG 1.1//EN" "http://www.w3.org/Graphics/SVG/1.1/DTD/svg11.dtd">
<svg version="1.1" id="Layer_1" xmlns="http://www.w3.org/2000/svg" xmlns:xlink="http://www.w3.org/1999/xlink" x="0px" y="0px"
	 width="512px" height="512px" viewBox="0 0 512 512" enable-background="new 0 0 512 512" xml:space="preserve">
<g>
	<path fill="#28A8E0" d="M255.333,31c-124.253,0-225,100.747-225,225s100.747,225,225,225s225-100.747,225-225
		S379.586,31,255.333,31z"/>
	<g>
		<path fill="#FFC850" d="M357.729,127.524c5.887-4.783,14.69-0.594,14.69,6.991v120.707l-99.095-58.556L357.729,127.524z"/>
		<path fill="#EBAF4B" d="M363.41,249.899l-60.336-35.653l50.272-56.676c3.515-3.962,10.064-1.477,10.064,3.821V249.899z"/>
		<path fill="#FFC850" d="M152.885,127.524c-5.888-4.783-14.69-0.594-14.69,6.991v120.707l99.095-58.556L152.885,127.524z"/>
		<path fill="#EBAF4B" d="M147.204,249.899l60.336-35.653l-50.272-56.676c-3.515-3.962-10.064-1.477-10.064,3.821V249.899z"/>
		<ellipse fill="#FFDC64" cx="255.307" cy="284.501" rx="126.122" ry="119.364"/>
		<path fill="#FF8087" d="M273.324,358.822v9.009c0,9.951-8.066,18.017-18.017,18.017l0,0c-9.951,0-18.017-8.066-18.017-18.017
			v-9.009l18.017-9.009L273.324,358.822z"/>
		<path fill="#5D5360" d="M265.254,312.448h-19.893c-4.295,0-6.673,4.979-3.973,8.319l9.947,12.306c2.044,2.529,5.9,2.529,7.945,0
			l9.947-12.306C271.927,317.427,269.549,312.448,265.254,312.448z"/>
		<g>
			<path fill="#E1A546" d="M376.919,363.326c-0.699,0-1.41-0.163-2.074-0.508c-27.235-14.162-69.86-22.577-70.289-22.66
				c-2.441-0.475-4.034-2.841-3.559-5.283c0.477-2.443,2.82-4.038,5.283-3.559c1.795,0.35,44.32,8.74,72.722,23.509
				c2.206,1.148,3.066,3.866,1.918,6.075C380.117,362.442,378.546,363.326,376.919,363.326z"/>
			<path fill="#E1A546" d="M385.934,331.798c-0.387,0-0.781-0.051-1.172-0.156c-25.247-6.787-71.154-5.498-71.607-5.479
				c-2.529,0.073-4.566-1.881-4.638-4.366c-0.075-2.487,1.881-4.564,4.366-4.638c1.936-0.061,47.702-1.346,74.22,5.782
				c2.402,0.646,3.825,3.116,3.18,5.52C389.741,330.472,387.923,331.795,385.934,331.798z"/>
		</g>
		<path fill="#FFC850" d="M286.837,394.856c-69.654,0-126.12-53.441-126.12-119.364c0-48.408,30.466-90.055,74.225-108.784
			c-59.967,9.217-105.755,58.434-105.755,117.792c0,65.923,56.466,119.364,126.12,119.364c18.506,0,36.062-3.803,51.896-10.58
			C300.571,394.304,293.773,394.856,286.837,394.856z"/>
		<g>
			<path fill="#E1A546" d="M133.695,363.326c-1.627,0-3.198-0.882-4.001-2.426c-1.148-2.208-0.288-4.926,1.918-6.075
				c28.403-14.768,70.927-23.159,72.722-23.509c2.443-0.49,4.806,1.117,5.283,3.559c0.475,2.441-1.117,4.808-3.559,5.283
				c-0.429,0.084-43.055,8.499-70.289,22.66C135.105,363.163,134.395,363.326,133.695,363.326z"/>
			<path fill="#E1A546" d="M124.68,331.798c-1.988,0-3.807-1.326-4.348-3.337c-0.644-2.404,0.779-4.874,3.18-5.52
				c26.52-7.131,72.28-5.837,74.22-5.782c2.485,0.075,4.44,2.151,4.366,4.638c-0.075,2.485-2.228,4.456-4.638,4.366
				c-0.462-0.015-46.376-1.309-71.607,5.479C125.461,331.747,125.067,331.798,124.68,331.798z"/>
		</g>
		<path fill="#4B3F4E" d="M203.508,300.266L203.508,300.266c-8.671,0-15.765-7.094-15.765-15.765v-9.009
			c0-8.671,7.094-15.765,15.765-15.765l0,0c8.671,0,15.765,7.094,15.765,15.765v9.009
			C219.273,293.171,212.179,300.266,203.508,300.266z"/>
		<path fill="#5D5360" d="M203.508,259.727c-0.771,0-1.51,0.12-2.252,0.229v22.293c0,4.975,4.033,9.009,9.009,9.009
			s9.009-4.033,9.009-9.009v-6.757C219.273,266.821,212.178,259.727,203.508,259.727z"/>
		<circle fill="#FFFFFF" cx="203.509" cy="270.99" r="6.757"/>
		<path fill="#4B3F4E" d="M307.107,300.266L307.107,300.266c-8.671,0-15.765-7.094-15.765-15.765v-9.009
			c0-8.671,7.094-15.765,15.765-15.765l0,0c8.671,0,15.765,7.094,15.765,15.765v9.009
			C322.872,293.171,315.777,300.266,307.107,300.266z"/>
		<path fill="#5D5360" d="M307.107,259.727c-0.771,0-1.51,0.12-2.252,0.229v22.293c0,4.975,4.033,9.009,9.009,9.009
			c4.975,0,9.009-4.033,9.009-9.009v-6.757C322.872,266.821,315.777,259.727,307.107,259.727z"/>
		<circle fill="#FFFFFF" cx="307.105" cy="270.99" r="6.757"/>
		<path fill="#4B3F4E" d="M258.792,333.265l-9.947-19.69c-0.181-0.358-0.282-0.749-0.418-1.128h-3.066
			c-4.295,0-6.673,4.979-3.973,8.319l9.947,12.306c1.93,2.387,5.427,2.438,7.537,0.319
			C258.848,333.345,258.816,333.313,258.792,333.265z"/>
		<path fill="#E6646E" d="M255.307,349.813l-18.017,9.009v9.009c0,1.429,0.208,2.802,0.522,4.135
			c4.533-0.562,8.911-1.875,12.99-3.889v4.258c0,2.487,2.017,4.505,4.505,4.505s4.505-2.017,4.505-4.505v-4.257
			c4.08,2.014,8.458,3.327,12.99,3.889c0.314-1.333,0.522-2.707,0.522-4.135v-9.009L255.307,349.813z"/>
		<path fill="#EBAF4B" d="M277.829,363.326c-6.372,0-12.512-1.894-17.753-5.477c-2.807-1.918-6.728-1.918-9.539,0
			c-5.239,3.583-11.38,5.477-17.751,5.477c-7.753,0-15.22-2.868-21.026-8.074c-1.852-1.663-2.006-4.511-0.345-6.363
			c1.66-1.852,4.502-2.006,6.363-0.345c7.563,6.787,19.401,7.529,27.677,1.867c5.894-4.025,13.814-4.025,19.704,0
			c8.278,5.659,20.117,4.916,27.681-1.865c1.85-1.658,4.695-1.509,6.361,0.347c1.66,1.852,1.504,4.7-0.347,6.361
			C293.046,360.46,285.582,363.326,277.829,363.326z"/>
	</g>
</g>
</svg>
