<?xml version="1.0" encoding="utf-8"?>
<!-- Generator: Adobe Illustrator 17.0.0, SVG Export Plug-In . SVG Version: 6.00 Build 0)  -->
<!DOCTYPE svg PUBLIC "-//W3C//DTD SVG 1.1//EN" "http://www.w3.org/Graphics/SVG/1.1/DTD/svg11.dtd">
<svg version="1.1" id="Layer_1" xmlns="http://www.w3.org/2000/svg" xmlns:xlink="http://www.w3.org/1999/xlink" x="0px" y="0px"
	 width="512px" height="512px" viewBox="0 0 512 512" enable-background="new 0 0 512 512" xml:space="preserve">
<g>
	<path fill="#2C323A" d="M256,31C131.747,31,31,131.747,31,256s100.747,225,225,225s225-100.747,225-225S380.253,31,256,31z"/>
	<g transform="matrix(1.25 0 0 -1.25 0 45)">
		<g>
			<g>
				<g>
					<path fill="#FFFFFF" d="M201.825-116.07c0-29.223-23.683-52.906-52.906-52.906s-52.907,23.683-52.907,52.906
						s23.683,52.906,52.906,52.906S201.825-86.847,201.825-116.07"/>
					<path fill="#FFFFFF" d="M320.085-116.07c0-29.223-23.69-52.906-52.906-52.906s-52.906,23.683-52.906,52.906
						s23.69,52.906,52.906,52.906S320.085-86.847,320.085-116.07"/>
				</g>
				<g>
					<path fill="#F3AAB9" d="M181.988-119.375c0-20.092-16.289-36.375-36.375-36.375s-36.375,16.283-36.375,36.375
						c0,20.086,16.289,36.375,36.375,36.375S181.988-99.289,181.988-119.375"/>
					<path fill="#F3AAB9" d="M306.859-119.375c0-20.092-16.289-36.375-36.375-36.375c-20.08,0-36.375,16.283-36.375,36.375
						C234.11-99.289,250.405-83,270.485-83C290.57-83,306.859-99.289,306.859-119.375"/>
				</g>
				<path fill="#FFFFFF" d="M282.74-168.976c0-44.69-49.794-93.364-74.691-93.364s-74.691,48.674-74.691,93.364
					s43.57,56.018,74.691,56.018S282.74-124.286,282.74-168.976"/>
				<path fill="#F3AAB9" d="M226.131-241.476c0-9.984-12.523-20.864-18.081-20.864c-5.565,0-18.088,10.88-18.088,20.864
					c0,9.99,11.129,12.175,18.088,12.175C215.001-229.301,226.131-231.486,226.131-241.476"/>
				<g>
					<path d="M313.855-257.111c-1.089,0-2.197,0.286-3.199,0.89c-28.806,17.285-70.197,11.683-70.608,11.621
						c-3.486-0.492-6.554,1.886-7.033,5.285c-0.485,3.405,1.874,6.554,5.272,7.039c1.874,0.261,46.128,6.311,78.781-13.276
						c2.944-1.768,3.903-5.589,2.129-8.539C318.032-256.034,315.972-257.111,313.855-257.111"/>
					<path d="M295.188-275.784c-1.898,0-3.766,0.859-4.986,2.49c-16.98,22.638-51.711,28.656-52.06,28.719
						c-3.392,0.56-5.683,3.772-5.117,7.158c0.554,3.392,3.772,5.727,7.158,5.117c1.631-0.274,40.04-6.94,59.977-33.524
						c2.066-2.751,1.506-6.654-1.245-8.714C297.797-275.38,296.489-275.784,295.188-275.784"/>
					<path d="M102.237-257.111c-2.116,0-4.176,1.077-5.34,3.019c-1.774,2.95-0.815,6.772,2.129,8.539
						c32.646,19.588,76.9,13.538,78.781,13.276c3.398-0.485,5.757-3.635,5.278-7.039c-0.485-3.398-3.623-5.782-7.039-5.285
						c-0.411,0.056-41.809,5.658-70.608-11.62C104.434-256.825,103.326-257.111,102.237-257.111"/>
					<path d="M120.903-275.784c-1.295,0-2.608,0.405-3.728,1.245c-2.751,2.06-3.305,5.963-1.245,8.714
						c19.936,26.584,58.353,33.25,59.971,33.524c3.417,0.604,6.591-1.718,7.164-5.11c0.566-3.386-1.724-6.597-5.11-7.164
						c-0.348-0.062-35.155-6.175-52.066-28.719C124.663-274.925,122.796-275.784,120.903-275.784"/>
				</g>
				<path id="SVGCleanerId_0_5_" d="M170.704-187.649c0,0,0,12.449,12.449,12.449s12.449-12.449,12.449-12.449v-12.449
					c0,0,0-12.449-12.449-12.449s-12.449,12.449-12.449,12.449V-187.649z"/>
				<g transform="translate(8)">
					<path id="SVGCleanerId_0_4_" d="M216.874-187.649c0,0,0,12.449,12.449,12.449s12.449-12.449,12.449-12.449v-12.449
						c0,0,0-12.449-12.449-12.449s-12.449,12.449-12.449,12.449V-187.649z"/>
				</g>
			</g>
		</g>
	</g>
</g>
</svg>
