<?xml version="1.0" encoding="utf-8"?>
<!-- Generator: Adobe Illustrator 16.0.0, SVG Export Plug-In . SVG Version: 6.00 Build 0)  -->
<!DOCTYPE svg PUBLIC "-//W3C//DTD SVG 1.1 Tiny//EN" "http://www.w3.org/Graphics/SVG/1.1/DTD/svg11-tiny.dtd">
<svg version="1.1" baseProfile="tiny" id="Layer_1" xmlns="http://www.w3.org/2000/svg" xmlns:xlink="http://www.w3.org/1999/xlink"
	 x="0px" y="0px" width="300px" height="300px" viewBox="0 0 300 300" xml:space="preserve">
<g>
	<circle fill="#EE5A28" cx="150" cy="150" r="131.6"/>
	<g>
		<rect x="60.466" y="137.229" fill="#F2F2F2" width="130.866" height="27.973"/>
		<rect x="60.466" y="143.53" fill="#20275B" width="130.866" height="6.335"/>
		<rect x="60.466" y="155.3" fill="#20275B" width="130.866" height="6.334"/>
		<rect x="65.339" y="140.855" fill="#F2F2F2" width="2.79" height="23.148"/>
		<rect x="75.936" y="140.855" fill="#F2F2F2" width="2.79" height="23.148"/>
		<rect x="86.534" y="140.855" fill="#F2F2F2" width="2.79" height="23.148"/>
		<rect x="97.131" y="140.855" fill="#F2F2F2" width="2.79" height="23.148"/>
		<rect x="107.729" y="140.855" fill="#F2F2F2" width="2.79" height="23.148"/>
		<rect x="118.326" y="140.855" fill="#F2F2F2" width="2.79" height="23.148"/>
		<rect x="128.924" y="140.855" fill="#F2F2F2" width="2.79" height="23.148"/>
		<rect x="139.521" y="140.855" fill="#F2F2F2" width="2.79" height="23.148"/>
		<rect x="150.119" y="140.855" fill="#F2F2F2" width="2.789" height="23.148"/>
		<rect x="160.717" y="140.855" fill="#F2F2F2" width="2.789" height="23.148"/>
		<rect x="171.314" y="140.855" fill="#F2F2F2" width="2.789" height="23.148"/>
		<rect x="181.912" y="140.855" fill="#F2F2F2" width="2.789" height="23.148"/>
		<path fill="#1C1B1A" d="M258.667,158.585h-79.229c0,0-9.27-1.554-13.242,6.617H35.074c0,0-5.005,24.857,13.583,32.006
			c0,0,14.299,6.276,14.299,20.018h173.015l16.636-43.231l0,0L258.667,158.585z"/>
		<g>
			<rect x="96.155" y="106.562" fill="#393A39" width="17.291" height="30.667"/>
			<rect x="96.155" y="106.562" fill="#D2D3D3" width="3.904" height="30.667"/>
			<rect x="109.542" y="106.562" fill="#4E4F4E" width="3.904" height="30.667"/>
			<rect x="96.155" y="112.419" fill="#E7E8E8" width="17.291" height="3.904"/>
		</g>
		<g>
			<rect x="125.996" y="106.562" fill="#393A39" width="17.291" height="30.667"/>
			<rect x="125.996" y="106.562" fill="#D2D3D3" width="3.904" height="30.667"/>
			<rect x="139.383" y="106.562" fill="#4E4F4E" width="3.904" height="30.667"/>
			<rect x="125.996" y="112.419" fill="#E7E8E8" width="17.291" height="3.904"/>
		</g>
		<rect x="56.715" y="133.527" fill="#E6352B" width="139.202" height="3.702"/>
		<path fill="#1C1B1A" d="M48.171,177.322c0,0.806-0.653,1.458-1.459,1.458l0,0c-0.806,0-1.458-0.653-1.458-1.458v-39.704
			c0-0.806,0.653-1.459,1.458-1.459l0,0c0.806,0,1.459,0.653,1.459,1.459V177.322z"/>
		<path fill="#1C1B1A" d="M227.383,161.402c0,0.806-0.652,1.458-1.458,1.458l0,0c-0.807,0-1.459-0.653-1.459-1.458v-52.213
			c0-0.806,0.652-1.458,1.459-1.458l0,0c0.806,0,1.458,0.652,1.458,1.458V161.402z"/>
		
			<rect x="203.501" y="106.945" transform="matrix(0.6929 0.721 -0.721 0.6929 161.7253 -104.8186)" fill="#1C1B1A" width="0.834" height="61.018"/>
		<polygon fill="#F2F2F2" points="34.691,176.906 251.485,176.906 250.765,178.781 34.937,178.781 		"/>
		<rect x="206.059" y="152.366" fill="#F2F2F2" width="50.013" height="2.565"/>
	</g>
	<g>
		<path fill="#25A7DE" d="M263.488,211.356c-1.573,1.545-3.199,3.144-6.457,3.144c-3.256,0-4.881-1.598-6.453-3.144
			c-1.494-1.469-2.905-2.856-5.751-2.856c-2.847,0-4.259,1.388-5.753,2.856c-1.572,1.545-3.198,3.144-6.455,3.144
			c-3.256,0-4.881-1.598-6.452-3.144c-1.494-1.469-2.905-2.856-5.751-2.856s-4.257,1.388-5.75,2.856
			c-1.571,1.545-3.196,3.144-6.45,3.144c-3.256,0-4.881-1.598-6.453-3.144c-1.494-1.469-2.905-2.856-5.752-2.856
			c-2.846,0-4.257,1.388-5.751,2.856c-1.571,1.545-3.196,3.144-6.452,3.144s-4.881-1.598-6.452-3.144
			c-1.494-1.469-2.905-2.856-5.751-2.856c-2.847,0-4.258,1.388-5.752,2.856c-1.572,1.545-3.197,3.144-6.453,3.144
			s-4.881-1.598-6.452-3.144c-1.494-1.469-2.904-2.856-5.75-2.856s-4.256,1.387-5.75,2.856c-1.571,1.545-3.196,3.144-6.452,3.144
			c-3.255,0-4.88-1.598-6.451-3.144c-1.493-1.469-2.904-2.856-5.75-2.856s-4.257,1.388-5.751,2.856
			c-1.571,1.545-3.196,3.144-6.452,3.144c-3.255,0-4.88-1.598-6.451-3.144c-1.493-1.469-2.904-2.856-5.75-2.856
			c-2.845,0-4.255,1.388-5.748,2.856c-1.571,1.545-3.195,3.144-6.449,3.144c-3.255,0-4.88-1.598-6.451-3.144
			c-1.493-1.469-2.904-2.856-5.75-2.856c-2.845,0-4.255,1.388-5.748,2.856c-1.571,1.545-3.195,3.144-6.449,3.144
			c-3.255,0-4.88-1.598-6.451-3.144c-1.493-1.469-2.904-2.856-5.75-2.856c-2.847,0-4.257,1.388-5.751,2.856
			c-1.571,1.545-3.196,3.144-6.451,3.144c-0.956,0-1.76-0.15-2.475-0.384c22.506,40.259,65.54,67.483,114.94,67.483
			c51.595,0,96.246-29.696,117.816-72.924C265.825,209.084,264.677,210.188,263.488,211.356z"/>
	</g>
	<path fill="#F28965" d="M123.816,75.916c2.482-12.751-12.322-8.249-12.322-8.249s-3.161-14.333-15.339-14.333
		S81.667,64.667,81.667,64.667S79.333,56.333,66.733,60S56.715,73.833,56.715,73.833s-11.461-3.498-11.461,10.96
		c0,10.642,11.461,5.312,11.461,5.312s1.224,5.29,8.624,5.29s9.202-9.185,9.202-9.185c8.958,8.958,11.993,0,11.993,0h9.105
		c0,0,5.815,0.432,5.815,8.443v11.91h7.669v-15.08c0,0,0.045-2.378-0.842-5.273h8.052h9.565c0,0,5.815,0.432,5.815,8.443v11.91
		h7.669v-15.08C139.383,91.483,139.709,75.916,123.816,75.916z"/>
</g>
</svg>
