<?xml version="1.0" encoding="utf-8"?>
<!-- Generator: Adobe Illustrator 16.0.0, SVG Export Plug-In . SVG Version: 6.00 Build 0)  -->
<!DOCTYPE svg PUBLIC "-//W3C//DTD SVG 1.1 Tiny//EN" "http://www.w3.org/Graphics/SVG/1.1/DTD/svg11-tiny.dtd">
<svg version="1.1" baseProfile="tiny" id="Layer_1" xmlns="http://www.w3.org/2000/svg" xmlns:xlink="http://www.w3.org/1999/xlink"
	 x="0px" y="0px" width="300px" height="300px" viewBox="0 0 300 300" xml:space="preserve">
<g>
	<circle fill="#2C323A" cx="150" cy="150" r="131.6"/>
	<g>
		<path fill="#895D39" d="M125.464,73.833h-15.717v23.99h-3.461c-1.308,0-2.366,1.299-2.366,2.901v27.027
			c-13.054,0-24.137,10.308-28.15,24.643h-5.072c-1.564,0-2.835,1.556-2.835,3.476v66.823c0,1.919,1.271,3.475,2.835,3.475h35.589
			h9.809h9.106h4.528h85.5V73.833H125.464z"/>
		<path fill="#A97D4C" d="M229.771,97.822h-4.266v-23.99h-15.717v23.99h-3.461c-1.308,0-2.366,1.299-2.366,2.901v27.027
			c-13.054,0-24.137,10.308-28.149,24.643h-5.072c-1.566,0-2.836,1.556-2.836,3.476v66.823c0,1.919,1.27,3.475,2.836,3.475h35.588
			h18.915h4.528c1.308,0,2.366-1.299,2.366-2.902V100.724C232.138,99.121,231.079,97.822,229.771,97.822z"/>
		<rect x="71.849" y="195.958" fill="#997354" width="91.725" height="25.411"/>
		<path fill="#997354" d="M75.77,152.394c0,0,4.12-22.384,28.15-24.643h100.042c0,0-20.656-0.716-28.149,24.643H75.77z"/>
		<rect x="109.747" y="91.483" fill="#83542E" width="100.042" height="6.339"/>
		<rect x="115.074" y="77.767" fill="#393A39" width="87.828" height="16.886"/>
		<polygon fill="#1C1B1A" points="116.264,78.92 202.902,78.92 202.902,77.767 115.074,77.767 115.074,94.653 116.264,94.653 		"/>
		<g>
			<path fill="#FFFFFF" d="M154.614,82.817c1.263,0,1.545-0.609,1.798-1.308h1.1v10.403h-1.635v-7.937h-1.263V82.817z"/>
			<path fill="#FFFFFF" d="M162.802,82.877c-0.521,0-0.847,0.282-0.847,1.025v1.115h-1.546v-1.011c0-1.665,0.832-2.616,2.438-2.616
				c1.604,0,2.437,0.951,2.437,2.616c0,3.27-3.254,4.488-3.254,6.198c0,0.074,0,0.148,0.015,0.223h3.091v1.486h-4.726v-1.278
				c0-3.062,3.239-3.567,3.239-6.569C163.648,83.129,163.322,82.877,162.802,82.877z"/>
			<path fill="#FFFFFF" d="M167.08,84.006c0-1.665,0.877-2.616,2.481-2.616c1.605,0,2.482,0.951,2.482,2.616v5.41
				c0,1.664-0.877,2.615-2.482,2.615c-1.604,0-2.481-0.951-2.481-2.615V84.006z M168.715,89.521c0,0.743,0.327,1.025,0.847,1.025
				c0.521,0,0.848-0.283,0.848-1.025v-5.618c0-0.743-0.327-1.025-0.848-1.025c-0.52,0-0.847,0.282-0.847,1.025V89.521z"/>
			<path fill="#FFFFFF" d="M175.595,90.338v1.575h-1.575v-1.575H175.595z"/>
			<path fill="#FFFFFF" d="M177.57,84.006c0-1.665,0.877-2.616,2.481-2.616c1.605,0,2.482,0.951,2.482,2.616v5.41
				c0,1.664-0.877,2.615-2.482,2.615c-1.604,0-2.481-0.951-2.481-2.615V84.006z M179.205,89.521c0,0.743,0.327,1.025,0.847,1.025
				c0.521,0,0.848-0.283,0.848-1.025v-5.618c0-0.743-0.327-1.025-0.848-1.025c-0.52,0-0.847,0.282-0.847,1.025V89.521z"/>
			<path fill="#FFFFFF" d="M186.902,82.877c-0.521,0-0.848,0.282-0.848,1.025v1.115h-1.545v-1.011c0-1.665,0.832-2.616,2.438-2.616
				c1.604,0,2.438,0.951,2.438,2.616c0,3.27-3.255,4.488-3.255,6.198c0,0.074,0,0.148,0.015,0.223h3.091v1.486h-4.726v-1.278
				c0-3.062,3.239-3.567,3.239-6.569C187.749,83.129,187.423,82.877,186.902,82.877z"/>
		</g>
		<g>
			<path fill="#804E27" d="M113.078,149.93c0,0,3.289-17.875,22.479-19.68h6.431c-19.19,1.804-22.48,19.68-22.48,19.68H113.078z"/>
			<path fill="#E7E8E8" d="M130.992,133.787l-4.406-8.388c-0.301-0.573-1.009-0.793-1.582-0.492c-0.573,0.3-0.793,1.009-0.492,1.582
				l4.406,8.388L130.992,133.787z"/>
			<g>
				<path fill="#E7E8E8" d="M127.812,123.607c-0.796,0.232-1.8,0.718-2.819,1.405c-1.021,0.688-1.849,1.436-2.363,2.085
					l-1.004,0.678l0.511,0.76c0.41,0.606,2.351,0.015,4.337-1.322c1.986-1.338,3.265-2.915,2.855-3.522l-0.512-0.76L127.812,123.607
					z"/>
				
					<ellipse transform="matrix(0.8294 -0.5587 0.5587 0.8294 -48.6689 91.3544)" fill="#BDBEBF" cx="125.221" cy="125.353" rx="4.336" ry="1.326"/>
			</g>
			<path fill="#E7E8E8" d="M125.534,138.176l-7.293-6.047c-0.5-0.414-1.236-0.344-1.65,0.154c-0.412,0.498-0.344,1.236,0.154,1.649
				l7.293,6.047L125.534,138.176z"/>
			<g>
				<path fill="#E7E8E8" d="M118.682,130.004c-0.644,0.52-1.385,1.355-2.062,2.382c-0.679,1.027-1.153,2.037-1.379,2.833
					l-0.666,1.011l0.765,0.504c0.611,0.403,2.176-0.89,3.494-2.889c1.318-1.999,1.891-3.946,1.28-4.35l-0.764-0.504L118.682,130.004
					z"/>
				
					<ellipse transform="matrix(0.5507 -0.8347 0.8347 0.5507 -58.1385 157.2187)" fill="#BDBEBF" cx="116.963" cy="132.611" rx="4.336" ry="1.325"/>
			</g>
		</g>
		<g>
			<g>
				<path fill="#ED746D" d="M156.308,127.909c-0.676-0.223-1.622-0.369-2.677-0.38c-1.056-0.012-2.005,0.114-2.686,0.322
					l-1.039-0.01l-0.008,1.394c-0.007,0.629,1.654,1.156,3.708,1.179c2.055,0.022,3.726-0.469,3.733-1.098l0.008-1.395
					L156.308,127.909z"/>
				
					<ellipse transform="matrix(0.9999 0.0108 -0.0108 0.9999 1.3934 -1.6557)" fill="#E73E34" cx="153.627" cy="127.88" rx="3.721" ry="1.138"/>
			</g>
			<g>
				<path fill="#ED746D" d="M150.257,132.231c-0.675-0.223-1.621-0.369-2.676-0.38c-1.058-0.011-2.007,0.114-2.686,0.322
					l-1.039-0.011l-0.009,1.394c-0.006,0.629,1.652,1.157,3.708,1.179c2.055,0.021,3.726-0.469,3.732-1.098l0.009-1.395
					L150.257,132.231z"/>
				
					<ellipse transform="matrix(0.9999 0.0108 -0.0108 0.9999 1.4401 -1.5901)" fill="#E73E34" cx="147.577" cy="132.203" rx="3.72" ry="1.138"/>
			</g>
			<g>
				<path fill="#ED746D" d="M146.541,137.472c-0.676-0.224-1.622-0.369-2.678-0.381c-1.056-0.011-2.005,0.115-2.685,0.323
					l-1.039-0.011l-0.009,1.395c-0.006,0.629,1.653,1.156,3.709,1.178c2.053,0.022,3.726-0.469,3.732-1.097l0.009-1.396
					L146.541,137.472z"/>
				
					<ellipse transform="matrix(0.9999 0.0108 -0.0108 0.9999 1.4873 -1.5401)" fill="#E73E34" cx="143.86" cy="137.443" rx="3.721" ry="1.139"/>
			</g>
			<g>
				<path fill="#ED746D" d="M144.903,143.201c-0.674-0.224-1.62-0.369-2.675-0.381c-1.059-0.011-2.006,0.114-2.686,0.322
					l-1.039-0.011l-0.008,1.395c-0.008,0.628,1.652,1.156,3.707,1.178c2.054,0.022,3.726-0.469,3.732-1.097l0.009-1.396
					L144.903,143.201z"/>
				
					<ellipse transform="matrix(0.9999 0.0108 -0.0108 0.9999 1.5585 -1.5316)" fill="#E73E34" cx="142.224" cy="143.172" rx="3.72" ry="1.138"/>
			</g>
			<g>
				<path fill="#ED746D" d="M142.823,148.619c-0.675-0.223-1.62-0.37-2.675-0.381c-1.058-0.012-2.006,0.114-2.686,0.322
					l-1.039-0.011l-0.009,1.396c-0.006,0.627,1.653,1.156,3.709,1.178c2.053,0.022,3.726-0.469,3.732-1.097l0.007-1.395
					L142.823,148.619z"/>
				
					<ellipse transform="matrix(0.9999 0.0109 -0.0109 0.9999 1.6271 -1.518)" fill="#E73E34" cx="140.144" cy="148.589" rx="3.72" ry="1.138"/>
			</g>
		</g>
		<g>
			<g>
				<path fill="#ED746D" d="M167.472,127.909c-0.675-0.223-1.619-0.369-2.676-0.38c-1.057-0.012-2.005,0.114-2.685,0.322
					l-1.039-0.01l-0.009,1.394c-0.006,0.629,1.653,1.156,3.709,1.179c2.053,0.022,3.726-0.469,3.732-1.098l0.007-1.395
					L167.472,127.909z"/>
				
					<ellipse transform="matrix(0.9999 0.0108 -0.0108 0.9999 1.3945 -1.777)" fill="#E73E34" cx="164.792" cy="127.88" rx="3.72" ry="1.138"/>
			</g>
			<g>
				<path fill="#ED746D" d="M161.422,132.231c-0.675-0.223-1.621-0.369-2.677-0.38s-2.005,0.114-2.685,0.322l-1.04-0.011
					l-0.008,1.394c-0.007,0.629,1.653,1.157,3.708,1.179c2.055,0.021,3.726-0.469,3.733-1.098l0.008-1.395L161.422,132.231z"/>
				
					<ellipse transform="matrix(0.9999 0.0108 -0.0108 0.9999 1.4406 -1.7108)" fill="#E73E34" cx="158.741" cy="132.203" rx="3.721" ry="1.138"/>
			</g>
			<g>
				<path fill="#ED746D" d="M157.705,137.472c-0.675-0.224-1.621-0.369-2.676-0.381c-1.057-0.011-2.005,0.115-2.686,0.323
					l-1.039-0.011l-0.008,1.395c-0.007,0.629,1.653,1.156,3.707,1.178c2.055,0.022,3.727-0.469,3.732-1.097l0.009-1.396
					L157.705,137.472z"/>
				
					<ellipse transform="matrix(0.9999 0.0108 -0.0108 0.9999 1.4881 -1.6604)" fill="#E73E34" cx="155.025" cy="137.443" rx="3.72" ry="1.139"/>
			</g>
			<g>
				<path fill="#ED746D" d="M156.068,143.201c-0.674-0.224-1.62-0.369-2.676-0.381c-1.057-0.011-2.005,0.114-2.684,0.322
					l-1.041-0.011l-0.008,1.395c-0.006,0.628,1.654,1.156,3.709,1.178c2.053,0.022,3.725-0.469,3.732-1.097l0.008-1.396
					L156.068,143.201z"/>
				
					<ellipse transform="matrix(0.9999 0.0108 -0.0108 0.9999 1.559 -1.6522)" fill="#E73E34" cx="153.389" cy="143.172" rx="3.721" ry="1.138"/>
			</g>
			<g>
				<path fill="#ED746D" d="M153.989,148.619c-0.675-0.223-1.621-0.37-2.676-0.381c-1.057-0.012-2.007,0.114-2.686,0.322
					l-1.039-0.011l-0.008,1.396c-0.007,0.627,1.653,1.156,3.707,1.178c2.055,0.022,3.726-0.469,3.732-1.097l0.009-1.395
					L153.989,148.619z"/>
				
					<ellipse transform="matrix(0.9999 0.0109 -0.0109 0.9999 1.6276 -1.6394)" fill="#E73E34" cx="151.309" cy="148.589" rx="3.72" ry="1.138"/>
			</g>
		</g>
		<g>
			<g>
				<path fill="#E7E8E8" d="M180.314,127.909c-0.675-0.223-1.621-0.369-2.676-0.38c-1.057-0.012-2.005,0.114-2.685,0.322
					l-1.039-0.01l-0.009,1.394c-0.007,0.629,1.653,1.156,3.709,1.179c2.052,0.022,3.725-0.469,3.732-1.098l0.007-1.395
					L180.314,127.909z"/>
				
					<ellipse transform="matrix(0.9999 0.0108 -0.0108 0.9999 1.3952 -1.9161)" fill="#FFFFFF" cx="177.635" cy="127.88" rx="3.72" ry="1.138"/>
			</g>
			<g>
				<path fill="#E7E8E8" d="M174.264,132.231c-0.674-0.223-1.621-0.369-2.676-0.38c-1.057-0.011-2.005,0.114-2.686,0.322
					l-1.039-0.011l-0.008,1.394c-0.008,0.629,1.654,1.157,3.707,1.179c2.055,0.021,3.727-0.469,3.732-1.098l0.009-1.395
					L174.264,132.231z"/>
				
					<ellipse transform="matrix(0.9999 0.0108 -0.0108 0.9999 1.4415 -1.8501)" fill="#FFFFFF" cx="171.583" cy="132.203" rx="3.72" ry="1.138"/>
			</g>
			<g>
				<path fill="#E7E8E8" d="M170.548,137.472c-0.675-0.224-1.621-0.369-2.676-0.381c-1.057-0.011-2.005,0.115-2.686,0.323
					l-1.039-0.011l-0.008,1.395c-0.008,0.629,1.653,1.156,3.707,1.178c2.055,0.022,3.726-0.469,3.732-1.097l0.009-1.396
					L170.548,137.472z"/>
				
					<ellipse transform="matrix(0.9999 0.0108 -0.0108 0.9999 1.4889 -1.7986)" fill="#FFFFFF" cx="167.868" cy="137.443" rx="3.72" ry="1.139"/>
			</g>
			<g>
				<path fill="#E7E8E8" d="M168.911,143.201c-0.675-0.224-1.621-0.369-2.676-0.381c-1.057-0.011-2.005,0.114-2.685,0.322
					l-1.039-0.011l-0.009,1.395c-0.007,0.628,1.653,1.156,3.708,1.178c2.054,0.022,3.726-0.469,3.733-1.097l0.007-1.396
					L168.911,143.201z"/>
				
					<ellipse transform="matrix(0.9999 0.0108 -0.0108 0.9999 1.5602 -1.7917)" fill="#FFFFFF" cx="166.231" cy="143.172" rx="3.72" ry="1.138"/>
			</g>
			<g>
				<path fill="#E7E8E8" d="M166.831,148.619c-0.674-0.223-1.62-0.37-2.675-0.381c-1.059-0.012-2.007,0.114-2.686,0.322l-1.04-0.011
					l-0.007,1.396c-0.008,0.627,1.653,1.156,3.707,1.178c2.054,0.022,3.725-0.469,3.732-1.097l0.009-1.395L166.831,148.619z"/>
				
					<ellipse transform="matrix(0.9999 0.0109 -0.0109 0.9999 1.6281 -1.7791)" fill="#FFFFFF" cx="164.151" cy="148.589" rx="3.721" ry="1.138"/>
			</g>
		</g>
		<path fill="#804E27" d="M113.074,133.108c0,0.499-0.405,0.904-0.904,0.904H94.419c-0.499,0-0.904-0.406-0.904-0.904l0,0
			c0-0.5,0.405-0.905,0.904-0.905h17.751C112.669,132.203,113.074,132.607,113.074,133.108L113.074,133.108z"/>
		<path fill="#E7E8E8" d="M95.626,133.293c0,0-10.007,5.24-13.011,24.526h16.304c3.694-17.73,13.011-24.526,13.011-24.526H95.626z"
			/>
		<g>
			<g>
				<path fill="#D2D3D3" d="M200.035,155.804c0.756-1.806,1.246-4.342,1.276-7.17c0.032-2.832-0.405-5.377-1.118-7.2l0.028-2.787
					l-3.07-0.033c-2.137-0.021-3.922,4.424-3.981,9.931c-0.06,5.506,1.627,9.99,3.764,10.015l3.073,0.034L200.035,155.804z"/>
				<path fill="#FFFFFF" d="M200.007,158.594c-2.14-0.025-3.827-4.507-3.766-10.018c0.059-5.507,1.839-9.951,3.98-9.929
					c2.141,0.025,3.829,4.505,3.767,10.013C203.93,154.17,202.145,158.616,200.007,158.594z"/>
			</g>
			<g>
				<path fill="#D2D3D3" d="M202.012,152.232c0.378-0.903,0.623-2.171,0.638-3.585c0.017-1.417-0.202-2.688-0.559-3.6l0.014-1.394
					l-1.535-0.017c-1.068-0.011-1.96,2.212-1.989,4.966c-0.03,2.752,0.812,4.996,1.882,5.007l1.536,0.017L202.012,152.232z"/>
				
					<ellipse transform="matrix(-0.0107 0.9999 -0.9999 -0.0107 352.8396 -51.813)" fill="#FFFFFF" cx="202.051" cy="148.64" rx="4.987" ry="1.936"/>
			</g>
		</g>
		<path fill="#A1703B" d="M206.328,97.822H106.286c0,0-2.366,0.522-2.366,3.763h100.042
			C203.962,101.585,203.708,97.822,206.328,97.822z"/>
		<ellipse fill="#A1703B" cx="153.01" cy="113.46" rx="13.009" ry="2.665"/>
		<polygon fill="#804F28" points="71.849,195.958 77.959,193.571 166.982,193.571 163.388,195.772 		"/>
	</g>
</g>
</svg>
