<?xml version="1.0" encoding="utf-8"?>
<!-- Generator: Adobe Illustrator 16.0.0, SVG Export Plug-In . SVG Version: 6.00 Build 0)  -->
<!DOCTYPE svg PUBLIC "-//W3C//DTD SVG 1.1 Tiny//EN" "http://www.w3.org/Graphics/SVG/1.1/DTD/svg11-tiny.dtd">
<svg version="1.1" baseProfile="tiny" id="Layer_1" xmlns="http://www.w3.org/2000/svg" xmlns:xlink="http://www.w3.org/1999/xlink"
	 x="0px" y="0px" width="300px" height="300px" viewBox="0 0 300 300" xml:space="preserve">
<g>
	<circle fill="#163A6C" cx="150" cy="150" r="131.6"/>
	<g>
		<g>
			<polygon fill="#F29000" points="150,64.673 66.449,118.694 66.449,97.021 150,43 			"/>
			<polygon fill="#F4A634" points="150,64.673 233.551,118.694 233.551,97.021 150,43 			"/>
			<polygon fill="#FAC978" points="150,64.673 79.048,110.549 105.24,194.581 138.064,194.581 150,194.581 194.76,194.581 
				220.952,110.549 			"/>
			<polygon fill="#F9BA51" points="79.048,110.549 150,64.673 220.952,110.549 218.203,119.371 150,73.746 81.587,118.694 			"/>
			<g>
				<g>
					<g>
						<circle fill="#FBE4BC" cx="150" cy="157.446" r="26.733"/>
						<path fill="#EBB75B" d="M150,185.263c-15.339,0-27.818-12.479-27.818-27.817s12.479-27.818,27.818-27.818
							s27.818,12.479,27.818,27.818S165.339,185.263,150,185.263z M150,131.797c-14.143,0-25.648,11.506-25.648,25.649
							s11.506,25.648,25.648,25.648s25.648-11.506,25.648-25.648S164.143,131.797,150,131.797z"/>
					</g>
					<g>
						<path fill="#EBB75B" d="M150,137.581c-0.599,0-1.085-0.485-1.085-1.084v-5.784c0-0.599,0.486-1.084,1.085-1.084
							s1.085,0.485,1.085,1.084v5.784C151.085,137.095,150.599,137.581,150,137.581z"/>
						<path fill="#EBB75B" d="M150,184.516c-0.599,0-1.085-0.485-1.085-1.084v-5.784c0-0.599,0.486-1.084,1.085-1.084
							s1.085,0.485,1.085,1.084v5.784C151.085,184.03,150.599,184.516,150,184.516z"/>
					</g>
					<g>
						<path fill="#EBB75B" d="M176.359,158.156h-5.783c-0.599,0-1.085-0.485-1.085-1.084s0.486-1.084,1.085-1.084h5.783
							c0.599,0,1.085,0.485,1.085,1.084S176.958,158.156,176.359,158.156z"/>
						<path fill="#EBB75B" d="M129.424,158.156h-5.783c-0.599,0-1.085-0.485-1.085-1.084s0.486-1.084,1.085-1.084h5.783
							c0.599,0,1.085,0.485,1.085,1.084S130.022,158.156,129.424,158.156z"/>
					</g>
				</g>
				<path fill="#F9BA51" d="M150,159.073c-0.41,0-0.82-0.154-1.137-0.463l-11.064-10.808c-0.643-0.628-0.655-1.658-0.027-2.301
					c0.63-0.643,1.659-0.654,2.301-0.027l9.914,9.685l5.043-5.042c0.635-0.636,1.666-0.636,2.301,0c0.636,0.635,0.636,1.666,0,2.301
					l-6.18,6.18C150.833,158.914,150.417,159.073,150,159.073z"/>
			</g>
			<g>
				<path fill="#623B17" d="M162.168,122.01V97.964c0-6.717-5.446-12.164-12.162-12.164c-6.719,0-12.165,5.446-12.165,12.164v24.046
					H162.168z"/>
				<path fill="#895D39" d="M137.841,122.01V97.964c0-6.717-2.312-12.164-5.161-12.164c-2.852,0-5.163,5.446-5.163,12.164v27.487
					L137.841,122.01z"/>
				<g>
					<circle fill="#009DE1" cx="170.024" cy="97.21" r="6.759"/>
					<path fill="#009DE1" d="M172.514,100.055c0,0-1.601,17.79-22.942,9.782l15.853-17.574
						C165.424,92.264,170.441,94.202,172.514,100.055z"/>
					<path fill="#009DE1" d="M145.472,116.934c0.699,0.619,1.766,0.554,2.386-0.145l15.797-17.843
						c0.619-0.699,0.555-1.767-0.145-2.386l0,0c-0.699-0.619-1.279-0.929-1.898-0.231l-16.283,18.219
						C144.708,115.248,144.772,116.315,145.472,116.934L145.472,116.934z"/>
					<path fill="#E8501D" d="M175.058,97.376c0.181-0.133,4.457-2.39,4.457-2.39l-2.041,3.209l1.442,2.938l-4.08-1.251
						C174.836,99.883,173.428,98.578,175.058,97.376z"/>
					<path fill="#203382" d="M172.83,97.102c-0.017,0-0.033-0.001-0.05-0.002c-0.272-0.027-0.471-0.27-0.443-0.542l0,0
						c0,0,0.013-0.244-0.12-0.386c-0.091-0.097-0.25-0.146-0.476-0.146c-0.693,0-0.829,0.5-0.854,0.653
						c-0.045,0.267-0.29,0.458-0.562,0.413c-0.268-0.04-0.454-0.284-0.418-0.552c0.07-0.52,0.544-1.504,1.833-1.504
						c0.646,0,1.016,0.258,1.212,0.475c0.422,0.467,0.375,1.077,0.368,1.145C173.296,96.911,173.081,97.102,172.83,97.102z"/>
					<path fill="#00BFE1" d="M164.94,96.488l-25.446,3.109c0,0-1.284,0.42,0.124,1.714c1.41,1.294,10.819,10.201,20.386,4.466
						C169.572,100.043,164.94,96.488,164.94,96.488z"/>
				</g>
			</g>
		</g>
		<path fill="#E6352B" d="M142.564,240.978c0,2.689-2.181,4.87-4.869,4.87l0,0c-2.689,0-4.87-2.18-4.87-4.87v-13.582
			c0-2.689,2.181-4.869,4.87-4.869l0,0c2.688,0,4.869,2.18,4.869,4.869V240.978z"/>
		<path fill="#E6352B" d="M167.184,264.298c0,2.689-2.181,4.87-4.87,4.87l0,0c-2.689,0-4.869-2.18-4.869-4.87v-13.582
			c0-2.689,2.18-4.869,4.869-4.869l0,0c2.689,0,4.87,2.18,4.87,4.869V264.298z"/>
		<path fill="#FAC978" d="M137.695,228.853c-0.898,0-1.627-0.729-1.627-1.627V190.89c0-0.898,0.729-1.627,1.627-1.627
			s1.627,0.729,1.627,1.627v36.336C139.322,228.125,138.594,228.853,137.695,228.853z"/>
		<path fill="#FAC978" d="M162.168,252.716c-0.898,0-1.627-0.729-1.627-1.627V190.89c0-0.898,0.729-1.627,1.627-1.627
			s1.627,0.729,1.627,1.627v60.199C163.795,251.987,163.066,252.716,162.168,252.716z"/>
	</g>
</g>
</svg>
