<?xml version="1.0" encoding="utf-8"?>
<!-- Generator: Adobe Illustrator 16.0.0, SVG Export Plug-In . SVG Version: 6.00 Build 0)  -->
<!DOCTYPE svg PUBLIC "-//W3C//DTD SVG 1.1 Tiny//EN" "http://www.w3.org/Graphics/SVG/1.1/DTD/svg11-tiny.dtd">
<svg version="1.1" baseProfile="tiny" id="Layer_1" xmlns="http://www.w3.org/2000/svg" xmlns:xlink="http://www.w3.org/1999/xlink"
	 x="0px" y="0px" width="300px" height="300px" viewBox="0 0 300 300" xml:space="preserve">
<g>
	<g>
		<circle fill="#25A7DE" cx="150" cy="150" r="131.6"/>
	</g>
	<g>
		<path fill="#203382" d="M195.589,240.125c0-28.412,0.006-28.49,0.006-28.568v-59.167c0-24.597-19.937-38.533-44.535-38.533h-2.92
			c-24.598,0-44.537,13.936-44.537,38.533v59.167c0,0.079,0.006,0.157,0.006,28.568H195.589z"/>
		<path fill="#203382" d="M135.511,189.818c-1.398,0-2.818-0.294-4.172-0.917l-64.852-29.817c-3.66-1.683-5.953-5.398-5.816-9.424
			s2.676-7.578,6.441-9.009l61.858-23.51c5.163-1.962,10.938,0.633,12.9,5.795c1.962,5.163-0.633,10.938-5.795,12.9l-39.567,15.038
			l43.186,19.856c5.018,2.307,7.215,8.245,4.908,13.263C142.917,187.657,139.296,189.818,135.511,189.818z"/>
		<path fill="#203382" d="M163.615,189.818c-3.785,0-7.406-2.16-9.092-5.825c-2.307-5.018-0.109-10.956,4.908-13.263l43.424-19.965
			l-34.017-13.237c-5.147-2.003-7.696-7.799-5.693-12.946c2.002-5.146,7.799-7.698,12.945-5.693l55.996,21.79
			c3.741,1.456,6.249,5.007,6.369,9.02s-2.171,7.708-5.817,9.385l-64.852,29.817C166.434,189.523,165.014,189.818,163.615,189.818z"
			/>
		<path fill="#C5B69A" d="M107.141,240.125h83.987v34.918c0,0-38.51,15.179-83.987-0.583V240.125z"/>
	</g>
	<g>
		<path fill="#F19574" d="M163.809,145.473c0,4.546-3.684,8.229-8.229,8.229h-10.461c-4.545,0-8.229-3.683-8.229-8.229v-42.03
			c0-4.544,3.684-8.228,8.229-8.228h10.461c4.545,0,8.229,3.684,8.229,8.228V145.473z"/>
		<path fill="#F3A285" d="M184.023,102.727c0,16.588-13.444,30.032-30.032,30.032h-8.785c-16.587,0-30.033-13.443-30.033-30.032
			V62.828c0-16.587,13.446-30.032,30.033-30.032h8.785c16.588,0,30.032,13.445,30.032,30.032V102.727z"/>
		<g>
			<path fill="#F3A285" d="M116.442,78.837c-0.113-0.004-0.228-0.01-0.343-0.01c-6.214,0-11.249,5.039-11.249,11.252
				s5.035,11.251,11.249,11.251c0.115,0,0.229-0.005,0.343-0.008V78.837z"/>
			<path fill="#F08660" d="M116.442,84.277c-0.06-0.001-0.117-0.005-0.176-0.005c-3.208,0-5.808,2.6-5.808,5.808
				c0,3.207,2.6,5.806,5.808,5.806c0.059,0,0.116-0.002,0.176-0.004V84.277z"/>
		</g>
		<g>
			<path fill="#F3A285" d="M183.556,78.837c0.112-0.004,0.227-0.01,0.341-0.01c6.215,0,11.253,5.039,11.253,11.252
				s-5.038,11.251-11.253,11.251c-0.114,0-0.229-0.005-0.341-0.008V78.837z"/>
			<path fill="#F08660" d="M183.556,84.277c0.059-0.001,0.117-0.005,0.175-0.005c3.208,0,5.808,2.6,5.808,5.808
				c0,3.207-2.6,5.806-5.808,5.806c-0.058,0-0.116-0.002-0.175-0.004V84.277z"/>
		</g>
		<path fill="#F6B9A3" d="M156.315,95.215c0,0.86-0.699,1.558-1.559,1.558h-9.533c-0.859,0-1.558-0.697-1.558-1.558l0,0
			c0-0.86,0.698-1.558,1.558-1.558h9.533C155.616,93.658,156.315,94.355,156.315,95.215L156.315,95.215z"/>
		<path fill="#20275B" d="M135.517,85.386c0,2.245-1.82,1.545-4.065,1.545c-2.244,0-4.063,0.7-4.063-1.545
			c0-2.244,1.819-4.064,4.063-4.064C133.696,81.322,135.517,83.142,135.517,85.386z"/>
		<path fill="#20275B" d="M172.465,85.386c0,2.245-1.82,1.079-4.064,1.079c-2.245,0-4.065,1.166-4.065-1.079
			c0-2.244,1.82-4.064,4.065-4.064C170.645,81.322,172.465,83.142,172.465,85.386z"/>
		<path fill="#FFFFFF" d="M166.597,109.083c-0.75,8.229-7.628,1.679-17.036,1.679c-9.409,0-17.037,7.975-17.037-1.679
			c0-10.792,7.628-2.878,17.037-2.878C158.969,106.205,167.577,98.322,166.597,109.083z"/>
		<g>
			<path fill="#F29675" d="M183.526,65.666c0,0-0.765-6.589-5.515-6.589c0,0-8.862,1.21-11.709-5.6c0,0-11.26,5.293-16.323-1.908
				c0,0-6.597,7.503-18.897,1.908c0,0-1.488,5.447-7.771,5.447s-7.239,2.298-7.239,8.581v3.62c0-6.282,0.957-8.581,7.239-8.581
				s7.771-5.447,7.771-5.447c12.301,5.595,18.897-1.908,18.897-1.908c5.063,7.201,16.323,1.908,16.323,1.908
				c2.847,6.811,11.709,5.6,11.709,5.6c4.75,0,5.515,6.589,5.515,6.589V65.666z"/>
		</g>
		<path fill="#5DC3E8" d="M134.554,70.632c0,1.713-1.39,3.102-3.102,3.102c-1.714,0-3.102-1.389-3.102-3.102
			c0-1.713,3.102-7.062,3.102-7.062S134.554,68.919,134.554,70.632z"/>
		<path fill="#90D6EF" d="M95.628,81.192c-0.802,1.008-2.271,1.175-3.277,0.373c-1.009-0.801-1.176-2.269-0.374-3.276
			c0.802-1.009,5.131-2.706,5.131-2.706S96.43,80.183,95.628,81.192z"/>
		<path fill="#90D6EF" d="M207.042,77.675c1.008,0.802,1.175,2.271,0.373,3.277c-0.802,1.009-2.269,1.176-3.276,0.374
			c-1.009-0.802-2.706-5.131-2.706-5.131S206.033,76.873,207.042,77.675z"/>
		<path fill="#90D6EF" d="M205.41,105.245c0.933,0.887,0.97,2.365,0.083,3.297c-0.888,0.935-2.363,0.972-3.297,0.084
			c-0.935-0.888-2.244-5.349-2.244-5.349S204.476,104.357,205.41,105.245z"/>
		<path fill="#90D6EF" d="M104.131,112.051c-0.291,1.255-1.547,2.036-2.8,1.744c-1.255-0.291-2.036-1.544-1.744-2.799
			c0.291-1.255,3.473-4.646,3.473-4.646S104.422,110.796,104.131,112.051z"/>
		<path fill="#F2BA00" d="M115.173,78.828c0,0-4.598-4.582-1.722-9.485c0,0-5.422-6.683,0-12.104c0,0-4.071-6.585,2.991-10.878
			c0,0,1.264-9.959,10.15-9.959c0,0,5.976-8.427,15.322-4.443c0,0,2.647-3.831,7.683-3.831H150c5.035,0,7.683,3.831,7.683,3.831
			c9.347-3.984,15.322,4.443,15.322,4.443c8.887,0,10.15,9.959,10.15,9.959c7.062,4.293,2.991,10.878,2.991,10.878
			c5.422,5.421,0,12.104,0,12.104c2.876,4.903-1.722,9.485-1.722,9.485h-0.528V65.666c0,0-0.765-6.589-5.515-6.589
			c0,0-8.862,1.21-11.709-5.6c0,0-11.26,5.293-16.323-1.908c0,0-6.597,7.503-18.897,1.908c0,0-1.488,5.447-7.771,5.447
			s-7.239,2.298-7.239,8.581v11.323H115.173z"/>
		<circle fill="#90D6EF" cx="84.228" cy="91.756" r="1.677"/>
		<circle fill="#90D6EF" cx="103.358" cy="46.672" r="1.509"/>
		<circle fill="#90D6EF" cx="194.086" cy="53.078" r="1.508"/>
		<circle fill="#90D6EF" cx="196.015" cy="115.786" r="1.929"/>
	</g>
	<path fill="#D2D3D3" d="M183.573,207.138c-0.553,0-1-0.448-1-1c0-18.793-14.882-34.083-33.174-34.083s-33.173,15.29-33.173,34.083
		c0,0.552-0.447,1-1,1s-1-0.448-1-1c0-19.896,15.778-36.083,35.173-36.083s35.174,16.187,35.174,36.083
		C184.573,206.69,184.126,207.138,183.573,207.138z"/>
	<path fill="#F3A285" d="M148.358,179.461c0,3.124-2.532,5.656-5.656,5.656h-11.623c-3.124,0-5.656-2.532-5.656-5.656v-8.611
		c0-3.124,2.532-5.656,5.656-5.656h11.623c3.124,0,5.656,2.533,5.656,5.656V179.461z"/>
	<path fill="#EF8660" d="M142.702,180.493h-11.623c-3.124,0-5.656-2.532-5.656-5.656v4.3c0,3.124,2.532,5.656,5.656,5.656h11.623
		c3.124,0,5.656-2.532,5.656-5.656v-4.3C148.358,177.961,145.826,180.493,142.702,180.493z"/>
	<path fill="#EF8660" d="M142.702,180.817h-11.623c-3.124,0-5.656-2.532-5.656-5.656v4.3c0,3.124,2.532,5.656,5.656,5.656h11.623
		c3.124,0,5.656-2.532,5.656-5.656v-4.3C148.358,178.285,145.826,180.817,142.702,180.817z"/>
	<path fill="#F3A285" d="M173.285,179.461c0,3.124-2.532,5.656-5.656,5.656h-11.623c-3.124,0-5.656-2.532-5.656-5.656v-8.611
		c0-3.124,2.532-5.656,5.656-5.656h11.623c3.124,0,5.656,2.533,5.656,5.656V179.461z"/>
	<path fill="#EF8660" d="M167.629,180.817h-11.623c-3.124,0-5.656-2.532-5.656-5.656v4.3c0,3.124,2.532,5.656,5.656,5.656h11.623
		c3.124,0,5.656-2.532,5.656-5.656v-4.3C173.285,178.285,170.753,180.817,167.629,180.817z"/>
	<g>
		<g>
			<path fill="#E8501D" d="M177.871,269.208c0,2.011-1.63,3.641-3.641,3.641h-50.447c-2.012,0-3.641-1.63-3.641-3.641l-3.7-63.021
				c0-2.01,1.63-3.641,3.641-3.641h59.031c2.011,0,3.641,1.63,3.641,3.641L177.871,269.208z"/>
			<path fill="#ED7952" d="M184.789,204.342c0,0.992-0.805,1.796-1.796,1.796h-66.789c-0.991,0-1.796-0.804-1.796-1.796l0,0
				c0-0.992,0.805-1.796,1.796-1.796h66.789C183.984,202.546,184.789,203.35,184.789,204.342L184.789,204.342z"/>
			<polygon fill="#E1410A" points="116.204,206.138 182.596,206.138 181.816,219.454 116.442,209.194 			"/>
		</g>
		<polygon fill="#D2D3D3" points="116.945,202.546 179.791,202.546 174.2,196.619 169.574,196.619 165.719,193.245 158.007,193.245 
			156.079,191.317 151.838,192.185 150.35,195.655 141.718,193.631 136.891,196.233 130.922,189.872 126.199,189.872 
			123.308,194.113 120.127,194.595 		"/>
		<polygon fill="#ADAFAF" points="120.127,194.595 123.308,194.113 125.423,199.414 		"/>
		<polygon fill="#ADAFAF" points="136.891,196.233 141.718,193.631 143.742,197.679 145.67,197.679 145.284,200.667 		"/>
		<polygon fill="#ADAFAF" points="130.922,189.872 135.517,194.769 126.199,189.872 		"/>
		<polygon fill="#ADAFAF" points="151.838,192.185 156.465,197.775 157.814,197.149 160.706,198.161 158.007,193.245 
			156.079,191.317 		"/>
		<polygon fill="#ADAFAF" points="165.719,193.245 161.817,193.245 169.574,196.619 		"/>
		<polygon fill="#ADAFAF" points="174.2,196.619 179.791,202.546 173.285,199.414 173.285,198.161 171.598,196.619 		"/>
		<path fill="#EC6B40" d="M181.412,224.017H117.46c-0.276,0-0.5-0.224-0.5-0.5s0.224-0.5,0.5-0.5h63.952c0.276,0,0.5,0.224,0.5,0.5
			S181.688,224.017,181.412,224.017z"/>
		<path fill="#EC6B40" d="M179.41,240.625h-60.949c-0.276,0-0.5-0.224-0.5-0.5s0.224-0.5,0.5-0.5h60.949c0.276,0,0.5,0.224,0.5,0.5
			S179.687,240.625,179.41,240.625z"/>
		<path fill="#EC6B40" d="M178.409,257h-58.947c-0.276,0-0.5-0.224-0.5-0.5s0.224-0.5,0.5-0.5h58.947c0.276,0,0.5,0.224,0.5,0.5
			S178.686,257,178.409,257z"/>
	</g>
	<g>
		<path fill="#90D6EF" d="M76.855,108.351c-0.224,0-0.451-0.038-0.673-0.117l-22.099-7.901c-1.041-0.372-1.582-1.517-1.21-2.557
			c0.372-1.04,1.521-1.582,2.556-1.21l22.099,7.901c1.041,0.372,1.582,1.517,1.21,2.557
			C78.446,107.841,77.677,108.351,76.855,108.351z"/>
		<path fill="#90D6EF" d="M65.808,124.882c-0.752,0-1.473-0.427-1.812-1.153c-0.468-1-0.036-2.191,0.964-2.659l11.049-5.167
			c1.002-0.468,2.191-0.036,2.659,0.964s0.036,2.191-0.964,2.659l-11.049,5.167C66.38,124.822,66.092,124.882,65.808,124.882z"/>
	</g>
	<g>
		<path fill="#90D6EF" d="M223.676,108.351c-0.821,0-1.591-0.51-1.883-1.327c-0.372-1.04,0.169-2.185,1.21-2.557l22.099-7.901
			c1.036-0.372,2.185,0.17,2.556,1.21c0.372,1.04-0.169,2.185-1.21,2.557l-22.099,7.901
			C224.127,108.313,223.899,108.351,223.676,108.351z"/>
		<path fill="#90D6EF" d="M234.724,124.882c-0.284,0-0.572-0.061-0.847-0.189l-11.049-5.167c-1-0.468-1.432-1.658-0.964-2.659
			c0.468-1.001,1.658-1.434,2.659-0.964l11.049,5.167c1,0.468,1.432,1.658,0.964,2.659
			C236.196,124.456,235.476,124.882,234.724,124.882z"/>
	</g>
	<polygon fill="#0D2278" points="103.603,154.012 127.388,165.194 134.381,163.142 	"/>
	<polygon fill="#0D2278" points="103.603,175.156 120.127,183.504 103.603,179.815 	"/>
	<polygon fill="#0D2278" points="195.916,154.012 172.131,165.194 166.207,162.344 	"/>
	<polygon fill="#0D2278" points="195.11,175.156 178.586,183.504 195.11,179.815 	"/>
</g>
</svg>
