<?xml version="1.0" encoding="utf-8"?>
<!-- Generator: Adobe Illustrator 16.0.0, SVG Export Plug-In . SVG Version: 6.00 Build 0)  -->
<!DOCTYPE svg PUBLIC "-//W3C//DTD SVG 1.1 Tiny//EN" "http://www.w3.org/Graphics/SVG/1.1/DTD/svg11-tiny.dtd">
<svg version="1.1" baseProfile="tiny" id="Layer_1" xmlns="http://www.w3.org/2000/svg" xmlns:xlink="http://www.w3.org/1999/xlink"
	 x="0px" y="0px" width="300px" height="300px" viewBox="0 0 300 300" xml:space="preserve">
<g>
	<g>
		<circle fill="#609544" cx="150" cy="150" r="131.6"/>
	</g>
	<g>
		<path fill="#FFCC00" d="M52.986,186.15c-4.332-2.32-8.293-5.406-11.696-9.258c-13.716-15.522-10.918-40.715,6.252-56.27
			c9.25-8.38,21.354-11.125,31.625-8.232l63.586,9.506l-8.945,80.635L52.986,186.15z"/>
		<path fill="#FFAE00" d="M143.601,123.268c0,0-34.049-2.883-42.232,36.687c0,0-4.879,37.652,37.292,43.265
			c0,0,24.835,1.334,38.312-12.144l50.658-29.3l-31.285-9.825l-37.489,16.03c0,0,7.22-10.779,7.22-23.488
			S153.943,122.768,143.601,123.268z"/>
		<path fill="#FF9A00" d="M136.997,149.4l-8.464-1.6c0,0-6.075,5.629-4.013,17.353l15.804-0.916
			C140.324,164.237,132.205,156.969,136.997,149.4z"/>
		<path fill="#FF9A00" d="M140.324,140.242l-29.008-3.718c0,0-13.593,14.653-10.954,29.856l1.544,7.016l42.417,2.747
			c0,0-19.803-1.845-19.803-19.239C124.521,139.509,140.324,140.242,140.324,140.242z"/>
		<path fill="#FFEB00" d="M142.984,204.907c-0.928,0-1.853-0.025-2.778-0.077c-12.467-0.693-23.689-6.006-31.601-14.959
			c-14.231-16.106-11.375-42.288,6.369-58.363c7.364-6.672,16.937-10.197,26.261-9.683c8.124,0.452,15.439,3.916,20.598,9.755
			c9.303,10.527,7.456,27.621-4.116,38.106c-4.819,4.366-11.088,6.675-17.199,6.335c-5.344-0.297-10.158-2.578-13.556-6.424
			c-6.147-6.957-4.946-18.235,2.678-25.143c3.19-2.889,7.344-4.417,11.397-4.192c3.564,0.198,6.778,1.722,9.049,4.292
			c4.128,4.672,3.34,12.229-1.756,16.845c-2.147,1.946-4.948,2.977-7.686,2.822c-2.426-0.135-4.614-1.174-6.163-2.927
			c-2.836-3.211-2.312-8.386,1.165-11.535c0.611-0.555,1.556-0.508,2.108,0.104c0.554,0.611,0.507,1.555-0.104,2.108
			c-2.273,2.06-2.691,5.354-0.933,7.347c1.016,1.149,2.469,1.832,4.092,1.922c1.944,0.112,3.955-0.64,5.516-2.053
			c3.891-3.525,4.573-9.203,1.522-12.656c-1.738-1.967-4.216-3.134-6.978-3.287c-3.263-0.182-6.624,1.066-9.227,3.424
			c-6.419,5.814-7.517,15.215-2.445,20.953c2.865,3.242,6.943,5.167,11.484,5.42c5.317,0.293,10.797-1.733,15.028-5.566
			c10.368-9.394,12.11-24.609,3.884-33.918c-4.626-5.236-11.205-8.344-18.525-8.75c-8.534-0.474-17.314,2.774-24.091,8.914
			c-16.539,14.982-19.292,39.285-6.137,54.174c7.379,8.351,17.865,13.307,29.529,13.955c13.557,0.752,27.499-4.401,38.254-14.144
			c0.082-0.075,0.172-0.14,0.27-0.194l48.002-27.037c0.717-0.404,1.628-0.15,2.032,0.568c0.405,0.718,0.15,1.628-0.567,2.032
			l-47.857,26.956C169.913,199.572,156.386,204.906,142.984,204.907z"/>
		<path fill="#FFEB00" d="M212.119,156.904l-45.173,18.38c0,0-22.623,37.494-57.976,10.567c0,0,10.481,22.367,43.433,16.68
			c0,0,16.836-3.331,27.225-13.719l47.431-27.608L212.119,156.904z"/>
		<path fill="#E7E8E8" d="M188.858,155.151c0,0,17.378-5.843,24.521,16.413l51.088-27.509c0,0,4.414-11.507-10.423-17.003
			L188.858,155.151z"/>
		<path fill="#38A5DC" d="M205.91,147.801c0,0,17.98-0.47,22.741,15.541l7.877-4.242c0,0-1.23-15.253-18.513-16.517L205.91,147.801z
			"/>
		<path fill="#38A5DC" d="M232.072,136.524l8.636-3.723c0,0,14.004,1.677,14.004,16.507l-6.785,3.653
			C247.927,152.962,246.228,139.616,232.072,136.524z"/>
		<path fill="#E7E8E8" d="M264.468,144.056c0,0,2.285-5.36-0.577-9.149l-84.495,45.274c0,0-13.975,19.075-47.187,23.276
			c0,0,24.699,8.909,47.748-13.51L264.468,144.056z"/>
		
			<ellipse transform="matrix(0.99 0.1414 -0.1414 0.99 21.6793 -5.3884)" fill="#E8501D" cx="48.763" cy="149.881" rx="7.395" ry="13.357"/>
		
			<ellipse transform="matrix(0.9776 0.2105 -0.2105 0.9776 29.4492 -16.8455)" fill="#E8501D" cx="93.846" cy="129.896" rx="6.177" ry="6.629"/>
		
			<ellipse transform="matrix(0.9776 0.2106 -0.2106 0.9776 28.7601 -12.6415)" fill="#FFFFFF" cx="73.746" cy="128.739" rx="4.837" ry="5.192"/>
		
			<ellipse transform="matrix(0.9776 0.2105 -0.2105 0.9776 35.6847 -14.8622)" fill="#FFFFFF" cx="87.669" cy="160.226" rx="4.837" ry="5.192"/>
		
			<ellipse transform="matrix(0.9995 -0.0311 0.0311 0.9995 -5.4467 1.9872)" fill="#FFFFFF" cx="61.18" cy="176.144" rx="4.837" ry="5.191"/>
		
			<ellipse transform="matrix(0.9387 -0.3449 0.3449 0.9387 -56.9109 40.4243)" fill="#8BBF26" cx="85.171" cy="180.181" rx="6.176" ry="6.628"/>
	</g>
</g>
</svg>
