<?xml version="1.0" encoding="utf-8"?>
<!-- Generator: Adobe Illustrator 16.0.0, SVG Export Plug-In . SVG Version: 6.00 Build 0)  -->
<!DOCTYPE svg PUBLIC "-//W3C//DTD SVG 1.1 Tiny//EN" "http://www.w3.org/Graphics/SVG/1.1/DTD/svg11-tiny.dtd">
<svg version="1.1" baseProfile="tiny" id="Layer_1" xmlns="http://www.w3.org/2000/svg" xmlns:xlink="http://www.w3.org/1999/xlink"
	 x="0px" y="0px" width="300px" height="300px" viewBox="0 0 300 300" xml:space="preserve">
<g>
	<g>
		<circle fill="#FFD202" cx="150" cy="150" r="131.6"/>
	</g>
	<g>
		<polygon fill-rule="evenodd" fill="#1F6FB3" points="49.904,99.371 110.915,139.864 89.034,72.862 129.712,129.016 
			129.712,57.294 152.126,123.757 168.584,57.294 168.584,132.535 200.978,73.704 186.168,132.535 243.877,89.272 200.899,144.508 
			267.439,144.508 192.122,161.737 251.45,190.773 193.805,177.151 219.587,226.526 174.45,189.414 193.032,253.081 158.671,198.25 
			151.939,269.877 134.478,207.848 103.06,252.528 110.074,199.973 52.85,212.556 95.192,179.362 36.439,165.075 90.297,155.964 		
			"/>
		<path fill-rule="evenodd" fill="#38A5DC" d="M142.894,125.879l2.104-86.257l19.322,80.56c0,0,30.749-85.609,30.749-80.56
			s-15.569,86.257-15.569,86.257l61.433-66.061l-36.435,66.061l57.894-16.41l-59.384,43.76l54.755,16.087h-59.737l34.07,41.137
			l-49.446-29.726l26.272,61.631l-40.035-51.584l1.531,71.862l-22.744-62.663l-17.425,69.905l-0.536-71.207l-56.063,46.466
			l31.376-58.668l-79.945,1.263l70.113-17.395l-60.436-41.321l56.551,13.022L67.155,73.283l50.715,59.252L99.541,39.407
			L142.894,125.879z"/>
		<g>
			<path fill-rule="evenodd" fill="#393A39" d="M229.182,154.243l-4.576,4.594l9.895,14.459l5.623-5.617
				C240.123,167.679,238.59,156.556,229.182,154.243z"/>
			<path fill-rule="evenodd" fill="#393A39" d="M231.12,146.871l-6.515-47.028c0,0,3.247-5.468,6.515-5.468
				c3.269,0,11.438,0,11.438,0l-3.27,47.187L231.12,146.871z"/>
			<path fill-rule="evenodd" fill="#393A39" d="M242.559,160.954c0,5.188-3.609,9.394-8.059,9.394c-4.45,0-8.059-4.206-8.059-9.394
				c0-5.188,3.608-8.781,8.059-8.781C238.949,152.172,242.559,155.765,242.559,160.954z"/>
			<path fill-rule="evenodd" fill="#393A39" d="M212.228,122.566c-9.135-22.532-36.233-7.612-47.499,3.654l6.09,10.787
				l-4.694,51.506l4.694,4.693h11.57v-26.794C182.389,166.413,221.362,145.099,212.228,122.566z M182.389,156.669v-28.013
				c0,0,16.441-4.263,16.441,8.352C198.83,149.62,182.389,156.669,182.389,156.669z"/>
			<path fill-rule="evenodd" fill="#FFFFFF" d="M207.534,117.873c-9.135-22.533-36.234-7.613-47.499,3.653l6.089,10.786v56.201
				h11.571v-26.795C177.695,161.718,216.668,140.405,207.534,117.873z M177.695,151.975v-28.013c0,0,16.441-4.263,16.441,8.35
				C194.137,144.926,177.695,151.975,177.695,151.975z"/>
			<path fill-rule="evenodd" fill="#393A39" d="M151.158,119.213c-13.83-2.348-28.024,16.448-31.703,38.104
				c-2.759,16.24-4.523,25.544,3.453,33.023c2.658,2.492,9.004,10.44,14.928,10.44c14.028,0,28.024-13.301,31.703-34.954
				C173.22,144.17,164.99,121.565,151.158,119.213z M157.41,165.635c0,0-2.857,23.608-14.424,21.896
				c-13.909-2.062-9.789-25.959-9.789-25.959s2.436-29.166,15.713-29.166C160.235,132.406,157.41,165.635,157.41,165.635z"/>
			<path fill-rule="evenodd" fill="#FFFFFF" d="M146.465,117.668c-13.831-2.349-28.025,13.3-31.705,34.956
				c-3.68,21.654,4.552,41.112,18.381,43.463c13.832,2.35,28.027-13.3,31.703-34.953
				C168.524,139.477,160.295,120.019,146.465,117.668z M152.719,160.941c0,0-2.859,23.609-14.428,21.896
				c-13.91-2.061-9.789-25.959-9.789-25.959s2.438-29.166,15.715-29.166C155.542,127.711,152.719,160.941,152.719,160.941z"/>
			<path fill-rule="evenodd" fill="#393A39" d="M125.842,140.643c-9.135-22.531-36.233-7.613-47.501,3.654l6.089,10.786
				l-4.691,51.507l4.691,4.693h11.573v-26.794C96.003,184.489,134.976,163.175,125.842,140.643z M96.003,174.745v-28.013
				c0,0,16.441-4.262,16.441,8.351C112.444,167.696,96.003,174.745,96.003,174.745z"/>
			<path fill-rule="evenodd" fill="#FFFFFF" d="M121.147,135.949c-9.134-22.532-36.234-7.613-47.499,3.654l6.09,10.786v56.2h11.569
				v-26.795C91.308,179.794,130.282,158.481,121.147,135.949z M91.308,170.051v-28.013c0,0,16.442-4.262,16.442,8.351
				C107.75,163.002,91.308,170.051,91.308,170.051z"/>
			<path fill-rule="evenodd" fill="#FFFFFF" d="M226.354,149.792l-2.042-46.564c0,0-1.227-4.085,2.042-4.085
				c3.268,0,11.438,0,11.438,0l-3.27,45.339L226.354,149.792z"/>
			<path fill-rule="evenodd" fill="#FFFFFF" d="M237.791,165.721c0,5.188-3.609,9.394-8.059,9.394c-4.45,0-8.059-4.206-8.059-9.394
				c0-5.188,3.608-8.781,8.059-8.781C234.182,156.94,237.791,160.533,237.791,165.721z"/>
		</g>
	</g>
</g>
</svg>
