<?xml version="1.0" encoding="utf-8"?>
<!-- Generator: Adobe Illustrator 17.0.0, SVG Export Plug-In . SVG Version: 6.00 Build 0)  -->
<!DOCTYPE svg PUBLIC "-//W3C//DTD SVG 1.1//EN" "http://www.w3.org/Graphics/SVG/1.1/DTD/svg11.dtd">
<svg version="1.1" id="Layer_1" xmlns="http://www.w3.org/2000/svg" xmlns:xlink="http://www.w3.org/1999/xlink" x="0px" y="0px"
	 width="512px" height="512px" viewBox="0 0 512 512" enable-background="new 0 0 512 512" xml:space="preserve">
<path fill="#F05A28" d="M256,31C131.747,31,31,131.747,31,256s100.747,225,225,225s225-100.747,225-225S380.253,31,256,31z"/>
<g>
	<path fill="#333E48" d="M421.853,157.383h-96.078c-3.316,0-6.005-2.689-6.005-6.005c0-3.316,2.689-6.005,6.005-6.005h96.078
		c3.317,0,6.005,2.689,6.005,6.005C427.858,154.694,425.169,157.383,421.853,157.383z"/>
	<g>
		<g>
			<path fill="#95D600" d="M165.558,300.602c-7.701,31.509-9.86,63.712-4.312,89.924c9.604,22.531,75.717,2.77,57.989-17.729
				c-6.648-6.834-29.178-31.395-18.099-56.141L165.558,300.602z"/>
		</g>
		<path fill="#95D600" d="M313.168,191.892c0-9.585,17.889-20.577,17.889-35.711c0-22.171-21.401-44.709-46.094-44.709
			c-24.692,0-44.71,20.017-44.71,44.709c0,17.859-0.253,22.865-6.738,27.629c-0.449,0.301-0.896,0.616-1.343,0.928
			c-0.074,0.048-0.143,0.095-0.216,0.143l0.002,0.006c-35.654,25.08-63.913,86.361-71.679,143.451
			c6.472,0.966,13.095,1.472,19.838,1.472c73.53,0,133.137-59.608,133.137-133.138c0-1.6-0.034-3.193-0.09-4.781L313.168,191.892z"
			/>
		<path fill="#229CD2" d="M313.168,191.892c0-5.273,5.412-10.974,10.284-17.553c-8.369,10.169-29.056,6.665-35.634,26.945
			c-5.624,17.343,13.306,26.033,18.058,39.177c4.775-13.715,7.378-28.446,7.378-43.788c0-1.6-0.034-3.193-0.09-4.781H313.168z"/>
		<path opacity="0.2" fill="#218649" enable-background="new    " d="M303.37,247.095H184.474
			c-7.922,16.691-14.374,34.977-18.903,53.511l-0.011-0.005c-0.102,0.419-0.192,0.837-0.292,1.255
			c-0.255,1.062-0.502,2.127-0.744,3.19c-0.227,0.998-0.448,1.994-0.663,2.992c-0.206,0.955-0.407,1.911-0.603,2.867
			c-0.206,1.003-0.405,2.005-0.599,3.007c-0.2,1.038-0.396,2.076-0.584,3.114c-0.16,0.886-0.316,1.773-0.468,2.658
			c-0.198,1.157-0.388,2.314-0.57,3.468c-0.117,0.749-0.231,1.496-0.342,2.243c-0.145,0.982-0.285,1.962-0.418,2.941
			c0.002,0,0.003,0,0.005,0.001c-3.013,22.147-2.956,43.664,0.965,62.186c9.604,22.531,75.717,2.77,57.989-17.729
			c-5.572-5.727-22.296-23.908-21.043-44.213C245.964,322.098,285.684,290.277,303.37,247.095z"/>
		<path opacity="0.3" fill="#218649" enable-background="new    " d="M198.194,328.584c-5.913,0.804-11.946,1.227-18.079,1.227
			c-2.085,0-4.158-0.054-6.219-0.15c-0.317,3.504-0.571,6.998-0.742,10.469c6.53,0.411,13.173,0.347,19.891-0.23
			c2.027-0.175,4.038-0.4,6.035-0.663C198.318,335.794,197.97,332.223,198.194,328.584z"/>
	</g>
	<circle fill="#333E48" cx="306.033" cy="140.844" r="4.432"/>
	<path opacity="0.2" enable-background="new    " d="M228.322,187.59c-21.485,16.825-40.037,46.667-52.659,80.299
		c13.559,4.321,28.003,6.662,42.995,6.662c20.194,0,36.565-16.372,36.565-36.567C255.223,216.369,244.813,199.949,228.322,187.59z"
		/>
	<g>
		<path fill="#00953A" d="M84.142,145.278c9.691,68.681,68.7,121.515,140.056,121.515c20.195,0,36.566-16.372,36.566-36.566
			C260.763,161.544,155.706,145.278,84.142,145.278z"/>
		<path fill="#00953A" d="M84.142,145.278c9.691,68.681,68.7,121.515,140.056,121.515c20.195,0,36.566-16.372,36.566-36.566
			C260.763,161.544,155.706,145.278,84.142,145.278z"/>
		<path fill="#95D600" d="M87.5,161.807c16.085,60.447,71.183,104.987,136.697,104.987c9.202,0,17.602-3.406,24.029-9.017
			c0.534-0.793,1.047-1.6,1.518-2.436c0.474-2.372,0.726-4.824,0.726-7.336C250.471,183.3,158.91,164.289,87.5,161.807z"/>
		<path opacity="0.2" fill="#218649" enable-background="new    " d="M84.142,145.278c7.471,52.939,44.243,96.455,93.382,113.626
			V155.478C146.971,147.903,112.861,145.278,84.142,145.278z"/>
	</g>
</g>
</svg>
