<?xml version="1.0" encoding="utf-8"?>
<!-- Generator: Adobe Illustrator 17.0.0, SVG Export Plug-In . SVG Version: 6.00 Build 0)  -->
<!DOCTYPE svg PUBLIC "-//W3C//DTD SVG 1.1//EN" "http://www.w3.org/Graphics/SVG/1.1/DTD/svg11.dtd">
<svg version="1.1" id="Layer_1" xmlns="http://www.w3.org/2000/svg" xmlns:xlink="http://www.w3.org/1999/xlink" x="0px" y="0px"
	 width="512px" height="512px" viewBox="0 0 512 512" enable-background="new 0 0 512 512" xml:space="preserve">
<g>
	<path fill="#163A6C" d="M256,31C131.747,31,31,131.747,31,256s100.747,225,225,225s225-100.747,225-225S380.253,31,256,31z"/>
	<g>
		<g>
			<g>
				<g>
					<g>
						<path fill="#D49F35" d="M166.384,117.765c0,0-23.577,39.738-13.892,108.146l55.635-34.287
							C208.129,191.623,192.096,140.796,166.384,117.765z"/>
					</g>
					<path fill="#F7F0DF" d="M168.463,134.838c0,0-16.822,35.058-11.403,94.479l38.649-30.901
						C195.709,198.414,185.639,154.427,168.463,134.838z"/>
				</g>
				<g>
					<g>
						<path fill="#D49F35" d="M345.912,118.559c-25.504,22.805-41.082,73.492-41.082,73.492l55.949,34.779
							C369.847,158.504,345.912,118.559,345.912,118.559z"/>
					</g>
					<path fill="#F7F0DF" d="M344.009,135.636c-17.007,19.434-26.693,63.333-26.693,63.333l38.92,31.253
						C361.138,170.847,344.009,135.636,344.009,135.636z"/>
				</g>
			</g>
			<g>
				<g>
					<path fill="#F7F0DF" d="M403.814,337.95c0,0-3.818-30.383-25.635-50.845c0,0,12.544,4.34,18.544,8.68
						c0,0-2.566-31.13-29.117-64.036C352.472,302.21,308.236,342.708,256,342.708c-52.232,0-96.468-40.493-111.604-110.943
						c-26.541,32.898-29.121,64.02-29.121,64.02c6.002-4.342,18.546-8.68,18.546-8.68c-21.817,20.461-25.635,50.845-25.635,50.845
						c8.728-14.881,27.272-26.042,27.272-26.042c-21.274,25.422-19.635,62.626-19.635,62.626
						c63.269-54.566,122.179-4.959,122.179-4.959l17.999,4.34l17.999-4.34c0,0,58.908-49.607,122.179,4.959
						c0,0,1.636-37.204-19.635-62.626C376.54,311.909,395.087,323.069,403.814,337.95z"/>
					<path fill="#E8AE3A" d="M256,326.844c52.236,0,96.474-24.632,111.606-95.092c-5.029-6.231-10.912-12.528-17.808-18.69
						c-15.056-13.448-34.901-26.253-61.074-36.33c0,0,3.818-5.58,12.546-9.922c0,0-16.364-1.859-28.363,3.721
						c0,0,7.089-8.682,13.637-11.16c0,0-14.726-1.861-30.545,14.881c-15.817-16.743-30.545-14.881-30.545-14.881
						c6.544,2.481,13.637,11.16,13.637,11.16c-12.001-5.58-28.363-3.721-28.363-3.721c8.728,4.342,12.546,9.922,12.546,9.922
						c-24.572,9.46-43.563,21.325-58.255,33.869c-8.132,6.942-14.919,14.093-20.623,21.164
						C159.532,302.218,203.766,326.844,256,326.844z"/>
				</g>
				<g>
					<path fill="#E8AE3A" d="M128.113,277.142c0,0,10,0.362,16.283,2.891c0,0-9.608,18.425-10.88,24.568c0,0,10.169-3.253,17.798,0
						c0,0-12.711,19.872-16.842,37.212c0,0,13.981-13.006,26.695-14.089l-1.907,14.089c0,0,16.207-9.576,25.741-12.464
						l-4.129,10.659c0,0,40.361-5.353,58.476,13.221L256,323.025v-98.632l-111.604,7.372
						C132.881,251.853,129.386,269.917,128.113,277.142z"/>
					<path fill="#E8AE3A" d="M378.481,304.601c-1.27-6.144-10.878-24.568-10.878-24.568c6.283-2.53,16.281-2.891,16.281-2.891
						c-1.272-7.225-4.768-25.289-16.281-45.376L256,224.394v98.63l16.653,30.202c18.114-18.572,58.476-13.221,58.476-13.221
						l-4.131-10.659c9.534,2.889,25.743,12.464,25.743,12.464l-1.907-14.089c12.713,1.083,26.695,14.089,26.695,14.089
						c-4.131-17.342-16.844-37.212-16.844-37.212C368.313,301.348,378.481,304.601,378.481,304.601z"/>
				</g>
			</g>
			<path fill="#EBE4D4" d="M293.152,355.041c-2.654-5.361-28.528,0.472-28.528,0.472H256h-8.624c0,0-25.874-5.835-28.528-0.472
				c-2.654,5.359-1.991,22.112,1.328,26.133c3.317,4.021,21.769,22.783,35.824,22.783c14.057,0,32.508-18.763,35.824-22.783
				C295.141,377.153,295.806,360.4,293.152,355.041z"/>
			<g>
				<path fill="#F7F0DF" d="M257.25,376.126c0,0,0.492,11.467-5.913,16.245c-6.404,4.776-27.586,3.822-33.007-1.911
					c-5.419-5.735-11.821-21.503-4.925-33.925c5.654-10.183,23.647-8.122,30.543,0.478
					C250.848,365.612,257.25,376.126,257.25,376.126z"/>
				<path fill="#F7F0DF" d="M254.748,376.126c0,0-0.492,11.467,5.913,16.245c6.404,4.776,27.586,3.822,33.005-1.911
					c5.421-5.735,11.823-21.503,4.927-33.925c-5.654-10.183-23.647-8.122-30.543,0.478
					C261.15,365.612,254.748,376.126,254.748,376.126z"/>
			</g>
			<g>
				<polygon fill="#F2B53D" points="256,260.212 230.864,366.797 281.136,366.797 				"/>
				<g>
					<path fill="#263138" d="M256,358.292c-11.933,0-21.254,2.564-25.795,8.425c0,0,13.802,20.812,25.795,20.812
						c11.991,0,25.795-20.812,25.795-20.812C277.252,360.856,267.931,358.292,256,358.292z"/>
					<path opacity="0.8" fill="#3C454A" enable-background="new    " d="M256,362.68c10.77,0,19.725,1.284,25.741,4.117
						c0.034-0.05,0.054-0.082,0.054-0.082c-4.541-5.859-13.864-8.425-25.795-8.425c-11.933,0-21.254,2.564-25.795,8.425
						c0,0,0.022,0.032,0.054,0.082C236.273,363.962,245.228,362.68,256,362.68z"/>
				</g>
			</g>
			<g>
				<g>
					<path fill="#F7F0DF" d="M275.902,283.279c-3.992-10.458-1.535-37.027,18.733-48.898c20.27-11.869,52.515,15.009,52.515,15.009
						s-10.207,36.997-36.428,42.085C284.5,296.562,275.902,283.279,275.902,283.279z"/>
					<g>
						<path fill="#263138" d="M288.438,275.915c0,0,26.486-4.583,39.75-23.539c0,0-12.653-13.902-28.419-2.182
							C289.182,258.062,288.438,275.915,288.438,275.915z"/>
						<g>
							<ellipse fill="#97D408" cx="307.358" cy="257.2" rx="7.788" ry="7.864"/>
							<ellipse fill="#FFFFFF" cx="305.39" cy="256.007" rx="2.93" ry="2.958"/>
						</g>
					</g>
				</g>
				<g>
					<path fill="#F7F0DF" d="M236.098,283.279c3.992-10.458,1.535-37.027-18.733-48.898c-20.27-11.869-52.515,15.009-52.515,15.009
						s10.207,36.997,36.428,42.085C227.498,296.562,236.098,283.279,236.098,283.279z"/>
					<g>
						<path fill="#263138" d="M223.562,275.915c0,0-26.486-4.583-39.75-23.539c0,0,12.653-13.902,28.419-2.182
							C222.817,258.062,223.562,275.915,223.562,275.915z"/>
						<g>
							<ellipse fill="#97D408" cx="204.64" cy="257.2" rx="7.788" ry="7.864"/>
							<ellipse fill="#FFFFFF" cx="202.669" cy="256.007" rx="2.93" ry="2.958"/>
						</g>
					</g>
				</g>
			</g>
			<g>
				<g>
					<g>
						<path fill="#AD822B" d="M194.648,311.678c0,0-19.902,4.569-24.425,8.222C170.223,319.9,170.223,307.111,194.648,311.678z"/>
						<path fill="#AD822B" d="M224.816,318.162c0,0-19.902,4.567-24.427,8.222C200.391,326.384,200.391,313.593,224.816,318.162z"/>
						<path fill="#AD822B" d="M183.899,297.856c0,0-19.902,4.567-24.427,8.222C159.472,306.078,159.472,293.287,183.899,297.856z"/>
					</g>
				</g>
				<g>
					<g>
						<path fill="#AD822B" d="M317.348,311.678c0,0,19.904,4.569,24.429,8.222C341.775,319.9,341.775,307.111,317.348,311.678z"/>
						<path fill="#AD822B" d="M287.18,318.162c0,0,19.904,4.567,24.427,8.222C311.607,326.384,311.607,313.593,287.18,318.162z"/>
						<path fill="#AD822B" d="M328.099,297.856c0,0,19.902,4.567,24.427,8.222C352.526,306.078,352.526,293.287,328.099,297.856z"/>
					</g>
				</g>
			</g>
			<g>
				<g>
					<path fill="#AD822B" d="M200.941,200.406c0,0,27.483-1.157,39.131,11.121C240.074,211.527,230.333,189.616,200.941,200.406z"/>
					<path fill="#AD822B" d="M190.164,211.491c0,0,21.867-0.92,31.138,8.847C221.302,220.34,213.552,202.905,190.164,211.491z"/>
				</g>
				<g>
					<path fill="#AD822B" d="M311.057,200.406c0,0-27.483-1.157-39.131,11.121C271.926,211.527,281.665,189.616,311.057,200.406z"/>
					<path fill="#AD822B" d="M321.833,211.491c0,0-21.869-0.92-31.138,8.847C290.696,220.34,298.446,202.905,321.833,211.491z"/>
				</g>
			</g>
		</g>
	</g>
</g>
</svg>
