<?xml version="1.0" encoding="utf-8"?>
<!-- Generator: Adobe Illustrator 17.0.0, SVG Export Plug-In . SVG Version: 6.00 Build 0)  -->
<!DOCTYPE svg PUBLIC "-//W3C//DTD SVG 1.1//EN" "http://www.w3.org/Graphics/SVG/1.1/DTD/svg11.dtd">
<svg version="1.1" id="Layer_1" xmlns="http://www.w3.org/2000/svg" xmlns:xlink="http://www.w3.org/1999/xlink" x="0px" y="0px"
	 width="512px" height="512px" viewBox="0 0 512 512" enable-background="new 0 0 512 512" xml:space="preserve">
<g>
	<path fill="#619744" d="M256,31C131.747,31,31,131.747,31,256s100.747,225,225,225s225-100.747,225-225S380.253,31,256,31z"/>
	<g>
		<g>
			<path fill="#4D4D4D" d="M223.008,180.67l24.993,28.619l-65.834,39.095c-14.115,0.778-18.99-33.831-38.517-42.117
				c-8.084-3.424-0.027-3.706-0.027-13.256c0-8.824-2.257-10.556,2.243-15.861c20.387-24.026,65.525-23.005,77.155,3.519
				L223.008,180.67L223.008,180.67z"/>
			<path fill="#4D4D4D" d="M281.454,231.314c70.789,72.831,87.645,80.768,147.891,114.115c29.775,11.322,4.889,15.659-15.994,11.255
				c-43.782-9.24-118.371-32.299-133.414-28.768c-22.844,10.234-55.212,1.84-78.593-22.2c-27.747-28.552-32.299-68.345-10.18-88.881
				c22.119-20.548,62.543-14.061,90.29,14.491L281.454,231.314L281.454,231.314z"/>
		</g>
		<path fill="#999999" d="M84.826,206.188l-18.103,20.32L95.49,211.99l50.296-13.927l0.672-12.718
			c-0.954-0.644-3.961-1.934-2.7-5.05l-58.918,25.88L84.826,206.188z"/>
		<path fill="#808080" d="M65.688,226.789l29.787-14.787l50.296-13.927l2.646,9.684l-51.115,10.717l-31.614,8.326V226.789z"/>
		<path fill="#FF873D" d="M280.165,345.241c0,0,2.31,4.498,2.31,7.118c0,0.766-0.135,1.074-1.826,1.961l-15.136,5.157
			c6.459,6.635,4.096,10.207,0.135,13.417c0.417-6.526-2.243-6.903-5.332-8.85c-1.141,2.283-2.336,3.076-1.585,9.629
			c0.752,6.553,6.271,10.718,6.271,10.718s-5.399,2.767-10.408-2.257c-5.009-5.009-2.767-11.926-2.767-11.926
			c-7.964,12.302-1.518,12.986,2.538,17.969c-14.854,1.356-15.001-14.693-10.65-18.318c-4.781,5.547-6.071,11.845-0.457,18.4
			c-9.16,1.236-11.577-8.34-6.285-18.05c4.176-7.44,24.469-15.982,33.481-18.64l-2.095-3.653c0.725-4.003,4.297-5.264,11.832-2.685
			L280.165,345.241z"/>
		<path fill="#4D4D4D" d="M266.884,316.165l0.335,0.631l13.215,25.194c0,0,1.276,2.941,0.752,3.989
			c-0.524,1.047-4.203-0.739-7.494,0.792c-3.29,1.531-4.458,3.613-4.458,3.613s-2.525-0.537-2.618-2.618
			c-0.094-2.081-24.147-25.437-24.429-24.443c-0.269,0.994,24.684-7.145,24.684-7.145L266.884,316.165z"/>
		<path fill="#FFFFFF" d="M162.009,180.737c4.176,0,7.574,3.384,7.574,7.574c0,4.176-3.384,7.574-7.574,7.574
			c-4.176,0-7.574-3.384-7.574-7.574C154.434,184.135,157.818,180.737,162.009,180.737z"/>
		<path fill="#333333" d="M160.745,184.725c2.109,0,3.801,1.706,3.801,3.801c0,2.095-1.706,3.801-3.801,3.801
			c-2.095,0-3.801-1.706-3.801-3.801C156.945,186.431,158.651,184.725,160.745,184.725z"/>
		<path fill="#666666" d="M244.294,211.479c-30.647,12.557-27.787,52.659-7.776,67.835c61.671,46.777,184.22,45.366,184.22,45.366
			c-103.854-54.807-145.796-125.772-176.444-113.215V211.479z"/>
		<path fill="#FF873D" d="M315.942,345.241c0,0,2.31,4.498,2.31,7.118c0,0.766-0.12,1.074-1.826,1.961l-15.122,5.157
			c6.459,6.635,4.096,10.207,0.135,13.417c0.417-6.526-2.243-6.903-5.332-8.85c-1.141,2.283-2.336,3.076-1.585,9.629
			c0.752,6.553,6.271,10.718,6.271,10.718s-5.399,2.767-10.409-2.257c-5.009-5.009-2.767-11.926-2.767-11.926
			c-7.964,12.302-1.518,12.986,2.538,17.969c-14.854,1.356-15.001-14.693-10.65-18.318c-4.781,5.547-6.071,11.845-0.457,18.4
			c-9.16,1.236-11.577-8.34-6.285-18.05c4.176-7.44,24.469-15.982,33.481-18.64l-2.095-3.653c0.739-4.003,4.297-5.264,11.832-2.685
			L315.942,345.241z"/>
		<path fill="#4D4D4D" d="M302.674,316.165l0.335,0.631l13.228,25.194c0,0,1.276,2.941,0.752,3.989
			c-0.524,1.047-4.203-0.739-7.494,0.792c-3.29,1.531-4.458,3.613-4.458,3.613s-2.525-0.537-2.618-2.618
			c-0.094-2.081-24.147-25.437-24.429-24.443c-0.282,0.994,24.684-7.145,24.684-7.145V316.165z"/>
	</g>
</g>
</svg>
