<?xml version="1.0" encoding="utf-8"?>
<!-- Generator: Adobe Illustrator 17.0.0, SVG Export Plug-In . SVG Version: 6.00 Build 0)  -->
<!DOCTYPE svg PUBLIC "-//W3C//DTD SVG 1.1//EN" "http://www.w3.org/Graphics/SVG/1.1/DTD/svg11.dtd">
<svg version="1.1" id="Layer_1" xmlns="http://www.w3.org/2000/svg" xmlns:xlink="http://www.w3.org/1999/xlink" x="0px" y="0px"
	 width="512px" height="512px" viewBox="0 0 512 512" enable-background="new 0 0 512 512" xml:space="preserve">
<g>
	<path fill="#FFD400" d="M256,31C131.747,31,31,131.747,31,256s100.747,225,225,225s225-100.747,225-225S380.253,31,256,31z"/>
	<g>
		<path id="SVGCleanerId_0_7_" fill="#8A8990" d="M361.943,161.133c-27.82-17.868-76.591-13.049-108.865-9.859
			c-3.406,0.337-6.618,0.654-9.589,0.922c-25.772,2.33-41.947,13.51-47.609,18.108c-7.405-1.289-28.255-4.175-45.129,0.604
			c-16.299,4.617-21.694,20.492-22.594,30.923c-4.275,2.722-9.566,9.675-13.554,26.621c-0.229,0.971-0.483,2.038-0.758,3.195
			c-7.36,30.904-26.912,112.995,9.662,139.668c10.497,7.655,19.117,10.119,25.866,10.119c8.116,0,13.526-3.564,16.231-5.946
			c8.524-7.506,11.311-21.146,6.213-30.407c-1.26-2.287-3.957-3.372-6.449-2.592l-10.962,3.431c-2.389,0.748-3.97,3.019-3.842,5.519
			c0.065,1.257-0.311,3.656-1.024,4.407c-0.035,0.036-0.087,0.091-0.338,0.11c-0.581-0.14-3.78-1.101-6.82-5.721
			c-9.787-14.868-4.522-44.988,0.143-63.611c8.22-2.098,27.977-8.229,35.76-20.212l9.46-1.058c0.418-0.047,0.818-0.144,1.199-0.277
			c2.107,3.671,6.609,7.8,16.153,6.922c1.949-0.18,3.621-0.385,5.058-0.607l9.276,81.307
			c-15.968,12.148-13.033,22.924-12.624,24.171c0.74,2.254,2.843,3.776,5.214,3.776h43.897c3.031,0,5.489-2.458,5.489-5.489v-52.356
			c2.411-5.293,4.812-11.582,7.056-18.015c12.788,3.62,24.092,4.832,33.488,4.832c12.165,0,21.128-2.026,25.979-3.473
			c3.14,3.944,5.856,7.005,7.469,8.76v39.391c-8.047,8.096-12.315,18.305-12.505,18.766c-0.698,1.693-0.507,3.624,0.513,5.147
			c1.019,1.522,2.73,2.436,4.562,2.436h48.452c1.695,0,3.293-0.782,4.333-2.12c1.04-1.337,1.404-3.08,0.987-4.722
			c-0.105-0.413-10.207-41.947,15.162-96.495C418.858,230.098,406.771,189.925,361.943,161.133z"/>
		<g>
			<path id="SVGCleanerId_0_6_" fill="#8A8990" d="M361.943,161.133c-27.82-17.868-76.591-13.049-108.865-9.859
				c-3.406,0.337-6.618,0.654-9.589,0.922c-25.772,2.33-41.947,13.51-47.609,18.108c-7.405-1.289-28.255-4.175-45.129,0.604
				c-16.299,4.617-21.694,20.492-22.594,30.923c-4.275,2.722-9.566,9.675-13.554,26.621c-0.229,0.971-0.483,2.038-0.758,3.195
				c-7.36,30.904-26.912,112.995,9.662,139.668c10.497,7.655,19.117,10.119,25.866,10.119c8.116,0,13.526-3.564,16.231-5.946
				c8.524-7.506,11.311-21.146,6.213-30.407c-1.26-2.287-3.957-3.372-6.449-2.592l-10.962,3.431
				c-2.389,0.748-3.97,3.019-3.842,5.519c0.065,1.257-0.311,3.656-1.024,4.407c-0.035,0.036-0.087,0.091-0.338,0.11
				c-0.581-0.14-3.78-1.101-6.82-5.721c-9.787-14.868-4.522-44.988,0.143-63.611c8.22-2.098,27.977-8.229,35.76-20.212l9.46-1.058
				c0.418-0.047,0.818-0.144,1.199-0.277c2.107,3.671,6.609,7.8,16.153,6.922c1.949-0.18,3.621-0.385,5.058-0.607l9.276,81.307
				c-15.968,12.148-13.033,22.924-12.624,24.171c0.74,2.254,2.843,3.776,5.214,3.776h43.897c3.031,0,5.489-2.458,5.489-5.489
				v-52.356c2.411-5.293,4.812-11.582,7.056-18.015c12.788,3.62,24.092,4.832,33.488,4.832c12.165,0,21.128-2.026,25.979-3.473
				c3.14,3.944,5.856,7.005,7.469,8.76v39.391c-8.047,8.096-12.315,18.305-12.505,18.766c-0.698,1.693-0.507,3.624,0.513,5.147
				c1.019,1.522,2.73,2.436,4.562,2.436h48.452c1.695,0,3.293-0.782,4.333-2.12c1.04-1.337,1.404-3.08,0.987-4.722
				c-0.105-0.413-10.207-41.947,15.162-96.495C418.858,230.098,406.771,189.925,361.943,161.133z"/>
		</g>
		<g>
			<path fill="#666568" d="M417.67,306.306c-0.018,0-0.035,0-0.052,0c-3.031-0.028-5.466-2.508-5.438-5.54
				c0.613-66.54-15.825-81.192-15.991-81.321c-2.394-1.86-2.826-5.309-0.965-7.702c1.86-2.394,5.31-2.826,7.702-0.965
				c2.141,1.663,20.894,18.327,20.232,90.09C423.13,303.881,420.677,306.306,417.67,306.306z"/>
			<path fill="#666568" d="M361.943,161.133c-18.203-11.691-45.374-13.668-71.027-12.745c18.999,0.783,37.333,4.113,50.774,12.745
				c44.827,28.793,56.916,68.966,34.958,116.178c-25.37,54.547-15.266,96.082-15.162,96.495c0.417,1.642,0.053,3.385-0.987,4.722
				c-1.04,1.337-2.639,2.12-4.333,2.12h20.252c1.695,0,3.293-0.782,4.333-2.12c1.04-1.337,1.404-3.08,0.987-4.722
				c-0.105-0.413-10.207-41.947,15.162-96.495C418.858,230.098,406.771,189.925,361.943,161.133z"/>
			<path fill="#666568" d="M178.314,266.41l9.43-1.054c0.377-0.042,0.736-0.129,1.083-0.242l-10.091-60.105
				C178.736,205.008,174.575,247.18,178.314,266.41z"/>
			<path fill="#666568" d="M123.653,282.043c-22.807,74.591,21.89,73.914,25.548,73.914c-0.581-0.14-3.78-1.101-6.82-5.721
				c-9.787-14.868-4.522-44.988,0.143-63.611c0.154-0.039,0.321-0.084,0.484-0.126c0.26-1.397,0.529-2.816,0.814-4.271
				C135.25,282.482,123.653,282.043,123.653,282.043z"/>
		</g>
		<path fill="#D9D9DB" d="M143.406,257.09c-1.968-1.666-4.829-1.738-6.878-0.174c-12.654,9.66-44.502,26.892-44.822,27.064
			c-2.126,1.147-3.251,3.55-2.772,5.917c0.479,2.368,2.448,4.144,4.853,4.376c2.65,0.256,5.273,0.37,7.848,0.37
			c19.77,0,36.55-6.72,38.403-7.488c8.717-3.206,11.33-8.222,11.984-11.875C153.668,266.086,144.461,257.984,143.406,257.09z"/>
		<path fill="#666568" d="M210.047,271.41c0.035-0.005,0.072-0.01,0.107-0.016l1.956,17.139
			c12.57-5.205,34.718-21.856,39.118-36.766c4.317-19.002,0.211-30.474-6.321-37.406c1.205,6.032,1.108,13.503-0.998,22.768
			C240.293,249.384,221.195,264.767,210.047,271.41z"/>
		<path fill="#8A8990" d="M243.365,198.006c-11.322-14.183-30.531-14.346-31.343-14.346c-3.024,0-5.468,2.446-5.479,5.469
			c-0.003,0.85,0.194,1.654,0.538,2.374l-23.391,11.145c-0.929-1.947-2.963-3.242-5.259-3.12c-3.026,0.168-5.344,2.758-5.177,5.784
			c0.034,0.607,0.852,15.048,3.372,30.675c4.867,30.186,11.597,37.108,16.236,39.689c2.502,1.392,5.496,2.084,8.845,2.084
			c3.965,0,8.429-0.971,13.16-2.905c13.375-5.468,29.17-18.773,34.304-36.172c0.033-0.111,0.062-0.224,0.088-0.338
			C253.129,221.324,251.145,207.752,243.365,198.006z"/>
		<path fill="#666568" d="M278.49,273.012c0.429-1.328-1.309-2.254-2.17-1.155c-9.193,11.736-28.185,35.105-35.04,49.74v59.051
			h14.638c3.031,0,5.489-2.457,5.489-5.489v-52.356c2.411-5.293,4.812-11.582,7.056-18.015c0.084,0.024,0.166,0.044,0.249,0.068
			C272.138,292.909,276.062,280.527,278.49,273.012z"/>
		<path fill="#2B2B2B" d="M146.595,237.856c-3.515,0-6.375-2.854-6.375-6.363c0-3.509,2.86-6.363,6.375-6.363
			c3.515,0,6.375,2.854,6.375,6.363C152.97,235.001,150.11,237.856,146.595,237.856z"/>
	</g>
</g>
</svg>
