<?xml version="1.0" encoding="utf-8"?>
<!-- Generator: Adobe Illustrator 17.0.0, SVG Export Plug-In . SVG Version: 6.00 Build 0)  -->
<!DOCTYPE svg PUBLIC "-//W3C//DTD SVG 1.1//EN" "http://www.w3.org/Graphics/SVG/1.1/DTD/svg11.dtd">
<svg version="1.1" id="Layer_1" xmlns="http://www.w3.org/2000/svg" xmlns:xlink="http://www.w3.org/1999/xlink" x="0px" y="0px"
	 width="512px" height="512px" viewBox="0 0 512 512" enable-background="new 0 0 512 512" xml:space="preserve">
<g>
	<path fill="#F15B2A" d="M256,31C131.747,31,31,131.747,31,256s100.747,225,225,225s225-100.747,225-225S380.253,31,256,31z"/>
	<g>
		<path fill="#4E1821" d="M258.519,374.172c1.097-20.308,17.699-36.971,38.194-37.709c20.495-0.736,37.322,14.725,38.701,34.945
			l2.966-0.107c-1.396-21.865-19.555-38.612-41.688-37.816c-22.133,0.796-40.049,18.839-41.14,40.793L258.519,374.172z"/>
		<path fill="#4E1821" d="M254.32,374.172c-1.097-20.308-17.699-36.971-38.194-37.709c-20.495-0.736-37.322,14.725-38.701,34.945
			l-2.966-0.107c1.396-21.865,19.555-38.612,41.688-37.816c22.133,0.796,40.05,18.839,41.14,40.793L254.32,374.172z"/>
		<circle fill="#698379" cx="255.256" cy="184.84" r="39.036"/>
		<path fill="#4B6257" d="M255.256,408.203c11.624,0,58.646-46.993,58.646-104.963s-26.257-104.963-58.646-104.963
			c-32.39,0-58.646,46.994-58.646,104.963S242.563,408.203,255.256,408.203z"/>
		<path fill="#65C8D2" d="M342.236,275.983c-9.275-3.342-17.839-9.045-24.712-17.066l-40.315-47.021c0,0,78.02-41.213,142.482,37.12
			l-18.988,16.293C383.993,279.639,361.558,282.98,342.236,275.983z"/>
		<path fill="#ACDEDC" d="M361.203,333.218h-25.004c-32.586,0-58.99-26.404-58.99-58.99v-62.469
			C277.209,211.759,363.271,231.782,361.203,333.218z"/>
		<path fill="#698379" d="M261.334,155.582h-12.158c6.079-21.615,2.251-36.475-5.404-51.785h22.965
			C260.434,120.459,255.255,133.067,261.334,155.582z"/>
		<path fill="#CB2128" d="M251.304,146.002c0,0-24.221,1.087-33.026,26.329C218.278,172.331,250.218,175.621,251.304,146.002z"/>
		<path fill="#CB2128" d="M292.169,172.331c0,0-31.94,3.29-33.026-26.329C259.143,146.002,282.978,146.717,292.169,172.331z"/>
		<path fill="#698379" d="M277.688,175.987c10.813-15.785,26.399-28.309,40.673-32.685c6.741-2.067,17.933-4.221,28.71-0.351
			c0.006,0.147,1.28-6.901,1.067-6.368c-9.325-3.076-20.098-2.926-31.648,0.618c-15.827,4.851-32.299,18.003-44.063,35.183
			L277.688,175.987z"/>
		<path fill="#698379" d="M234.889,175.987c-10.813-15.785-26.399-28.309-40.673-32.685c-6.741-2.067-17.933-4.221-28.71-0.351
			c-0.006,0.147-1.28-6.901-1.067-6.368c9.325-3.076,20.098-2.926,31.648,0.618c15.827,4.851,32.299,18.003,44.063,35.183
			L234.889,175.987z"/>
		<path fill="#B4BBBD" d="M255.255,366.544c3.256,0,16.426-13.162,16.426-29.398c0-16.237-7.354-29.399-16.426-29.399
			c-9.072,0-16.426,13.162-16.426,29.399C238.829,353.382,251.7,366.544,255.255,366.544z"/>
		<circle fill="#FFFFFF" cx="236.363" cy="155.582" r="3.117"/>
		<circle fill="#FFFFFF" cx="273.351" cy="155.582" r="3.117"/>
		<path fill="#65C8D2" d="M169.764,276.599c9.275-3.342,17.839-9.044,24.712-17.066l40.315-47.021c0,0-78.02-41.214-142.482,37.12
			l18.988,16.293C128.007,280.255,150.442,283.597,169.764,276.599z"/>
		<path fill="#ACDEDC" d="M150.797,333.697h25.004c32.587,0,58.99-26.404,58.99-58.99v-62.468
			C234.791,212.238,148.729,232.261,150.797,333.697z"/>
	</g>
</g>
</svg>
