<?xml version="1.0" encoding="utf-8"?>
<!-- Generator: Adobe Illustrator 17.0.0, SVG Export Plug-In . SVG Version: 6.00 Build 0)  -->
<!DOCTYPE svg PUBLIC "-//W3C//DTD SVG 1.1//EN" "http://www.w3.org/Graphics/SVG/1.1/DTD/svg11.dtd">
<svg version="1.1" id="Layer_1" xmlns="http://www.w3.org/2000/svg" xmlns:xlink="http://www.w3.org/1999/xlink" x="0px" y="0px"
	 width="512px" height="512px" viewBox="0 0 512 512" enable-background="new 0 0 512 512" xml:space="preserve">
<g>
	<path fill="#FFD400" d="M256,31C131.747,31,31,131.747,31,256s100.747,225,225,225s225-100.747,225-225S380.253,31,256,31z"/>
	<g transform="matrix(1.25 0 0 -1.25 0 45)">
		<g>
			<g>
				<path fill="#F3AAB9" d="M310.947-148.677c2.485,2.382,4.707,5.105,6.55,8.22c10.82,18.321,1.728,66.09-3.802,69.352
					c-4.469,2.639-35.511-6.743-52.952-20.112c-16.047,9.613-34.316,15.289-53.779,15.289c-19.406,0-37.604-5.644-53.613-15.2
					c-17.473,13.325-48.373,22.655-52.83,20.022c-5.529-3.262-14.615-51.031-3.802-69.352c1.785-3.025,3.949-5.677,6.351-8.021
					c-7.423-16.381-11.694-34.304-11.694-52.528c0-64.151,51.436-80.41,115.587-80.41c64.144,0,115.587,16.259,115.587,80.41
					C322.551-182.852,318.306-165.013,310.947-148.677"/>
				<g>
					<path fill="#E8596E" d="M138.903-101.357C124.994-93.214,110.635-88,108.08-89.509c-3.66-2.158-6.954-32.095-2.254-53.067
						C113.994-126.645,125.34-112.517,138.903-101.357"/>
					<path fill="#E8596E" d="M308.141-142.608c4.701,20.979,1.406,50.91-2.254,53.073c-2.556,1.502-16.914-3.711-30.823-11.854
						C288.633-112.543,299.979-126.67,308.141-142.608"/>
					<path fill="#E8596E" d="M271.198-211.581c0-28.813-19.887-60.202-64.215-60.202c-44.334,0-64.215,31.388-64.215,60.202
						s19.881,36.121,64.215,36.121C251.311-175.46,271.198-182.768,271.198-211.581"/>
				</g>
				<path id="SVGCleanerId_0_3_" fill="#652213" d="M187.719-221.053c0-11.925-2.183-15.412-9.632-15.412
					c-7.449,0-9.632,3.487-9.632,15.412c0,11.918,2.183,15.405,9.632,15.405C185.535-205.648,187.719-209.135,187.719-221.053"/>
				<g transform="translate(9)">
					<path id="SVGCleanerId_0_2_" fill="#652213" d="M241.592-221.053c0-11.925-2.183-15.412-9.632-15.412
						c-7.449,0-9.632,3.487-9.632,15.412c0,11.918,2.183,15.405,9.632,15.405C239.408-205.648,241.592-209.135,241.592-221.053"/>
				</g>
				<g>
					<path fill="#292F33" d="M149.19-172.25c0-7.089-5.753-12.843-12.843-12.843c-7.09,0-12.843,5.753-12.843,12.843
						c0,7.096,5.753,12.843,12.843,12.843S149.19-165.154,149.19-172.25"/>
					<path fill="#292F33" d="M290.462-172.25c0-7.089-5.747-12.843-12.843-12.843c-7.089,0-12.843,5.753-12.843,12.843
						c0,7.096,5.753,12.843,12.843,12.843C284.715-159.407,290.462-165.154,290.462-172.25"/>
				</g>
			</g>
		</g>
		<path fill="#FFFFFF" d="M159.91-247.723c0,0-31.648-7.303-49.231,31.378c0,0-0.001-58.698,70.409-51.189"/>
		<path fill="#FFFFFF" d="M247.63-247.723c0,0,31.648-7.303,49.231,31.378c0,0,0.001-58.698-70.409-51.189"/>
	</g>
</g>
</svg>
