<?xml version="1.0" encoding="utf-8"?>
<!-- Generator: Adobe Illustrator 17.0.0, SVG Export Plug-In . SVG Version: 6.00 Build 0)  -->
<!DOCTYPE svg PUBLIC "-//W3C//DTD SVG 1.1//EN" "http://www.w3.org/Graphics/SVG/1.1/DTD/svg11.dtd">
<svg version="1.1" id="Layer_1" xmlns="http://www.w3.org/2000/svg" xmlns:xlink="http://www.w3.org/1999/xlink" x="0px" y="0px"
	 width="512px" height="512px" viewBox="0 0 512 512" enable-background="new 0 0 512 512" xml:space="preserve">
<g>
	<path fill="#EC008C" d="M256,31C131.747,31,31,131.747,31,256s100.747,225,225,225s225-100.747,225-225S380.253,31,256,31z"/>
	<g>
		<g>
			<path fill="#5C3C1E" d="M197.065,355.43c0,0,4.676,34.623,5.484,45.182c0.105,1.367,1.292,2.421,2.722,2.421h5.902
				c1.282,0,2.392-0.853,2.667-2.053c1.293-5.669,4.648-32.015,3.464-41.673L197.065,355.43z"/>
			<path fill="#5C3C1E" d="M323.052,355.43c0,0-4.676,34.623-5.484,45.182c-0.105,1.367-1.292,2.421-2.722,2.421h-5.902
				c-1.282,0-2.392-0.853-2.667-2.053c-1.293-5.669-4.648-32.015-3.464-41.673L323.052,355.43z"/>
		</g>
		<path fill="#FFF3DC" d="M260.131,368.243c26.698,20.654,51.419-5.597,51.419-5.597c17.601,8.55,33.157-1.929,30.028-17.088
			c37.609-2.765,30.732-39.404,30.732-39.404c26.965-7.422,8.285-38.046,8.285-38.046c14.125-8.465,16.964-22.88,17.643-33.025
			c0.716-10.703-3.057-29.926-24.46-38.67c2.184-25.062-25.188-26.482-25.188-26.482c-5.683-38.591-40.333-31.189-40.333-31.189
			c-8.533-20.187-20.857-16.165-30.985-15.261c-3.373-5.064-9.82-8.49-17.213-8.49c-7.393,0-13.841,3.426-17.213,8.49
			c-10.129-0.904-22.453-4.926-30.986,15.261c0,0-34.65-7.402-40.333,31.189c0,0-27.372,1.419-25.188,26.482
			c-21.403,8.744-25.176,27.967-24.46,38.67c0.679,10.145,3.518,24.559,17.643,33.025c0,0-18.681,30.624,8.285,38.046
			c0,0-6.878,36.639,30.732,39.404c-3.13,15.16,12.427,25.639,30.028,17.088c0,0,24.721,26.251,51.419,5.597"/>
		<g>
			<ellipse fill="#E5CFA7" cx="253.631" cy="254.464" rx="59.561" ry="69.385"/>
			<path fill="#E5CFA7" d="M263.09,355.43c-25.068,15.766-60.067-4.871-56.893-20.809c-38.133-2.907-26.79-41.646-26.79-41.646
				c-27.341-7.803-17.483-43.269-17.483-43.269c-14.323-8.9-12.488-20.566-13.177-31.232c-0.726-11.252,3.099-31.462,24.801-40.655
				c0.489-9.342,1.601-17.231,3.104-23.892c-2.341,4.173-4.156,9.418-5.126,16.004c0,0-27.372,1.419-25.188,26.482
				c-21.404,8.744-25.176,27.967-24.46,38.67c0.679,10.145,3.518,24.559,17.643,33.025c0,0-18.681,30.624,8.285,38.046
				c0,0-6.878,36.639,30.732,39.404c-3.13,15.16,12.427,25.639,30.028,17.088c0,0,24.722,26.251,51.419,5.597h0.146
				c14.421,11.156,28.262,8.626,37.946,3.941C279.384,368.944,263.09,355.43,263.09,355.43z"/>
		</g>
		<g>
			<ellipse fill="#5C3C1E" cx="207.514" cy="208.875" rx="24.035" ry="24.056"/>
			<ellipse fill="#5C3C1E" cx="312.888" cy="208.875" rx="24.035" ry="24.056"/>
		</g>
		<ellipse fill="#7D5329" cx="260.059" cy="247.532" rx="55.371" ry="66.274"/>
		<path fill="#6B4622" d="M217.553,241.123c0.681-16.143,7.165-39.749,15.192-51.249c-16.755,11.395-28.059,32.947-28.059,57.661
			c0,36.603,24.792,66.275,55.373,66.275c17.083,0,32.356-9.261,42.514-23.815C244.49,323.897,216.094,275.688,217.553,241.123z"/>
		<g>
			<circle fill="#4A3119" cx="244.492" cy="239.189" r="4.073"/>
			<circle fill="#4A3119" cx="275.625" cy="239.189" r="4.073"/>
			<path fill="#4A3119" d="M284.301,278.816c-2.197-1.218-4.965-0.424-6.183,1.773c-0.048,0.087-4.321,7.591-13.511,9.576v-12.013
				c4.075-1.763,6.929-5.819,6.929-10.545c0-6.344-5.138-11.486-11.477-11.486s-11.477,5.143-11.477,11.486
				c0,4.726,2.854,8.782,6.929,10.545v12.013c-9.009-1.944-13.286-9.186-13.522-9.597c-1.224-2.182-3.981-2.968-6.172-1.753
				c-2.197,1.217-2.991,3.986-1.773,6.182c0.334,0.602,8.375,14.744,26.014,14.744c17.639,0,25.681-14.142,26.014-14.744
				C287.29,282.802,286.497,280.033,284.301,278.816z"/>
		</g>
	</g>
</g>
</svg>
