<?xml version="1.0" encoding="utf-8"?>
<!-- Generator: Adobe Illustrator 17.0.0, SVG Export Plug-In . SVG Version: 6.00 Build 0)  -->
<!DOCTYPE svg PUBLIC "-//W3C//DTD SVG 1.1//EN" "http://www.w3.org/Graphics/SVG/1.1/DTD/svg11.dtd">
<svg version="1.1" id="Layer_1" xmlns="http://www.w3.org/2000/svg" xmlns:xlink="http://www.w3.org/1999/xlink" x="0px" y="0px"
	 width="512px" height="512px" viewBox="0 0 512 512" enable-background="new 0 0 512 512" xml:space="preserve">
<g>
	<circle fill="#619743" cx="256" cy="256" r="225"/>
	<g>
		<path fill-rule="evenodd" clip-rule="evenodd" fill="#FBD130" d="M238.923,360.598c-0.404,0-0.801-0.049-1.219-0.153
			c-0.949-0.243-1.824-0.726-2.67-1.211l-0.405-0.227l0.015-0.084c0.148-0.83,0.286-1.661,0.415-2.506l0.009-0.055l0.06-0.034
			c0.124-0.049,0.233-0.104,0.337-0.174l0.113-0.049l0.054,0.104c0.49,1.088,1.869,1.972,2.912,2.249
			c0.38,0.104,0.771,0.153,1.151,0.153c0.934,0,1.839-0.311,2.561-0.9l0.178,0.138c-0.336,0.781-0.647,1.593-0.915,2.284
			l-0.034,0.084l-0.094-0.015l-0.401,0.09C240.259,360.459,239.626,360.598,238.923,360.598L238.923,360.598z M273.09,360.598
			c-0.707,0-1.344-0.139-2.071-0.306l-0.347-0.09l-0.103,0.015l-0.089-0.084c-0.223-0.642-0.555-1.468-0.915-2.284l0.174-0.138
			c0.726,0.589,1.64,0.9,2.575,0.9c0.38,0,0.76-0.049,1.141-0.153c1.052-0.277,2.422-1.161,2.92-2.249l0.035-0.104l0.519,0.257
			v0.055c0.138,0.83,0.277,1.676,0.435,2.506l0.015,0.084l-0.415,0.227c-0.83,0.485-1.71,0.968-2.665,1.211
			C273.885,360.548,273.47,360.598,273.09,360.598L273.09,360.598z M236.873,365.994c-1.008,0-1.962-0.345-2.876-0.691l-0.564-0.188
			l0.025-0.108c0.446-2.14,0.792-3.89,1.074-5.481l0.044-0.209l0.158,0.158c1.063,0.915,2.817,1.917,4.572,1.917
			c0.613,0,1.176-0.138,1.67-0.38l0.267-0.139l-0.104,0.277c-0.406,1.162-0.805,2.372-1.256,3.875l-0.014,0.049l-0.115,0.074
			c-0.839,0.414-1.624,0.811-2.732,0.845H236.873L236.873,365.994z M274.978,365.994c-1.093-0.034-1.887-0.43-2.718-0.845
			l-0.139-0.074v-0.049c-0.396-1.315-0.826-2.63-1.26-3.875l-0.084-0.277l0.257,0.139c0.484,0.241,1.053,0.38,1.66,0.38
			c1.746,0,3.509-1.002,4.581-1.917l0.159-0.158l0.034,0.209c0.326,1.784,0.691,3.617,1.088,5.481l0.019,0.108l-0.573,0.188
			c-0.899,0.347-1.867,0.691-2.872,0.691H274.978L274.978,365.994z M234.421,372.948c-0.968,0-1.764-0.345-2.431-1.092l-0.04-0.034
			l0.064-0.297c0.148-0.603,0.297-1.205,0.425-1.828c0.302-1.335,0.589-2.699,0.885-4.047l0.03-0.174l0.149,0.104
			c1.022,0.692,2.51,1.121,3.874,1.121c0.707,0,1.359-0.103,1.917-0.325l0.227-0.09l-0.068,0.228
			c-0.306,1.108-0.608,2.195-0.909,3.302c-0.173,0.642-0.534,2.007-0.534,2.007l-0.069,0.02c-0.236,0.049-0.449,0.188-0.666,0.325
			l-0.188,0.12c-0.559,0.331-1.211,0.469-1.834,0.593C234.965,372.928,234.679,372.948,234.421,372.948L234.421,372.948z
			 M277.587,372.948c-0.276,0-0.553-0.02-0.83-0.069c-0.622-0.124-1.279-0.262-1.834-0.593c-0.068-0.03-0.138-0.084-0.207-0.134
			c-0.208-0.124-0.416-0.262-0.657-0.311l-0.07-0.02c0,0-0.346-1.295-0.519-1.918c-0.311-1.127-0.623-2.268-0.934-3.391
			l-0.068-0.228l0.226,0.09c0.569,0.222,1.226,0.325,1.918,0.325c1.384,0,2.872-0.43,3.895-1.121l0.153-0.104l0.034,0.174
			c0.277,1.349,0.569,2.712,0.865,4.047c0.154,0.691,0.311,1.365,0.484,2.055l0.016,0.07l-0.05,0.034
			C279.352,372.603,278.556,372.948,277.587,372.948L277.587,372.948z M234.367,378.983c-0.266,0-0.553-0.02-0.87-0.074
			c-1.211-0.188-2.258-0.776-3.03-1.71l-0.034-0.049l0.02-0.054c0.43-1.33,0.856-2.768,1.26-4.374l0.06-0.222l0.148,0.188
			c0.514,0.658,1.705,0.899,2.654,0.934h0.06c0.656,0,2.001-0.191,2.846-0.657l0.242-0.138l-0.079,0.276
			c-0.188,0.693-0.385,1.385-0.598,2.057c-0.223,0.747-0.584,1.922-0.756,3.079v0.055l-0.139,0.084
			c-0.124,0.103-0.252,0.188-0.39,0.277C235.4,378.879,234.931,378.983,234.367,378.983L234.367,378.983z M277.641,378.983
			c-0.572,0-1.022-0.105-1.403-0.332c-0.138-0.089-0.241-0.174-0.38-0.262l-0.139-0.099v-0.055
			c-0.172-1.087-0.484-2.179-0.706-2.887l-0.055-0.192c-0.207-0.672-0.415-1.364-0.603-2.057l-0.068-0.276l0.242,0.138
			c0.845,0.466,2.194,0.657,2.851,0.657h0.055c0.949-0.034,2.14-0.276,2.644-0.934l0.152-0.188l0.055,0.222
			c0.451,1.71,0.844,3.094,1.28,4.374v0.054l-0.034,0.049c-0.747,0.919-1.834,1.522-3.011,1.71
			C278.191,378.963,277.898,378.983,277.641,378.983L277.641,378.983z M234.11,383.164c-0.089,0-0.138,0.069-0.158,0.137
			c-0.025,0.07-0.014,0.159,0.079,0.228c0.396,0.242,0.865,0.361,1.374,0.361c0.342,0,0.712-0.05,1.093-0.153
			c0.588-0.173,1.571-0.608,1.552-1.23l-0.004-0.174h-0.209c-0.162,0-0.251,0.055-0.414,0.208c-0.287,0.242-0.623,0.435-1.072,0.588
			c-0.347,0.138-0.726,0.208-1.117,0.208c-0.345,0-0.707-0.049-1.062-0.153L234.11,383.164L234.11,383.164z M225.274,406.18
			c-2.732,0-5.031-3.06-5.397-5.813c-0.252-1.834,0.311-2.969,1.997-4.042c0.238-0.158,0.46-0.331,0.668-0.519
			c0.83-0.366,1.635-0.553,2.441-0.607c0.074-0.016,0.163-0.016,0.247-0.016c0.583,0,1.152,0.138,1.681,0.381
			c0.445,0.207,0.732,0.569,1.008,0.915c0.158,0.193,0.331,0.4,0.518,0.573c0.035,0.03,0.09,0.049,0.139,0.049
			c0.055,0,0.113-0.02,0.139-0.049c0.034-0.034,0.044-0.069,0.044-0.124c-0.094-1.607-2.021-2.23-3.158-2.352
			c-0.133-0.015-0.267-0.015-0.406-0.015c-0.499,0-1.028,0.084-1.566,0.257l-0.282,0.089l0.148-0.262
			c0.243-0.416,0.405-0.865,0.5-1.296c0.024-0.089-0.02-0.158-0.049-0.208c-0.055-0.068-0.148-0.122-0.228-0.122
			c-0.079,0-0.129,0.055-0.163,0.122c-0.539,1.192-1.37,1.814-2.239,2.457c-0.193,0.139-0.39,0.292-0.588,0.446
			c-0.158,0.123-0.311,0.261-0.46,0.385c-0.949,0.846-1.32,1.903-1.236,3.524c0,0.035,0,0.054,0,0.069
			c0.01,0.021,0.01,0.055,0.01,0.089v0.035l-0.03,0.034c-0.098,0.138-0.197,0.277-0.276,0.415c-0.049,0.049-0.074,0.07-0.086,0.104
			c-0.365,0.879-1.324,1.344-2.766,1.344c-0.762,0-1.661-0.134-2.393-0.376c-1.748-0.538-2.931-2.164-3.098-4.201
			c-0.188-2.372,1.205-4.565,4.141-6.518l0.044-0.02h0.035c0.295,0.035,0.587,0.069,0.879,0.089c0.678,0.068,1.379,0.132,2.07,0.346
			c0.638,0.187,1.173,0.568,1.538,1.067c0.276,0.38,0.336,0.815,0.404,1.245c0.045,0.262,0.09,0.539,0.183,0.795
			c0.025,0.054,0.08,0.104,0.139,0.104c0.025,0,0.06-0.015,0.103-0.069c0.267-0.45,0.337-0.949,0.188-1.503
			c-0.212-0.78-0.87-1.555-1.685-1.986c-0.692-0.381-1.606-0.589-2.516-0.589h-0.113l-0.06-0.227
			c1.334-0.742,2.782-1.384,4.186-2.007c0.796-0.346,1.626-0.707,2.412-1.088l0.044-0.02l0.079,0.04l0.059-0.02
			c0.277,0,0.553-0.035,0.835-0.088c0.298-0.036,0.598-0.084,0.901-0.084c0.75,0,1.413,0.276,2.065,0.588c0.011,0,0.03,0,0.035,0
			c0.07,0,0.103-0.02,0.114-0.034c-0.311-0.831-1.325-1.127-2.17-1.142l-0.406-0.02l0.357-0.207
			c1.932-1.108,3.316-2.298,4.349-3.752c0.1-0.153,0.06-0.277,0-0.361l-0.039-0.055l0.03-0.049c0.568-1.28,1.087-2.594,1.591-4.032
			l0.075-0.222l0.134,0.192c0.775,1.122,2.288,1.557,2.9,1.711c0.297,0.049,0.657,0.084,1.023,0.084c0.659,0,1.261-0.104,1.71-0.292
			l0.153-0.089l0.015,0.191c0.005,1.005,0.282,1.696,0.801,2.076c0.138,0.105,0.277,0.188,0.434,0.277
			c0.164,0.103,0.326,0.207,0.479,0.326l0.134,0.089v-0.019l0.034,0.055l0.129,0.103l-0.045-0.02l0.089,0.104
			c0.085,0.089,0.144,0.158,0.198,0.243c0.622,1.072,0.44,2.821,0.336,3.528c-0.257,1.73-1.799,2.733-3.163,3.633l-0.391,0.241
			c-0.06,0.049-0.114,0.084-0.172,0.138l-0.224,0.153l-0.043-0.153c-0.164-0.642-0.529-1.314-0.805-1.695
			c-0.693-0.934-1.77-1.522-2.749-1.522c-0.124,0-0.252,0-0.38,0.016c-0.07,0.019-0.08,0.068-0.08,0.123
			c0,0.049,0.03,0.118,0.094,0.138c1.245,0.311,2.087,0.83,2.734,1.73c0.321,0.43,0.519,1.003,0.588,1.591
			c0.009,0.119,0.009,0.224,0.009,0.347v0.034l-0.034,0.035c-1.285,1.398-1.913,3.351-2.516,5.238
			c-0.123,0.347-0.228,0.707-0.345,1.053c-0.233,0.677-0.416,1.398-0.603,2.145c-0.563,2.284-1.152,4.651-3.158,5.979
			C226.811,405.938,226.049,406.18,225.274,406.18L225.274,406.18z M273.955,382.508c-0.015,0.607,0.968,1.057,1.557,1.23
			c0.38,0.103,0.746,0.153,1.091,0.153c0.499,0,0.984-0.119,1.365-0.361c0.103-0.069,0.103-0.158,0.089-0.228
			c-0.02-0.068-0.069-0.137-0.158-0.137c-0.415,0.124-0.776,0.173-1.121,0.173c-0.401,0-0.781-0.07-1.127-0.208
			c-0.45-0.153-0.795-0.346-1.072-0.588c-0.174-0.153-0.242-0.208-0.396-0.208h-0.228V382.508L273.955,382.508z M286.736,406.18
			c-0.775,0-1.537-0.243-2.269-0.747c-2.001-1.328-2.589-3.696-3.177-5.979c-0.174-0.747-0.366-1.468-0.589-2.145
			c-0.103-0.346-0.242-0.692-0.345-1.053c-0.588-1.887-1.225-3.84-2.524-5.238l-0.035-0.035v-0.034c0-0.123,0-0.227,0.02-0.347
			c0.049-0.588,0.257-1.141,0.588-1.591c0.638-0.899,1.483-1.418,2.727-1.73c0.07-0.02,0.09-0.089,0.09-0.138
			c0-0.055,0-0.104-0.069-0.123c-0.139-0.016-0.262-0.016-0.381-0.016c-0.968,0-2.041,0.588-2.753,1.522
			c-0.272,0.382-0.638,1.073-0.81,1.695l-0.035,0.153l-0.207-0.153c-0.069-0.035-0.138-0.089-0.188-0.124l-0.401-0.276
			c-1.363-0.88-2.906-1.883-3.147-3.613c-0.119-0.707-0.292-2.457,0.331-3.528c0.049-0.07,0.084-0.139,0.138-0.188l0.138-0.158
			h-0.019l0.035-0.015l0.103-0.138v0.049l0.138-0.103c0.158-0.119,0.311-0.223,0.485-0.326c0.138-0.089,0.296-0.172,0.435-0.277
			c0.518-0.38,0.795-1.072,0.795-2.076v-0.191l0.153,0.089c0.451,0.188,1.073,0.292,1.73,0.292c0.366,0,0.727-0.035,1.004-0.084
			c0.623-0.139,2.145-0.588,2.921-1.711l0.124-0.192l0.084,0.222c0.503,1.487,1.038,2.822,1.591,4.032l0.02,0.049l-0.034,0.055
			c-0.055,0.084-0.104,0.208,0,0.361c1.038,1.453,2.421,2.644,4.354,3.752l0.345,0.207l-0.415,0.02
			c-0.83,0.015-1.834,0.311-2.14,1.088c0,0.068,0.03,0.089,0.105,0.089c0.687-0.312,1.344-0.588,2.105-0.588
			c0.296,0,0.588,0.048,0.884,0.084c0.292,0.053,0.569,0.088,0.845,0.088h0.172c0.796,0.381,1.606,0.742,2.388,1.088
			c1.418,0.622,2.871,1.265,4.22,2.007l-0.069,0.227h-0.104c-0.92,0-1.818,0.208-2.526,0.589c-0.795,0.43-1.473,1.205-1.675,2.001
			c-0.158,0.539-0.089,1.038,0.188,1.488c0.034,0.054,0.068,0.069,0.103,0.069s0.104-0.035,0.138-0.104
			c0.089-0.243,0.139-0.499,0.174-0.776c0.068-0.435,0.138-0.885,0.415-1.265c0.346-0.499,0.899-0.86,1.536-1.067
			c0.693-0.214,1.403-0.278,2.061-0.346c0.312-0.02,0.589-0.055,0.864-0.089h0.07l0.034,0.02c2.936,1.953,4.319,4.146,4.146,6.518
			c-0.172,2.037-1.349,3.663-3.109,4.201c-0.731,0.242-1.626,0.376-2.386,0.376c-1.454,0-2.388-0.465-2.768-1.344
			c0-0.034-0.035-0.055-0.069-0.07c-0.085-0.158-0.188-0.311-0.297-0.449l-0.015-0.034v-0.035c0-0.054,0-0.104,0-0.158
			c0.084-1.621-0.276-2.678-1.245-3.524c-0.331-0.277-0.657-0.539-0.968-0.78c-0.138-0.105-0.278-0.208-0.396-0.297
			c-0.712-0.534-1.438-1.157-1.922-2.21c-0.035-0.068-0.07-0.122-0.154-0.122c-0.089,0-0.172,0.055-0.227,0.122
			c-0.035,0.05-0.07,0.119-0.049,0.208c0.084,0.465,0.257,0.9,0.499,1.296l0.158,0.262l-0.297-0.089
			c-0.534-0.173-1.072-0.257-1.557-0.257c-0.139,0-0.277,0-0.416,0.015c-1.136,0.122-3.059,0.745-3.143,2.352
			c0,0.055,0,0.089,0.035,0.104c0.034,0.049,0.069,0.069,0.138,0.069c0.049,0,0.104-0.02,0.138-0.049
			c0.188-0.173,0.347-0.366,0.519-0.573c0.273-0.346,0.549-0.707,1.003-0.915c0.519-0.243,1.103-0.381,1.69-0.381
			c0.07,0,0.159,0,0.243,0.016c0.795,0.055,1.611,0.242,2.388,0.588c0.276,0.207,0.485,0.38,0.726,0.539
			c1.68,1.073,2.249,2.209,1.987,4.042C291.767,403.12,289.449,406.18,286.736,406.18L286.736,406.18z"/>
		<path fill-rule="evenodd" clip-rule="evenodd" fill="#B04B25" d="M302.402,194.602l-23.846,63.839
			c6.069,1.956,15.149,6.434,20.575,10.012l41.466-45.577c-0.312,0.172-0.623,0.361-0.934,0.554
			c18.726-27.944-18.311-50.476-37.418-28.068C302.313,195.106,302.347,194.843,302.402,194.602L302.402,194.602z"/>
		<path fill-rule="evenodd" clip-rule="evenodd" fill="#D75927" d="M208.934,192.649c2.99,8.679,19.903,63.167,21.588,68.233
			c7.132-2.788,16.176-5.12,23.699-5.466l2.135-70.65c-8.061-25.888-48.518-24.069-47.327,7.987
			C208.994,192.718,208.969,192.684,208.934,192.649L208.934,192.649z"/>
		<path fill-rule="evenodd" clip-rule="evenodd" fill="#CA5527" d="M256.355,184.766l-2.135,70.65
			c8.634-0.415,17.352,0.747,25.631,3.425l22.55-64.239c5.344-28.009-39.547-37.986-45.804-9.039
			C256.528,185.299,256.44,185.024,256.355,184.766L256.355,184.766z"/>
		<path fill-rule="evenodd" clip-rule="evenodd" fill="#F06422" d="M170.676,221.542c-24.854-11.912-47.871,21.374-22.556,40.516
			l62.372,34.562c5.115-7.587,4.892-18.347,11.599-23.135L170.676,221.542L170.676,221.542z"/>
		<path fill-rule="evenodd" clip-rule="evenodd" fill="#974020" d="M340.597,222.876l-45.232,43.279
			c7.433,4.878,15.978,12.222,21.39,19.971l49.363-23.811C388.097,239.389,363.355,210.669,340.597,222.876L340.597,222.876z"/>
		<path fill-rule="evenodd" clip-rule="evenodd" fill="#7D3619" d="M366.118,262.315l-50.214,22.635
			c4.74,6.776-1.384,19.349,1.142,28.221c18.504,0.584,43.557-2.475,54.088-5.12C392.298,302.763,396.483,266.724,366.118,262.315
			L366.118,262.315z"/>
		<path fill-rule="evenodd" clip-rule="evenodd" fill="#E45E25" d="M208.934,192.649c-17.47-18.637-50.757-2.663-38.258,28.893
			l48.172,50.752c4.715-3.371,8.032-10.152,13.231-12.192C230.394,255.036,211.924,201.328,208.934,192.649L208.934,192.649z"/>
		<path fill-rule="evenodd" clip-rule="evenodd" fill="#F26822" d="M145.886,260.275l49.368,23.811
			c-4.724,6.761,2.224,18.193-0.282,27.044c-18.519,0.589-43.566-2.471-54.108-5.101
			C119.702,300.721,115.516,264.682,145.886,260.275L145.886,260.275z"/>
		<path fill-rule="evenodd" clip-rule="evenodd" fill="#844E25" d="M256,228.821c37.462,0,67.823,30.296,67.823,67.645
			c0,37.369-30.361,67.645-67.823,67.645c-37.453,0-67.823-30.276-67.823-67.645C188.176,259.117,218.547,228.821,256,228.821
			L256,228.821z"/>
		<path fill-rule="evenodd" clip-rule="evenodd" fill="#653614" d="M269.532,180.185c-2.698,30.173,2.783,57.113,18.291,83.722
			c-20.056,17.569-41.144,19.142-63.637-1.572c13.641-24.138,20.703-50.787,15.732-82.047
			C251.236,184.178,262.127,186.925,269.532,180.185L269.532,180.185z"/>
		<path fill-rule="evenodd" clip-rule="evenodd" fill="#653614" d="M256,112.125c20.065,0,36.34,16.256,36.34,36.31
			c0,20.076-16.275,36.332-36.34,36.332c-20.056,0-36.331-16.256-36.331-36.332C219.669,128.38,235.944,112.125,256,112.125
			L256,112.125z"/>
		<path fill-rule="evenodd" clip-rule="evenodd" fill="#E6E6E5" d="M241.183,136.678c6.488,0,11.757,5.273,11.757,11.757
			c0,6.505-5.269,11.779-11.757,11.779c-6.495,0-11.759-5.274-11.759-11.779C229.424,141.951,234.689,136.678,241.183,136.678
			L241.183,136.678z"/>
		<path fill-rule="evenodd" clip-rule="evenodd" fill="#7A2F23" d="M241.183,143.197c2.896,0,5.247,2.353,5.247,5.238
			c0,2.907-2.351,5.26-5.247,5.26c-2.896,0-5.249-2.353-5.249-5.26C235.935,145.55,238.287,143.197,241.183,143.197L241.183,143.197
			z"/>
		<path fill-rule="evenodd" clip-rule="evenodd" fill="#E6E6E5" d="M270.826,136.678c6.484,0,11.757,5.273,11.757,11.757
			c0,6.505-5.273,11.779-11.757,11.779c-6.484,0-11.758-5.274-11.758-11.779C259.069,141.951,264.343,136.678,270.826,136.678
			L270.826,136.678z"/>
		<path fill-rule="evenodd" clip-rule="evenodd" fill="#7A2F23" d="M270.826,143.197c2.887,0,5.238,2.353,5.238,5.238
			c0,2.907-2.351,5.26-5.238,5.26c-2.886,0-5.238-2.353-5.238-5.26C265.588,145.55,267.941,143.197,270.826,143.197L270.826,143.197
			z"/>
		<path fill="#EBC054" d="M263.72,184.004l-6.969,12.208c-0.153,0.257-0.361,0.485-0.658,0.657
			c-0.835,0.464-1.898,0.172-2.377-0.657l-6.948-12.208l-6.889-12.087c-0.184-0.278-0.297-0.623-0.297-0.97
			c0-0.968,0.777-1.764,1.754-1.764h13.903h13.913v0.02c0.277,0,0.588,0.069,0.865,0.223c0.83,0.468,1.122,1.541,0.657,2.372
			L263.72,184.004L263.72,184.004z"/>
		<path fill-rule="evenodd" clip-rule="evenodd" fill="#663D18" d="M209.088,263.304c1.897,2.401,2.905,6.133,2.317,11.481
			c-0.286,2.748-1.368,5.046-2.436,7.35c-0.677,1.452-1.349,2.886-1.715,4.304c-0.38,1.469,0.044,3.404,0.45,5.308
			c0.316,1.398,0.618,2.782,0.691,4.27c0.218,4.151-0.695,7.329-1.728,10.927c-1.177,4.082-2.521,8.767-2.22,16.047
			c0.113,2.803,0.499,5.585,1.097,8.354c0.604,2.782,1.429,5.495,2.397,8.16c-5.233,3.736-5.475,3.909-10.032-2.665
			c-1.433-2.09-3.82-6.049-4.131-6.603c-3.396-6.123-5.773-13.818-7.245-21.769c-1.676-9.079-2.175-18.554-1.706-26.387
			c0.134-2.284,0.494-4.532,1.078-6.712c0.569-2.14,1.364-4.251,2.377-6.258c2.125-4.22,6.005-7.364,9.914-8.594
			c1.937-0.622,3.925-0.776,5.767-0.395c1.988,0.415,3.772,1.453,5.136,3.163L209.088,263.304L209.088,263.304z"/>
		<path fill-rule="evenodd" clip-rule="evenodd" fill="#663D18" d="M302.922,263.304c-1.888,2.401-2.906,6.133-2.337,11.481
			c0.311,2.748,1.384,5.046,2.456,7.35c0.692,1.452,1.349,2.886,1.73,4.304c0.361,1.469-0.069,3.404-0.485,5.308
			c-0.276,1.398-0.588,2.782-0.672,4.27c-0.228,4.151,0.708,7.329,1.725,10.927c1.176,4.082,2.506,8.767,2.234,16.047
			c-0.124,2.803-0.519,5.585-1.107,8.354c-0.608,2.782-1.418,5.495-2.387,8.16c5.223,3.736,5.465,3.909,10.027-2.665
			c1.439-2.09,3.806-6.049,4.117-6.603c3.406-6.123,5.773-13.818,7.261-21.769c1.661-9.079,2.179-18.554,1.695-26.387
			c-0.138-2.284-0.484-4.532-1.072-6.712c-0.568-2.14-1.365-4.251-2.382-6.258c-2.111-4.22-6-7.364-9.91-8.594
			c-1.938-0.622-3.924-0.776-5.777-0.395c-1.987,0.415-3.766,1.453-5.135,3.163L302.922,263.304L302.922,263.304z"/>
		<path fill-rule="evenodd" clip-rule="evenodd" fill="#532E17" d="M309.855,122.014c0.139,5.551-23.861,10.221-53.604,10.394
			c-29.742,0.173-53.964-4.186-54.103-9.75c-0.138-5.57,23.861-10.221,53.6-10.414C285.505,112.07,309.718,116.449,309.855,122.014
			L309.855,122.014z"/>
		<path fill-rule="evenodd" clip-rule="evenodd" fill="#582D14" d="M255.757,112.382c-29.525,0.192-53.431,4.794-53.292,10.275
			c0.128,5.48,24.261,9.785,53.787,9.612c29.535-0.173,53.431-4.775,53.292-10.256C309.402,116.533,285.282,112.208,255.757,112.382
			L255.757,112.382z M256.251,132.546c-29.862,0.173-54.286-4.255-54.424-9.889c-0.139-5.64,24.048-10.36,53.921-10.533
			c29.866-0.193,54.28,4.255,54.418,9.875C310.305,127.634,286.133,132.353,256.251,132.546L256.251,132.546z"/>
		<path fill-rule="evenodd" clip-rule="evenodd" fill="#663D18" d="M287.511,118.139l-15.355-26.367
			c0.034,1.577-7.503,2.886-16.828,2.941c-9.341,0.049-16.938-1.177-16.982-2.734l-14.065,26.54c-0.286,0.278-0.44,0.553-0.44,0.851
			c0.07,2.713,14.486,4.843,32.204,4.735c17.724-0.104,32.022-2.401,31.952-5.135C287.996,118.693,287.823,118.416,287.511,118.139
			L287.511,118.139z"/>
		<path fill-rule="evenodd" clip-rule="evenodd" fill="#9C5124" d="M255.18,89.024c-9.337,0.05-16.878,1.383-16.834,2.955
			c0.044,1.557,7.641,2.782,16.982,2.734c9.325-0.055,16.862-1.365,16.828-2.941l0,0C272.107,90.201,264.515,88.97,255.18,89.024
			L255.18,89.024z"/>
		<path fill-rule="evenodd" clip-rule="evenodd" fill="#582D14" d="M255.18,89.163c-8.985,0.049-16.547,1.349-16.513,2.801
			c0.036,1.468,7.661,2.659,16.651,2.61c8.989-0.054,16.566-1.334,16.512-2.803C271.796,90.305,264.169,89.109,255.18,89.163
			L255.18,89.163z M255.328,94.852c-9.668,0.049-17.259-1.211-17.293-2.872c-0.055-1.675,7.486-3.025,17.145-3.094
			c9.647-0.055,17.253,1.21,17.288,2.886C272.502,93.433,264.965,94.797,255.328,94.852L255.328,94.852z"/>
		<path fill-rule="evenodd" clip-rule="evenodd" fill="#492716" d="M285.574,114.823c-4.7,1.834-16.181,3.178-29.678,3.267
			c-13.478,0.084-25.048-1.122-29.837-2.922l-1.779,3.352c-0.286,0.278-0.44,0.553-0.44,0.851c0.07,2.713,14.486,4.843,32.204,4.735
			c17.724-0.104,32.022-2.401,31.952-5.135c0-0.276-0.173-0.554-0.484-0.831L285.574,114.823L285.574,114.823z"/>
		<path fill-rule="evenodd" clip-rule="evenodd" fill="#492716" d="M248.592,118.001c-0.851,0-1.642,0.138-2.26,0.401
			c-0.652,0.276-1.013,0.637-0.998,1.038l0.084,3.356c0.015,0.742,1.384,1.344,3.109,1.399c4.932,0.103,10.106,0.083,15.038-0.104
			c1.725-0.049,3.06-0.693,3.06-1.433l-0.103-3.341c0-0.395-0.381-0.762-1.058-1.019c-0.672-0.276-1.571-0.396-2.471-0.38
			c-4.671,0.157-9.524,0.192-14.195,0.084C248.73,118.001,248.66,118.001,248.592,118.001L248.592,118.001z M256.079,125.731
			c-2.595,0.02-5.204,0-7.75-0.069c-3.524-0.068-6.322-1.33-6.351-2.852l-0.089-3.336c-0.015-0.816,0.716-1.573,2.066-2.125
			c1.339-0.574,3.172-0.851,5.02-0.816c4.527,0.089,9.242,0.054,13.774-0.084c1.834-0.07,3.688,0.208,5.051,0.741
			c1.384,0.555,2.145,1.295,2.18,2.111l0.069,3.336c0.035,1.522-2.699,2.817-6.208,2.94
			C261.302,125.661,258.708,125.716,256.079,125.731L256.079,125.731z"/>
		<path fill-rule="evenodd" clip-rule="evenodd" fill="#FEEE55" d="M248.601,118.139c-0.771,0-1.487,0.138-2.041,0.366
			c-0.598,0.243-0.919,0.569-0.909,0.935l0.079,3.356c0.015,0.672,1.256,1.224,2.817,1.261c4.913,0.103,10.087,0.068,15-0.09
			c1.557-0.063,2.768-0.637,2.733-1.309l-0.069-3.341c0-0.361-0.345-0.692-0.968-0.914c-0.603-0.263-1.384-0.362-2.23-0.346
			c-4.65,0.153-9.572,0.187-14.223,0.083C248.72,118.139,248.66,118.139,248.601,118.139L248.601,118.139z M256.043,124.386
			c-2.524,0.016-5.065,0-7.531-0.073c-1.893-0.035-3.396-0.707-3.414-1.517l-0.084-3.356c-0.011-0.435,0.38-0.831,1.101-1.126
			c0.723-0.312,1.701-0.466,2.709-0.445c4.626,0.104,9.519,0.068,14.135-0.075c1.003-0.03,1.972,0.108,2.734,0.4
			c0.726,0.292,1.142,0.692,1.157,1.122l0.089,3.341c0,0.81-1.453,1.501-3.356,1.571
			C261.13,124.313,258.604,124.367,256.043,124.386L256.043,124.386z M248.581,116.671c-1.631,0-3.232,0.277-4.399,0.762
			c-1.29,0.539-1.991,1.261-1.972,2.041l0.079,3.336c0.041,1.453,2.704,2.644,6.07,2.713c5.065,0.124,10.378,0.089,15.464-0.084
			c3.356-0.124,5.951-1.349,5.917-2.802l-0.089-3.336c-0.015-0.781-0.742-1.488-2.056-2.007c-1.315-0.518-3.059-0.775-4.844-0.707
			c-4.492,0.139-9.277,0.169-13.789,0.084C248.833,116.671,248.705,116.657,248.581,116.671L248.581,116.671z M256.093,125.869
			c-2.609,0.019-5.228,0-7.779-0.07c-3.693-0.084-6.612-1.398-6.657-2.99l-0.089-3.336c-0.015-0.851,0.757-1.646,2.17-2.229
			c1.393-0.574,3.311-0.885,5.249-0.851c4.497,0.089,9.231,0.054,13.73-0.084c1.936-0.07,3.874,0.222,5.292,0.776
			c1.453,0.587,2.249,1.363,2.284,2.214l0.068,3.336c0.05,1.592-2.801,2.94-6.503,3.079
			C261.317,125.8,258.708,125.854,256.093,125.869L256.093,125.869z"/>
		<path fill-rule="evenodd" clip-rule="evenodd" fill="#F26822" d="M264.239,123.903c1.211-0.178,2.076-0.678,2.056-1.245
			l-0.084-3.341c0-0.361-0.345-0.692-0.953-0.934c-0.619-0.243-1.399-0.342-2.245-0.326c-4.65,0.153-9.572,0.187-14.223,0.083
			h-0.188c-0.771,0-1.487,0.138-2.041,0.366c-0.598,0.243-0.919,0.589-0.909,0.935l0.089,3.356c0.006,0.553,0.89,1.052,2.106,1.205
			c2.619,0.089,5.372,0.124,8.198,0.104C258.881,124.09,261.629,124.02,264.239,123.903L264.239,123.903z"/>
		<path fill-rule="evenodd" clip-rule="evenodd" fill="#FEEE55" d="M266.295,122.657l-0.084-3.341c0-0.361-0.345-0.692-0.953-0.934
			c-0.619-0.243-1.399-0.342-2.245-0.326c-4.65,0.153-9.572,0.187-14.223,0.083h-0.188c-0.771,0-1.487,0.138-2.041,0.366
			c-0.598,0.243-0.919,0.589-0.909,0.935l0.089,3.356c0.006,0.553,0.89,1.052,2.106,1.205c2.619,0.089,5.372,0.124,8.198,0.104
			c2.838-0.015,5.586-0.085,8.195-0.202C265.45,123.725,266.314,123.225,266.295,122.657L266.295,122.657z"/>
	</g>
</g>
</svg>
