<?xml version="1.0" encoding="utf-8"?>
<!-- Generator: Adobe Illustrator 17.0.0, SVG Export Plug-In . SVG Version: 6.00 Build 0)  -->
<!DOCTYPE svg PUBLIC "-//W3C//DTD SVG 1.1//EN" "http://www.w3.org/Graphics/SVG/1.1/DTD/svg11.dtd">
<svg version="1.1" id="Layer_1" xmlns="http://www.w3.org/2000/svg" xmlns:xlink="http://www.w3.org/1999/xlink" x="0px" y="0px"
	 width="512px" height="512px" viewBox="0 0 512 512" enable-background="new 0 0 512 512" xml:space="preserve">
<g>
	<path fill="#619743" d="M256,31C131.747,31,31,131.747,31,256s100.747,225,225,225s225-100.747,225-225S380.253,31,256,31z"/>
	<g>
		<path fill="#8A5E3C" d="M357.098,207.627c-9.656-6.897,14.582-32.842,18.003-55.916c3.415-23.072-8.549-46.915-21.227-47.769
			c-12.672-0.853-26.062,15.809-35.553,21.313c-9.501,5.509-20.705,15.43-20.705,15.43c-12.443-7.014-40.442-8.626-40.442-8.626
			s-28.009,1.612-40.447,8.626c0,0-11.204-9.922-20.7-15.43c-9.491-5.503-22.886-22.165-35.558-21.313
			c-12.677,0.854-24.642,24.696-21.221,47.769c3.421,23.074,27.658,49.019,17.997,55.916
			c-27.068,19.327-51.039,109.295,2.511,139.484c53.556,30.195,35.894,47.286,97.418,67.792
			c61.52-20.506,43.868-37.597,97.413-67.792C408.137,316.922,384.171,226.954,357.098,207.627z"/>
		<path fill="#F9FBFC" d="M305.08,334.049l-18.513,16.622l-14.619,2.126l-16.598,3.864l-16.816-3.864l-14.827-2.126l-18.519-16.622
			c0,0-11.778,20.679,14.22,39.232c17.332,12.373,28.919,8.501,35.941,25.414c7.028-16.913,18.391-13.042,35.734-25.414
			C317.071,354.728,305.08,334.049,305.08,334.049z"/>
		<path fill="#C2B59B" d="M371.531,284.584c0,0,7.868-59.59-35.691-91.21c3.58-1.289,6.576-1.873,12.832,0.803
			c12.332-20.556,33.191-41.933,17.88-75.282c0,0-7.123-21.364-33.324,4.841c-8.065,8.061-13.028,15.106-15.917,21.244
			c5.82-2.85,12.214-0.182,12.214-0.182c-8.964,2.208-10.001,9.491-10.001,9.491c9.374-4.409,14.502,1.488,14.502,1.488
			c-13.949,2.733-16.47,18.152-16.47,18.152c-0.074-0.132-0.165-0.278-0.255-0.43c-1.314-2.137-7.73-11.669-19.237-14.953
			c-12.981-3.701-6.708-21.648-40.889-22.028c-34.186,0.381-27.919,18.327-40.894,22.028c-11.496,3.284-17.923,12.816-19.237,14.953
			c-0.09,0.151-0.176,0.298-0.255,0.43c0,0-2.522-15.419-16.476-18.152c0,0,5.139-5.897,14.513-1.488c0,0-1.043-7.283-10.002-9.491
			c0,0,6.389-2.668,12.209,0.182c-2.889-6.138-7.847-13.183-15.912-21.244c-26.211-26.205-33.329-4.841-33.329-4.841
			c-15.31,33.349,5.56,54.726,17.886,75.282c6.251-2.676,9.246-2.092,12.826-0.803c-43.565,31.62-35.691,91.21-35.691,91.21
			s9.619-28.859,39.352-21.024c-48.975,21.024-34.548,69.122-5.682,83.551c0-24.047,24.046-28.858,34.691-4.27
			c5.788,13.377,25.924,11.394,33.606,14.956c7.693,3.558,12.395,2.278,12.395,2.278s4.698,1.28,12.39-2.278
			c7.693-3.562,27.818-1.579,33.611-14.956c10.64-24.587,34.686-19.777,34.686,4.27c28.861-14.429,43.293-62.526-5.682-83.551
			C361.907,255.725,371.531,284.584,371.531,284.584z M213.024,321.383c2.942-2.088,4.841-1.049,10.113,15.903
			c0.702,2.264,1.606,4.148,2.66,5.729C215.902,334.685,211.098,322.748,213.024,321.383z M268.755,351.101
			c-6.102,0.425-7.028,2.563-11.582,2.351c-4.559,0.211-5.485-1.926-11.581-2.351c-2.144-0.073-4.197-0.379-6.16-0.872
			c4.314,0.097,8.256-1.097,10.241-2.071c4.836-2.374,7.501-2.091,7.501-2.091s2.66-0.283,7.501,2.091
			c1.984,0.973,5.915,2.168,10.23,2.071C272.948,350.721,270.894,351.027,268.755,351.101z M271.793,329.832
			c-3.415-0.19-3.128-1.805-2.091-3.703c1.048-1.895-0.819-3.331-4.416-2.581c-3.144,0.66-6.304,6.796-3.58,8.274
			c4.054,2.2,5.623,3.712,2.038,6.438c-2.245,1.705-3.511,2.302-6.57,2.373c-3.069-0.071-4.341-0.668-6.581-2.373
			c-3.58-2.726-2.011-4.238,2.038-6.438c2.729-1.478-0.426-7.614-3.57-8.274c-3.591-0.75-5.463,0.686-4.426,2.581
			c1.048,1.898,1.325,3.513-2.085,3.703c-3.415,0.19-8.092-4.771-4.32-15.76c3.112-9.08,18.944-8.735,18.944-8.735
			s15.821-0.344,18.939,8.735C279.89,325.061,275.208,330.022,271.793,329.832z M288.551,343.016
			c1.043-1.581,1.958-3.466,2.655-5.729c5.283-16.952,7.177-17.991,10.113-15.903C303.25,322.748,298.446,334.685,288.551,343.016z"
			/>
		<path fill="none" d="M301.319,321.383c1.931,1.365-2.894,13.334-12.805,21.663c1.059-1.588,1.979-3.471,2.692-5.76
			C296.488,320.334,298.382,319.295,301.319,321.383z"/>
		<path fill="#8A5E3C" d="M299.574,232.655c0,1.382-1.128,2.505-2.511,2.505c-1.378,0-2.506-1.122-2.506-2.505
			c0-1.386,1.128-2.508,2.506-2.508C298.446,230.147,299.574,231.269,299.574,232.655z"/>
		<path fill="#FFFFFF" d="M297.919,232.255c0,0.673-0.548,1.216-1.218,1.216s-1.218-0.543-1.218-1.216
			c0-0.676,0.548-1.22,1.218-1.22S297.919,231.579,297.919,232.255z"/>
		<path fill="none" d="M213.024,321.383c-1.931,1.365,2.894,13.334,12.81,21.663c-1.064-1.588-1.995-3.471-2.697-5.76
			C217.865,320.334,215.966,319.295,213.024,321.383z"/>
		<g>
			<path fill="#F9FBFC" d="M264.377,338.917c0,0,4.453-0.979,9.358,2.675c4.894,3.653,11.842,3.975,14.428-1.399
				c2.585-5.371,6.762-11.608,4.272-30.668c-2.495-19.058-3.208-31.618,18.173-51.127c21.381-19.507,4.745-22.816,3.671-26.824
				c0,0-2.064,1.505-6.544,1.238c-4.479-0.265-4.203,4.656-11.071,7.328c-6.857,2.672-11.528,2.761-12.422,5.965
				c-0.894,3.207-2.67,8.375,4.107,17.993c5.357,7.625,3.218,25.021-1.155,31.31c-2.825,4.064-13.518,12.902-10.879,22.402
				C279.076,327.739,274.895,335.711,264.377,338.917z"/>
			<path fill="#F9FBFC" d="M249.966,338.917c0,0-4.453-0.979-9.352,2.675c-4.9,3.653-11.847,3.975-14.433-1.399
				c-2.58-5.371-6.767-11.608-4.272-30.668c2.49-19.058,3.208-31.618-18.178-51.127c-21.37-19.507-4.74-22.816-3.665-26.824
				c0,0,2.069,1.505,6.549,1.238c4.469-0.265,4.208,4.656,11.065,7.328c6.852,2.672,11.534,2.761,12.422,5.965
				c0.894,3.207,2.676,8.375-4.096,17.993c-5.363,7.625-3.235,25.021,1.133,31.31c2.83,4.064,13.534,12.902,10.895,22.402
				C235.267,327.739,239.459,335.711,249.966,338.917z"/>
		</g>
		<path fill="#8A5E3C" d="M276.113,314.071c-3.118-9.08-18.939-8.735-18.939-8.735s-15.832-0.344-18.944,8.735
			c-3.772,10.989,0.904,15.95,4.32,15.76c3.41-0.19,3.133-1.805,2.085-3.703c-1.037-1.895,0.835-3.331,4.426-2.581
			c3.144,0.66,6.299,6.796,3.57,8.274c-4.048,2.2-5.618,3.712-2.038,6.438c2.24,1.705,3.511,2.302,6.581,2.373
			c3.059-0.071,4.325-0.668,6.57-2.373c3.586-2.726,2.016-4.238-2.038-6.438c-2.724-1.478,0.436-7.614,3.58-8.274
			c3.596-0.75,5.463,0.686,4.416,2.581c-1.038,1.898-1.325,3.513,2.091,3.703S279.89,325.061,276.113,314.071z"/>
		<path fill="#F9FBFC" d="M281.513,183.746c2.325-6.09,14.055-7.827,14.055-7.827c-18.801-16.234-40.219-5.798-40.219-5.798
			s-21.673-10.436-40.479,5.798c0,0,11.549,1.737,13.874,7.827c0,0-31.121-3.189-44.969,24.639c0,0,26.871-13.626,43.905,6.379
			c11.842,13.912,1.915,31.011,27.669,31.308c25.754-0.297,15.582-17.396,27.429-31.308c17.029-20.004,43.719-6.379,43.719-6.379
			C312.645,180.556,281.513,183.746,281.513,183.746z"/>
		<g>
			<path fill="#8A5E3C" d="M290.572,339.116c0,0-3.256,12.176-21.253,11.226c0,0,0.798,0.3,2.091,0.545
				c5.591,1.068,15.662-0.051,18.997-9.535C290.668,340.622,290.402,339.961,290.572,339.116z"/>
			<path fill="#8A5E3C" d="M223.775,339.116c0.165,0.844-0.101,1.505,0.16,2.237c3.336,9.484,13.401,10.603,19.003,9.535
				c1.287-0.245,2.085-0.545,2.085-0.545C227.031,351.292,223.775,339.116,223.775,339.116z"/>
		</g>
		<g>
			<path fill="#8A5E3C" d="M314.278,231.573c0,0-3.4,1.592-7.533-0.754c-4.134-2.349-10.906-6.033-18.045,3.707
				c-5.368,7.316-4.735,12.488-4.735,12.488s5.82-5.616,11.943-5.187c6.129,0.427,11.895-2.564,13.316-7.407
				C309.224,234.42,312.82,233.638,314.278,231.573z"/>
			<path fill="#FFD108" d="M288.391,234.866c0.021-0.045,3.112-4.764,7.134-6.184c3.096-1.097,6.092-0.399,8.783,0.843
				c0.42,0.882,0.665,2.087,0.665,3.108c0,4.079-3.681,7.384-8.219,7.384C293.121,240.017,289.466,237.812,288.391,234.866z"/>
			<path fill="#8A5E3C" d="M300.106,232.134c0,1.817-1.474,3.292-3.293,3.292c-1.814,0-3.288-1.475-3.288-3.292
				s1.474-3.292,3.288-3.292C298.632,228.842,300.106,230.317,300.106,232.134z"/>
			<path fill="#FFFFFF" d="M297.94,231.611c0,0.884-0.718,1.598-1.606,1.598c-0.883,0-1.601-0.713-1.601-1.598
				c0-0.887,0.718-1.604,1.601-1.604C297.222,230.007,297.94,230.724,297.94,231.611z"/>
		</g>
		<g>
			<path fill="#8A5E3C" d="M200.432,231.573c0,0,3.405,1.592,7.533-0.754c4.139-2.349,10.906-6.033,18.045,3.707
				c5.368,7.316,4.735,12.488,4.735,12.488s-5.82-5.616-11.943-5.187c-6.129,0.427-11.89-2.564-13.316-7.407
				C205.486,234.42,201.889,233.638,200.432,231.573z"/>
			<path fill="#FFD108" d="M226.318,234.866c-0.016-0.045-3.112-4.764-7.129-6.184c-3.101-1.097-6.096-0.399-8.783,0.843
				c-0.42,0.882-0.665,2.087-0.665,3.108c0,4.079,3.676,7.384,8.214,7.384C221.594,240.017,225.244,237.812,226.318,234.866z"/>
			<path fill="#8A5E3C" d="M214.604,232.134c0,1.817,1.474,3.292,3.293,3.292c1.814,0,3.293-1.475,3.293-3.292
				s-1.479-3.292-3.293-3.292C216.078,228.842,214.604,230.317,214.604,232.134z"/>
			<path fill="#FFFFFF" d="M216.769,231.611c0,0.884,0.723,1.598,1.606,1.598s1.601-0.713,1.601-1.598
				c0-0.887-0.718-1.604-1.601-1.604S216.769,230.724,216.769,231.611z"/>
		</g>
	</g>
</g>
</svg>
