<?xml version="1.0" encoding="utf-8"?>
<!-- Generator: Adobe Illustrator 17.0.0, SVG Export Plug-In . SVG Version: 6.00 Build 0)  -->
<!DOCTYPE svg PUBLIC "-//W3C//DTD SVG 1.1//EN" "http://www.w3.org/Graphics/SVG/1.1/DTD/svg11.dtd">
<svg version="1.1" id="Layer_1" xmlns="http://www.w3.org/2000/svg" xmlns:xlink="http://www.w3.org/1999/xlink" x="0px" y="0px"
	 width="512px" height="512px" viewBox="0 0 512 512" enable-background="new 0 0 512 512" xml:space="preserve">
<g>
	<g>
		<circle fill="#FFD400" cx="256" cy="256" r="225"/>
	</g>
	<g>
		<path fill="#DBD9DC" d="M409.797,305.244c-1.668,0-3.305-0.777-4.348-2.237c-0.709-0.985-17.157-24.524-7.278-54.594
			c9.29-28.259,0.865-41.968-4.984-47.624c-7.158-6.929-16.234-7.875-22.042-5.756c-2.768,1.014-5.839-0.407-6.851-3.177
			c-1.012-2.768,0.412-5.836,3.18-6.848c10.755-3.936,24.06-0.667,33.137,8.107c7.643,7.395,18.81,24.844,7.705,58.63
			c-8.211,24.991,5.677,44.861,5.818,45.059c1.715,2.398,1.157,5.732-1.241,7.447C411.955,304.921,410.871,305.244,409.797,305.244z
			"/>
		<g>
			<path fill="#DC646E" d="M316.873,315.421c-0.271,0-0.547-0.021-0.824-0.062c-2.909-0.451-4.906-3.177-4.458-6.092l1.058-6.84
				c0.449-2.915,3.123-4.898,6.095-4.46c2.909,0.451,4.906,3.177,4.458,6.092l-1.058,6.84
				C321.738,313.536,319.465,315.421,316.873,315.421z"/>
			<path fill="#DC646E" d="M339.885,316.591c-2.34,0-4.488-1.554-5.14-3.92l-2.669-9.676c-0.787-2.844,0.886-5.782,3.728-6.566
				c2.826-0.782,5.782,0.878,6.564,3.725l2.669,9.676c0.787,2.844-0.886,5.782-3.728,6.566
				C340.834,316.529,340.36,316.591,339.885,316.591z"/>
		</g>
		<path fill="#E6828C" d="M355.962,293.614c-33.966,27.777-67.287-0.826-67.287-0.826l56.166-23.578L355.962,293.614z"/>
		<path fill="#DBD9DC" d="M388.438,215.491c-0.564-10.663-7.008-28.397-31.364-37.37c-35.66-13.138-90.087,13.9-159.709-1.088
			c-9.022-1.942-17.363-6.262-24.472-12.147l-0.219-0.182c-13.575-11.237-33.684-12.203-47.041-0.707
			c-0.947,0.815-1.86,1.682-2.733,2.6l-41.181,43.259c-2.526,2.675-3.496,6.464-2.567,10.024l2.417,9.264
			c1.246,4.778,5.648,8.082,10.585,7.992c16.602-0.3,28.908-1.869,38.075-4.071c23.356,34.833,58.684,55.498,58.684,55.498
			l0.667,70.068l-15.668,3.917c-3.541,0.885-6.385,3.518-7.539,6.981l-1.533,4.598c-0.96,2.882,1.184,5.857,4.222,5.857h20.142
			c3.57,0,6.904-1.784,8.884-4.755l5.517-8.275c1.311-1.967,2.17-4.199,2.517-6.537l10.917-63.595
			c76.864,14.428,87.987-14.489,127.802-18.271l24.246,48.047v30.919l-12.953,4.763c-3.188,1.063-5.69,3.564-6.753,6.753
			l-1.698,5.093c-0.96,2.882,1.184,5.857,4.222,5.857h18.841c4.259,0,8.11-2.53,9.8-6.439l5.7-13.181
			c1.446-3.345,2.193-6.951,2.193-10.594v-34.921c0-2.587-0.383-5.178-1.381-7.566c-3.017-7.219-5.293-25.093-5.293-41.632
			C381.765,246.521,389.772,240.737,388.438,215.491z"/>
		<path fill="#C9C6CA" d="M182.238,259.2c-5.647-5.647-17.868-20.548-25.573-35.207c-1.802-3.428-6.462-4.223-9.216-1.499
			c-3.693,3.654-9.353,7.959-17.222,10.57c23.356,34.833,58.684,55.498,58.684,55.498C188.911,269.21,186.019,262.981,182.238,259.2
			z"/>
		<g>
			<path fill="#6F6571" d="M357.074,178.121c-14.626-5.388-32.46-3.999-53.155-1.542c8.684,22.192-15.133,36.12-16.914,38.245
				c-11.389,13.594,5.903,37.523,26.693,27.36c15.014-7.341,34.701-25.358,41.373-10.01c5.99,13.777,15.937,21.057,27.561,23.136
				c2.029-11.959,6.866-19.743,5.804-39.819C387.874,204.828,381.43,187.094,357.074,178.121z"/>
			<path fill="#6F6571" d="M257.291,181.308c-18.466,0.958-38.469,0.344-59.926-4.276c-9.023-1.942-17.363-6.262-24.472-12.148
				l-0.219-0.182c-13.575-11.237-33.684-12.203-47.041-0.707c-0.947,0.815-1.86,1.682-2.733,2.6l-41.182,43.259
				c-2.526,2.675-3.496,6.464-2.567,10.024l2.417,9.264c1.246,4.778,5.648,8.081,10.585,7.992c16.602-0.3,28.908-1.869,38.075-4.071
				c9.789,14.599,21.663,26.668,32.175,35.811c21.346-10.364,13.599-31.244,23.324-47.305
				C201.04,196.281,246.897,222.603,257.291,181.308z"/>
		</g>
		<path fill="#E6828C" d="M111.947,234.954c0-15.964-8.028-29.716-19.636-36.227l-10.594,11.128
			c-2.526,2.675-3.496,6.464-2.567,10.024l2.417,9.264c1.247,4.778,5.648,8.082,10.585,7.992c7.422-0.134,13.942-0.533,19.749-1.118
			C111.909,235.66,111.947,235.313,111.947,234.954z"/>
		<g>
			<path fill="#5D5360" d="M189.578,358.629l-15.668,3.917c-3.541,0.885-6.385,3.518-7.54,6.981l-1.533,4.598
				c-0.96,2.882,1.184,5.858,4.222,5.858h20.142c3.57,0,6.903-1.784,8.884-4.755l5.223-7.835L189.578,358.629z"/>
			<path fill="#5D5360" d="M351.904,379.984h18.841c4.259,0,8.11-2.53,9.8-6.439l2.779-6.425l-14.238-9.602l-12.953,4.763
				c-3.188,1.063-5.69,3.564-6.753,6.753l-1.698,5.093C346.722,377.008,348.866,379.984,351.904,379.984z"/>
		</g>
		<circle fill="#4B3F4E" cx="126.809" cy="193.235" r="5.339"/>
		<path fill="#DC646E" d="M79.15,219.879l0.937,3.593c4.433-1.277,7.615-4.6,7.615-8.538c0-2.815-1.653-5.301-4.196-6.974
			l-1.789,1.894C79.192,212.53,78.221,216.318,79.15,219.879z"/>
		<path fill="#FAEBC8" d="M128.706,144.142c-2,5.109-3.613,14.922,7.473,24.105c1.959,1.623,4.56,2.178,7.01,1.491
			c3.426-0.96,8.03-3.544,10.479-10.406c0.535-1.497-0.188-3.25-1.703-3.73c-7.785-2.469-15.204-8.869-18.937-12.466
			C131.645,141.803,129.406,142.353,128.706,144.142z"/>
		<path fill="#5D5360" d="M221.943,227.891c-8.661,1.81-15.101,8.893-13.346,16.182c2.169,9.009,20.402,5.873,28.027,18.351
			c5.505,9.009,15.348,15.682,24.19,9.676c8.842-6.006,20.196-16.23,1.835-31.531C249.637,229.727,233.12,225.556,221.943,227.891z"
			/>
		<path fill="#F5DCB4" d="M130.213,142.671c-0.643,0.271-1.219,0.734-1.507,1.471c-2,5.109-3.614,14.922,7.473,24.105
			c1.959,1.623,4.56,2.177,7.01,1.491c1.555-0.436,3.35-1.237,5.079-2.59C136.125,160.086,131.755,149.184,130.213,142.671z"/>
		<path fill="#5D5360" d="M150.215,161.054l1.613,8.924c1.24,6.862,6.957,10.818,12.709,8.744
			c6.793-2.449,14.938-7.095,18.368-15.738c0.882-2.222-0.332-4.879-2.434-5.552c-4.411-1.411-12.97-3.206-26.346-2.21
			C151.524,155.416,149.683,158.112,150.215,161.054z"/>
		<path fill="#C9C6CA" d="M218.635,286.045l-1.598,10.778c76.865,14.428,87.987-14.49,127.802-18.271l-4.571-7.724
			c-5.255-8.879-16.16-12.874-25.786-9.16c-21.5,8.295-42.051,22.094-83.414,15.433
			C225.128,276.144,219.518,280.093,218.635,286.045z"/>
		<path fill="#5D5360" d="M162.402,268.875c8.2-3.981,12.091-9.521,14.344-15.736c-6.16-7.264-14.361-18.263-20.081-29.147
			c-1.802-3.429-6.462-4.223-9.216-1.499c-3.693,3.654-9.353,7.958-17.222,10.57C140.015,247.662,151.889,259.731,162.402,268.875z"
			/>
	</g>
</g>
</svg>
