<?xml version="1.0" encoding="utf-8"?>
<!-- Generator: Adobe Illustrator 17.0.0, SVG Export Plug-In . SVG Version: 6.00 Build 0)  -->
<!DOCTYPE svg PUBLIC "-//W3C//DTD SVG 1.1//EN" "http://www.w3.org/Graphics/SVG/1.1/DTD/svg11.dtd">
<svg version="1.1" id="Layer_1" xmlns="http://www.w3.org/2000/svg" xmlns:xlink="http://www.w3.org/1999/xlink" x="0px" y="0px"
	 width="512px" height="512px" viewBox="0 0 512 512" enable-background="new 0 0 512 512" xml:space="preserve">
<g>
	<path fill="#FFD400" d="M256,31C131.747,31,31,131.747,31,256s100.747,225,225,225s225-100.747,225-225S380.253,31,256,31z"/>
	<g>
		<path fill="#F5DCB4" d="M377.622,131.992h-53.367c-19.345,7.671-23.633-5.337-64.039-5.337s-44.694,13.008-64.04,5.337h-53.366
			l-7.116,134.084c4.447,52.699,37.134,81.383,62.928,91.834H321.81c25.794-10.451,58.481-39.135,62.928-91.834L377.622,131.992z"/>
		<path fill="#965A50" d="M324.256,131.992c60.087,17.985,27.376,110.735,66.066,150.827c5.554,5.755,15.368,3.199,17.686-4.456
			c3.063-10.114,6.122-26.115,5.636-48.977c-0.667-31.353,12.008-33.353,12.008-33.353s-16.01-74.714-64.04-74.714
			C345.603,121.319,324.256,131.992,324.256,131.992z"/>
		<path fill="#4B3F4E" d="M204.182,270.745L204.182,270.745c-10.273,0-18.678-8.405-18.678-18.678v-10.673
			c0-10.273,8.405-18.678,18.678-18.678l0,0c10.273,0,18.678,8.405,18.678,18.678v10.673
			C222.86,262.34,214.455,270.745,204.182,270.745z"/>
		<path fill="#5D5360" d="M204.182,222.715c-0.913,0-1.789,0.143-2.668,0.271v26.412c0,5.894,4.779,10.673,10.673,10.673
			c5.895,0,10.673-4.779,10.673-10.673v-8.004C222.86,231.121,214.455,222.715,204.182,222.715z"/>
		<circle fill="#FFFFFF" cx="204.182" cy="236.056" r="8.005"/>
		<path fill="#4B3F4E" d="M316.251,270.745L316.251,270.745c-10.273,0-18.678-8.405-18.678-18.678v-10.673
			c0-10.273,8.405-18.678,18.678-18.678l0,0c10.273,0,18.678,8.405,18.678,18.678v10.673
			C334.929,262.34,326.524,270.745,316.251,270.745z"/>
		<path fill="#5D5360" d="M316.251,222.715c-0.913,0-1.789,0.143-2.668,0.271v26.412c0,5.894,4.779,10.673,10.673,10.673
			c5.895,0,10.673-4.779,10.673-10.673v-8.004C334.929,231.121,326.524,222.715,316.251,222.715z"/>
		<circle fill="#FFFFFF" cx="316.251" cy="236.056" r="8.005"/>
		<path fill="#824641" d="M390.322,282.82c5.554,5.755,15.368,3.199,17.686-4.456c1.756-5.801,3.489-13.61,4.575-23.467
			c-10.491-5.229-19.446-21.914-24.956-50.192c-10.006-51.365-24.015-80.049-63.372-72.712
			C384.344,149.977,351.633,242.728,390.322,282.82z"/>
		<path fill="#E7C9A5" d="M198.623,357.91h25.294c0,0-44.417-29.796-51.755-82.495c-14.275-102.52,12.897-133.194,36.398-141.021
			c-3.723,0.126-7.59-0.5-12.384-2.401h-53.367l-7.116,134.083C140.143,318.775,172.829,347.459,198.623,357.91z"/>
		<path fill="#965A50" d="M196.177,131.992c-60.087,17.985-27.376,110.736-66.066,150.827c-5.554,5.755-15.368,3.199-17.686-4.456
			c-3.063-10.114-6.122-26.115-5.636-48.977c0.667-31.353-12.008-33.353-12.008-33.353s16.01-74.714,64.04-74.714
			C174.83,121.319,196.177,131.992,196.177,131.992z"/>
		<path fill="#824641" d="M194.391,131.142c-5.415-2.513-22.305-9.823-35.57-9.823c-48.03,0-64.04,74.714-64.04,74.714
			s12.675,2.001,12.008,33.354c-0.009,0.419,0.003,0.796-0.003,1.21C137.495,114.089,184.684,127.051,194.391,131.142z"/>
		<ellipse fill="#BC8E78" cx="260.216" cy="361.47" rx="58.704" ry="42.69"/>
		<path fill="#FF8087" d="M233.534,361.467v26.683c0,14.737,11.946,26.683,26.683,26.683c14.737,0,26.683-11.946,26.683-26.683
			v-26.683H233.534z"/>
		<path fill="#E6646E" d="M233.534,382.31c7.717-0.967,14.998-3.315,21.346-6.864v7.368c0,2.947,2.39,5.337,5.337,5.337
			c2.947,0,5.337-2.39,5.337-5.337v-7.436c6.287,3.588,13.588,5.962,21.346,6.934v-20.845h-53.366V382.31z"/>
		<path fill="#D4AF91" d="M294.904,313.438h-69.376c-22.105,0-40.024,13.141-40.024,29.351c0,16.21,17.92,29.351,40.024,29.351
			c11.131,0,21.185-3.34,28.431-8.723c1.835-1.362,4.047-2.043,6.255-2.043c2.212,0,4.424,0.68,6.259,2.043
			c7.246,5.382,17.3,8.723,28.431,8.723c22.105,0,40.024-13.141,40.024-29.351C334.929,326.579,317.009,313.438,294.904,313.438z"/>
		<path fill="#5D5360" d="M260.216,292.091c17.684,0,32.02,9.557,32.02,21.346c0,11.37-13.457,17.357-23.169,21.783
			c-5.63,2.566-12.072,2.566-17.702,0c-9.712-4.427-23.169-10.413-23.169-21.783C228.197,301.649,242.532,292.091,260.216,292.091z"
			/>
		<path fill="#4B3F4E" d="M244.04,307.601c-0.746-6.716,3.985-13.899,3.985-13.899c-11.634,3.198-19.828,10.825-19.828,19.735
			c0,11.369,13.457,17.356,23.169,21.783c5.629,2.566,12.072,2.566,17.702,0c2.089-0.952,4.35-1.983,6.614-3.117
			C262.551,329.781,245.541,321.11,244.04,307.601z"/>
	</g>
</g>
</svg>
