<?xml version="1.0" encoding="utf-8"?>
<!-- Generator: Adobe Illustrator 17.0.0, SVG Export Plug-In . SVG Version: 6.00 Build 0)  -->
<!DOCTYPE svg PUBLIC "-//W3C//DTD SVG 1.1//EN" "http://www.w3.org/Graphics/SVG/1.1/DTD/svg11.dtd">
<svg version="1.1" id="Layer_1" xmlns="http://www.w3.org/2000/svg" xmlns:xlink="http://www.w3.org/1999/xlink" x="0px" y="0px"
	 width="512px" height="512px" viewBox="0 0 512 512" enable-background="new 0 0 512 512" xml:space="preserve">
<g>
	<path fill="#F15B2A" d="M256,31C131.747,31,31,131.747,31,256s100.747,225,225,225s225-100.747,225-225S380.253,31,256,31z"/>
	<g>
		<g>
			<g>
				<path fill="#F79421" d="M306.397,342.14c-3.33,9.643-6.326,17.628-5.659,21.954c0.666,4.324,5.563,8.982,2.78,11.978
					c-2.78,2.995-1.78-3.329-5.108-2.995c-3.328,0.335-4.66,1.281-8.318,3.798c-3.66,2.523-25.617,4.853-30.274,5.85
					c-4.655,1.001-9.317-3.658-12.976-2.661c-3.658,0.994-10.646-1.998-1.995-3.327c8.647-1.329,12.663,0.663,21.466-0.666
					c8.808-1.335,22.449-3.329,22.782-4.661c0.33-1.326-1.996-2.326,0.666-7.316c2.661-4.99,6.986-24.949,6.986-24.949
					L306.397,342.14z"/>
				<path fill="#F79421" d="M280.776,339.145c-0.663,6.313-1.66,11.312-3.66,16.301c-1.995,4.99-5.148,11.309-3.57,14.304
					c1.575,2.992,4.239,11.593,5.901,13.115c1.66,1.52,1.66,3.852-0.997,2.52c-2.662-1.332-4.991-5.038-6.653-2.52
					c-1.666,2.52-2.637,5.515-5.482,5.85c-2.836,0.331-5.166-1.332-7.162,0c-1.998,1.329-35.598,6.319-38.259,4.324
					c-2.658-1.998-1.665-3.993,3.661-4.324c5.322-0.335,5.322-0.335,5.322-0.335s-10.647-0.666-8.982-2.661
					c1.663-1.995,5.989-1.335,12.973-1.335c6.988,0,22.659,0.543,24.956-3.658c2.296-4.193,6.008-13.166,7.492-19.724
					c1.486-6.558,1.154-15.878,2.817-21.859C270.794,333.155,280.776,339.145,280.776,339.145z"/>
				<path fill="#377D5B" d="M136.389,145.512c4.321-12.972,5.321-29.942,34.598-30.605c29.275-0.666,37.929,34.267,46.912,59.882
					c1.102,3.145,2.027,6.113,2.843,8.908c0.845,2.9-43.595,4.013-43.532,1.159c0.055-2.398-0.009-4.551-0.233-6.405
					c-1.329-10.977,2.331-13.975-4.325-14.304c-6.652-0.331-14.635,0.663-21.626-3.99
					C144.038,155.495,136.389,145.512,136.389,145.512z"/>
				<path fill="#010101" d="M160.341,133.206c0,1.833,1.492,3.327,3.328,3.327c1.839,0,3.327-1.493,3.327-3.327
					c0-1.84-1.487-3.33-3.327-3.33C161.833,129.877,160.341,131.367,160.341,133.206z"/>
				<path fill="#9E6638" d="M193.611,186.041c8.406-0.263,21.778,2.129,27.861,0.221c1.574,5.656,2.743,10.547,4.079,14.734
					c-3.022,4.745-0.067,11.816,0,17.359c0.088,7.985,0.912,25.708-4.079,34.027c-4.991,8.319-10.24,22.561-12.47,30.211
					c-1.707,5.862-9.027,14.369-10.591,22.88c-1.69-1.585-3.306-3.222-4.8-4.924c-19.295-21.958-21.623-46.898-20.625-68.363
					c0.775-16.684,3.55-33.233,4.127-44.951C180.497,188.098,186.614,186.262,193.611,186.041z"/>
				<path fill="#F3F3F3" d="M219.97,181.126c0.543,1.774,1.041,3.491,1.502,5.136c-6.083,1.908-19.455,2.574-27.861,2.837
					c-6.997,0.221-13.114-1-16.499-1.863c0.087-1.723,0.122-3.341,0.1-4.843c5.182,0.603,15.477,0.857,22.056,1.386
					C205.766,184.297,214.842,182.756,219.97,181.126z"/>
				<path fill="#CDCCCC" d="M199.165,279.589c2.231-7.651,9.417-24.284,14.408-32.603c4.991-8.319,5.989-23.289,5.901-31.274
					c-0.067-5.542,3.055-9.971,6.077-14.716c3.013,9.418,6.891,15.197,18.296,17.711c19.631,4.324,41.92-3.329,93.153,24.287
					c8.609,4.634,16.284,9.004,23.176,13.089c0.627,2.637,26.407,66.437,39.988,70.441c-8.406,4.02-45.874,16.944-53.847,16.609
					c-7.985-0.329-23.621,5.99-30.608,6.325c-6.982,0.331-21.292-3.998-26.283-4.99c-4.989-1.001-5.396-2.959-13.307-1.663
					c-7.909,1.296-13.307-4.661-19.628-6.322c-5.834-1.538-37.983-12.136-58.08-31.009
					C199.974,296.962,197.458,285.451,199.165,279.589z"/>
				<path fill="#F3F3F3" d="M238.858,229.021c8.982-4.327,31.271-2.661,46.576,0c15.304,2.661,63.88,28.614,72.528,31.937
					c8.648,3.327,37.262,35.933,38.259,39.591c0.997,3.661-36.93,1.666-48.908,0c-11.975-1.666-27.963-19.679-44.578-29.608
					c-4.451-2.664-48.243-19.631-62.038-24.29C226.9,241.996,229.875,233.345,238.858,229.021z"/>
				<path fill="#010101" d="M309.389,298.551c-7.651-2.323-7.985-6.319-5.659-7.982c2.329-1.663-4.915-6.987-4.323-13.972
					c0.258-3.058,0.543-5.223,1.065-6.773c1.067,0.484,1.839,0.866,2.263,1.117c10.801,6.456,21.339,16.331,30.68,22.901l0,0
					C326.691,298.883,317.04,300.88,309.389,298.551z"/>
				<path fill="#010101" d="M363.547,301.988c15.161,0.914,33.368,1.111,32.675-1.439c-0.851-3.106-21.599-27.076-33.141-36.276
					c-1.144-2.673-2.279-5.554-2.906-8.191c34.168,20.231,48.758,33.326,57.337,35.816c10.317,2.995,33.938,10.983,30.943,13.641
					c-2.998,2.661-2.998,7.654-15.304,10.314c-12.312,2.661-24.621,6.656-32.935,10.646c-0.021,0.009-0.039,0.015-0.054,0.024
					C386.582,322.518,370.113,313.769,363.547,301.988z"/>
				<path fill="#F3F3F3" d="M438.476,309.2c-10.625-0.964-28.61-3.327-37.264-3.327c-8.651,0-28.184-2.368-30.608,0
					c-2.428,2.371,4.327,4.327,13.644,6.319c9.314,1.995,32.296,3.751,37.925,4.327C427.8,317.095,449.417,310.194,438.476,309.2z"
					/>
				<path fill="#F79421" d="M145.37,139.86c1.807,1.081-1.665,8.316,0,11.309c1.665,2.998,7.309,2.986,7.653,6.656
					c0.342,3.67-2.556,3.99-8.267,6.322c-5.707,2.326-14.025,9.98-23.673,10.643c-9.645,0.669-13.308-3.658-5.656-8.316
					c7.653-4.658,16.304-12.306,18.631-16.633c2.331-4.327,2.331-4.327,2.331-4.327s3.658,0,4.988-1.995
					C142.708,141.52,143.706,138.862,145.37,139.86z"/>
				<path fill="#010101" d="M136.934,153.951c-0.57,1.511-0.43,2.971,0.309,3.252c0.742,0.281,1.808-0.726,2.378-2.237
					c0.575-1.52,0.438-2.977-0.303-3.255C138.58,151.431,137.509,152.431,136.934,153.951z"/>
			</g>
			<path opacity="0.2" fill="#010101" d="M425.62,294.424c-41.311,21.769-89.812,35.108-135.84,25.278
				c-1.056,0.182-2.217,0.14-3.488-0.239c-21.336-6.373-41.648-6.035-59.943-20.315c-1.529-1.194-2.314-2.568-2.562-3.963
				c-2.02-1.613-4.01-3.288-5.91-5.089c-14.42-9.496-28.046-18.974-27.282-39.859c0.502-13.725,12.808-23.104,18.44-34.592
				c8.111-16.544,9.503-33.631,4.645-51.357c-0.255-0.931-0.303-1.792-0.254-2.61c-6.435-18.729-14.31-38.375-30.271-44.691
				c8.777,8.917,12.327,21.22,1.425,31.424c-9.847,9.218-25.556,9.627-38.529,4.443c-9.147,11.156-22.716,20.016-34.65,18.962
				c0.529,2.06,4.09,3.359,9.683,2.971c9.648-0.663,17.966-8.316,23.673-10.643c3.621-1.478,6.102-2.153,7.352-3.38
				c6.726,3.885,14.229,3.067,20.542,3.38c6.656,0.328,2.997,3.327,4.325,14.304c0.194,1.61,0.25,3.479,0.23,5.504
				c-0.01,1.051-0.036,2.132-0.094,3.282c-0.576,11.718-3.352,28.267-4.127,44.951c-0.997,21.465,1.33,46.405,20.625,68.363
				c1.494,1.702,3.11,3.339,4.8,4.924c20.097,18.873,52.246,29.471,58.08,31.009c2.498,0.657,4.863,1.968,7.286,3.246
				c2.873-0.084,5.593,1.377,6.517,4.853c1.051,0.974,1.872,2.246,2.468,3.7c4.22,10.281-2.359,21.22-5.926,31.041
				c-0.254,1.604-0.793,3.136-1.725,4.664c-2.785,4.569-8.526,4.434-11.828,1.625c-0.361,0.137-0.739,0.266-1.149,0.361
				c-6.35,1.49-13.735,0.045-20.417,0.508c-1.71,0.544-3.454,1.081-5.236,1.571c1.832,0.233,3.394,0.331,3.394,0.331
				s0,0-5.322,0.335c-0.631,0.039-1.193,0.105-1.704,0.188c-0.182,0.036-0.346,0.093-0.53,0.125c-0.02,0.003-0.038,0-0.058,0.003
				c-3.221,0.705-3.577,2.347-1.369,4.008c2.661,1.995,36.261-2.995,38.259-4.324c1.996-1.332,4.327,0.331,7.162,0
				c2.846-0.335,3.816-3.33,5.482-5.85c1.662-2.517,3.991,1.189,6.653,2.52c2.658,1.332,2.658-1,0.997-2.52
				c-0.488-0.448-1.066-1.541-1.675-2.888c5.622-0.932,10.721-2.001,12.321-3.103c3.658-2.517,4.99-3.464,8.318-3.798
				c3.328-0.334,2.328,5.99,5.108,2.995c2.783-2.995-2.115-7.654-2.78-11.978c-0.526-3.407,1.232-9.108,3.625-16.078
				c4.249,0.902,8.436,1.577,11.345,1.439c6.987-0.334,22.623-6.653,30.608-6.325c7.973,0.334,45.441-12.59,53.847-16.609
				c0.015-0.009,0.033-0.015,0.054-0.024c8.313-3.99,20.622-7.985,32.935-10.646c12.306-2.661,12.306-7.654,15.304-10.314
				C450.809,303.451,436.765,298.088,425.62,294.424z M297.989,355.405c-0.357,1.377-0.784,2.789-1.256,4.202v1.92
				c0.188,0.4,0.364,0.815,0.491,1.278c0.962,3.5-1.045,8.281-4.827,9.254c-0.03,0.018-0.06,0.039-0.09,0.057
				c-1.13,0.69-2.429,0.988-3.731,1c-0.56,0.484-1.126,0.965-1.745,1.38c-2.499,1.684-5.781,1.272-8.176-0.364
				c-0.999,0.173-2.017,0.343-3.056,0.511c-0.76-1.965-1.48-3.802-2.053-4.892c-1.578-2.995,1.575-9.314,3.57-14.304
				c1.641-4.094,2.59-8.239,3.25-13.064c4.049-0.054,5.167,1.305,9.059,2.084c1.351,0.269,3.397,0.785,5.783,1.382
				c-0.111,0.46-0.232,0.956-0.35,1.439C297.331,348.874,298.944,351.723,297.989,355.405z"/>
			<path opacity="0.2" fill="#010101" d="M388.445,290.181c-0.648-0.764-1.332-1.556-2.034-2.362
				C387.113,288.625,387.797,289.417,388.445,290.181z"/>
			<path opacity="0.2" fill="#010101" d="M384.799,285.985c-0.448-0.508-0.89-1.006-1.35-1.52
				C383.909,284.979,384.351,285.478,384.799,285.985z"/>
			<path opacity="0.2" fill="#010101" d="M381.983,282.844c-0.448-0.493-0.896-0.985-1.353-1.481
				C381.087,281.858,381.535,282.351,381.983,282.844z"/>
			<path opacity="0.2" fill="#010101" d="M379.105,279.717c-0.46-0.493-0.923-0.982-1.386-1.472
				C378.185,278.738,378.642,279.225,379.105,279.717z"/>
			<path opacity="0.2" fill="#010101" d="M376.163,276.615c-0.469-0.49-0.935-0.967-1.404-1.445
				C375.228,275.647,375.694,276.125,376.163,276.615z"/>
			<path opacity="0.2" fill="#010101" d="M373.219,273.602c-0.499-0.502-0.988-0.983-1.481-1.469
				C372.231,272.619,372.72,273.1,373.219,273.602z"/>
			<path opacity="0.2" fill="#010101" d="M363.848,264.912c-0.11-0.09-0.212-0.167-0.319-0.254c0-0.006-0.003-0.012-0.006-0.015
				C363.63,264.727,363.741,264.825,363.848,264.912z"/>
			<path opacity="0.2" fill="#010101" d="M369.552,270.015c-0.618-0.588-1.236-1.179-1.833-1.729
				C368.316,268.836,368.934,269.427,369.552,270.015z"/>
			<path opacity="0.2" fill="#010101" d="M366.416,267.121c-0.451-0.403-0.902-0.809-1.338-1.182
				C365.515,266.312,365.965,266.718,366.416,267.121z"/>
		</g>
		<g>
			<g>
				<path fill="#F79421" d="M176.59,373.686c-1.631,4.723-3.098,8.633-2.771,10.752c0.326,2.118,2.725,4.399,1.362,5.866
					c-1.362,1.467-0.872-1.631-2.502-1.467c-1.63,0.164-2.282,0.628-4.074,1.86c-1.792,1.236-12.546,2.377-14.827,2.865
					c-2.28,0.49-4.563-1.792-6.355-1.303c-1.792,0.487-5.214-0.978-0.977-1.629c4.235-0.651,6.202,0.325,10.513-0.326
					c4.314-0.654,10.994-1.631,11.157-2.283c0.162-0.649-0.978-1.139,0.326-3.583c1.303-2.444,3.422-12.219,3.422-12.219
					L176.59,373.686z"/>
				<path fill="#F79421" d="M164.042,372.219c-0.325,3.092-0.813,5.54-1.792,7.984c-0.977,2.444-2.521,5.539-1.748,7.005
					c0.771,1.466,2.076,5.678,2.89,6.423c0.813,0.744,0.813,1.887-0.489,1.234c-1.304-0.652-2.445-2.467-3.258-1.234
					c-0.816,1.234-1.291,2.701-2.685,2.865c-1.389,0.162-2.53-0.652-3.508,0c-0.978,0.651-17.435,3.095-18.738,2.118
					c-1.302-0.979-0.815-1.955,1.793-2.118c2.606-0.164,2.606-0.164,2.606-0.164s-5.215-0.326-4.399-1.303
					c0.815-0.977,2.933-0.654,6.354-0.654c3.422,0,11.098,0.266,12.222-1.792c1.125-2.053,2.942-6.448,3.669-9.66
					c0.728-3.212,0.565-7.776,1.38-10.705C159.154,369.285,164.042,372.219,164.042,372.219z"/>
				<path fill="#377D5B" d="M93.328,277.386c2.116-6.353,2.606-14.665,16.944-14.989c14.338-0.326,18.576,16.782,22.975,29.328
					c0.54,1.54,0.993,2.994,1.392,4.363c0.414,1.42-21.351,1.966-21.32,0.567c0.027-1.174-0.004-2.229-0.114-3.137
					c-0.651-5.376,1.141-6.845-2.118-7.005c-3.258-0.162-7.168,0.325-10.592-1.954C97.074,282.275,93.328,277.386,93.328,277.386z"
					/>
				<circle fill="#010101" cx="106.688" cy="271.359" r="1.63"/>
				<path fill="#9E6638" d="M121.352,297.235c4.117-0.129,10.666,1.043,13.645,0.108c0.771,2.77,1.343,5.166,1.998,7.216
					c-1.48,2.324-0.033,5.787,0,8.502c0.043,3.911,0.447,12.591-1.998,16.665c-2.445,4.075-5.015,11.049-6.107,14.796
					c-0.836,2.871-4.421,7.038-5.187,11.206c-0.828-0.776-1.619-1.578-2.351-2.412c-9.45-10.754-10.59-22.969-10.101-33.481
					c0.379-8.171,1.739-16.276,2.021-22.015C114.93,298.243,117.926,297.343,121.352,297.235z"/>
				<path fill="#F3F3F3" d="M134.262,294.828c0.266,0.869,0.51,1.71,0.736,2.516c-2.979,0.935-9.528,1.261-13.645,1.389
					c-3.427,0.108-6.423-0.49-8.08-0.913c0.042-0.844,0.06-1.636,0.049-2.372c2.538,0.295,7.58,0.42,10.802,0.679
					C127.305,296.381,131.751,295.626,134.262,294.828z"/>
				<path fill="#CDCCCC" d="M124.073,343.051c1.092-3.747,4.612-11.893,7.057-15.968c2.445-4.075,2.933-11.406,2.89-15.317
					c-0.033-2.714,1.496-4.883,2.976-7.207c1.476,4.613,3.375,7.443,8.961,8.674c9.614,2.118,20.531-1.631,45.622,11.895
					c4.216,2.27,7.975,4.41,11.35,6.41c0.307,1.291,12.933,32.538,19.584,34.499c-4.117,1.969-22.467,8.298-26.372,8.135
					c-3.911-0.161-11.568,2.934-14.991,3.098c-3.419,0.162-10.428-1.958-12.872-2.444c-2.443-0.49-2.643-1.449-6.517-0.815
					c-3.873,0.635-6.517-2.283-9.613-3.096c-2.857-0.753-18.602-5.944-28.445-15.187
					C124.469,351.56,123.237,345.922,124.073,343.051z"/>
				<path fill="#F3F3F3" d="M143.513,318.285c4.399-2.119,15.315-1.303,22.811,0c7.495,1.303,31.286,14.014,35.521,15.641
					c4.236,1.629,18.249,17.598,18.738,19.39c0.488,1.793-18.087,0.816-23.953,0c-5.865-0.816-13.695-9.638-21.832-14.501
					c-2.18-1.305-23.628-9.615-30.384-11.896C137.656,324.639,139.113,320.402,143.513,318.285z"/>
				<path fill="#010101" d="M178.056,352.338c-3.747-1.138-3.911-3.095-2.771-3.909c1.141-0.815-2.407-3.422-2.117-6.843
					c0.127-1.498,0.266-2.558,0.521-3.317c0.523,0.237,0.901,0.424,1.109,0.547c5.29,3.162,10.451,7.998,15.026,11.216l0,0
					C186.529,352.5,181.803,353.478,178.056,352.338z"/>
				<path fill="#010101" d="M204.58,354.021c7.425,0.447,16.342,0.544,16.003-0.705c-0.417-1.521-10.578-13.261-16.231-17.767
					c-0.56-1.309-1.116-2.72-1.423-4.012c16.734,9.908,23.88,16.322,28.081,17.541c5.053,1.467,16.621,5.379,15.155,6.681
					c-1.468,1.303-1.468,3.749-7.495,5.052c-6.03,1.303-12.058,3.26-16.13,5.214c-0.01,0.004-0.019,0.007-0.026,0.012
					C215.861,364.076,207.796,359.791,204.58,354.021z"/>
				<path fill="#F3F3F3" d="M241.277,357.553c-5.204-0.472-14.012-1.629-18.251-1.629c-4.237,0-13.803-1.16-14.991,0
					c-1.189,1.161,2.119,2.119,6.682,3.095c4.562,0.977,15.817,1.837,18.574,2.119C236.048,361.42,246.635,358.04,241.277,357.553z"
					/>
				<path fill="#F79421" d="M97.726,274.617c0.885,0.529-0.815,4.073,0,5.538c0.815,1.468,3.579,1.463,3.748,3.26
					c0.167,1.797-1.252,1.954-4.049,3.096c-2.795,1.139-6.869,4.888-11.594,5.212c-4.724,0.328-6.518-1.792-2.77-4.073
					c3.748-2.281,7.985-6.027,9.125-8.146c1.141-2.119,1.141-2.119,1.141-2.119s1.792,0,2.443-0.977
					C96.422,275.431,96.911,274.129,97.726,274.617z"/>
				
					<ellipse transform="matrix(-0.9355 -0.3534 0.3534 -0.9355 82.8553 578.6624)" fill="#010101" cx="94.253" cy="281.767" rx="0.704" ry="1.436"/>
			</g>
			<path opacity="0.2" fill="#010101" d="M234.981,350.317c-20.232,10.662-43.986,17.195-66.529,12.38
				c-0.517,0.089-1.086,0.069-1.708-0.117c-10.45-3.121-20.398-2.956-29.358-9.949c-0.749-0.585-1.133-1.258-1.255-1.941
				c-0.989-0.79-1.964-1.61-2.894-2.492c-7.062-4.651-13.736-9.293-13.361-19.521c0.246-6.722,6.273-11.315,9.031-16.942
				c3.972-8.102,4.654-16.471,2.275-25.152c-0.125-0.456-0.149-0.877-0.124-1.278c-3.152-9.173-7.008-18.795-14.825-21.888
				c4.298,4.367,6.037,10.392,0.698,15.39c-4.823,4.515-12.516,4.715-18.87,2.176c-4.48,5.464-11.125,9.803-16.97,9.287
				c0.259,1.009,2.003,1.645,4.742,1.455c4.725-0.325,8.799-4.073,11.594-5.212c1.773-0.724,2.989-1.054,3.601-1.656
				c3.294,1.903,6.969,1.502,10.061,1.656c3.26,0.161,1.468,1.629,2.118,7.005c0.095,0.788,0.122,1.704,0.113,2.695
				c-0.005,0.515-0.018,1.044-0.046,1.607c-0.282,5.739-1.642,13.844-2.021,22.015c-0.489,10.513,0.651,22.727,10.101,33.481
				c0.732,0.834,1.523,1.635,2.351,2.412c9.843,9.243,25.588,14.433,28.445,15.187c1.223,0.322,2.382,0.964,3.568,1.59
				c1.407-0.041,2.739,0.674,3.192,2.377c0.515,0.477,0.917,1.1,1.209,1.812c2.067,5.035-1.155,10.392-2.902,15.203
				c-0.124,0.785-0.388,1.536-0.845,2.284c-1.364,2.238-4.175,2.172-5.793,0.796c-0.177,0.067-0.362,0.13-0.563,0.177
				c-3.11,0.73-6.727,0.022-9.999,0.249c-0.837,0.266-1.691,0.53-2.564,0.769c0.897,0.114,1.662,0.162,1.662,0.162s0,0-2.606,0.164
				c-0.309,0.019-0.584,0.051-0.834,0.092c-0.089,0.018-0.17,0.045-0.26,0.061c-0.01,0.001-0.018,0-0.029,0.001
				c-1.577,0.345-1.752,1.15-0.67,1.963c1.303,0.977,17.759-1.467,18.738-2.118c0.978-0.652,2.119,0.162,3.508,0
				c1.394-0.164,1.869-1.631,2.685-2.865c0.814-1.233,1.955,0.582,3.258,1.234c1.302,0.652,1.302-0.49,0.489-1.234
				c-0.239-0.219-0.522-0.755-0.821-1.414c2.753-0.456,5.25-0.98,6.034-1.52c1.792-1.233,2.444-1.696,4.074-1.86
				c1.63-0.164,1.14,2.934,2.502,1.467c1.363-1.467-1.036-3.748-1.362-5.866c-0.257-1.669,0.603-4.461,1.775-7.874
				c2.081,0.442,4.132,0.772,5.556,0.705c3.422-0.164,11.08-3.258,14.991-3.098c3.905,0.164,22.255-6.166,26.372-8.135
				c0.007-0.004,0.016-0.007,0.026-0.012c4.072-1.954,10.1-3.911,16.13-5.214c6.027-1.303,6.027-3.749,7.495-5.052
				C247.317,354.738,240.439,352.111,234.981,350.317z M172.473,380.182c-0.175,0.674-0.384,1.366-0.615,2.058v0.94
				c0.092,0.196,0.178,0.399,0.241,0.626c0.471,1.714-0.512,4.056-2.364,4.532c-0.015,0.009-0.029,0.019-0.044,0.028
				c-0.554,0.338-1.19,0.484-1.827,0.49c-0.274,0.237-0.551,0.473-0.855,0.676c-1.224,0.825-2.831,0.623-4.004-0.178
				c-0.489,0.085-0.988,0.168-1.497,0.25c-0.372-0.962-0.725-1.862-1.005-2.396c-0.773-1.467,0.771-4.562,1.748-7.005
				c0.804-2.005,1.269-4.035,1.592-6.398c1.983-0.026,2.531,0.639,4.436,1.021c0.662,0.132,1.664,0.385,2.832,0.677
				c-0.054,0.225-0.113,0.468-0.171,0.705C172.15,376.984,172.94,378.379,172.473,380.182z"/>
			<path opacity="0.2" fill="#010101" d="M216.774,348.238c-0.317-0.374-0.652-0.762-0.996-1.157
				C216.122,347.476,216.457,347.864,216.774,348.238z"/>
			<path opacity="0.2" fill="#010101" d="M214.988,346.184c-0.219-0.249-0.436-0.493-0.661-0.744
				C214.553,345.691,214.769,345.935,214.988,346.184z"/>
			<path opacity="0.2" fill="#010101" d="M213.609,344.645c-0.219-0.241-0.439-0.483-0.663-0.725
				C213.17,344.162,213.39,344.404,213.609,344.645z"/>
			<path opacity="0.2" fill="#010101" d="M212.199,343.114c-0.225-0.241-0.452-0.481-0.679-0.721
				C211.749,342.634,211.973,342.872,212.199,343.114z"/>
			<path opacity="0.2" fill="#010101" d="M210.759,341.594c-0.23-0.24-0.458-0.474-0.687-0.708
				C210.301,341.12,210.529,341.354,210.759,341.594z"/>
			<path opacity="0.2" fill="#010101" d="M209.317,340.118c-0.244-0.246-0.484-0.481-0.725-0.72
				C208.833,339.637,209.072,339.873,209.317,340.118z"/>
			<path opacity="0.2" fill="#010101" d="M204.727,335.863c-0.054-0.044-0.104-0.082-0.156-0.124c0-0.003-0.001-0.006-0.003-0.007
				C204.621,335.772,204.675,335.82,204.727,335.863z"/>
			<path opacity="0.2" fill="#010101" d="M207.521,338.362c-0.303-0.288-0.605-0.578-0.898-0.847
				C206.915,337.784,207.218,338.074,207.521,338.362z"/>
			<path opacity="0.2" fill="#010101" d="M205.985,336.945c-0.221-0.197-0.442-0.396-0.655-0.579
				C205.544,336.549,205.764,336.747,205.985,336.945z"/>
		</g>
	</g>
</g>
</svg>
