<?xml version="1.0" encoding="utf-8"?>
<!-- Generator: Adobe Illustrator 17.0.0, SVG Export Plug-In . SVG Version: 6.00 Build 0)  -->
<!DOCTYPE svg PUBLIC "-//W3C//DTD SVG 1.1//EN" "http://www.w3.org/Graphics/SVG/1.1/DTD/svg11.dtd">
<svg version="1.1" id="Layer_1" xmlns="http://www.w3.org/2000/svg" xmlns:xlink="http://www.w3.org/1999/xlink" x="0px" y="0px"
	 width="512px" height="512px" viewBox="0 0 512 512" enable-background="new 0 0 512 512" xml:space="preserve">
<g>
	<path fill="#FED401" d="M256,31C131.747,31,31,131.747,31,256s100.747,225,225,225s225-100.747,225-225S380.253,31,256,31z"/>
	<g>
		<path fill-rule="evenodd" clip-rule="evenodd" fill="#97C03D" d="M247.713,283.774c-6.457,12.691-15.559,28.808-21.043,32.146
			c-8.492,5.169-26.216,2.031-29.724,0.738c-5.114-1.884-19.608-2.25-23.631,0.738c-2.861,2.125-7.753,2.862-10.708,1.016
			c-2.953-1.846-4.615-5.631-1.846-7.477c2.769-1.846,15.785-0.277,20.954-1.385c5.169-1.107,19.846-2.677,17.631-3.969
			c-2.216-1.292-24.369-7.938-31.847-8.492c-7.477-0.554-6,0.923-9.6,0.646c-3.6-0.277-7.015-2.215-6.461-4.154
			c1.941-6.794,9.747-2.209,14.308-1.846c8.123,0.647,24.277,3.6,31.477,4.524c7.2,0.923,7.292-0.278,6.092-0.923
			c-0.889-0.478-8.581-4.443-14.048-6.793c-1.917-0.824-3.992-0.574-4.75-0.82c-3.692-1.2-3.726-3.741-2.711-4.941
			c2.309-2.729,6.775,0.051,9.046,1.477c3.969,2.492,13.641,9.811,25.457,10.18c9.871,0.309,14.308-25.835,12.193-36.137
			l0.003,0.001C232.838,260.586,242.086,271.503,247.713,283.774z"/>
		<path fill-rule="evenodd" clip-rule="evenodd" fill="#97C03D" d="M412.025,336.323c-3.6,2.215-10.339,7.938-22.523,10.153
			c-12.185,2.216-21.047,4.247-23.077,2.585c-2.031-1.662,0.647-4.246,3.877-4.246c3.231,0,10.985,0.369,21.047-2.401
			c10.062-2.769,16.246-7.846,18.093-8.123C411.287,334.015,412.025,336.323,412.025,336.323z"/>
		<path fill-rule="evenodd" clip-rule="evenodd" fill="#A5CD39" d="M222.608,348.507c-3.508-3.507-7.292-9.323-10.246-14.308
			c-2.954-4.984-1.107-7.107-3.693-7.384c-2.585-0.277-4.154,1.569-3.785,2.954c0.37,1.385,1.2,2.308,3.047,4.893
			c1.846,2.585,7.662,14.861,9.6,16.615C219.469,353.031,222.608,348.507,222.608,348.507z"/>
		<path fill-rule="evenodd" clip-rule="evenodd" fill="#99C13C" d="M341.328,278.417c-0.17,4.142-0.501,7.727-1.03,10.347
			c-2.894,14.299-5.231,22.856-5.658,23.894c-0.428,1.039-4.137,8.144-5.814,13.821c-0.875,2.96-6.057,8.83-4.938,12.872
			c1.022,3.688-2.528,6.162-3.385,6.53c-2.205,0.947-6.628-0.002-5.377-4.64c1.251-4.638,7.49-20.729,5.084-20.143
			c-2.407,0.585-21.122,5.352-30.486,7.375c-9.364,2.024-15.206,8.558-18.205,10.079c-3,1.522-11.026-1.068-9.857-5.346
			c1.168-4.278,5.911-3.89,8.261-5.057c2.35-1.166,24.01-6.436,22.93-6.683c-0.75-0.172-14.102-0.092-20.904,2.561
			c-2.165,0.845-7.237,0.622-8.206-0.322c-3.174-3.094-0.119-4.857,3.711-5.874c3.832-1.017,29.39-0.565,36.647-4.965
			c7.257-4.399,16.016-12.054,16.404-19.541c0.119-2.283,0.151-4.886,0.139-7.401C325.182,284.438,333.597,281.215,341.328,278.417z
			"/>
		<path fill-rule="evenodd" clip-rule="evenodd" fill="#99C13C" d="M323.71,234.582c15.015-2.943,35.142-15.578,43.266-5.608
			c8.123,9.969,1.555,43.306-14.031,46.154C337.358,277.974,323.71,234.582,323.71,234.582z"/>
		<path fill-rule="evenodd" clip-rule="evenodd" fill="#A3BD3A" d="M184.818,281.231c-7.754-5.723-12.738-13.846-20.677-19.939
			c-6.738-5.171-34.628-22.448-51.938-36.473c-3.082-2.498-5.83-4.892-8.062-7.096c-14.769-14.585-9.6-18.093-10.892-20.862
			c-1.293-2.769-1.293-15.323,5.908-20.308c7.2-4.985,12-6.646,18.277-8.492c6.277-1.846,11.446-3.508,11.446-3.508
			c8.785-18.674,45.274-4.29,45.97,7.569c0,0,18.462,12.369,30.832,14.769c12.369,2.4,12.923,8.492,31.939,10.892
			c19.015,2.4,36.185-4.061,52.8,4.615c16.615,8.677,34.893,21.231,51.693,28.8c16.801,7.569,21.231,16.8,21.231,21.601
			c0,4.8-3.323,13.292-1.477,18.092c1.846,4.8,4.061,9.046,4.061,9.046s14.216-28.062,19.385-31.754
			c5.169-3.692,16.616-3.692,20.493,1.846c3.877,5.539,16.431,46.708,16.8,61.293c0.369,14.585,0,23.446-0.185,24.554
			c-0.185,1.107-2.215,8.861-2.584,14.769c-0.193,3.081-3.935,9.958-1.942,13.649c1.819,3.367-1.09,6.571-1.843,7.12
			c-1.939,1.415-6.461,1.477-6.277-3.323c0.185-4.8,2.677-21.877,0.461-20.769c-2.215,1.107-19.385,11.63-28.062,15.692
			c-8.677,4.062-10.893,9.416-15.508,12.185c-4.615,2.77-10.985,1.419-10.801-3.012c0.185-4.431,4.893-5.111,6.924-6.773
			c2.031-1.661,21.969-11.63,20.862-11.63c-0.77,0-13.894,2.092-19.932,6.195c-1.923,1.306-6.79,3.186-7.945,2.482
			c-3.785-2.307-1.2-4.707,2.308-6.554c3.508-1.846,28.523-7.108,34.616-13.016c6.092-5.908,12.923-15.323,11.631-22.708
			c-1.293-7.385-4.246-17.908-4.246-17.908s-17.354,38.216-22.339,43.016c-4.985,4.8-18.461,12.369-31.57,0.554
			c-13.107-11.816-20.861-26.217-23.63-30.093c-2.769-3.877-5.354-6.462-5.354-6.462s-24.185,5.539-41.538,3.139
			c-17.354-2.4-21.231-4.431-21.231-4.431s0.923,5.723-1.661,12c-2.585,6.277-19.754,42.093-28.247,47.262
			c-8.492,5.169-26.215,2.031-29.723,0.738c-5.114-1.884-19.608-2.25-23.631,0.738c-2.861,2.125-7.754,2.862-10.707,1.016
			c-2.954-1.846-4.615-5.631-1.846-7.477c2.769-1.846,15.785-0.277,20.954-1.385c5.169-1.107,19.846-2.677,17.63-3.969
			c-2.215-1.292-24.369-7.939-31.846-8.492c-7.477-0.554-6,0.923-9.6,0.646c-3.6-0.277-7.015-2.215-6.462-4.154
			c1.941-6.794,9.747-2.209,14.308-1.846c8.123,0.646,24.277,3.599,31.477,4.523c7.2,0.923,7.293-0.277,6.093-0.923
			c-0.889-0.478-8.581-4.443-14.048-6.793c-1.917-0.824-3.992-0.574-4.75-0.82c-3.692-1.2-3.726-3.741-2.71-4.941
			c2.309-2.729,6.774,0.051,9.046,1.477c3.969,2.492,13.641,9.811,25.457,10.18c11.547,0.362,15.661-35.483,10.544-39.812
			c-2.4-2.031-23.446-11.817-30.831-16.432C186.483,284.92,184.818,281.231,184.818,281.231z"/>
		<path fill-rule="evenodd" clip-rule="evenodd" fill="#B8D651" d="M231.539,196.776c1.798,0.38,3.806,0.721,6.081,1.008
			c19.015,2.4,36.185-4.061,52.8,4.615c16.615,8.677,34.893,21.231,51.693,28.8c7.66,3.451,12.747,7.247,16.017,10.812
			c-14.95-3.807-65.181-32.604-74.135-33.03c-15.507-0.739-40.061,4.062-55.2-2.585c-15.138-6.646-25.349-11.002-16.431-12
			C218.246,193.737,222.715,196.036,231.539,196.776z"/>
		<path fill-rule="evenodd" clip-rule="evenodd" fill="#A5CD39" d="M245.556,335.115c-6.457,12.691-15.558,28.808-21.042,32.147
			c-8.492,5.169-26.215,2.031-29.723,0.738c-5.114-1.884-19.608-2.25-23.631,0.738c-2.861,2.125-7.754,2.862-10.707,1.016
			c-2.954-1.846-4.615-5.631-1.846-7.477c2.769-1.846,15.785-0.277,20.954-1.385c5.169-1.107,19.846-2.677,17.63-3.969
			c-2.215-1.292-24.369-7.939-31.846-8.492c-7.477-0.554-6,0.923-9.6,0.646c-3.6-0.277-7.015-2.215-6.462-4.154
			c1.941-6.794,9.747-2.209,14.308-1.846c8.123,0.646,24.277,3.599,31.477,4.523c7.2,0.923,7.293-0.277,6.093-0.923
			c-0.889-0.478-8.581-4.443-14.048-6.793c-1.917-0.824-3.992-0.574-4.75-0.82c-3.692-1.2-3.726-3.741-2.71-4.941
			c2.309-2.729,6.774,0.051,9.046,1.477c3.969,2.492,13.641,9.811,25.457,10.18c9.87,0.309,14.308-25.835,12.193-36.138l0.002,0.001
			C230.681,311.927,239.928,322.844,245.556,335.115z"/>
		<path fill-rule="evenodd" clip-rule="evenodd" fill="#A5CD39" d="M421.303,301.007c0.757,4.076,1.236,7.643,1.304,10.316
			c0.369,14.585,0,23.446-0.185,24.554c-0.185,1.107-2.215,8.861-2.584,14.769c-0.193,3.081-3.935,9.958-1.942,13.649
			c1.819,3.367-1.09,6.571-1.843,7.12c-1.939,1.415-6.461,1.477-6.277-3.323c0.185-4.8,2.677-21.877,0.461-20.769
			c-2.215,1.107-19.385,11.63-28.062,15.692c-8.677,4.062-10.893,9.416-15.508,12.185c-4.615,2.77-10.985,1.419-10.801-3.012
			c0.185-4.431,4.893-5.111,6.924-6.773c2.031-1.661,21.969-11.63,20.862-11.63c-0.77,0-13.894,2.092-19.932,6.195
			c-1.923,1.306-6.79,3.186-7.945,2.482c-3.785-2.307-1.2-4.707,2.308-6.554c3.508-1.846,28.523-7.108,34.616-13.016
			c6.092-5.908,12.923-15.323,11.631-22.708c-0.394-2.253-0.943-4.797-1.516-7.245C406.907,310.478,414.391,305.459,421.303,301.007
			z"/>
		<path fill-rule="evenodd" clip-rule="evenodd" fill="#9EC63B" d="M354.066,359.281c0.499-1.218,2.123-2.376,4.017-3.373
			c2.849-1.5,19.89-5.253,29.452-9.776c-2.079,1.286-3.874,2.259-5.006,2.75c-3.093,1.339-22.335,6.471-25.338,8.308
			C355.907,357.975,354.853,358.703,354.066,359.281L354.066,359.281z M393.61,341.987c1.878-1.411,3.717-2.929,5.303-4.459
			c5.262-5.077,8.677-6.739,7.939-20.954c-0.738-14.215-3.877-36.554-3.138-41.169c0.738-4.615-4.062,22.339-4.062,23.261
			c0,0.923-17.354,35.262-19.384,37.662c-2.031,2.4-11.631,11.631-26.4,5.538c-14.769-6.092-34.709-43.569-34.709-43.569
			s-15.507,8.862-36.37,4.616c-20.861-4.246-43.312-28.981-44.05-30.089c0,0,16.394,25.7,14.259,45.023
			c1.549-5.921,1.423-9.848,1.423-9.848s3.877,2.031,21.231,4.431c17.354,2.4,41.538-3.139,41.538-3.139s2.585,2.585,5.354,6.462
			c2.769,3.877,10.523,18.277,23.63,30.093c13.108,11.815,26.585,4.246,31.57-0.554c4.984-4.8,22.339-43.016,22.339-43.016
			s2.954,10.523,4.246,17.908C405.558,327.203,399.449,336.054,393.61,341.987z"/>
		<path fill-rule="evenodd" clip-rule="evenodd" fill="#9EC63B" d="M184.818,281.231c-7.754-5.723-12.738-13.846-20.677-19.939
			c-2.583-1.982-8.276-5.745-15.288-10.419c7.036,3.284,12.983,5.732,16.333,6.439c13.108,2.77,18.093,2.77,18.093,2.77
			s5.354,12,14.954,23.446c7.858,9.37,21.259,18.895,25.309,21.666c-5.105-3.062-22.99-11.479-29.675-15.658
			C186.483,284.92,184.818,281.231,184.818,281.231L184.818,281.231z M224.713,305.98l-0.014-0.012
			C224.748,306.002,224.75,306.004,224.713,305.98z"/>
		<path fill-rule="evenodd" clip-rule="evenodd" fill="#95BC3E" d="M361.479,264.68c-0.271,2.317-0.271,4.499,0.388,6.212
			c1.846,4.8,4.061,9.046,4.061,9.046s14.216-28.062,19.385-31.754c5.169-3.692,16.616-3.692,20.493,1.846
			c2.664,3.807,9.428,24.448,13.518,41.719c-0.01-0.033-9.567-32.571-13.238-37.479c-3.672-4.911-10.124-8.628-15.507-4.985
			c-5.384,3.644-21.047,29.17-23.816,35.631c-2.769,6.461,0,42.277,0,42.277s-2.954-5.169-3.323-23.631
			c-0.369-18.462-0.739-20.492-0.739-20.492s0.185-17.815-9.415-17.169c-9.6,0.646-26.031,25.662-29.17,27.507
			C327.847,283.112,345.151,256.516,361.479,264.68L361.479,264.68z"/>
		<path fill-rule="evenodd" clip-rule="evenodd" fill="#95BC3E" d="M254.421,308c0,0,0.923,5.723-1.661,12
			c-2.585,6.277-19.754,42.093-28.247,47.262c-8.492,5.169-26.215,2.031-29.723,0.738c-5.114-1.884-19.608-2.25-23.631,0.738
			c-2.786,2.07-7.5,2.822-10.472,1.155c3.349-0.351,7.346-1.798,10.197-3.283c4.431-2.308,9.047-1.661,19.57-1.477
			c10.523,0.185,26.585,1.846,33.231-2.215c6.646-4.061,26.216-45.231,27.139-53.169c0.923-7.939-19.2-45.232-21.047-47.447
			c0,0,7.016,6.185,16.616,22.062C255.993,300.24,254.421,308,254.421,308z"/>
		
			<path fill-rule="evenodd" clip-rule="evenodd" fill="#231F20" stroke="#231F20" stroke-width="0.6266" stroke-miterlimit="2.6131" d="
			M138.482,227.319c6.813,0,12.37-5.432,12.37-12.092c0-6.66-5.557-12.093-12.37-12.093c-6.813,0-12.369,5.432-12.369,12.093
			C126.113,221.886,131.67,227.319,138.482,227.319z"/>
		
			<path fill-rule="evenodd" clip-rule="evenodd" fill="#595A5C" stroke="#231F20" stroke-width="0.6266" stroke-miterlimit="2.6131" d="
			M138.157,222.611c4.499,0,8.168-3.586,8.168-7.985c0-4.398-3.669-7.985-8.168-7.985c-4.499,0-8.167,3.587-8.167,7.985
			C129.99,219.025,133.659,222.611,138.157,222.611z"/>
		<path fill-rule="evenodd" clip-rule="evenodd" fill="#B8D651" d="M109.343,190.017c5.354,2.77,15.693,2.77,28.062,2.954
			c12.37,0.185,21.969,6.277,24.924,12.554c2.953,6.277,4.246,17.908,4.061,16.984c-0.185-0.923-1.477-14.4-14.955-19.938
			c-13.476-5.539-29.723-1.108-36.923-5.723C107.313,192.232,109.343,190.017,109.343,190.017z"/>
		<path fill-rule="evenodd" clip-rule="evenodd" fill="#B8D651" d="M232.852,235.617c6.646,4.061,12.923,29.538,26.216,38.769
			c13.292,9.231,21.785,1.846,39.139,1.476c17.354-0.369,33.97,3.693,29.539-0.738c-4.431-4.431-29.539-7.385-41.354-23.631
			c-11.815-16.246-25.477-23.261-42.092-24.739C227.682,225.278,232.852,235.617,232.852,235.617z"/>
		<path fill-rule="evenodd" clip-rule="evenodd" fill="#B8D651" d="M134.082,161.77c0,0,8.769-2.954,16.246-0.923
			c7.477,2.031,16.616,8.677,19.478,11.262c2.861,2.584,10.708,6.738,10.246,6.461c-0.461-0.277-4.338-3.692-8.862-9.323
			c-7.059-8.787-23.779-15.284-33.784-9.969C134.452,160.846,134.082,161.77,134.082,161.77z"/>
		<path fill-rule="evenodd" clip-rule="evenodd" fill="#BBBDBF" d="M135.331,215.95c1.805,0,3.277-1.473,3.277-3.277
			c0-1.805-1.473-3.277-3.277-3.277c-1.805,0-3.277,1.472-3.277,3.277C132.054,214.477,133.526,215.95,135.331,215.95z"/>
		<circle fill-rule="evenodd" clip-rule="evenodd" fill="#BBBDBF" cx="137.5" cy="218.719" r="1.408"/>
	</g>
</g>
</svg>
