<?xml version="1.0" encoding="utf-8"?>
<!-- Generator: Adobe Illustrator 17.0.0, SVG Export Plug-In . SVG Version: 6.00 Build 0)  -->
<!DOCTYPE svg PUBLIC "-//W3C//DTD SVG 1.1//EN" "http://www.w3.org/Graphics/SVG/1.1/DTD/svg11.dtd">
<svg version="1.1" id="Layer_1" xmlns="http://www.w3.org/2000/svg" xmlns:xlink="http://www.w3.org/1999/xlink" x="0px" y="0px"
	 width="512px" height="512px" viewBox="0 0 512 512" enable-background="new 0 0 512 512" xml:space="preserve">
<g>
	<path fill="#28A8E0" d="M256,31C131.747,31,31,131.747,31,256s100.747,225,225,225s225-100.747,225-225S380.253,31,256,31z"/>
	<g>
		<g>
			<path fill="#EA7D2F" d="M161.309,392.422c1.076,0.336,3.426,1.485,3.364,2.893c-0.062,1.408-0.938,3.633-0.873,4.508
				c0.065,0.874,0.031,2.079,1.178,1.48c1.147-0.599,1.041-2.355,3.194-2.153c2.153,0.202,6.663,1.455,8.14,3.027
				c1.477,1.573,3.798,1.614,4.346,1.212c0.548-0.402,6.822-9.15,6.62-12.177c-0.202-3.027,0.605-4.978-1.884-3.902
				c-2.489,1.076-6.929,3.027-10.293,2.893C171.737,390.067,161.309,392.422,161.309,392.422z"/>
			<path fill="#F19E3F" d="M184.115,359.322c-0.404,4.541,2.321,17.559,0.807,22.302c-1.514,4.743-4.844,6.963-9.284,7.266
				c-4.44,0.303-9.89,0.807-11.908,1.716c-2.018,0.908-2.422,1.816-2.422,1.816s3.33-0.404,6.257-0.505
				c2.926-0.101,10.55-1.357,10.55-1.357s-10.348,5.798-12.871,7.311c-2.523,1.514-2.321,4.541-2.321,4.541s2.927-1.615,4.238-2.22
				c1.312-0.605,3.835-2.624,8.073-3.835c4.238-1.211,9.995-4.945,10.8-6.559c0,0,0.805,3.027-0.608,5.247
				c-1.413,2.22-4.339,5.449-6.459,7.367c-2.119,1.917-2.22,3.936-2.22,3.936s5.406-4.238,9.515-6.862
				c4.109-2.624,5.622-5.147,5.521-8.275c-0.101-3.128-1.11-7.569-1.11-9.688c0-2.119,0-11.302,1.413-15.339
				c1.413-4.037,0.637-6.261,0.637-6.261S184.336,356.84,184.115,359.322z"/>
		</g>
		<g>
			<defs>
				<path id="SVGID_1_" d="M237.922,343.417c11.013-3.179,13.08-5.04,21.199-7.086c12.534-3.159,12.195-7.522,16.102-11.399
					c3.908-3.877-7.46-6.364-22.025-8.495C238.633,314.305,237.922,343.417,237.922,343.417z"/>
			</defs>
			<clipPath id="SVGID_2_">
				<use xlink:href="#SVGID_1_"  overflow="visible"/>
			</clipPath>
			<path clip-path="url(#SVGID_2_)" fill="#DFE3EE" d="M237.922,343.417c11.013-3.179,13.08-5.04,21.199-7.086
				c12.534-3.159,12.195-7.522,16.102-11.399c3.908-3.877-7.46-6.364-22.025-8.495C238.633,314.305,237.922,343.417,237.922,343.417
				z"/>
			<g opacity="0.15" clip-path="url(#SVGID_2_)">
				<g>
					<g>
						<path fill="#243C71" d="M277.474,331.159c0.03,0.113-1.188,0.505-3.084,1.041c-0.955,0.23-2.087,0.46-3.314,0.717
							c-1.235,0.193-2.57,0.406-3.931,0.558c-2.727,0.264-5.56,0.395-7.866,0.289c-2.311-0.031-4.085-0.288-4.743-0.336
							c-2.617-0.36-3.936-1.014-3.845-1.457c0.096-0.474,1.522-0.573,4.057-0.225c0.64,0.046,2.357,0.345,4.606,0.458
							c2.244,0.189,5.01,0.183,7.697,0.077c1.341-0.073,2.661-0.2,3.891-0.301c1.224-0.157,2.355-0.302,3.319-0.426
							C276.175,331.221,277.445,331.046,277.474,331.159z"/>
					</g>
				</g>
			</g>
			<g opacity="0.15" clip-path="url(#SVGID_2_)">
				<g>
					<g>
						<path fill="#243C71" d="M279.856,326.242c0.028,0.114-1.026,0.456-2.671,0.914c-0.828,0.2-1.808,0.399-2.871,0.621
							c-1.07,0.171-2.225,0.357-3.404,0.494c-4.727,0.565-9.797,0.235-10.927,0.091c-2.273-0.27-3.42-0.86-3.339-1.308
							c0.084-0.473,1.324-0.639,3.521-0.377c1.097,0.138,5.993,0.648,10.649,0.399c1.161-0.059,2.304-0.159,3.368-0.238
							c1.061-0.122,2.042-0.234,2.878-0.33C278.724,326.253,279.828,326.128,279.856,326.242z"/>
					</g>
				</g>
			</g>
			<g opacity="0.15" clip-path="url(#SVGID_2_)">
				<g>
					<g>
						<path fill="#243C71" d="M280.537,318.098c0.051,0.105-0.903,0.65-2.41,1.427c-0.767,0.355-1.685,0.735-2.678,1.154
							c-1.013,0.361-2.107,0.755-3.236,1.096c-2.268,0.645-4.652,1.18-6.627,1.415c-1.968,0.307-3.514,0.322-4.079,0.371
							c-2.277,0.039-3.482-0.405-3.457-0.858c0.025-0.482,1.222-0.8,3.406-0.836c0.546-0.049,2.037-0.014,3.95-0.228
							c1.92-0.143,4.253-0.542,6.503-1.023c1.12-0.259,2.214-0.565,3.235-0.833c1.008-0.32,1.939-0.615,2.733-0.867
							C279.438,318.334,280.486,317.992,280.537,318.098z"/>
					</g>
				</g>
			</g>
		</g>
		<g>
			<defs>
				<path id="SVGID_3_" d="M255.466,316.436c-6.039-1.421-23.446-13.499-45.472-14.21c-22.025-0.71-36.755-12.593-34.814-25.933
					c4.009-27.556,3.915-47.635-0.137-60.86c-4.052-13.224-22.045-13.344-33.134-4.814c-5.887,4.528-7.464,10.449-4.692,18.339
					c2.772,7.89,10.449,6.397,13.861,6.824c3.412,0.426,5.223,6.846,4.063,15.323c-1.56,11.405-9.761,24.584-19.039,45.792
					c-9.947,22.736,0.147,47.994,19.276,59.902c10.043,6.252,23.709,12.213,43.958,15.765s39.077-0.71,50.09-18.118
					S261.505,317.857,255.466,316.436z"/>
			</defs>
			<clipPath id="SVGID_4_">
				<use xlink:href="#SVGID_3_"  overflow="visible"/>
			</clipPath>
			<path clip-path="url(#SVGID_4_)" fill="#E0E8F1" d="M255.466,316.436c-6.039-1.421-23.446-13.499-45.472-14.21
				c-22.025-0.71-36.755-12.593-34.814-25.933c4.009-27.556,3.302-38.007-0.217-51.383c-5.446-20.697-21.965-22.821-33.054-14.291
				c-5.887,4.528-7.464,10.449-4.692,18.339c2.772,7.89,10.449,6.397,13.861,6.824c3.412,0.426,5.223,6.846,4.063,15.323
				c-1.56,11.405-9.761,24.584-19.039,45.792c-9.947,22.736,0.147,47.994,19.276,59.902c10.043,6.252,23.709,12.213,43.958,15.765
				s39.077-0.71,50.09-18.118S261.505,317.857,255.466,316.436z"/>
			<path opacity="0.65" clip-path="url(#SVGID_4_)" fill="#B1C3DB" d="M171.373,293.327c8.35-6.567,23.582-15.596,50.156,0
				c26.574,15.596,39.675,16.843,47.784,16.843c8.11,0-2.475,26.739-26.181,33.246c-23.705,6.507-51.174-10.164-56.788-18.898
				C180.73,315.785,163.966,299.153,171.373,293.327z"/>
		</g>
		<g>
			<defs>
				<path id="SVGID_5_" d="M171.373,293.327c8.35-6.567,23.582-15.596,50.156,0c26.574,15.596,39.675,16.843,47.784,16.843
					c8.11,0-5.614,20.049-29.32,26.556s-48.034-3.474-53.649-12.208C180.73,315.785,163.966,299.153,171.373,293.327z"/>
			</defs>
			<clipPath id="SVGID_6_">
				<use xlink:href="#SVGID_5_"  overflow="visible"/>
			</clipPath>
			<path clip-path="url(#SVGID_6_)" fill="#DFE3EE" d="M171.373,293.327c8.35-6.567,23.582-15.596,50.156,0
				c26.574,15.596,39.675,16.843,47.784,16.843c8.11,0-5.614,20.049-29.32,26.556s-48.034-3.474-53.649-12.208
				C180.73,315.785,163.966,299.153,171.373,293.327z"/>
			<g clip-path="url(#SVGID_6_)">
				<g>
					<path fill="none" stroke="#233C71" stroke-miterlimit="10" d="M170.425,308.301"/>
				</g>
			</g>
			<g clip-path="url(#SVGID_6_)">
				<g>
					<g>
						<g>
							<path fill="#FFFFFF" d="M287.639,367.945c-0.002,0.12-1.98,0.105-5.028,0.007c-1.513-0.152-3.287-0.379-5.213-0.614
								c-0.949-0.195-1.935-0.397-2.943-0.604c-1.002-0.231-2.053-0.375-3.06-0.711c-2.026-0.621-4.131-1.131-6.04-1.94
								c-0.967-0.371-1.915-0.734-2.829-1.085c-0.903-0.376-1.742-0.811-2.552-1.185c-0.806-0.384-1.567-0.747-2.269-1.081
								c-0.697-0.345-1.298-0.729-1.852-1.035c-1.095-0.634-1.914-1.109-2.355-1.364c-0.897-0.49-1.591-1.077-2.215-1.542
								c-0.615-0.48-1.117-0.906-1.504-1.271c-0.774-0.73-1.089-1.214-0.944-1.407c0.145-0.193,0.72-0.059,1.664,0.402
								c0.472,0.231,1.036,0.544,1.686,0.942c0.659,0.383,1.362,0.916,2.237,1.393c0.427,0.255,1.22,0.728,2.281,1.361
								c0.534,0.309,1.114,0.698,1.787,1.049c0.678,0.342,1.412,0.714,2.191,1.107c0.783,0.385,1.592,0.833,2.465,1.225
								c0.884,0.369,1.8,0.751,2.736,1.141c1.847,0.852,3.887,1.416,5.855,2.103c0.978,0.369,2,0.548,2.976,0.817
								c0.982,0.249,1.943,0.492,2.869,0.726c1.883,0.331,3.622,0.637,5.104,0.897C285.675,367.578,287.642,367.824,287.639,367.945
								z"/>
						</g>
					</g>
				</g>
				<g>
					<g>
						<g>
							<path fill="#FFFFFF" d="M286.825,363.022c-0.003,0.12-1.655,0.114-4.208,0.029c-1.264-0.142-2.747-0.351-4.358-0.571
								c-0.791-0.183-1.612-0.373-2.452-0.568c-0.835-0.214-1.713-0.355-2.546-0.669c-1.678-0.579-3.429-1.064-4.995-1.819
								c-0.796-0.347-1.576-0.687-2.329-1.015c-0.739-0.356-1.421-0.757-2.083-1.107c-0.658-0.358-1.279-0.697-1.851-1.008
								c-0.565-0.325-1.048-0.679-1.495-0.964c-0.883-0.59-1.543-1.031-1.898-1.268c-2.736-2.064-3.853-3.583-3.544-3.919
								c0.34-0.378,1.934,0.515,4.568,2.503c0.341,0.235,0.972,0.672,1.818,1.256c0.426,0.286,0.886,0.642,1.425,0.971
								c0.546,0.318,1.138,0.662,1.765,1.026c0.631,0.358,1.282,0.77,1.987,1.14c0.719,0.343,1.465,0.699,2.226,1.063
								c1.497,0.793,3.176,1.328,4.789,1.968c0.8,0.345,1.646,0.52,2.451,0.77c0.811,0.235,1.604,0.465,2.368,0.686
								c1.562,0.314,3.005,0.604,4.234,0.851C285.187,362.664,286.828,362.902,286.825,363.022z"/>
						</g>
					</g>
				</g>
				<g>
					<g>
						<g>
							<path fill="#FFFFFF" d="M303.934,361.229c-0.017,0.119-2.067-0.12-5.209-0.56c-1.559-0.282-3.382-0.655-5.36-1.052
								c-1.951-0.502-4.069-0.997-6.182-1.627c-2.097-0.679-4.262-1.276-6.262-2.072c-1.009-0.375-1.997-0.743-2.95-1.098
								c-0.95-0.364-1.839-0.777-2.694-1.136c-1.708-0.725-3.217-1.382-4.383-1.989c-1.177-0.584-2.058-1.021-2.532-1.256
								c-3.733-2.008-5.483-3.522-5.242-3.917c0.26-0.43,2.384,0.395,6.053,2.369c0.464,0.238,1.326,0.679,2.478,1.268
								c1.138,0.62,2.611,1.297,4.277,2.052c0.834,0.374,1.701,0.804,2.628,1.188c0.93,0.376,1.895,0.766,2.879,1.164
								c1.952,0.845,4.067,1.5,6.117,2.248c2.066,0.698,4.139,1.27,6.05,1.858c1.938,0.491,3.728,0.945,5.254,1.332
								C301.938,360.643,303.951,361.11,303.934,361.229z"/>
						</g>
					</g>
				</g>
				<g>
					<g>
						<g>
							<path fill="#FFFFFF" d="M304.742,352.164c-0.003,0.12-1.627,0.132-4.132,0.077c-1.245-0.096-2.705-0.25-4.291-0.409
								c-1.565-0.275-3.268-0.515-4.966-0.903c-1.685-0.434-3.428-0.783-5.032-1.35c-0.81-0.26-1.604-0.514-2.369-0.76
								c-0.761-0.259-1.472-0.569-2.157-0.831c-0.682-0.271-1.325-0.526-1.919-0.761c-0.592-0.239-1.11-0.514-1.582-0.73
								c-0.937-0.45-1.638-0.786-2.015-0.967c-2.957-1.584-4.283-2.869-4.036-3.259c0.266-0.426,1.967,0.168,4.838,1.707
								c0.365,0.183,1.043,0.521,1.949,0.974c0.456,0.221,0.954,0.503,1.525,0.751c0.572,0.246,1.193,0.513,1.85,0.796
								c0.66,0.276,1.346,0.602,2.08,0.88c0.739,0.266,1.506,0.542,2.289,0.824c1.551,0.615,3.238,1.023,4.873,1.526
								c1.647,0.457,3.304,0.775,4.83,1.139c1.548,0.257,2.978,0.494,4.197,0.696C303.131,351.825,304.745,352.043,304.742,352.164z
								"/>
						</g>
					</g>
				</g>
				<g>
					<g>
						<g>
							<path fill="#FFFFFF" d="M314.027,345.9c0.022,0.089-1.489,0.568-3.903,0.71c-1.206,0.098-2.625,0.024-4.155-0.111
								c-1.523-0.181-3.155-0.461-4.78-0.868c-3.252-0.81-6.481-2.012-9.062-3.064c-2.584-1.053-4.546-1.921-5.271-2.238
								c-2.891-1.288-4.286-2.338-4.09-2.779c0.196-0.441,1.91-0.106,4.801,1.183c0.719,0.326,2.668,1.21,5.188,2.352
								c2.519,1.122,5.636,2.416,8.759,3.354c1.56,0.471,3.123,0.825,4.588,1.092c1.469,0.22,2.839,0.391,4.012,0.399
								C312.462,346,314.001,345.754,314.027,345.9z"/>
						</g>
					</g>
				</g>
				<g>
					<g>
						<g>
							<path fill="#FFFFFF" d="M322.126,333.114c0.041,0.113-1.405,0.678-3.663,1.479c-1.147,0.33-2.513,0.663-3.991,1.04
								c-1.499,0.253-3.116,0.567-4.773,0.745c-1.662,0.104-3.352,0.339-4.982,0.271c-0.815-0.004-1.614-0.009-2.384-0.013
								c-0.77-0.012-1.507-0.113-2.208-0.162c-0.701-0.062-1.361-0.12-1.971-0.173c-0.61-0.052-1.158-0.181-1.651-0.254
								c-0.982-0.171-1.716-0.299-2.111-0.368c-3.136-0.717-4.67-1.615-4.527-2.05c0.154-0.483,1.868-0.352,4.886,0.339
								c0.381,0.073,1.089,0.209,2.036,0.39c0.475,0.082,1.003,0.223,1.592,0.288c0.589,0.069,1.227,0.145,1.904,0.225
								c0.678,0.069,1.391,0.193,2.137,0.231c0.747,0.032,1.522,0.064,2.314,0.098c1.585,0.131,3.232-0.032,4.862-0.053
								c1.624-0.096,3.218-0.319,4.704-0.475c1.471-0.271,2.83-0.522,3.989-0.736C320.568,333.345,322.085,333,322.126,333.114z"/>
						</g>
					</g>
				</g>
			</g>
			<g clip-path="url(#SVGID_6_)">
				<g>
					<g>
						<path fill="#FFFFFF" d="M234.593,344.096c-0.01,0.066-0.815-0.018-2.232-0.22c-0.706-0.114-1.577-0.201-2.557-0.416
							c-0.981-0.216-2.09-0.46-3.304-0.727c-4.823-1.196-11.225-3.393-17.315-6.728c-6.119-3.269-11.923-7.536-16.203-11.507
							c-4.292-3.967-7.147-7.501-8.169-8.814c-1.069-1.282-1.858-2.535-2.562-3.596c-0.716-1.054-1.221-2.005-1.598-2.787
							c-0.766-1.557-1.027-2.433-0.796-2.567c0.231-0.135,0.908,0.492,1.953,1.834c0.517,0.675,1.128,1.528,1.907,2.502
							c0.768,0.981,1.577,2.169,2.62,3.419c0.997,1.28,3.735,4.757,7.864,8.706c4.118,3.952,9.714,8.244,15.645,11.611
							c5.901,3.43,12.136,5.792,16.852,7.199c1.188,0.328,2.273,0.628,3.232,0.892c0.958,0.273,1.812,0.419,2.503,0.595
							C233.82,343.817,234.604,344.03,234.593,344.096z"/>
					</g>
				</g>
			</g>
			<g clip-path="url(#SVGID_6_)">
				<g>
					<g>
						<path fill="#FFFFFF" d="M233.719,339.358c-0.028,0.061-0.68-0.187-1.813-0.675c-1.133-0.487-2.746-1.213-4.694-2.107
							c-1.908-0.971-4.11-2.184-6.512-3.475c-1.179-0.682-2.367-1.451-3.6-2.207c-1.217-0.782-2.513-1.504-3.722-2.376
							c-1.217-0.861-2.444-1.727-3.662-2.589c-0.607-0.435-1.223-0.854-1.814-1.298c-0.578-0.461-1.152-0.92-1.72-1.373
							c-1.136-0.909-2.248-1.799-3.322-2.658c-1.081-0.851-2.023-1.786-2.967-2.61c-1.867-1.674-3.53-3.154-4.742-4.455
							c-1.244-1.269-2.174-2.217-2.675-2.728c-1.021-1.005-1.795-2.013-2.48-2.866c-0.678-0.86-1.226-1.603-1.644-2.22
							c-0.835-1.235-1.147-1.967-0.94-2.135c0.208-0.169,0.894,0.255,1.987,1.252c0.546,0.498,1.194,1.14,1.936,1.923
							c0.749,0.777,1.55,1.733,2.556,2.723c0.488,0.509,1.395,1.452,2.607,2.715c1.175,1.301,2.788,2.785,4.597,4.472
							c0.915,0.831,1.826,1.774,2.873,2.636c1.04,0.872,2.118,1.775,3.218,2.698c0.55,0.462,1.106,0.929,1.665,1.399
							c0.573,0.453,1.17,0.882,1.758,1.328c1.181,0.886,2.37,1.777,3.549,2.662c1.171,0.899,2.43,1.651,3.609,2.466
							c1.196,0.789,2.347,1.594,3.49,2.314c2.326,1.378,4.474,2.651,6.305,3.736c1.883,0.991,3.436,1.823,4.511,2.422
							C233.149,338.93,233.747,339.297,233.719,339.358z"/>
					</g>
				</g>
			</g>
			<g clip-path="url(#SVGID_6_)">
				<g>
					<g>
						<path fill="#FFFFFF" d="M249.253,337.814c-0.023,0.063-0.801-0.18-2.159-0.659c-1.358-0.479-3.295-1.194-5.637-2.074
							c-2.304-0.966-4.976-2.182-7.884-3.472c-1.434-0.686-2.889-1.467-4.394-2.231c-1.49-0.793-3.062-1.516-4.555-2.409
							c-1.501-0.879-3.012-1.765-4.515-2.646c-0.749-0.445-1.506-0.872-2.238-1.327c-0.719-0.476-1.434-0.948-2.142-1.416
							c-1.415-0.937-2.801-1.855-4.137-2.74c-1.344-0.876-2.544-1.854-3.73-2.708c-1.173-0.873-2.28-1.697-3.302-2.456
							c-1.036-0.742-1.892-1.539-2.701-2.186c-1.59-1.329-2.779-2.322-3.419-2.857c-1.3-1.049-2.325-2.118-3.229-3.019
							c-0.896-0.909-1.631-1.695-2.2-2.351c-1.14-1.31-1.62-2.094-1.432-2.284c0.188-0.19,1.009,0.248,2.38,1.295
							c0.686,0.523,1.509,1.199,2.462,2.027c0.96,0.819,2.008,1.835,3.293,2.871c0.628,0.535,1.794,1.527,3.354,2.853
							c0.791,0.649,1.627,1.45,2.64,2.198c0.998,0.767,2.08,1.599,3.226,2.48c1.159,0.865,2.329,1.855,3.642,2.745
							c1.306,0.902,2.659,1.837,4.041,2.792c0.691,0.478,1.389,0.961,2.092,1.448c0.715,0.467,1.455,0.905,2.187,1.363
							c1.468,0.908,2.945,1.822,4.412,2.73c1.458,0.923,2.996,1.68,4.452,2.509c1.472,0.8,2.894,1.62,4.295,2.347
							c2.841,1.383,5.465,2.661,7.701,3.75c2.285,0.982,4.17,1.807,5.479,2.403C248.544,337.386,249.276,337.751,249.253,337.814z"
							/>
					</g>
				</g>
			</g>
			<g clip-path="url(#SVGID_6_)">
				<g>
					<g>
						<path fill="#FFFFFF" d="M261.686,335.647c-0.021,0.063-0.864-0.176-2.338-0.648c-1.474-0.473-3.579-1.179-6.123-2.05
							c-2.506-0.967-5.414-2.194-8.579-3.49c-1.561-0.694-3.147-1.493-4.787-2.27c-1.623-0.81-3.335-1.539-4.963-2.459
							c-1.636-0.905-3.285-1.816-4.923-2.722c-0.816-0.458-1.642-0.896-2.441-1.366c-0.785-0.493-1.565-0.983-2.337-1.468
							c-1.544-0.972-3.056-1.923-4.515-2.842c-1.467-0.907-2.777-1.933-4.072-2.823c-1.281-0.911-2.49-1.771-3.605-2.564
							c-1.131-0.773-2.066-1.614-2.95-2.291c-1.737-1.394-3.036-2.437-3.735-2.999c-1.421-1.099-2.544-2.227-3.535-3.175
							c-0.984-0.957-1.792-1.784-2.421-2.472c-1.259-1.377-1.803-2.196-1.618-2.389c0.185-0.193,1.063,0.275,2.549,1.384
							c0.743,0.555,1.638,1.269,2.676,2.143c1.045,0.865,2.189,1.94,3.594,3.026c0.687,0.561,1.963,1.602,3.668,2.995
							c0.866,0.68,1.78,1.525,2.888,2.304c1.091,0.801,2.274,1.669,3.528,2.589c1.267,0.901,2.548,1.939,3.983,2.861
							c1.428,0.935,2.907,1.905,4.418,2.895c0.755,0.496,1.519,0.997,2.287,1.501c0.782,0.482,1.59,0.932,2.39,1.403
							c1.604,0.934,3.218,1.875,4.821,2.808c1.593,0.951,3.272,1.714,4.862,2.562c1.607,0.814,3.16,1.653,4.69,2.389
							c3.1,1.392,5.963,2.677,8.403,3.772c2.491,0.974,4.547,1.792,5.975,2.382C260.907,335.221,261.707,335.584,261.686,335.647z"
							/>
					</g>
				</g>
			</g>
			<g clip-path="url(#SVGID_6_)">
				<g>
					<g>
						<path fill="#FFFFFF" d="M264.503,325.179c-0.016,0.065-0.805-0.084-2.189-0.397c-1.384-0.314-3.363-0.793-5.758-1.389
							c-2.362-0.699-5.108-1.617-8.096-2.576c-1.475-0.529-2.977-1.161-4.529-1.766c-0.774-0.308-1.557-0.619-2.345-0.932
							c-0.789-0.311-1.587-0.62-2.354-1.005c-1.551-0.734-3.114-1.473-4.667-2.207c-0.774-0.373-1.556-0.724-2.314-1.111
							c-0.745-0.411-1.485-0.82-2.217-1.225c-1.465-0.811-2.899-1.605-4.283-2.372c-1.392-0.755-2.634-1.644-3.863-2.4
							c-1.216-0.778-2.362-1.512-3.42-2.189c-1.074-0.655-1.959-1.398-2.796-1.983c-1.646-1.213-2.877-2.119-3.54-2.608
							c-1.348-0.951-2.408-1.958-3.345-2.799c-0.93-0.85-1.693-1.589-2.286-2.206c-1.188-1.234-1.698-1.983-1.519-2.182
							c0.179-0.199,1.012,0.189,2.416,1.147c0.702,0.479,1.547,1.101,2.527,1.865c0.987,0.755,2.064,1.706,3.393,2.643
							c0.65,0.488,1.855,1.392,3.467,2.603c0.819,0.588,1.681,1.334,2.73,1.995c1.033,0.685,2.153,1.427,3.34,2.214
							c1.2,0.766,2.411,1.668,3.771,2.439c1.352,0.784,2.753,1.597,4.184,2.427c0.715,0.416,1.438,0.836,2.166,1.259
							c0.74,0.399,1.506,0.763,2.262,1.149c1.519,0.764,3.047,1.533,4.564,2.297c0.75,0.402,1.531,0.727,2.304,1.056
							c0.772,0.332,1.538,0.662,2.296,0.988c1.52,0.643,2.99,1.316,4.436,1.889c2.928,1.058,5.632,2.036,7.936,2.869
							c2.347,0.703,4.286,1.297,5.635,1.732C263.76,324.839,264.519,325.114,264.503,325.179z"/>
					</g>
				</g>
			</g>
			<g clip-path="url(#SVGID_6_)">
				<g>
					<g>
						<path fill="#FFFFFF" d="M275.115,318.263c-0.009,0.066-0.827-0.004-2.269-0.181c-1.442-0.177-3.506-0.459-6.006-0.818
							c-2.476-0.476-5.363-1.145-8.501-1.827c-1.554-0.398-3.142-0.906-4.781-1.377c-0.818-0.242-1.644-0.486-2.477-0.732
							c-0.834-0.244-1.676-0.483-2.491-0.811c-1.646-0.613-3.304-1.23-4.952-1.843c-0.822-0.313-1.651-0.601-2.457-0.932
							c-0.794-0.359-1.582-0.715-2.363-1.068c-1.561-0.707-3.09-1.4-4.565-2.068c-0.747-0.315-1.442-0.702-2.126-1.071
							c-0.684-0.368-1.353-0.728-2.004-1.077c-1.301-0.701-2.528-1.362-3.66-1.972c-1.148-0.585-2.101-1.286-2.999-1.822
							c-1.768-1.121-3.089-1.959-3.802-2.411c-1.447-0.872-2.593-1.835-3.607-2.631c-1.006-0.807-1.835-1.509-2.484-2.099
							c-1.297-1.18-1.87-1.906-1.703-2.115c0.167-0.209,1.04,0.136,2.534,1.025c0.747,0.445,1.65,1.025,2.699,1.742
							c1.057,0.705,2.216,1.611,3.641,2.469c0.698,0.451,1.992,1.288,3.724,2.408c0.878,0.539,1.809,1.245,2.931,1.836
							c1.107,0.619,2.306,1.289,3.577,2c0.636,0.356,1.289,0.722,1.958,1.097c0.668,0.377,1.347,0.771,2.079,1.095
							c1.443,0.688,2.939,1.401,4.467,2.129c0.764,0.365,1.536,0.733,2.312,1.105c0.789,0.344,1.601,0.646,2.406,0.973
							c1.615,0.645,3.241,1.295,4.854,1.939c0.799,0.345,1.625,0.603,2.443,0.866c0.817,0.266,1.629,0.53,2.431,0.792
							c1.609,0.512,3.169,1.064,4.696,1.508c3.085,0.775,5.927,1.546,8.366,2.133c2.462,0.469,4.498,0.871,5.917,1.171
							C274.322,317.997,275.123,318.197,275.115,318.263z"/>
					</g>
				</g>
			</g>
			<path opacity="0.31" clip-path="url(#SVGID_6_)" fill="#233C71" d="M166.485,312.749c17.836,0.06,35.02-7.133,48.826-20.438
				c3.933-3.791,7.915-9.166,7.179-16.135c2.622,3.543,5.243,7.085,7.865,10.628c-14.477,17.09-32.781,28.293-52.5,32.133
				c-4.784,0.931-12.654,2.714-17.49-0.838c-1.122-0.824-2.912-3.1-2.065-4.84C159.148,311.517,165.004,312.744,166.485,312.749z"/>
			<path opacity="0.31" clip-path="url(#SVGID_6_)" fill="#233C71" d="M195.686,337.684c0.91-0.169,1.798-0.746,2.545-0.492
				c27.533,9.339,78.856-0.703,93.333-17.794c-2.622-3.542-46.076-21.424-48.698-24.967c0.735,6.97-3.246,12.345-7.179,16.135
				c-12.305,11.859-27.513,21.886-43.302,23.888C193.514,335.472,194.617,336.541,195.686,337.684z"/>
		</g>
		<path fill="#F8C661" d="M149.11,225.054c0.584-3.065-0.788-5.287-2.541-8.003c-1.753-2.716-4.314-4.683-7.044-2.284
			c-2.73,2.399-3.979,4.935-2.876,7.464C137.752,224.76,149.11,225.054,149.11,225.054z"/>
		<g>
			<g>
				<path opacity="0.79" fill="#A28887" d="M158.895,217.816c-0.199,1.729-1.805,2.973-3.587,2.78
					c-1.781-0.194-3.064-1.752-2.865-3.481c0.2-1.729,1.805-2.973,3.587-2.78C157.811,214.529,159.094,216.087,158.895,217.816z"/>
				<path fill="#212121" d="M157.605,217.676c-0.12,1.037-1.084,1.784-2.153,1.668c-1.069-0.116-1.839-1.051-1.719-2.089
					c0.12-1.038,1.084-1.784,2.153-1.668C156.955,215.703,157.725,216.638,157.605,217.676z"/>
				<path fill="#FFFFFF" d="M156.834,216.879c-0.045,0.389-0.406,0.669-0.807,0.625c-0.401-0.043-0.689-0.394-0.644-0.783
					c0.045-0.389,0.406-0.669,0.807-0.625C156.59,216.14,156.879,216.49,156.834,216.879z"/>
			</g>
			<path opacity="0.46" fill="#A28887" d="M152.659,217.465c-0.94,0.294-1.616,0.55-1.128,1.06c0.489,0.511,1.128,0.766,1.729,0.657
				C153.862,219.073,152.659,217.465,152.659,217.465z"/>
		</g>
		<path fill="#F39332" d="M133.75,224.049c0,0-7.705,1.27-6.659,3.1c0.948,1.66,4.542,0.84,7.828,3.128
			c3.286,2.288,5.194,3.482,8.589,3.273c3.395-0.208,6.504-1.317,7.414-4.387c0.909-3.07,0.014-4.85-2.491-5.089
			C145.926,223.835,133.75,224.049,133.75,224.049z"/>
		<path fill="#F8C661" d="M129.032,226.183c-3.778,1.079-6.565-2.822,6.117-4.963c5.722-0.966,6.947-2.13,8.758-2.504
			c1.812-0.373,2.886,2.182,4.379,3.008c1.492,0.826,3.979,2.901,0.851,5.321c-3.128,2.42-10.632-0.264-13.675-0.733
			C132.419,225.844,129.032,226.183,129.032,226.183z"/>
		<g opacity="0.21">
			<g>
				<g>
					<g>
						<path fill="#243C71" d="M162.988,341.858c-0.021,0.015,0.346,0.271,0.728,0.841c0.389,0.557,0.797,1.435,0.904,2.444
							c0.119,0.992-0.065,2.122-0.576,2.945c-0.462,0.84-1.251,1.313-1.569,1.393c-0.263,0.125-1.303,0.28-2.172-0.303
							c-0.864-0.54-1.427-1.477-1.719-2.368c-0.197-0.431-0.26-0.901-0.363-1.308c-0.073-0.417-0.08-0.81-0.114-1.131
							c0.035-0.646,0.059-1.068,0.059-1.068s0.091,0.385,0.231,0.98c0.11,0.278,0.24,0.606,0.38,0.962
							c0.203,0.326,0.348,0.703,0.612,1.021c0.449,0.688,1.074,1.24,1.572,1.416c0.497,0.158,0.743,0.03,0.886-0.033
							c0.092-0.025,0.449-0.086,0.876-0.524c0.431-0.402,0.801-1.156,0.927-1.99c0.136-0.827,0.008-1.689-0.204-2.296
							C163.247,342.219,162.967,341.87,162.988,341.858z"/>
					</g>
				</g>
			</g>
			<g>
				<g>
					<g>
						<path fill="#243C71" d="M167.929,333.171c0,0,0.232,0.256,0.587,0.648c0.207,0.191,0.331,0.479,0.508,0.784
							c0.084,0.157,0.172,0.32,0.262,0.487c0.054,0.181,0.11,0.367,0.166,0.553l0.164,0.581c0.03,0.197,0.032,0.398,0.047,0.597
							c0.024,0.398,0.05,0.789-0.027,1.165c-0.04,0.19-0.101,0.376-0.153,0.546c-0.081,0.175-0.17,0.337-0.252,0.478
							c-0.206,0.273-0.418,0.469-0.539,0.546c-0.135,0.058-0.383,0.224-0.738,0.254c-0.353,0.056-0.788,0.012-1.165-0.152
							c-0.769-0.297-1.42-1.005-1.698-1.736c-0.313-0.707-0.438-1.349-0.611-1.822c-0.18-0.452-0.327-0.756-0.327-0.756
							s0.225,0.209,0.574,0.575c0.319,0.371,0.704,0.949,1.133,1.404c0.402,0.483,0.922,0.718,1.309,0.745
							c0.389,0.015,0.425-0.138,0.478-0.143c0.014-0.048,0.201-0.001,0.429-0.43c0.118-0.198,0.185-0.478,0.266-0.775
							c0.038-0.148,0.094-0.303,0.125-0.462l0.024-0.487c0.009-0.168,0.019-0.335,0.028-0.499c-0.026-0.161-0.051-0.319-0.075-0.47
							c-0.057-0.305-0.074-0.617-0.194-0.837C168.056,333.485,167.929,333.171,167.929,333.171z"/>
					</g>
				</g>
			</g>
			<g>
				<g>
					<g>
						<path fill="#243C71" d="M153.299,339.368c0,0,0.172,0.291,0.437,0.736c0.24,0.459,0.586,1.096,0.712,1.892
							c0.201,0.778-0.031,1.777-0.476,2.408c-0.437,0.66-1.084,1.033-1.358,1.072c-0.227,0.094-1.051,0.155-1.78-0.315
							c-0.723-0.466-1.16-1.308-1.254-2.112c-0.061-0.798,0.096-1.481,0.246-1.961c0.146-0.482,0.259-0.785,0.259-0.785
							s0.018,0.308,0.045,0.785c0.036,0.469,0.125,1.104,0.367,1.634c0.238,0.512,0.698,0.881,1.026,0.955
							c0.165,0.032,0.285,0.032,0.376-0.001c0.088-0.022,0.152-0.04,0.197-0.067c0.06,0.005,0.291-0.026,0.629-0.263
							c0.331-0.256,0.69-0.689,0.754-1.336c0.098-0.304,0.036-0.638,0.063-0.948c-0.024-0.312-0.066-0.605-0.092-0.859
							C153.358,339.698,153.299,339.368,153.299,339.368z"/>
					</g>
				</g>
			</g>
			<g>
				<g>
					<g>
						<path fill="#243C71" d="M158.056,328.34c0,0,0.197,0.339,0.498,0.859c0.138,0.268,0.274,0.597,0.435,0.954
							c0.143,0.362,0.262,0.766,0.396,1.18c0.171,0.831,0.454,1.717,0.135,2.713c-0.159,0.476-0.506,0.913-0.87,1.142
							c-0.367,0.219-0.674,0.288-0.83,0.299c-0.319,0.053-1.166-0.033-1.886-0.642c-0.716-0.658-1.043-1.602-1.168-2.423
							c-0.13-0.829-0.176-1.562-0.351-2.095c-0.144-0.54-0.383-0.846-0.362-0.858c-0.019,0.011,0.292,0.218,0.618,0.69
							c0.353,0.458,0.655,1.198,0.989,1.87c0.321,0.682,0.788,1.237,1.161,1.432c0.382,0.187,0.702,0.109,0.774,0.102
							c0.102-0.014,0.186,0.079,0.434-0.185c0.113-0.145,0.235-0.421,0.284-0.776c0.065-0.347,0.07-0.761,0.111-1.152
							c-0.009-0.391-0.003-0.788-0.03-1.155c-0.046-0.362-0.076-0.708-0.125-0.998C158.139,328.718,158.056,328.34,158.056,328.34z"
							/>
					</g>
				</g>
			</g>
			<g>
				<g>
					<g>
						<path fill="#243C71" d="M148.926,301.735c0,0,0.197,0.339,0.498,0.859c0.138,0.268,0.274,0.597,0.435,0.954
							c0.143,0.362,0.262,0.766,0.396,1.18c0.171,0.831,0.453,1.717,0.135,2.713c-0.159,0.476-0.506,0.913-0.869,1.142
							c-0.367,0.219-0.674,0.287-0.831,0.299c-0.319,0.054-1.166-0.033-1.886-0.642c-0.716-0.658-1.043-1.601-1.168-2.423
							c-0.129-0.829-0.176-1.562-0.351-2.095c-0.144-0.54-0.383-0.846-0.362-0.858c-0.019,0.011,0.292,0.218,0.618,0.69
							c0.353,0.458,0.655,1.198,0.989,1.87c0.321,0.682,0.788,1.237,1.161,1.432c0.382,0.187,0.702,0.109,0.774,0.102
							c0.102-0.014,0.186,0.079,0.434-0.185c0.113-0.145,0.235-0.421,0.284-0.776c0.065-0.347,0.07-0.761,0.111-1.152
							c-0.009-0.391-0.003-0.788-0.03-1.155c-0.046-0.362-0.076-0.708-0.125-0.998C149.009,302.113,148.926,301.735,148.926,301.735
							z"/>
					</g>
				</g>
			</g>
			<g>
				<g>
					<g>
						<path fill="#243C71" d="M176.678,347.041c0,0,0.19,0.214,0.462,0.567c0.277,0.347,0.631,0.863,0.823,1.547
							c0.204,0.678,0.137,1.546-0.314,2.178c-0.406,0.666-1.074,0.902-1.263,0.94c-0.212,0.051-0.806,0.08-1.41-0.171
							c-0.615-0.222-1.203-0.773-1.546-1.324c-0.347-0.56-0.535-1.12-0.661-1.53c-0.113-0.411-0.186-0.68-0.186-0.68
							s0.172,0.2,0.438,0.51c0.269,0.304,0.653,0.689,1.067,0.994c0.229,0.111,0.435,0.272,0.644,0.328
							c0.198,0.072,0.408,0.094,0.58,0.097c0.356,0.002,0.56-0.094,0.642-0.113c0.068-0.022,0.242,0.028,0.456-0.118
							c0.244-0.098,0.533-0.518,0.588-1.025c0.074-0.505-0.016-1.087-0.131-1.501C176.764,347.317,176.678,347.041,176.678,347.041z
							"/>
					</g>
				</g>
			</g>
			<g>
				<g>
					<g>
						<path fill="#243C71" d="M181.105,335.921c0,0,0.236,0.201,0.598,0.508c0.174,0.168,0.378,0.365,0.598,0.579
							c0.187,0.248,0.435,0.494,0.608,0.81c0.39,0.598,0.615,1.45,0.5,2.135c-0.064,0.697-0.435,1.218-0.573,1.385
							c-0.084,0.076-0.245,0.217-0.48,0.361c-0.254,0.124-0.581,0.258-0.958,0.275c-0.76,0.044-1.534-0.316-2.04-0.83
							c-0.495-0.526-0.791-1.093-0.965-1.521c-0.182-0.424-0.282-0.703-0.282-0.703s0.189,0.212,0.48,0.539
							c0.288,0.323,0.723,0.721,1.197,0.985c0.472,0.245,1.028,0.302,1.334,0.17c0.32-0.102,0.413-0.327,0.508-0.386
							c0.04-0.076,0.268-0.206,0.432-0.594c0.187-0.379,0.24-0.907,0.091-1.494c-0.052-0.292-0.194-0.566-0.284-0.841
							c-0.135-0.261-0.261-0.502-0.367-0.707C181.263,336.186,181.105,335.921,181.105,335.921z"/>
					</g>
				</g>
			</g>
			<g>
				<g>
					<g>
						<path fill="#243C71" d="M179.511,323.608c-0.02,0.017,0.301,0.154,0.635,0.565c0.342,0.397,0.703,1.073,0.767,1.883
							c0.088,0.802-0.205,1.72-0.672,2.302c-0.454,0.592-0.972,0.91-1.167,0.992c-0.196,0.078-0.757,0.265-1.487,0.187
							c-0.728-0.051-1.567-0.432-2.097-1.002c-0.549-0.559-0.821-1.247-0.902-1.746c-0.097-0.501-0.005-0.824-0.029-0.819
							c0.02-0.006,0.063,0.307,0.304,0.687c0.223,0.382,0.639,0.819,1.149,1.062c0.51,0.255,1.054,0.285,1.451,0.19
							c0.41-0.079,0.687-0.284,0.829-0.331c0.104-0.043,0.413-0.125,0.773-0.356c0.358-0.226,0.725-0.651,0.881-1.231
							c0.167-0.571,0.102-1.216-0.062-1.664C179.735,323.865,179.491,323.622,179.511,323.608z"/>
					</g>
				</g>
			</g>
			<g>
				<g>
					<g>
						<path fill="#243C71" d="M166.369,320.867c-0.016,0.018,0.269,0.085,0.585,0.393c0.321,0.294,0.674,0.83,0.769,1.5
							c0.118,0.663-0.109,1.446-0.496,1.93c-0.375,0.494-0.808,0.755-0.969,0.82c-0.163,0.064-0.627,0.217-1.229,0.145
							c-0.602-0.05-1.285-0.378-1.713-0.854c-0.444-0.468-0.659-1.038-0.724-1.45c-0.078-0.414-0.006-0.681-0.025-0.677
							c0.016-0.005,0.05,0.254,0.244,0.574c0.179,0.321,0.514,0.695,0.933,0.912c0.876,0.495,1.696,0.047,1.902-0.064
							c0.143-0.051,1.123-0.313,1.307-1.336c0.102-0.479-0.007-1.006-0.189-1.354C166.591,321.044,166.352,320.882,166.369,320.867z
							"/>
					</g>
				</g>
			</g>
			<g>
				<g>
					<g>
						<path fill="#243C71" d="M147.258,328.401c0,0,0.11,0.24,0.24,0.631c0.13,0.391,0.299,0.937,0.259,1.602
							c-0.01,0.664-0.449,1.468-1.106,1.815c-0.647,0.35-1.241,0.317-1.415,0.276c-0.196-0.026-0.68-0.218-1.129-0.619
							c-0.219-0.206-0.434-0.463-0.6-0.756c-0.119-0.295-0.264-0.588-0.332-0.88c-0.137-0.591-0.15-1.131-0.151-1.527
							c0.011-0.393,0.018-0.649,0.018-0.649s0.107,0.219,0.272,0.557c0.173,0.33,0.409,0.776,0.712,1.143
							c0.61,0.823,1.403,0.815,1.56,0.827c0.071,0.023,0.225,0.097,0.443,0.117c0.21,0.014,0.567-0.125,0.788-0.544
							c0.233-0.403,0.333-0.941,0.379-1.331C147.249,328.668,147.258,328.401,147.258,328.401z"/>
					</g>
				</g>
			</g>
			<g>
				<g>
					<g>
						<path fill="#243C71" d="M157.29,313.252c0,0,0.171,0.314,0.432,0.796c0.118,0.253,0.256,0.549,0.405,0.87
							c0.123,0.335,0.248,0.713,0.346,1.112c0.03,0.415,0.151,0.833,0.085,1.283c-0.033,0.447-0.16,0.863-0.321,1.224
							c-0.33,0.721-0.824,1.209-1.055,1.327c-0.189,0.138-0.874,0.457-1.75,0.342c-0.883-0.12-1.657-0.742-2.113-1.396
							c-0.244-0.325-0.416-0.674-0.544-1.001c-0.125-0.33-0.282-0.603-0.321-0.879c-0.115-0.519-0.19-0.857-0.19-0.857
							s0.177,0.274,0.451,0.696c0.115,0.216,0.336,0.42,0.54,0.651c0.203,0.233,0.429,0.471,0.697,0.65
							c0.515,0.388,1.122,0.579,1.49,0.497c0.369-0.083,0.573-0.232,0.692-0.333c0.09-0.035,0.37-0.185,0.699-0.534
							c0.157-0.177,0.324-0.408,0.433-0.676c0.143-0.256,0.148-0.613,0.241-0.94c0.026-0.342,0.03-0.695,0.024-1.029
							c-0.035-0.338-0.068-0.65-0.096-0.916C157.347,313.603,157.29,313.252,157.29,313.252z"/>
					</g>
				</g>
			</g>
			<g>
				<g>
					<g>
						<path fill="#243C71" d="M144.381,314.415c0,0,0.166,0.342,0.421,0.867c0.217,0.539,0.577,1.279,0.616,2.185
							c0.116,0.91-0.218,1.927-0.789,2.603c-0.561,0.72-1.403,0.947-1.673,0.982c-0.275,0.025-1.113-0.019-1.804-0.567
							c-0.693-0.506-1.241-1.381-1.36-2.257c-0.188-0.855-0.048-1.635,0.015-2.193c0.099-0.554,0.164-0.915,0.164-0.915
							s0.054,0.344,0.137,0.876c0.109,0.519,0.235,1.239,0.574,1.832c0.279,0.616,0.796,1.041,1.235,1.208
							c0.443,0.176,0.708,0.081,0.828,0.09c0.084-0.039,0.35,0.037,0.744-0.228c0.387-0.249,0.845-0.798,0.963-1.494
							c0.198-0.694,0.101-1.474,0.059-2.041C144.432,314.789,144.381,314.415,144.381,314.415z"/>
					</g>
				</g>
			</g>
			<g>
				<g>
					<g>
						<path fill="#243C71" d="M171.83,354.651c0,0,0.046,0.042,0.126,0.117c0.074,0.08,0.22,0.182,0.334,0.35
							c0.221,0.331,0.498,0.883,0.487,1.513c0.017,0.62-0.158,1.318-0.528,1.803c-0.16,0.261-0.363,0.452-0.552,0.585
							c-0.182,0.138-0.321,0.247-0.414,0.263c-0.175,0.049-0.673,0.184-1.251,0.053c-0.29-0.034-0.574-0.188-0.858-0.307
							c-0.259-0.183-0.535-0.333-0.729-0.576c-0.443-0.418-0.64-0.98-0.726-1.355c-0.04-0.4-0.021-0.634-0.021-0.634
							s0.112,0.221,0.288,0.494c0.23,0.254,0.552,0.545,0.968,0.667c0.388,0.164,0.819,0.133,1.098,0.081
							c0.29-0.078,0.431-0.206,0.517-0.224c0.038,0.006,0.085-0.032,0.17-0.05c0.089-0.012,0.205-0.039,0.324-0.123
							c0.271-0.117,0.565-0.439,0.759-0.838c0.22-0.404,0.227-0.872,0.191-1.233C171.938,354.895,171.83,354.651,171.83,354.651z"/>
					</g>
				</g>
			</g>
			<g>
				<g>
					<g>
						<path fill="#243C71" d="M187.531,356.73c0,0,0.053,0.047,0.146,0.13c0.086,0.089,0.25,0.199,0.385,0.382
							c0.262,0.362,0.601,0.952,0.642,1.648c0.07,0.683-0.054,1.458-0.392,2.023c-0.08,0.142-0.152,0.283-0.237,0.401
							c-0.101,0.109-0.193,0.209-0.275,0.297c-0.173,0.172-0.303,0.309-0.398,0.342c-0.177,0.08-0.675,0.31-1.315,0.293
							c-0.315,0.024-0.652-0.075-0.984-0.138c-0.32-0.135-0.653-0.23-0.923-0.442c-0.581-0.34-0.945-0.886-1.149-1.266
							c-0.163-0.418-0.218-0.679-0.218-0.679s0.178,0.212,0.441,0.477c0.314,0.23,0.743,0.489,1.241,0.549
							c0.478,0.11,0.971,0.003,1.303-0.105c0.34-0.137,0.513-0.313,0.621-0.358c0.048-0.005,0.105-0.06,0.207-0.107
							c0.108-0.041,0.242-0.106,0.37-0.232c0.298-0.206,0.581-0.634,0.743-1.123c0.189-0.497,0.136-1.035,0.055-1.442
							C187.672,356.994,187.531,356.73,187.531,356.73z"/>
					</g>
				</g>
			</g>
			<g>
				<g>
					<g>
						<path fill="#243C71" d="M199.079,353.505c-0.016,0.02,0.411,0.158,0.942,0.591c0.535,0.419,1.182,1.14,1.578,2.073
							c0.403,0.913,0.558,2.048,0.31,2.985c-0.196,0.938-0.813,1.621-1.094,1.791c-0.215,0.197-1.164,0.649-2.165,0.345
							c-0.985-0.264-1.797-0.996-2.336-1.762c-0.314-0.355-0.512-0.786-0.73-1.144c-0.192-0.378-0.314-0.751-0.439-1.048
							c-0.155-0.629-0.256-1.039-0.256-1.039s0.199,0.341,0.508,0.869c0.187,0.234,0.406,0.509,0.645,0.809
							c0.289,0.253,0.539,0.57,0.884,0.797c0.631,0.526,1.39,0.872,1.917,0.895c0.522,0.006,0.719-0.189,0.838-0.291
							c0.081-0.051,0.405-0.214,0.685-0.757c0.295-0.51,0.428-1.34,0.305-2.174c-0.112-0.831-0.486-1.617-0.866-2.136
							C199.431,353.774,199.062,353.522,199.079,353.505z"/>
					</g>
				</g>
			</g>
			<g>
				<g>
					<g>
						<path fill="#243C71" d="M213.686,354.46c0,0,0.244,0.149,0.607,0.407c0.366,0.251,0.855,0.641,1.239,1.239
							c0.393,0.588,0.583,1.438,0.336,2.175c-0.194,0.756-0.763,1.177-0.933,1.268c-0.188,0.111-0.748,0.312-1.398,0.249
							c-0.653-0.032-1.377-0.388-1.866-0.815c-0.496-0.434-0.839-0.915-1.079-1.27c-0.228-0.361-0.377-0.596-0.377-0.596
							s0.223,0.141,0.568,0.359c0.346,0.212,0.826,0.468,1.311,0.639c0.252,0.039,0.496,0.133,0.711,0.126
							c0.21,0.011,0.417-0.029,0.583-0.077c0.341-0.102,0.508-0.254,0.581-0.295c0.058-0.041,0.239-0.044,0.401-0.246
							c0.205-0.165,0.358-0.651,0.263-1.152c-0.077-0.505-0.333-1.035-0.564-1.398C213.848,354.699,213.686,354.46,213.686,354.46z"
							/>
					</g>
				</g>
			</g>
			<g>
				<g>
					<g>
						<path fill="#243C71" d="M222.091,351.761c0,0,0.172,0.074,0.434,0.187c0.259,0.123,0.614,0.298,0.939,0.587
							c0.329,0.276,0.61,0.726,0.664,1.14c0.086,0.412-0.035,0.778-0.085,0.898c-0.063,0.106-0.27,0.474-0.719,0.61
							c-0.421,0.164-0.94,0.106-1.318-0.111c-0.354-0.237-0.659-0.481-0.821-0.706c-0.176-0.213-0.29-0.352-0.29-0.352
							s0.147,0.087,0.374,0.221c0.215,0.154,0.556,0.254,0.861,0.36c0.319,0.067,0.638-0.027,0.794-0.141
							c0.173-0.107,0.184-0.257,0.229-0.307c0.01-0.051,0.118-0.166,0.144-0.418c0.041-0.251-0.023-0.564-0.211-0.876
							c-0.178-0.31-0.445-0.581-0.648-0.776C222.228,351.886,222.091,351.761,222.091,351.761z"/>
					</g>
				</g>
			</g>
			<g>
				<g>
					<g>
						<path fill="#243C71" d="M204.457,346.53c0,0,0.216,0.093,0.546,0.236c0.326,0.155,0.773,0.375,1.182,0.739
							c0.415,0.347,0.768,0.914,0.836,1.436c0.108,0.519-0.045,0.979-0.107,1.131c-0.08,0.133-0.34,0.596-0.906,0.767
							c-0.531,0.206-1.184,0.133-1.659-0.141c-0.945-0.546-1.365-1.357-1.397-1.331c0,0,0.184,0.112,0.467,0.284
							c0.281,0.169,0.683,0.365,1.086,0.446c0.402,0.084,0.803-0.033,1-0.177c0.218-0.135,0.232-0.323,0.288-0.386
							c0.012-0.064,0.149-0.209,0.182-0.527c0.052-0.316-0.028-0.71-0.265-1.103c-0.224-0.39-0.56-0.732-0.815-0.978
							C204.63,346.687,204.457,346.53,204.457,346.53z"/>
					</g>
				</g>
			</g>
			<g>
				<g>
					<g>
						<path fill="#243C71" d="M211.274,363.155c0,0,0.056,0.027,0.155,0.075c0.094,0.055,0.263,0.11,0.422,0.238
							c0.309,0.252,0.734,0.699,0.908,1.305c0.197,0.588,0.234,1.306,0.022,1.879c-0.077,0.296-0.215,0.538-0.357,0.721
							c-0.133,0.185-0.235,0.33-0.319,0.372c-0.153,0.098-0.59,0.372-1.181,0.417c-0.287,0.052-0.604-0.012-0.911-0.043
							c-0.301-0.099-0.608-0.162-0.866-0.338c-0.546-0.271-0.898-0.75-1.091-1.083c-0.156-0.371-0.206-0.6-0.206-0.6
							s0.172,0.179,0.42,0.389c0.294,0.176,0.687,0.359,1.12,0.355c0.419,0.043,0.822-0.113,1.074-0.244
							c0.255-0.159,0.352-0.323,0.429-0.365c0.038-0.006,0.072-0.055,0.148-0.097c0.082-0.037,0.185-0.097,0.274-0.212
							c0.225-0.191,0.412-0.585,0.481-1.023c0.092-0.45-0.038-0.9-0.177-1.235C211.448,363.357,211.274,363.155,211.274,363.155z"/>
					</g>
				</g>
			</g>
			<g>
				<g>
					<g>
						<path fill="#243C71" d="M226.897,360.555c0,0,0.064,0.029,0.177,0.081c0.108,0.06,0.298,0.117,0.48,0.253
							c0.357,0.269,0.853,0.735,1.095,1.389c0.266,0.633,0.374,1.411,0.216,2.05c-0.035,0.159-0.063,0.315-0.109,0.453
							c-0.065,0.134-0.124,0.256-0.176,0.365c-0.115,0.215-0.199,0.384-0.281,0.443c-0.146,0.128-0.555,0.493-1.171,0.664
							c-0.294,0.115-0.646,0.118-0.982,0.156c-0.345-0.036-0.692-0.029-1.012-0.153c-0.655-0.155-1.163-0.571-1.469-0.875
							c-0.278-0.352-0.407-0.585-0.407-0.585s0.232,0.151,0.561,0.327c0.367,0.128,0.854,0.251,1.347,0.162
							c0.489-0.035,0.929-0.281,1.215-0.482c0.285-0.231,0.4-0.449,0.489-0.524c0.044-0.018,0.083-0.088,0.167-0.163
							c0.091-0.07,0.2-0.172,0.285-0.33c0.225-0.284,0.37-0.776,0.382-1.291c0.036-0.531-0.173-1.03-0.369-1.395
							C227.109,360.766,226.897,360.555,226.897,360.555z"/>
					</g>
				</g>
			</g>
			<g>
				<g>
					<g>
						<path fill="#243C71" d="M189.381,344.631c0,0,0.064,0.027,0.177,0.075c0.108,0.056,0.299,0.106,0.482,0.237
							c0.357,0.26,0.854,0.725,1.083,1.379c0.254,0.632,0.343,1.413,0.152,2.049c-0.043,0.159-0.078,0.314-0.133,0.45
							c-0.074,0.131-0.141,0.25-0.201,0.356c-0.13,0.209-0.228,0.374-0.315,0.426c-0.157,0.117-0.602,0.454-1.237,0.559
							c-0.306,0.085-0.656,0.045-0.993,0.043c-0.337-0.079-0.68-0.115-0.979-0.281c-0.625-0.239-1.062-0.728-1.311-1.075
							c-0.211-0.392-0.293-0.641-0.293-0.641s0.2,0.188,0.489,0.412c0.337,0.181,0.79,0.371,1.28,0.346
							c0.479,0.03,0.933-0.163,1.224-0.326c0.293-0.194,0.409-0.392,0.499-0.453c0.044-0.012,0.082-0.076,0.166-0.139
							c0.045-0.032,0.095-0.069,0.151-0.109c0.048-0.05,0.085-0.117,0.14-0.183c0.233-0.255,0.392-0.731,0.415-1.234
							c0.048-0.519-0.155-1.009-0.35-1.366c-0.1-0.177-0.236-0.282-0.312-0.381C189.429,344.683,189.381,344.631,189.381,344.631z"
							/>
					</g>
				</g>
			</g>
			<g>
				<g>
					<g>
						<path fill="#243C71" d="M195.361,334.88c0,0,0.253,0.254,0.616,0.675c0.375,0.411,0.831,1.036,1.119,1.866
							c0.264,0.83,0.192,1.878-0.345,2.645c-0.55,0.757-1.324,1.015-1.558,1.042c-0.254,0.055-0.948,0.058-1.649-0.236
							c-0.714-0.267-1.406-0.858-1.9-1.434c-0.47-0.571-0.926-1.125-1.264-1.536c-0.37-0.374-0.611-0.618-0.611-0.618
							s0.303,0.141,0.77,0.36c0.452,0.25,1.054,0.628,1.651,0.992c0.305,0.145,0.608,0.342,0.893,0.438
							c0.278,0.111,0.565,0.168,0.81,0.194c0.5,0.052,0.82-0.036,0.945-0.065c0.109-0.012,0.357-0.011,0.672-0.2
							c0.304-0.197,0.622-0.777,0.629-1.435c-0.006-0.65-0.199-1.363-0.42-1.856C195.516,335.207,195.361,334.88,195.361,334.88z"/>
					</g>
				</g>
			</g>
		</g>
		<path opacity="0.46" fill="#A28887" d="M144.961,221.926c-2.265-0.678-4.549,1.4-2.213,1.435
			C145.084,223.396,146.377,222.35,144.961,221.926z"/>
		<g>
			<path fill="#F39332" d="M187.645,404.086c1.117,0.154,3.625,0.897,3.796,2.296s-0.324,3.738-0.115,4.59
				c0.209,0.852,0.374,2.046,1.406,1.265c1.032-0.781,0.637-2.495,2.793-2.652c2.156-0.157,6.812,0.332,8.529,1.638
				s4.012,0.963,4.487,0.475c0.474-0.488,5.213-10.153,4.513-13.105c-0.7-2.952-0.227-5.01-2.504-3.536
				c-2.277,1.473-6.333,4.132-9.673,4.556C197.539,400.038,187.645,404.086,187.645,404.086z"/>
			<path fill="#F8B241" d="M204.659,367.669c0.354,4.545,5.195,16.933,4.487,21.861c-0.708,4.928-3.625,7.669-7.954,8.702
				c-4.329,1.033-9.62,2.433-11.46,3.663c-1.84,1.23-2.088,2.192-2.088,2.192s3.217-0.949,6.087-1.533
				c2.869-0.584,10.18-3.085,10.18-3.085s-9.246,7.43-11.483,9.341c-2.238,1.91-1.538,4.863-1.538,4.863s2.619-2.077,3.813-2.891
				c1.193-0.814,3.348-3.222,7.327-5.118c3.98-1.896,9.039-6.531,9.566-8.256c0,0,1.295,2.852,0.269,5.276
				c-1.026,2.423-3.378,6.092-5.15,8.334c-1.773,2.242-1.538,4.249-1.538,4.249s4.63-5.075,8.248-8.342
				c3.618-3.268,4.693-6.006,4.076-9.075c-0.617-3.068-2.347-7.28-2.698-9.37c-0.351-2.09-1.871-11.147-1.145-15.361
				c0.725-4.215-0.408-6.281-0.408-6.281S204.466,365.184,204.659,367.669z"/>
		</g>
	</g>
	<g>
		<g>
			<path fill="#EA7D2F" d="M266.671,369.261c1.554,0.486,4.946,2.144,4.856,4.176c-0.09,2.032-1.355,5.244-1.26,6.507
				c0.094,1.262,0.044,3.002,1.7,2.137c1.656-0.865,1.502-3.399,4.61-3.108c3.108,0.292,9.619,2.1,11.751,4.37
				c2.133,2.27,5.483,2.329,6.274,1.749c0.792-0.581,9.848-13.209,9.556-17.579c-0.291-4.37,0.874-7.187-2.719-5.633
				c-3.593,1.554-10.003,4.37-14.859,4.176C281.725,365.861,266.671,369.261,266.671,369.261z"/>
			<path fill="#F19E3F" d="M299.595,321.478c-0.583,6.556,3.351,25.348,1.165,32.195c-2.185,6.847-6.993,10.052-13.402,10.489
				c-6.41,0.437-14.276,1.165-17.19,2.477c-2.914,1.311-3.496,2.622-3.496,2.622s4.808-0.583,9.032-0.728
				c4.225-0.146,15.23-1.96,15.23-1.96s-14.938,8.369-18.58,10.555c-3.642,2.185-3.351,6.555-3.351,6.555s4.225-2.331,6.119-3.205
				c1.894-0.874,5.536-3.788,11.654-5.536c6.119-1.748,14.429-7.138,15.591-9.469c0,0,1.162,4.37-0.877,7.575
				c-2.039,3.205-6.264,7.867-9.324,10.635c-3.059,2.768-3.205,5.682-3.205,5.682s7.804-6.119,13.735-9.906
				c5.931-3.788,8.117-7.43,7.971-11.946c-0.146-4.516-1.602-10.926-1.602-13.985c0-3.059,0-16.316,2.039-22.143
				c2.039-5.827,0.92-9.039,0.92-9.039S299.914,317.894,299.595,321.478z"/>
		</g>
		<g>
			<defs>
				<path id="SVGID_7_" d="M377.27,298.517c15.898-4.589,18.882-7.276,30.603-10.23c18.093-4.56,17.604-10.858,23.245-16.455
					c5.641-5.597-10.77-9.187-31.796-12.264C378.296,256.491,377.27,298.517,377.27,298.517z"/>
			</defs>
			<clipPath id="SVGID_8_">
				<use xlink:href="#SVGID_7_"  overflow="visible"/>
			</clipPath>
			<path clip-path="url(#SVGID_8_)" fill="#DFE3EE" d="M377.27,298.517c15.898-4.589,18.882-7.276,30.603-10.23
				c18.093-4.56,17.604-10.858,23.245-16.455c5.641-5.597-10.77-9.187-31.796-12.264C378.296,256.491,377.27,298.517,377.27,298.517
				z"/>
			<g opacity="0.15" clip-path="url(#SVGID_8_)">
				<g>
					<g>
						<path fill="#243C71" d="M434.368,280.822c0.029,0.113-1.74,0.631-4.481,1.359c-1.381,0.31-3.016,0.619-4.785,0.971
							c-1.782,0.259-3.705,0.547-5.666,0.749c-3.928,0.346-8.002,0.507-11.318,0.336c-3.323-0.063-5.871-0.444-6.816-0.513
							c-3.76-0.517-5.688-1.294-5.598-1.731c0.096-0.481,2.132-0.457,5.809,0.049c0.927,0.067,3.42,0.489,6.68,0.634
							c3.253,0.254,7.262,0.218,11.149,0.03c1.941-0.123,3.85-0.326,5.625-0.492c1.767-0.251,3.399-0.482,4.79-0.679
							C432.516,281.009,434.338,280.708,434.368,280.822z"/>
					</g>
				</g>
			</g>
			<g opacity="0.15" clip-path="url(#SVGID_8_)">
				<g>
					<g>
						<path fill="#243C71" d="M437.806,273.723c0.028,0.114-1.505,0.559-3.883,1.176c-1.197,0.266-2.613,0.532-4.146,0.832
							c-1.543,0.226-3.208,0.476-4.906,0.657c-3.4,0.316-6.928,0.482-9.801,0.374c-2.878-0.021-5.091-0.303-5.911-0.352
							c-3.265-0.388-4.941-1.071-4.861-1.514c0.085-0.478,1.854-0.55,5.043-0.171c0.803,0.047,2.965,0.372,5.786,0.476
							c2.817,0.191,6.284,0.15,9.648-0.009c1.68-0.102,3.333-0.266,4.871-0.401c1.532-0.199,2.947-0.384,4.153-0.541
							C436.195,273.837,437.778,273.61,437.806,273.723z"/>
					</g>
				</g>
			</g>
			<g opacity="0.15" clip-path="url(#SVGID_8_)">
				<g>
					<g>
						<path fill="#243C71" d="M438.789,261.966c0.051,0.105-1.347,0.847-3.534,1.925c-1.113,0.491-2.442,1.017-3.878,1.602
							c-1.464,0.501-3.044,1.05-4.672,1.523c-3.27,0.894-6.701,1.636-9.54,1.955c-2.829,0.422-5.048,0.433-5.86,0.504
							c-3.267,0.055-5.005-0.417-4.979-0.863c0.025-0.489,1.755-0.778,4.928-0.832c0.792-0.071,2.957-0.032,5.731-0.361
							c2.785-0.227,6.164-0.833,9.416-1.564c1.619-0.392,3.198-0.853,4.67-1.261c1.451-0.485,2.791-0.934,3.933-1.316
							C437.246,262.399,438.738,261.861,438.789,261.966z"/>
					</g>
				</g>
			</g>
		</g>
		<g>
			<defs>
				<path id="SVGID_9_" d="M402.596,259.568c-8.718-2.051-33.847-19.488-65.643-20.513c-31.796-1.026-53.059-18.179-50.258-37.437
					c5.787-39.78,5.652-68.766-0.197-87.857c-5.849-19.091-31.825-19.263-47.833-6.949c-8.498,6.537-10.774,15.085-6.773,26.475
					c4.002,11.39,15.085,9.235,20.01,9.851c4.925,0.616,7.539,9.882,5.866,22.12c-2.252,16.465-14.09,35.489-27.485,66.105
					c-14.359,32.821,0.211,69.283,27.827,86.475c14.498,9.026,34.226,17.631,63.458,22.759s56.412-1.026,72.31-26.155
					C409.775,289.312,411.314,261.619,402.596,259.568z"/>
			</defs>
			<clipPath id="SVGID_10_">
				<use xlink:href="#SVGID_9_"  overflow="visible"/>
			</clipPath>
			<path clip-path="url(#SVGID_10_)" fill="#E0E8F1" d="M402.596,259.568c-8.718-2.051-33.847-19.488-65.643-20.513
				c-31.796-1.026-53.059-18.179-50.258-37.437c5.787-39.78,4.767-54.867-0.314-74.176c-7.862-29.878-31.708-32.944-47.716-20.63
				c-8.498,6.537-10.774,15.085-6.773,26.475c4.002,11.39,15.085,9.235,20.01,9.851c4.925,0.616,7.539,9.882,5.866,22.12
				c-2.252,16.465-14.09,35.489-27.485,66.105c-14.359,32.821,0.211,69.283,27.827,86.475c14.498,9.026,34.226,17.631,63.458,22.759
				s56.412-1.026,72.31-26.155C409.775,289.312,411.314,261.619,402.596,259.568z"/>
			<path opacity="0.65" clip-path="url(#SVGID_10_)" fill="#B1C3DB" d="M281.2,226.208c12.055-9.48,34.042-22.514,72.405,0
				c38.363,22.514,57.274,24.315,68.981,24.315c11.707,0-3.573,38.6-37.794,47.994c-34.221,9.393-73.874-14.673-81.979-27.281
				C294.708,258.628,270.507,234.618,281.2,226.208z"/>
		</g>
		<g>
			<defs>
				<path id="SVGID_11_" d="M281.2,226.208c12.055-9.48,34.042-22.514,72.405,0c38.363,22.514,57.274,24.315,68.981,24.315
					c11.707,0-8.105,28.942-42.326,38.336s-69.342-5.015-77.447-17.623C294.708,258.628,270.507,234.618,281.2,226.208z"/>
			</defs>
			<clipPath id="SVGID_12_">
				<use xlink:href="#SVGID_11_"  overflow="visible"/>
			</clipPath>
			<path clip-path="url(#SVGID_12_)" fill="#DFE3EE" d="M281.2,226.208c12.055-9.48,34.042-22.514,72.405,0
				c38.363,22.514,57.274,24.315,68.981,24.315c11.707,0-8.105,28.942-42.326,38.336s-69.342-5.015-77.447-17.623
				C294.708,258.628,270.507,234.618,281.2,226.208z"/>
			<g clip-path="url(#SVGID_12_)">
				<g>
					<path fill="none" stroke="#233C71" stroke-miterlimit="10" d="M279.832,247.823"/>
				</g>
			</g>
			<g clip-path="url(#SVGID_12_)">
				<g>
					<g>
						<g>
							<path fill="#FFFFFF" d="M449.041,333.925c-0.001,0.06-0.715,0.072-1.977,0.045c-1.262-0.027-3.072-0.092-5.266-0.185
								c-2.178-0.241-4.731-0.59-7.501-0.949c-1.365-0.29-2.783-0.591-4.232-0.899c-0.725-0.156-1.458-0.314-2.196-0.474
								c-0.368-0.084-0.742-0.152-1.109-0.249l-1.094-0.327c-2.912-0.912-5.936-1.66-8.678-2.837
								c-1.389-0.54-2.75-1.069-4.063-1.579c-1.297-0.547-2.501-1.177-3.665-1.72c-1.158-0.557-2.251-1.082-3.259-1.567
								c-1.001-0.499-1.864-1.055-2.659-1.498c-1.573-0.915-2.75-1.6-3.384-1.968c-1.29-0.704-2.294-1.539-3.203-2.193
								c-0.895-0.675-1.634-1.265-2.211-1.762c-1.155-0.994-1.667-1.615-1.522-1.808c0.145-0.193,0.918,0.077,2.242,0.804
								c0.662,0.363,1.463,0.841,2.393,1.432c0.944,0.571,1.956,1.353,3.225,2.044c0.62,0.368,1.77,1.051,3.309,1.965
								c0.776,0.445,1.618,1.006,2.594,1.511c0.984,0.493,2.05,1.027,3.18,1.592c1.136,0.553,2.311,1.197,3.577,1.76
								c1.283,0.528,2.612,1.076,3.97,1.635c2.68,1.221,5.639,2.023,8.493,3l1.073,0.353c0.36,0.106,0.726,0.183,1.087,0.275
								c0.724,0.178,1.443,0.354,2.155,0.529c1.424,0.35,2.817,0.692,4.158,1.021c2.727,0.455,5.246,0.875,7.392,1.232
								c2.167,0.196,3.96,0.37,5.212,0.51C448.333,333.759,449.043,333.865,449.041,333.925z"/>
						</g>
					</g>
				</g>
				<g>
					<g>
						<g>
							<path fill="#FFFFFF" d="M447.866,326.819c-0.002,0.06-0.597,0.075-1.652,0.054c-1.055-0.021-2.569-0.078-4.405-0.162
								c-1.818-0.228-3.95-0.551-6.264-0.887c-1.136-0.273-2.315-0.556-3.521-0.846c-1.198-0.317-2.459-0.528-3.654-0.988
								c-2.409-0.849-4.919-1.561-7.165-2.659c-1.142-0.505-2.26-0.999-3.339-1.475c-1.059-0.518-2.037-1.099-2.986-1.606
								c-0.943-0.519-1.833-1.008-2.653-1.46c-0.81-0.47-1.502-0.981-2.143-1.394c-1.266-0.85-2.212-1.486-2.722-1.828
								c-1.043-0.655-1.82-1.429-2.537-2.034c-0.702-0.625-1.275-1.172-1.717-1.632c-0.886-0.921-1.25-1.497-1.09-1.678
								c0.16-0.181,0.811,0.066,1.884,0.731c0.537,0.333,1.179,0.771,1.92,1.314c0.756,0.523,1.543,1.243,2.563,1.882
								c0.495,0.34,1.413,0.971,2.642,1.815c0.62,0.413,1.289,0.926,2.072,1.4c0.794,0.457,1.655,0.953,2.568,1.478
								c0.918,0.515,1.864,1.107,2.89,1.638c1.046,0.492,2.13,1.003,3.236,1.524c2.177,1.136,4.616,1.897,6.96,2.808
								c1.162,0.491,2.391,0.736,3.56,1.09c1.177,0.33,2.329,0.653,3.438,0.964c2.265,0.43,4.357,0.828,6.14,1.167
								c1.805,0.186,3.299,0.351,4.343,0.486C447.275,326.656,447.867,326.759,447.866,326.819z"/>
						</g>
					</g>
				</g>
				<g>
					<g>
						<g>
							<path fill="#FFFFFF" d="M472.564,324.231c-0.009,0.06-0.751-0.009-2.056-0.178c-1.305-0.169-3.174-0.438-5.435-0.778
								c-2.243-0.429-4.867-0.989-7.714-1.58c-1.406-0.367-2.866-0.748-4.358-1.137c-1.484-0.419-3.034-0.743-4.536-1.262
								c-3.017-0.996-6.13-1.87-9.007-3.03c-1.451-0.547-2.872-1.083-4.243-1.6c-1.366-0.53-2.644-1.131-3.874-1.652
								c-1.225-0.534-2.381-1.037-3.447-1.502c-1.067-0.465-2.004-0.974-2.857-1.384c-1.694-0.844-2.961-1.476-3.643-1.816
								c-1.376-0.659-2.514-1.392-3.513-1.992c-0.993-0.612-1.815-1.151-2.463-1.608c-1.296-0.915-1.895-1.504-1.771-1.711
								c0.124-0.207,0.945,0.007,2.39,0.642c0.722,0.318,1.6,0.741,2.626,1.27c1.032,0.517,2.18,1.2,3.543,1.852
								c0.672,0.342,1.92,0.978,3.589,1.828c0.839,0.415,1.761,0.933,2.809,1.408c1.048,0.476,2.184,0.992,3.389,1.54
								c1.209,0.536,2.466,1.154,3.809,1.703c1.348,0.538,2.745,1.096,4.172,1.666c2.829,1.209,5.893,2.142,8.863,3.206
								c1.479,0.553,3.005,0.914,4.468,1.371c1.471,0.431,2.909,0.853,4.295,1.26c2.807,0.686,5.399,1.321,7.608,1.861
								c2.231,0.441,4.075,0.817,5.359,1.097C471.848,323.985,472.573,324.171,472.564,324.231z"/>
						</g>
					</g>
				</g>
				<g>
					<g>
						<g>
							<path fill="#FFFFFF" d="M473.731,311.144c-0.003,0.121-2.346,0.087-5.95-0.039c-1.792-0.161-3.893-0.405-6.173-0.654
								c-1.128-0.201-2.299-0.41-3.497-0.624c-1.192-0.242-2.435-0.386-3.641-0.731c-2.422-0.642-4.925-1.158-7.229-1.988
								c-1.164-0.38-2.303-0.752-3.402-1.111c-1.092-0.379-2.113-0.829-3.096-1.21c-0.979-0.393-1.903-0.764-2.755-1.107
								c-0.85-0.347-1.593-0.746-2.271-1.059c-1.346-0.65-2.352-1.136-2.894-1.398c-1.097-0.501-1.982-1.103-2.767-1.584
								c-0.777-0.495-1.417-0.934-1.918-1.312c-1.002-0.755-1.446-1.26-1.319-1.465c0.126-0.205,0.797-0.074,1.946,0.4
								c0.575,0.237,1.269,0.56,2.076,0.97c0.814,0.396,1.707,0.946,2.785,1.438c0.53,0.263,1.513,0.752,2.828,1.405
								c0.662,0.318,1.386,0.723,2.215,1.08c0.831,0.353,1.732,0.736,2.686,1.141c0.959,0.395,1.954,0.862,3.02,1.259
								c1.073,0.38,2.186,0.773,3.322,1.175c2.251,0.877,4.698,1.453,7.07,2.164c1.181,0.38,2.4,0.56,3.569,0.842
								c1.176,0.257,2.326,0.508,3.434,0.749c2.243,0.347,4.314,0.668,6.079,0.941C471.402,310.759,473.734,311.023,473.731,311.144
								z"/>
						</g>
					</g>
				</g>
				<g>
					<g>
						<g>
							<path fill="#FFFFFF" d="M487.134,302.102c0.011,0.059-0.532,0.201-1.508,0.405c-0.486,0.117-1.085,0.211-1.781,0.278
								c-0.694,0.085-1.481,0.179-2.348,0.191c-1.733,0.118-3.771-0.01-5.966-0.224c-2.186-0.281-4.527-0.701-6.858-1.303
								c-4.665-1.198-9.302-2.953-13.014-4.487c-3.716-1.535-6.545-2.798-7.59-3.257c-4.174-1.86-6.258-3.217-6.062-3.657
								c0.196-0.441,2.6,0.202,6.773,2.061c1.04,0.467,3.861,1.733,7.507,3.37c3.651,1.604,8.175,3.451,12.711,4.778
								c2.267,0.666,4.538,1.16,6.666,1.527c2.134,0.299,4.122,0.524,5.823,0.512C484.892,302.35,487.108,301.943,487.134,302.102z"
								/>
						</g>
					</g>
				</g>
				<g>
					<g>
						<g>
							<path fill="#FFFFFF" d="M498.826,283.643c0.041,0.113-2.062,0.879-5.327,1.99c-1.659,0.454-3.629,0.911-5.76,1.433
								c-1.076,0.202-2.205,0.355-3.354,0.541c-0.576,0.089-1.158,0.179-1.744,0.269c-0.585,0.101-1.178,0.179-1.777,0.206
								c-1.197,0.085-2.403,0.171-3.602,0.257c-0.6,0.032-1.197,0.106-1.792,0.103c-0.595-0.006-1.186-0.011-1.772-0.017
								c-1.172-0.013-2.319-0.025-3.426-0.037c-1.107-0.023-2.166-0.174-3.172-0.25c-1.006-0.093-1.955-0.181-2.831-0.262
								c-0.876-0.078-1.663-0.267-2.37-0.374c-1.409-0.25-2.463-0.436-3.031-0.537c-1.143-0.171-2.109-0.52-2.953-0.773
								c-0.84-0.269-1.54-0.521-2.095-0.751c-1.11-0.459-1.639-0.826-1.568-1.056c0.071-0.23,0.727-0.282,1.904-0.133
								c0.589,0.075,1.308,0.2,2.152,0.378c0.847,0.163,1.802,0.458,2.919,0.624c0.554,0.105,1.582,0.299,2.956,0.559
								c0.689,0.116,1.456,0.317,2.311,0.409c0.855,0.097,1.781,0.202,2.763,0.313c0.983,0.095,2.018,0.269,3.101,0.318
								c1.084,0.04,2.208,0.081,3.356,0.122c0.574,0.022,1.154,0.044,1.738,0.066c0.584,0.021,1.171-0.036,1.761-0.05
								c1.18-0.047,2.368-0.094,3.546-0.141c0.591-0.006,1.176-0.063,1.754-0.143c0.58-0.068,1.155-0.136,1.724-0.203
								c1.138-0.14,2.257-0.247,3.327-0.4c2.124-0.417,4.087-0.801,5.759-1.129C496.611,284.076,498.785,283.53,498.826,283.643z"/>
						</g>
					</g>
				</g>
			</g>
			<g clip-path="url(#SVGID_12_)">
				<g>
					<g>
						<path fill="#FFFFFF" d="M372.465,299.498c-0.01,0.066-1.167-0.084-3.207-0.402c-1.016-0.178-2.27-0.316-3.679-0.641
							c-1.411-0.322-3.006-0.687-4.753-1.086c-6.939-1.774-16.143-4.981-24.893-9.817c-8.792-4.741-17.124-10.906-23.267-16.634
							c-3.057-2.879-5.669-5.541-7.617-7.793c-2.037-2.174-3.336-3.989-4.108-4.907c-1.538-1.844-2.681-3.638-3.711-5.152
							c-0.501-0.767-0.988-1.456-1.369-2.126c-0.371-0.676-0.706-1.287-1.006-1.834c-1.167-2.201-1.636-3.409-1.405-3.543
							c0.231-0.135,1.117,0.826,2.563,2.811c0.354,0.501,0.751,1.062,1.189,1.681c0.433,0.622,0.962,1.267,1.495,1.993
							c1.094,1.433,2.258,3.164,3.77,4.975c0.759,0.901,2.023,2.694,4.007,4.847c1.895,2.231,4.438,4.874,7.413,7.744
							c5.98,5.709,14.105,11.9,22.709,16.738c8.561,4.931,17.599,8.304,24.43,10.288c1.721,0.46,3.292,0.88,4.681,1.252
							c1.388,0.382,2.625,0.579,3.625,0.819C371.339,299.153,372.475,299.432,372.465,299.498z"/>
					</g>
				</g>
			</g>
			<g clip-path="url(#SVGID_12_)">
				<g>
					<g>
						<path fill="#FFFFFF" d="M371.203,292.657c-0.028,0.061-0.958-0.324-2.58-1.052c-1.623-0.728-3.938-1.8-6.736-3.112
							c-2.74-1.423-5.904-3.194-9.354-5.075c-1.694-0.993-3.4-2.111-5.173-3.21c-0.883-0.555-1.776-1.116-2.675-1.682
							c-0.901-0.563-1.812-1.125-2.673-1.768c-1.749-1.248-3.511-2.504-5.262-3.753c-0.871-0.63-1.757-1.237-2.606-1.88
							c-0.83-0.668-1.654-1.331-2.471-1.988c-1.632-1.315-3.23-2.603-4.772-3.846c-0.786-0.605-1.498-1.266-2.201-1.905
							c-0.704-0.638-1.392-1.261-2.061-1.868c-1.338-1.214-2.6-2.359-3.764-3.415c-1.186-1.034-2.134-2.125-3.049-3.02
							c-1.789-1.83-3.126-3.198-3.846-3.936c-1.471-1.447-2.594-2.891-3.598-4.105c-0.993-1.224-1.806-2.274-2.438-3.139
							c-1.263-1.73-1.797-2.718-1.589-2.887c0.208-0.169,1.116,0.512,2.636,2.003c0.76,0.746,1.673,1.694,2.73,2.842
							c1.067,1.138,2.217,2.53,3.673,3.962c0.708,0.735,2.022,2.098,3.779,3.922c0.896,0.894,1.822,1.986,2.984,3.023
							c1.14,1.061,2.375,2.21,3.684,3.429c0.654,0.61,1.327,1.237,2.016,1.879c0.688,0.643,1.384,1.31,2.153,1.92
							c1.508,1.256,3.072,2.557,4.669,3.886c0.798,0.665,1.604,1.337,2.416,2.014c0.831,0.652,1.698,1.269,2.551,1.91
							c1.713,1.273,3.438,2.554,5.149,3.826c0.842,0.657,1.734,1.233,2.616,1.811c0.88,0.581,1.754,1.158,2.618,1.729
							c1.735,1.131,3.405,2.285,5.062,3.316c3.378,1.957,6.473,3.816,9.147,5.336c2.733,1.409,4.988,2.587,6.553,3.427
							C370.355,292.093,371.231,292.596,371.203,292.657z"/>
					</g>
				</g>
			</g>
			<g clip-path="url(#SVGID_12_)">
				<g>
					<g>
						<path fill="#FFFFFF" d="M393.627,290.428c-0.023,0.063-1.136-0.315-3.085-1.032c-1.944-0.736-4.731-1.791-8.102-3.067
							c-3.314-1.417-7.157-3.194-11.341-5.074c-2.063-0.999-4.156-2.136-6.322-3.246c-1.08-0.562-2.172-1.13-3.272-1.702
							c-1.101-0.57-2.215-1.137-3.281-1.797c-2.159-1.276-4.333-2.561-6.495-3.838c-1.077-0.645-2.166-1.264-3.219-1.924
							c-1.035-0.689-2.063-1.373-3.081-2.051c-2.035-1.357-4.028-2.685-5.951-3.967c-0.976-0.621-1.877-1.311-2.764-1.975
							c-0.888-0.664-1.757-1.312-2.601-1.942c-1.688-1.262-3.28-2.453-4.75-3.551c-0.745-0.536-1.427-1.091-2.062-1.635
							c-0.642-0.536-1.251-1.045-1.823-1.523c-2.289-1.918-4-3.351-4.922-4.124c-1.874-1.512-3.359-3.043-4.675-4.325
							c-1.307-1.294-2.386-2.405-3.235-3.321c-1.696-1.833-2.466-2.888-2.277-3.077c0.188-0.19,1.297,0.519,3.226,2.089
							c0.964,0.785,2.133,1.785,3.496,2.997c1.373,1.201,2.881,2.679,4.739,4.178c0.91,0.772,2.598,2.204,4.856,4.12
							c0.564,0.48,1.163,0.99,1.795,1.528c0.625,0.546,1.296,1.103,2.029,1.642c1.446,1.106,3.013,2.305,4.674,3.575
							c0.83,0.636,1.684,1.29,2.558,1.959c0.873,0.671,1.759,1.367,2.719,1.996c1.892,1.298,3.853,2.645,5.855,4.019
							c1.001,0.688,2.012,1.383,3.03,2.083c1.036,0.671,2.109,1.302,3.168,1.959c2.127,1.305,4.267,2.618,6.391,3.922
							c1.049,0.676,2.145,1.259,3.229,1.845c1.083,0.59,2.157,1.175,3.221,1.754c2.132,1.147,4.192,2.322,6.222,3.363
							c4.119,1.963,7.901,3.833,11.158,5.352c3.306,1.413,6.038,2.581,7.945,3.396C392.583,289.866,393.65,290.366,393.627,290.428z
							"/>
					</g>
				</g>
			</g>
			<g clip-path="url(#SVGID_12_)">
				<g>
					<g>
						<path fill="#FFFFFF" d="M411.576,287.301c-0.011,0.032-0.318-0.046-0.887-0.219c-0.566-0.184-1.398-0.454-2.459-0.798
							c-2.113-0.728-5.142-1.771-8.807-3.033c-3.606-1.419-7.79-3.211-12.345-5.1c-2.247-1.012-4.528-2.174-6.889-3.304
							c-1.177-0.572-2.367-1.151-3.565-1.734c-1.2-0.58-2.413-1.157-3.577-1.839c-2.355-1.312-4.727-2.634-7.084-3.948
							c-1.175-0.664-2.363-1.299-3.512-1.98c-1.13-0.715-2.252-1.424-3.363-2.127c-2.221-1.407-4.397-2.785-6.496-4.114
							c-1.065-0.643-2.049-1.363-3.018-2.057c-0.97-0.693-1.918-1.369-2.84-2.027c-1.844-1.317-3.583-2.56-5.187-3.707
							c-0.814-0.559-1.558-1.14-2.252-1.712c-0.701-0.563-1.366-1.096-1.992-1.598c-2.501-2.012-4.37-3.517-5.378-4.328
							c-2.048-1.583-3.673-3.201-5.116-4.55c-1.432-1.363-2.618-2.532-3.551-3.496c-1.868-1.928-2.728-3.033-2.542-3.226
							c0.185-0.193,1.379,0.561,3.473,2.221c1.047,0.83,2.32,1.887,3.806,3.167c1.497,1.267,3.144,2.831,5.176,4.401
							c0.995,0.81,2.841,2.313,5.31,4.324c0.617,0.504,1.272,1.039,1.963,1.603c0.684,0.574,1.417,1.158,2.219,1.719
							c1.581,1.154,3.294,2.405,5.111,3.731c0.908,0.664,1.842,1.346,2.797,2.045c0.954,0.7,1.924,1.428,2.973,2.078
							c2.068,1.346,4.211,2.742,6.4,4.167c1.094,0.713,2.2,1.434,3.312,2.159c1.132,0.693,2.303,1.34,3.461,2.017
							c2.323,1.342,4.661,2.693,6.982,4.034c1.146,0.697,2.342,1.291,3.526,1.888c1.182,0.601,2.355,1.197,3.515,1.787
							c2.327,1.167,4.577,2.369,6.792,3.423c4.492,1.974,8.617,3.861,12.169,5.383c3.603,1.401,6.581,2.558,8.659,3.365
							c1.033,0.423,1.842,0.754,2.393,0.979C411.3,287.129,411.586,287.269,411.576,287.301z"/>
					</g>
				</g>
			</g>
			<g clip-path="url(#SVGID_12_)">
				<g>
					<g>
						<path fill="#FFFFFF" d="M415.642,272.189c-0.016,0.065-1.148-0.178-3.138-0.657c-1.988-0.499-4.837-1.215-8.284-2.081
							c-3.4-1.033-7.352-2.38-11.652-3.783c-2.123-0.773-4.284-1.695-6.517-2.576c-1.114-0.448-2.24-0.901-3.374-1.358
							c-1.136-0.453-2.284-0.902-3.387-1.462c-2.232-1.066-4.48-2.139-6.714-3.206c-1.113-0.541-2.239-1.051-3.329-1.613
							c-1.071-0.597-2.136-1.189-3.189-1.776c-2.107-1.175-4.171-2.326-6.161-3.436c-1.01-0.531-1.943-1.149-2.862-1.742
							c-0.92-0.591-1.819-1.169-2.693-1.731c-1.748-1.125-3.398-2.186-4.92-3.166c-0.379-0.247-0.75-0.488-1.113-0.725
							c-0.349-0.257-0.689-0.507-1.021-0.752c-0.664-0.489-1.294-0.953-1.887-1.39c-2.369-1.75-4.14-3.059-5.094-3.764
							c-1.941-1.369-3.475-2.812-4.839-4.006c-1.353-1.208-2.473-2.248-3.354-3.109c-1.763-1.721-2.571-2.721-2.391-2.92
							c0.179-0.199,1.31,0.441,3.289,1.885c0.99,0.722,2.191,1.646,3.594,2.768c1.414,1.108,2.965,2.495,4.888,3.85
							c0.941,0.704,2.687,2.011,5.022,3.758c0.583,0.438,1.203,0.903,1.856,1.394c0.327,0.245,0.662,0.497,1.004,0.755
							c0.357,0.238,0.722,0.481,1.095,0.729c1.497,0.987,3.119,2.056,4.839,3.19c0.86,0.568,1.744,1.151,2.649,1.748
							c0.904,0.599,1.821,1.224,2.815,1.763c1.959,1.128,3.989,2.297,6.062,3.491c1.037,0.598,2.084,1.202,3.138,1.81
							c1.072,0.574,2.181,1.096,3.277,1.651c2.2,1.097,4.414,2.2,6.611,3.296c1.086,0.576,2.217,1.043,3.337,1.513
							c1.118,0.475,2.227,0.947,3.325,1.413c2.201,0.919,4.331,1.883,6.424,2.7c4.24,1.491,8.139,2.937,11.492,4.076
							c3.396,1.009,6.203,1.843,8.162,2.425C414.556,271.755,415.658,272.124,415.642,272.189z"/>
					</g>
				</g>
			</g>
			<g clip-path="url(#SVGID_12_)">
				<g>
					<g>
						<path fill="#FFFFFF" d="M430.961,262.205c-0.009,0.066-1.186-0.064-3.262-0.346c-2.076-0.302-5.051-0.735-8.651-1.259
							c-3.566-0.712-7.724-1.7-12.243-2.705c-2.237-0.585-4.524-1.328-6.883-2.017c-1.177-0.353-2.367-0.711-3.565-1.07
							c-1.2-0.356-2.412-0.706-3.585-1.183c-2.369-0.891-4.756-1.789-7.127-2.682c-1.183-0.455-2.376-0.874-3.535-1.355
							c-1.142-0.521-2.277-1.038-3.4-1.549c-2.246-1.026-4.446-2.03-6.569-2.999c-1.075-0.457-2.075-1.017-3.059-1.552
							c-0.985-0.533-1.947-1.053-2.882-1.56c-1.871-1.014-3.636-1.971-5.265-2.853c-0.406-0.224-0.809-0.431-1.192-0.655
							c-0.374-0.237-0.74-0.469-1.097-0.695c-0.713-0.452-1.39-0.881-2.026-1.284c-2.544-1.618-4.446-2.828-5.471-3.48
							c-2.084-1.255-3.742-2.633-5.215-3.762c-1.462-1.144-2.675-2.132-3.633-2.951c-1.916-1.638-2.81-2.602-2.643-2.811
							c0.167-0.209,1.361,0.374,3.474,1.722c1.057,0.674,2.344,1.539,3.848,2.593c1.516,1.038,3.186,2.359,5.249,3.6
							c1.01,0.651,2.885,1.86,5.393,3.476c0.626,0.405,1.292,0.836,1.994,1.29c0.351,0.227,0.711,0.46,1.079,0.699
							c0.376,0.225,0.774,0.434,1.173,0.659c1.603,0.891,3.341,1.857,5.182,2.881c0.921,0.513,1.868,1.04,2.837,1.579
							c0.968,0.542,1.952,1.11,3.011,1.575c2.09,0.988,4.257,2.013,6.47,3.059c1.106,0.524,2.224,1.053,3.349,1.586
							c1.142,0.493,2.319,0.926,3.485,1.396c2.339,0.924,4.693,1.855,7.029,2.778c1.157,0.495,2.353,0.863,3.538,1.238
							c1.183,0.38,2.358,0.757,3.52,1.13c2.329,0.73,4.587,1.517,6.798,2.148c4.466,1.098,8.578,2.188,12.107,3.011
							c3.563,0.671,6.507,1.226,8.561,1.613C429.809,261.879,430.97,262.139,430.961,262.205z"/>
					</g>
				</g>
			</g>
			<path opacity="0.31" clip-path="url(#SVGID_12_)" fill="#233C71" d="M274.144,254.244c25.748,0.087,50.555-10.297,70.485-29.505
				c5.678-5.472,11.426-13.231,10.364-23.293c3.785,5.114,7.569,10.228,11.354,15.342c-20.899,24.672-47.322,40.844-75.789,46.387
				c-6.906,1.345-18.267,3.918-25.249-1.21c-1.62-1.19-4.204-4.475-2.98-6.987C263.552,252.467,272.006,254.237,274.144,254.244z"/>
			<path opacity="0.31" clip-path="url(#SVGID_12_)" fill="#233C71" d="M316.299,290.241c1.314-0.244,2.596-1.077,3.675-0.711
				c39.746,13.482,113.836-1.015,134.735-25.687c-3.784-5.114-66.515-30.928-70.3-36.042c1.061,10.061-4.686,17.821-10.364,23.293
				c-17.763,17.119-39.718,31.594-62.511,34.485C313.162,287.048,314.755,288.591,316.299,290.241z"/>
		</g>
		<path fill="#F8C661" d="M249.062,127.649c0.844-4.425-1.137-7.632-3.668-11.553c-2.531-3.921-6.228-6.761-10.169-3.298
			c-3.941,3.463-5.745,7.124-4.152,10.775C232.664,127.224,249.062,127.649,249.062,127.649z"/>
		<g>
			<g>
				<path opacity="0.79" fill="#A28887" d="M263.186,117.2c-0.288,2.495-2.606,4.292-5.178,4.013
					c-2.572-0.279-4.423-2.529-4.135-5.025c0.288-2.496,2.606-4.292,5.178-4.013C261.623,112.455,263.474,114.704,263.186,117.2z"/>
				<path fill="#212121" d="M261.324,116.998c-0.173,1.498-1.564,2.576-3.108,2.408c-1.544-0.168-2.655-1.518-2.482-3.016
					c0.173-1.498,1.564-2.576,3.108-2.408C260.386,114.15,261.497,115.5,261.324,116.998z"/>
				<path fill="#FFFFFF" d="M260.212,115.848c-0.065,0.561-0.586,0.965-1.165,0.903c-0.578-0.063-0.995-0.569-0.93-1.13
					c0.065-0.561,0.586-0.965,1.165-0.903C259.86,114.78,260.277,115.286,260.212,115.848z"/>
			</g>
			<path opacity="0.46" fill="#A28887" d="M254.184,116.694c-1.357,0.425-2.333,0.793-1.628,1.531
				c0.705,0.737,1.628,1.106,2.496,0.948S254.184,116.694,254.184,116.694z"/>
		</g>
		<path fill="#F39332" d="M226.888,126.199c0,0-11.122,1.833-9.614,4.475c1.368,2.396,6.557,1.212,11.301,4.516
			c4.744,3.303,7.498,5.026,12.399,4.725c4.901-0.301,9.389-1.901,10.702-6.333c1.313-4.432,0.02-7.001-3.596-7.347
			C244.464,125.889,226.888,126.199,226.888,126.199z"/>
		<path fill="#F8C661" d="M220.077,129.279c-5.454,1.558-9.478-4.074,8.831-7.164c8.26-1.394,10.028-3.076,12.644-3.615
			c2.615-0.539,4.166,3.15,6.321,4.342c2.154,1.192,5.744,4.188,1.229,7.682c-4.515,3.494-15.349-0.382-19.741-1.058
			C224.966,128.789,220.077,129.279,220.077,129.279z"/>
		<g opacity="0.21">
			<g>
				<g>
					<g>
						<path fill="#243C71" d="M269.096,296.267c0,0,0.104,0.116,0.287,0.321c0.092,0.104,0.204,0.231,0.333,0.377
							c0.11,0.162,0.234,0.345,0.37,0.546c0.523,0.816,1.049,2.079,1.149,3.495c0.117,1.396-0.19,2.945-0.909,4.04
							c-0.659,1.123-1.703,1.714-2.111,1.818c-0.101,0.033-0.246,0.074-0.428,0.119c-0.185,0.032-0.418,0.032-0.676,0.04
							c-0.514-0.001-1.162-0.159-1.729-0.514c-1.163-0.688-1.997-1.95-2.454-3.194c-0.302-0.598-0.414-1.257-0.585-1.829
							c-0.127-0.587-0.16-1.145-0.227-1.602c0.011-0.927,0.018-1.532,0.018-1.532s0.105,0.559,0.268,1.424
							c0.143,0.416,0.295,0.905,0.486,1.418c0.271,0.486,0.459,1.048,0.822,1.531c0.612,1.034,1.489,1.915,2.28,2.262
							c0.795,0.332,1.34,0.163,1.599,0.044c0.183-0.048,0.795-0.228,1.418-0.949c0.64-0.674,1.132-1.846,1.26-3.085
							c0.143-1.234-0.104-2.482-0.45-3.347c-0.092-0.216-0.177-0.413-0.252-0.588c-0.096-0.164-0.18-0.306-0.249-0.424
							C269.176,296.401,269.096,296.267,269.096,296.267z"/>
					</g>
				</g>
			</g>
			<g>
				<g>
					<g>
						<path fill="#243C71" d="M276.228,283.727c0,0,0.083,0.09,0.229,0.249c0.149,0.159,0.365,0.388,0.577,0.706
							c0.449,0.615,0.962,1.551,1.22,2.632c0.272,1.083,0.293,2.248,0.094,3.249c-0.06,0.252-0.148,0.497-0.221,0.721
							c-0.109,0.224-0.23,0.431-0.337,0.611c-0.267,0.343-0.536,0.586-0.686,0.685c-0.171,0.069-0.475,0.285-0.921,0.329
							c-0.442,0.077-0.996,0.038-1.498-0.165c-1.021-0.362-1.942-1.273-2.371-2.274c-0.245-0.482-0.42-0.951-0.571-1.388
							c-0.16-0.428-0.307-0.822-0.433-1.159c-0.298-0.639-0.531-1.059-0.531-1.059s0.306,0.321,0.77,0.864
							c0.425,0.555,0.924,1.399,1.512,2.109c0.546,0.745,1.318,1.2,1.958,1.304c0.644,0.105,0.899-0.131,1.036-0.19
							c0.071-0.091,0.435-0.182,0.732-0.877c0.289-0.663,0.524-1.66,0.506-2.63c0.001-0.979-0.248-1.938-0.526-2.615
							c-0.125-0.348-0.275-0.615-0.38-0.803C276.287,283.835,276.228,283.727,276.228,283.727z"/>
					</g>
				</g>
			</g>
			<g>
				<g>
					<g>
						<path fill="#243C71" d="M255.108,292.672c0,0,0.224,0.429,0.567,1.085c0.326,0.665,0.749,1.601,0.896,2.71
							c0.083,0.546,0.062,1.143-0.072,1.724c-0.152,0.563-0.376,1.096-0.695,1.515c-0.608,0.859-1.45,1.323-1.799,1.369
							c-0.294,0.121-1.33,0.218-2.292-0.362c-0.954-0.578-1.595-1.686-1.768-2.782c-0.13-1.093,0.036-2.072,0.214-2.768
							c0.17-0.697,0.308-1.14,0.308-1.14s-0.001,0.442-0.002,1.126c0.013,0.676,0.083,1.597,0.388,2.417
							c0.304,0.8,0.954,1.438,1.509,1.642c0.278,0.093,0.515,0.129,0.703,0.094c0.094-0.019,0.175-0.027,0.246-0.029
							c0.07-0.028,0.128-0.053,0.175-0.064c0.134-0.002,0.56-0.124,1.07-0.559c0.508-0.453,0.98-1.207,1.045-2.164
							c0.105-0.934-0.058-1.916-0.213-2.628C255.219,293.14,255.108,292.672,255.108,292.672z"/>
					</g>
				</g>
			</g>
			<g>
				<g>
					<g>
						<path fill="#243C71" d="M261.975,276.753c0,0,0.259,0.499,0.655,1.262c0.18,0.392,0.352,0.87,0.56,1.387
							c0.181,0.523,0.325,1.105,0.49,1.699c0.192,1.193,0.544,2.453,0.092,3.739c-0.212,0.634-0.676,1.147-1.133,1.436
							c-0.227,0.133-0.447,0.212-0.625,0.285c-0.179,0.047-0.324,0.067-0.426,0.083c-0.401,0.068-1.496-0.019-2.466-0.796
							c-0.955-0.839-1.466-2.109-1.691-3.267c-0.233-1.164-0.358-2.23-0.651-2.989c-0.111-0.395-0.284-0.678-0.402-0.884
							c-0.116-0.208-0.182-0.326-0.182-0.326s0.086,0.095,0.239,0.263c0.151,0.171,0.399,0.407,0.593,0.764
							c0.469,0.673,0.848,1.735,1.283,2.735c0.418,1.011,1.051,1.896,1.656,2.286c0.621,0.38,1.21,0.311,1.392,0.289
							c0.175-0.019,0.546,0.025,0.916-0.535c0.177-0.287,0.315-0.741,0.37-1.269c0.055-0.531,0.045-1.124,0.073-1.698
							c-0.04-0.57-0.059-1.145-0.125-1.674c-0.092-0.522-0.159-1.017-0.25-1.431C262.121,277.29,261.975,276.753,261.975,276.753z"
							/>
					</g>
				</g>
			</g>
			<g>
				<g>
					<g>
						<path fill="#243C71" d="M248.795,238.345c0,0,0.259,0.499,0.655,1.262c0.18,0.392,0.352,0.87,0.56,1.387
							c0.181,0.523,0.325,1.105,0.49,1.699c0.192,1.193,0.544,2.453,0.092,3.739c-0.212,0.634-0.676,1.148-1.133,1.436
							c-0.227,0.133-0.447,0.212-0.625,0.285c-0.179,0.047-0.324,0.067-0.426,0.083c-0.401,0.068-1.496-0.019-2.466-0.796
							c-0.954-0.839-1.467-2.109-1.691-3.267c-0.233-1.164-0.358-2.23-0.651-2.989c-0.111-0.395-0.284-0.678-0.402-0.884
							c-0.116-0.208-0.182-0.326-0.182-0.326s0.086,0.095,0.239,0.263c0.151,0.171,0.399,0.407,0.593,0.764
							c0.469,0.673,0.849,1.735,1.283,2.735c0.418,1.011,1.051,1.896,1.656,2.286c0.621,0.38,1.21,0.311,1.392,0.289
							c0.175-0.02,0.546,0.025,0.916-0.535c0.177-0.287,0.315-0.741,0.37-1.269c0.055-0.531,0.045-1.124,0.073-1.698
							c-0.04-0.57-0.059-1.145-0.125-1.674c-0.092-0.522-0.159-1.017-0.25-1.431C248.941,238.882,248.795,238.345,248.795,238.345z"
							/>
					</g>
				</g>
			</g>
			<g>
				<g>
					<g>
						<path fill="#243C71" d="M288.859,303.749c0,0,0.251,0.323,0.606,0.848c0.37,0.515,0.803,1.278,1.047,2.223
							c0.222,0.946,0.077,2.081-0.499,2.901c-0.591,0.814-1.411,1.116-1.668,1.161c-0.273,0.064-1.038,0.125-1.854-0.178
							c-0.403-0.156-0.826-0.368-1.204-0.672c-0.403-0.288-0.659-0.69-0.96-1.035c-0.264-0.368-0.456-0.765-0.647-1.111
							c-0.15-0.363-0.288-0.698-0.405-0.983c-0.198-0.575-0.328-0.95-0.328-0.95s0.226,0.302,0.574,0.768
							c0.183,0.221,0.398,0.481,0.632,0.763c0.244,0.268,0.533,0.523,0.808,0.784c0.325,0.192,0.613,0.455,0.928,0.576
							c0.3,0.144,0.624,0.211,0.901,0.243c0.569,0.062,0.956-0.055,1.121-0.094c0.133-0.026,0.467-0.05,0.856-0.331
							c0.377-0.29,0.743-0.981,0.78-1.756c0.023-0.768-0.147-1.594-0.355-2.178C289.005,304.134,288.859,303.749,288.859,303.749z"
							/>
					</g>
				</g>
			</g>
			<g>
				<g>
					<g>
						<path fill="#243C71" d="M295.249,287.696c0,0,0.324,0.304,0.819,0.769c0.236,0.251,0.513,0.545,0.813,0.864
							c0.249,0.364,0.583,0.726,0.806,1.176c0.215,0.456,0.47,0.914,0.561,1.447c0.049,0.258,0.061,0.516,0.082,0.767
							c-0.015,0.249-0.017,0.495-0.052,0.726c-0.115,0.938-0.618,1.604-0.796,1.824c-0.111,0.098-0.317,0.284-0.618,0.477
							c-0.327,0.164-0.746,0.351-1.24,0.384c-0.992,0.083-2.062-0.359-2.788-1.042c-0.713-0.699-1.176-1.482-1.453-2.08
							c-0.291-0.591-0.455-0.985-0.455-0.985s0.253,0.318,0.645,0.809c0.389,0.486,0.981,1.095,1.663,1.534
							c0.684,0.411,1.526,0.572,2.071,0.408c0.566-0.121,0.806-0.499,0.969-0.615c0.08-0.13,0.441-0.404,0.655-1.033
							c0.254-0.615,0.268-1.449,0.001-2.298c-0.101-0.427-0.331-0.817-0.482-1.207c-0.215-0.366-0.413-0.704-0.582-0.993
							C295.494,288.064,295.249,287.696,295.249,287.696z"/>
					</g>
				</g>
			</g>
			<g>
				<g>
					<g>
						<path fill="#243C71" d="M292.948,269.921c0,0,0.09,0.076,0.248,0.211c0.08,0.069,0.178,0.154,0.291,0.251
							c0.095,0.115,0.203,0.245,0.32,0.388c0.454,0.584,0.91,1.554,0.951,2.669c0.073,1.108-0.366,2.325-1.017,3.086
							c-0.635,0.775-1.336,1.181-1.597,1.291c-0.263,0.104-1.004,0.376-1.985,0.301c-0.976-0.039-2.122-0.505-2.886-1.256
							c-0.788-0.735-1.216-1.675-1.367-2.372c-0.033-0.175-0.064-0.335-0.09-0.476c-0.003-0.143-0.006-0.268-0.009-0.37
							c-0.004-0.2-0.006-0.314-0.006-0.314s0.031,0.104,0.086,0.288c0.048,0.184,0.127,0.442,0.289,0.726
							c0.288,0.574,0.849,1.257,1.588,1.679c0.734,0.438,1.577,0.567,2.228,0.469c0.667-0.073,1.138-0.366,1.371-0.448
							c0.17-0.071,0.662-0.241,1.203-0.655c0.542-0.405,1.054-1.128,1.225-2.015c0.19-0.877,0.03-1.815-0.246-2.45
							c-0.074-0.159-0.142-0.305-0.202-0.433c-0.081-0.117-0.152-0.219-0.209-0.302
							C293.016,270.018,292.948,269.921,292.948,269.921z"/>
					</g>
				</g>
			</g>
			<g>
				<g>
					<g>
						<path fill="#243C71" d="M273.976,265.964c0,0,0.083,0.052,0.229,0.143c0.074,0.047,0.165,0.105,0.269,0.171
							c0.09,0.085,0.192,0.181,0.304,0.286c0.433,0.436,0.888,1.209,0.982,2.133c0.123,0.917-0.218,1.954-0.755,2.588
							c-0.524,0.647-1.109,0.981-1.325,1.069c-0.218,0.085-0.833,0.308-1.643,0.235c-0.808-0.043-1.744-0.448-2.363-1.079
							c-0.638-0.619-0.979-1.399-1.101-1.976c-0.071-0.29-0.086-0.531-0.081-0.701c-0.004-0.166-0.006-0.26-0.006-0.26
							c0.023-0.007,0.05,0.366,0.302,0.845c0.231,0.48,0.683,1.061,1.287,1.43c0.6,0.383,1.302,0.513,1.845,0.444
							c0.557-0.048,0.952-0.287,1.146-0.354c0.142-0.057,0.551-0.2,0.992-0.547c0.442-0.342,0.844-0.953,0.93-1.695
							c0.103-0.733-0.108-1.496-0.402-1.987c-0.079-0.122-0.15-0.234-0.214-0.332c-0.081-0.085-0.152-0.159-0.21-0.22
							C274.044,266.034,273.976,265.964,273.976,265.964z"/>
					</g>
				</g>
			</g>
			<g>
				<g>
					<g>
						<path fill="#243C71" d="M246.388,276.84c0,0,0.132,0.352,0.28,0.918c0.149,0.564,0.333,1.35,0.232,2.253
							c-0.053,0.449-0.193,0.925-0.463,1.354c-0.276,0.411-0.643,0.771-1.063,0.985c-0.838,0.423-1.599,0.366-1.827,0.312
							c-0.253-0.033-0.889-0.264-1.506-0.772c-0.141-0.139-0.291-0.285-0.446-0.437c-0.132-0.174-0.272-0.352-0.392-0.537
							c-0.178-0.393-0.398-0.781-0.514-1.18c-0.235-0.805-0.307-1.566-0.347-2.126c-0.024-0.558-0.039-0.923-0.039-0.923
							s0.128,0.322,0.327,0.819c0.211,0.488,0.499,1.148,0.898,1.725c0.415,0.572,0.88,1.056,1.353,1.245
							c0.471,0.208,0.854,0.27,1.017,0.281c0.126,0.038,0.446,0.135,0.855,0.082c0.402-0.059,0.936-0.408,1.208-1.067
							c0.293-0.64,0.378-1.419,0.405-1.981C246.401,277.219,246.388,276.84,246.388,276.84z"/>
					</g>
				</g>
			</g>
			<g>
				<g>
					<g>
						<path fill="#243C71" d="M260.87,254.971c0,0,0.221,0.462,0.56,1.169c0.15,0.367,0.326,0.799,0.516,1.265
							c0.151,0.484,0.303,1.024,0.417,1.587l0.068,0.879c0.033,0.295,0.038,0.594-0.017,0.897c-0.064,0.605-0.257,1.165-0.488,1.646
							c-0.476,0.958-1.142,1.588-1.444,1.74c-0.25,0.184-1.129,0.613-2.278,0.493c-1.157-0.125-2.238-0.919-2.914-1.803
							c-0.359-0.438-0.623-0.916-0.824-1.369c-0.197-0.457-0.443-0.836-0.517-1.222c-0.203-0.732-0.336-1.209-0.336-1.209
							s0.232,0.406,0.59,1.033c0.149,0.323,0.449,0.632,0.726,0.984c0.275,0.355,0.584,0.722,0.965,1.012
							c0.725,0.617,1.626,0.995,2.273,0.931c0.644-0.065,1.065-0.313,1.267-0.479c0.161-0.069,0.613-0.361,1.088-0.946
							c0.227-0.296,0.46-0.67,0.6-1.097c0.092-0.206,0.139-0.441,0.163-0.689l0.112-0.744c0.01-0.506-0.013-1.021-0.047-1.504
							c-0.076-0.484-0.147-0.931-0.207-1.312C260.977,255.47,260.87,254.971,260.87,254.971z"/>
					</g>
				</g>
			</g>
			<g>
				<g>
					<g>
						<path fill="#243C71" d="M242.235,256.65c0,0,0.214,0.501,0.542,1.269c0.129,0.399,0.351,0.848,0.466,1.382
							c0.065,0.268,0.132,0.546,0.201,0.83c0.042,0.291,0.05,0.599,0.074,0.91c0.116,1.266-0.395,2.63-1.178,3.511
							c-0.385,0.451-0.853,0.769-1.264,0.964c-0.41,0.191-0.767,0.246-0.945,0.287c-0.356,0.026-1.432,0-2.373-0.704
							c-0.941-0.65-1.734-1.808-1.944-3.015c-0.055-0.296-0.13-0.584-0.159-0.866c-0.01-0.282-0.019-0.558-0.028-0.824
							c-0.029-0.526,0.056-1.001,0.073-1.406c0.103-0.799,0.17-1.32,0.17-1.32s0.051,0.496,0.131,1.264
							c0.118,0.753,0.242,1.799,0.691,2.71c0.362,0.94,1.102,1.66,1.789,1.982c0.691,0.343,1.208,0.252,1.44,0.253
							c0.162-0.055,0.674-0.013,1.28-0.496c0.6-0.454,1.233-1.35,1.351-2.403c0.033-0.263,0.087-0.528,0.106-0.793
							c-0.007-0.269-0.013-0.532-0.019-0.786c0.005-0.514-0.113-0.988-0.152-1.399C242.334,257.183,242.235,256.65,242.235,256.65z"
							/>
					</g>
				</g>
			</g>
			<g>
				<g>
					<g>
						<path fill="#243C71" d="M281.86,314.734c0,0,0.06,0.065,0.167,0.18c0.096,0.122,0.291,0.276,0.435,0.522
							c0.279,0.485,0.615,1.263,0.552,2.122c-0.023,0.846-0.301,1.77-0.813,2.389c-0.123,0.157-0.234,0.315-0.358,0.44
							c-0.142,0.111-0.273,0.212-0.389,0.302c-0.241,0.173-0.421,0.314-0.543,0.332c-0.228,0.06-0.865,0.258-1.633,0.114
							c-0.384-0.028-0.77-0.22-1.16-0.36c-0.356-0.232-0.744-0.412-1.024-0.73c-0.636-0.536-0.951-1.29-1.109-1.806
							c-0.065-0.268-0.055-0.503-0.075-0.653c-0.011-0.151-0.017-0.236-0.017-0.236s0.134,0.319,0.354,0.74
							c0.298,0.391,0.732,0.867,1.332,1.11c0.56,0.303,1.218,0.335,1.685,0.305c0.232-0.073,0.444-0.061,0.59-0.146
							c0.147-0.076,0.262-0.12,0.342-0.139c0.067,0.003,0.155-0.066,0.3-0.119c0.075-0.027,0.159-0.057,0.251-0.09
							c0.086-0.048,0.167-0.123,0.267-0.189c0.413-0.25,0.811-0.799,1.044-1.423c0.271-0.633,0.218-1.327,0.126-1.843
							c-0.05-0.258-0.173-0.443-0.225-0.593C281.896,314.817,281.86,314.734,281.86,314.734z"/>
					</g>
				</g>
			</g>
			<g>
				<g>
					<g>
						<path fill="#243C71" d="M304.526,317.736c0,0,0.071,0.072,0.196,0.199c0.114,0.135,0.337,0.302,0.511,0.57
							c0.138,0.281,0.414,0.594,0.505,1.005c0.063,0.205,0.128,0.417,0.194,0.634c0.024,0.228,0.048,0.46,0.072,0.694
							c0.049,0.943-0.165,1.985-0.644,2.721c-0.114,0.186-0.214,0.371-0.332,0.524c-0.138,0.14-0.264,0.267-0.376,0.381
							c-0.234,0.221-0.406,0.4-0.533,0.441c-0.235,0.103-0.876,0.426-1.731,0.434c-0.419,0.05-0.877-0.07-1.333-0.131
							c-0.439-0.167-0.904-0.271-1.287-0.545c-0.824-0.426-1.367-1.153-1.688-1.67c-0.148-0.272-0.21-0.529-0.277-0.686
							c-0.058-0.162-0.091-0.253-0.091-0.253s0.229,0.314,0.583,0.728c0.233,0.164,0.455,0.396,0.76,0.557
							c0.317,0.146,0.625,0.332,0.998,0.392c0.702,0.223,1.461,0.136,2.009,0.012c0.262-0.122,0.516-0.154,0.681-0.278
							c0.167-0.114,0.301-0.189,0.394-0.229c0.08-0.013,0.178-0.111,0.342-0.207c0.084-0.049,0.178-0.104,0.281-0.164
							c0.094-0.075,0.178-0.178,0.284-0.275c0.439-0.377,0.812-1.072,0.994-1.821c0.222-0.762,0.082-1.551-0.075-2.127
							c-0.082-0.288-0.236-0.491-0.306-0.656C304.574,317.827,304.526,317.736,304.526,317.736z"/>
					</g>
				</g>
			</g>
			<g>
				<g>
					<g>
						<path fill="#243C71" d="M321.196,313.08c0,0,0.133,0.081,0.369,0.223c0.119,0.073,0.263,0.162,0.429,0.264
							c0.152,0.123,0.325,0.262,0.513,0.414c0.739,0.627,1.611,1.682,2.121,3.006c0.52,1.301,0.679,2.872,0.311,4.129
							c-0.302,1.267-1.127,2.137-1.488,2.356c-0.087,0.061-0.214,0.143-0.374,0.239c-0.167,0.085-0.391,0.153-0.635,0.236
							c-0.492,0.149-1.158,0.187-1.804,0.014c-1.313-0.318-2.48-1.281-3.281-2.337c-0.464-0.483-0.763-1.081-1.094-1.578
							c-0.293-0.525-0.488-1.048-0.686-1.466c-0.26-0.89-0.43-1.47-0.43-1.47s0.264,0.504,0.672,1.284
							c0.259,0.356,0.547,0.779,0.879,1.214c0.401,0.385,0.746,0.868,1.234,1.224c0.887,0.81,1.983,1.397,2.841,1.497
							c0.857,0.085,1.329-0.236,1.542-0.425c0.161-0.1,0.694-0.45,1.079-1.322c0.415-0.831,0.543-2.096,0.304-3.319
							c-0.224-1.222-0.825-2.343-1.409-3.069c-0.152-0.18-0.29-0.344-0.413-0.489c-0.14-0.129-0.262-0.24-0.362-0.332
							C321.312,313.185,321.196,313.08,321.196,313.08z"/>
					</g>
				</g>
			</g>
			<g>
				<g>
					<g>
						<path fill="#243C71" d="M342.282,314.459c0,0,0.334,0.236,0.828,0.633c0.504,0.385,1.142,0.987,1.651,1.82
							c0.489,0.84,0.682,1.968,0.37,2.92c-0.327,0.951-1.023,1.48-1.256,1.598c-0.242,0.141-0.956,0.423-1.825,0.371
							c-0.431-0.031-0.897-0.111-1.347-0.291c-0.47-0.157-0.832-0.467-1.221-0.709c-0.36-0.275-0.66-0.598-0.944-0.874
							c-0.249-0.303-0.479-0.583-0.675-0.822c-0.358-0.492-0.591-0.813-0.591-0.813s0.304,0.223,0.774,0.567
							c0.24,0.158,0.521,0.343,0.828,0.545c0.312,0.185,0.662,0.344,1.002,0.513c0.367,0.088,0.719,0.256,1.056,0.279
							c0.328,0.05,0.658,0.019,0.933-0.031c0.563-0.107,0.898-0.332,1.044-0.417c0.119-0.063,0.431-0.184,0.722-0.567
							c0.276-0.388,0.424-1.155,0.233-1.907c-0.202-0.741-0.607-1.482-0.976-1.979C342.535,314.785,342.282,314.459,342.282,314.459
							z"/>
					</g>
				</g>
			</g>
			<g>
				<g>
					<g>
						<path fill="#243C71" d="M354.416,310.563c0,0,0.24,0.118,0.607,0.299c0.18,0.103,0.391,0.224,0.62,0.354
							c0.207,0.166,0.463,0.315,0.671,0.535c0.445,0.406,0.801,1.026,0.858,1.588c0.099,0.56-0.073,1.032-0.136,1.19
							c-0.086,0.137-0.338,0.62-0.924,0.809c-0.545,0.228-1.251,0.181-1.784-0.099c-0.537-0.265-0.939-0.643-1.204-0.936
							c-0.271-0.289-0.435-0.487-0.435-0.487s0.202,0.138,0.514,0.352c0.31,0.21,0.757,0.461,1.228,0.588
							c0.472,0.13,0.972,0.033,1.26-0.136c0.314-0.157,0.382-0.423,0.455-0.517c0.023-0.089,0.182-0.311,0.195-0.711
							c0.038-0.399-0.101-0.881-0.405-1.323c-0.134-0.228-0.334-0.412-0.49-0.61c-0.188-0.173-0.362-0.333-0.51-0.469
							C354.622,310.732,354.416,310.563,354.416,310.563z"/>
					</g>
				</g>
			</g>
			<g>
				<g>
					<g>
						<path fill="#243C71" d="M328.96,303.011c0,0,0.302,0.149,0.765,0.376c0.227,0.13,0.493,0.282,0.781,0.446
							c0.261,0.209,0.583,0.397,0.845,0.674c0.56,0.511,1.008,1.293,1.079,2c0.124,0.705-0.093,1.3-0.173,1.499
							c-0.059,0.096-0.167,0.276-0.342,0.483c-0.201,0.191-0.463,0.419-0.814,0.553c-0.701,0.281-1.574,0.197-2.252-0.138
							c-0.672-0.349-1.181-0.814-1.514-1.186c-0.342-0.364-0.548-0.613-0.548-0.613s0.254,0.174,0.647,0.443
							c0.39,0.266,0.954,0.576,1.546,0.744c0.587,0.147,1.233,0.077,1.592-0.163c0.383-0.213,0.474-0.541,0.566-0.661
							c0.029-0.112,0.23-0.391,0.246-0.894c0.048-0.502-0.126-1.11-0.509-1.666c-0.168-0.287-0.421-0.519-0.617-0.768
							c-0.237-0.218-0.455-0.419-0.642-0.591C329.219,303.224,328.96,303.011,328.96,303.011z"/>
					</g>
				</g>
			</g>
			<g>
				<g>
					<g>
						<path fill="#243C71" d="M338.8,327.01c0,0,0.077,0.045,0.213,0.124c0.128,0.089,0.359,0.179,0.569,0.372
							c0.408,0.382,0.957,1.028,1.148,1.868c0.225,0.815,0.229,1.78-0.08,2.522c-0.072,0.186-0.132,0.369-0.214,0.526
							c-0.104,0.147-0.199,0.283-0.283,0.402c-0.18,0.235-0.311,0.423-0.422,0.477c-0.201,0.124-0.751,0.499-1.528,0.586
							c-0.376,0.086-0.8,0.015-1.214-0.005c-0.408-0.118-0.832-0.176-1.193-0.399c-0.765-0.327-1.286-0.955-1.588-1.403
							c-0.141-0.237-0.2-0.465-0.263-0.602c-0.055-0.141-0.086-0.221-0.086-0.221s0.221,0.266,0.554,0.604
							c0.399,0.287,0.953,0.615,1.598,0.672c0.624,0.126,1.263-0.036,1.701-0.201c0.201-0.137,0.407-0.188,0.522-0.312
							c0.119-0.116,0.215-0.192,0.286-0.233c0.065-0.016,0.129-0.109,0.252-0.201c0.064-0.048,0.136-0.101,0.214-0.16
							c0.068-0.071,0.124-0.167,0.2-0.259c0.322-0.36,0.542-1.001,0.583-1.666c0.075-0.684-0.179-1.333-0.418-1.799
							c-0.123-0.232-0.295-0.373-0.388-0.502C338.859,327.079,338.8,327.01,338.8,327.01z"/>
					</g>
				</g>
			</g>
			<g>
				<g>
					<g>
						<path fill="#243C71" d="M361.354,323.257c0,0,0.089,0.048,0.245,0.133c0.149,0.096,0.41,0.19,0.655,0.396
							c0.214,0.228,0.57,0.447,0.777,0.813c0.12,0.177,0.244,0.362,0.371,0.55c0.089,0.211,0.18,0.426,0.272,0.643
							c0.322,0.887,0.422,1.947,0.179,2.791c-0.055,0.211-0.096,0.418-0.164,0.598c-0.091,0.174-0.174,0.333-0.248,0.474
							c-0.159,0.28-0.271,0.501-0.38,0.577c-0.195,0.167-0.714,0.663-1.529,0.921c-0.386,0.171-0.86,0.19-1.313,0.264
							c-0.469-0.032-0.944,0.005-1.39-0.145c-0.912-0.166-1.644-0.703-2.102-1.104c-0.222-0.217-0.355-0.444-0.465-0.575
							c-0.103-0.137-0.161-0.215-0.161-0.215s0.311,0.233,0.771,0.526c0.271,0.089,0.551,0.246,0.889,0.31
							c0.346,0.047,0.694,0.135,1.069,0.083c0.736,0.008,1.437-0.297,1.924-0.576c0.215-0.193,0.448-0.298,0.57-0.464
							c0.127-0.158,0.232-0.269,0.31-0.334c0.072-0.035,0.138-0.159,0.266-0.297c0.066-0.071,0.14-0.151,0.221-0.239
							c0.068-0.099,0.118-0.222,0.191-0.346c0.31-0.489,0.463-1.262,0.419-2.032c-0.01-0.794-0.375-1.507-0.693-2.012
							c-0.163-0.252-0.369-0.4-0.485-0.538C361.426,323.33,361.354,323.257,361.354,323.257z"/>
					</g>
				</g>
			</g>
			<g>
				<g>
					<g>
						<path fill="#243C71" d="M307.197,300.269c0,0,0.093,0.039,0.256,0.109c0.169,0.064,0.394,0.196,0.653,0.384
							c0.509,0.38,1.112,1.086,1.408,1.99c0.33,0.89,0.344,1.943,0.106,2.787c-0.235,0.852-0.725,1.43-0.915,1.6
							c-0.187,0.179-0.78,0.6-1.611,0.784c-0.824,0.203-1.836,0.126-2.688-0.205c-0.861-0.322-1.535-0.904-1.894-1.404
							c-0.176-0.255-0.304-0.47-0.364-0.634c-0.066-0.158-0.104-0.247-0.104-0.247s0.061,0.07,0.168,0.193
							c0.098,0.127,0.276,0.281,0.487,0.45c0.436,0.332,1.122,0.613,1.838,0.679c0.719,0.056,1.446-0.085,1.937-0.347
							c0.498-0.255,0.775-0.554,0.909-0.686c0.101-0.095,0.429-0.312,0.719-0.792c0.284-0.472,0.516-1.214,0.463-1.978
							c-0.019-0.768-0.329-1.503-0.675-1.977c-0.175-0.234-0.346-0.422-0.483-0.528
							C307.273,300.334,307.197,300.269,307.197,300.269z"/>
					</g>
				</g>
			</g>
			<g>
				<g>
					<g>
						<path fill="#243C71" d="M315.828,286.193c0,0,0.343,0.382,0.831,1.009c0.507,0.612,1.108,1.534,1.46,2.691
							c0.149,0.586,0.201,1.219,0.117,1.841c-0.092,0.621-0.333,1.221-0.677,1.709c-0.742,0.967-1.743,1.282-2.053,1.317
							c-0.331,0.07-1.241,0.099-2.206-0.268c-0.479-0.185-0.981-0.434-1.445-0.77c-0.489-0.323-0.848-0.743-1.256-1.116
							c-0.714-0.783-1.406-1.541-1.92-2.104c-0.559-0.508-0.924-0.839-0.924-0.839s0.42,0.225,1.07,0.573
							c0.626,0.391,1.452,0.971,2.286,1.544c0.433,0.237,0.855,0.546,1.276,0.719c0.41,0.195,0.839,0.31,1.216,0.376
							c0.766,0.133,1.318,0.035,1.548-0.018c0.185-0.02,0.66-0.076,1.167-0.476c0.233-0.22,0.469-0.537,0.63-0.95
							c0.153-0.414,0.227-0.902,0.215-1.39c-0.071-0.978-0.408-1.987-0.761-2.681C316.074,286.649,315.828,286.193,315.828,286.193z
							"/>
					</g>
				</g>
			</g>
		</g>
		<path opacity="0.46" fill="#A28887" d="M243.072,123.133c-3.27-0.979-6.568,2.022-3.195,2.072
			C243.25,125.256,245.116,123.745,243.072,123.133z"/>
		<g>
			<path fill="#F39332" d="M304.69,386.099c1.613,0.222,5.232,1.296,5.48,3.315c0.248,2.019-0.468,5.396-0.166,6.626
				c0.302,1.229,0.54,2.953,2.03,1.826c1.49-1.127,0.919-3.601,4.032-3.828c3.113-0.227,9.834,0.479,12.313,2.365
				c2.479,1.886,5.792,1.39,6.477,0.686c0.685-0.704,7.526-14.657,6.515-18.918c-1.011-4.262-0.327-7.232-3.614-5.105
				c-3.287,2.127-9.142,5.966-13.963,6.578C318.973,380.256,304.69,386.099,304.69,386.099z"/>
			<path fill="#F8B241" d="M329.251,333.527c0.51,6.562,7.5,24.444,6.478,31.558c-1.022,7.114-5.233,11.07-11.482,12.562
				c-6.249,1.492-13.887,3.512-16.543,5.287c-2.656,1.775-3.014,3.165-3.014,3.165s4.645-1.37,8.787-2.213
				c4.142-0.843,14.695-4.453,14.695-4.453s-13.347,10.726-16.577,13.484c-3.23,2.758-2.22,7.02-2.22,7.02s3.781-2.998,5.504-4.173
				c1.723-1.175,4.833-4.652,10.577-7.388c5.745-2.736,13.049-9.428,13.809-11.919c0,0,1.87,4.118,0.389,7.616
				c-1.481,3.498-4.876,8.795-7.435,12.031c-2.559,3.236-2.22,6.133-2.22,6.133s6.684-7.326,11.907-12.043
				c5.223-4.717,6.775-8.67,5.884-13.1s-3.389-10.51-3.895-13.527c-0.506-3.017-2.7-16.091-1.653-22.175
				c1.047-6.084-0.589-9.067-0.589-9.067S328.972,329.94,329.251,333.527z"/>
		</g>
	</g>
</g>
</svg>
