<?xml version="1.0" encoding="utf-8"?>
<!-- Generator: Adobe Illustrator 17.0.0, SVG Export Plug-In . SVG Version: 6.00 Build 0)  -->
<!DOCTYPE svg PUBLIC "-//W3C//DTD SVG 1.1//EN" "http://www.w3.org/Graphics/SVG/1.1/DTD/svg11.dtd">
<svg version="1.1" id="Layer_1" xmlns="http://www.w3.org/2000/svg" xmlns:xlink="http://www.w3.org/1999/xlink" x="0px" y="0px"
	 width="512px" height="512px" viewBox="0 0 512 512" enable-background="new 0 0 512 512" xml:space="preserve">
<g>
	<g>
		<g>
			<circle fill="#F15B2A" cx="256" cy="256" r="225"/>
		</g>
	</g>
	<g>
		<path fill-rule="evenodd" clip-rule="evenodd" fill="#F5CE5C" d="M316.561,225.376c22.234,14.651,51.504,13.662,84.097,5.199
			c26.964,13.712-0.333,32.993-11.806,39.741c-27.626,16.25-50.918-5.9-68.316-15.887
			C320.536,254.429,316.867,225.07,316.561,225.376L316.561,225.376z"/>
		<path opacity="0.3" fill-rule="evenodd" clip-rule="evenodd" fill="#B18346" d="M401.551,231.07
			c-5.231,9.784-19.417,13.065-30.982,14.186c1.968,0.347,6.155,0.908,8.825,0.068c-2.106,1.067-9.339,2.138-15.461,1.392
			c-1.208,0.276-1.796,0.55-2.986,0.826c4.92,2.733,10.129,6.672,11.793,8.871c-4.72-3.615-9.344-6.724-15.054-8.093
			c-1.954,0.479-3.87,0.976-5.733,1.515c5.019,2.29,10.306,5.625,12.104,7.614c-4.869-3.093-9.604-5.719-15.189-6.662l-0.466,0.155
			c3.766,1.549,7.399,3.546,8.81,4.878c-3.512-1.863-6.931-3.469-10.659-4.229c-3.796,1.399-7.263,3.094-10.247,5.307
			c0.491,7.074,18.504,15.957,31.299,16.822c12.639,0.853,25.934-7.81,34.498-13.069c-4.598,4.101-9.848,7.519-13.499,9.666
			c-23.507,13.828-43.876-0.148-60.146-10.776l0.011-0.068c-1.051-0.668-1.845-1.158-1.683-1.068
			c0.161-0.404,0.611-1.519,0.817-1.895c2.493-4.56,8.271-7.035,16.16-9.081l0.11-0.072c0.045,0.002,0.093,0.004,0.139,0.007
			c2.353-0.605,4.89-1.172,7.582-1.747c1.06-0.568,1.922-1.023,1.922-1.023c0.449,0.052,0.943,0.158,1.473,0.307l0.243-0.05
			c-1.096-0.697-2.106-1.347-2.23-1.456c1.395,0.435,2.584,0.408,3.879,0.697c12.212-4.212,27.603-7.063,43.223-13.21
			c0.005-0.05,0.005-0.101,0.01-0.151l0.602-0.155C401.261,230.853,401.049,230.788,401.551,231.07L401.551,231.07z"/>
		<path fill-rule="evenodd" clip-rule="evenodd" fill="#FAE79E" d="M327.036,258.327c-0.457-0.254-1.234-1.117-2.515-1.487
			c-1.361-0.857-2.69-1.669-3.985-2.412c0,0-3.669-29.358-3.975-29.053c22.097,14.56,51.776,13.511,84.126,5.191
			c-0.002,0.025-0.158,0.098-0.312,0.169c-7.882,3.681-26.584,8.289-43.16,13.312c6.7,0.907,12.24-0.025,17.992-1.324
			c-2.789,1.41-13.223,3.367-18.961,3.061c5.262,2.717,11.263,7.166,13.072,9.555c-6.007-4.601-11.858-8.38-19.997-8.8
			c-1.142,0.379-2.26,0.759-3.353,1.141c5.646,2.176,12.556,6.363,14.667,8.696c-5.25-3.335-10.345-6.126-16.516-6.852
			c4.06,1.585,8.153,3.789,9.671,5.224c-4.596-2.437-9.029-4.436-14.207-4.672C332.906,252.792,328.128,255.567,327.036,258.327
			L327.036,258.327z"/>
		<path opacity="0.3" fill-rule="evenodd" clip-rule="evenodd" fill="#B18346" d="M330.483,260.465
			c-0.702-0.459-3.079-1.829-3.766-2.274c-0.127-7.513-1.117-14.572-3.498-20.493c-1.694-4.213-3.613-7.941-5.712-11.768
			c1.737,1.093,3.53,2.067,5.333,3.005C333.068,234.254,333.092,253.213,330.483,260.465L330.483,260.465z"/>
		<path fill-rule="evenodd" clip-rule="evenodd" fill="#F5CE5C" d="M195.439,225.376c-22.234,14.651-51.505,13.662-84.098,5.199
			c-26.964,13.712,0.333,32.993,11.806,39.741c27.626,16.25,50.919-5.9,68.317-15.887
			C191.464,254.429,195.133,225.07,195.439,225.376L195.439,225.376z"/>
		<path opacity="0.3" fill-rule="evenodd" clip-rule="evenodd" fill="#B18346" d="M110.449,231.07
			c5.23,9.784,19.417,13.065,30.982,14.186c-1.968,0.347-6.155,0.908-8.826,0.068c2.107,1.067,9.339,2.138,15.463,1.392
			c1.208,0.276,1.796,0.55,2.985,0.826c-4.921,2.733-10.131,6.672-11.794,8.871c4.72-3.615,9.343-6.724,15.054-8.093
			c1.954,0.479,3.871,0.976,5.733,1.515c-5.018,2.29-10.305,5.625-12.103,7.614c4.869-3.093,9.605-5.719,15.189-6.662l0.466,0.155
			c-3.766,1.549-7.399,3.546-8.81,4.878c3.513-1.863,6.931-3.469,10.659-4.229c3.795,1.399,7.263,3.094,10.247,5.307
			c-0.49,7.074-18.504,15.957-31.297,16.822c-12.641,0.853-25.936-7.81-34.5-13.069c4.598,4.101,9.848,7.519,13.498,9.666
			c23.507,13.828,43.876-0.148,60.146-10.776l-0.011-0.068c1.052-0.668,1.845-1.158,1.683-1.068
			c-0.16-0.404-0.611-1.519-0.815-1.895c-2.494-4.56-8.271-7.035-16.162-9.081l-0.11-0.072c-0.046,0.002-0.093,0.004-0.139,0.007
			c-2.353-0.605-4.891-1.172-7.582-1.747c-1.061-0.568-1.923-1.023-1.923-1.023c-0.449,0.052-0.942,0.158-1.472,0.307l-0.243-0.05
			c1.097-0.697,2.106-1.347,2.23-1.456c-1.395,0.435-2.583,0.408-3.878,0.697c-12.212-4.212-27.602-7.063-43.223-13.21
			c-0.004-0.05-0.005-0.101-0.009-0.151l-0.602-0.155C110.738,230.853,110.951,230.788,110.449,231.07L110.449,231.07z"/>
		<path fill-rule="evenodd" clip-rule="evenodd" fill="#FAE79E" d="M184.964,258.327c0.457-0.254,1.233-1.117,2.515-1.487
			c1.36-0.857,2.689-1.669,3.985-2.412c0,0,3.669-29.358,3.975-29.053c-22.097,14.56-51.775,13.511-84.126,5.191
			c0.001,0.025,0.158,0.098,0.31,0.169c7.882,3.681,26.585,8.289,43.159,13.312c-6.7,0.907-12.24-0.025-17.991-1.324
			c2.789,1.41,13.222,3.367,18.961,3.061c-5.262,2.717-11.263,7.166-13.071,9.555c6.007-4.601,11.858-8.38,19.997-8.8
			c1.143,0.379,2.26,0.759,3.352,1.141c-5.645,2.176-12.556,6.363-14.666,8.696c5.25-3.335,10.346-6.126,16.516-6.852
			c-4.061,1.585-8.153,3.789-9.671,5.224c4.595-2.437,9.029-4.436,14.206-4.672C179.095,252.792,183.872,255.567,184.964,258.327
			L184.964,258.327z"/>
		<path opacity="0.3" fill-rule="evenodd" clip-rule="evenodd" fill="#B18346" d="M181.516,260.465
			c0.702-0.459,3.079-1.829,3.766-2.274c0.127-7.513,1.118-14.572,3.498-20.493c1.694-4.213,3.614-7.941,5.713-11.768
			c-1.737,1.093-3.53,2.067-5.334,3.005C178.932,234.254,178.908,253.213,181.516,260.465L181.516,260.465z"/>
		<path fill-rule="evenodd" clip-rule="evenodd" fill="#99C2C0" d="M278.627,199.224c10.715,6.52,13.5,9.126,27.281,5.829
			c0.893-34.082,19.003-92.104,27.673-93.75c8.873,1.381,16.608,22.23,19.338,36.382c-0.018-14.752,0.264-55.059-22.216-54.788
			C297.227,93.299,277.256,188.754,278.627,199.224L278.627,199.224z"/>
		<path opacity="0.45" fill-rule="evenodd" clip-rule="evenodd" fill="#A6A8AC" d="M279.673,187.814
			c0.44,2.68,0.525,5.404,0.561,8.028c1.723-2.682,3.37-5.826,4.751-9.154c-1.311,4.643-1.704,9.139-1.583,13.233
			c0.433-3.259,0.915-6.7,2.031-9.965c-0.684,4.457-0.394,8.293,0.477,11.354c-0.254-1.971-0.519-4.546,0.314-7.838
			c-0.361,10.027,13.375,10.862,13.326-3.105c0.464,2.525,0.563,5.105,0.559,7.62c0.401-2.923,0.892-5.954,1.882-8.849
			c-0.372,2.414-0.456,4.643-0.318,6.668c0.261-2.107,0.538-4.173,0.83-6.198c-4.048-7.911-16.714-8.957-21.783-7.628l0.083-0.417
			c6.415-5.587,17.058-4.649,22.888,0.506c0.686-4.005,1.427-7.842,2.213-11.518c-3.757-6.454-14.302-6.645-18.543-4.574
			c5.222-4.348,14.342-3.392,19.502,0.237c0.291-1.266,0.587-2.511,0.886-3.736c-4.373-2.46-10.266-2.933-13.619-2.826
			c3.593-1.403,9.196-0.538,13.993,1.312c1.068-4.274,2.183-8.309,3.312-12.122c-4.716-3.704-12.596-3.547-16.123-1.825
			c4.463-3.717,11.775-3.559,17.026-1.168c0.201-0.65,0.4-1.295,0.601-1.933c0.998-3.175,2.034-6.169,3.102-8.982
			c-3.926-1.481-8.104-1.819-10.284-1.36c3.35-2.6,7.729-3.244,11.794-2.451c1.938-4.683,3.967-8.802,6.051-12.367
			c-4.066-1.671-8.845-2.01-11.735-1.917c3.209-1.253,8.021-0.697,12.43,0.754c4.287-7.04,8.791-11.755,13.218-14.21
			c0.022,0.021,0.031,0.114,0.031,0.267l0.046-0.036c1.197,1.054,2.284,2.159,3.272,3.309c1.557-1.245,2.752-2.522,3.381-3.54
			c-0.201,1.968-0.865,3.804-1.859,5.446c0.947,1.28,1.79,2.609,2.544,3.982c0.482-0.527,0.871-1.027,1.15-1.477
			c-0.093,0.9-0.28,1.771-0.554,2.609c4.816,9.526,5.674,21.073,7.279,33.152c-2-9.991-6.406-23.062-11.909-30.347l-0.004-0.006
			l-0.011-0.014c-1.138-1.503-2.322-2.758-3.541-3.688l-0.02-0.016c-0.081-0.061-0.163-0.121-0.244-0.18l-0.017-0.012l-0.064-0.046
			l-0.007-0.004l-0.034-0.025l-0.037-0.025l-0.044-0.032l-0.026-0.017l-0.015-0.01l-0.042-0.028l-0.015-0.01l-0.026-0.017
			l-0.041-0.026l-0.003-0.003l-0.038-0.025l-0.034-0.023l-0.007-0.004l-0.041-0.026l-0.022-0.015l-0.018-0.012l-0.042-0.026
			l-0.012-0.007l-0.029-0.019l-0.041-0.025l-0.042-0.025l-0.041-0.026l-0.012-0.006l-0.004-0.003l-0.004-0.003l-0.012-0.007
			l-0.003-0.002l-0.004-0.002l-0.001-0.001l-0.014-0.007l-0.004-0.003l-0.004-0.002c-0.31-0.183-0.619-0.344-0.932-0.483
			l-0.001-0.001l-0.089-0.039l-0.091-0.038c-0.11-0.047-0.218-0.089-0.328-0.129l-0.057-0.019c-0.121-0.042-0.241-0.081-0.362-0.118
			l-0.032-0.009c-0.128-0.037-0.254-0.07-0.384-0.098l-0.017-0.004c-0.134-0.03-0.267-0.055-0.402-0.077
			c-0.724,0.138-1.515,0.677-2.355,1.553c-0.591,0.681-1.09,1.447-1.625,2.032c-2.685,3.862-5.73,10.562-8.726,18.851l-0.013,0.036
			l-0.199,0.554l-0.007,0.019l-0.018,0.051l-0.174,0.489l-0.025,0.07l-0.002,0.006l-0.023,0.064l-0.024,0.071l-0.025,0.071
			l-0.024,0.07l-0.025,0.071l-0.049,0.141l-0.025,0.071l-0.022,0.061l-0.003,0.009l-0.025,0.071l-0.025,0.071l-0.024,0.071
			l-0.025,0.071l-0.025,0.071l-0.025,0.072l-0.025,0.071l-0.024,0.071l-0.049,0.137l-0.001,0.006l-0.025,0.071l-0.025,0.073
			l-0.025,0.071l-0.025,0.071l-0.025,0.073l-0.025,0.071l-0.025,0.073c-1.311,3.81-2.602,7.898-3.838,12.158l-0.023,0.08
			l-0.046,0.158l-0.023,0.08c-0.13,0.45-0.259,0.904-0.389,1.359l-0.023,0.08l-0.004,0.012l-0.019,0.07
			c-0.137,0.482-0.272,0.965-0.408,1.451l-0.02,0.072L315,152.334l-0.022,0.081c-0.97,3.507-1.9,7.105-2.768,10.739l-0.01,0.045
			l-0.022,0.091l-0.011,0.045l-0.004,0.016l-0.007,0.029l-0.011,0.045l-0.01,0.045l-0.011,0.045l-0.01,0.045l-0.012,0.045
			l-0.01,0.045l-0.022,0.091l-0.01,0.046l-0.01,0.045l-0.012,0.045l-0.01,0.045l-0.011,0.045l-0.011,0.045l-0.01,0.045l-0.01,0.045
			l-0.012,0.045l-0.031,0.136l-0.011,0.044l-0.01,0.046l-0.042,0.18l-0.011,0.045l-0.282,1.222l-0.001-0.001
			c-2.653,11.566-4.649,23.364-5.394,33.605l0.002-0.004c-0.103,1.423-0.184,2.816-0.239,4.173l-0.003,0.087l-0.004,0.087
			l-0.003,0.086l-0.004,0.086l-0.001,0.037l-0.001,0.05l-0.003,0.086l-0.004,0.086l-0.002,0.086l-0.004,0.086l-0.002,0.085
			l-0.002,0.06l-0.001,0.025l-0.001,0.086l-0.002,0.085l-0.01,0.34l-0.094,0.023l-0.092,0.022l-0.092,0.022l-0.092,0.022
			l-0.062,0.014l-0.031,0.007l-0.09,0.02l-0.092,0.022l-0.09,0.021l-0.09,0.021l-0.031,0.007l-0.061,0.013l-0.089,0.02l-0.089,0.02
			l-0.179,0.04v0.001l-0.33,0.073l-0.022,0.004l-0.057,0.012l-0.03,0.007l-0.087,0.019l-0.087,0.019l-0.086,0.018l-0.086,0.018
			l-0.027,0.006l-0.058,0.012l-0.086,0.018l-0.084,0.017l-0.086,0.017l-0.084,0.017h-0.001l-0.084,0.018l-0.083,0.017l-0.084,0.016
			l-0.084,0.017l-0.083,0.016l-0.082,0.017l-0.083,0.016l-0.082,0.016l-0.081,0.015l-0.028,0.006l-0.054,0.01l-0.081,0.016
			l-0.081,0.016l-0.081,0.014l-0.161,0.029l-0.081,0.014l-0.079,0.015l-0.078,0.015l-0.052,0.01l-0.028,0.004l-0.079,0.014
			l-0.078,0.014l-0.078,0.013c-0.208,0.036-0.414,0.07-0.616,0.102l-0.076,0.012c-6.049,0.952-9.62,0.259-13.703-1.771
			c0.73-0.187,1.469-0.415,2.203-0.687l-2.504,0.463l0.046,0.096c-2.395-1.215-4.983-2.882-8.361-4.936
			C278.399,197.488,278.763,193.404,279.673,187.814L279.673,187.814z"/>
		<path fill-rule="evenodd" clip-rule="evenodd" fill="#99C2C0" d="M232.948,199.224c-10.715,6.52-13.5,9.126-27.28,5.829
			c-0.894-34.082-19.004-92.104-27.674-93.75c-8.873,1.381-16.609,22.23-19.339,36.382c0.018-14.752-0.263-55.059,22.216-54.788
			C214.347,93.299,234.319,188.754,232.948,199.224L232.948,199.224z"/>
		<path opacity="0.45" fill-rule="evenodd" clip-rule="evenodd" fill="#A6A8AC" d="M231.901,187.814
			c-0.44,2.68-0.524,5.404-0.559,8.028c-1.723-2.682-3.371-5.826-4.752-9.154c1.311,4.643,1.705,9.139,1.584,13.233
			c-0.433-3.259-0.917-6.7-2.031-9.965c0.684,4.457,0.394,8.293-0.477,11.354c0.253-1.971,0.517-4.546-0.314-7.838
			c0.36,10.027-13.375,10.862-13.327-3.105c-0.464,2.525-0.562,5.105-0.559,7.62c-0.4-2.923-0.892-5.954-1.88-8.849
			c0.371,2.414,0.455,4.643,0.317,6.668c-0.261-2.107-0.538-4.173-0.83-6.198c4.049-7.911,16.714-8.957,21.783-7.628l-0.083-0.417
			c-6.416-5.587-17.059-4.649-22.89,0.506c-0.684-4.005-1.427-7.842-2.212-11.518c3.756-6.454,14.301-6.645,18.542-4.574
			c-5.222-4.348-14.343-3.392-19.502,0.237c-0.291-1.266-0.586-2.511-0.885-3.736c4.372-2.46,10.266-2.933,13.619-2.826
			c-3.594-1.403-9.196-0.538-13.993,1.312c-1.068-4.274-2.183-8.309-3.312-12.122c4.716-3.704,12.597-3.547,16.123-1.825
			c-4.463-3.717-11.774-3.559-17.026-1.168c-0.2-0.65-0.4-1.295-0.601-1.933c-0.998-3.175-2.034-6.169-3.101-8.982
			c3.926-1.481,8.103-1.819,10.284-1.36c-3.351-2.6-7.731-3.244-11.794-2.451c-1.939-4.683-3.966-8.802-6.051-12.367
			c4.066-1.671,8.844-2.01,11.735-1.917c-3.209-1.253-8.02-0.697-12.429,0.754c-4.287-7.04-8.791-11.755-13.219-14.21
			c-0.022,0.021-0.031,0.114-0.029,0.267l-0.046-0.036c-1.197,1.054-2.284,2.159-3.272,3.309c-1.556-1.245-2.751-2.522-3.381-3.54
			c0.201,1.968,0.865,3.804,1.859,5.446c-0.947,1.28-1.789,2.609-2.544,3.982c-0.482-0.527-0.871-1.027-1.149-1.477
			c0.092,0.9,0.28,1.771,0.553,2.609c-4.816,9.526-5.675,21.073-7.278,33.152c1.999-9.991,6.405-23.062,11.909-30.347l0.004-0.006
			l0.012-0.014c1.137-1.503,2.321-2.758,3.541-3.688l0.02-0.016c0.082-0.061,0.163-0.121,0.245-0.18l0.016-0.012l0.065-0.046
			l0.006-0.004l0.034-0.025l0.037-0.025l0.045-0.032l0.025-0.017l0.016-0.01l0.041-0.028l0.015-0.01l0.026-0.017l0.041-0.026
			l0.004-0.003l0.036-0.025l0.034-0.023l0.007-0.004l0.041-0.026l0.024-0.015l0.018-0.012l0.04-0.026l0.013-0.007l0.029-0.019
			l0.041-0.025l0.041-0.025l0.042-0.026l0.012-0.006l0.003-0.003l0.005-0.003l0.011-0.007l0.004-0.002l0.004-0.002l0.001-0.001
			l0.014-0.007l0.004-0.003l0.004-0.002c0.309-0.183,0.619-0.344,0.932-0.483v-0.001l0.09-0.039l0.09-0.038
			c0.11-0.047,0.219-0.089,0.328-0.129l0.057-0.019c0.121-0.042,0.241-0.081,0.362-0.118l0.033-0.009
			c0.127-0.037,0.255-0.07,0.384-0.098l0.017-0.004c0.134-0.03,0.268-0.055,0.402-0.077c0.724,0.138,1.515,0.677,2.356,1.553
			c0.591,0.681,1.088,1.447,1.625,2.032c2.685,3.862,5.73,10.562,8.726,18.851l0.013,0.036l0.199,0.554l0.006,0.019l0.019,0.051
			l0.174,0.489l0.025,0.07l0.001,0.006l0.023,0.064l0.025,0.071l0.025,0.071l0.025,0.07l0.025,0.071l0.05,0.141l0.025,0.071
			l0.021,0.061l0.004,0.009l0.025,0.071l0.025,0.071l0.024,0.071l0.025,0.071l0.025,0.071l0.025,0.072l0.025,0.071l0.025,0.071
			l0.048,0.137l0.002,0.006l0.025,0.071l0.024,0.073l0.025,0.071l0.025,0.071l0.025,0.073l0.025,0.071l0.025,0.073
			c1.31,3.81,2.601,7.898,3.836,12.158l0.023,0.08l0.046,0.158l0.024,0.08c0.13,0.45,0.259,0.904,0.389,1.359l0.022,0.08
			l0.004,0.012l0.018,0.07c0.136,0.482,0.272,0.965,0.407,1.451l0.021,0.072l0.001,0.009l0.023,0.081
			c0.969,3.507,1.9,7.105,2.768,10.739l0.011,0.045l0.021,0.091l0.011,0.045l0.003,0.016l0.007,0.029l0.011,0.045l0.011,0.045
			l0.01,0.045l0.011,0.045l0.012,0.045l0.011,0.045l0.02,0.091l0.011,0.046l0.011,0.045l0.01,0.045l0.011,0.045l0.011,0.045
			l0.01,0.045l0.011,0.045l0.011,0.045l0.01,0.045l0.032,0.136l0.01,0.044l0.01,0.046l0.043,0.18l0.011,0.045l0.282,1.222
			l0.001-0.001c2.652,11.566,4.649,23.364,5.394,33.605l-0.003-0.004c0.103,1.423,0.184,2.816,0.238,4.173l0.004,0.087l0.004,0.087
			l0.003,0.086l0.004,0.086l0.001,0.037l0.002,0.05l0.004,0.086l0.003,0.086l0.003,0.086l0.003,0.086l0.002,0.085l0.002,0.06
			l0.001,0.025l0.002,0.086l0.003,0.085l0.01,0.34l0.093,0.023l0.092,0.022l0.092,0.022l0.092,0.022l0.061,0.014l0.031,0.007
			l0.092,0.02l0.091,0.022l0.091,0.021l0.091,0.021l0.03,0.007l0.06,0.013l0.09,0.02l0.09,0.02l0.177,0.04v0.001l0.331,0.073
			l0.022,0.004l0.057,0.012l0.029,0.007l0.087,0.019l0.087,0.019l0.086,0.018l0.086,0.018l0.028,0.006l0.057,0.012l0.086,0.018
			l0.085,0.017l0.085,0.017l0.084,0.017h0.001l0.083,0.018l0.084,0.017l0.084,0.016l0.083,0.017l0.083,0.016l0.083,0.017
			l0.083,0.016l0.081,0.016l0.083,0.015l0.026,0.006l0.055,0.01l0.081,0.016l0.08,0.016l0.081,0.014l0.161,0.029l0.08,0.014
			l0.079,0.015l0.079,0.015l0.052,0.01l0.026,0.004l0.078,0.014l0.079,0.014l0.078,0.013c0.209,0.036,0.414,0.07,0.616,0.102
			l0.076,0.012c6.049,0.952,9.62,0.259,13.704-1.771c-0.732-0.187-1.469-0.415-2.204-0.687l2.504,0.463l-0.046,0.096
			c2.394-1.215,4.983-2.882,8.361-4.936C233.175,197.488,232.812,193.404,231.901,187.814L231.901,187.814z"/>
		<path fill-rule="evenodd" clip-rule="evenodd" fill="#F5CE5C" d="M255.442,203.15c-14.209-0.263-18.639-2.752-22.417-7.706
			c-5.833,6.086-14.455,11.918-27.644,8.196c-3.435,5.024-5.124,12.016-7.629,16.508c-3.431,6.151-6.501,11.409-9.057,17.768
			c-7.625,18.963-0.993,49.588,2.619,69.454c8.971,25.117,22.222,20.876,28.746,57.002c2.525,42.006,25.896,54.07,35.995,54.492
			c10.657,0.151,34.561-11.415,35.996-54.492c6.523-36.126,19.775-31.885,28.745-57.002c3.612-19.866,10.245-50.491,2.619-69.454
			c-2.557-6.358-5.626-11.616-9.057-17.768c-2.505-4.492-4.194-11.484-7.629-16.508c-12.982,4.423-21.612-1.588-27.645-8.196
			C275.304,200.398,270.262,203.193,255.442,203.15L255.442,203.15z"/>
		<path fill-rule="evenodd" clip-rule="evenodd" fill="#FAE79E" d="M325.916,247.765c-20.514,10.171-45.62,21.601-50.886,49.114
			c-2.502,13.077,0.603,41.072,4.48,54.854c0.979,3.485,6.187,6.27,6.392,12.851c1.466,31.555-18.679,38.209-30.01,38.226
			c-11.331-0.016-31.475-6.671-30.009-38.226c0.205-6.58,5.412-9.366,6.392-12.851c3.876-13.782,6.982-41.778,4.479-54.854
			c-5.249-27.431-30.222-38.876-50.701-49.023c0.56-3.551,1.416-6.898,2.64-9.941c2.556-6.358,5.627-11.616,9.057-17.768
			c1.309-2.348,2.396-5.379,3.626-8.454l-0.073-0.163c0.186-0.307,0.362-0.626,0.525-0.955c0.107-0.259,0.215-0.518,0.325-0.775
			c-0.116-0.02-0.233-0.044-0.349-0.074c0.121,0.007,0.243,0.015,0.369,0.026c0.102-0.24,0.205-0.478,0.309-0.716
			c1.208-3.404,1.237-7.734-1.149-12.622c1.649,2.287,2.942,4.785,4.111,7.24l0.24,0.052c-0.348-1.691-0.591-3.756-0.261-6.287
			c0.187,2.249,1.746,4.701,4.245,6.263c1.357-3.307,1.975-7.828,1.139-13.274c0.988,2.895,1.479,5.926,1.88,8.848
			c-0.004-2.515,0.094-5.095,0.559-7.619c-0.049,13.968,13.686,13.132,13.326,3.105c0.581,2.297,0.627,4.246,0.516,5.884
			c0.096-0.06,0.19-0.121,0.285-0.183c0.466-2.645,0.524-5.743-0.01-9.217c0.891,2.608,1.378,5.329,1.76,7.98
			c0.095-0.075,0.191-0.15,0.286-0.225c-0.061-3.48-0.518-7.202-1.597-11.023c1.267,3.054,2.76,5.956,4.33,8.486
			c0.15-0.161,0.296-0.323,0.44-0.486c0.058-2.704,0.211-5.489,0.789-8.202c-0.087,5.246,1.088,8.721,2.826,11.005
			c3.505,2.762,8.663,4.194,19.242,4.39c9.982,0.029,15.528-1.23,19.239-3.569c2.111-2.243,3.62-5.908,3.52-11.826
			c0.551,2.585,0.717,5.236,0.781,7.819l0.101-0.131c0.186,0.214,0.377,0.426,0.571,0.639c1.489-2.443,2.9-5.216,4.109-8.125
			c-1.035,3.656-1.497,7.225-1.587,10.577c0.109,0.094,0.219,0.19,0.33,0.283c0.374-2.528,0.856-5.109,1.704-7.591
			c-0.509,3.318-0.479,6.292-0.071,8.858c0.108,0.077,0.218,0.153,0.327,0.23c-0.084-1.572-0.01-3.418,0.535-5.571
			c-0.36,10.027,13.375,10.862,13.326-3.105c0.464,2.524,0.562,5.103,0.559,7.619c0.401-2.922,0.893-5.954,1.881-8.848
			c-0.836,5.446-0.217,9.967,1.139,13.274c2.499-1.562,4.058-4.014,4.245-6.263c0.339,2.606,0.07,4.72-0.295,6.44l0.198-0.048
			c1.19-2.507,2.503-5.061,4.187-7.398c-1.848,3.785-2.247,7.237-1.771,10.182c2.345,4.564,3.846,9.889,5.888,13.552
			c3.431,6.151,6.5,11.409,9.057,17.768c1.213,3.017,2.065,6.333,2.626,9.852C325.897,247.769,325.848,247.769,325.916,247.765
			L325.916,247.765z"/>
		<path fill-rule="evenodd" clip-rule="evenodd" fill="#595A5C" d="M256.054,388.437c-8.072-1.346-14.33-5.056-18.295-11.593
			c-3.259-5.372-2.381-6.577-1.853-12.365c1.129-12.364,39.166-12.364,40.295,0c0.529,5.788,1.407,6.992-1.852,12.365
			C270.384,383.381,264.127,387.091,256.054,388.437L256.054,388.437z"/>
		<path fill-rule="evenodd" clip-rule="evenodd" fill="#231F20" d="M252.611,387.687c-3.739-9.216-11.705-16.804-17.196-18.43
			c-0.144,2.369,0.228,4.099,2.344,7.587C241.14,382.419,246.191,385.937,252.611,387.687L252.611,387.687z"/>
		<path fill-rule="evenodd" clip-rule="evenodd" fill="#231F20" d="M259.492,387.687c3.739-9.216,11.705-16.804,17.197-18.43
			c0.144,2.369-0.229,4.099-2.344,7.587C270.962,382.419,265.913,385.937,259.492,387.687L259.492,387.687z"/>
		<path fill-rule="evenodd" clip-rule="evenodd" fill="#595A5C" d="M230.021,388.525c11.014,26.276,38.747,29.395,52.051-0.241
			c-0.016-0.037-0.086-0.073-0.203-0.108c-7.466,12.461-22.827,21.076-25.822-1.115
			C254.603,408.399,239.215,400.938,230.021,388.525L230.021,388.525z"/>
		<path opacity="0.73" fill-rule="evenodd" clip-rule="evenodd" fill="#A6A8AC" d="M255.9,388.284
			c-8.072-1.346-14.329-5.057-18.294-11.593c-3.259-5.374-2.382-6.577-1.853-12.366c1.129-12.363,39.166-12.363,40.295,0
			c0.528,5.789,1.407,6.992-1.853,12.366C270.23,383.227,263.973,386.938,255.9,388.284L255.9,388.284z M258.041,357.434
			c7.845,0,15.935,3.515,15.935,8.921c0,5.404-8.438,13.251-16.282,13.251c-7.845,0-16.455-9.752-16.455-15.158
			C241.24,359.044,250.196,357.434,258.041,357.434L258.041,357.434z"/>
		<path fill-rule="evenodd" clip-rule="evenodd" fill="#808184" d="M260.449,358.963c4.381,0,8.901,1.965,8.901,4.983
			c0,9.4-18.287,8.945-18.287-1.064C251.064,359.862,256.067,358.963,260.449,358.963L260.449,358.963z"/>
		<path fill-rule="evenodd" clip-rule="evenodd" fill="#63A6A2" d="M184.701,276.038c-0.91-17.776,16.555-18.009,21.714-8.505
			c3.591,12.472,7.686,18.461,16.29,27.563c-6.756-3.86-6.639-5.426-13.394-9.287C195.791,292.216,184.95,284.952,184.701,276.038
			L184.701,276.038z"/>
		<path fill-rule="evenodd" clip-rule="evenodd" fill="#414142" d="M197.005,264.458c5.596,0,10.134,4.536,10.134,10.132
			c0,5.597-4.537,10.134-10.134,10.134c-5.596,0-10.133-4.537-10.133-10.134C186.873,268.993,191.409,264.458,197.005,264.458
			L197.005,264.458z"/>
		<path fill-rule="evenodd" clip-rule="evenodd" fill="#231F20" d="M184.459,270.617c-0.028,0.14-0.058,0.278-0.09,0.416
			c-0.724-0.209-1.668-0.136-2.337-0.413l-0.05,0.207c-0.753-0.347-1.301-0.536-2.106-0.926
			c-2.187,7.432-7.391,12.686-13.436,17.334c7.35-4.04,12.209-9.852,15.203-15.172c-1.658,5.366-5.332,9.451-9.604,13.158
			c5.332-3.216,9.717-8.523,12.009-12.978c-1.457,4.848-4.704,8.617-8.489,12.062c5.268-3.349,9.45-8.951,11.276-13.292
			C186.144,270.746,185.151,270.884,184.459,270.617L184.459,270.617z"/>
		
			<path fill-rule="evenodd" clip-rule="evenodd" fill="#231F20" stroke="#231F20" stroke-width="0.5669" stroke-miterlimit="22.9256" d="
			M197.344,265c4.784,0,8.662,3.878,8.662,8.661c0,4.785-3.879,8.662-8.662,8.662c-4.784,0-8.661-3.877-8.661-8.662
			C188.683,268.878,192.56,265,197.344,265L197.344,265z"/>
		<path fill-rule="evenodd" clip-rule="evenodd" fill="#E5E6E7" d="M202.253,270.971c1.499,0,2.714,1.215,2.714,2.714
			c0,1.499-1.215,2.715-2.714,2.715c-1.499,0-2.714-1.216-2.714-2.715C199.539,272.186,200.755,270.971,202.253,270.971
			L202.253,270.971z"/>
		<path fill-rule="evenodd" clip-rule="evenodd" fill="#E5E6E7" d="M209.334,270.952c-5.066-19.031-30.494-18.325-32.495,3.959
			C187.895,268.572,209.982,269.797,209.334,270.952L209.334,270.952z"/>
		<path opacity="0.3" fill-rule="evenodd" clip-rule="evenodd" fill="#B18346" d="M232.029,352.107
			c1.855-16.383,3.493-36.213-1.394-52.699c-4.044-13.636-10.685-24.616-22.368-31.699c-0.146-7.556-14.059-16.889-22.002-8.624
			c-0.469,0.128-0.603,0.337-1.084,0.704c-0.27-3.451,0.792-9.953,1.163-12.095c20.425,10.112,45.185,21.578,50.41,48.878
			c2.503,13.078-0.603,41.073-4.479,54.854C232.21,351.657,232.128,351.883,232.029,352.107L232.029,352.107z"/>
		<path fill-rule="evenodd" clip-rule="evenodd" fill="#63A6A2" d="M328.673,276.573c0.91-17.775-16.556-18.007-21.714-8.504
			c-3.591,12.472-7.686,18.462-16.288,27.562c6.756-3.86,6.638-5.427,13.394-9.287C317.583,292.751,328.424,285.487,328.673,276.573
			L328.673,276.573z"/>
		<path fill-rule="evenodd" clip-rule="evenodd" fill="#414142" d="M316.368,264.992c-5.597,0-10.134,4.537-10.134,10.133
			c0,5.597,4.537,10.134,10.134,10.134c5.596,0,10.133-4.537,10.133-10.134C326.501,269.53,321.964,264.992,316.368,264.992
			L316.368,264.992z"/>
		<path fill-rule="evenodd" clip-rule="evenodd" fill="#231F20" d="M328.914,271.151c0.029,0.141,0.06,0.279,0.091,0.417
			c0.724-0.209,1.668-0.135,2.337-0.414l0.049,0.209c0.753-0.349,1.301-0.537,2.106-0.927c2.187,7.431,7.391,12.686,13.436,17.334
			c-7.352-4.041-12.209-9.853-15.203-15.173c1.657,5.366,5.332,9.453,9.602,13.158c-5.332-3.216-9.716-8.523-12.008-12.977
			c1.456,4.848,4.704,8.618,8.489,12.062c-5.268-3.349-9.45-8.951-11.276-13.292C327.229,271.282,328.223,271.419,328.914,271.151
			L328.914,271.151z"/>
		
			<path fill-rule="evenodd" clip-rule="evenodd" fill="#231F20" stroke="#231F20" stroke-width="0.5669" stroke-miterlimit="22.9256" d="
			M316.03,265.535c-4.784,0-8.661,3.878-8.661,8.662c0,4.784,3.878,8.662,8.661,8.662c4.784,0,8.661-3.879,8.661-8.662
			C324.691,269.413,320.813,265.535,316.03,265.535L316.03,265.535z"/>
		<path fill-rule="evenodd" clip-rule="evenodd" fill="#E5E6E7" d="M311.12,271.507c-1.498,0-2.714,1.215-2.714,2.714
			c0,1.499,1.216,2.714,2.714,2.714c1.5,0,2.714-1.215,2.714-2.714C313.835,272.722,312.62,271.507,311.12,271.507L311.12,271.507z"
			/>
		<path fill-rule="evenodd" clip-rule="evenodd" fill="#E5E6E7" d="M304.04,271.487c5.065-19.032,30.494-18.324,32.495,3.958
			C325.479,269.108,303.391,270.332,304.04,271.487L304.04,271.487z"/>
		<path opacity="0.3" fill-rule="evenodd" clip-rule="evenodd" fill="#B18346" d="M280.058,351.954
			c-1.856-16.384-3.493-36.214,1.394-52.699c4.043-13.636,10.684-24.618,22.368-31.699c0.145-7.556,14.059-16.888,22.002-8.625
			c0.47,0.128,0.602,0.337,1.083,0.705c0.271-3.451-0.792-9.952-1.163-12.094c-20.424,10.112-45.185,21.577-50.409,48.879
			c-2.504,13.077,0.602,41.073,4.479,54.854C279.875,351.504,279.959,351.729,280.058,351.954L280.058,351.954z"/>
	</g>
</g>
</svg>
