<?xml version="1.0" encoding="utf-8"?>
<!-- Generator: Adobe Illustrator 17.0.0, SVG Export Plug-In . SVG Version: 6.00 Build 0)  -->
<!DOCTYPE svg PUBLIC "-//W3C//DTD SVG 1.1//EN" "http://www.w3.org/Graphics/SVG/1.1/DTD/svg11.dtd">
<svg version="1.1" id="Layer_1" xmlns="http://www.w3.org/2000/svg" xmlns:xlink="http://www.w3.org/1999/xlink" x="0px" y="0px"
	 width="512px" height="512px" viewBox="0 0 512 512" enable-background="new 0 0 512 512" xml:space="preserve">
<g>
	<path fill="#619743" d="M256,31C131.747,31,31,131.747,31,256s100.747,225,225,225s225-100.747,225-225S380.253,31,256,31z"/>
	<g>
		<circle fill="#975B51" cx="143.249" cy="229.713" r="40.625"/>
		<circle fill="#EBCAA1" cx="143.249" cy="229.713" r="25.392"/>
		<circle fill="#975B51" cx="376.866" cy="229.713" r="40.625"/>
		<circle fill="#EBCAA1" cx="376.866" cy="229.713" r="25.392"/>
		<path fill="#AF6F5B" d="M374.805,253.746c-5.145-8.878-8.099-18.852-8.099-29.113v-0.001c0-44.508-27.283-82.61-66.021-98.592
			v-18.213l-25.392,10.157l-5.078-20.314c-13.395,4.465-24.821,13.836-33.428,22.937c-47.696,10.629-83.378,53.128-83.378,104.026
			c0,10.261-2.954,20.235-8.099,29.113c-7.822,13.497-12.215,28.585-12.215,44.525c0,57.498,56.843,104.109,126.963,104.109
			s126.963-46.611,126.963-104.109C387.02,282.332,382.627,267.243,374.805,253.746z"/>
		<path fill="#975B51" d="M188.958,316.47c0-18.597,4.393-36.2,12.215-51.946c5.146-10.357,8.099-21.994,8.099-33.965
			c0-51.679,27.04-95.909,65.491-114.694l-4.548-18.193c-13.395,4.465-24.821,13.836-33.428,22.937
			c-47.694,10.629-83.377,53.128-83.377,104.026c0,10.261-2.953,20.235-8.099,29.113c-7.822,13.497-12.215,28.585-12.215,44.525
			c0,46.409,37.041,85.709,88.197,99.148C201.193,375.932,188.958,347.573,188.958,316.47z"/>
		<path fill="#F9EBC8" d="M260.057,382.067c42.072,0,76.178-27.285,76.178-60.942c0-6.982-1.485-13.68-4.203-19.917
			c-3.942-9.044-2.6-19.425,3.733-26.991c8.077-9.65,12.243-22.678,10.044-36.674c-3.02-19.224-18.561-34.737-37.789-37.731
			c-14.693-2.287-28.312,2.44-38.069,11.34c-2.774,2.529-6.334,3.794-9.893,3.794c-3.561,0-7.122-1.264-9.896-3.794
			c-9.757-8.899-23.376-13.627-38.069-11.34c-19.228,2.992-34.769,18.507-37.789,37.731c-2.199,13.995,1.967,27.024,10.044,36.674
			c6.333,7.566,7.675,17.946,3.733,26.991c-2.718,6.237-4.203,12.935-4.203,19.917C183.88,354.782,217.986,382.067,260.057,382.067z
			"/>
		<path fill="#F4DCB5" d="M183.88,321.124c0,11.391,3.978,22.013,10.777,31.133c-3.652-11.322-5.698-23.317-5.698-35.788
			c0-18.597,4.393-36.2,12.215-51.946c5.146-10.357,8.099-21.994,8.099-33.965c0-10.643,1.205-20.944,3.363-30.798
			c-0.181,0.026-0.359,0.025-0.541,0.053c-19.228,2.992-34.768,18.507-37.789,37.73c-2.199,13.996,1.968,27.024,10.044,36.674
			c6.333,7.565,7.676,17.946,3.734,26.991C185.364,307.445,183.88,314.142,183.88,321.124z"/>
		<g>
			<path fill="#5E5461" d="M249.896,295.733c-0.764,0-1.537-0.171-2.266-0.536l-10.157-5.078c-2.51-1.255-3.526-4.305-2.272-6.815
				c1.259-2.51,4.305-3.526,6.815-2.272l10.157,5.078c2.51,1.255,3.526,4.305,2.272,6.815
				C253.55,294.706,251.76,295.733,249.896,295.733z"/>
			<path fill="#5E5461" d="M270.219,295.733c-1.865,0-3.655-1.026-4.548-2.807c-1.255-2.51-0.238-5.559,2.272-6.815l10.157-5.078
				c2.505-1.255,5.554-0.238,6.815,2.272c1.255,2.51,0.238,5.559-2.272,6.815l-10.157,5.078
				C271.757,295.561,270.983,295.733,270.219,295.733z"/>
		</g>
		<path fill="#4C404F" d="M214.745,316.046c-3.076,0-5.498,2.725-5.072,5.771c3.152,22.519,24.509,39.935,50.384,39.935
			c25.876,0,47.232-17.417,50.384-39.935c0.426-3.046-1.997-5.771-5.072-5.771H214.745z"/>
		<path fill="#E6646E" d="M230.795,353.365c8.276,5.266,18.356,8.388,29.262,8.388s20.987-3.122,29.262-8.388
			c-3.669-12.709-15.413-22.083-29.262-22.083C246.208,331.282,234.464,340.655,230.795,353.365z"/>
		<path fill="#4C404F" d="M214.351,260.183L214.351,260.183c-8.414,0-15.235-6.821-15.235-15.235v-5.078
			c0-8.414,6.821-15.235,15.235-15.235l0,0c8.414,0,15.235,6.821,15.235,15.235v5.078
			C229.587,253.361,222.765,260.183,214.351,260.183z"/>
		<path fill="#5E5461" d="M214.351,224.633v17.775c0,4.207,3.411,7.618,7.618,7.618c4.207,0,7.618-3.411,7.618-7.618v-2.539
			C229.587,231.454,222.765,224.633,214.351,224.633z"/>
		<circle fill="#FFFFFF" cx="214.353" cy="234.793" r="5.078"/>
		<path fill="#4C404F" d="M305.764,260.183L305.764,260.183c-8.414,0-15.235-6.821-15.235-15.235v-5.078
			c0-8.414,6.821-15.235,15.235-15.235l0,0c8.414,0,15.235,6.821,15.235,15.235v5.078C321,253.361,314.178,260.183,305.764,260.183z
			"/>
		<path fill="#5E5461" d="M305.764,224.633v17.775c0,4.207,3.411,7.618,7.618,7.618c4.207,0,7.618-3.411,7.618-7.618v-2.539
			C321,231.454,314.178,224.633,305.764,224.633z"/>
		<circle fill="#FFFFFF" cx="305.762" cy="234.793" r="5.078"/>
		<path fill="#F37F87" d="M260.057,361.753c1.717,0,3.406-0.104,5.078-0.255v-9.902c0-2.804-2.272-5.078-5.078-5.078
			c-2.807,0-5.078,2.274-5.078,5.078v9.902C256.652,361.649,258.34,361.753,260.057,361.753z"/>
	</g>
</g>
</svg>
