<?xml version="1.0" encoding="utf-8"?>
<!-- Generator: Adobe Illustrator 17.0.0, SVG Export Plug-In . SVG Version: 6.00 Build 0)  -->
<!DOCTYPE svg PUBLIC "-//W3C//DTD SVG 1.1//EN" "http://www.w3.org/Graphics/SVG/1.1/DTD/svg11.dtd">
<svg version="1.1" id="Layer_1" xmlns="http://www.w3.org/2000/svg" xmlns:xlink="http://www.w3.org/1999/xlink" x="0px" y="0px"
	 width="512px" height="512px" viewBox="0 0 512 512" enable-background="new 0 0 512 512" xml:space="preserve">
<g>
	<path fill="#FFD400" d="M256,31C131.747,31,31,131.747,31,256s100.747,225,225,225s225-100.747,225-225S380.253,31,256,31z"/>
	<g>
		<path fill="#AA6941" d="M348.807,220.871l27.675,3.953c0-27.711-24.096-62.65-24.096-62.65h19.277
			c-14.458-19.277-43.374-24.096-43.374-24.096l14.458-9.638c-22.289-12.048-57.831-4.819-57.831-4.819s5.221-19.277,4.819-19.277
			c-15.261,0-33.735,15.663-33.735,24.096c0-8.433-18.474-24.096-33.735-24.096c-0.402,0,4.819,19.277,4.819,19.277
			s-35.542-7.229-57.831,4.819l14.458,9.638c0,0-28.915,4.819-43.374,24.096h19.277c0,0-24.096,34.94-24.096,62.65l27.675-3.954
			c-21.66,22.944-32.494,53.943-32.494,90.7l14.458-4.82c2.265,31.348,10.65,62.43,19.277,72.29c0,0,9.413-14.79,9.638-14.458
			c16.064,23.695,38.554,33.735,38.554,33.735s4.402-14.843,4.819-14.458C233.108,398.317,256,403.136,256,403.136
			s22.892-4.819,38.554-19.277c0.417-0.386,4.819,14.458,4.819,14.458s22.49-10.041,38.554-33.735
			c0.225-0.333,9.638,14.458,9.638,14.458c8.627-9.86,17.011-40.942,19.277-72.29l14.458,4.82
			C381.301,274.813,370.467,243.813,348.807,220.871z"/>
		<g>
			<path fill="#FFB94B" d="M222.265,340.486c0,17.831,15.777,28.915,33.735,28.915s33.735-11.566,33.735-28.915H222.265z"/>
			<path fill="#FFB94B" d="M279.968,166.38l0.004,0.005c-6.402-2.304-11.059-1.768-14.608,0.621c-5.557,3.74-13.17,3.74-18.728,0
				c-3.55-2.389-8.207-2.926-14.608-0.621l-0.414,0.154c-22.487,8.683-38.265,30.166-38.265,63.103
				c0,28.915,19.277,79.351,19.277,96.385h86.747c0-15.813,19.277-68.072,19.277-96.385
				C318.651,196.502,302.677,174.957,279.968,166.38z"/>
		</g>
		<path fill="#FFAB4B" d="M256,253.739L256,253.739c-19.312,0-35.641,14.297-38.193,33.439l-5.18,38.85h86.747l-5.18-38.85
			C291.641,268.036,275.312,253.739,256,253.739z"/>
		<path fill="#FFE187" d="M275.277,301.932c-7.919,0-30.634,0-38.554,0c-13.308,0-24.096,10.789-24.096,24.096
			c0,13.308,10.789,24.096,24.096,24.096c7.919,0,14.884-3.872,19.277-9.771c4.393,5.899,11.357,9.771,19.277,9.771
			c13.308,0,24.096-10.789,24.096-24.096C299.374,312.72,288.585,301.932,275.277,301.932z"/>
		<g>
			<path d="M270.458,297.113h-28.915c-2.664,0-4.819,2.158-4.819,4.819s2.155,4.819,4.819,4.819c5.314,0,9.638,4.323,9.638,9.638
				v4.819c0,2.662,2.155,4.819,4.819,4.819c2.664,0,4.819-2.158,4.819-4.819v-4.819c0-5.316,4.326-9.638,9.638-9.638
				c2.664,0,4.819-2.158,4.819-4.819S273.122,297.113,270.458,297.113z"/>
			<circle cx="294.554" cy="229.643" r="7.229"/>
			<circle cx="217.446" cy="229.643" r="7.229"/>
		</g>
		<g>
			<path fill="#FFAB4B" d="M168.377,215.724c8.14-7.57,17.6-14.138,28.378-19.604c-18.946-12.963-41.96-9.401-41.96-9.401
				S154.489,202.367,168.377,215.724z"/>
			<path fill="#FFAB4B" d="M343.622,215.724c13.888-13.356,13.582-29.005,13.582-29.005s-23.014-3.562-41.96,9.401
				C326.022,201.586,335.482,208.153,343.622,215.724z"/>
		</g>
	</g>
</g>
</svg>
