<?xml version="1.0" encoding="utf-8"?>
<!-- Generator: Adobe Illustrator 17.0.0, SVG Export Plug-In . SVG Version: 6.00 Build 0)  -->
<!DOCTYPE svg PUBLIC "-//W3C//DTD SVG 1.1//EN" "http://www.w3.org/Graphics/SVG/1.1/DTD/svg11.dtd">
<svg version="1.1" id="Layer_1" xmlns="http://www.w3.org/2000/svg" xmlns:xlink="http://www.w3.org/1999/xlink" x="0px" y="0px"
	 width="512px" height="512px" viewBox="0 0 512 512" enable-background="new 0 0 512 512" xml:space="preserve">
<g>
	<path fill="#FFD400" d="M256,31C131.747,31,31,131.747,31,256s100.747,225,225,225s225-100.747,225-225S380.253,31,256,31z"/>
	<g>
		<path fill="#3478BC" d="M407.934,135.067c-0.605-2.309-2.937-3.697-5.252-3.114c-6.324,1.593-18.677,6.147-26.282,18.37
			c-0.522,0.931-0.985,1.865-1.412,2.799c-0.427-0.934-0.89-1.868-1.412-2.799c-7.606-12.223-19.959-16.777-26.282-18.37
			c-2.315-0.583-4.647,0.805-5.252,3.114c-1.654,6.312-3.613,19.322,3.423,31.87c3.733,6,8.609,10.148,13.355,13.007
			c1.516,0.913,2.305,2.692,1.975,4.43c-9.358,49.241-72.588,50.838-72.588,50.838H139.569c-25.654,0-43.6,25.49-34.816,49.594
			c20.258,55.594,73.6,95.284,136.208,95.252c79.628-0.04,144.771-66.604,144.771-146.233V185.48c0-1.623,0.903-3.114,2.353-3.842
			c5.637-2.83,11.879-7.393,16.426-14.701C411.547,154.389,409.587,141.38,407.934,135.067z"/>
		<path fill="#0D6DB5" d="M404.513,166.938c-4.551,7.31-10.792,11.873-16.429,14.701c-1.445,0.729-2.352,2.223-2.352,3.84v48.349
			c0,79.628-65.143,146.191-144.771,146.234c-47.936,0.025-90.444-23.246-116.827-59.105c26.444,28.253,64.081,45.899,105.837,45.88
			c79.634-0.037,144.777-66.6,144.777-146.234c0-8.112,0.221-16.262,0.085-24.365c-0.127-7.503-2.306-15.942,1.075-23.042
			c3.757-7.889,12.949-11.977,17.616-19.478c3.995-7.125,5.087-14.398,4.982-20.504c1.562-0.549,2.982-0.957,4.18-1.26
			c2.309-0.586,4.643,0.803,5.248,3.112C409.587,141.377,411.544,154.391,404.513,166.938z"/>
		<path fill="#E8E7E9" d="M293.515,370.203c-16.307,6.366-34.056,9.855-52.626,9.855c-62.429,0-115.634-39.489-135.991-94.861
			h65.846c24.456,0,47.905,9.748,65.153,27.087L293.515,370.203z"/>
		<path fill="#D5D5D7" d="M280.765,357.387c-15.824,6.094-32.945,9.447-50.795,9.453c-41.731,0.019-79.344-17.602-105.781-45.824
			l-0.056-0.056c0.599,0.815,1.204,1.624,1.828,2.42c0.549,0.716,1.105,1.433,1.675,2.139
			c10.028,12.427,20.828,22.385,34.264,31.127c9.008,5.86,18.18,10.485,28.287,14.287c4.938,1.858,10.263,3.529,15.358,4.785
			c8.561,2.111,17.5,3.568,26.271,4.063c4.788,0.27,9.493,0.339,14.275,0.185c0.383-0.013,0.759-0.025,1.142-0.043
			c0.383-0.019,0.766-0.037,1.148-0.056c15.756-0.827,30.865-4.26,44.929-9.866L280.765,357.387z"/>
		<path fill="#3478BC" d="M246.865,322.629c0,0,2.677,33.9,31.189,52.905c23.402,14.103,48.366,9.309,57.521,6.787
			c2.148-0.592,3.49-2.709,3.11-4.904c-1.623-9.357-7.932-33.982-30.666-49.136C278.67,310.596,246.865,322.629,246.865,322.629z"/>
		<path fill="#0D6DB5" d="M335.572,382.321c-9.15,2.519-34.118,7.316-57.518-6.785c-28.512-19.004-31.192-52.906-31.192-52.906
			s2.618-0.994,7.051-1.988c3.39,11.608,11.157,28.882,28.654,40.552c20.93,12.608,43.101,10.107,54.104,7.637
			c1.013,3.47,1.636,6.433,2.013,8.588C339.067,379.611,337.72,381.729,335.572,382.321z"/>
		<circle fill="#57565B" cx="193.009" cy="262.352" r="6.723"/>
		<path fill="#8BC5EB" d="M140.434,187.893c2.557,0,4.63-2.074,4.63-4.63v-10.294c0-7.389,6.012-13.401,13.401-13.401
			c6.904,0,12.604,5.248,13.323,11.964c-0.03,0.476-0.05,39.147-0.05,39.147c0,2.557,2.073,4.63,4.63,4.63
			c0.022,0,0.043-0.003,0.064-0.003c0.022,0.001,0.043,0.003,0.064,0.003c2.557,0,4.63-2.074,4.63-4.63c0,0-0.02-38.671-0.05-39.147
			c0.72-6.716,6.42-11.964,13.323-11.964c7.389,0,13.401,6.012,13.401,13.401v10.294c0,2.557,2.073,4.63,4.63,4.63
			c2.557,0,4.63-2.074,4.63-4.63v-10.294c0-12.496-10.166-22.662-22.662-22.662c-7.311,0-13.821,3.483-17.967,8.874
			c-4.146-5.391-10.656-8.874-17.967-8.874c-12.496,0-22.662,10.166-22.662,22.662v10.294
			C135.804,185.82,137.877,187.893,140.434,187.893z"/>
	</g>
</g>
</svg>
