<?xml version="1.0" encoding="utf-8"?>
<!-- Generator: Adobe Illustrator 16.0.0, SVG Export Plug-In . SVG Version: 6.00 Build 0)  -->
<!DOCTYPE svg PUBLIC "-//W3C//DTD SVG 1.1 Tiny//EN" "http://www.w3.org/Graphics/SVG/1.1/DTD/svg11-tiny.dtd">
<svg version="1.1" baseProfile="tiny" id="Layer_1" xmlns="http://www.w3.org/2000/svg" xmlns:xlink="http://www.w3.org/1999/xlink"
	 x="0px" y="0px" width="300px" height="300px" viewBox="0 0 300 300" xml:space="preserve">
<g>
	<circle fill="#2C323A" cx="150" cy="150" r="131.6"/>
	<g>
		<g>
			<rect x="47.352" y="85.04" fill="#202356" width="63.601" height="29.4"/>
			<path fill="#895D39" d="M113.139,116.627H45.165V82.854h67.974V116.627z M49.538,112.254h59.228V87.227H49.538V112.254z"/>
		</g>
		<g>
			<path fill="#E30B14" d="M70.001,95.617h4.254c1.285,0,2.288,0.244,3.008,0.731c0.842,0.576,1.263,1.485,1.263,2.726
				c0,0.709-0.161,1.271-0.482,1.687s-0.825,0.772-1.512,1.072c0.587,0.222,1.075,0.648,1.462,1.28
				c0.078,0.122,0.354,0.731,0.831,1.828c0.332,0.776,0.77,1.579,1.312,2.41h-3.439l-1.014-2.21
				c-0.41-0.875-0.693-1.418-0.848-1.629c-0.41-0.565-0.925-0.847-1.545-0.847h-0.299v4.686h-2.991V95.617z M74.022,100.386
				c0.421,0,0.767-0.105,1.039-0.315s0.407-0.526,0.407-0.947c0-0.388-0.125-0.69-0.374-0.906c-0.249-0.216-0.579-0.324-0.989-0.324
				h-1.113v2.493H74.022z"/>
			<path fill="#E30B14" d="M80.752,95.617h8.093v2.243H83.71v2.393h4.853v2.243H83.71v2.609h5.251v2.243h-8.209V95.617z"/>
			<path fill="#E30B14" d="M100.594,99.207c-0.997-0.499-1.624-0.798-1.878-0.897c-0.709-0.277-1.385-0.416-2.027-0.416
				c-1.119,0-2.05,0.342-2.792,1.025c-0.742,0.683-1.113,1.58-1.113,2.69c0,1.033,0.382,1.86,1.146,2.481
				c0.72,0.589,1.606,0.883,2.659,0.883c0.554,0,1.102-0.083,1.645-0.249c0.642-0.2,1.473-0.598,2.493-1.197l-0.017,2.742
				c-0.854,0.454-1.584,0.775-2.194,0.964c-0.753,0.232-1.545,0.349-2.376,0.349c-1.729,0-3.219-0.526-4.47-1.581
				c-1.319-1.109-1.978-2.518-1.978-4.227c0-1.93,0.623-3.48,1.87-4.651c1.246-1.17,2.844-1.755,4.794-1.755
				c1.451,0,2.864,0.382,4.238,1.146V99.207z"/>
		</g>
		<circle fill="#E30B14" cx="59.635" cy="101.938" r="3.6"/>
	</g>
	<path fill="#A97D4C" d="M131.488,147.458c0,0-7.74-3.048-12.983,6.609c0,0-7.174-4.194-10.485,4.111s3.863,8.958,3.863,8.958
		s-5.518,5.693-1.379,13.143s13.481,3.728,13.481,3.728s-1.598,6.707,7.503,10.618s13.23-6.208,13.23-6.208
		s-4.588,9.521,7.225,11.177s14.78-7.45,14.78-7.45v-17.659L131.488,147.458z"/>
	<path fill="#A97D4C" d="M216.606,147.458c0,0,7.74-3.048,12.983,6.609c0,0,7.174-4.194,10.485,4.111s-3.863,8.958-3.863,8.958
		s5.518,5.693,1.379,13.143s-13.481,3.728-13.481,3.728s1.598,6.707-7.503,10.618s-13.23-6.208-13.23-6.208
		s4.588,9.521-7.225,11.177s-14.78-7.45-14.78-7.45v-17.659L216.606,147.458z"/>
	<path fill="#8F2581" d="M244.152,241.196c-6.502-50.182-61.959-47.06-69.679-46.216c-7.72-0.844-65.626,1.027-72.992,77.386
		c0,0,31.379,16.917,73.406,6.879C224.184,267.471,244.152,241.196,244.152,241.196z"/>
	<path fill="#F19574" d="M191.044,208.475c0,5.292-4.29,9.582-9.581,9.582h-12.18c-5.292,0-9.581-4.289-9.581-9.582v-48.937
		c0-5.291,4.289-9.58,9.581-9.58h12.18c5.291,0,9.581,4.289,9.581,9.58V208.475z"/>
	<path fill="#F3A285" d="M218.959,145.136c0,21.47-17.402,38.871-38.872,38.871h-11.372c-21.467,0-38.871-17.4-38.871-38.871V93.495
		c0-21.468,17.404-38.871,38.871-38.871h11.372c21.469,0,38.872,17.402,38.872,38.871V145.136z"/>
	<g>
		<path fill="#F3A285" d="M131.488,114.216c-0.147-0.005-0.295-0.013-0.443-0.013c-8.043,0-14.562,6.522-14.562,14.564
			c0,8.042,6.519,14.562,14.562,14.562c0.148,0,0.296-0.006,0.443-0.01V114.216z"/>
		<path fill="#F08660" d="M131.488,121.257c-0.077-0.002-0.153-0.006-0.229-0.006c-4.151,0-7.516,3.365-7.516,7.517
			c0,4.151,3.365,7.515,7.516,7.515c0.076,0,0.151-0.004,0.229-0.005V121.257z"/>
	</g>
	<g>
		<path fill="#F3A285" d="M218.352,114.216c0.147-0.005,0.294-0.013,0.443-0.013c8.042,0,14.562,6.522,14.562,14.564
			c0,8.042-6.52,14.562-14.562,14.562c-0.149,0-0.296-0.006-0.443-0.01V114.216z"/>
		<path fill="#F08660" d="M218.352,121.257c0.076-0.002,0.151-0.006,0.229-0.006c4.15,0,7.516,3.365,7.516,7.517
			c0,4.151-3.365,7.515-7.516,7.515c-0.077,0-0.153-0.004-0.229-0.005V121.257z"/>
	</g>
	<path fill="#F6B9A3" d="M183.096,131.641c0,1.114-0.903,2.017-2.017,2.017h-12.34c-1.113,0-2.016-0.903-2.016-2.017l0,0
		c0-1.114,0.903-2.015,2.016-2.015h12.34C182.192,129.626,183.096,130.527,183.096,131.641L183.096,131.641z"/>
	<circle fill="#8F2581" cx="123.985" cy="143.33" r="4.128"/>
	<circle fill="#8F2581" cx="226.095" cy="143.33" r="4.128"/>
	<path fill="#EE7A50" d="M158.222,127.3c-0.211,0-0.425-0.051-0.624-0.158c-6.688-3.601-11.171-1.539-11.358-1.449
		c-0.651,0.312-1.44,0.041-1.757-0.611c-0.316-0.651-0.053-1.433,0.595-1.755c0.233-0.116,5.817-2.789,13.77,1.494
		c0.641,0.345,0.881,1.144,0.536,1.785C159.146,127.049,158.691,127.3,158.222,127.3z"/>
	<path fill="#EE7A50" d="M191.587,127.3c-0.469,0-0.923-0.251-1.161-0.693c-0.345-0.641-0.105-1.44,0.536-1.785
		c7.956-4.284,13.535-1.61,13.77-1.494c0.652,0.323,0.918,1.114,0.595,1.766c-0.322,0.649-1.106,0.917-1.758,0.599
		c-0.2-0.096-4.679-2.146-11.357,1.449C192.012,127.249,191.798,127.3,191.587,127.3z"/>
	<path fill="#A97D4C" d="M173.899,51.518c0,0-48.33,0.286-48.33,38.368v25.025l5.919-0.695c0,0,5.248-11.159,5.248-24.33
		c0,0,0.286-9.449,8.018-9.449s19.471,0,19.471,0s9.675,0.573,9.675-7.158V51.518z"/>
	<path fill="#A97D4C" d="M172.974,51.518c0,0,48.33,0.286,48.33,38.368v25.025l-5.919-0.695c0,0-5.248-11.159-5.248-24.33
		c0,0-0.286-9.449-8.018-9.449c-7.731,0-19.47,0-19.47,0s-9.675,0.573-9.675-7.158V51.518z"/>
	<g>
		<path fill="#E6352B" d="M151.985,145.513c-0.021,1.085-0.061,1.479-0.061,1.881c0,12.95,10.498,23.449,23.449,23.449
			c12.951,0,23.449-10.499,23.449-23.449c0-0.403-0.04-0.796-0.061-1.881H151.985z"/>
		<path fill="#FFFFFF" d="M161.319,145.697h28.109C189.429,145.697,175.457,157.875,161.319,145.697z"/>
		<path fill="#D50C00" d="M161.835,166.539c0,0,3.312-14.58,13.245-14.58s13.122,15.065,13.122,15.065s-5.186,3.799-13.728,3.799
			C165.931,170.822,161.835,166.539,161.835,166.539z"/>
		<path fill="#F28D92" d="M165.848,169.106c0,0,8.262,4.23,18.22,0C184.068,169.106,174.61,162.698,165.848,169.106z"/>
	</g>
	<path fill="#A97D4C" d="M156.729,105.485c0.331,1.32-0.472,2.659-1.792,2.989l-9.862,2.469c-1.32,0.33-2.658-0.472-2.989-1.792l0,0
		c-0.331-1.321,0.472-2.659,1.792-2.989l9.862-2.469C155.061,103.362,156.398,104.165,156.729,105.485L156.729,105.485z"/>
	<path fill="#A97D4C" d="M192.005,105.485c-0.331,1.32,0.472,2.659,1.792,2.989l9.862,2.469c1.32,0.33,2.658-0.472,2.989-1.792l0,0
		c0.331-1.321-0.472-2.659-1.792-2.989l-9.862-2.469C193.673,103.362,192.335,104.165,192.005,105.485L192.005,105.485z"/>
	<g>
		<path fill="#808181" d="M129.038,144.792c0,3.866-3.134,7-7,7h-13.869c-3.866,0-7-3.134-7-7v-27.688c0-3.866,3.134-7,7-7h13.869
			c3.866,0,7,3.134,7,7V144.792z"/>
		<path fill="#A9AAAA" d="M131.797,147.68c0,3.81-3.088,6.898-6.898,6.898l0,0c-3.81,0-6.898-3.088-6.898-6.898v-33.464
			c0-3.81,3.088-6.898,6.898-6.898l0,0c3.81,0,6.898,3.088,6.898,6.898V147.68z"/>
	</g>
	<g>
		<path fill="#808181" d="M218.802,117.104c0-3.866,3.134-7,7-7h13.869c3.866,0,7,3.134,7,7v27.688c0,3.866-3.134,7-7,7h-13.869
			c-3.866,0-7-3.134-7-7V117.104z"/>
		<path fill="#A9AAAA" d="M216.043,114.216c0-3.81,3.088-6.898,6.898-6.898l0,0c3.81,0,6.898,3.088,6.898,6.898v33.464
			c0,3.81-3.088,6.898-6.898,6.898l0,0c-3.81,0-6.898-3.088-6.898-6.898V114.216z"/>
	</g>
	<path fill="#808181" d="M235.038,111.157l-3.99-0.279c0.021-0.298,1.857-30.006-15.604-48.715
		c-9.513-10.193-23.062-15.361-40.272-15.361h-2.198c-17.22,0-30.776,5.175-40.29,15.38c-17.473,18.743-15.607,48.398-15.586,48.696
		l-3.99,0.28c-0.09-1.285-1.996-31.701,16.65-51.704c10.301-11.05,24.841-16.652,43.215-16.652h2.198
		c18.375,0,32.915,5.603,43.215,16.652C237.034,79.457,235.128,109.872,235.038,111.157z"/>
	<path fill="#A9AAAA" d="M159.677,219.227c0,7.711-6.252,13.963-13.963,13.963l0,0c-7.711,0-13.963-6.252-13.963-13.963v-31.378
		c0-7.711,6.252-13.963,13.963-13.963l0,0c7.711,0,13.963,6.252,13.963,13.963V219.227z"/>
	<path fill="#808181" d="M131.751,197.961v21.266c0,7.711,6.252,13.963,13.963,13.963s13.963-6.252,13.963-13.963v-21.266H131.751z"
		/>
	<path fill="#808181" d="M145.714,239.676c-10.802,0-19.59-8.788-19.59-19.59v-8.427c0-0.829,0.671-1.5,1.5-1.5s1.5,0.671,1.5,1.5
		v8.427c0,9.147,7.442,16.59,16.59,16.59s16.59-7.442,16.59-16.59v-8.427c0-0.829,0.671-1.5,1.5-1.5s1.5,0.671,1.5,1.5v8.427
		C165.304,230.888,156.516,239.676,145.714,239.676z"/>
	<rect x="131.233" y="195.296" fill="#6A6C6C" width="28.963" height="4.203"/>
	<g>
		<circle fill="#6E6F6F" cx="145.714" cy="208.946" r="4.286"/>
		<circle fill="#A9AAAA" cx="145.715" cy="208.946" r="2.765"/>
	</g>
	<g>
		<path fill="#808181" d="M133.913,214.732h-9.394c-0.829,0-1.5-0.671-1.5-1.5s0.671-1.5,1.5-1.5h9.394c0.829,0,1.5,0.671,1.5,1.5
			S134.741,214.732,133.913,214.732z"/>
		<path fill="#808181" d="M166.91,214.732h-9.394c-0.829,0-1.5-0.671-1.5-1.5s0.671-1.5,1.5-1.5h9.394c0.829,0,1.5,0.671,1.5,1.5
			S167.738,214.732,166.91,214.732z"/>
	</g>
	<path fill="#808181" d="M141.714,282.258v-41.081c0-2.209,1.791-4,4-4s4,1.791,4,4v41.25
		C145.075,282.566,141.714,282.258,141.714,282.258z"/>
	<path fill="#F3A285" d="M161.835,269.392c0,3.866-3.134,7-7,7h-14.584c-3.866,0-7-3.134-7-7v-18.723c0-3.866,3.134-7,7-7h14.584
		c3.866,0,7,3.134,7,7V269.392z"/>
	<path fill="#535554" d="M88.953,162.948H63.235c-1.381,0-2.5-1.119-2.5-2.5s1.119-2.5,2.5-2.5h25.717c1.381,0,2.5,1.119,2.5,2.5
		S90.333,162.948,88.953,162.948z"/>
	<path fill="#535554" d="M88.951,146.875c-0.362,0-0.73-0.079-1.078-0.246l-12.859-6.161c-1.245-0.596-1.771-2.089-1.174-3.334
		c0.595-1.246,2.088-1.772,3.334-1.174l12.859,6.161c1.245,0.596,1.771,2.089,1.174,3.334
		C90.778,146.352,89.883,146.875,88.951,146.875z"/>
	<path fill="#535554" d="M75.799,185.875c-1.031,0-1.996-0.642-2.358-1.67c-0.459-1.302,0.225-2.73,1.527-3.188l13.449-4.737
		c1.303-0.458,2.73,0.225,3.188,1.527c0.459,1.302-0.225,2.73-1.527,3.188l-13.449,4.737
		C76.354,185.829,76.074,185.875,75.799,185.875z"/>
</g>
</svg>
