<?xml version="1.0" encoding="utf-8"?>
<!-- Generator: Adobe Illustrator 16.0.0, SVG Export Plug-In . SVG Version: 6.00 Build 0)  -->
<!DOCTYPE svg PUBLIC "-//W3C//DTD SVG 1.1 Tiny//EN" "http://www.w3.org/Graphics/SVG/1.1/DTD/svg11-tiny.dtd">
<svg version="1.1" baseProfile="tiny" id="Layer_1" xmlns="http://www.w3.org/2000/svg" xmlns:xlink="http://www.w3.org/1999/xlink"
	 x="0px" y="0px" width="300px" height="300px" viewBox="0 0 300 300" xml:space="preserve">
<g>
	<circle fill="#163A6C" cx="150" cy="150" r="131.6"/>
	<path fill="#274977" d="M46.273,189.025h112.553c0,0-11.623-40.135-51.169-20.067c0,0-13.575-11.521-21.839,7.225
		C85.818,176.183,55.717,169.548,46.273,189.025z"/>
	<circle fill="#6E85A4" cx="113.757" cy="99.933" r="37.222"/>
	<path fill="#1C1B1A" d="M221.033,260.8l10.194-7.253l-11.096-20.912L218,209.689l-5.254-12.436l-6.972-14.588h-89.71
		l-15.123,43.378l-15.471,12.2l-4.438,23.857c0,0,25.202,19.498,67.565,19.498S221.033,260.8,221.033,260.8z"/>
	<g>
		<polygon fill="#1C1B1A" points="125.619,182.666 125.619,120.488 209.963,120.488 205.774,182.666 		"/>
		<polygon fill="#292827" points="114.254,127.068 220.132,127.068 215.346,107.926 123.139,107.926 		"/>
		<path fill="#895D39" d="M192.696,182.666v-16.581c0-3.453-2.802-6.253-6.257-6.253c-3.453,0-6.254,2.8-6.254,6.253v16.581H192.696
			z"/>
		<rect x="180.186" y="170.984" fill="#946D4D" width="12.511" height="2.812"/>
		<g>
			<g>
				<path fill="#F8AE32" d="M147.936,141.936h4.465v-1.606c0-2.695-1.919-4.942-4.465-5.453V141.936z"/>
				<path fill="#F8AE32" d="M145.732,141.936v-7.06c-2.545,0.511-4.463,2.758-4.463,5.453v1.606H145.732z"/>
				<rect x="147.936" y="144.139" fill="#F8AE32" width="4.465" height="4.5"/>
				<rect x="141.27" y="144.139" fill="#F8AE32" width="4.463" height="4.5"/>
			</g>
			<rect x="138.729" y="148.639" fill="#535554" width="15.791" height="2.938"/>
		</g>
		<g>
			<g>
				<path fill="#F8AE32" d="M147.936,166.541h4.465v-1.605c0-2.696-1.919-4.942-4.465-5.454V166.541z"/>
				<path fill="#F8AE32" d="M145.732,166.541v-7.06c-2.545,0.512-4.463,2.758-4.463,5.454v1.605H145.732z"/>
				<rect x="147.936" y="168.746" fill="#F8AE32" width="4.465" height="4.498"/>
				<rect x="141.27" y="168.746" fill="#F8AE32" width="4.463" height="4.498"/>
			</g>
			<rect x="138.729" y="173.244" fill="#535554" width="15.791" height="2.938"/>
		</g>
		<g>
			<g>
				<path fill="#F8AE32" d="M188.645,141.936h4.465v-1.606c0-2.695-1.92-4.942-4.465-5.453V141.936z"/>
				<path fill="#F8AE32" d="M186.442,141.936v-7.06c-2.547,0.511-4.465,2.758-4.465,5.453v1.606H186.442z"/>
				<rect x="188.645" y="144.139" fill="#F8AE32" width="4.465" height="4.5"/>
				<rect x="181.978" y="144.139" fill="#F8AE32" width="4.465" height="4.5"/>
			</g>
			<rect x="179.438" y="148.639" fill="#535554" width="15.79" height="2.938"/>
		</g>
		<path fill="#623B17" d="M183.235,174.874c0,0.346-0.282,0.628-0.629,0.628l0,0c-0.347,0-0.629-0.282-0.629-0.628v-4.699
			c0-0.349,0.282-0.63,0.629-0.63l0,0c0.347,0,0.629,0.281,0.629,0.63V174.874z"/>
		<polygon fill="#1C1B1A" points="158.826,107.926 158.826,64.646 190.877,64.646 188.645,107.926 		"/>
		<g>
			<g>
				<path fill="#F8AE32" d="M176.162,81.72h4.465v-1.606c0-2.696-1.918-4.943-4.465-5.453V81.72z"/>
				<path fill="#F8AE32" d="M173.959,81.72v-7.06c-2.544,0.51-4.463,2.757-4.463,5.453v1.606H173.959z"/>
				<rect x="176.162" y="83.922" fill="#F8AE32" width="4.465" height="4.5"/>
				<rect x="169.496" y="83.922" fill="#F8AE32" width="4.463" height="4.5"/>
			</g>
			<rect x="166.955" y="88.422" fill="#535554" width="15.792" height="2.938"/>
		</g>
		<path fill="#292827" d="M154.52,64.646c1.328,1.327,40.708,0,40.708,0v-2.067l-20.353-20.245L154.52,60.927V64.646z"/>
	</g>
	<g>
		<polygon fill="#A97D4C" points="122.484,182.666 123.451,173.374 123.484,173.059 123.648,172.892 130.481,165.921 
			130.312,166.206 133.419,155.793 133.461,155.653 133.556,155.543 137.696,150.693 137.57,151.369 135.322,142.912 
			138.871,150.911 139.025,151.26 138.745,151.588 134.604,156.438 134.741,156.188 131.635,166.601 131.586,166.764 
			131.466,166.886 124.633,173.856 124.83,173.374 125.797,182.666 		"/>
		<polygon fill="#A97D4C" points="123.541,173.715 115.006,158.73 114.828,158.418 114.98,158.094 117.719,152.295 117.964,153.166 
			110.717,148.404 110.442,148.224 110.415,147.938 109.439,137.655 111.776,147.717 111.475,147.252 118.722,152.014 
			119.223,152.343 118.967,152.885 116.229,158.684 116.204,158.047 124.74,173.033 		"/>
		<polygon fill="#A97D4C" points="116.205,160.377 109.291,158.855 108.996,158.79 108.844,158.529 105.944,153.559 106.54,153.9 
			98.051,153.211 106.54,152.521 106.918,152.49 107.136,152.863 110.035,157.834 109.588,157.508 116.502,159.031 		"/>
		<path fill="#A97D4C" d="M131.886,162.412c-1.071-0.887-2.111-1.791-3.129-2.744c-0.507-0.479-1.007-0.968-1.49-1.496
			c-0.241-0.267-0.478-0.54-0.705-0.856c-0.114-0.155-0.227-0.333-0.332-0.547c-0.051-0.13-0.106-0.231-0.137-0.442
			c-0.035-0.162-0.02-0.541,0.247-0.818c0.154-0.205,0.189-0.356,0.35-0.689c0.125-0.297,0.247-0.606,0.361-0.922
			c0.231-0.63,0.446-1.273,0.654-1.922c0.415-1.293,0.805-2.607,1.175-3.916l0.001-0.002l0.18,0.676l-4.92-5.82l5.889,4.839
			l0.266,0.219l-0.086,0.458v0.002c-0.377,1.331-0.768,2.648-1.191,3.968c-0.211,0.659-0.431,1.315-0.673,1.975
			c-0.118,0.329-0.247,0.658-0.39,0.993c-0.127,0.285-0.34,0.788-0.633,1.11c0.162-0.142,0.137-0.337,0.137-0.337
			c-0.012-0.038,0.009,0.017,0.021,0.047c0.048,0.092,0.114,0.209,0.205,0.329c0.173,0.24,0.384,0.488,0.603,0.729
			c0.443,0.484,0.924,0.957,1.415,1.419c0.984,0.923,2.017,1.82,3.059,2.683L131.886,162.412z"/>
	</g>
</g>
</svg>
