<?xml version="1.0" encoding="utf-8"?>
<!-- Generator: Adobe Illustrator 16.0.0, SVG Export Plug-In . SVG Version: 6.00 Build 0)  -->
<!DOCTYPE svg PUBLIC "-//W3C//DTD SVG 1.1 Tiny//EN" "http://www.w3.org/Graphics/SVG/1.1/DTD/svg11-tiny.dtd">
<svg version="1.1" baseProfile="tiny" id="Layer_1" xmlns="http://www.w3.org/2000/svg" xmlns:xlink="http://www.w3.org/1999/xlink"
	 x="0px" y="0px" width="300px" height="300px" viewBox="0 0 300 300" xml:space="preserve">
<g>
	<circle fill="#609544" cx="150" cy="150" r="131.6"/>
	<path fill="#BDBEBF" d="M109.639,150.915c0,0-10.17-30.208-10.17-36.266s-6.512,3.702-6.512,0c0-3.702-1.232-5.635,6.512-8.149
		c0,0,1.318-5.121-3.606-3.366c-4.925,1.755-9.43,3.51-9.43-2.92s8.346-4.843,10.559-7.056c2.213-2.213,0.003-4.296-4.035-4.296
		c-4.039,0-17.836,0.21-23.895,9.634c0,0-0.504-23.358,21.389-25.835c0,0,10.079-0.76,5.411-5.428
		c-4.668-4.667-18.275-3.398-25.454,3.78c-7.179,7.178,2.976-31.748,38.675-18.624c0,0,0.117-6.394-4.808-8.077
		c-4.925-1.683,10.917-9.173,21.094,1.683c0,0,5.101-5.332,0-10.433s14.652-3.028,16.696,7.067c0,0,12.141-3.365,15.842,7.404
		v102.076L109.639,150.915z"/>
	<path fill="#BDBEBF" d="M207.687,150.915c0,0,7.038-30.208,7.038-36.266s6.512,3.702,6.512,0c0-3.702,1.232-5.635-6.512-8.149
		c0,0-1.318-5.121,3.606-3.366c4.925,1.755,9.43,3.51,9.43-2.92s-8.346-4.843-10.559-7.056c-2.213-2.213-0.003-4.296,4.035-4.296
		c4.039,0,17.836,0.21,23.895,9.634c0,0,0.504-23.358-21.389-25.835c0,0-10.079-0.76-5.411-5.428
		c4.668-4.667,18.275-3.398,25.454,3.78c7.179,7.178-2.976-31.748-38.675-18.624c0,0-0.117-6.394,4.808-8.077
		c4.925-1.683-10.917-9.173-21.094,1.683c0,0-5.101-5.332,0-10.433s-14.652-3.028-16.696,7.067c0,0-12.141-3.365-15.842,7.404
		v102.076L207.687,150.915z"/>
	<path fill="#F2F2F2" d="M119.172,170.463c0,0-19.175-4.455-34.172,10.542s-16.719,72.146-16.719,72.146
		s36.042,32.653,91.694,28.074c0,0,49.811-0.208,88.598-44.048c0,0,0-35.489-10.573-48.563
		c-8.276-10.234-18.416-17.628-45.458-17.628S119.172,170.463,119.172,170.463z"/>
	<path fill="#F19574" d="M177.532,208.419c0,5.93-4.806,10.735-10.734,10.735h-13.646c-5.929,0-10.734-4.805-10.734-10.735v-54.828
		c0-5.928,4.805-10.733,10.734-10.733h13.646c5.928,0,10.734,4.805,10.734,10.733V208.419z"/>
	<path fill="#F3A285" d="M208.807,155.367c0,24.055-19.497,43.55-43.551,43.55h-12.74c-24.052,0-43.55-19.495-43.55-43.55V97.51
		c0-24.053,19.499-43.55,43.55-43.55h12.74c24.054,0,43.551,19.497,43.551,43.55V155.367z"/>
	<path fill="#F19371" d="M183.476,59.156c-8.904,0-16.347,6.362-18.031,14.779c-4.466-2.33-9.498-1.269-13.06,0.385
		c-1.533-8.604-9.052-15.164-18.091-15.164c-10.141,0-18.392,8.25-18.392,18.392c0,10.142,8.25,18.393,18.392,18.393
		c9.762,0,17.75-7.65,18.336-17.268c2.102-1.238,7.982-4.07,12.5-0.218c0.478,9.72,8.511,17.485,18.346,17.485
		c10.142,0,18.393-8.25,18.393-18.393C201.869,67.407,193.618,59.156,183.476,59.156z"/>
	<g>
		<g>
			<path fill="#F3A285" d="M109.638,114.25c-0.171-0.005-0.341-0.014-0.514-0.014c-9.304,0-16.847,7.545-16.847,16.848
				c0,9.305,7.543,16.848,16.847,16.848c0.172,0,0.343-0.008,0.514-0.012V114.25z"/>
			<path fill="#F08660" d="M109.638,122.396c-0.089-0.002-0.177-0.007-0.264-0.007c-4.802,0-8.695,3.893-8.695,8.695
				c0,4.803,3.893,8.695,8.695,8.695c0.087,0,0.175-0.004,0.264-0.007V122.396z"/>
		</g>
		<g>
			<path fill="#F3A285" d="M208.825,114.25c0.171-0.005,0.34-0.014,0.514-0.014c9.304,0,16.846,7.545,16.846,16.848
				c0,9.305-7.542,16.848-16.846,16.848c-0.174,0-0.343-0.008-0.514-0.012V114.25z"/>
			<path fill="#F08660" d="M210.13,122.396c0.089-0.002,0.176-0.007,0.265-0.007c4.802,0,8.694,3.893,8.694,8.695
				c0,4.803-3.893,8.695-8.694,8.695c-0.089,0-0.176-0.004-0.265-0.007V122.396z"/>
		</g>
	</g>
	<path fill="#F28B77" d="M159.866,123.218c0,0,10.348,0.416,10.348,8.152v5.656c0,0,4.435-3.323,7.177,0.963
		c2.89,4.517,1.86,11.712-5.086,11.712c-6.946,0-13.451-5.06-23.16-2.091c-9.709,2.97-16.33,3.151-14.564-5.104
		C136.346,134.252,141.007,121.503,159.866,123.218z"/>
	<path fill="#F1836E" d="M172.305,146.995c-6.946,0-13.451-5.061-23.16-2.091c-7.95,2.432-13.821,2.985-14.721-1.422
		c-1.026,7.239,5.419,6.975,14.721,4.13c9.709-2.969,16.214,2.091,23.16,2.091c5.212,0,7.093-4.051,6.486-7.983
		C178.333,144.606,176.304,146.995,172.305,146.995z"/>
	<path fill="#B91E25" d="M178.097,153.198c-8.155,4.307-17.872,3.896-20.812,4.12c-2.939-0.224-11.85,0.322-20.811-4.12
		c-6.999-3.469-11.167,1.923-9.053,12.508c2.495,12.493,11.063,23.279,29.177,23.799v0.025c0.233,0,0.458-0.009,0.687-0.012
		c0.23,0.003,0.454,0.012,0.687,0.012v-0.025c18.113-0.52,26.682-11.307,29.177-23.799
		C189.263,155.122,185.003,149.55,178.097,153.198z"/>
	<g>
		<path fill="#F08A66" d="M119.439,130.155c0,0-5.891-24.1,3.689-24.1s20.141-2.572,12.017,23.401
			C135.145,129.456,125.532,128.259,119.439,130.155z"/>
		<path fill="#001654" d="M132.181,127.883c0,2.5-2.026,1.33-4.526,1.33l0,0c-2.5,0-4.526,1.17-4.526-1.33v-5.422
			c0-2.5,2.026-4.526,4.526-4.526l0,0c2.5,0,4.526,2.026,4.526,4.526V127.883z"/>
		<path fill="#F6B9A3" d="M117.887,134.573c-0.513,0-1.017-0.246-1.325-0.703c-0.494-0.73-0.304-1.721,0.425-2.215
			c0.43-0.292,10.633-7.077,20.401-1.82c0.777,0.418,1.067,1.387,0.649,2.164c-0.418,0.776-1.387,1.065-2.164,0.649
			c-8.041-4.33-17.006,1.591-17.095,1.652C118.504,134.485,118.194,134.573,117.887,134.573z"/>
		<path fill="#808181" d="M114.555,109.606c0,0,15.447-3.511,31.335,6.497c0,0,2.648-1.214,2.648-3.547
			c0-2.333-2.818-6.37-4.667-4.521c0,0-5.373-11.825-12.324-4.874c0,0-4.651-10.353-9.047-2.189
			C122.5,100.973,114.555,98.397,114.555,109.606z"/>
	</g>
	<g>
		<path fill="#F08A66" d="M196.231,130.155c0,0,5.891-24.1-3.689-24.1s-20.141-2.572-12.017,23.401
			C180.525,129.456,190.138,128.259,196.231,130.155z"/>
		<path fill="#001654" d="M183.489,127.883c0,2.5,2.026,1.33,4.526,1.33l0,0c2.5,0,4.526,1.17,4.526-1.33v-5.422
			c0-2.5-2.026-4.526-4.526-4.526l0,0c-2.5,0-4.526,2.026-4.526,4.526V127.883z"/>
		<path fill="#F6B9A3" d="M197.785,134.575c-0.308,0-0.619-0.089-0.893-0.274l0,0c-0.089-0.061-9.055-5.983-17.095-1.652
			c-0.777,0.417-1.746,0.126-2.164-0.649c-0.418-0.777-0.127-1.746,0.649-2.164c9.767-5.257,19.971,1.528,20.401,1.82
			c0.73,0.495,0.92,1.488,0.425,2.219C198.8,134.329,198.297,134.575,197.785,134.575z"/>
		<path fill="#808181" d="M201.116,109.606c0,0-15.447-3.511-31.335,6.497c0,0-2.648-1.214-2.648-3.547
			c0-2.333,2.818-6.37,4.667-4.521c0,0,5.373-11.825,12.324-4.874c0,0,4.651-10.353,9.047-2.189
			C193.171,100.973,201.116,98.397,201.116,109.606z"/>
	</g>
	<path fill="#FFFFFF" d="M142.418,155.489c0,0,13.29,3.956,29.884,0C172.302,155.489,158.103,168.879,142.418,155.489z"/>
	<path fill="#C74A51" d="M185.555,171.315c0,0-2.692,12.964-19.671,17.299C165.883,188.614,162.686,165.832,185.555,171.315z"/>
	<path fill="#3F291B" d="M118.609,66.789l-0.556-1.902c-0.407,0.12-10.012,3.039-13.537,13.753
		c-2.871,8.728-1.935,23.861,4.47,34.558v-9.496c0-0.042,0.025-0.065,0.041-0.095c-2.832-9.021-2.398-18.711-0.748-23.728
		c2.857-8.684,10.566-11.093,10.893-11.19L118.609,66.789z"/>
	<path fill="#3F291B" d="M199.23,66.789l0.556-1.902c0.407,0.12,10.012,3.039,13.538,13.753c2.871,8.728,1.935,23.861-4.471,34.558
		v-9.496c0-0.042-0.024-0.065-0.041-0.095c2.833-9.021,2.398-18.711,0.748-23.728c-2.857-8.684-10.566-11.093-10.893-11.19
		L199.23,66.789z"/>
	<g>
		<circle fill="#66BAE4" cx="134.295" cy="71.625" r="16.411"/>
		<path fill="#3F291B" d="M134.294,90.018c-10.141,0-18.392-8.251-18.392-18.393c0-10.141,8.25-18.392,18.392-18.392
			c10.142,0,18.393,8.25,18.393,18.392C152.687,81.767,144.436,90.018,134.294,90.018z M134.294,57.195
			c-7.957,0-14.43,6.473-14.43,14.43c0,7.957,6.473,14.431,14.43,14.431c7.957,0,14.431-6.474,14.431-14.431
			C148.725,63.668,142.251,57.195,134.294,57.195z"/>
	</g>
	<g>
		<circle fill="#66BAE4" cx="183.477" cy="71.625" r="16.411"/>
		<path fill="#3F291B" d="M183.476,90.018c-10.141,0-18.392-8.251-18.392-18.393c0-10.141,8.25-18.392,18.392-18.392
			c10.142,0,18.393,8.25,18.393,18.392C201.869,81.767,193.618,90.018,183.476,90.018z M183.476,57.195
			c-7.957,0-14.43,6.473-14.43,14.43c0,7.957,6.473,14.431,14.43,14.431c7.958,0,14.431-6.474,14.431-14.431
			C197.907,63.668,191.434,57.195,183.476,57.195z"/>
	</g>
	<path fill="#3F291B" d="M151.852,73.241l-2.291-3.232c3.783-2.681,12.602-6.087,18.906,0.215l-2.802,2.802
		C160.124,67.484,151.933,73.183,151.852,73.241z"/>
	<path fill="#A4DCF5" d="M140.107,64.449c0.583,1.106,0.159,2.477-0.948,3.06l-11.025,5.809c-1.107,0.583-2.477,0.159-3.06-0.948
		l0,0c-0.583-1.107-0.159-2.477,0.948-3.061l11.025-5.808C138.155,62.917,139.524,63.342,140.107,64.449L140.107,64.449z"/>
	<path fill="#A4DCF5" d="M143.559,71c0.583,1.107,0.159,2.478-0.948,3.061l-5.074,2.673c-1.107,0.583-2.478,0.159-3.061-0.949l0,0
		c-0.583-1.106-0.159-2.477,0.948-3.06l5.075-2.674C141.606,69.468,142.976,69.893,143.559,71L143.559,71z"/>
	<path fill="#A4DCF5" d="M189.268,64.449c0.583,1.106,0.159,2.477-0.948,3.06l-11.025,5.809c-1.107,0.583-2.477,0.159-3.06-0.948
		l0,0c-0.583-1.107-0.159-2.477,0.948-3.061l11.025-5.808C187.315,62.917,188.685,63.342,189.268,64.449L189.268,64.449z"/>
	<path fill="#A4DCF5" d="M192.719,71c0.583,1.107,0.159,2.478-0.948,3.061l-5.075,2.673c-1.107,0.583-2.477,0.159-3.06-0.949l0,0
		c-0.583-1.106-0.159-2.477,0.948-3.06l5.075-2.674C190.766,69.468,192.136,69.893,192.719,71L192.719,71z"/>
	<path fill="#1C1B1A" d="M142.838,211.37c0,0,2.375,7.784,10.313,7.784h15.385c0,0,6.686-1.687,8.578-7.784
		c0,0-10.32,36.651-17.141,36.651S142.838,211.37,142.838,211.37z"/>
	<path fill="#F2F2F2" d="M79.677,187.361c0,0-50.413,10.808-37.878,37.557c0,0,10.672,17.458,26.482,28.234
		S85.688,199.055,79.677,187.361z"/>
	<g>
		<g>
			<g>
				<g>
					<path fill="#8BBF26" d="M88.533,174.475v73.902c0,5.165,4.188,9.352,9.352,9.352s9.352-4.188,9.352-9.352v-73.902H88.533z"/>
					<path fill="#009DE1" d="M97.885,259.229c-5.984,0-10.852-4.868-10.852-10.852v-75.402h21.704v75.402
						C108.736,254.361,103.868,259.229,97.885,259.229z M90.033,175.975v72.402c0,4.33,3.522,7.852,7.852,7.852
						s7.852-3.522,7.852-7.852v-72.402H90.033z"/>
				</g>
				<path fill="#009DE1" d="M89.506,193.786c0,0,2.889-2.477,8.378,0s9.352,0,9.352,0v-19.311h-17.73V193.786z"/>
			</g>
			<path fill="#63C3EC" d="M110.881,172.08c0,1.323-1.073,2.396-2.396,2.396H87.115c-1.323,0-2.396-1.073-2.396-2.396l0,0
				c0-1.323,1.073-2.396,2.396-2.396h21.371C109.809,169.684,110.881,170.756,110.881,172.08L110.881,172.08z"/>
		</g>
		<g>
			<path fill="#1C1B1A" d="M116.204,232.439c0,3.866-3.134,7-7,7H85.434c-3.866,0-7-3.134-7-7v-22.416c0-3.866,3.134-7,7-7h23.771
				c3.866,0,7,3.134,7,7V232.439z"/>
			<path fill="#1C1B1A" d="M122.925,227.983c0,2.463-1.997,4.459-4.459,4.459l0,0c-2.463,0-4.459-1.997-4.459-4.459v-9.817
				c0-2.463,1.997-4.459,4.459-4.459l0,0c2.462,0,4.459,1.997,4.459,4.459V227.983z"/>
		</g>
	</g>
	<path fill="#48648B" d="M61.351,145.358c-0.446,0-0.897-0.12-1.305-0.37l-21.557-13.232c-1.177-0.723-1.545-2.262-0.823-3.438
		c0.722-1.177,2.262-1.545,3.438-0.823l21.557,13.232c1.177,0.723,1.545,2.262,0.823,3.438
		C63.012,144.935,62.191,145.358,61.351,145.358z"/>
	<path fill="#48648B" d="M38.273,177.523c-1.13,0-2.155-0.771-2.429-1.918c-0.322-1.343,0.506-2.692,1.849-3.013l24.599-5.887
		c1.347-0.322,2.692,0.507,3.013,1.849c0.322,1.343-0.506,2.692-1.849,3.013l-24.599,5.887
		C38.662,177.501,38.466,177.523,38.273,177.523z"/>
	<path fill="#48648B" d="M50.648,157.989h-12.3c-1.381,0-2.5-1.119-2.5-2.5s1.119-2.5,2.5-2.5h12.3c1.381,0,2.5,1.119,2.5,2.5
		S52.029,157.989,50.648,157.989z"/>
	<circle fill="#48648B" cx="85.512" cy="156.983" r="3.994"/>
	<circle fill="#48648B" cx="87.027" cy="141.293" r="2.479"/>
	<circle fill="#48648B" cx="81.518" cy="126.438" r="2.479"/>
	<circle fill="#48648B" cx="69.929" cy="117.935" r="2.479"/>
	<circle fill="#48648B" cx="77.239" cy="109.449" r="2.479"/>
	<circle fill="#48648B" cx="98.834" cy="153.596" r="5.51"/>
</g>
</svg>
