<?xml version="1.0" encoding="utf-8"?>
<!-- Generator: Adobe Illustrator 16.0.0, SVG Export Plug-In . SVG Version: 6.00 Build 0)  -->
<!DOCTYPE svg PUBLIC "-//W3C//DTD SVG 1.1 Tiny//EN" "http://www.w3.org/Graphics/SVG/1.1/DTD/svg11-tiny.dtd">
<svg version="1.1" baseProfile="tiny" id="Layer_1" xmlns="http://www.w3.org/2000/svg" xmlns:xlink="http://www.w3.org/1999/xlink"
	 x="0px" y="0px" width="300px" height="300px" viewBox="0 0 300 300" xml:space="preserve">
<g>
	<circle fill="#25A7DE" cx="151.291" cy="150" r="131.6"/>
	<path fill="#F2F2F2" d="M224.89,259.109V156.156c0-40.648-32.954-73.603-73.593-73.603c-40.649,0-73.604,32.954-73.604,73.603
		v102.955c0,0,27.307,22.488,76.344,22.488C194.375,281.6,224.89,259.109,224.89,259.109z"/>
	<path fill="#E2E3E3" d="M48.93,232.711L82.5,207.82c0,0,15-8.848,15-16.924v-13.254c0,0,0-10.822,9-10.822s12,3.645,12,10.822
		s0,45.719,0,45.719s2.186,21.321-9.621,30.58l-16.854,13.588C92.025,267.529,69.896,258.234,48.93,232.711z"/>
	<path fill="#DBDCDC" d="M118.5,223.197c0,0,0-38.541,0-45.719c0-5.947-2.072-9.461-7.897-10.493
		c0.62,1.514,0.897,3.341,0.897,5.493c0,7.178,0,45.719,0,45.719s2.186,21.321-9.621,30.58l-16.854,13.588
		c0,0-5.147-2.168-12.82-7.262c11.385,8.713,19.82,12.262,19.82,12.262l16.854-13.588C120.686,244.519,118.5,223.197,118.5,223.197z
		"/>
	<path fill="#E2E3E3" d="M253.648,232.711l-33.57-24.891c0,0-15-8.848-15-16.924v-13.254c0,0,0-10.822-9-10.822s-12,3.645-12,10.822
		s0,45.719,0,45.719s-2.186,21.321,9.621,30.58l16.854,13.588C210.553,267.529,232.683,258.234,253.648,232.711z"/>
	<path fill="#DBDCDC" d="M184.078,223.197c0,0,0-38.541,0-45.719c0-5.947,2.072-9.461,7.897-10.493
		c-0.62,1.514-0.897,3.341-0.897,5.493c0,7.178,0,45.719,0,45.719s-2.186,21.321,9.621,30.58l16.854,13.588
		c0,0,5.147-2.168,12.82-7.262c-11.385,8.713-19.82,12.262-19.82,12.262l-16.854-13.588
		C181.893,244.519,184.078,223.197,184.078,223.197z"/>
	<g>
		<g>
			<ellipse fill="#E7E8E8" cx="125.204" cy="152.39" rx="14.434" ry="20.523"/>
			<path fill="#393A39" d="M133.433,143.773c0,10.717-3.685,12.454-8.228,12.454c-4.545,0-8.229-1.737-8.229-12.454
				c0-10.718,3.685-19.409,8.229-19.409C129.748,124.364,133.433,133.056,133.433,143.773z"/>
		</g>
		<g>
			<ellipse fill="#E7E8E8" cx="173.775" cy="152.39" rx="14.434" ry="20.523"/>
			<path fill="#393A39" d="M182.004,143.773c0,10.717-3.685,12.454-8.228,12.454c-4.545,0-8.229-1.737-8.229-12.454
				c0-10.718,3.685-19.409,8.229-19.409C178.319,124.364,182.004,133.056,182.004,143.773z"/>
		</g>
	</g>
	<path fill="#393A39" d="M169.87,191.587c0,15.754-4.323,41.772-19.87,41.772c-14.743,0-19.87-26.019-19.87-41.772
		s8.457-22.764,19.431-22.764S169.87,175.833,169.87,191.587z"/>
	<path fill="#6A6C6C" d="M150,229.977c-14.055,0-19.366-23.639-19.832-39.496c-0.01,0.372-0.038,0.725-0.038,1.106
		c0,15.754,5.127,41.772,19.87,41.772c15.547,0,19.87-26.019,19.87-41.772c0-0.331-0.028-0.636-0.036-0.958
		C169.41,206.484,164.774,229.977,150,229.977z"/>
	<g>
		<path fill="#25C4DE" d="M70.206,169.687c-0.477,0-0.961-0.114-1.411-0.354l-21.686-11.584c-1.461-0.781-2.013-2.599-1.232-4.06
			c0.781-1.462,2.598-2.013,4.06-1.233l21.686,11.584c1.461,0.781,2.013,2.599,1.232,4.06
			C72.314,169.11,71.277,169.687,70.206,169.687z"/>
		<path fill="#25C4DE" d="M66.214,181.54c-0.265,0-0.534-0.035-0.802-0.11l-31.948-8.851c-1.597-0.441-2.533-2.095-2.09-3.691
			c0.442-1.598,2.094-2.539,3.692-2.09l31.948,8.851c1.597,0.441,2.533,2.095,2.09,3.691
			C68.736,180.669,67.529,181.54,66.214,181.54z"/>
		<path fill="#25C4DE" d="M48.52,194.753c-1.559,0-2.876-1.205-2.989-2.785c-0.119-1.652,1.125-3.088,2.777-3.207l17.69-1.272
			c1.649-0.109,3.089,1.124,3.208,2.777c0.119,1.652-1.125,3.088-2.777,3.207l-17.69,1.272
			C48.665,194.75,48.592,194.753,48.52,194.753z"/>
	</g>
	<g>
		<path fill="#25C4DE" d="M233.424,169.687c-1.072,0-2.108-0.576-2.648-1.588c-0.781-1.461-0.229-3.278,1.232-4.06l21.686-11.584
			c1.461-0.781,3.279-0.229,4.06,1.233c0.781,1.461,0.229,3.278-1.232,4.06l-21.686,11.584
			C234.385,169.572,233.901,169.687,233.424,169.687z"/>
		<path fill="#25C4DE" d="M237.416,181.54c-1.315,0-2.521-0.871-2.89-2.2c-0.442-1.597,0.494-3.25,2.09-3.691l31.948-8.851
			c1.598-0.441,3.25,0.493,3.692,2.09c0.442,1.597-0.494,3.25-2.09,3.691l-31.948,8.851
			C237.95,181.504,237.68,181.54,237.416,181.54z"/>
		<path fill="#25C4DE" d="M255.11,194.753c-0.072,0-0.145-0.003-0.218-0.008l-17.69-1.272c-1.652-0.119-2.896-1.555-2.777-3.207
			c0.118-1.653,1.547-2.888,3.208-2.777l17.69,1.272c1.652,0.119,2.896,1.555,2.777,3.207
			C257.986,193.548,256.669,194.753,255.11,194.753z"/>
	</g>
</g>
</svg>
