<?xml version="1.0" encoding="utf-8"?>
<!-- Generator: Adobe Illustrator 16.0.0, SVG Export Plug-In . SVG Version: 6.00 Build 0)  -->
<!DOCTYPE svg PUBLIC "-//W3C//DTD SVG 1.1 Tiny//EN" "http://www.w3.org/Graphics/SVG/1.1/DTD/svg11-tiny.dtd">
<svg version="1.1" baseProfile="tiny" id="Layer_1" xmlns="http://www.w3.org/2000/svg" xmlns:xlink="http://www.w3.org/1999/xlink"
	 x="0px" y="0px" width="300px" height="300px" viewBox="0 0 300 300" xml:space="preserve">
<g>
	<circle fill="#2C323A" cx="150" cy="150" r="131.6"/>
	<path fill="#38A5DC" d="M151.048,281.586c45.639-0.6,74.417-23.483,74.417-23.483c-7.035-54.296-67.039-49.664-75.392-48.751
		c-8.353-0.913-68.357-5.545-75.392,48.751c0,0,28.779,22.884,74.417,23.483c0,0,0.647,0.017,0.975,0.014
		C150.401,281.603,151.048,281.586,151.048,281.586z"/>
	<path fill="#F19574" d="M168.004,225.176c0,5.727-4.641,10.367-10.367,10.367h-13.178c-5.726,0-10.367-4.641-10.367-10.367v-52.949
		c0-5.725,4.641-10.365,10.367-10.365h13.178c5.726,0,10.367,4.641,10.367,10.365V225.176z"/>
	<path fill="#F3A285" d="M198.207,156.645c0,23.23-18.829,42.058-42.059,42.058h-12.304c-23.227,0-42.059-18.827-42.059-42.058
		V100.77c0-23.229,18.832-42.058,42.059-42.058h12.304c23.229,0,42.059,18.829,42.059,42.058V156.645z"/>
	<g>
		<path fill="#F3A285" d="M103.564,115.058c-0.16-0.006-0.319-0.014-0.48-0.014c-8.702,0-15.756,7.057-15.756,15.758
			s7.054,15.756,15.756,15.756c0.161,0,0.32-0.007,0.48-0.011V115.058z"/>
		<path fill="#F08660" d="M103.564,122.676c-0.083-0.002-0.165-0.007-0.248-0.007c-4.491,0-8.131,3.641-8.131,8.133
			c0,4.491,3.641,8.131,8.131,8.131c0.083,0,0.165-0.004,0.248-0.006V122.676z"/>
	</g>
	<g>
		<path fill="#F3A285" d="M197.55,115.058c0.159-0.006,0.318-0.014,0.479-0.014c8.702,0,15.756,7.057,15.756,15.758
			s-7.055,15.756-15.756,15.756c-0.161,0-0.32-0.007-0.479-0.011V115.058z"/>
		<path fill="#F08660" d="M197.55,122.676c0.083-0.002,0.164-0.007,0.247-0.007c4.491,0,8.132,3.641,8.132,8.133
			c0,4.491-3.641,8.131-8.132,8.131c-0.083,0-0.165-0.004-0.247-0.006V122.676z"/>
	</g>
	<path fill="#F6B9A3" d="M159.403,137.681c0,1.205-0.977,2.182-2.182,2.182h-13.351c-1.205,0-2.182-0.977-2.182-2.182l0,0
		c0-1.205,0.977-2.181,2.182-2.181h13.351C158.426,135.5,159.403,136.476,159.403,137.681L159.403,137.681z"/>
	<path fill="#FFFFFF" d="M173.189,155.999c0,3.313-2.686,5.999-5.999,5.999h-33.289c-3.313,0-5.999-2.686-5.999-5.999l0,0
		c0-3.313,2.686-5.999,5.999-5.999h33.289C170.504,150,173.189,152.686,173.189,155.999L173.189,155.999z"/>
	<path fill="#20275B" d="M129.599,126.5c0,3.206-2.599,2.206-5.805,2.206s-5.805,1-5.805-2.206s2.599-5.805,5.805-5.805
		S129.599,123.294,129.599,126.5z"/>
	<path fill="#20275B" d="M182.373,126.5c0,3.206-2.599,1.541-5.805,1.541s-5.805,1.665-5.805-1.541s2.599-5.805,5.805-5.805
		S182.373,123.294,182.373,126.5z"/>
	<path fill="#623B17" d="M132.518,114.467c0.319,1.286-0.465,2.587-1.751,2.906l-15.686,3.891c-1.286,0.319-2.587-0.465-2.906-1.751
		l0,0c-0.319-1.286,0.465-2.587,1.751-2.906l15.686-3.891C130.897,112.397,132.198,113.181,132.518,114.467L132.518,114.467z"/>
	<path fill="#623B17" d="M169.191,114.467c-0.319,1.286,0.465,2.587,1.751,2.906l15.686,3.891c1.286,0.319,2.587-0.465,2.906-1.751
		l0,0c0.319-1.286-0.465-2.587-1.751-2.906l-15.686-3.891C170.811,112.397,169.51,113.181,169.191,114.467L169.191,114.467z"/>
	<path fill="#623B17" d="M101.786,115.044v17.261c0,0,5.437-7.283,5.437-23.326V98.002c0,0,1.478-11.821,10.766-11.821
		c0,0,9.552,5.911,32.007,5.911V49.725c0,0-52.062,0.148-52.062,45.322v20.863L101.786,115.044z"/>
	<path fill="#623B17" d="M197.888,115.044v17.261c0,0-5.437-7.283-5.437-23.326V98.002c0,0-1.478-11.821-10.766-11.821
		c0,0-9.552,5.911-32.007,5.911V49.725c0,0,52.062,0.148,52.062,45.322v20.863L197.888,115.044z"/>
	<path fill="#F08660" d="M117.989,86.181c0,0,10.863,5.905,32.557,5.905s31.139-5.905,31.139-5.905s-7.237,10.555-31.139,10.555
		S117.989,86.181,117.989,86.181z"/>
	<path fill="#F5B7A1" d="M167.653,157.695c0,0-8.373,2.354-8.373,11.512v14.651c0,0-1.012,16.483-13.85,16.483
		c-12.837,0-19.865-2.879-19.865-18.838V170.05c0,0,0-13.519,10.691-13.519h26.425L167.653,157.695z"/>
	<path fill="#F5B7A1" d="M125.634,279.296c2.343,0.424,5.33,1.008,8.368,1.365l5.5,0.465c9.752,0.759,12.224,0.308,14.534,0.413
		V177.651c0-5.932-4.809-10.742-10.742-10.742h-6.986c-5.933,0-10.742,4.81-10.742,11.629v100.758
		C125.589,278.411,125.608,279.291,125.634,279.296z"/>
	<path fill="#F5B7A1" d="M126.849,196.16c1.68,2.604,5.152,3.351,7.756,1.67l0,0c2.604-1.681,3.35-5.153,1.67-7.757l-15.191-23.528
		c-1.681-2.604-5.153-3.352-7.756-1.671l0,0c-2.604,1.681-3.352,5.154-1.671,7.757L126.849,196.16z"/>
	<polygon fill="#D2D3D3" points="154.037,198.702 159.403,198.577 159.403,281.094 154.037,281.539 	"/>
	<path fill="#E7E8E8" d="M89.664,162.447c2.013-1.008,4.403-0.435,5.762,1.248c-0.082-0.323-0.197-0.642-0.352-0.952
		c-1.164-2.323-3.991-3.263-6.313-2.099c-2.323,1.164-3.263,3.99-2.099,6.313c0.155,0.31,0.342,0.593,0.551,0.852
		C86.679,165.712,87.651,163.456,89.664,162.447z"/>
	<path fill="#E7E8E8" d="M186.95,165.07c2.021,0.992,3.01,3.242,2.493,5.343c0.208-0.261,0.392-0.545,0.545-0.856
		c1.145-2.333,0.183-5.152-2.149-6.297c-2.333-1.146-5.151-0.184-6.297,2.149c-0.153,0.311-0.266,0.631-0.345,0.954
		C182.543,164.67,184.928,164.078,186.95,165.07z"/>
	<path fill="#E7E8E8" d="M187.438,195.142c2.021,0.992,3.01,3.242,2.493,5.343c0.208-0.261,0.392-0.545,0.545-0.856
		c1.145-2.333,0.183-5.152-2.149-6.297c-2.333-1.146-5.151-0.184-6.297,2.149c-0.153,0.311-0.266,0.631-0.345,0.954
		C183.032,194.741,185.417,194.149,187.438,195.142z"/>
	<path fill="#E7E8E8" d="M104.843,190.93c1.779-1.38,4.235-1.281,5.895,0.106c-0.143-0.301-0.318-0.592-0.53-0.866
		c-1.593-2.053-4.548-2.427-6.601-0.834c-2.053,1.592-2.427,4.547-0.833,6.601c0.212,0.274,0.45,0.516,0.706,0.729
		C102.549,194.712,103.064,192.31,104.843,190.93z"/>
	<path fill="#E7E8E8" d="M119.671,150.794c1.779-1.38,4.235-1.281,5.895,0.106c-0.143-0.301-0.318-0.592-0.53-0.866
		c-1.593-2.053-4.548-2.427-6.601-0.834c-2.053,1.592-2.427,4.547-0.833,6.601c0.212,0.274,0.45,0.516,0.706,0.729
		C117.377,154.577,117.893,152.175,119.671,150.794z"/>
	<path fill="#7AC3E8" d="M202.246,91.458v14.315c0,0-0.241,5.051,5.414,3.656S202.246,91.458,202.246,91.458z"/>
	<path fill="#7AC3E8" d="M124.879,100.868c0,2.282-1.851,4.132-4.133,4.132s-4.132-1.85-4.132-4.132c0-2.283,4.132-9.41,4.132-9.41
		S124.879,98.585,124.879,100.868z"/>
</g>
</svg>
