<?xml version="1.0" encoding="utf-8"?>
<!-- Generator: Adobe Illustrator 16.0.0, SVG Export Plug-In . SVG Version: 6.00 Build 0)  -->
<!DOCTYPE svg PUBLIC "-//W3C//DTD SVG 1.1 Tiny//EN" "http://www.w3.org/Graphics/SVG/1.1/DTD/svg11-tiny.dtd">
<svg version="1.1" baseProfile="tiny" id="Layer_1" xmlns="http://www.w3.org/2000/svg" xmlns:xlink="http://www.w3.org/1999/xlink"
	 x="0px" y="0px" width="300px" height="300px" viewBox="0 0 300 300" xml:space="preserve">
<g>
	<g>
		<circle fill="#163A6C" cx="150" cy="150" r="131.6"/>
	</g>
	<path fill="#00B5E1" d="M152.377,281.569c51.062-1.137,83.315-31.693,83.315-31.693c-12.245-50.824-64.868-64.495-83.315-67.761
		v-0.932c0,0-1.198,0.098-3.313,0.394c-1.989-0.291-3.113-0.394-3.113-0.394v0.877c-18.317,3.099-70.306,16.273-82.536,67.036
		c0,0,28.133,30.085,82.536,32.331v0.146c2.149,0.058,4.258,0.044,6.346-0.001c0.027,0,0.054,0.001,0.081,0.001V281.569z"/>
	<path fill="#FFFFFF" d="M107.476,208.02v6.784c0,24.216,19.632,43.848,43.848,43.848c24.217,0,43.848-19.631,43.848-43.848v-6.784
		H107.476z"/>
	<g>
		<path fill="#F3A285" d="M219.435,164.845c0,32.487-26.333,58.817-58.819,58.817h-17.207c-32.482,0-58.818-26.33-58.818-58.817
			v-38.964c0-32.484,26.336-58.817,58.818-58.817h17.207c32.486,0,58.819,26.333,58.819,58.817V164.845z"/>
		<path fill="#E7E8E8" d="M204.752,203.578c-10.779,12.231-26.551,19.957-44.137,19.957h-17.207
			c-18.597,0-35.167-8.639-45.945-22.114c-1.58,1.438-3.321,2.678-5.085,3.888c10.146,17.672,29.192,29.583,51.03,29.583h17.207
			c20.85,0,39.15-10.854,49.596-27.212C208.36,206.354,206.531,205,204.752,203.578z"/>
		<g>
			<g>
				<path fill="#F3A285" d="M87.078,136.148c-0.224-0.008-0.447-0.019-0.673-0.019c-12.168,0-22.034,9.868-22.034,22.037
					c0,12.169,9.866,22.035,22.034,22.035c0.226,0,0.449-0.01,0.673-0.015V136.148z"/>
				<path fill="#F08660" d="M87.078,146.802c-0.117-0.003-0.231-0.01-0.347-0.01c-6.279,0-11.371,5.091-11.371,11.374
					c0,6.281,5.092,11.371,11.371,11.371c0.115,0,0.229-0.005,0.347-0.008V146.802z"/>
			</g>
			<g>
				<path fill="#F3A285" d="M216.808,136.148c0.224-0.008,0.444-0.019,0.672-0.019c12.169,0,22.034,9.868,22.034,22.037
					c0,12.169-9.865,22.035-22.034,22.035c-0.228,0-0.448-0.01-0.672-0.015V136.148z"/>
				<path fill="#F08660" d="M218.514,146.802c0.116-0.003,0.229-0.01,0.347-0.01c6.28,0,11.371,5.091,11.371,11.374
					c0,6.281-5.091,11.371-11.371,11.371c-0.117,0-0.23-0.005-0.347-0.008V146.802z"/>
			</g>
		</g>
		<path fill="#E30B14" d="M123.59,173.7c-0.002,0.174-0.025,0.342-0.025,0.515c0,16.144,13.088,29.231,29.231,29.231
			c16.145,0,29.231-13.087,29.231-29.231c0-0.173-0.023-0.341-0.025-0.515H123.59z"/>
		<rect x="146.977" y="173.7" fill="#FFFFFF" width="12.662" height="6.5"/>
		<g>
			<path fill="#D77448" d="M107.483,156.757c-1.158,0-2.098-0.939-2.098-2.098c0-5.922,4.818-10.74,10.74-10.74
				c3.774,0,7.316,2.018,9.243,5.266c0.591,0.997,0.262,2.284-0.734,2.875c-0.996,0.591-2.283,0.263-2.875-0.734
				c-1.174-1.98-3.333-3.211-5.634-3.211c-3.608,0-6.545,2.936-6.545,6.545C109.581,155.818,108.642,156.757,107.483,156.757z"/>
			<path fill="#D77448" d="M198.111,156.757c-1.158,0-2.098-0.939-2.098-2.098c0-3.609-2.937-6.545-6.547-6.545
				c-2.3,0-4.459,1.23-5.633,3.211c-0.592,0.997-1.878,1.326-2.875,0.734c-0.996-0.591-1.325-1.878-0.734-2.875
				c1.927-3.248,5.469-5.266,9.242-5.266c5.923,0,10.742,4.818,10.742,10.74C200.209,155.818,199.27,156.757,198.111,156.757z"/>
		</g>
		<path fill="#EC6860" d="M142.995,201.76c0,0,9.523,3.712,19.595,0c0,0-3.345-5.559-9.282-5.559
			C145.153,196.201,142.995,201.76,142.995,201.76z"/>
		<path fill="#F6B9A3" d="M162.59,160.479c0,2.09-1.695,3.784-3.784,3.784h-9.868c-2.089,0-3.784-1.694-3.784-3.784l0,0
			c0-2.09,1.695-3.785,3.784-3.785h9.868C160.895,156.694,162.59,158.389,162.59,160.479L162.59,160.479z"/>
		<path fill="#F8BA32" d="M126.313,125.819c0,1.746-1.415,3.161-3.162,3.161h-15.256c-1.746,0-3.161-1.415-3.161-3.161l0,0
			c0-1.746,1.415-3.161,3.161-3.161h15.256C124.898,122.658,126.313,124.073,126.313,125.819L126.313,125.819z"/>
		<path fill="#F8BA32" d="M200.86,125.819c0,1.746-1.416,3.161-3.162,3.161h-15.257c-1.745,0-3.162-1.415-3.162-3.161l0,0
			c0-1.746,1.417-3.161,3.162-3.161h15.257C199.444,122.658,200.86,124.073,200.86,125.819L200.86,125.819z"/>
		<circle fill="#F39585" cx="106.966" cy="172.013" r="10.892"/>
		<circle fill="#F39585" cx="198.113" cy="172.013" r="10.891"/>
	</g>
	<g>
		<path fill="#F8BA32" d="M151.323,90.296c0,0-34.12-5.639-24.313-20.137c9.806-14.498,18.387-1.14,18.387-1.14
			s-6.337-18.014,5.927-18.014"/>
		<path fill="#F8BA32" d="M151.323,90.296c0,0,34.119-5.639,24.313-20.137c-9.806-14.498-18.387-1.14-18.387-1.14
			s6.337-18.014-5.927-18.014"/>
	</g>
	<g>
		<path fill="#4A668C" d="M72.784,187.828c-0.294,0-0.592-0.043-0.887-0.135l-21.417-6.618c-1.583-0.489-2.47-2.169-1.98-3.752
			c0.488-1.584,2.171-2.471,3.752-1.98l21.417,6.618c1.583,0.489,2.47,2.169,1.98,3.752
			C75.252,187.001,74.065,187.828,72.784,187.828z"/>
		<path fill="#4A668C" d="M51.365,214.05c-1.281,0-2.467-0.827-2.865-2.115c-0.489-1.583,0.397-3.263,1.98-3.752l21.417-6.618
			c1.585-0.489,3.263,0.398,3.752,1.98c0.489,1.583-0.397,3.263-1.98,3.752l-21.417,6.618
			C51.957,214.006,51.658,214.05,51.365,214.05z"/>
		<path fill="#4A668C" d="M56.438,197.064H44.253c-1.657,0-3-1.343-3-3s1.343-3,3-3h12.185c1.657,0,3,1.343,3,3
			S58.095,197.064,56.438,197.064z"/>
	</g>
	<g>
		<path fill="#4A668C" d="M230.23,187.828c-1.281,0-2.467-0.827-2.865-2.115c-0.489-1.583,0.397-3.263,1.98-3.752l21.417-6.618
			c1.585-0.489,3.263,0.398,3.752,1.98c0.489,1.583-0.397,3.263-1.98,3.752l-21.417,6.618
			C230.822,187.785,230.523,187.828,230.23,187.828z"/>
		<path fill="#4A668C" d="M251.649,214.05c-0.294,0-0.592-0.043-0.887-0.135l-21.417-6.618c-1.583-0.489-2.47-2.169-1.98-3.752
			c0.488-1.584,2.172-2.469,3.752-1.98l21.417,6.618c1.583,0.489,2.47,2.169,1.98,3.752
			C254.117,213.223,252.931,214.05,251.649,214.05z"/>
		<path fill="#4A668C" d="M258.762,197.064h-12.185c-1.657,0-3-1.343-3-3s1.343-3,3-3h12.185c1.657,0,3,1.343,3,3
			S260.419,197.064,258.762,197.064z"/>
	</g>
</g>
</svg>
