<?xml version="1.0" encoding="utf-8"?>
<!-- Generator: Adobe Illustrator 16.0.0, SVG Export Plug-In . SVG Version: 6.00 Build 0)  -->
<!DOCTYPE svg PUBLIC "-//W3C//DTD SVG 1.1 Tiny//EN" "http://www.w3.org/Graphics/SVG/1.1/DTD/svg11-tiny.dtd">
<svg version="1.1" baseProfile="tiny" id="Layer_1" xmlns="http://www.w3.org/2000/svg" xmlns:xlink="http://www.w3.org/1999/xlink"
	 x="0px" y="0px" width="300px" height="300px" viewBox="0 0 300 300" xml:space="preserve">
<g>
	<g>
		<circle fill="#FFD202" cx="150" cy="150" r="131.6"/>
	</g>
	<path fill="#895D39" d="M96.931,153.796c0,0-4.931,16.702-11.598,23.369s-3.719,8,1.474,10.333s24.526,14,60.788,14
		c40.493,0,11.286-18.333,11.286-18.333S114.081,136.646,96.931,153.796z"/>
	<path fill="#895D39" d="M203.858,153.796c0,0,4.931,16.702,11.598,23.369s3.719,8-1.474,10.333s-24.526,14-60.788,14
		c-40.493,0-11.286-18.333-11.286-18.333S186.708,136.646,203.858,153.796z"/>
	<path fill="#8F2581" d="M224.944,258.189c-7.035-54.296-67.039-50.918-75.392-50.005c-8.353-0.913-68.356-5.545-75.392,48.751
		c0,0,29.087,24.665,75.839,24.665C194.309,281.6,224.944,258.189,224.944,258.189z"/>
	<path fill="#F19574" d="M167.482,222.784c0,5.727-4.642,10.367-10.366,10.367h-13.179c-5.726,0-10.366-4.641-10.366-10.367v-52.949
		c0-5.725,4.641-10.365,10.366-10.365h13.179c5.725,0,10.366,4.641,10.366,10.365V222.784z"/>
	<path fill="#F3A285" d="M197.685,154.253c0,23.23-18.829,42.058-42.059,42.058h-12.304c-23.228,0-42.059-18.827-42.059-42.058
		V98.378c0-23.229,18.831-42.058,42.059-42.058h12.304c23.229,0,42.059,18.829,42.059,42.058V154.253z"/>
	<g>
		<path fill="#F3A285" d="M103.042,120.798c-0.159-0.006-0.319-0.014-0.479-0.014c-8.702,0-15.756,7.057-15.756,15.758
			s7.054,15.756,15.756,15.756c0.16,0,0.32-0.007,0.479-0.011V120.798z"/>
		<path fill="#F08660" d="M103.042,128.416c-0.083-0.002-0.165-0.007-0.247-0.007c-4.491,0-8.132,3.641-8.132,8.133
			c0,4.491,3.641,8.131,8.132,8.131c0.082,0,0.164-0.004,0.247-0.006V128.416z"/>
	</g>
	<g>
		<path fill="#F3A285" d="M197.028,120.798c0.159-0.006,0.318-0.014,0.479-0.014c8.702,0,15.757,7.057,15.757,15.758
			s-7.055,15.756-15.757,15.756c-0.161,0-0.32-0.007-0.479-0.011V120.798z"/>
		<path fill="#F08660" d="M197.028,128.416c0.082-0.002,0.164-0.007,0.247-0.007c4.491,0,8.132,3.641,8.132,8.133
			c0,4.491-3.641,8.131-8.132,8.131c-0.083,0-0.165-0.004-0.247-0.006V128.416z"/>
	</g>
	<path fill="#F6B9A3" d="M158.881,139.651c0,1.205-0.978,2.182-2.182,2.182h-13.352c-1.204,0-2.182-0.977-2.182-2.182l0,0
		c0-1.205,0.978-2.181,2.182-2.181H156.7C157.904,137.471,158.881,138.446,158.881,139.651L158.881,139.651z"/>
	<circle fill="#8F2581" cx="94.924" cy="152.298" r="4.467"/>
	<circle fill="#8F2581" cx="205.407" cy="152.298" r="4.467"/>
	<path fill="#E6352B" d="M149.184,170.445c-6.412,0-11.967-2.795-14.922-5.187c-3.005-2.433-3.469-6.84-1.037-9.845
		c2.417-2.985,6.785-3.463,9.789-1.082c1.013,0.776,6.198,4.309,11.462,0.045c3.005-2.432,7.413-1.969,9.845,1.037
		c2.432,3.005,1.968,7.413-1.037,9.845C158.563,169.08,153.664,170.445,149.184,170.445z"/>
	<path fill="#895D39" d="M96.931,121.825V90.667c0,0,0-38,53.843-38l18.875,23.535C169.65,76.202,158.881,121.825,96.931,121.825z"
		/>
	<path fill="#895D39" d="M201.438,121.825V90.667c0,0-0.499-38-53.843-38l19.452,31.452
		C167.047,84.119,167.482,112.333,201.438,121.825z"/>
	<path fill="#203382" d="M127.999,133.673c0,2.231-1.809,1.187-4.04,1.187l0,0c-2.231,0-4.04,1.044-4.04-1.187v-4.84
		c0-2.231,1.809-4.04,4.04-4.04l0,0c2.231,0,4.04,1.809,4.04,4.04V133.673z"/>
	<path fill="#F6B9A3" d="M115.239,139.646c-0.457,0-0.906-0.219-1.181-0.625c-0.442-0.651-0.272-1.538,0.379-1.98
		c0.384-0.26,9.491-6.316,18.208-1.624c0.693,0.373,0.953,1.238,0.58,1.931c-0.373,0.692-1.239,0.953-1.931,0.58
		c-7.211-3.881-15.176,1.419-15.256,1.473C115.792,139.566,115.514,139.646,115.239,139.646z"/>
	<path fill="#203382" d="M172.04,133.673c0,2.231,1.809,1.187,4.04,1.187l0,0c2.231,0,4.04,1.044,4.04-1.187v-4.84
		c0-2.231-1.809-4.04-4.04-4.04l0,0c-2.231,0-4.04,1.809-4.04,4.04V133.673z"/>
	<path fill="#F6B9A3" d="M184.799,139.646c-0.275,0-0.552-0.079-0.797-0.245c-0.088-0.059-8.084-5.335-15.258-1.474
		c-0.694,0.373-1.559,0.113-1.931-0.58c-0.374-0.693-0.114-1.558,0.58-1.931c8.717-4.692,17.825,1.364,18.208,1.624
		c0.652,0.442,0.822,1.329,0.379,1.98C185.705,139.427,185.256,139.646,184.799,139.646z"/>
	<path fill="#F4AE95" d="M210.833,266.55c3.053-1.443,5.949-3.217,8.909-4.75c7.228-3.744,7.823-5.559,11.427-8.208
		c-1.706-26.995-18.845-47.711-28.662-57.844c1.95-4.643,0.867-10.2-3.102-13.738c0,0-6.263-7.838-5.489-17.681
		c0.379-4.825-5.762-11.357-9.204-0.802c-0.523,1.604-0.801,3.124-0.922,4.564l-0.255-0.228c-0.002-0.001-0.004-0.003-0.005-0.004
		l-11.817-10.532c-1.837-1.638-4.654-1.476-6.292,0.361c-1.387,1.556-1.469,3.808-0.351,5.457l-4.626-4.123
		c-1.837-1.637-4.654-1.475-6.292,0.362c-1.638,1.837-1.475,4.654,0.362,6.292l8.211,7.318l-0.306,0.343l-5.134-4.576
		c-1.837-1.637-4.654-1.476-6.291,0.362c-1.638,1.837-1.476,4.654,0.361,6.292l5.855,5.219c-0.042,0.124-0.07,0.251-0.108,0.376
		c-1.073,0.107-2.112,0.587-2.885,1.456c-1.637,1.836-1.476,4.654,0.362,6.292l19.94,17.772c0.511,0.456,1.101,0.757,1.717,0.937
		l0.267,0.238c3.68,3.28,8.801,3.896,13.025,2.003c3.068,3.245,6.855,7.699,10.415,13.145
		C209.434,237.373,213.081,252.064,210.833,266.55z"/>
	<g>
		<path fill="#F9CEBF" d="M153.351,167.405c1.375-0.336,2.887-0.015,4.024,0.998l5.134,4.576l0.306-0.343l-8.211-7.318
			c-1.837-1.638-2-4.454-0.362-6.292c0.434-0.487,0.954-0.848,1.514-1.097c-1.719-0.753-3.792-0.38-5.109,1.097
			c-1.638,1.837-1.475,4.654,0.362,6.292L153.351,167.405z"/>
		<path fill="#F9CEBF" d="M167.047,199.432l-12.378-11.033c-1.837-1.638-1.999-4.455-0.362-6.292
			c0.773-0.868,1.812-1.349,2.885-1.456c0.038-0.125,0.066-0.252,0.108-0.376l-5.855-5.219c-1.837-1.637-1.999-4.455-0.361-6.292
			c0.434-0.487,0.954-0.848,1.513-1.097c-1.719-0.754-3.792-0.38-5.109,1.097c-1.638,1.837-1.476,4.654,0.361,6.292l5.855,5.219
			c-0.042,0.124-0.07,0.251-0.108,0.376c-1.073,0.107-2.112,0.587-2.885,1.456c-1.637,1.836-1.476,4.654,0.362,6.292l15.974,14.237
			V199.432z"/>
	</g>
	<path fill="#F4AE95" d="M89.939,266.55c-3.053-1.443-5.949-3.217-8.909-4.75c-7.228-3.744-7.823-5.559-11.427-8.208
		c1.706-26.995,18.845-47.711,28.662-57.844c-1.95-4.643-0.867-10.2,3.102-13.738c0,0,6.263-7.838,5.489-17.681
		c-0.379-4.825,5.762-11.357,9.204-0.802c0.523,1.604,0.801,3.124,0.922,4.564l0.255-0.228c0.002-0.001,0.004-0.003,0.005-0.004
		l11.817-10.532c1.837-1.638,4.654-1.476,6.292,0.361c1.387,1.556,1.469,3.808,0.351,5.457l4.626-4.123
		c1.837-1.637,4.654-1.475,6.292,0.362c1.638,1.837,1.475,4.654-0.362,6.292l-8.211,7.318l0.306,0.343l5.134-4.576
		c1.837-1.637,4.654-1.476,6.291,0.362c1.638,1.837,1.476,4.654-0.361,6.292l-5.855,5.219c0.042,0.124,0.07,0.251,0.108,0.376
		c1.073,0.107,2.112,0.587,2.885,1.456c1.637,1.836,1.476,4.654-0.362,6.292l-19.94,17.772c-0.511,0.456-1.101,0.757-1.717,0.937
		l-0.267,0.238c-3.68,3.28-8.801,3.896-13.025,2.003c-3.068,3.245-6.855,7.699-10.415,13.145
		C91.338,237.373,87.69,252.064,89.939,266.55z"/>
	<g>
		<path fill="#F9CEBF" d="M147.421,167.405c-1.375-0.336-2.887-0.015-4.024,0.998l-5.134,4.576l-0.306-0.343l8.211-7.318
			c1.837-1.638,2-4.454,0.362-6.292c-0.434-0.487-0.954-0.848-1.514-1.097c1.719-0.753,3.792-0.38,5.109,1.097
			c1.638,1.837,1.475,4.654-0.362,6.292L147.421,167.405z"/>
		<path fill="#F9CEBF" d="M133.724,199.432l12.378-11.033c1.837-1.638,1.999-4.455,0.362-6.292
			c-0.773-0.868-1.812-1.349-2.885-1.456c-0.038-0.125-0.066-0.252-0.108-0.376l5.855-5.219c1.837-1.637,1.999-4.455,0.361-6.292
			c-0.434-0.487-0.954-0.848-1.513-1.097c1.719-0.754,3.792-0.38,5.109,1.097c1.638,1.837,1.476,4.654-0.361,6.292l-5.855,5.219
			c0.042,0.124,0.07,0.251,0.108,0.376c1.073,0.107,2.112,0.587,2.885,1.456c1.637,1.836,1.476,4.654-0.362,6.292l-15.974,14.237
			V199.432z"/>
	</g>
	<path fill="#F9CEBF" d="M96.931,121.825c0,0,51.004,3.31,70.116-38.601C167.047,83.225,155.661,133.752,96.931,121.825z"/>
	<path fill="#895D39" d="M183.295,111.8c0,1.044-0.846,1.891-1.891,1.891h-11.773c-1.044,0-1.891-0.847-1.891-1.891l0,0
		c0-1.044,0.847-1.891,1.891-1.891h11.773C182.449,109.909,183.295,110.755,183.295,111.8L183.295,111.8z"/>
	<g>
		<path fill="#FFEB84" d="M90.461,77.417c-0.123,0-0.248-0.008-0.373-0.023c-1.644-0.204-2.812-1.702-2.608-3.346
			c0.083-0.67,2.205-16.48,17.072-22.144c1.547-0.59,3.282,0.187,3.872,1.736c0.589,1.548-0.188,3.282-1.736,3.872
			c-11.53,4.392-13.238,17.146-13.254,17.274C93.247,76.305,91.954,77.417,90.461,77.417z"/>
		<path fill="#FFEB84" d="M81.042,67.998c-0.123,0-0.248-0.008-0.373-0.023c-1.644-0.204-2.812-1.702-2.608-3.346
			c0.083-0.67,2.205-16.48,17.072-22.144c1.546-0.588,3.282,0.187,3.872,1.736c0.589,1.548-0.188,3.282-1.736,3.872
			c-11.53,4.392-13.238,17.146-13.254,17.274C83.827,66.886,82.534,67.998,81.042,67.998z"/>
	</g>
	<g>
		<path fill="#FFEB84" d="M209.892,77.417c-1.49,0-2.781-1.109-2.972-2.624c-0.074-0.559-1.828-12.929-13.255-17.282
			c-1.548-0.59-2.325-2.323-1.736-3.872c0.59-1.548,2.324-2.326,3.872-1.736c14.868,5.664,16.989,21.474,17.072,22.144
			c0.204,1.645-0.964,3.143-2.608,3.346C210.139,77.41,210.015,77.417,209.892,77.417z"/>
		<path fill="#FFEB84" d="M219.311,67.998c-1.49,0-2.781-1.109-2.972-2.624c-0.074-0.559-1.828-12.929-13.255-17.282
			c-1.548-0.59-2.325-2.323-1.736-3.872c0.59-1.548,2.322-2.324,3.872-1.736c14.868,5.664,16.989,21.474,17.072,22.144
			c0.204,1.645-0.964,3.143-2.608,3.346C219.559,67.99,219.434,67.998,219.311,67.998z"/>
	</g>
	<g>
		<path fill="#FFEB84" d="M77.326,157.524c-0.548,0-1.103-0.15-1.601-0.465l-15.577-9.851c-1.4-0.886-1.817-2.739-0.932-4.139
			c0.886-1.401,2.739-1.817,4.139-0.932l15.577,9.851c1.4,0.886,1.817,2.739,0.932,4.139
			C79.294,157.03,78.321,157.524,77.326,157.524z"/>
		<path fill="#FFEB84" d="M61.755,182.308c-0.995,0-1.968-0.494-2.539-1.397c-0.885-1.4-0.468-3.253,0.932-4.139l15.577-9.851
			c1.401-0.884,3.254-0.468,4.139,0.932s0.468,3.253-0.932,4.139l-15.577,9.851C62.858,182.157,62.304,182.308,61.755,182.308z"/>
	</g>
	<g>
		<path fill="#FFEB84" d="M220.535,157.524c-0.995,0-1.968-0.494-2.539-1.397c-0.885-1.4-0.468-3.253,0.932-4.139l15.577-9.851
			c1.4-0.884,3.254-0.468,4.139,0.932c0.885,1.4,0.468,3.253-0.932,4.139l-15.577,9.851
			C221.638,157.374,221.083,157.524,220.535,157.524z"/>
		<path fill="#FFEB84" d="M236.105,182.308c-0.548,0-1.103-0.15-1.601-0.465l-15.577-9.851c-1.4-0.886-1.817-2.739-0.932-4.139
			c0.886-1.4,2.739-1.817,4.139-0.932l15.577,9.851c1.4,0.886,1.817,2.739,0.932,4.139
			C238.073,181.813,237.1,182.308,236.105,182.308z"/>
	</g>
</g>
</svg>
