<?xml version="1.0" encoding="utf-8"?>
<!-- Generator: Adobe Illustrator 16.0.0, SVG Export Plug-In . SVG Version: 6.00 Build 0)  -->
<!DOCTYPE svg PUBLIC "-//W3C//DTD SVG 1.1 Tiny//EN" "http://www.w3.org/Graphics/SVG/1.1/DTD/svg11-tiny.dtd">
<svg version="1.1" baseProfile="tiny" id="Layer_1" xmlns="http://www.w3.org/2000/svg" xmlns:xlink="http://www.w3.org/1999/xlink"
	 x="0px" y="0px" width="300px" height="300px" viewBox="0 0 300 300" xml:space="preserve">
<g>
	<g>
		<circle fill="#EE5A28" cx="150" cy="150" r="131.6"/>
	</g>
	<path fill-rule="evenodd" fill="#F1764D" d="M166.164,188.581c0.003,0,5.783,0.49,7.521-4.831
		c1.35-4.134,3.286-10.065,3.286-10.065s0.818-3.784-2.827-4.225c-8.036-0.917-16.075-1.827-24.113-2.734
		c-6.677-0.755-13.354-1.503-20.03-2.25c-1.098-0.123-1.662,0.238-2.002,1.275c-0.554,1.696-1.095,3.396-1.649,5.093
		c-2.581,7.893-5.167,15.782-7.744,23.675c-1.901,5.823-3.793,11.646-5.689,17.47c-0.073,0.225-0.146,0.451-0.229,0.703
		c-1.956-0.876-3.918-1.452-5.961-1.702c-6.359-0.777-12.227,0.407-17.332,4.472c-1.702,1.354-3.061,3.018-3.831,5.066
		c-1.59,4.229-0.622,7.955,2.487,11.12c2.771,2.823,6.252,4.287,10.113,4.895c5.427,0.855,10.601,0.109,15.41-2.605
		c3.084-1.739,5.468-4.148,6.617-7.591c0.911-2.725,1.78-5.465,2.672-8.198c2.926-8.964,5.854-17.93,8.781-26.894
		c0.536-1.643,1.067-3.289,1.611-4.929c0.285-0.865,0.709-1.144,1.593-1.055c5.582,0.561,11.168,1.096,16.746,1.695
		C156.451,187.491,161.309,188.035,166.164,188.581z"/>
	<path fill-rule="evenodd" fill="#F1764D" d="M212.279,62.318c0.001-0.001,4.011-2.744,2.319-7.116
		c-1.312-3.396-3.197-8.27-3.197-8.27s-1.473-2.888-4.069-1.243c-5.7,3.66-11.396,7.326-17.092,10.994
		c-4.73,3.045-9.458,6.095-14.186,9.146c-0.777,0.501-0.952,1.034-0.624,1.887c0.538,1.394,1.088,2.783,1.626,4.178
		c2.505,6.486,5.006,12.975,7.514,19.46c1.85,4.784,3.705,9.564,5.559,14.346c0.07,0.185,0.144,0.37,0.224,0.577
		c-1.732,0.468-3.311,1.133-4.769,2.052c-4.536,2.863-7.715,6.738-8.876,12.079c-0.388,1.78-0.388,3.578,0.198,5.315
		c1.207,3.586,3.808,5.49,7.501,5.897c3.292,0.364,6.324-0.53,9.151-2.18c3.974-2.318,6.935-5.542,8.617-9.85
		c1.08-2.761,1.352-5.585,0.274-8.428c-0.853-2.25-1.739-4.488-2.607-6.733c-2.848-7.365-5.695-14.732-8.544-22.097
		c-0.521-1.35-1.048-2.699-1.563-4.05c-0.273-0.712-0.146-1.118,0.475-1.528c3.919-2.592,7.826-5.202,11.762-7.767
		C205.4,66.754,208.84,64.535,212.279,62.318z"/>
	<g>
		<g>
			<path fill-rule="evenodd" fill="#F9B441" d="M141.699,149.646c0.049-0.423,0.089-0.762,0.128-1.101
				c1.454-12.525,2.909-25.048,4.364-37.571c0.08-0.688,0.179-1.374,0.26-2.062c0.172-1.445-0.587-2.233-2.072-2.134
				c-1.115,0.074-2.23,0.167-3.343,0.267c-10.611,0.938-21.223,1.847-31.828,2.828c-7.928,0.733-15.846,1.56-23.768,2.348
				c-1.254,0.125-1.765,0.633-1.919,1.915c-0.293,2.435-0.571,4.872-0.855,7.309c-1.551,13.29-3.104,26.581-4.653,39.87
				c-0.472,4.053-0.911,8.106-1.411,12.153c-0.631,5.11-3.27,9.131-7.069,12.416c-5.928,5.127-12.912,7.619-20.699,7.956
				c-5.542,0.238-10.793-0.82-15.441-3.965c-5.214-3.528-7.607-8.438-6.584-14.767c0.497-3.064,1.918-5.761,3.904-8.122
				c5.958-7.089,13.787-10.386,22.849-11.091c2.913-0.226,5.801,0.022,8.767,0.691c0.044-0.374,0.083-0.709,0.122-1.042
				c1-8.632,1.994-17.264,3.002-25.895c1.367-11.702,4.601-39.303,5.971-51.004c0.294-2.516,0.567-5.033,0.864-7.548
				c0.18-1.538,0.862-2.198,2.425-2.335c9.496-0.837,18.993-1.674,28.49-2.501c12.175-1.062,24.352-2.123,36.528-3.167
				c8.119-0.698,16.238-1.367,24.358-2.049c0.529-0.045,1.059-0.133,1.589-0.15c1.461-0.044,2.491,1.031,2.355,2.488
				c-0.117,1.247-0.302,2.488-0.445,3.732c-1.471,12.656-4.792,41.212-6.268,53.868c-1.133,9.716-2.283,19.431-3.423,29.146
				c-0.642,5.479-1.306,10.957-1.91,16.441c-0.447,4.063-2.247,7.465-4.977,10.408c-5.497,5.924-12.457,8.864-20.356,9.798
				c-5.555,0.657-10.902-0.074-15.915-2.663c-2.946-1.52-5.44-3.587-7.019-6.556c-2.524-4.748-2.192-9.514,0.247-14.163
				c2.596-4.95,6.703-8.373,11.636-10.812c6.794-3.356,13.942-4.48,21.437-3.056C141.221,149.563,141.404,149.593,141.699,149.646z"
				/>
		</g>
	</g>
	<g>
		<path fill-rule="evenodd" fill="#E3A720" d="M141.036,107.045c1.113-0.1,2.228-0.193,3.343-0.267
			c0.68-0.045,1.2,0.104,1.556,0.409c0.085-0.735,0.17-1.47,0.256-2.205c0.08-0.688,0.179-1.374,0.26-2.062
			c0.172-1.445-0.587-2.233-2.072-2.134c-1.115,0.074-2.23,0.167-3.343,0.267c-10.611,0.938-21.223,1.847-31.828,2.828
			c-7.928,0.733-15.846,1.56-23.768,2.348c-1.254,0.125-1.765,0.633-1.919,1.915c-0.293,2.435-0.571,4.872-0.855,7.309
			c-1.551,13.29-3.104,26.581-4.653,39.87c-0.472,4.053-0.911,8.106-1.411,12.153c-0.631,5.11-3.27,9.131-7.069,12.416
			c-5.928,5.127-12.912,7.619-20.699,7.956c-5.542,0.238-10.793-0.82-15.441-3.965c-3.531-2.39-5.763-5.415-6.522-9.083
			c-0.019,0.104-0.045,0.204-0.062,0.309c-1.023,6.329,1.37,11.239,6.584,14.767c4.648,3.145,9.899,4.203,15.441,3.965
			c7.787-0.337,14.771-2.829,20.699-7.956c3.799-3.285,6.438-7.306,7.069-12.416c0.5-4.047,0.939-8.101,1.411-12.153
			c1.549-13.289,3.102-26.58,4.653-39.87c0.285-2.437,0.562-4.874,0.855-7.309c0.155-1.282,0.665-1.79,1.919-1.915
			c7.921-0.789,15.84-1.615,23.768-2.348C119.813,108.892,130.425,107.982,141.036,107.045z"/>
		<path fill-rule="evenodd" fill="#E3A720" d="M161.318,114.99c-1.133,9.716-2.283,19.431-3.423,29.146
			c-0.642,5.479-1.306,10.957-1.91,16.441c-0.447,4.063-2.247,7.465-4.977,10.408c-5.497,5.924-12.457,8.864-20.356,9.798
			c-5.555,0.657-10.902-0.074-15.915-2.663c-2.946-1.52-5.44-3.587-7.019-6.556c-0.663-1.248-1.124-2.496-1.407-3.744
			c-0.709,3.226-0.322,6.485,1.407,9.737c1.578,2.969,4.072,5.036,7.019,6.556c5.013,2.588,10.36,3.32,15.915,2.663
			c7.9-0.934,14.86-3.875,20.356-9.798c2.729-2.942,4.529-6.345,4.977-10.408c0.604-5.485,1.269-10.963,1.91-16.441
			c1.14-9.716,2.29-19.43,3.423-29.146c1.476-12.656,4.797-41.212,6.268-53.868c0.144-1.244,0.328-2.485,0.445-3.732
			c0.063-0.682-0.137-1.275-0.509-1.714C166.021,74.578,162.773,102.51,161.318,114.99z"/>
	</g>
	<path fill-rule="evenodd" fill="#B91E25" d="M248.101,146.279c0.004-0.002,8.109-2.91,7.169-11.167
		c-0.73-6.416-3.023-26.556-3.023-26.556s-1.231-5.616-6.424-3.959c-11.42,3.726-22.836,7.462-34.252,11.201
		c-9.48,3.105-18.959,6.219-28.436,9.334c-1.561,0.512-2.099,1.348-1.917,2.958c0.299,2.632,0.619,5.262,0.919,7.896
		c1.39,12.252,4.016,35.438,5.41,47.688c1.028,9.036,2.071,18.068,3.108,27.104c0.039,0.35,0.079,0.7,0.124,1.091
		c-3.182,0.024-6.188,0.458-9.1,1.383c-9.067,2.877-16.26,8.101-20.644,16.744c-1.461,2.879-2.267,5.965-2.044,9.207
		c0.465,6.693,4.073,11.126,10.227,13.48c5.486,2.1,11.089,1.927,16.68,0.363c7.855-2.197,14.38-6.399,19.199-13.036
		c3.09-4.253,4.821-8.978,4.247-14.336c-0.453-4.243-0.972-8.48-1.456-12.72c-1.585-13.912-3.169-27.827-4.753-41.739
		c-0.29-2.55-0.589-5.1-0.868-7.651c-0.148-1.344,0.252-1.983,1.5-2.409c7.885-2.69,15.758-5.418,23.662-8.053
		C234.312,150.806,241.207,148.541,248.101,146.279z"/>
	<path fill-rule="evenodd" fill="#AD1E25" d="M255.27,135.105c-0.73-6.416-3.023-26.556-3.023-26.556s-0.992-4.468-4.904-4.242
		c0.419,3.681,2.291,20.125,2.938,25.809c0.94,8.257-7.165,11.165-7.169,11.167c-6.894,2.261-13.789,4.526-20.671,6.822
		c-7.904,2.635-15.777,5.363-23.662,8.053c-1.248,0.426-1.648,1.064-1.5,2.409c0.279,2.551,0.578,5.101,0.868,7.651
		c1.584,13.912,3.168,27.827,4.753,41.739c0.484,4.24,1.003,8.478,1.456,12.72c0.574,5.358-1.157,10.083-4.247,14.336
		c-4.819,6.637-11.344,10.839-19.199,13.036c-5.591,1.564-11.193,1.737-16.68-0.363c-1.164-0.445-2.236-0.966-3.215-1.561
		c1.729,2.96,4.503,5.134,8.204,6.55c5.486,2.1,11.089,1.927,16.68,0.363c7.855-2.197,14.38-6.399,19.199-13.036
		c3.09-4.253,4.821-8.978,4.247-14.336c-0.453-4.243-0.972-8.48-1.456-12.72c-1.585-13.912-3.169-27.827-4.753-41.739
		c-0.29-2.55-0.589-5.1-0.868-7.651c-0.148-1.344,0.252-1.983,1.5-2.409c7.885-2.69,15.758-5.418,23.662-8.053
		c6.882-2.295,13.777-4.561,20.671-6.822C248.104,146.27,256.21,143.362,255.27,135.105z"/>
	<g>
		<path fill-rule="evenodd" fill="#20275B" d="M105.303,78.749c0.102,1.517-1.045,2.831-2.563,2.934l0,0
			c-1.517,0.102-2.832-1.044-2.935-2.562l-0.245-3.618c-0.104-1.519,1.043-2.832,2.562-2.934l0,0
			c1.518-0.103,2.832,1.044,2.934,2.562L105.303,78.749z"/>
		<path fill-rule="evenodd" fill="#20275B" d="M133.388,76.253c0.103,1.517-1.044,2.831-2.562,2.933l0,0
			c-1.518,0.103-2.833-1.044-2.935-2.561l-0.244-3.617c-0.104-1.519,1.043-2.832,2.561-2.935l0,0
			c1.519-0.103,2.832,1.043,2.935,2.562L133.388,76.253z"/>
		<path fill="#B91E25" d="M97.821,86.512c0.427,6.524,0.101,2.18,0.123,2.497c0.688,10.164,9.484,17.844,19.649,17.156
			c10.165-0.689,17.844-9.486,17.155-19.65c-0.022-0.316,0.242,4.032-0.216-2.49L97.821,86.512z"/>
		<path fill="#FFFFFF" d="M105.147,86.015l22.06-1.495C127.207,84.521,116.89,94.82,105.147,86.015z"/>
		<path fill="#F28D92" d="M110.025,105.309c0,0,6.709,2.879,14.298-0.969C124.323,104.339,116.561,99.812,110.025,105.309z"/>
	</g>
	<path fill="#F9B441" d="M108.803,55.211c0.305,1.564-0.715,3.079-2.279,3.384l-7.079,1.381c-1.564,0.305-3.079-0.715-3.384-2.279
		l0,0c-0.305-1.564,0.715-3.079,2.279-3.384l7.079-1.381C106.983,52.627,108.499,53.647,108.803,55.211L108.803,55.211z"/>
	<path fill="#F9B441" d="M135.873,56.73c-0.351,1.554-1.896,2.53-3.45,2.178l-7.035-1.589c-1.555-0.351-2.529-1.896-2.179-3.449l0,0
		c0.352-1.555,1.896-2.53,3.45-2.178l7.035,1.589C135.249,53.632,136.224,55.176,135.873,56.73L135.873,56.73z"/>
	<path fill="#890008" d="M201.193,134.031c-0.539,0-1.051-0.316-1.275-0.843c-0.711-1.669-0.729-3.516-0.053-5.199
		c0.678-1.684,1.97-3.002,3.639-3.713c1.671-0.711,3.517-0.729,5.199-0.052c1.684,0.677,3.002,1.97,3.713,3.639
		c0.3,0.704-0.027,1.518-0.731,1.817c-0.705,0.298-1.518-0.029-1.817-0.731c-0.421-0.988-1.201-1.753-2.198-2.155
		c-0.998-0.401-2.092-0.39-3.079,0.031c-0.988,0.421-1.753,1.202-2.154,2.198c-0.401,0.997-0.39,2.09,0.031,3.079
		c0.3,0.704-0.027,1.518-0.731,1.817C201.559,133.995,201.374,134.031,201.193,134.031z"/>
	<path fill="#890008" d="M226.709,125.167c-0.644,0-1.221-0.451-1.355-1.106c-0.366-1.777-0.019-3.59,0.979-5.106
		s2.526-2.552,4.304-2.918c1.778-0.365,3.59-0.018,5.104,0.98c1.516,0.998,2.552,2.526,2.918,4.304
		c0.154,0.749-0.328,1.481-1.077,1.636c-0.754,0.15-1.482-0.33-1.636-1.078c-0.217-1.052-0.831-1.958-1.729-2.548
		s-1.969-0.796-3.022-0.581c-1.053,0.217-1.958,0.831-2.549,1.729c-0.591,0.897-0.797,1.971-0.58,3.023
		c0.154,0.749-0.328,1.481-1.077,1.636C226.896,125.157,226.801,125.167,226.709,125.167z"/>
	<path fill="#4A0008" d="M206.693,136.88c1.675,5.583,0.523,1.875,0.605,2.145c2.63,8.693,11.806,13.609,20.501,10.98
		c8.694-2.629,13.608-11.808,10.978-20.5c-0.082-0.271,1.017,3.454-0.684-2.122L206.693,136.88z"/>
	<polygon fill-rule="evenodd" fill="#FFFFFF" points="206.693,136.88 238.094,127.383 238.777,130.526 207.579,139.866 	"/>
</g>
</svg>
