<?xml version="1.0" encoding="utf-8"?>
<!-- Generator: Adobe Illustrator 16.0.0, SVG Export Plug-In . SVG Version: 6.00 Build 0)  -->
<!DOCTYPE svg PUBLIC "-//W3C//DTD SVG 1.1 Tiny//EN" "http://www.w3.org/Graphics/SVG/1.1/DTD/svg11-tiny.dtd">
<svg version="1.1" baseProfile="tiny" id="Layer_1" xmlns="http://www.w3.org/2000/svg" xmlns:xlink="http://www.w3.org/1999/xlink"
	 x="0px" y="0px" width="300px" height="300px" viewBox="0 0 300 300" xml:space="preserve">
<g>
	<circle fill="#D52029" cx="150" cy="150" r="131.6"/>
	<g>
		<path fill="#F3A285" d="M199.034,116.475c0.161-0.006,0.324-0.014,0.487-0.014c8.877,0,16.072,7.197,16.072,16.072
			c0,8.875-7.195,16.069-16.072,16.069c-0.163,0-0.326-0.007-0.487-0.011V116.475z"/>
		<path fill="#F08660" d="M199.034,124.244c0.084-0.001,0.168-0.007,0.25-0.007c4.582,0,8.296,3.713,8.296,8.295
			c0,4.581-3.714,8.292-8.296,8.292c-0.082,0-0.166-0.004-0.25-0.006V124.244z"/>
	</g>
	<g>
		<path fill="#EB645D" d="M74.201,146.235c-0.438,0-0.88-0.115-1.282-0.355l-34.824-20.853c-1.185-0.709-1.57-2.245-0.86-3.429
			c0.708-1.185,2.245-1.568,3.429-0.861l34.824,20.853c1.185,0.709,1.57,2.245,0.86,3.429
			C75.88,145.801,75.051,146.235,74.201,146.235z"/>
		<path fill="#EB645D" d="M39.381,188.846c-0.85,0-1.679-0.434-2.146-1.216c-0.71-1.185-0.324-2.72,0.86-3.429l34.824-20.853
			c1.185-0.709,2.72-0.325,3.429,0.861c0.71,1.185,0.324,2.72-0.86,3.429L40.663,188.49
			C40.261,188.731,39.818,188.846,39.381,188.846z"/>
		<path fill="#EB645D" d="M39.379,155.142h-3.831c-1.381,0-2.5-1.119-2.5-2.5s1.119-2.5,2.5-2.5h3.831c1.381,0,2.5,1.119,2.5,2.5
			S40.76,155.142,39.379,155.142z"/>
		<path fill="#EB645D" d="M70.022,155.142H51.295c-1.381,0-2.5-1.119-2.5-2.5s1.119-2.5,2.5-2.5h18.728c1.381,0,2.5,1.119,2.5,2.5
			S71.403,155.142,70.022,155.142z"/>
	</g>
	<g>
		<path fill="#EB645D" d="M225.022,146.235c-0.85,0-1.679-0.434-2.146-1.216c-0.71-1.185-0.324-2.72,0.86-3.429l34.825-20.853
			c1.185-0.708,2.72-0.325,3.429,0.861c0.71,1.185,0.324,2.72-0.86,3.429l-34.825,20.853
			C225.902,146.12,225.46,146.235,225.022,146.235z"/>
		<path fill="#EB645D" d="M259.844,188.846c-0.438,0-0.88-0.115-1.282-0.355l-34.825-20.853c-1.185-0.709-1.57-2.245-0.86-3.429
			c0.709-1.185,2.246-1.57,3.429-0.861L261.13,184.2c1.185,0.709,1.57,2.245,0.86,3.429
			C261.522,188.412,260.693,188.846,259.844,188.846z"/>
		<path fill="#EB645D" d="M263.676,155.142h-3.83c-1.381,0-2.5-1.119-2.5-2.5s1.119-2.5,2.5-2.5h3.83c1.381,0,2.5,1.119,2.5,2.5
			S265.057,155.142,263.676,155.142z"/>
		<path fill="#EB645D" d="M247.928,155.142h-18.727c-1.381,0-2.5-1.119-2.5-2.5s1.119-2.5,2.5-2.5h18.727c1.381,0,2.5,1.119,2.5,2.5
			S249.309,155.142,247.928,155.142z"/>
	</g>
	<g>
		<path fill="#F06FB6" d="M226.014,258.189c-8.926-65.222-67.039-65.611-75.393-64.698c-8.352-0.913-60.956-7.146-75.391,64.813
			c0,0,29.087,23.295,75.839,23.295C195.378,281.6,226.014,258.189,226.014,258.189z"/>
		<path fill="#DDC2E0" d="M176.212,250.511c0,4.755-6.741,8.608-15.058,8.608h-19.144c-8.316,0-15.058-3.853-15.058-8.608v-43.968
			c0-4.753,6.741-8.607,15.058-8.607h19.144c8.316,0,15.058,3.854,15.058,8.607V250.511z"/>
		<path fill="#393A39" d="M104.047,197.153c1.688-2.376,2.251-5.213,1.797-7.875c4.056,0.009,8.059-1.876,10.585-5.436
			c4.137-5.824,2.767-13.896-3.057-18.032s-13.896-2.767-18.031,3.057c-2.528,3.559-2.989,7.958-1.644,11.785
			c-2.664,0.449-5.155,1.915-6.842,4.292c-2.299,3.235-2.508,7.321-0.908,10.665c-2.468,0.113-4.857,1.313-6.398,3.482
			c-2.009,2.829-1.994,6.482-0.252,9.245c-2.486,0.039-5.775,0.834-8.162,4.196c-4.354,6.132-0.765,10.917-8.147,14.621
			c-7.381,3.704,3.597,6.747,8.783,4.559c4.983-2.101,16.413-3.793,15.477-19.562c2.27-0.255,4.424-1.429,5.851-3.437
			c1.54-2.17,1.885-4.823,1.18-7.19C97.959,201.934,101.749,200.389,104.047,197.153z"/>
		<path fill="#393A39" d="M198.129,197.153c-1.688-2.376-2.251-5.213-1.797-7.875c-4.057,0.009-8.059-1.876-10.586-5.436
			c-4.136-5.824-2.767-13.896,3.058-18.032c5.822-4.135,13.896-2.767,18.031,3.057c2.527,3.559,2.989,7.958,1.644,11.785
			c2.664,0.449,5.155,1.915,6.842,4.292c2.299,3.235,2.508,7.321,0.907,10.665c2.469,0.113,4.858,1.313,6.399,3.482
			c2.009,2.829,1.993,6.482,0.252,9.245c2.486,0.039,5.775,0.834,8.162,4.196c4.354,6.132,0.765,10.917,8.146,14.621
			c7.381,3.704-3.598,6.747-8.783,4.559c-4.982-2.101-16.412-3.793-15.476-19.562c-2.27-0.255-4.425-1.429-5.851-3.437
			c-1.54-2.17-1.885-4.823-1.18-7.19C204.216,201.934,200.427,200.389,198.129,197.153z"/>
		
			<rect x="74.759" y="207.249" transform="matrix(0.8153 0.579 -0.579 0.8153 137.1467 -9.5114)" fill="#F06FB6" width="17.448" height="5.973"/>
		<path fill="#F19574" d="M170.83,223.507c0,6.493-5.262,11.754-11.753,11.754h-14.942c-6.491,0-11.753-5.261-11.753-11.754v-60.032
			c0-6.49,5.262-11.752,11.753-11.752h14.942c6.491,0,11.753,5.262,11.753,11.752V223.507z"/>
		<path fill="#F3A285" d="M199.703,150.596c0,23.693-19.203,42.896-42.896,42.896h-12.549c-23.69,0-42.896-19.202-42.896-42.896
			V93.608c0-23.691,19.206-42.896,42.896-42.896h12.549c23.692,0,42.896,19.205,42.896,42.896V150.596z"/>
		<g>
			<path fill="#F3A285" d="M103.176,116.475c-0.162-0.006-0.325-0.014-0.489-0.014c-8.876,0-16.068,7.197-16.068,16.072
				c0,8.875,7.192,16.069,16.068,16.069c0.164,0,0.327-0.007,0.489-0.011V116.475z"/>
			<path fill="#F08660" d="M103.176,124.244c-0.085-0.001-0.168-0.007-0.251-0.007c-4.582,0-8.295,3.713-8.295,8.295
				c0,4.581,3.713,8.292,8.295,8.292c0.083,0,0.166-0.004,0.251-0.006V124.244z"/>
		</g>
		<path fill="#F6B9A3" d="M160.127,139.867c0,1.229-0.998,2.225-2.226,2.225h-13.617c-1.228,0-2.225-0.996-2.225-2.225l0,0
			c0-1.229,0.997-2.224,2.225-2.224h13.617C159.129,137.643,160.127,138.638,160.127,139.867L160.127,139.867z"/>
		<path fill="#393A39" d="M149.979,47.284c0,0-53.335,0.316-53.335,42.341v27.616l6.532-0.767c0,0,5.792-12.315,5.792-26.85
			c0,0,0.315-10.427,8.848-10.427c8.53,0,21.485,0,21.485,0s10.678,0.632,10.678-7.899V47.284z"/>
		<path fill="#393A39" d="M148.959,47.284c0,0,53.333,0.316,53.333,42.341v27.616l-6.532-0.767c0,0-5.791-12.315-5.791-26.85
			c0,0-0.315-10.427-8.847-10.427c-8.532,0-21.487,0-21.487,0s-10.676,0.632-10.676-7.899V47.284z"/>
		<g>
			<path fill="#E6352B" d="M130.411,151.171c-0.019,1.674-0.054,2.03-0.054,2.395c0,11.736,9.511,21.25,21.248,21.25
				s21.25-9.513,21.25-21.25c0-0.365-0.037-0.721-0.055-2.395H130.411z"/>
			<path fill="#D50C00" d="M139.337,170.915c0,0,3.002-7.371,12.003-7.371s11.891,7.81,11.891,7.81s-4.7,3.442-12.44,3.442
				C143.048,174.797,139.337,170.915,139.337,170.915z"/>
			<path fill="#F28D92" d="M142.974,173.242c0,0,7.487,3.833,16.511,0C159.484,173.242,150.913,167.435,142.974,173.242z"/>
		</g>
		<path fill="#393A39" d="M131.029,106.839c0.365,1.457-0.52,2.934-1.977,3.298l-10.884,2.725c-1.456,0.365-2.934-0.521-3.298-1.978
			l0,0c-0.365-1.457,0.521-2.934,1.979-3.298l10.882-2.725C129.189,104.496,130.665,105.382,131.029,106.839L131.029,106.839z"/>
		<path fill="#393A39" d="M169.958,106.839c-0.364,1.457,0.522,2.934,1.978,3.298l10.885,2.725c1.457,0.365,2.933-0.521,3.297-1.978
			l0,0c0.365-1.457-0.52-2.934-1.977-3.298l-10.883-2.725C171.8,104.496,170.323,105.382,169.958,106.839L169.958,106.839z"/>
		<polygon fill="#FFFFFF" points="130.411,151.171 172.801,151.171 172.801,155.06 130.374,155.06 		"/>
		<path fill="#20275B" d="M130.419,125.829c0,3.206-2.599,2.206-5.806,2.206c-3.205,0-5.805,1-5.805-2.206s2.6-5.806,5.805-5.806
			C127.82,120.023,130.419,122.623,130.419,125.829z"/>
		<path fill="#20275B" d="M183.193,125.829c0,3.206-2.6,1.541-5.806,1.541s-5.806,1.665-5.806-1.541s2.6-5.806,5.806-5.806
			S183.193,122.623,183.193,125.829z"/>
		<path fill="#F7C0AC" d="M131.677,131.914c-0.233,0-0.469-0.056-0.688-0.174c-7.469-4.021-12.475-1.628-12.525-1.604
			c-0.717,0.358-1.591,0.063-1.948-0.657c-0.356-0.72-0.062-1.592,0.657-1.949c0.256-0.128,6.419-3.079,15.195,1.649
			c0.707,0.381,0.972,1.263,0.591,1.97C132.695,131.636,132.194,131.914,131.677,131.914z"/>
		<path fill="#F7C0AC" d="M170.5,131.914c-0.518,0-1.019-0.277-1.281-0.765c-0.381-0.707-0.116-1.589,0.591-1.97
			c8.776-4.726,14.938-1.776,15.194-1.649c0.72,0.356,1.014,1.229,0.657,1.949c-0.355,0.716-1.224,1.013-1.94,0.661
			c-0.23-0.108-5.169-2.365-12.532,1.6C170.969,131.857,170.733,131.914,170.5,131.914z"/>
		<g>
			<circle fill="#F08660" cx="115.068" cy="136.985" r="1.287"/>
			<circle fill="#F08660" cx="121.775" cy="139.377" r="1.105"/>
			<circle fill="#F08660" cx="116.878" cy="142.293" r="1.28"/>
			<circle fill="#F08660" cx="112.235" cy="144.678" r="1.104"/>
			<circle fill="#F08660" cx="120.163" cy="148.606" r="1.612"/>
		</g>
		<g>
			<circle fill="#F08660" cx="188.137" cy="136.985" r="1.287"/>
			<circle fill="#F08660" cx="181.43" cy="139.377" r="1.105"/>
			<circle fill="#F08660" cx="186.327" cy="142.293" r="1.28"/>
			<circle fill="#F08660" cx="190.97" cy="144.678" r="1.104"/>
			<circle fill="#F08660" cx="183.042" cy="148.606" r="1.612"/>
		</g>
	</g>
	
		<rect x="211.273" y="207.249" transform="matrix(-0.8206 0.5715 -0.5715 -0.8206 520.6774 257.0229)" fill="#F06FB6" width="17.449" height="5.973"/>
</g>
</svg>
