<?xml version="1.0" encoding="utf-8"?>
<!-- Generator: Adobe Illustrator 16.0.0, SVG Export Plug-In . SVG Version: 6.00 Build 0)  -->
<!DOCTYPE svg PUBLIC "-//W3C//DTD SVG 1.1 Tiny//EN" "http://www.w3.org/Graphics/SVG/1.1/DTD/svg11-tiny.dtd">
<svg version="1.1" baseProfile="tiny" id="Layer_1" xmlns="http://www.w3.org/2000/svg" xmlns:xlink="http://www.w3.org/1999/xlink"
	 x="0px" y="0px" width="300px" height="300px" viewBox="0 0 300 300" xml:space="preserve">
<g>
	<g>
		<circle fill="#163A6C" cx="150" cy="150" r="131.6"/>
	</g>
	<path fill="#BDBEBF" d="M206.973,261.616v-78.752c0-17.743-14.382-27.124-32.126-27.124h-6.396
		c-17.744,0-32.127,9.38-32.127,27.124v78.752H206.973z"/>
	<g>
		<g>
			<path fill="#F19574" d="M182.012,163.556c0.805,4.796-2.428,9.334-7.223,10.14l-11.036,1.853
				c-4.794,0.806-9.333-2.427-10.138-7.224l-7.446-44.34c-0.805-4.793,2.429-9.332,7.223-10.138l11.036-1.853
				c4.795-0.805,9.333,2.428,10.138,7.222L182.012,163.556z"/>
			<path fill="#FFFFFF" d="M181.872,163.283c0.805,4.796-2.428,9.334-7.223,10.14l-11.036,1.853
				c-4.541,0.763-8.846-2.099-9.974-6.478l0.267,1.589c0.805,4.796,5.344,8.029,10.138,7.224l11.036-1.853
				c4.795-0.806,8.028-5.344,7.223-10.14"/>
			<path fill="#F3A285" d="M195.765,114.879c2.939,17.499-8.863,34.063-26.363,37.002l-9.267,1.557
				c-17.499,2.938-34.065-8.862-37.004-26.361l-7.068-42.092c-2.938-17.498,8.865-34.064,26.363-37.003l9.268-1.557
				c17.5-2.938,34.065,8.864,37.003,26.362L195.765,114.879z"/>
			<path fill="#1F6FB3" d="M192.983,83.151l-2.929-17.438c-3.155-18.787-20.94-31.458-39.728-28.303l-9.949,1.671
				c-18.787,3.155-31.46,20.94-28.305,39.728L115,96.247L192.983,83.151z"/>
			<g>
				<path fill="#F3A285" d="M120.238,101.649c-0.12,0.016-0.242,0.03-0.363,0.05c-6.556,1.101-10.975,7.309-9.874,13.864
					c1.101,6.555,7.305,10.977,13.86,9.875c0.122-0.02,0.241-0.045,0.36-0.068L120.238,101.649z"/>
				<path fill="#F08660" d="M121.202,107.388c-0.063,0.01-0.125,0.016-0.187,0.026c-3.384,0.568-5.666,3.771-5.098,7.156
					c0.568,3.383,3.771,5.664,7.155,5.096c0.062-0.01,0.123-0.023,0.185-0.036L121.202,107.388z"/>
			</g>
			<g>
				<path fill="#F3A285" d="M191.04,89.76c0.118-0.024,0.237-0.051,0.357-0.071c6.557-1.101,12.764,3.322,13.865,9.877
					s-3.322,12.762-9.878,13.863c-0.12,0.02-0.241,0.036-0.36,0.052L191.04,89.76z"/>
				<path fill="#F08660" d="M192.003,95.498c0.062-0.011,0.123-0.026,0.184-0.036c3.385-0.569,6.587,1.713,7.155,5.098
					c0.569,3.383-1.713,6.585-5.098,7.154c-0.061,0.01-0.123,0.018-0.185,0.027L192.003,95.498z"/>
			</g>
			<path fill="#F6B9A3" d="M165.204,111.864c0.152,0.908-0.462,1.767-1.368,1.919l-10.057,1.689
				c-0.907,0.152-1.767-0.459-1.919-1.368l0,0c-0.152-0.908,0.46-1.767,1.368-1.918l10.057-1.689
				C164.19,110.345,165.051,110.956,165.204,111.864L165.204,111.864z"/>
		</g>
		<circle fill="#B91E25" cx="160.211" cy="125.527" r="6.108"/>
		<path fill="#F08660" d="M135.895,107.745c-0.215,0-0.432-0.064-0.62-0.199c-0.481-0.343-0.593-1.011-0.25-1.492
			c1.266-1.777,3.217-2.436,5.093-2.59c-4.322-0.915-8.012,2.326-8.214,2.508c-0.438,0.394-1.115,0.36-1.51-0.078
			c-0.396-0.438-0.363-1.112,0.074-1.509c2.775-2.518,9.569-5.764,15.426-0.029c0.354,0.347,0.423,0.893,0.166,1.318
			c-0.258,0.425-0.773,0.615-1.246,0.463c-0.059-0.019-5.892-1.869-8.047,1.157C136.558,107.589,136.229,107.745,135.895,107.745z"
			/>
		<path fill="#F08660" d="M167.557,102.429c-0.243,0-0.485-0.083-0.683-0.247c-0.382-0.317-0.496-0.856-0.274-1.301
			c3.661-7.333,11.144-6.485,14.589-5.011c0.543,0.232,0.795,0.861,0.563,1.404c-0.232,0.542-0.859,0.794-1.402,0.564l0,0
			c-0.251-0.105-4.796-1.967-8.584,0.313c1.823-0.468,3.883-0.483,5.661,0.784c0.481,0.343,0.593,1.011,0.25,1.492
			c-0.343,0.481-1.012,0.593-1.492,0.25c-2.988-2.13-7.933,1.497-7.982,1.534C168.012,102.356,167.784,102.429,167.557,102.429z"/>
		<path fill="#5290C4" d="M94.617,96.251c-0.308-1.836,0.93-3.573,2.766-3.882l92.604-15.551c1.836-0.309,3.574,0.93,3.882,2.765
			l0,0c0.308,1.836-0.93,3.575-2.766,3.883L98.5,99.018C96.664,99.326,94.926,98.087,94.617,96.251L94.617,96.251z"/>
		<path fill="#895D39" d="M117.873,95.764l3.018,17.969c0,0,5.198-3.517,4.121-9.93l-0.484-2.884c0,0,0.999-6.439,6.779-7.41
			L117.873,95.764z"/>
		<path fill="#895D39" d="M190.507,83.567l3.018,17.969c0,0-6.062-1.626-7.139-8.039l-0.485-2.885c0,0-3.047-5.76-8.828-4.79
			L190.507,83.567z"/>
		<path fill="#38A5DC" d="M157.118,66.69c0.685,4.079-2.066,7.939-6.144,8.625l-3.152,0.529c-4.079,0.685-7.94-2.065-8.625-6.145
			l-0.529-3.152c-0.685-4.078,2.066-7.94,6.145-8.625l3.152-0.529c4.078-0.686,7.939,2.066,8.625,6.145L157.118,66.69z"/>
	</g>
	<path fill="#1F6FB3" d="M136.323,261.616l-2.354,19.016c0,0,35.35,5.832,73.004-11.972v-7.044H136.323z"/>
	<polygon fill="#E7E8E8" points="117.873,95.764 190.507,83.567 192.49,93.493 118.315,98.399 	"/>
	<g>
		<path fill="#D3D4D5" d="M52.422,129.644c2.256,0,4.125,0.677,5.609,2.029c1.484,1.353,2.226,3.145,2.226,5.376
			c0,2.132-0.801,3.88-2.404,5.242c-1.523,1.303-3.374,1.955-5.55,1.955c-2.236,0-4.086-0.682-5.55-2.044
			c-1.465-1.362-2.196-3.149-2.196-5.361c0-2.132,0.766-3.865,2.3-5.198C48.391,130.311,50.246,129.644,52.422,129.644z
			 M52.511,140.774c0.891,0,1.603-0.394,2.137-1.183c0.475-0.709,0.712-1.527,0.712-2.454c0-1.104-0.228-2.011-0.683-2.72
			c-0.554-0.847-1.355-1.271-2.404-1.271c-0.89,0-1.598,0.375-2.122,1.124c-0.524,0.749-0.787,1.606-0.787,2.572
			c0,1.104,0.238,2.01,0.712,2.72C50.631,140.37,51.443,140.774,52.511,140.774z"/>
		<path fill="#D3D4D5" d="M69.725,129.644c2.256,0,4.125,0.677,5.609,2.029c1.484,1.353,2.226,3.145,2.226,5.376
			c0,2.132-0.801,3.88-2.404,5.242c-1.523,1.303-3.374,1.955-5.55,1.955c-2.236,0-4.086-0.682-5.55-2.044
			c-1.465-1.362-2.196-3.149-2.196-5.361c0-2.132,0.766-3.865,2.3-5.198C65.693,130.311,67.548,129.644,69.725,129.644z
			 M69.814,140.774c0.891,0,1.603-0.394,2.137-1.183c0.475-0.709,0.712-1.527,0.712-2.454c0-1.104-0.228-2.011-0.683-2.72
			c-0.554-0.847-1.355-1.271-2.404-1.271c-0.89,0-1.598,0.375-2.122,1.124c-0.524,0.749-0.787,1.606-0.787,2.572
			c0,1.104,0.238,2.01,0.712,2.72C67.934,140.37,68.746,140.774,69.814,140.774z"/>
		<path fill="#D3D4D5" d="M87.028,129.644c2.256,0,4.125,0.677,5.609,2.029c1.484,1.353,2.226,3.145,2.226,5.376
			c0,2.132-0.801,3.88-2.404,5.242c-1.523,1.303-3.374,1.955-5.55,1.955c-2.236,0-4.086-0.682-5.55-2.044
			c-1.465-1.362-2.196-3.149-2.196-5.361c0-2.132,0.766-3.865,2.3-5.198C82.996,130.311,84.851,129.644,87.028,129.644z
			 M87.117,140.774c0.891,0,1.603-0.394,2.137-1.183c0.475-0.709,0.712-1.527,0.712-2.454c0-1.104-0.228-2.011-0.683-2.72
			c-0.554-0.847-1.355-1.271-2.404-1.271c-0.89,0-1.598,0.375-2.122,1.124c-0.524,0.749-0.787,1.606-0.787,2.572
			c0,1.104,0.238,2.01,0.712,2.72C85.237,140.37,86.048,140.774,87.117,140.774z"/>
		<path fill="#D3D4D5" d="M97.445,122.818h4.749v7.806c0,0.376-0.05,0.792-0.149,1.247c0.71-0.752,1.405-1.301,2.086-1.647
			c0.68-0.346,1.504-0.519,2.471-0.519c1.696,0,2.958,0.703,3.788,2.107c0.69,1.168,1.035,2.652,1.035,4.452v7.509h-4.749v-7.034
			c0-0.95-0.098-1.662-0.295-2.137c-0.295-0.732-0.855-1.098-1.681-1.098c-0.433,0-0.89,0.129-1.371,0.386
			c-0.481,0.257-0.86,0.564-1.135,0.92v8.963h-4.749V122.818z"/>
	</g>
	<path fill="#B0B1B2" d="M136.323,205.042c0,0,9.723-11.375,18.391-7.491c1.918,0.859-8.239,6.54-4.714,9.037
		s18.032,0.713,18.032,5.351s-10.821,5.589-9.394,9.513s8.799,7.967,8.799,12.01s-12.495-1.308-13.917,1.308
		s2.781,13.794-1.342,14.507s-13.911-10.939-15.854-5.708V205.042z"/>
	<g>
		<circle fill="#E7E8E8" cx="138.563" cy="222.132" r="14.957"/>
		<g>
			<g>

					<path fill="none" stroke="#E30B14" stroke-width="0.3561" stroke-linecap="round" stroke-linejoin="round" stroke-miterlimit="10" d="
					M124.493,221.42c-0.03-0.005,0.591-1.021,0.617-1.013"/>

					<path fill="none" stroke="#E30B14" stroke-width="0.3561" stroke-linecap="round" stroke-linejoin="round" stroke-miterlimit="10" d="
					M124.168,218.862c0,0,0.253,0.216,0.48,0.437c0.227,0.228,0.433,0.462,0.433,0.462"/>
			</g>
			<g>

					<path fill="none" stroke="#E30B14" stroke-width="0.3561" stroke-linecap="round" stroke-linejoin="round" stroke-miterlimit="10" d="
					M125.767,221.366c0,0,0.183-0.238,0.366-0.476c0.189-0.244,0.394-0.458,0.394-0.458"/>

					<path fill="none" stroke="#E30B14" stroke-width="0.3561" stroke-linecap="round" stroke-linejoin="round" stroke-miterlimit="10" d="
					M125.801,218.787c0,0,0.201,0.246,0.402,0.491c0.194,0.24,0.371,0.509,0.371,0.509"/>
			</g>
			<g>

					<path fill="none" stroke="#E30B14" stroke-width="0.3561" stroke-linecap="round" stroke-linejoin="round" stroke-miterlimit="10" d="
					M127.077,221.454c0,0,0.202-0.224,0.416-0.425c0.221-0.206,0.442-0.411,0.442-0.411"/>

					<path fill="none" stroke="#E30B14" stroke-width="0.3561" stroke-linecap="round" stroke-linejoin="round" stroke-miterlimit="10" d="
					M127.395,218.895c0,0,0.181,0.26,0.343,0.54c0.157,0.273,0.313,0.547,0.313,0.547"/>
			</g>
			<g>

					<path fill="none" stroke="#E30B14" stroke-width="0.3561" stroke-linecap="round" stroke-linejoin="round" stroke-miterlimit="10" d="
					M128.373,221.687c0,0,0.229-0.186,0.458-0.372c0.242-0.183,0.485-0.365,0.485-0.365"/>

					<path fill="none" stroke="#E30B14" stroke-width="0.3561" stroke-linecap="round" stroke-linejoin="round" stroke-miterlimit="10" d="
					M128.964,219.176c0,0,0.141,0.29,0.282,0.58c0.127,0.287,0.254,0.573,0.254,0.573"/>
			</g>
			<g>

					<path fill="none" stroke="#E30B14" stroke-width="0.3561" stroke-linecap="round" stroke-linejoin="round" stroke-miterlimit="10" d="
					M129.631,222.062c0,0,0.248-0.16,0.496-0.32c0.261-0.155,0.522-0.311,0.522-0.311"/>

					<path fill="none" stroke="#E30B14" stroke-width="0.3561" stroke-linecap="round" stroke-linejoin="round" stroke-miterlimit="10" d="
					M130.495,219.632c0,0,0.108,0.303,0.217,0.606c0.095,0.299,0.19,0.598,0.19,0.598"/>
			</g>
			<g>

					<path fill="none" stroke="#E30B14" stroke-width="0.3561" stroke-linecap="round" stroke-linejoin="round" stroke-miterlimit="10" d="
					M130.84,222.569c0,0,0.264-0.13,0.527-0.26c0.276-0.124,0.553-0.248,0.553-0.248"/>

					<path fill="none" stroke="#E30B14" stroke-width="0.3561" stroke-linecap="round" stroke-linejoin="round" stroke-miterlimit="10" d="
					M131.97,220.25c0,0,0.073,0.315,0.146,0.63c0.06,0.309,0.121,0.617,0.121,0.617"/>
			</g>
			<g>

					<path fill="none" stroke="#E30B14" stroke-width="0.3561" stroke-linecap="round" stroke-linejoin="round" stroke-miterlimit="10" d="
					M131.989,223.201c0,0,0.274-0.097,0.549-0.194c0.287-0.09,0.573-0.179,0.573-0.179"/>

					<path fill="none" stroke="#E30B14" stroke-width="0.3561" stroke-linecap="round" stroke-linejoin="round" stroke-miterlimit="10" d="
					M133.371,221.024c0,0,0.036,0.323,0.071,0.647c0.024,0.315,0.047,0.632,0.047,0.632"/>
			</g>
			<g>

					<path fill="none" stroke="#E30B14" stroke-width="0.3561" stroke-linecap="round" stroke-linejoin="round" stroke-miterlimit="10" d="
					M133.051,223.977c0,0,0.301-0.101,0.584-0.152c0.292-0.055,0.583-0.108,0.583-0.108"/>

					<path fill="none" stroke="#E30B14" stroke-width="0.3561" stroke-linecap="round" stroke-linejoin="round" stroke-miterlimit="10" d="
					M134.664,221.964c0,0,0.03,0.302,0.015,0.631c-0.015,0.319-0.029,0.64-0.029,0.64"/>
			</g>
			<g>

					<path fill="none" stroke="#E30B14" stroke-width="0.3561" stroke-linecap="round" stroke-linejoin="round" stroke-miterlimit="10" d="
					M134.024,224.867c0,0,0.301-0.046,0.602-0.093c0.306-0.043,0.614-0.069,0.614-0.069"/>

					<path fill="none" stroke="#E30B14" stroke-width="0.3561" stroke-linecap="round" stroke-linejoin="round" stroke-miterlimit="10" d="
					M135.838,223.034c0,0-0.023,0.312-0.047,0.625c-0.027,0.308-0.072,0.611-0.072,0.611"/>
			</g>
			<g>

					<path fill="none" stroke="#E30B14" stroke-width="0.3561" stroke-linecap="round" stroke-linejoin="round" stroke-miterlimit="10" d="
					M134.916,225.85c0,0,0.299-0.012,0.598-0.023c0.307-0.002,0.613-0.005,0.613-0.005"/>

					<path fill="none" stroke="#E30B14" stroke-width="0.3561" stroke-linecap="round" stroke-linejoin="round" stroke-miterlimit="10" d="
					M136.901,224.203c0,0-0.061,0.312-0.121,0.625c-0.068,0.303-0.136,0.606-0.136,0.606"/>
			</g>
			<g>

					<path fill="none" stroke="#E30B14" stroke-width="0.3561" stroke-linecap="round" stroke-linejoin="round" stroke-miterlimit="10" d="
					M135.738,226.903c0,0,0.293,0.021,0.587,0.042c0.299,0.029,0.598,0.059,0.598,0.059"/>

					<path fill="none" stroke="#E30B14" stroke-width="0.3561" stroke-linecap="round" stroke-linejoin="round" stroke-miterlimit="10" d="
					M137.867,225.446c0,0-0.096,0.308-0.192,0.616c-0.102,0.3-0.203,0.6-0.203,0.6"/>
			</g>
			<g>

					<path fill="none" stroke="#E30B14" stroke-width="0.3561" stroke-linecap="round" stroke-linejoin="round" stroke-miterlimit="10" d="
					M136.433,228.064c0,0,0.304,0.037,0.608,0.074c0.309,0.046,0.618,0.092,0.618,0.092"/>

					<path fill="none" stroke="#E30B14" stroke-width="0.3561" stroke-linecap="round" stroke-linejoin="round" stroke-miterlimit="10" d="
					M138.671,226.782c0,0-0.107,0.292-0.213,0.584c-0.112,0.283-0.224,0.566-0.224,0.566"/>
			</g>
			<g>

					<path fill="none" stroke="#E30B14" stroke-width="0.3561" stroke-linecap="round" stroke-linejoin="round" stroke-miterlimit="10" d="
					M137.062,229.269c0,0,0.292,0.065,0.585,0.13c0.296,0.072,0.592,0.145,0.592,0.145"/>

					<path fill="none" stroke="#E30B14" stroke-width="0.3561" stroke-linecap="round" stroke-linejoin="round" stroke-miterlimit="10" d="
					M139.388,228.154c0,0-0.137,0.286-0.274,0.573c-0.141,0.279-0.282,0.557-0.282,0.557"/>
			</g>
			<g>

					<path fill="none" stroke="#E30B14" stroke-width="0.3561" stroke-linecap="round" stroke-linejoin="round" stroke-miterlimit="10" d="
					M137.617,230.522c0,0,0.299,0.08,0.599,0.159c0.298,0.084,0.574,0.187,0.574,0.187"/>

					<path fill="none" stroke="#E30B14" stroke-width="0.3561" stroke-linecap="round" stroke-linejoin="round" stroke-miterlimit="10" d="
					M140.012,229.564c0,0-0.144,0.272-0.288,0.543c-0.148,0.269-0.326,0.54-0.326,0.54"/>
			</g>
			<g>

					<line fill="none" stroke="#E30B14" stroke-width="0.3561" stroke-linecap="round" stroke-linejoin="round" stroke-miterlimit="10" x1="138.077" y1="231.824" x2="139.219" y2="232.241"/>

					<line fill="none" stroke="#E30B14" stroke-width="0.3561" stroke-linecap="round" stroke-linejoin="round" stroke-miterlimit="10" x1="140.522" y1="231.004" x2="139.838" y2="232.053"/>
			</g>
			<g>

					<path fill="none" stroke="#E30B14" stroke-width="0.3561" stroke-linecap="round" stroke-linejoin="round" stroke-miterlimit="10" d="
					M138.492,233.148c0,0,0.289,0.113,0.578,0.226c0.295,0.115,0.556,0.247,0.556,0.247"/>

					<path fill="none" stroke="#E30B14" stroke-width="0.3561" stroke-linecap="round" stroke-linejoin="round" stroke-miterlimit="10" d="
					M140.978,232.459c0,0-0.174,0.253-0.348,0.506c-0.169,0.249-0.377,0.5-0.377,0.5"/>
			</g>
			<g>

					<line fill="none" stroke="#E30B14" stroke-width="0.3561" stroke-linecap="round" stroke-linejoin="round" stroke-miterlimit="10" x1="138.82" y1="234.505" x2="139.914" y2="235.035"/>

					<line fill="none" stroke="#E30B14" stroke-width="0.3561" stroke-linecap="round" stroke-linejoin="round" stroke-miterlimit="10" x1="141.334" y1="233.93" x2="140.548" y2="234.904"/>
			</g>
			<g>

					<line fill="none" stroke="#E30B14" stroke-width="0.3561" stroke-linecap="round" stroke-linejoin="round" stroke-miterlimit="10" x1="139.102" y1="235.879" x2="140.204" y2="236.448"/>

					<line fill="none" stroke="#E30B14" stroke-width="0.3561" stroke-linecap="round" stroke-linejoin="round" stroke-miterlimit="10" x1="141.637" y1="235.409" x2="140.843" y2="236.344"/>
			</g>
		</g>
		<g>
			<g>

					<path fill="none" stroke="#E30B14" stroke-width="0.3561" stroke-linecap="round" stroke-linejoin="round" stroke-miterlimit="10" d="
					M135.06,207.97c0,0,0.216,0.253,0.437,0.48c0.228,0.227,0.462,0.433,0.462,0.433"/>

					<path fill="none" stroke="#E30B14" stroke-width="0.3561" stroke-linecap="round" stroke-linejoin="round" stroke-miterlimit="10" d="
					M137.619,208.294c-0.005-0.029-1.022,0.592-1.014,0.618"/>
			</g>
			<g>

					<path fill="none" stroke="#E30B14" stroke-width="0.3561" stroke-linecap="round" stroke-linejoin="round" stroke-miterlimit="10" d="
					M134.985,209.603c0,0,0.246,0.201,0.491,0.402c0.24,0.195,0.509,0.371,0.509,0.371"/>

					<path fill="none" stroke="#E30B14" stroke-width="0.3561" stroke-linecap="round" stroke-linejoin="round" stroke-miterlimit="10" d="
					M137.564,209.568c0,0-0.238,0.183-0.476,0.366c-0.244,0.189-0.458,0.395-0.458,0.395"/>
			</g>
			<g>

					<path fill="none" stroke="#E30B14" stroke-width="0.3561" stroke-linecap="round" stroke-linejoin="round" stroke-miterlimit="10" d="
					M135.093,211.196c0,0,0.26,0.181,0.54,0.343c0.273,0.157,0.547,0.313,0.547,0.313"/>

					<path fill="none" stroke="#E30B14" stroke-width="0.3561" stroke-linecap="round" stroke-linejoin="round" stroke-miterlimit="10" d="
					M137.652,210.879c0,0-0.224,0.202-0.425,0.416c-0.206,0.221-0.411,0.442-0.411,0.442"/>
			</g>
			<g>

					<path fill="none" stroke="#E30B14" stroke-width="0.3561" stroke-linecap="round" stroke-linejoin="round" stroke-miterlimit="10" d="
					M135.375,212.766c0,0,0.29,0.141,0.58,0.282c0.287,0.127,0.573,0.254,0.573,0.254"/>

					<path fill="none" stroke="#E30B14" stroke-width="0.3561" stroke-linecap="round" stroke-linejoin="round" stroke-miterlimit="10" d="
					M137.885,212.174c0,0-0.186,0.229-0.372,0.458c-0.183,0.243-0.366,0.485-0.366,0.485"/>
			</g>
			<g>

					<path fill="none" stroke="#E30B14" stroke-width="0.3561" stroke-linecap="round" stroke-linejoin="round" stroke-miterlimit="10" d="
					M135.83,214.296c0,0,0.304,0.108,0.607,0.217c0.298,0.095,0.597,0.19,0.597,0.19"/>

					<path fill="none" stroke="#E30B14" stroke-width="0.3561" stroke-linecap="round" stroke-linejoin="round" stroke-miterlimit="10" d="
					M138.261,213.433c0,0-0.16,0.248-0.32,0.496c-0.156,0.261-0.311,0.522-0.311,0.522"/>
			</g>
			<g>

					<path fill="none" stroke="#E30B14" stroke-width="0.3561" stroke-linecap="round" stroke-linejoin="round" stroke-miterlimit="10" d="
					M136.449,215.771c0,0,0.315,0.073,0.629,0.146c0.309,0.061,0.617,0.121,0.617,0.121"/>

					<path fill="none" stroke="#E30B14" stroke-width="0.3561" stroke-linecap="round" stroke-linejoin="round" stroke-miterlimit="10" d="
					M138.768,214.642c0,0-0.13,0.264-0.261,0.527c-0.124,0.276-0.248,0.553-0.248,0.553"/>
			</g>
			<g>

					<path fill="none" stroke="#E30B14" stroke-width="0.3561" stroke-linecap="round" stroke-linejoin="round" stroke-miterlimit="10" d="
					M137.223,217.173c0,0,0.323,0.036,0.646,0.071c0.316,0.023,0.632,0.047,0.632,0.047"/>

					<path fill="none" stroke="#E30B14" stroke-width="0.3561" stroke-linecap="round" stroke-linejoin="round" stroke-miterlimit="10" d="
					M139.4,215.791c0,0-0.097,0.275-0.194,0.55c-0.09,0.287-0.18,0.573-0.18,0.573"/>
			</g>
			<g>

					<path fill="none" stroke="#E30B14" stroke-width="0.3561" stroke-linecap="round" stroke-linejoin="round" stroke-miterlimit="10" d="
					M138.163,218.465c0,0,0.301,0.03,0.63,0.015c0.32-0.015,0.64-0.029,0.64-0.029"/>

					<path fill="none" stroke="#E30B14" stroke-width="0.3561" stroke-linecap="round" stroke-linejoin="round" stroke-miterlimit="10" d="
					M140.175,216.852c0,0-0.101,0.301-0.153,0.584c-0.054,0.292-0.108,0.583-0.108,0.583"/>
			</g>
			<g>

					<path fill="none" stroke="#E30B14" stroke-width="0.3561" stroke-linecap="round" stroke-linejoin="round" stroke-miterlimit="10" d="
					M139.233,219.64c0,0,0.312-0.024,0.625-0.047c0.307-0.027,0.611-0.072,0.611-0.072"/>

					<path fill="none" stroke="#E30B14" stroke-width="0.3561" stroke-linecap="round" stroke-linejoin="round" stroke-miterlimit="10" d="
					M141.066,217.825c0,0-0.046,0.301-0.093,0.602c-0.043,0.306-0.069,0.614-0.069,0.614"/>
			</g>
			<g>

					<path fill="none" stroke="#E30B14" stroke-width="0.3561" stroke-linecap="round" stroke-linejoin="round" stroke-miterlimit="10" d="
					M140.402,220.702c0,0,0.312-0.06,0.625-0.12c0.303-0.068,0.606-0.136,0.606-0.136"/>

					<path fill="none" stroke="#E30B14" stroke-width="0.3561" stroke-linecap="round" stroke-linejoin="round" stroke-miterlimit="10" d="
					M142.048,218.717c0,0-0.012,0.299-0.023,0.599c-0.002,0.307-0.005,0.613-0.005,0.613"/>
			</g>
			<g>

					<path fill="none" stroke="#E30B14" stroke-width="0.3561" stroke-linecap="round" stroke-linejoin="round" stroke-miterlimit="10" d="
					M141.645,221.668c0,0,0.308-0.096,0.616-0.192c0.299-0.102,0.599-0.203,0.599-0.203"/>

					<path fill="none" stroke="#E30B14" stroke-width="0.3561" stroke-linecap="round" stroke-linejoin="round" stroke-miterlimit="10" d="
					M143.102,219.54c0,0,0.021,0.293,0.042,0.587c0.029,0.299,0.059,0.598,0.059,0.598"/>
			</g>
			<g>

					<path fill="none" stroke="#E30B14" stroke-width="0.3561" stroke-linecap="round" stroke-linejoin="round" stroke-miterlimit="10" d="
					M142.981,222.473c0,0,0.292-0.107,0.584-0.214c0.283-0.111,0.566-0.224,0.566-0.224"/>

					<path fill="none" stroke="#E30B14" stroke-width="0.3561" stroke-linecap="round" stroke-linejoin="round" stroke-miterlimit="10" d="
					M144.263,220.234c0,0,0.037,0.304,0.074,0.608c0.046,0.309,0.092,0.618,0.092,0.618"/>
			</g>
			<g>

					<path fill="none" stroke="#E30B14" stroke-width="0.3561" stroke-linecap="round" stroke-linejoin="round" stroke-miterlimit="10" d="
					M144.353,223.19c0,0,0.286-0.137,0.573-0.274c0.278-0.141,0.557-0.282,0.557-0.282"/>

					<path fill="none" stroke="#E30B14" stroke-width="0.3561" stroke-linecap="round" stroke-linejoin="round" stroke-miterlimit="10" d="
					M145.467,220.864c0,0,0.065,0.292,0.13,0.585c0.072,0.296,0.145,0.592,0.145,0.592"/>
			</g>
			<g>

					<path fill="none" stroke="#E30B14" stroke-width="0.3561" stroke-linecap="round" stroke-linejoin="round" stroke-miterlimit="10" d="
					M145.763,223.813c0,0,0.271-0.144,0.543-0.288c0.269-0.148,0.54-0.326,0.54-0.326"/>

					<path fill="none" stroke="#E30B14" stroke-width="0.3561" stroke-linecap="round" stroke-linejoin="round" stroke-miterlimit="10" d="
					M146.721,221.419c0,0,0.079,0.299,0.159,0.599c0.084,0.299,0.187,0.574,0.187,0.574"/>
			</g>
			<g>

					<line fill="none" stroke="#E30B14" stroke-width="0.3561" stroke-linecap="round" stroke-linejoin="round" stroke-miterlimit="10" x1="147.203" y1="224.324" x2="148.251" y2="223.64"/>

					<line fill="none" stroke="#E30B14" stroke-width="0.3561" stroke-linecap="round" stroke-linejoin="round" stroke-miterlimit="10" x1="148.022" y1="221.878" x2="148.44" y2="223.021"/>
			</g>
			<g>

					<path fill="none" stroke="#E30B14" stroke-width="0.3561" stroke-linecap="round" stroke-linejoin="round" stroke-miterlimit="10" d="
					M148.658,224.779c0,0,0.253-0.174,0.506-0.348c0.249-0.169,0.499-0.376,0.499-0.377"/>

					<path fill="none" stroke="#E30B14" stroke-width="0.3561" stroke-linecap="round" stroke-linejoin="round" stroke-miterlimit="10" d="
					M149.347,222.293c0,0,0.113,0.289,0.226,0.578c0.115,0.295,0.247,0.556,0.247,0.556"/>
			</g>
			<g>

					<line fill="none" stroke="#E30B14" stroke-width="0.3561" stroke-linecap="round" stroke-linejoin="round" stroke-miterlimit="10" x1="150.128" y1="225.136" x2="151.103" y2="224.35"/>

					<line fill="none" stroke="#E30B14" stroke-width="0.3561" stroke-linecap="round" stroke-linejoin="round" stroke-miterlimit="10" x1="150.704" y1="222.622" x2="151.233" y2="223.716"/>
			</g>
			<g>

					<line fill="none" stroke="#E30B14" stroke-width="0.3561" stroke-linecap="round" stroke-linejoin="round" stroke-miterlimit="10" x1="151.607" y1="225.439" x2="152.543" y2="224.645"/>

					<line fill="none" stroke="#E30B14" stroke-width="0.3561" stroke-linecap="round" stroke-linejoin="round" stroke-miterlimit="10" x1="152.078" y1="222.903" x2="152.647" y2="224.006"/>
			</g>
		</g>
	</g>
	<path fill="#535554" d="M114.644,220.726H73.369c-1.104,0-2-0.896-2-2s0.896-2,2-2h41.274c1.104,0,2,0.896,2,2
		S115.748,220.726,114.644,220.726z"/>
	<path fill="#535554" d="M63.658,220.726h-6.07c-1.104,0-2-0.896-2-2s0.896-2,2-2h6.07c1.104,0,2,0.896,2,2
		S64.763,220.726,63.658,220.726z"/>
	<path fill="#535554" d="M95.625,230.318H62.646c-1.104,0-2-0.896-2-2s0.896-2,2-2h32.979c1.104,0,2,0.896,2,2
		S96.729,230.318,95.625,230.318z"/>
	<path fill="#535554" d="M112.823,230.318h-8.295c-1.104,0-2-0.896-2-2s0.896-2,2-2h8.295c1.104,0,2,0.896,2,2
		S113.927,230.318,112.823,230.318z"/>
	<path fill="#535554" d="M127,209.175c-0.512,0-1.024-0.195-1.414-0.586l-3.677-3.677c-0.781-0.781-0.781-2.047,0-2.828
		c0.78-0.781,2.048-0.781,2.828,0l3.677,3.677c0.781,0.781,0.781,2.047,0,2.828C128.024,208.98,127.512,209.175,127,209.175z"/>
	<path fill="#535554" d="M125.081,249.586c-0.512,0-1.023-0.195-1.414-0.586c-0.781-0.781-0.781-2.047,0-2.828l4.585-4.586
		c0.78-0.781,2.047-0.781,2.828,0c0.781,0.781,0.781,2.047,0,2.828L126.495,249C126.105,249.391,125.593,249.586,125.081,249.586z"
		/>
	<path fill="#F3A285" d="M187.581,246.18c-4.021,0-7.858-2.323-9.599-6.234c-2.357-5.298,0.026-11.503,5.324-13.862
		c17.009-7.572,33.951-17.497,39.282-22.811c-4.444-5.689-19.235-15.672-33.719-22.443c-5.253-2.456-7.521-8.705-5.065-13.958
		c2.455-5.252,8.706-7.521,13.958-5.065c9.613,4.494,41.362,20.512,46.285,37.946c3.671,12.999-10.753,23.37-26.887,32.64
		c-12.31,7.074-24.794,12.645-25.319,12.878C190.455,245.888,189.006,246.18,187.581,246.18z"/>
	<path fill="#F3A285" d="M147.042,180.192c-0.912-3.017-1.749-6.061-2.404-9.144c-0.314-1.478-0.679-2.989-0.837-4.493
		c-0.088-0.844-0.184-1.687-0.297-2.528c-1.001,0.02-2.016,0.179-3.017,0.501c-0.401,0.13-40.663,12.835-83.757,5.641
		c-5.718-0.955-11.131,2.909-12.085,8.628s2.908,11.13,8.628,12.085c10.844,1.81,21.443,2.516,31.389,2.516
		c34.359,0,60.87-8.43,62.29-8.89c0.451-0.146,0.878-0.329,1.294-0.528C147.832,182.722,147.425,181.46,147.042,180.192z"/>
	<path fill="#BDBEBF" d="M110.748,169.365c0,0,30.546-5.979,37.145-8.242c0,0,1.828-0.163,3.943,12.578s-8.061,13.49-15.513,15.437
		s-19.135,3.595-19.135,3.595S119.585,175.956,110.748,169.365z"/>
	<path fill="#BDBEBF" d="M223.958,175.671c0,0-23.195-16.525-32.189-16.525s-10.406,12.614-9.633,21.344l31.346,17.208
		C213.481,197.699,215.092,186.239,223.958,175.671z"/>
	<path fill="#F19574" d="M112.015,170.464c0,0,6.267,4.199,5.349,20.503l-14.006,1.624
		C103.357,192.591,116.819,184.518,112.015,170.464z"/>
	<path fill="#F19574" d="M213.917,195.555c0,0,3.043-11.001,9.437-19.146c0,0-2.534,15.456,0,20.333s1.376,4.39-0.765,6.531
		L213.917,195.555z"/>
	<path fill="#F3A285" d="M58.156,178.113c-1.431,0-2.814-0.77-3.534-2.122c-0.092-0.174-2.286-4.314-4.266-9.509
		c-0.787-2.064,0.249-4.375,2.313-5.162c2.066-0.786,4.376,0.25,5.162,2.313c1.793,4.707,3.833,8.563,3.854,8.602
		c1.036,1.951,0.295,4.372-1.655,5.409C59.433,177.961,58.79,178.113,58.156,178.113z"/>
	<path fill="#F3A285" d="M54.099,178.613c-0.324,0-0.652-0.035-0.981-0.108c-0.374-0.083-9.233-2.068-15.488-4.795
		c-2.278-0.993-3.32-3.646-2.327-5.923c0.993-2.278,3.646-3.322,5.923-2.327c5.468,2.384,13.761,4.241,13.844,4.26
		c2.426,0.539,3.956,2.943,3.416,5.369C58.021,177.186,56.162,178.613,54.099,178.613z"/>
	<path fill="#F3A285" d="M51.53,185.528c-0.329,0-0.664-0.041-0.997-0.126c-0.519-0.133-12.809-3.324-21.421-8.771
		c-1.867-1.181-2.423-3.651-1.242-5.519c1.18-1.867,3.651-2.424,5.519-1.242c7.558,4.78,19.019,7.754,19.133,7.783
		c2.14,0.549,3.429,2.729,2.88,4.869C54.938,184.328,53.312,185.528,51.53,185.528z"/>
	<path fill="#F3A285" d="M51.527,190.25c-11.326,0-23.038-7.896-23.531-8.232c-1.825-1.244-2.296-3.733-1.051-5.558
		c1.243-1.824,3.729-2.295,5.554-1.054l0,0c0.101,0.068,10.193,6.845,19.028,6.845c2.209,0,4,1.791,4,4S53.736,190.25,51.527,190.25
		z"/>
	<path fill="#F3A285" d="M43.495,192.463c-7.639,0-14.181-2.299-14.595-2.448c-2.08-0.746-3.16-3.036-2.415-5.116
		c0.746-2.078,3.034-3.156,5.111-2.417c0.198,0.07,12.502,4.333,20.696,0.196c1.974-0.997,4.378-0.204,5.374,1.768
		c0.996,1.972,0.204,4.378-1.768,5.374C51.962,191.808,47.571,192.463,43.495,192.463z"/>
	<path fill="#F3A285" d="M184.058,225.747c0,0-3.255,0-6.985,0s-4.015,4.371-4.015,6.364s-6.835,5.411-5.838,10.253
		s3.758,5.006,5.696,6.945s1.708,1.172,5.838,2.738s2.563,2.42,7.12,0.712s8.288-6.342,12.462-10.517
		S197.62,225.747,184.058,225.747z"/>
	<path fill="#D3D4D5" d="M94.623,117.229c-0.407,0-0.817-0.124-1.171-0.38l-8.125-5.881c-0.895-0.648-1.095-1.898-0.447-2.793
		s1.897-1.094,2.793-0.447l8.125,5.881c0.895,0.648,1.095,1.898,0.447,2.793C95.854,116.941,95.243,117.229,94.623,117.229z"/>
	<path fill="#D3D4D5" d="M92.001,162.668c-0.624,0-1.239-0.291-1.629-0.838c-0.642-0.899-0.433-2.148,0.466-2.79l9.5-6.781
		c0.899-0.643,2.147-0.434,2.79,0.466c0.642,0.899,0.433,2.148-0.466,2.79l-9.5,6.781C92.81,162.547,92.404,162.668,92.001,162.668z
		"/>
	<path fill="#D3D4D5" d="M213.918,121.42c-0.672,0-1.329-0.339-1.707-0.955c-0.578-0.941-0.283-2.173,0.659-2.75l14.583-8.946
		c0.942-0.578,2.172-0.282,2.75,0.659c0.578,0.941,0.283,2.173-0.659,2.75l-14.583,8.946
		C214.636,121.325,214.275,121.42,213.918,121.42z"/>
	<path fill="#D3D4D5" d="M219.355,141.5c-0.253,0-0.511-0.048-0.76-0.151l-8.507-3.5c-1.021-0.42-1.509-1.589-1.089-2.61
		c0.42-1.021,1.589-1.51,2.61-1.089l8.507,3.5c1.021,0.42,1.509,1.589,1.089,2.61C220.888,141.033,220.142,141.5,219.355,141.5z"/>
</g>
</svg>
