<?xml version="1.0" encoding="utf-8"?>
<!-- Generator: Adobe Illustrator 16.0.0, SVG Export Plug-In . SVG Version: 6.00 Build 0)  -->
<!DOCTYPE svg PUBLIC "-//W3C//DTD SVG 1.1 Tiny//EN" "http://www.w3.org/Graphics/SVG/1.1/DTD/svg11-tiny.dtd">
<svg version="1.1" baseProfile="tiny" id="Layer_1" xmlns="http://www.w3.org/2000/svg" xmlns:xlink="http://www.w3.org/1999/xlink"
	 x="0px" y="0px" width="300px" height="300px" viewBox="0 0 300 300" xml:space="preserve">
<g>
	<g>
		<circle fill="#25A7DE" cx="150" cy="150" r="131.6"/>
	</g>
	<g>
		<path fill="#B91E25" d="M237.422,247.775c-8.926-65.223-67.039-65.611-75.393-64.698c-8.352-0.913-64.027,8.583-78.462,80.542
			c0,0,29.203,20.774,78.91,17.391C207.548,277.941,237.422,247.775,237.422,247.775z"/>
		<path fill="#F19574" d="M182.239,213.093c0,6.493-5.262,11.754-11.753,11.754h-14.942c-6.491,0-11.753-5.261-11.753-11.754
			v-60.032c0-6.49,5.262-11.752,11.753-11.752h14.942c6.491,0,11.753,5.262,11.753,11.752V213.093z"/>
		<path fill="#F3A285" d="M211.112,140.182c0,23.693-19.203,42.896-42.896,42.896h-12.549c-23.69,0-42.896-19.202-42.896-42.896
			V83.193c0-23.691,19.206-42.896,42.896-42.896h12.549c23.692,0,42.896,19.204,42.896,42.896V140.182z"/>
		<g>
			<path fill="#F3A285" d="M114.584,106.061c-0.162-0.006-0.325-0.014-0.489-0.014c-8.876,0-16.068,7.196-16.068,16.071
				c0,8.874,7.192,16.069,16.068,16.069c0.164,0,0.327-0.007,0.489-0.011V106.061z"/>
			<path fill="#F08660" d="M114.584,113.83c-0.085-0.002-0.168-0.007-0.251-0.007c-4.582,0-8.295,3.713-8.295,8.295
				c0,4.581,3.713,8.292,8.295,8.292c0.083,0,0.166-0.004,0.251-0.006V113.83z"/>
		</g>
		<g>
			<path fill="#F3A285" d="M209.122,106.061c0.162-0.006,0.325-0.014,0.489-0.014c8.876,0,16.068,7.196,16.068,16.071
				c0,8.874-7.192,16.069-16.068,16.069c-0.164,0-0.327-0.007-0.489-0.011V106.061z"/>
			<path fill="#F08660" d="M209.122,113.83c0.085-0.002,0.168-0.007,0.251-0.007c4.582,0,8.295,3.713,8.295,8.295
				c0,4.581-3.713,8.292-8.295,8.292c-0.083,0-0.166-0.004-0.251-0.006V113.83z"/>
		</g>
		<path fill="#F6B9A3" d="M171.536,129.453c0,1.229-0.998,2.225-2.226,2.225h-13.617c-1.228,0-2.225-0.996-2.225-2.225l0,0
			c0-1.229,0.997-2.225,2.225-2.225h13.617C170.538,127.229,171.536,128.225,171.536,129.453L171.536,129.453z"/>
		<path fill="#393A39" d="M161.387,36.869c0,0-53.335,0.316-53.335,42.342v27.616l6.532-0.767c0,0,5.792-12.314,5.792-26.85
			c0,0,0.315-10.428,8.848-10.428c8.53,0,21.485,0,21.485,0s10.678,0.633,10.678-7.898V36.869z"/>
		<path fill="#393A39" d="M160.368,36.869c0,0,53.333,0.316,53.333,42.342v27.616l-6.532-0.767c0,0-5.791-12.314-5.791-26.85
			c0,0-0.315-10.428-8.847-10.428c-8.532,0-21.487,0-21.487,0s-10.676,0.633-10.676-7.898V36.869z"/>
		<path fill="#393A39" d="M142.438,96.425c0.365,1.457-0.52,2.935-1.977,3.298l-10.884,2.725c-1.456,0.365-2.934-0.521-3.298-1.978
			l0,0c-0.365-1.457,0.521-2.934,1.979-3.298l10.882-2.725C140.598,94.082,142.074,94.968,142.438,96.425L142.438,96.425z"/>
		<path fill="#393A39" d="M181.367,96.425c-0.364,1.457,0.522,2.935,1.978,3.298l10.885,2.725c1.457,0.365,2.933-0.521,3.297-1.978
			l0,0c0.365-1.457-0.52-2.934-1.977-3.298l-10.883-2.725C183.208,94.082,181.732,94.968,181.367,96.425L181.367,96.425z"/>
		<path fill="#EE7549" d="M143.085,121.499c-0.232,0-0.469-0.056-0.688-0.174c-7.38-3.975-12.328-1.698-12.535-1.6
			c-0.721,0.344-1.59,0.045-1.939-0.674c-0.35-0.719-0.059-1.582,0.657-1.937c0.258-0.13,6.419-3.076,15.195,1.649
			c0.707,0.381,0.972,1.263,0.591,1.97C144.104,121.223,143.603,121.499,143.085,121.499z"/>
		<path fill="#EE7549" d="M181.909,121.499c-0.518,0-1.019-0.276-1.282-0.765c-0.381-0.707-0.116-1.589,0.591-1.97
			c8.776-4.727,14.936-1.777,15.194-1.649c0.72,0.356,1.014,1.229,0.658,1.948c-0.356,0.718-1.224,1.011-1.941,0.661
			c-0.226-0.106-5.167-2.363-12.532,1.601C182.378,121.443,182.142,121.499,181.909,121.499z"/>
	</g>
	<path fill="#EE7549" d="M131.287,125.053c-0.571,0-1.114-0.34-1.345-0.9c-0.306-0.743,0.048-1.593,0.791-1.899
		c0.906-0.372,8.965-3.537,12.817,0.316c0.568,0.568,0.568,1.489,0,2.057c-0.568,0.568-1.489,0.568-2.057,0
		c-2.116-2.116-7.821-0.439-9.652,0.316C131.659,125.017,131.471,125.053,131.287,125.053z"/>
	<path fill="#EE7549" d="M183.146,125.052c-0.372,0-0.744-0.142-1.028-0.426c-0.568-0.567-0.568-1.488,0-2.057
		c3.854-3.854,11.911-0.69,12.817-0.316c0.742,0.306,1.095,1.155,0.79,1.897s-1.156,1.096-1.897,0.792
		c-1.834-0.752-7.543-2.425-9.653-0.316C183.891,124.91,183.519,125.052,183.146,125.052z"/>
	<path fill="#393A39" d="M120.359,80.599c0,0,34.35,9.196,77.25-10.104c0,0-1.086-13.617-31.233-13.617
		S120.359,64.781,120.359,80.599z"/>
	<ellipse fill="#991E25" cx="162.051" cy="148.803" rx="4.324" ry="5.189"/>
	<path fill="#EF8863" d="M143.085,164.141c-0.288,0-0.578-0.082-0.835-0.255c-0.688-0.462-0.871-1.394-0.409-2.082
		c9.743-14.501,0.613-23.396,0.219-23.768c-0.601-0.567-0.631-1.516-0.066-2.118c0.564-0.603,1.509-0.636,2.114-0.075
		c0.116,0.107,11.434,10.949,0.224,27.635C144.042,163.908,143.568,164.141,143.085,164.141z"/>
	<path fill="#EF8863" d="M179.517,164.141c-0.483,0-0.957-0.232-1.247-0.663c-11.21-16.686,0.108-27.527,0.224-27.635
		c0.606-0.563,1.556-0.528,2.12,0.077c0.563,0.605,0.53,1.552-0.072,2.116c-0.395,0.372-9.523,9.267,0.219,23.768
		c0.462,0.688,0.279,1.62-0.409,2.082C180.095,164.059,179.804,164.141,179.517,164.141z"/>
	<path fill="#FFFFFF" d="M137.253,143.854c0,0-7.525-7-21.459-3.065c-13.934,3.934-21.87-0.87-27.042-6.042
		c-5.171-5.171-17.51-6.973-26.217,1.735c0,0-4.587,23.313,0,37.078c0,0,18.024-15.402,28.183-5.243
		c10.16,10.159,23.047-0.122,29.393-9.282s16.567-7,23.567,0C143.678,159.035,146.394,147.784,137.253,143.854z"/>
	<path fill="#F6B8A2" d="M139.964,155.228h-2.51c-1.03-1.6-2.822-2.662-4.866-2.662c-1.243,0-2.392,0.396-3.335,1.062
		c-0.916-1.989-2.921-3.372-5.254-3.372c-3.197,0-5.788,2.591-5.788,5.788v2.506c-3.196,0-5.788,2.591-5.788,5.788v10.509
		c0,3.196,2.591,5.787,5.788,5.787c0.527,0,1.035-0.076,1.52-0.209c1.283,1.614,3.258,2.652,5.48,2.652h14.753c3.866,0,7-3.134,7-7
		v-13.85C146.964,158.362,143.831,155.228,139.964,155.228z"/>
	<path fill="#AC1E25" d="M118.212,180.634c0,0,13.625,84.42,74.461,93.893c0,0,16.449-6.924,29.763-14.852
		c0,0-70.58-25.745-76.197-80.911C146.239,178.764,123.968,167.573,118.212,180.634z"/>
	<path fill="#971E25" d="M126.198,212.52c0,0,19.535,50.206,68.182,61.271c0,0-11.5,4.371-15.327,4.585
		C179.053,278.376,138.427,264.629,126.198,212.52z"/>
	<circle fill="#7CCAEC" cx="75.114" cy="115.048" r="3.361"/>
	<circle fill="#7CCAEC" cx="78.474" cy="175.794" r="1.493"/>
	<circle fill="#7CCAEC" cx="43.005" cy="145.106" r="1.493"/>
	<circle fill="#7CCAEC" cx="85.061" cy="127.229" r="1.493"/>
	<circle fill="#7CCAEC" cx="56.236" cy="120.045" r="1.493"/>
	<path fill="#7CCAEC" d="M98.028,192.882c-0.462,0-0.917-0.213-1.211-0.614c-0.489-0.669-0.344-1.607,0.325-2.097l10.025-7.336
		c0.668-0.488,1.607-0.344,2.096,0.325s0.344,1.607-0.325,2.097l-10.025,7.336C98.646,192.788,98.335,192.882,98.028,192.882z"/>
	<path fill="#7CCAEC" d="M91.708,108.327c-0.236,0-0.476-0.056-0.699-0.174l-8.142-4.298c-0.732-0.387-1.013-1.294-0.626-2.026
		c0.386-0.732,1.295-1.015,2.027-0.626l8.142,4.298c0.732,0.387,1.013,1.294,0.626,2.026
		C92.768,108.037,92.247,108.327,91.708,108.327z"/>
	<path fill="#7CCAEC" d="M81.06,185.938c-0.614,0-1.189-0.379-1.411-0.989c-0.282-0.779,0.121-1.64,0.9-1.921l10.65-3.854
		c0.778-0.284,1.638,0.121,1.921,0.899c0.282,0.779-0.121,1.64-0.9,1.921l-10.65,3.854C81.401,185.909,81.229,185.938,81.06,185.938
		z"/>
</g>
</svg>
