<?xml version="1.0" encoding="utf-8"?>
<!-- Generator: Adobe Illustrator 16.0.0, SVG Export Plug-In . SVG Version: 6.00 Build 0)  -->
<!DOCTYPE svg PUBLIC "-//W3C//DTD SVG 1.1 Tiny//EN" "http://www.w3.org/Graphics/SVG/1.1/DTD/svg11-tiny.dtd">
<svg version="1.1" baseProfile="tiny" id="Layer_1" xmlns="http://www.w3.org/2000/svg" xmlns:xlink="http://www.w3.org/1999/xlink"
	 x="0px" y="0px" width="300px" height="300px" viewBox="0 0 300 300" xml:space="preserve">
<g>
	<circle fill="#D52029" cx="150" cy="150" r="131.6"/>
	<g>
		<path fill="#FFFFFF" d="M87.914,242.141c-0.223,0-0.446-0.085-0.616-0.255c-17.19-17.19-11.651-41.969-3.734-54.43
			c7.686-12.096,0.186-29.586,0.109-29.761c-0.193-0.441,0.008-0.955,0.449-1.147c0.441-0.192,0.955,0.007,1.148,0.448
			c0.328,0.749,7.953,18.509-0.235,31.396c-7.616,11.986-12.969,35.796,3.496,52.262c0.34,0.341,0.34,0.893,0,1.232
			C88.359,242.056,88.137,242.141,87.914,242.141z"/>
		<path fill="#F8E232" d="M119.466,101.06c0-19.423-15.745-35.169-35.168-35.169S49.13,81.637,49.13,101.06
			c0,35.794,24.595,51.601,32.88,54.694c-1.124,1.455-2.465,3.525-3.843,6.191h13.716c-1.621-3.052-3.229-5.232-4.526-6.648
			C96.454,150.771,119.466,131.594,119.466,101.06z"/>
		<path fill="#FFFFFF" d="M90.201,80.412c-0.283,0-0.571-0.055-0.848-0.173c-3.358-1.421-6.93-2.142-10.614-2.142
			c-1.203,0-2.179-0.976-2.179-2.179s0.976-2.179,2.179-2.179c4.271,0,8.414,0.837,12.312,2.487
			c1.108,0.469,1.626,1.747,1.157,2.854C91.857,79.913,91.05,80.412,90.201,80.412z"/>
		<path fill="#FFFFFF" d="M107.941,112.521c-0.072,0-0.146-0.004-0.219-0.011c-1.197-0.12-2.071-1.188-1.951-2.385
			c0.156-1.564,0.235-3.166,0.235-4.76c0-7.85-3.387-15.323-9.292-20.505c-0.904-0.794-0.994-2.17-0.201-3.074
			c0.794-0.905,2.17-0.994,3.075-0.201c6.848,6.009,10.776,14.677,10.776,23.78c0,1.738-0.087,3.485-0.258,5.193
			C109.994,111.683,109.047,112.521,107.941,112.521z"/>
	</g>
	<g>
		<path fill="#FFFFFF" d="M215.407,247.653c-0.133,0-0.268-0.031-0.395-0.096c-0.429-0.219-0.6-0.743-0.381-1.172
			c6.107-11.983,2.003-22.11-1.618-31.046c-3.035-7.491-5.657-13.961-1.837-19.974c7.726-12.159-2.391-45.691-2.493-46.028
			c-0.141-0.46,0.118-0.947,0.578-1.088c0.463-0.144,0.948,0.119,1.088,0.578c0.431,1.408,10.452,34.64,2.298,47.474
			c-3.339,5.255-0.873,11.339,1.981,18.384c3.762,9.28,8.023,19.8,1.556,32.491C216.03,247.479,215.725,247.653,215.407,247.653z"/>
		<path fill="#38A5DC" d="M244.513,92.797c0-19.423-15.745-35.169-35.168-35.169s-35.168,15.746-35.168,35.169
			c0,35.794,24.595,51.601,32.88,54.694c-1.123,1.455-2.465,3.525-3.843,6.191h13.716c-1.621-3.052-3.229-5.232-4.525-6.648
			C221.5,142.509,244.513,123.331,244.513,92.797z"/>
		<path fill="#FFFFFF" d="M215.247,72.149c-0.283,0-0.571-0.055-0.848-0.173c-3.359-1.421-6.93-2.142-10.614-2.142
			c-1.203,0-2.179-0.976-2.179-2.179s0.976-2.179,2.179-2.179c4.271,0,8.413,0.837,12.312,2.487
			c1.108,0.469,1.627,1.747,1.157,2.854C216.902,71.65,216.096,72.149,215.247,72.149z"/>
		<path fill="#FFFFFF" d="M232.988,104.259c-0.072,0-0.146-0.004-0.219-0.011c-1.197-0.119-2.071-1.187-1.952-2.384
			c0.157-1.573,0.236-3.175,0.236-4.761c0-7.85-3.387-15.323-9.293-20.505c-0.904-0.794-0.994-2.17-0.201-3.074
			c0.793-0.905,2.171-0.994,3.074-0.201c6.849,6.009,10.777,14.676,10.777,23.78c0,1.729-0.087,3.477-0.258,5.192
			C235.041,103.42,234.094,104.259,232.988,104.259z"/>
	</g>
	<path fill="#00D9E1" d="M224.162,258.061c0,0-12.271-23.465-70.353-25.521v-0.146c-1.404,0-2.776,0.017-4.134,0.038
		c-1.357-0.021-2.729-0.038-4.134-0.038v0.146c-58.082,2.057-70.353,25.521-70.353,25.521C102,279,138.603,281.678,149.676,281.6
		C160.748,281.678,196.728,279.25,224.162,258.061z"/>
	<path fill="#38A5DC" d="M178.026,234.315c-6.619,0-11.386,1.98-11.808,8.492c-0.196-0.01-3.57,0.597-3.768,0.597
		c-4.703,0-4.295-2.779-6.425,1.059c-1.973-4.297-7.292-2.403-12.332-2.403c-0.94,0-1.258-0.714-2.139-0.517
		c-0.284-6.643-7.297-8.075-14.011-8.075c-6.896,0-12.485,5.59-12.485,12.485s5.589,12.484,12.485,12.484
		c0.94,0,1.852-0.112,2.732-0.31c0.284,6.645,5.744,11.948,12.458,11.948c4.702,0,8.793-2.603,10.923-6.443
		c1.972,4.3,6.303,7.29,11.342,7.29c6.619,0,12.021-5.155,12.443-11.667c0.194,0.008,0.386,0.028,0.583,0.028
		c6.896,0,12.485-5.589,12.485-12.483S184.922,234.315,178.026,234.315z"/>
	<g>
		<path fill="#F4A88C" d="M175.327,233.461c0,8.699-7.05,15.748-15.747,15.748h-11.541c-8.697,0-15.747-7.049-15.747-15.748v-46.562
			c0-8.698,7.05-15.748,15.747-15.748h11.541c8.697,0,15.747,7.05,15.747,15.748V233.461z"/>
		<g>
			<path fill="#F29000" d="M108.946,132.79c0-0.101,0.07-0.149,0.146-0.163c-1.8-4.576-6.241-7.825-11.456-7.825
				c-4.298,0-8.078,2.204-10.284,5.536c-0.666-0.109-1.345-0.182-2.042-0.182c-6.808,0-12.326,5.521-12.326,12.326
				c0,1,0.132,1.97,0.357,2.902c-9.711,2.088-16.992,10.719-16.992,21.054c0,8.972,5.486,16.661,13.286,19.9
				c-0.072,0.536-0.122,1.083-0.122,1.641c0,6.808,5.518,12.327,12.326,12.327c0.606,0,1.197-0.059,1.78-0.145
				c1.083,5.703,6.085,10.017,12.102,10.017c5.102,0,9.479-3.101,11.353-7.517c0.629-0.014,1.251-0.045,1.872-0.09V132.79z"/>
			<g>
				<path fill="#F27800" d="M95.721,200.498c-6.017,0-11.02-4.313-12.102-10.016c-0.583,0.086-1.173,0.145-1.78,0.145
					c-6.808,0-12.326-5.521-12.326-12.327c0-0.558,0.05-1.104,0.122-1.642c-6.338-2.632-11.149-8.205-12.729-15.016
					c-0.352,1.545-0.557,3.145-0.557,4.796c0,8.972,5.486,16.661,13.286,19.9c-0.072,0.536-0.122,1.083-0.122,1.641
					c0,6.808,5.518,12.327,12.326,12.327c0.606,0,1.197-0.059,1.78-0.145c1.083,5.703,6.085,10.017,12.102,10.017
					c5.102,0,9.479-3.101,11.353-7.517c0.629-0.014,1.251-0.045,1.872-0.09v-9.681c-0.621,0.045-1.243,0.076-1.872,0.09
					C105.2,197.398,100.822,200.498,95.721,200.498z"/>
				<path fill="#F27800" d="M108.946,132.79c0-0.101,0.07-0.149,0.146-0.163c-0.045-0.114-0.098-0.223-0.146-0.335V132.79z"/>
			</g>
			<g>
				<path fill="#F4A88C" d="M104.445,154.906c-0.074-0.001-0.146-0.006-0.22-0.006c-8.775,0-15.887,7.113-15.887,15.887
					c0,8.774,7.112,15.888,15.887,15.888c0.074,0,0.146-0.005,0.22-0.006V154.906z"/>
				<path fill="#F08A65" d="M104.445,162.094c-0.04-0.002-0.079-0.004-0.118-0.004c-4.675,0-8.466,3.792-8.466,8.467
					c0,4.676,3.791,8.467,8.466,8.467c0.039,0,0.078-0.003,0.118-0.004V162.094z"/>
			</g>
		</g>
		<g>
			<path fill="#F29000" d="M197.863,132.79c0-0.101-0.07-0.149-0.146-0.163c1.799-4.576,6.24-7.825,11.455-7.825
				c4.298,0,8.078,2.204,10.283,5.536c0.666-0.109,1.346-0.182,2.043-0.182c6.808,0,12.326,5.521,12.326,12.326
				c0,1-0.133,1.97-0.357,2.902c9.711,2.088,16.992,10.719,16.992,21.054c0,8.972-5.486,16.661-13.286,19.9
				c0.072,0.536,0.122,1.083,0.122,1.641c0,6.808-5.518,12.327-12.325,12.327c-0.606,0-1.198-0.059-1.78-0.145
				c-1.082,5.703-6.085,10.017-12.102,10.017c-5.102,0-9.48-3.101-11.354-7.517c-0.629-0.014-1.252-0.045-1.871-0.09V132.79z"/>
			<g>
				<path fill="#F27800" d="M211.088,200.498c6.017,0,11.02-4.313,12.102-10.016c0.582,0.086,1.174,0.145,1.78,0.145
					c6.808,0,12.325-5.521,12.325-12.327c0-0.558-0.05-1.104-0.122-1.642c6.339-2.632,11.149-8.205,12.729-15.016
					c0.352,1.545,0.557,3.145,0.557,4.796c0,8.972-5.486,16.661-13.286,19.9c0.072,0.536,0.122,1.083,0.122,1.641
					c0,6.808-5.518,12.327-12.325,12.327c-0.606,0-1.198-0.059-1.78-0.145c-1.082,5.703-6.085,10.017-12.102,10.017
					c-5.102,0-9.48-3.101-11.354-7.517c-0.629-0.014-1.252-0.045-1.871-0.09v-9.681c0.619,0.045,1.242,0.076,1.871,0.09
					C201.607,197.398,205.986,200.498,211.088,200.498z"/>
				<path fill="#F27800" d="M197.863,132.79c0-0.101-0.07-0.149-0.146-0.163c0.045-0.114,0.098-0.223,0.146-0.335V132.79z"/>
			</g>
			<g>
				<path fill="#F4A88C" d="M204.173,154.906c0.074-0.001,0.146-0.006,0.221-0.006c8.774,0,15.887,7.113,15.887,15.887
					c0,8.774-7.112,15.888-15.887,15.888c-0.074,0-0.146-0.005-0.221-0.006V154.906z"/>
				<path fill="#F08A65" d="M204.173,162.094c0.04-0.002,0.079-0.004,0.118-0.004c4.676,0,8.465,3.792,8.465,8.467
					c0,4.676-3.789,8.467-8.465,8.467c-0.039,0-0.078-0.003-0.118-0.004V162.094z"/>
			</g>
		</g>
		<path fill="#FFFFFF" d="M204.173,180.001c0,27.82-22.549,50.366-50.361,50.366l0,0c-27.816,0-50.365-22.546-50.365-50.366v-33.046
			c0-27.812,22.549-50.364,50.365-50.364l0,0c27.812,0,50.361,22.553,50.361,50.364V180.001z"/>
		<path fill="#1F85B3" d="M150.879,166.322c-0.317,0-0.618-0.033-0.913-0.081l-0.144-0.014c-5.032-0.929-6.442-8.358-6.442-8.358
			l-0.003,0.008v-2.991c0-6.437-5.218-11.655-11.655-11.655c-6.436,0-11.654,5.219-11.654,11.655v3.264
			c-0.312,1.344-1.924,7.255-6.381,8.078l-0.145,0.014c-0.294,0.048-0.595,0.081-0.913,0.081h0.022l-0.022,0.003
			c5.273,0,7.108,6.75,7.438,8.175v3.26c0,6.439,5.219,11.656,11.654,11.656c6.437,0,11.655-5.217,11.655-11.656v-2.99l0.003,0.008
			c0,0,1.605-8.452,7.499-8.452l-0.022-0.003H150.879z"/>
		<path fill="#1F85B3" d="M196.728,166.322c-0.317,0-0.618-0.033-0.913-0.081l-0.145-0.014c-5.031-0.929-6.441-8.358-6.441-8.358
			l-0.004,0.008v-2.991c0-6.437-5.218-11.655-11.655-11.655c-6.436,0-11.654,5.219-11.654,11.655v3.264
			c-0.312,1.344-1.925,7.255-6.382,8.078l-0.145,0.014c-0.293,0.048-0.594,0.081-0.912,0.081h0.022l-0.022,0.003
			c5.273,0,7.108,6.75,7.438,8.175v3.26c0,6.439,5.219,11.656,11.654,11.656c6.438,0,11.655-5.217,11.655-11.656v-2.99l0.004,0.008
			c0,0,1.605-8.452,7.499-8.452l-0.022-0.003H196.728z"/>
		<g>
			<circle fill="#20275B" cx="131.754" cy="167.491" r="5.492"/>
			<path fill="#565C83" d="M135.636,168.06c-0.314,0-0.568-0.255-0.568-0.568c0-1.828-1.486-3.314-3.313-3.314
				c-0.336,0-0.666,0.049-0.98,0.146c-0.299,0.091-0.618-0.074-0.71-0.375c-0.093-0.3,0.075-0.618,0.375-0.711
				c0.423-0.131,0.866-0.197,1.316-0.197c2.454,0,4.45,1.997,4.45,4.451C136.205,167.805,135.95,168.06,135.636,168.06z"/>
		</g>
		<g>
			<circle fill="#20275B" cx="178.46" cy="167.491" r="5.492"/>
			<path fill="#565C83" d="M182.343,168.06c-0.313,0-0.568-0.255-0.568-0.568c0-1.828-1.486-3.314-3.313-3.314
				c-0.336,0-0.666,0.049-0.98,0.146c-0.298,0.091-0.618-0.075-0.711-0.375s0.075-0.618,0.375-0.711
				c0.424-0.131,0.866-0.197,1.316-0.197c2.454,0,4.45,1.997,4.45,4.451C182.911,167.805,182.656,168.06,182.343,168.06z"/>
		</g>
		<circle fill="#D52029" cx="154.762" cy="176.814" r="13.206"/>
		<path fill="#DE545B" d="M160.39,184.94c-0.505,0-1.007-0.206-1.37-0.611c-0.677-0.756-0.613-1.918,0.143-2.596
			c1.203-1.077,1.968-2.546,2.155-4.136c0.118-1.007,1.022-1.733,2.04-1.61c1.008,0.118,1.729,1.031,1.61,2.04
			c-0.291,2.479-1.482,4.769-3.353,6.444C161.265,184.786,160.826,184.94,160.39,184.94z"/>
		<path fill="#DE545B" d="M161.832,174.04c-0.6,0-1.188-0.293-1.54-0.832c-1.226-1.874-3.293-2.993-5.53-2.993
			c-1.265,0-2.492,0.357-3.549,1.033c-0.856,0.545-1.992,0.296-2.539-0.559c-0.547-0.855-0.297-1.992,0.558-2.539
			c1.649-1.054,3.562-1.611,5.529-1.611c3.481,0,6.699,1.741,8.606,4.657c0.556,0.85,0.317,1.988-0.532,2.544
			C162.525,173.943,162.177,174.04,161.832,174.04z"/>
		<path fill="#D52029" d="M154.534,214.949c-17.499,0-29.721-8.055-30.478-8.565c-4.161-2.811-5.255-8.461-2.445-12.621
			c2.799-4.145,8.417-5.247,12.573-2.477c0.891,0.579,19.25,12.182,41.132-0.327c4.357-2.492,9.911-0.978,12.402,3.381
			s0.978,9.911-3.381,12.402C173.591,212.886,163.386,214.949,154.534,214.949z"/>
		<path fill="#FFFFFF" d="M154.425,208.721c-15.478,0-26.204-7.065-26.871-7.516c-1.3-0.879-1.642-2.645-0.764-3.944
			c0.877-1.299,2.642-1.64,3.94-0.767c0.913,0.61,22.19,14.464,47.688-0.109c1.365-0.781,3.098-0.305,3.876,1.056
			c0.779,1.362,0.306,3.098-1.056,3.876C171.53,206.865,162.354,208.721,154.425,208.721z"/>
		<path fill="#20275B" d="M140.662,139.342c-0.131,1.148-1.169,1.975-2.318,1.844l-15.948-1.816
			c-1.149-0.131-1.975-1.17-1.844-2.318l0,0c0.132-1.149,1.169-1.976,2.318-1.844l15.948,1.815
			C139.967,137.154,140.793,138.191,140.662,139.342L140.662,139.342z"/>
		<path fill="#20275B" d="M168.405,139.342c0.131,1.148,1.169,1.975,2.318,1.844l15.947-1.816c1.149-0.131,1.976-1.17,1.845-2.318
			l0,0c-0.131-1.149-1.17-1.976-2.318-1.844l-15.947,1.815C169.1,137.154,168.274,138.191,168.405,139.342L168.405,139.342z"/>
		<path fill="#E7E8E8" d="M153.811,122.668c12.523,0,22.856,3.623,24.416,8.311c0.135-0.404,0.211-0.812,0.211-1.23
			c0-5.27-11.025-9.543-24.627-9.543c-13.602,0-24.628,4.273-24.628,9.543c0,0.418,0.077,0.826,0.211,1.23
			C130.953,126.291,141.285,122.668,153.811,122.668z"/>
		<path fill="#E7E8E8" d="M153.811,115.682c9.982,0,18.22,2.89,19.463,6.626c0.107-0.321,0.168-0.648,0.168-0.981
			c0-4.201-8.789-7.605-19.631-7.605c-10.843,0-19.633,3.404-19.633,7.605c0,0.333,0.062,0.66,0.169,0.981
			C135.589,118.571,143.827,115.682,153.811,115.682z"/>
	</g>
</g>
</svg>
