<?xml version="1.0" encoding="utf-8"?>
<!-- Generator: Adobe Illustrator 16.0.0, SVG Export Plug-In . SVG Version: 6.00 Build 0)  -->
<!DOCTYPE svg PUBLIC "-//W3C//DTD SVG 1.1 Tiny//EN" "http://www.w3.org/Graphics/SVG/1.1/DTD/svg11-tiny.dtd">
<svg version="1.1" baseProfile="tiny" id="Layer_1" xmlns="http://www.w3.org/2000/svg" xmlns:xlink="http://www.w3.org/1999/xlink"
	 x="0px" y="0px" width="300px" height="300px" viewBox="0 0 300 300" xml:space="preserve">
<g>
	<circle fill="#FFD202" cx="150" cy="150" r="131.6"/>
	<path fill="#E30B14" d="M259.771,194.959c3.795-3.795-18.713-25.192-18.713-25.192s16.524,5.382,16.524,0
		s-8.757-18.757-24.08-23.562c0,0,16.966-2.069,16.966-9.73s-18.606-27.713-43.233-27.713c0,0,21.89,0.379,21.89-5.655
		c0-5.095-21.17-30.824-55.38-32.966c6.116-7.705,10.286-16.846,1.202-21.561c-16.404-8.515-23.966,12.219-24.857,14.877
		c0.569-1.798,3.46-11.807-2.624-11.807c-6.685,0-6.997,12.793-6.997,12.793s-19.154-13.888-22.438-5.679s8.202,11.358,8.202,11.358
		l0,0c-34.414,1.987-55.73,27.872-55.73,32.983c0,6.034,21.89,5.655,21.89,5.655c-24.627,0-43.233,20.052-43.233,27.713
		s16.966,9.73,16.966,9.73c-15.323,4.805-24.08,18.18-24.08,23.562s16.524,0,16.524,0s-22.508,21.397-18.713,25.192
		s14.229,0,14.229,0s-12.988,19.08-9.851,22.217s10.397,0,10.397,0l-8.15,14.55c0,0,35.289,48.793,100.984,49.849h4.695
		c65.695-1.056,100.984-49.849,100.984-49.849l-8.15-14.55c0,0,7.26,3.137,10.397,0s-9.851-22.217-9.851-22.217
		S255.977,198.754,259.771,194.959z"/>
	<path fill="#393A39" d="M196.947,173.092c0,25.648-9.499,63.746-43.663,63.746c-32.398,0-43.663-38.098-43.663-63.746
		s19.549-27.693,43.663-27.693S196.947,147.443,196.947,173.092z"/>
	<path fill="#FFFFFF" d="M119.782,156.358c0,0,5.842-5.08,13.97-5.08c0,0-0.418,10.472,1.778,13.97
		c6.858,10.922,2.445,12.192-8.382,3.556C119.567,162.756,119.782,156.358,119.782,156.358z"/>
	<path fill="#FFFFFF" d="M188.314,156.358c0,0-5.842-5.08-13.97-5.08c0,0,0.419,10.472-1.778,13.97
		c-6.857,10.922-2.444,12.192,8.383,3.556C188.529,162.756,188.314,156.358,188.314,156.358z"/>
	<path fill="#FFFFFF" d="M153.097,153.374c-0.352,3.713-2.484,6.548-3.646,6.438c-1.697-0.16-2.421-3.266-2.069-6.979
		s0.583-2.808,3.395-2.541C153.587,150.558,153.448,149.662,153.097,153.374z"/>
	<path fill="#FFFFFF" d="M158.396,153.374c0.352,3.713,2.486,6.548,3.646,6.438c1.697-0.16,2.422-3.266,2.07-6.979
		s-0.584-2.808-3.395-2.541C157.905,150.558,158.044,149.662,158.396,153.374z"/>
	<path fill="#FFFFFF" d="M165.069,232.966c-1.074-3.479-3.079-5.839-4.356-5.757c-2.046,0.133-3.218,3.205-3.374,7.318
		C159.968,234.222,162.542,233.689,165.069,232.966z"/>
	<path fill="#FFFFFF" d="M141.083,232.966c1.074-3.479,3.079-5.839,4.356-5.757c2.046,0.133,3.218,3.205,3.374,7.318
		C146.185,234.222,143.611,233.689,141.083,232.966z"/>
	<g>
		<path fill="#A40009" d="M120.971,130.998c0,0-0.074-0.044-0.213-0.125c-0.036-0.038-0.275-0.147-0.559-0.285
			c-0.309-0.112-0.671-0.291-1.14-0.412c-0.453-0.161-0.996-0.257-1.59-0.385c-0.299-0.051-0.618-0.068-0.946-0.11
			c-0.329-0.054-0.673-0.062-1.029-0.054c-0.355,0.01-0.726-0.028-1.102,0.012c-0.379,0.041-0.766,0.083-1.16,0.125
			c-0.401,0.014-0.792,0.156-1.2,0.234c-0.402,0.107-0.83,0.146-1.232,0.31c-0.805,0.318-1.677,0.524-2.469,0.979l-1.223,0.604
			c-0.413,0.193-0.777,0.485-1.168,0.721c-0.772,0.491-1.546,0.968-2.216,1.563c-0.678,0.577-1.399,1.065-1.98,1.659
			c-0.593,0.586-1.154,1.139-1.672,1.649c-0.54,0.494-0.959,1.024-1.347,1.48c-0.388,0.458-0.726,0.857-1.005,1.187
			c-0.56,0.659-0.88,1.036-0.88,1.036l-0.083,0.099c-0.542,0.639-1.498,0.717-2.136,0.175c-0.585-0.496-0.699-1.342-0.297-1.971
			c0,0,0.282-0.442,0.775-1.215c0.248-0.388,0.549-0.858,0.895-1.398c0.348-0.54,0.721-1.163,1.23-1.78
			c0.49-0.633,1.021-1.318,1.582-2.043c0.553-0.736,1.282-1.405,1.965-2.159c0.67-0.769,1.487-1.453,2.321-2.156
			c0.424-0.343,0.813-0.734,1.279-1.044l1.397-0.947c0.907-0.678,1.977-1.133,2.978-1.671c0.5-0.273,1.058-0.429,1.58-0.643
			c0.535-0.186,1.045-0.427,1.593-0.539c0.543-0.134,1.076-0.267,1.598-0.396c0.525-0.124,1.059-0.163,1.571-0.241
			c1.026-0.173,2.023-0.135,2.94-0.155c0.919,0.053,1.768,0.102,2.519,0.242c0.752,0.097,1.411,0.285,1.956,0.415
			c0.552,0.168,0.971,0.292,1.366,0.46c0.292,0.12,0.448,0.184,0.448,0.184c1.895,0.778,2.8,2.945,2.022,4.84
			s-2.944,2.8-4.839,2.021c-0.152-0.062-0.298-0.134-0.437-0.213L120.971,130.998z"/>
		<path fill="#A40009" d="M119.534,128.952c0,0-0.012-0.023-0.034-0.068c-0.028-0.055-0.056-0.111-0.061-0.138
			c-0.013-0.041-0.028-0.092-0.047-0.151c-0.047-0.088-0.101-0.188-0.161-0.302c-0.109-0.233-0.307-0.508-0.505-0.836
			c-0.232-0.301-0.471-0.686-0.797-1.032c-0.303-0.386-0.677-0.733-1.081-1.122c-0.198-0.205-0.433-0.343-0.659-0.531
			c-0.23-0.181-0.466-0.379-0.73-0.512c-0.264-0.157-0.531-0.317-0.803-0.479c-0.292-0.122-0.586-0.244-0.884-0.368l-0.461-0.194
			l-0.485-0.114l-1.002-0.247c-0.686-0.035-1.404-0.161-2.123-0.117c-0.363,0.03-0.724,0.061-1.081,0.092
			c-0.362,0.027-0.728,0.045-1.07,0.152c-0.694,0.174-1.391,0.317-2.045,0.506c-0.64,0.249-1.244,0.485-1.802,0.703
			c-0.28,0.114-0.561,0.209-0.811,0.329c-0.245,0.131-0.477,0.255-0.695,0.371c-0.441,0.236-0.826,0.442-1.142,0.612
			c-0.641,0.345-1.006,0.542-1.006,0.542s0.284-0.301,0.781-0.827c0.252-0.266,0.559-0.589,0.91-0.959
			c0.178-0.187,0.368-0.386,0.567-0.595c0.208-0.201,0.449-0.383,0.691-0.591c0.498-0.41,1.036-0.855,1.605-1.326
			c0.611-0.422,1.297-0.825,2.008-1.27c0.347-0.24,0.743-0.402,1.146-0.575c0.407-0.174,0.819-0.351,1.234-0.528
			c0.845-0.336,1.782-0.508,2.716-0.743l1.449-0.139l0.734-0.06l0.73,0.036c0.487,0.029,0.979,0.054,1.464,0.102
			c0.476,0.095,0.947,0.188,1.41,0.28c0.476,0.08,0.911,0.231,1.344,0.377c0.428,0.153,0.876,0.272,1.265,0.458
			c0.793,0.352,1.552,0.703,2.197,1.104c0.676,0.368,1.23,0.79,1.75,1.144c0.493,0.391,0.93,0.715,1.273,1.039
			c0.173,0.158,0.329,0.299,0.463,0.422c0.152,0.16,0.282,0.296,0.388,0.406c0.167,0.174,0.256,0.267,0.256,0.267l0.016,0.017
			c1.635,1.704,1.578,4.41-0.126,6.045s-4.411,1.578-6.045-0.125C119.974,129.69,119.721,129.322,119.534,128.952z"/>
	</g>
	<g>
		<path fill="#A40009" d="M180,123.402c0,0,0.155-0.064,0.448-0.185c0.395-0.167,0.813-0.292,1.365-0.46
			c0.546-0.13,1.204-0.318,1.956-0.415c0.751-0.142,1.6-0.189,2.519-0.243c0.917,0.021,1.914-0.016,2.94,0.156
			c0.513,0.078,1.046,0.117,1.571,0.241c0.522,0.129,1.056,0.261,1.598,0.396c0.548,0.112,1.059,0.354,1.594,0.539
			c0.522,0.214,1.08,0.369,1.579,0.643c1.001,0.538,2.071,0.993,2.978,1.67l1.397,0.947c0.467,0.311,0.855,0.702,1.28,1.045
			c0.833,0.703,1.651,1.389,2.321,2.156c0.683,0.754,1.411,1.423,1.964,2.158c0.562,0.726,1.093,1.411,1.583,2.044
			c0.509,0.616,0.882,1.24,1.229,1.78c0.346,0.54,0.647,1.011,0.896,1.398c0.493,0.773,0.775,1.215,0.775,1.215
			c0.45,0.705,0.243,1.643-0.462,2.093c-0.647,0.413-1.489,0.273-1.972-0.296l-0.084-0.1c0,0-0.319-0.377-0.88-1.037
			c-0.278-0.328-0.616-0.728-1.005-1.186c-0.388-0.455-0.807-0.986-1.347-1.48c-0.519-0.511-1.079-1.063-1.673-1.648
			c-0.581-0.596-1.302-1.082-1.979-1.66c-0.67-0.596-1.444-1.072-2.216-1.563c-0.391-0.235-0.756-0.527-1.169-0.722l-1.223-0.603
			c-0.792-0.455-1.664-0.661-2.469-0.979c-0.403-0.163-0.831-0.201-1.233-0.311c-0.408-0.078-0.799-0.221-1.199-0.233
			c-0.395-0.042-0.781-0.084-1.16-0.125c-0.377-0.04-0.747-0.002-1.102-0.011c-0.356-0.01-0.7-0.001-1.029,0.053
			c-0.329,0.042-0.647,0.06-0.946,0.11c-0.595,0.128-1.137,0.224-1.591,0.385c-0.468,0.12-0.831,0.3-1.14,0.412
			c-0.283,0.138-0.523,0.247-0.559,0.285c-0.14,0.081-0.214,0.124-0.214,0.124l-0.072,0.043c-1.771,1.029-4.041,0.428-5.069-1.343
			c-1.029-1.771-0.429-4.041,1.343-5.07C179.687,123.544,179.852,123.464,180,123.402z"/>
		<path fill="#A40009" d="M177.884,123.068c0,0,0.089-0.093,0.256-0.267c0.104-0.11,0.234-0.246,0.388-0.406
			c0.135-0.123,0.289-0.265,0.463-0.423c0.343-0.323,0.78-0.647,1.272-1.038c0.521-0.354,1.074-0.775,1.751-1.144
			c0.645-0.4,1.403-0.752,2.197-1.104c0.389-0.186,0.837-0.305,1.265-0.458c0.434-0.146,0.868-0.297,1.345-0.378
			c0.463-0.092,0.933-0.185,1.409-0.279c0.485-0.047,0.978-0.072,1.465-0.102l0.729-0.036l0.735,0.06l1.448,0.139
			c0.935,0.234,1.871,0.406,2.716,0.743c0.415,0.178,0.827,0.354,1.233,0.528c0.402,0.174,0.799,0.335,1.146,0.575
			c0.711,0.444,1.396,0.848,2.008,1.269c0.57,0.471,1.108,0.916,1.605,1.327c0.242,0.208,0.483,0.39,0.691,0.591
			c0.2,0.209,0.39,0.408,0.567,0.595c0.352,0.37,0.658,0.693,0.91,0.959c0.497,0.526,0.781,0.827,0.781,0.827
			s-0.366-0.197-1.007-0.542c-0.316-0.17-0.7-0.376-1.142-0.612c-0.218-0.116-0.45-0.24-0.695-0.371
			c-0.25-0.12-0.53-0.215-0.811-0.329c-0.559-0.218-1.163-0.454-1.802-0.703c-0.654-0.188-1.352-0.333-2.046-0.507
			c-0.343-0.105-0.709-0.124-1.07-0.152c-0.356-0.029-0.717-0.061-1.08-0.092c-0.719-0.043-1.438,0.083-2.123,0.118l-1.003,0.247
			l-0.484,0.113l-0.461,0.195c-0.298,0.123-0.593,0.246-0.885,0.367c-0.271,0.162-0.539,0.322-0.802,0.479
			c-0.265,0.134-0.5,0.332-0.73,0.513c-0.227,0.188-0.461,0.326-0.658,0.532c-0.404,0.389-0.778,0.735-1.082,1.121
			c-0.325,0.347-0.563,0.731-0.797,1.032c-0.197,0.328-0.396,0.603-0.505,0.835c-0.061,0.113-0.114,0.215-0.16,0.303
			c-0.019,0.06-0.034,0.11-0.048,0.151c-0.005,0.026-0.032,0.083-0.061,0.138c-0.022,0.045-0.034,0.068-0.034,0.068
			c-1.053,2.113-3.619,2.974-5.733,1.921c-2.113-1.054-2.974-3.62-1.921-5.733c0.195-0.392,0.441-0.739,0.728-1.041L177.884,123.068
			z"/>
	</g>
	<path fill="#C30B14" d="M129.297,240.121c0,0,23.022,11.022,49.503,0C178.8,240.121,155.906,266.73,129.297,240.121z"/>
	<path fill="#1E1F1E" d="M134.833,185.3c0,0,4.534-7.222,10.916-0.84c3.275,3.275,2.709,3.833,1.545,11.588
		c-1.209,8.062,3.779,8.733,5.987,8.733s3.384-4.535,2.208-8.901s-3.023-11.924,4.03-11.924s10.412,3.527,11.756,8.062
		s0.172,27.206-19.649,27.206c-16.458,0-17.969-19.313-17.969-25.023S134.833,185.3,134.833,185.3z"/>
	<g>
		<path fill="#FFFFFF" d="M224.238,197.123h-14.564c-1.171,0-2.12-0.95-2.12-2.12c0-1.171,0.949-2.121,2.12-2.121h14.564
			c1.172,0,2.121,0.95,2.121,2.121C226.359,196.173,225.41,197.123,224.238,197.123z"/>
		<path fill="#FFFFFF" d="M219.973,222.229c-0.542,0-1.085-0.207-1.499-0.621l-10.299-10.3c-0.828-0.828-0.828-2.17,0-2.998
			s2.169-0.828,2.998,0l10.299,10.3c0.828,0.828,0.828,2.17,0,2.998C221.058,222.021,220.515,222.229,219.973,222.229z"/>
		<path fill="#FFFFFF" d="M209.674,182.229c-0.542,0-1.085-0.206-1.499-0.62c-0.828-0.828-0.828-2.171,0-2.998l10.299-10.3
			c0.826-0.828,2.17-0.828,2.998-0.001s0.828,2.17,0,2.998l-10.299,10.301C210.759,182.023,210.216,182.229,209.674,182.229z"/>
	</g>
	<g>
		<path fill="#FFFFFF" d="M79.4,197.123h14.564c1.171,0,2.12-0.95,2.12-2.12c0-1.171-0.949-2.121-2.12-2.121H79.4
			c-1.172,0-2.121,0.95-2.121,2.121C77.279,196.173,78.228,197.123,79.4,197.123z"/>
		<path fill="#FFFFFF" d="M83.666,222.229c0.542,0,1.085-0.207,1.499-0.621l10.299-10.3c0.828-0.828,0.828-2.17,0-2.998
			s-2.169-0.828-2.998,0l-10.299,10.3c-0.828,0.828-0.828,2.17,0,2.998C82.581,222.021,83.124,222.229,83.666,222.229z"/>
		<path fill="#FFFFFF" d="M93.964,182.229c0.542,0,1.085-0.206,1.499-0.62c0.828-0.828,0.828-2.171,0-2.998l-10.299-10.3
			c-0.826-0.828-2.17-0.828-2.998-0.001s-0.828,2.17,0,2.998l10.299,10.301C92.879,182.023,93.422,182.229,93.964,182.229z"/>
	</g>
</g>
</svg>
