<?xml version="1.0" encoding="utf-8"?>
<!-- Generator: Adobe Illustrator 16.0.0, SVG Export Plug-In . SVG Version: 6.00 Build 0)  -->
<!DOCTYPE svg PUBLIC "-//W3C//DTD SVG 1.1 Tiny//EN" "http://www.w3.org/Graphics/SVG/1.1/DTD/svg11-tiny.dtd">
<svg version="1.1" baseProfile="tiny" id="Layer_1" xmlns="http://www.w3.org/2000/svg" xmlns:xlink="http://www.w3.org/1999/xlink"
	 x="0px" y="0px" width="300px" height="300px" viewBox="0 0 300 300" xml:space="preserve">
<g>
	<circle fill="#163A6C" cx="150" cy="150" r="131.6"/>
	<path fill="#2B4B79" d="M35.682,114.659h133.256c0,0-3.506-10.91-24.547-8.962c0,0,6.623-8.182,1.558-13.247
		s-13.247-3.507-13.247-3.507s5.066-19.481-18.312-25.716S82.827,83.1,88.282,94.788c0,0-10.909-3.508-12.857,7.013
		c0,0-13.639-6.234-19.482,7.793C55.942,109.594,45.229,105.113,35.682,114.659z"/>
	<path fill="#2B4B79" d="M163.482,140.375h117.77c0,0-3.198-29.393-14.896-51.906c0,0-23.777,0.475-27.284,26.19
		c0,0-7.597-4.87-14.416,1.948s-2.288,10.909-2.288,10.909s-16.219-6.429-26.935,4.286
		C195.433,131.803,176.73,127.127,163.482,140.375z"/>
	<path fill="#00BBE1" d="M84.401,135.877c0.938,3.157-0.558,6.389-3.342,7.217c-2.785,0.827-5.803-1.062-6.741-4.219
		c-1.19-4.003,2.095-11.41,2.095-11.41S83.212,131.874,84.401,135.877z"/>
	<path fill="#00BBE1" d="M159.503,171.526c1.569,5.277-0.933,10.681-5.587,12.064c-4.656,1.384-9.702-1.773-11.271-7.053
		c-1.99-6.692,3.502-19.076,3.502-19.076S157.514,164.833,159.503,171.526z"/>
	<path fill="#00BBE1" d="M99.207,197.766c0.938,3.157-0.558,6.389-3.342,7.217c-2.785,0.827-5.803-1.062-6.741-4.219
		c-1.19-4.003,2.095-11.41,2.095-11.41S98.018,193.763,99.207,197.766z"/>
	<path fill="#00BBE1" d="M193.889,238.678c0.938,3.157-0.558,6.389-3.342,7.217c-2.785,0.827-5.803-1.062-6.741-4.219
		c-1.19-4.003,2.095-11.41,2.095-11.41S192.699,234.675,193.889,238.678z"/>
	<path fill="#00BBE1" d="M241.424,174.235c0.938,3.157-0.558,6.389-3.342,7.217c-2.785,0.827-5.803-1.062-6.741-4.219
		c-1.19-4.003,2.095-11.41,2.095-11.41S240.234,170.232,241.424,174.235z"/>
	<path fill="#00BBE1" d="M188.577,75.657c0.938,3.157-0.558,6.389-3.342,7.217c-2.785,0.827-5.803-1.062-6.741-4.219
		c-1.19-4.003,2.095-11.41,2.095-11.41S187.388,71.654,188.577,75.657z"/>
	<path fill="#00BBE1" d="M121.17,64.748c0.938,3.157-0.558,6.389-3.342,7.217c-2.785,0.827-5.803-1.062-6.741-4.219
		c-1.19-4.003,2.095-11.41,2.095-11.41S119.98,60.745,121.17,64.748z"/>
	<path fill="#00BBE1" d="M196.567,174.235c0.938,3.157-0.558,6.389-3.342,7.217c-2.785,0.827-5.803-1.062-6.741-4.219
		c-1.19-4.003,2.095-11.41,2.095-11.41S195.378,170.232,196.567,174.235z"/>
	<path fill="#00BBE1" d="M225.461,213.827c0.577,1.941-0.343,3.929-2.055,4.438c-1.713,0.509-3.568-0.652-4.145-2.594
		c-0.732-2.461,1.287-7.017,1.287-7.017S224.73,211.366,225.461,213.827z"/>
	<path fill="#00BBE1" d="M244.798,127.772c0.577,1.941-0.343,3.929-2.055,4.438c-1.713,0.509-3.568-0.652-4.145-2.594
		c-0.732-2.461,1.287-7.017,1.287-7.017S244.067,125.312,244.798,127.772z"/>
	<path fill="#00BBE1" d="M110.655,166.132c0.577,1.941-0.343,3.929-2.055,4.438c-1.713,0.509-3.568-0.652-4.145-2.594
		c-0.732-2.461,1.287-7.017,1.287-7.017S109.925,163.671,110.655,166.132z"/>
	<path fill="#00BBE1" d="M54.361,166.132c0.577,1.941-0.343,3.929-2.055,4.438c-1.713,0.509-3.568-0.652-4.145-2.594
		c-0.732-2.461,1.287-7.017,1.287-7.017S53.631,163.671,54.361,166.132z"/>
	<path fill="#00BBE1" d="M85.729,241.532c0.577,1.941-0.343,3.929-2.055,4.438c-1.713,0.509-3.568-0.652-4.145-2.594
		c-0.732-2.461,1.287-7.017,1.287-7.017S84.999,239.071,85.729,241.532z"/>
	<path fill="#00BBE1" d="M146.364,230.573c0.577,1.941-0.343,3.929-2.055,4.438c-1.713,0.509-3.568-0.652-4.145-2.594
		c-0.732-2.461,1.287-7.017,1.287-7.017S145.634,228.112,146.364,230.573z"/>
	<path fill="#00BBE1" d="M156.359,88.241c0.577,1.941-0.343,3.929-2.055,4.438c-1.713,0.509-3.568-0.652-4.145-2.594
		c-0.732-2.461,1.287-7.017,1.287-7.017S155.629,85.78,156.359,88.241z"/>
	<path fill="#00BBE1" d="M188.479,111.339c0.42,1.414-0.25,2.862-1.497,3.233c-1.248,0.37-2.6-0.476-3.02-1.891
		c-0.534-1.793,0.938-5.111,0.938-5.111S187.947,109.546,188.479,111.339z"/>
	<path fill="#00BBE1" d="M128.331,132.554c0.42,1.414-0.25,2.862-1.497,3.233c-1.248,0.37-2.6-0.476-3.02-1.891
		c-0.534-1.793,0.938-5.111,0.938-5.111S127.799,130.761,128.331,132.554z"/>
	<path fill="#00BBE1" d="M267.82,161.183c0.42,1.414-0.25,2.862-1.497,3.233c-1.248,0.37-2.6-0.476-3.02-1.891
		c-0.534-1.793,0.938-5.111,0.938-5.111S267.288,159.39,267.82,161.183z"/>
	<path fill="#00BBE1" d="M43.213,127.688c0.42,1.414-0.25,2.862-1.497,3.233c-1.248,0.37-2.6-0.476-3.02-1.891
		c-0.534-1.793,0.938-5.111,0.938-5.111S42.681,125.896,43.213,127.688z"/>
	<path fill="#00BBE1" d="M117.187,93.106c0.577,1.941-0.343,3.929-2.055,4.438c-1.713,0.509-3.568-0.652-4.145-2.594
		c-0.732-2.461,1.287-7.017,1.287-7.017S116.456,90.646,117.187,93.106z"/>
	<path fill="#3E5B85" d="M140.005,145.551c-0.225,0-0.429-0.152-0.485-0.38l-4.349-17.586c-0.066-0.269,0.098-0.539,0.365-0.605
		c0.269-0.069,0.539,0.098,0.605,0.365l4.349,17.586c0.066,0.269-0.098,0.539-0.365,0.605
		C140.085,145.546,140.044,145.551,140.005,145.551z"/>
	<path fill="#3E5B85" d="M135.26,259.311c-0.225,0-0.429-0.152-0.485-0.38l-4.349-17.586c-0.066-0.269,0.098-0.539,0.365-0.605
		c0.268-0.067,0.538,0.098,0.605,0.365l4.349,17.586c0.066,0.269-0.098,0.539-0.365,0.605
		C135.34,259.306,135.299,259.311,135.26,259.311z"/>
	<path fill="#3E5B85" d="M183.546,209.154c-0.225,0-0.429-0.152-0.485-0.38l-4.349-17.586c-0.066-0.269,0.098-0.539,0.365-0.605
		c0.27-0.068,0.539,0.098,0.605,0.365l4.349,17.586c0.066,0.269-0.098,0.539-0.365,0.605
		C183.626,209.149,183.585,209.154,183.546,209.154z"/>
	<path fill="#3E5B85" d="M140.005,205.677c-0.226,0-0.43-0.152-0.485-0.381l-13.838-56.523c-0.066-0.269,0.099-0.539,0.366-0.604
		c0.273-0.064,0.539,0.099,0.604,0.366l13.838,56.523c0.066,0.269-0.099,0.539-0.366,0.604
		C140.084,205.672,140.044,205.677,140.005,205.677z"/>
	<path fill="#3E5B85" d="M236.205,228.623c-0.226,0-0.43-0.152-0.485-0.381l-13.838-56.523c-0.066-0.269,0.099-0.539,0.366-0.604
		c0.273-0.065,0.539,0.099,0.604,0.366l13.838,56.523c0.066,0.269-0.099,0.539-0.366,0.604
		C236.284,228.618,236.244,228.623,236.205,228.623z"/>
	<path fill="#3E5B85" d="M211.633,167.204c-0.225,0-0.429-0.152-0.485-0.38l-4.349-17.586c-0.066-0.269,0.098-0.539,0.365-0.605
		c0.267-0.068,0.538,0.098,0.605,0.365l4.349,17.586c0.066,0.269-0.098,0.539-0.365,0.605
		C211.713,167.199,211.672,167.204,211.633,167.204z"/>
	<path fill="#3E5B85" d="M173.286,264.175c-0.225,0-0.429-0.152-0.485-0.38l-4.349-17.586c-0.066-0.269,0.098-0.539,0.365-0.605
		c0.27-0.067,0.539,0.098,0.605,0.365l4.349,17.586c0.066,0.269-0.098,0.539-0.365,0.605
		C173.366,264.17,173.325,264.175,173.286,264.175z"/>
	<path fill="#3E5B85" d="M199.021,65.629c-0.225,0-0.429-0.152-0.485-0.38l-4.349-17.586c-0.066-0.269,0.098-0.539,0.365-0.605
		c0.269-0.069,0.539,0.098,0.605,0.365l4.349,17.586c0.066,0.269-0.098,0.539-0.365,0.605
		C199.102,65.624,199.061,65.629,199.021,65.629z"/>
	<path fill="#3E5B85" d="M155.44,51.147c-0.225,0-0.429-0.152-0.485-0.38l-4.349-17.586c-0.066-0.269,0.098-0.539,0.365-0.605
		s0.539,0.098,0.605,0.365l4.349,17.586c0.066,0.269-0.098,0.539-0.365,0.605C155.521,51.143,155.479,51.147,155.44,51.147z"/>
	<path fill="#3E5B85" d="M71.449,84.518c-0.225,0-0.429-0.152-0.485-0.38l-4.349-17.586c-0.066-0.269,0.098-0.539,0.365-0.605
		c0.27-0.069,0.539,0.098,0.605,0.365l4.349,17.586c0.066,0.269-0.098,0.539-0.365,0.605C71.529,84.513,71.488,84.518,71.449,84.518
		z"/>
	<path fill="#3E5B85" d="M79.37,173.796c-0.225,0-0.429-0.152-0.485-0.38l-4.349-17.586c-0.066-0.269,0.098-0.539,0.365-0.605
		c0.269-0.068,0.539,0.098,0.605,0.365l4.349,17.586c0.066,0.269-0.098,0.539-0.365,0.605
		C79.45,173.791,79.409,173.796,79.37,173.796z"/>
	<path fill="#3E5B85" d="M71.449,235.63c-0.218,0-0.418-0.143-0.48-0.362l-11.123-38.746c-0.076-0.266,0.077-0.542,0.343-0.618
		c0.262-0.079,0.542,0.077,0.618,0.343l11.123,38.746c0.076,0.266-0.077,0.542-0.343,0.618
		C71.541,235.624,71.495,235.63,71.449,235.63z"/>
	<circle fill="#00BBE1" cx="143.271" cy="63.813" r="1.535"/>
	<circle fill="#00BBE1" cx="222.368" cy="92.799" r="1.535"/>
	<circle fill="#00BBE1" cx="94.176" cy="143.288" r="1.535"/>
	<circle fill="#00BBE1" cx="48.002" cy="213.52" r="1.535"/>
	<circle fill="#00BBE1" cx="161.948" cy="208.654" r="1.535"/>
	<circle fill="#00BBE1" cx="168.938" cy="123.92" r="1.535"/>
	<circle fill="#00BBE1" cx="253.489" cy="191.068" r="1.535"/>
</g>
</svg>
