<?xml version="1.0" encoding="utf-8"?>
<!-- Generator: Adobe Illustrator 16.0.0, SVG Export Plug-In . SVG Version: 6.00 Build 0)  -->
<!DOCTYPE svg PUBLIC "-//W3C//DTD SVG 1.1 Tiny//EN" "http://www.w3.org/Graphics/SVG/1.1/DTD/svg11-tiny.dtd">
<svg version="1.1" baseProfile="tiny" id="Layer_1" xmlns="http://www.w3.org/2000/svg" xmlns:xlink="http://www.w3.org/1999/xlink"
	 x="0px" y="0px" width="300px" height="300px" viewBox="0 0 300 300" xml:space="preserve">
<g>
	<circle fill="#609544" cx="150" cy="150" r="131.6"/>
	<g>
		<path fill="#B1B2B2" d="M88.764,232.417c-0.436,0-0.878-0.075-1.312-0.231c-1.995-0.724-3.026-2.929-2.303-4.925l6.739-18.578
			c0.725-1.996,2.928-3.026,4.926-2.303c1.995,0.724,3.026,2.929,2.303,4.925l-6.739,18.578
			C91.811,231.446,90.335,232.417,88.764,232.417z"/>
		<path fill="#B1B2B2" d="M185.711,232.417c-1.572,0-3.047-0.971-3.614-2.535l-6.739-18.578c-0.724-1.996,0.308-4.201,2.303-4.925
			c2-0.722,4.201,0.307,4.926,2.303l6.739,18.578c0.724,1.996-0.308,4.201-2.303,4.925
			C186.589,232.343,186.146,232.417,185.711,232.417z"/>
		<path fill="#B0B1B1" d="M137.177,90.796c-2.123,0-3.845-1.722-3.845-3.845V67.634c0-2.123,1.722-3.845,3.845-3.845
			s3.845,1.722,3.845,3.845v19.317C141.021,89.074,139.3,90.796,137.177,90.796z"/>
		<path fill="#B0B1B1" d="M141.318,71.479h-8.283c-2.123,0-3.845-1.722-3.845-3.845s1.722-3.845,3.845-3.845h8.283
			c2.123,0,3.845,1.722,3.845,3.845S143.441,71.479,141.318,71.479z"/>
		<g>
			<g>
				<path fill="#B1B2B2" d="M94.614,98.329c-1.391,0-2.733-0.757-3.417-2.077L72.706,60.547c-0.977-1.885-0.239-4.206,1.646-5.182
					c1.883-0.975,4.205-0.24,5.182,1.646l18.491,35.705c0.977,1.885,0.239,4.206-1.646,5.182
					C95.814,98.19,95.21,98.329,94.614,98.329z"/>
				<path fill="#D2D3D3" d="M119.904,77.313c-0.28-0.648-0.577-1.294-0.906-1.931c-7.73-14.928-26.101-20.762-41.027-13.031
					c-14.928,7.731-20.763,26.099-13.031,41.027c0.329,0.637,0.686,1.251,1.053,1.854L119.904,77.313z"/>
				<path fill="#E8E9E9" d="M66.116,105.168c-5.351-14.233,0.665-30.538,14.502-37.704c13.838-7.166,30.625-2.67,39.162,9.913
					l0.124-0.064c-0.28-0.648-0.577-1.294-0.906-1.931c-7.73-14.928-26.101-20.762-41.027-13.031
					c-14.928,7.731-20.763,26.099-13.031,41.027c0.329,0.637,0.686,1.251,1.053,1.854L66.116,105.168z"/>
			</g>
			<g>
				<path fill="#B1B2B2" d="M181.335,98.329c-0.596,0-1.2-0.139-1.765-0.431c-1.886-0.977-2.623-3.296-1.646-5.182l18.49-35.705
					c0.977-1.886,3.299-2.621,5.182-1.646c1.886,0.977,2.623,3.296,1.646,5.182l-18.49,35.705
					C184.068,97.572,182.726,98.329,181.335,98.329z"/>
				<path fill="#D2D3D3" d="M156.044,77.313c0.28-0.648,0.577-1.294,0.906-1.931c7.73-14.928,26.101-20.762,41.028-13.031
					c14.928,7.731,20.762,26.099,13.03,41.027c-0.329,0.637-0.685,1.251-1.053,1.854L156.044,77.313z"/>
				<path fill="#E8E9E9" d="M209.832,105.168c5.351-14.233-0.665-30.538-14.502-37.704c-13.838-7.166-30.625-2.67-39.162,9.913
					l-0.124-0.064c0.28-0.648,0.577-1.294,0.906-1.931c7.73-14.928,26.101-20.762,41.028-13.031
					c14.928,7.731,20.762,26.099,13.03,41.027c-0.329,0.637-0.685,1.251-1.053,1.854L209.832,105.168z"/>
			</g>
		</g>
		<g>
			<circle fill="#808181" cx="138.922" cy="156.57" r="74.563"/>
			<path fill="#949696" d="M138.922,86.927c40.355,0,73.221,32.062,74.519,72.103c0.025-0.816,0.045-1.637,0.045-2.46
				c0-41.181-33.384-74.564-74.563-74.564c-41.181,0-74.563,33.383-74.563,74.564c0,0.823,0.018,1.644,0.043,2.46
				C65.701,118.989,98.565,86.927,138.922,86.927z"/>
			<path fill="#6A6C6C" d="M138.922,226.212c-40.355,0-73.221-32.062-74.521-72.103c-0.025,0.817-0.043,1.637-0.043,2.46
				c0,41.18,33.383,74.563,74.563,74.563c41.18,0,74.563-33.383,74.563-74.563c0-0.824-0.02-1.643-0.045-2.46
				C212.143,194.15,179.277,226.212,138.922,226.212z"/>
		</g>
		<circle fill="#FFFFFF" cx="138.922" cy="156.569" r="59.341"/>
		<path fill="#D7EDFF" d="M138.922,109.227c30.747,0,56.032,23.387,59.039,53.342c0.198-1.974,0.303-3.974,0.303-6
			c0-32.773-26.568-59.341-59.342-59.341s-59.341,26.568-59.341,59.341c0,2.026,0.103,4.026,0.3,6
			C82.89,132.614,108.174,109.227,138.922,109.227z"/>
		<path fill="#D2D3D3" d="M138.922,210.58c-29.781,0-54.01-24.229-54.01-54.01c0-29.781,24.229-54.01,54.01-54.01
			s54.01,24.229,54.01,54.01C192.932,186.351,168.703,210.58,138.922,210.58z M138.922,103.323
			c-29.359,0-53.246,23.886-53.246,53.246c0,29.36,23.887,53.247,53.246,53.247s53.245-23.887,53.245-53.247
			C192.167,127.209,168.281,103.323,138.922,103.323z"/>
		<g>
			<polygon fill="#535554" points="141.482,117.442 138.922,119.89 136.36,117.442 136.36,106.411 141.482,106.411 			"/>
			<polygon fill="#535554" points="136.36,195.696 138.922,193.249 141.482,195.696 141.482,206.728 136.36,206.728 			"/>
		</g>
		<g>
			<polygon fill="#535554" points="178.048,159.13 175.602,156.57 178.048,154.008 189.08,154.008 189.08,159.13 			"/>
			<polygon fill="#535554" points="99.795,154.008 102.242,156.569 99.795,159.13 88.764,159.13 88.764,154.008 			"/>
		</g>
		<path fill="#535554" d="M138.922,162.292c-3.156,0-5.723-2.567-5.723-5.723s2.566-5.724,5.723-5.724
			c3.155,0,5.722,2.568,5.722,5.724S142.077,162.292,138.922,162.292z M138.922,154.666c-1.051,0-1.904,0.854-1.904,1.904
			s0.854,1.903,1.904,1.903c1.049,0,1.903-0.854,1.903-1.903S139.971,154.666,138.922,154.666z"/>
		<path fill="#535554" d="M136.36,155.659c-0.489,0-0.978-0.187-1.351-0.559l-28.244-28.244c-0.746-0.745-0.746-1.955,0-2.7
			c0.746-0.746,1.954-0.746,2.7,0l28.244,28.244c0.746,0.746,0.746,1.955,0,2.701C137.338,155.473,136.85,155.659,136.36,155.659z"
			/>
		<path fill="#535554" d="M138.922,178.502c-1.055,0-1.909-0.856-1.909-1.91v-15.253c0-1.055,0.854-1.91,1.909-1.91
			s1.909,0.855,1.909,1.91v15.253C140.831,177.646,139.977,178.502,138.922,178.502z"/>
	</g>
	<g>
		<path fill="#FFFFFF" d="M256.05,155.886h-24.045c-1.933,0-3.5-1.567-3.5-3.5s1.567-3.5,3.5-3.5h24.045c1.933,0,3.5,1.567,3.5,3.5
			S257.982,155.886,256.05,155.886z"/>
		<path fill="#FFFFFF" d="M249.007,197.333c-0.896,0-1.791-0.342-2.475-1.025l-17.002-17.003c-1.367-1.367-1.367-3.583,0-4.95
			c1.367-1.366,3.582-1.367,4.949,0l17.002,17.003c1.367,1.367,1.367,3.583,0,4.95C250.798,196.991,249.902,197.333,249.007,197.333
			z"/>
		<path fill="#FFFFFF" d="M232.005,131.3c-0.896,0-1.791-0.342-2.475-1.025c-1.367-1.367-1.367-3.583,0-4.95l17.002-17.004
			c1.365-1.367,3.582-1.367,4.949,0c1.367,1.367,1.367,3.583,0,4.95l-17.002,17.004C233.797,130.958,232.9,131.3,232.005,131.3z"/>
	</g>
</g>
</svg>
