<?xml version="1.0" encoding="utf-8"?>
<!-- Generator: Adobe Illustrator 16.0.0, SVG Export Plug-In . SVG Version: 6.00 Build 0)  -->
<!DOCTYPE svg PUBLIC "-//W3C//DTD SVG 1.1 Tiny//EN" "http://www.w3.org/Graphics/SVG/1.1/DTD/svg11-tiny.dtd">
<svg version="1.1" baseProfile="tiny" id="Layer_1" xmlns="http://www.w3.org/2000/svg" xmlns:xlink="http://www.w3.org/1999/xlink"
	 x="0px" y="0px" width="300px" height="300px" viewBox="0 0 300 300" xml:space="preserve">
<g>
	<circle fill="#163A6C" cx="150" cy="150" r="131.6"/>
	<circle fill="#FFFFFF" cx="141.083" cy="115.81" r="75.706"/>
	<path fill="#949696" d="M269.859,205.09c0,0,0,0.405-7.709-7.302c-7.707-7.71-13.793-22.326-32.051-26.178l3.652-3.44l-5.86-2.254
		c0,0,8.497-10.122,15.192-16.817c8.623-8.623-6.889-8.51-6.889-8.51s-13.803-0.818-25.166,1.614c0,0-14.197-10.547-21.504-17.853
		c-7.303-7.303-12.982-17.443-32.862-15.417c0,0-16.836,1.826-24.749-6.087c-7.911-7.91-13.389-10.951-13.389-10.951
		s-6.897-2.436-10.142,8.924l-2.029,3.246c0,0-2.434,3.649,0,9.736c2.435,6.086,6.896,15.013,1.217,15.013s-8.52-3.65-8.52-3.65
		s-1.014-0.61-3.653,2.026c-2.637,2.64-3.042,6.696,6.493,16.232c9.535,9.533,5.071,12.777,10.143,17.851
		c5.071,5.071,12.172,11.358,12.172,17.442c0,6.09-2.435,25.97-2.435,29.216s1.623,7.707,5.274,0c0,0-4.869,17.036-0.812,17.036
		s4.463-2.431,4.463-2.431s-0.812,17.85-0.812,24.341c0,6.492,8.52,0.408,8.52-5.274c0,0,1.218,25.155,4.464,21.91
		c3.246-3.245,8.519-6.085,8.519-6.085s-1.868,24.099,3.001,24.099S231.964,280.682,269.859,205.09z"/>
	<g>
		<path fill="#7F8181" d="M161.527,271.928c-4.869,0-3.001-24.099-3.001-24.099s-5.272,2.84-8.519,6.085s-4.465-21.91-4.465-21.91
			c0,5.683-8.52,11.767-8.52,5.274c0-6.491,0.812-24.341,0.812-24.341s-0.406,2.431-4.463,2.431c-4.058,0,0.811-17.036,0.811-17.036
			c-3.65,7.707-5.273,3.246-5.273,0s2.434-23.126,2.434-29.216c0-6.084-7.1-12.371-12.172-17.442
			c-5.072-5.073-0.607-8.317-10.143-17.851c-2.079-2.08-3.685-3.898-4.899-5.499c-3.38-0.993-5.078-3.16-5.078-3.16
			s-1.014-0.61-3.652,2.026c-2.638,2.64-3.042,6.696,6.492,16.232c9.535,9.533,5.07,12.777,10.143,17.851
			c5.072,5.071,12.172,11.358,12.172,17.442c0,6.09-2.434,25.97-2.434,29.216s1.623,7.707,5.273,0c0,0-4.868,17.036-0.811,17.036
			c4.057,0,4.463-2.431,4.463-2.431s-0.812,17.85-0.812,24.341c0,6.492,8.52,0.408,8.52-5.274c0,0,1.219,25.155,4.465,21.91
			s8.519-6.085,8.519-6.085s-1.868,24.099,3.001,24.099c4.449,0,65.533-0.719,104.949-58.513
			C220.095,271.3,165.716,271.928,161.527,271.928z"/>
	</g>
	<path fill="#7F8181" d="M212.913,146.724c0,0,5.907,0.646,5.907,3.276s-0.492,8.785,1.723,8.785s13.477-6.215,15.261-8
		S233.835,144.755,212.913,146.724z"/>
	<path fill="#7F8181" d="M128.155,161.308c0,0,2.863,4.253,9.686,7.076c7.138,2.954,10.092,1.23,16.737-1.23
		s8.615-2.215,5.169,3.446s-13.536,5.661-16.835,11.076c-3.298,5.415-5.856,15.25-11.125,31.008c0,0-2.524-1.145-3.632-2.948
		s-5.329-5.415-3.113-11.322S128.155,161.308,128.155,161.308z"/>
	<path fill="#7F8181" d="M171.562,235.825c0,0,2.054,12.061,10.257,12.061s13.126-19.443,13.126-20.675
		S185.099,249.362,171.562,235.825z"/>
	<path fill="#7F8181" d="M204.942,218.824c0,0,6.016,10.653,13.734,7.877s5.77-22.738,5.354-23.897
		C223.613,201.646,222.263,226.98,204.942,218.824z"/>
	<path fill="#666868" d="M151.624,117.681c0,0,6.893,2.708,6.893,6.399S154.085,124.573,151.624,117.681z"/>
	<path fill="#666868" d="M110.246,96.25c0,0,4.16-7.768,10.063-3.226l2.77,2.003c0,0-2.222,5.177-4.191,3.208
		S112.578,93.918,110.246,96.25z"/>
</g>
</svg>
