<?xml version="1.0" encoding="utf-8"?>
<!-- Generator: Adobe Illustrator 16.0.0, SVG Export Plug-In . SVG Version: 6.00 Build 0)  -->
<!DOCTYPE svg PUBLIC "-//W3C//DTD SVG 1.1 Tiny//EN" "http://www.w3.org/Graphics/SVG/1.1/DTD/svg11-tiny.dtd">
<svg version="1.1" baseProfile="tiny" id="Layer_1" xmlns="http://www.w3.org/2000/svg" xmlns:xlink="http://www.w3.org/1999/xlink"
	 x="0px" y="0px" width="300px" height="300px" viewBox="0 0 300 300" xml:space="preserve">
<g>
	<circle fill="#FFD202" cx="150" cy="150" r="131.6"/>
	<g>
		
			<rect x="90.304" y="196.405" transform="matrix(-0.3767 -0.9263 0.9263 -0.3767 -53.4341 356.8574)" fill="none" width="6.063" height="0"/>
		<path fill="#746657" d="M85.525,78.007c1.199-0.877,2.636-1.778,4.06-2.516c5.762-3.024,12.699-4.374,19.548-3.554
			c6.849,0.791,13.55,3.85,18.673,8.897c5.152,5.03,8.651,11.928,10.372,19.466c0.886,3.769,1.348,7.699,1.498,11.688
			c0.058,1.954,0.057,4.126,0.094,6.247c0.049,2.126,0.099,4.256,0.148,6.39c0.546,17.064,1.953,34.454,5.521,51.602
			c1.812,8.559,4.175,17.065,7.62,25.22c3.45,8.107,8.029,16.016,14.738,22.188c3.333,3.069,7.233,5.607,11.472,7.285
			c2.116,0.843,4.306,1.475,6.52,1.9l0.831,0.151l0.483,0.086l0.388,0.051c0.531,0.063,1.001,0.143,1.582,0.194
			c1.188,0.115,2.338,0.166,3.488,0.147c2.314-0.051,4.725-0.426,7.031-1.371c2.291-0.961,4.424-2.566,5.886-4.569
			c1.513-1.98,2.405-4.222,2.993-6.41c0.588-2.202,0.827-4.391,0.926-6.535c0.172-4.293-0.256-8.431-0.904-12.446
			c-0.658-4.015-1.549-7.914-2.56-11.722c-2.033-7.612-4.514-14.868-7.118-21.839c-2.611-6.97-5.367-13.65-8.111-20.064
			c-0.684-1.593-1.362-3.173-2.034-4.738c-0.328-0.789-0.655-1.573-0.98-2.355c-0.297-0.769-0.592-1.534-0.886-2.296
			c-1.146-3.081-2.127-6.162-2.89-9.213c-1.522-6.093-2.198-12.134-1.53-17.7c0.647-5.555,2.769-10.565,6.086-14.156
			c3.304-3.613,7.597-5.745,11.752-6.753c4.186-0.989,8.247-0.945,11.778-0.32c3.543,0.618,6.572,1.801,8.993,3.153
			c2.423,1.363,4.226,2.906,5.527,4.28c1.282,1.396,2.096,2.604,2.574,3.45c0.26,0.412,0.403,0.754,0.526,0.969
			c0.115,0.219,0.173,0.33,0.173,0.33l0.039,0.075c0.321,0.614,1.076,0.86,1.698,0.548c0.628-0.314,0.883-1.079,0.568-1.707
			c0,0-0.064-0.129-0.19-0.381c-0.135-0.247-0.297-0.639-0.585-1.113c-0.533-0.973-1.439-2.362-2.867-3.957
			c-1.446-1.57-3.445-3.324-6.105-4.869c-2.658-1.534-5.964-2.874-9.835-3.605c-3.86-0.736-8.308-0.855-12.985,0.182
			c-4.639,1.054-9.57,3.393-13.44,7.508c-3.889,4.085-6.368,9.818-7.157,15.925c-0.818,6.13-0.158,12.595,1.351,19.022
			c0.759,3.221,1.737,6.44,2.887,9.668c0.299,0.809,0.6,1.62,0.902,2.436c0.315,0.787,0.631,1.578,0.95,2.373
			c0.654,1.585,1.313,3.186,1.979,4.799c2.637,6.419,5.272,13.081,7.75,19.999c2.471,6.917,4.805,14.093,6.671,21.516
			c0.929,3.71,1.731,7.483,2.299,11.299c0.562,3.81,0.888,7.68,0.679,11.452c-0.209,3.735-1.029,7.485-3.037,10.053
			c-0.979,1.295-2.272,2.221-3.78,2.844c-1.527,0.596-3.272,0.873-5.103,0.885c-0.925,0-1.852-0.058-2.736-0.151
			c-0.456-0.042-1.014-0.141-1.517-0.209l-0.387-0.056c0.076,0.009-0.08-0.018-0.109-0.025l-0.177-0.035l-0.707-0.14
			c-1.88-0.39-3.722-0.95-5.495-1.687c-3.551-1.466-6.817-3.645-9.673-6.351c-5.744-5.421-9.889-12.671-13.008-20.329
			c-3.124-7.691-5.286-15.875-6.917-24.167c-3.216-16.623-4.369-33.7-4.664-50.484c-0.019-2.101-0.038-4.196-0.057-6.288
			c0-2.13,0-4.256,0-6.375c-0.086-4.4-0.519-8.812-1.455-13.147c-1.81-8.646-5.784-17.091-12.106-23.487
			c-3.137-3.195-6.814-5.831-10.774-7.787c-3.959-1.967-8.209-3.214-12.484-3.809c-8.564-1.176-17.239,0.336-24.641,4.041
			c-1.872,0.938-3.582,1.95-5.347,3.195c-0.479,0.328-0.784,0.572-1.163,0.852l-0.272,0.204l-0.348,0.279l-0.567,0.46
			c-0.758,0.606-1.507,1.221-2.229,1.88c-2.904,2.585-5.613,5.454-7.814,8.743c-2.19,3.277-3.942,6.914-4.894,10.701
			c-0.986,3.773-1.307,7.609-1.103,11.229c0.397,7.277,2.405,13.699,4.612,19.461c2.249,5.767,4.826,10.917,7.34,15.665
			c0.646,1.182,1.281,2.345,1.906,3.488c0.618,1.109,1.226,2.2,1.823,3.271c1.129,2.111,2.271,4.072,3.274,6.086
			c2.062,3.957,3.884,7.664,5.528,11.013c1.124,2.329,2.151,4.478,3.092,6.46c0.438-0.297,0.909-0.557,1.418-0.764l3.154-1.284
			c-0.008,0.003-0.015,0.007-0.023,0.011l2.097-0.854c-0.007,0.003-0.014,0.005-0.021,0.008l3.155-1.282
			c0.042-0.017,0.084-0.028,0.126-0.044c-1.043-2.117-2.201-4.445-3.47-6.975c-1.727-3.385-3.64-7.131-5.835-11.188
			c-1.053-2.033-2.315-4.141-3.534-6.329c-0.304-0.529-0.611-1.063-0.921-1.603c-0.314-0.538-0.632-1.081-0.952-1.629
			c-0.61-1.072-1.231-2.162-1.862-3.271c-2.473-4.473-4.976-9.283-7.093-14.446c-2.093-5.149-3.855-10.696-4.25-16.339
			c-0.427-5.639,0.804-11.24,4.117-16.284c1.624-2.532,3.76-4.901,6.177-7.13c0.594-0.566,1.23-1.104,1.876-1.641l0.481-0.405
			l0.121-0.102c0.012-0.012,0.144-0.118,0.056-0.052l0.269-0.209C84.847,78.52,85.25,78.191,85.525,78.007z"/>
		<polygon fill="#1F6FB3" points="109.368,169.473 108.75,169.725 108.751,169.725 		"/>
		<path fill="#1F6FB3" d="M112.337,245.863l2.833,6.967c0.334,0.821,0.799,1.547,1.354,2.178c1.298,0.182,2.659,0.043,3.961-0.487
			l16.547-6.728c1.316-0.535,2.397-1.397,3.202-2.449c-0.045-0.831-0.218-1.668-0.549-2.482l-2.834-6.966
			c-1.145-2.817-3.77-4.57-6.612-4.765l-16.841,7.146C111.779,240.372,111.269,243.233,112.337,245.863z"/>
		<polygon fill="#1F6FB3" points="112.441,178.59 114.126,177.906 114.14,177.899 112.441,178.59 		"/>
		<path fill="#1F6FB3" d="M87.646,178.306c-2.449,1.002-3.627,3.799-2.631,6.252c1,2.456,3.802,3.639,6.258,2.641l0.356-0.145
			l19.373-7.879c2.453-1.002,3.632-3.799,2.634-6.254c-0.997-2.454-3.793-3.634-6.247-2.644L87.646,178.306z"/>
		<path fill="#1F6FB3" d="M89.238,174.932l14.658-5.959c-2.106-1.782-5.099-2.37-7.835-1.268l-2.097,0.854
			C91.236,169.678,89.503,172.186,89.238,174.932z"/>
		<polygon fill="#1F6FB3" points="95.244,192.059 97.612,197.883 113.814,191.008 111.01,184.113 		"/>
		<polygon fill="#0E64AD" points="92.194,193.597 94.478,199.213 97.612,197.883 95.244,192.059 		"/>
		<path fill="#0E64AD" d="M93.963,168.559c0.008-0.004,0.015-0.008,0.023-0.011l-3.154,1.284c-0.509,0.207-0.98,0.467-1.418,0.764
			c-1.917,1.298-3.114,3.377-3.331,5.619l3.155-1.283C89.503,172.186,91.236,169.678,93.963,168.559z"/>
		<path fill="#0E64AD" d="M91.274,187.198c-2.456,0.998-5.259-0.185-6.258-2.641c-0.997-2.453,0.182-5.25,2.631-6.252l-1.362,0.554
			l-1.784,0.725c-2.457,1-3.638,3.801-2.638,6.259c0.999,2.454,3.8,3.637,6.257,2.64l1.712-0.697l1.799-0.731L91.274,187.198z"/>
		<path fill="#0E64AD" d="M116.523,255.008c-0.554-0.631-1.02-1.356-1.354-2.178l-2.833-6.967c-1.069-2.63-0.558-5.491,1.06-7.586
			l-2.107,0.894c-0.33,0.14-0.666,0.245-1.002,0.333c-1.653,2.101-2.183,4.99-1.104,7.643l1.28,3.149
			C111.535,252.928,113.898,254.638,116.523,255.008z"/>
		<path fill="#0E64AD" d="M86.284,178.859l-0.202-2.64C85.999,177.088,86.059,177.98,86.284,178.859z"/>
		<path fill="#377EBB" d="M96.04,167.713c0.007-0.003,0.014-0.005,0.021-0.008c2.736-1.103,5.729-0.515,7.835,1.268l3.128-1.271
			c0.629,1.545,1.701,2.033,1.701,2.033l-1.335,0.543c2.454-0.99,5.25,0.189,6.247,2.644c0.998,2.455-0.181,5.252-2.634,6.254
			l1.412-0.574l1.622,3.987l-3.026,1.525l2.804,6.895l3.136-1.33l-4.509-11.088l0,0l1.699-0.69l0.012-0.005
			c2.457-0.999,3.639-3.799,2.64-6.256s-3.801-3.64-6.257-2.641l-1.167,0.475l-0.617,0.252c0,0,0,0,0,0
			c-1.865-3.25-5.855-4.721-9.43-3.338c-0.042,0.016-0.084,0.027-0.126,0.044L96.04,167.713z"/>
		<path fill="#377EBB" d="M130.238,231.131c2.842,0.194,5.468,1.947,6.612,4.765l2.834,6.966c0.331,0.814,0.504,1.651,0.549,2.482
			c1.602-2.094,2.091-4.954,1.026-7.572l1.554,3.819c1.601,3.933-0.29,8.417-4.223,10.019l0.022-0.009
			c3.934-1.601,5.827-6.087,4.227-10.021l-2.833-6.969c-1.159-2.848-3.834-4.617-6.713-4.775L130.238,231.131z"/>
		<path fill="#0961AC" d="M142.813,241.591l-1.554-3.819c1.065,2.618,0.576,5.479-1.026,7.572c-0.805,1.052-1.886,1.914-3.202,2.449
			l-16.547,6.728c-1.302,0.53-2.663,0.669-3.961,0.487c-2.625-0.37-4.989-2.08-6.06-4.712l0-0.001l1.552,3.818
			c1.601,3.936,6.086,5.828,10.022,4.227l16.548-6.729c0.001,0,0.002-0.001,0.004-0.002
			C142.523,250.008,144.414,245.523,142.813,241.591z"/>
		<polygon fill="#0961AC" points="92.194,193.597 95.244,192.059 111.01,184.113 114.036,182.588 112.415,178.601 111.002,179.175 
			91.63,187.054 89.831,187.785 91.941,192.977 92.193,193.597 		"/>
		<path fill="#377EBB" d="M107.39,170.277l1.335-0.543c0,0-1.072-0.488-1.701-2.033l-3.128,1.271l-14.658,5.959l-3.155,1.283h-0.001
			l0,0.005l0.202,2.64l1.362-0.554L107.39,170.277z"/>
		<path fill="#F6B9A3" d="M115.867,205.776c0.03,0.026,0.062,0.051,0.091,0.077l15.112-6.412l-0.064-0.152
			c-0.253,0.145-0.513,0.281-0.788,0.398L115.867,205.776z"/>
		<path fill="#F6B9A3" d="M101.851,235.357c-0.179-0.422-0.31-0.853-0.404-1.285c-1.678,0.758-3.509,1.534-5.479,2.309l0.506,1.193
			c1.509,3.559,5.62,5.219,9.177,3.709l3.8-1.612C106.312,240.102,103.148,238.415,101.851,235.357z"/>
		<path fill="#F6B9A3" d="M89.782,209.025c-0.954-2.248-0.673-4.708,0.531-6.633l-5.343,3.309c-0.573,1.598-0.577,3.405,0.139,5.091
			l0.326,0.769c1.698-0.652,3.243-1.304,4.64-1.932C89.97,209.434,89.871,209.234,89.782,209.025z"/>
		<path fill="#F6B9A3" d="M119.732,219.893c-0.007,0.021-0.014,0.044-0.021,0.066l16.952-7.193c0.018-0.008,0.036-0.012,0.054-0.02
			l-0.022-0.051L119.732,219.893z"/>
		<polygon fill="#F6B9A3" points="113.814,191.008 97.612,197.883 94.478,199.213 94.478,199.213 94.478,199.214 118.783,188.899 
			116.95,189.678 		"/>
		<path fill="#F6B9A3" d="M119.711,219.959c-0.863,2.693-2.562,5.144-5.051,6.9c-0.585,0.414-5.201,3.596-13.213,7.213
			c0.094,0.433,0.225,0.863,0.404,1.285c1.297,3.058,4.461,4.744,7.6,4.313c0.28-0.038,0.558-0.095,0.836-0.167
			c0.337-0.088,0.672-0.193,1.002-0.333l2.107-0.894l16.841-7.146l3.054-1.295l8.994-3.816c3.661-1.555,5.369-5.779,3.815-9.441
			v0.003c-1.544-3.644-5.737-5.349-9.385-3.835c-0.018,0.008-0.036,0.012-0.054,0.02L119.711,219.959z"/>
		<path fill="#F6B9A3" d="M115.958,205.854c0.709,0.648,1.365,1.375,1.942,2.191c2.529,3.582,3.055,7.965,1.832,11.848l16.962-7.197
			l0.552-0.234c3.661-1.555,5.369-5.78,3.814-9.44l0.001,0.001c-1.554-3.659-5.78-5.367-9.44-3.814l-0.552,0.234L115.958,205.854z"
			/>
		<path fill="#F6B9A3" d="M94.478,199.214l0.195,0.479l-4.359,2.699c-1.204,1.925-1.485,4.385-0.531,6.633
			c0.088,0.209,0.188,0.408,0.293,0.604c5.754-2.584,8.905-4.75,9.01-4.824c5.24-3.701,12.199-3.133,16.781,0.972l14.351-6.089
			c0.275-0.117,0.535-0.254,0.788-0.398c3.106-1.793,4.463-5.655,3.026-9.042l0.001,0.001c-1.553-3.658-5.779-5.365-9.44-3.814
			l-5.811,2.466L94.478,199.214z"/>
		<path fill="#F6B9A3" d="M94.673,199.693l-0.195-0.479v-0.001l-2.284-5.616l-0.252-0.62l-0.879-2.162
			c-6.425,5.008-6.095,14.889-6.095,14.889l0.003-0.002l5.343-3.309L94.673,199.693z"/>
		<path fill="#F6B9A3" d="M114.66,226.859c2.489-1.757,4.188-4.207,5.051-6.9c0.007-0.022,0.015-0.045,0.021-0.066
			c1.223-3.883,0.697-8.266-1.832-11.848c-0.577-0.816-1.233-1.543-1.942-2.191c-0.03-0.026-0.062-0.051-0.091-0.077
			c-4.583-4.104-11.541-4.673-16.781-0.972c-0.105,0.074-3.256,2.24-9.01,4.824c-1.396,0.628-2.941,1.279-4.64,1.932
			c-10.698,4.111-27.255,8.249-48.124,6.441c5.995,9.913,13.262,18.971,21.574,26.948c15.177-1.286,27.74-4.898,37.082-8.569
			c1.97-0.774,3.801-1.551,5.479-2.309C109.459,230.455,114.074,227.273,114.66,226.859z"/>
		<path fill="#FFFFFF" d="M242.96,99.72c-1.381,0-2.5,1.119-2.5,2.5s1.119,2.5,2.5,2.5h19.519c1.381,0,2.5-1.119,2.5-2.5
			s-1.119-2.5-2.5-2.5H242.96z"/>
		<path fill="#FFFFFF" d="M252.336,128.253c0.64,0,1.28-0.244,1.768-0.732c0.977-0.976,0.977-2.559,0-3.535l-11.095-11.096
			c-0.976-0.977-2.56-0.977-3.535,0c-0.977,0.976-0.977,2.559,0,3.535l11.095,11.096
			C251.056,128.009,251.696,128.253,252.336,128.253z"/>
		<path fill="#FFFFFF" d="M239.473,91.832c0.488,0.488,1.128,0.732,1.768,0.732s1.28-0.244,1.768-0.732l11.095-11.096
			c0.977-0.977,0.977-2.56,0-3.535c-0.976-0.977-2.56-0.977-3.535,0l-11.095,11.096C238.497,89.273,238.497,90.856,239.473,91.832z"
			/>
		<path fill="#FFFFFF" d="M222.929,108.375c-0.976-0.977-2.56-0.977-3.535,0l-11.095,11.096c-0.977,0.977-0.977,2.56,0,3.535
			c0.488,0.488,1.128,0.732,1.768,0.732s1.28-0.244,1.768-0.732l11.095-11.096C223.906,110.934,223.906,109.351,222.929,108.375z"/>
		<path fill="#FFFFFF" d="M230.944,113.332c-1.381,0-2.5,1.119-2.5,2.5v19.52c0,1.381,1.119,2.5,2.5,2.5s2.5-1.119,2.5-2.5v-19.52
			C233.444,114.451,232.325,113.332,230.944,113.332z"/>
		<path fill="#FFFFFF" d="M233.444,67.316c0-1.381-1.119-2.5-2.5-2.5s-2.5,1.119-2.5,2.5v19.52c0,1.381,1.119,2.5,2.5,2.5
			s2.5-1.119,2.5-2.5V67.316z"/>
		<path fill="#FFB53D" d="M95.755,50.663c-0.784,0.267-1.205,1.118-0.938,1.902c0.266,0.785,1.118,1.205,1.902,0.939
			c0.092-0.032,9.371-3.107,20.854-1.201c15.39,2.56,27.115,12.438,34.85,29.364c0.252,0.552,0.796,0.877,1.365,0.877
			c0.208,0,0.42-0.043,0.623-0.136c0.753-0.345,1.085-1.234,0.741-1.987C135.633,37.708,96.152,50.527,95.755,50.663z"/>
		<path fill="#FFB53D" d="M125.069,39.486c-0.821-0.038-1.524,0.615-1.556,1.442c-0.031,0.828,0.615,1.524,1.442,1.556
			c0.19,0.007,19.103,0.891,25.542,15.74c0.245,0.565,0.797,0.903,1.377,0.903c0.199,0,0.401-0.039,0.596-0.124
			c0.76-0.329,1.109-1.213,0.779-1.973C146.067,40.468,125.923,39.519,125.069,39.486z"/>
		<path fill="#FFB53D" d="M50.486,110.211c0.032,0.721,0.896,17.812,10.598,31.842c0.292,0.421,0.759,0.646,1.235,0.646
			c0.294,0,0.591-0.086,0.852-0.267c0.682-0.471,0.852-1.405,0.381-2.087c-9.199-13.3-10.061-30.101-10.068-30.269
			c-0.038-0.827-0.718-1.471-1.566-1.431C51.09,108.684,50.449,109.384,50.486,110.211z"/>
		<path fill="#FFB53D" d="M49.393,144.291c0.293,0.293,0.677,0.439,1.061,0.439s0.768-0.146,1.061-0.439
			c0.586-0.586,0.586-1.535,0-2.121c-4.322-4.322-5.68-16.456-5.693-16.578c-0.089-0.823-0.827-1.419-1.652-1.33
			c-0.823,0.089-1.419,0.828-1.33,1.651C42.897,126.454,44.323,139.222,49.393,144.291z"/>
		<path fill="#FFB53D" d="M218.811,217.947c0.082-0.824-0.521-1.559-1.346-1.641c-0.82-0.083-1.559,0.521-1.64,1.346
			c-2.502,25.38-23.566,24.716-24.461,24.675c-0.804-0.03-1.528,0.598-1.569,1.425c-0.041,0.827,0.597,1.531,1.424,1.571
			c0.311,0.016,0.631,0.023,0.962,0.023C200.985,245.347,216.662,239.745,218.811,217.947z"/>
		<path fill="#FFB53D" d="M200.477,253.695c0.069,0,0.139-0.005,0.209-0.015c0.171-0.023,17.161-2.576,20.397-18.356
			c0.167-0.812-0.356-1.604-1.168-1.771c-0.814-0.162-1.604,0.356-1.771,1.168c-2.807,13.683-17.262,15.901-17.876,15.989
			c-0.819,0.116-1.39,0.873-1.275,1.693C199.098,253.153,199.74,253.695,200.477,253.695z"/>
	</g>
</g>
</svg>
