<?xml version="1.0" encoding="utf-8"?>
<!-- Generator: Adobe Illustrator 16.0.0, SVG Export Plug-In . SVG Version: 6.00 Build 0)  -->
<!DOCTYPE svg PUBLIC "-//W3C//DTD SVG 1.1 Tiny//EN" "http://www.w3.org/Graphics/SVG/1.1/DTD/svg11-tiny.dtd">
<svg version="1.1" baseProfile="tiny" id="Layer_1" xmlns="http://www.w3.org/2000/svg" xmlns:xlink="http://www.w3.org/1999/xlink"
	 x="0px" y="0px" width="300px" height="300px" viewBox="0 0 300 300" xml:space="preserve">
<g>
	<circle fill="#609544" cx="150" cy="150" r="131.6"/>
	<path fill="#CA352B" d="M161.838,188.655c0,0,18.071,5.267,40.171,0c0,0,0.07,9.604,12.324,12.702s18.141-1.276,20.929,6.333
		s5.576-1.066,4.027-6.023s-4.028-24.475-30.981-20.757c0,0,6.506-29.411-12.702-36.237S161.838,188.655,161.838,188.655z"/>
	<path fill="#D6D900" d="M226.013,258.189c-7.035-54.296-67.039-50.918-75.392-50.005c-8.353-0.913-68.356-4.175-75.392,50.121
		c0,0,29.087,23.295,75.839,23.295C195.378,281.6,226.013,258.189,226.013,258.189z"/>
	<path fill="#F19574" d="M168.551,222.784c0,5.727-4.642,10.367-10.366,10.367h-13.179c-5.726,0-10.366-4.641-10.366-10.367v-52.949
		c0-5.725,4.641-10.365,10.366-10.365h13.179c5.725,0,10.366,4.641,10.366,10.365V222.784z"/>
	<path fill="#F3A285" d="M198.754,154.253c0,23.23-18.829,42.058-42.059,42.058h-12.304c-23.228,0-42.059-18.827-42.059-42.058
		V98.378c0-23.229,18.831-42.058,42.059-42.058h12.304c23.229,0,42.059,18.829,42.059,42.058V154.253z"/>
	<g>
		<path fill="#F3A285" d="M104.112,120.798c-0.159-0.006-0.319-0.014-0.479-0.014c-8.702,0-15.756,7.057-15.756,15.758
			s7.054,15.756,15.756,15.756c0.16,0,0.32-0.007,0.479-0.011V120.798z"/>
		<path fill="#F08660" d="M104.112,128.416c-0.083-0.002-0.165-0.007-0.247-0.007c-4.491,0-8.132,3.641-8.132,8.133
			c0,4.491,3.641,8.131,8.132,8.131c0.082,0,0.164-0.004,0.247-0.006V128.416z"/>
	</g>
	<g>
		<path fill="#F3A285" d="M198.097,120.798c0.159-0.006,0.318-0.014,0.479-0.014c8.702,0,15.757,7.057,15.757,15.758
			s-7.055,15.756-15.757,15.756c-0.161,0-0.32-0.007-0.479-0.011V120.798z"/>
		<path fill="#F08660" d="M198.097,128.416c0.082-0.002,0.164-0.007,0.247-0.007c4.491,0,8.132,3.641,8.132,8.133
			c0,4.491-3.641,8.131-8.132,8.131c-0.083,0-0.165-0.004-0.247-0.006V128.416z"/>
	</g>
	<path fill="#F6B9A3" d="M159.951,139.651c0,1.205-0.978,2.182-2.182,2.182h-13.352c-1.204,0-2.182-0.977-2.182-2.182l0,0
		c0-1.205,0.978-2.181,2.182-2.181h13.352C158.973,137.471,159.951,138.446,159.951,139.651L159.951,139.651z"/>
	<circle fill="#8F2581" cx="95.994" cy="152.298" r="4.467"/>
	<circle fill="#8F2581" cx="206.476" cy="152.298" r="4.467"/>
	<path fill="#EE7A50" d="M133.038,134.955c-0.228,0-0.459-0.055-0.674-0.171c-7.236-3.895-12.086-1.665-12.29-1.568
		c-0.707,0.336-1.559,0.043-1.901-0.661c-0.343-0.705-0.058-1.551,0.644-1.899c0.253-0.125,6.293-3.017,14.898,1.617
		c0.693,0.373,0.953,1.238,0.58,1.931C134.037,134.683,133.545,134.955,133.038,134.955z"/>
	<path fill="#EE7A50" d="M169.139,134.955c-0.508,0-1-0.272-1.257-0.75c-0.374-0.693-0.114-1.558,0.58-1.931
		c8.606-4.633,14.646-1.741,14.898-1.617c0.706,0.35,0.994,1.205,0.644,1.911c-0.349,0.703-1.2,0.991-1.902,0.648
		c-0.221-0.105-5.066-2.32-12.289,1.569C169.599,134.899,169.367,134.955,169.139,134.955z"/>
	<path fill="#CA352B" d="M150,52.959c0,0-52.292,0.31-52.292,41.514v27.077l6.404-0.752c0,0,5.678-12.074,5.678-26.325
		c0,0,0.31-10.224,8.675-10.224s21.067,0,21.067,0S150,84.869,150,76.504V52.959z"/>
	<path fill="#CA352B" d="M149,52.959c0,0,52.292,0.31,52.292,41.514v27.077l-6.404-0.752c0,0-5.678-12.074-5.678-26.325
		c0,0-0.31-10.224-8.675-10.224s-21.067,0-21.067,0S149,84.869,149,76.504V52.959z"/>
	<g>
		<path fill="#E6352B" d="M126.29,146.841c-0.022,8.993-0.065,9.418-0.065,9.854c0,14.012,11.358,25.372,25.372,25.372
			s25.372-11.359,25.372-25.372c0-0.436-0.043-0.861-0.065-9.854H126.29z"/>
		<path fill="#FFFFFF" d="M136.389,146.841h30.415C166.803,146.841,151.686,160.017,136.389,146.841z"/>
		<path fill="#D50C00" d="M136.947,177.41c0,0,3.583-15.775,14.331-15.775s14.198,16.3,14.198,16.3s-5.611,4.11-14.854,4.11
			S136.947,177.41,136.947,177.41z"/>
		<path fill="#F28D92" d="M141.289,180.188c0,0,8.939,4.577,19.714,0C161.002,180.188,150.769,173.254,141.289,180.188z"/>
	</g>
	<path fill="#CA352B" d="M131.422,111.351c0.358,1.429-0.51,2.876-1.939,3.234l-10.671,2.671c-1.428,0.357-2.876-0.511-3.234-1.939
		l0,0c-0.358-1.429,0.511-2.876,1.939-3.234l10.671-2.671C129.617,109.054,131.064,109.922,131.422,111.351L131.422,111.351z"/>
	<path fill="#CA352B" d="M169.59,111.351c-0.358,1.429,0.51,2.876,1.939,3.234l10.671,2.671c1.428,0.357,2.876-0.511,3.234-1.939
		l0,0c0.358-1.429-0.511-2.876-1.939-3.234l-10.671-2.671C171.396,109.054,169.948,109.922,169.59,111.351L169.59,111.351z"/>
	<path fill="#A88ABA" d="M205.433,191.47c-1.406,1.478-3.745,1.537-5.222,0.131l0,0c-1.478-1.406-1.537-3.745-0.13-5.222
		l7.439-7.821c1.406-1.478,3.744-1.536,5.222-0.13l0,0c1.478,1.406,1.537,3.744,0.13,5.222L205.433,191.47z"/>
	<path fill="#B00C00" d="M198.577,152.298c0,0,2.384,25.145-21.065,38.5c0,0,6.892,0.502,12.353-0.167
		C189.864,190.631,205.802,173.889,198.577,152.298z"/>
	<g>
		<path fill="#81AB6B" d="M74.201,146.235c-0.437,0-0.879-0.115-1.282-0.355l-34.825-20.853c-1.185-0.709-1.57-2.245-0.861-3.429
			c0.71-1.185,2.244-1.571,3.429-0.861l34.825,20.853c1.185,0.709,1.57,2.245,0.861,3.429
			C75.879,145.801,75.051,146.235,74.201,146.235z"/>
		<path fill="#81AB6B" d="M39.381,188.846c-0.85,0-1.679-0.434-2.147-1.216c-0.709-1.185-0.324-2.72,0.861-3.429l34.825-20.853
			c1.183-0.71,2.719-0.325,3.429,0.861c0.709,1.185,0.324,2.72-0.861,3.429L40.663,188.49
			C40.261,188.731,39.818,188.846,39.381,188.846z"/>
		<path fill="#81AB6B" d="M39.378,155.142h-3.831c-1.381,0-2.5-1.119-2.5-2.5s1.119-2.5,2.5-2.5h3.831c1.381,0,2.5,1.119,2.5,2.5
			S40.759,155.142,39.378,155.142z"/>
		<path fill="#81AB6B" d="M70.022,155.142H51.295c-1.381,0-2.5-1.119-2.5-2.5s1.119-2.5,2.5-2.5h18.727c1.381,0,2.5,1.119,2.5,2.5
			S71.403,155.142,70.022,155.142z"/>
	</g>
	<g>
		<path fill="#81AB6B" d="M225.023,146.235c-0.85,0-1.679-0.434-2.147-1.216c-0.709-1.185-0.324-2.72,0.861-3.429l34.825-20.853
			c1.184-0.71,2.72-0.325,3.429,0.861c0.709,1.185,0.324,2.72-0.861,3.429l-34.825,20.853
			C225.903,146.12,225.46,146.235,225.023,146.235z"/>
		<path fill="#81AB6B" d="M259.843,188.846c-0.437,0-0.879-0.115-1.282-0.355l-34.825-20.853c-1.185-0.709-1.57-2.245-0.861-3.429
			c0.709-1.185,2.244-1.571,3.429-0.861l34.825,20.853c1.185,0.709,1.57,2.245,0.861,3.429
			C261.521,188.412,260.693,188.846,259.843,188.846z"/>
		<path fill="#81AB6B" d="M263.676,155.142h-3.831c-1.381,0-2.5-1.119-2.5-2.5s1.119-2.5,2.5-2.5h3.831c1.381,0,2.5,1.119,2.5,2.5
			S265.057,155.142,263.676,155.142z"/>
		<path fill="#81AB6B" d="M247.928,155.142h-18.727c-1.381,0-2.5-1.119-2.5-2.5s1.119-2.5,2.5-2.5h18.727c1.381,0,2.5,1.119,2.5,2.5
			S249.309,155.142,247.928,155.142z"/>
	</g>
	<g>
		<path fill="#A7C497" d="M41.245,93.023l2.704,1.32l-2.133,4.369l5.117,2.498l2.133-4.369l2.704,1.32l-5.265,10.785l-2.704-1.319
			l2.125-4.354l-5.118-2.498l-2.125,4.354l-2.704-1.32L41.245,93.023z"/>
		<path fill="#A7C497" d="M56.873,100.652l3.071,1.499l-0.911,12.911l-2.887-1.409l0.146-2.237l-4.522-2.207l-1.673,1.491
			l-2.902-1.417L56.873,100.652z M56.443,108.937l0.347-4.353l-3.188,2.965L56.443,108.937z"/>
		<path fill="#A7C497" d="M69.522,106.827l2.704,1.32l-2.133,4.369l5.118,2.498l2.133-4.369l2.704,1.319l-5.265,10.786l-2.704-1.32
			l2.125-4.354l-5.118-2.498l-2.125,4.354l-2.705-1.319L69.522,106.827z"/>
		<path fill="#A7C497" d="M85.15,114.456l3.071,1.499l-0.911,12.911l-2.888-1.409l0.146-2.237l-4.522-2.208l-1.673,1.492
			l-2.903-1.417L85.15,114.456z M84.721,122.74l0.347-4.353l-3.188,2.965L84.721,122.74z"/>
	</g>
	<g>
		<path fill="#A7C497" d="M212.844,119.94l2.579-1.55l2.504,4.168l4.882-2.933l-2.504-4.167l2.579-1.55l6.182,10.288l-2.58,1.55
			l-2.495-4.153l-4.882,2.933l2.496,4.153l-2.58,1.55L212.844,119.94z"/>
		<path fill="#A7C497" d="M227.751,110.984l2.93-1.76l10.334,7.793l-2.754,1.654l-1.797-1.34l-4.314,2.591l0.34,2.216l-2.768,1.664
			L227.751,110.984z M234.465,115.855l-3.461-2.66l0.751,4.289L234.465,115.855z"/>
		<path fill="#A7C497" d="M239.816,103.735l2.579-1.55l2.504,4.167l4.883-2.933l-2.504-4.167l2.578-1.55l6.182,10.288l-2.579,1.55
			l-2.495-4.153l-4.882,2.933l2.495,4.153l-2.58,1.55L239.816,103.735z"/>
		<path fill="#A7C497" d="M254.724,94.779l2.93-1.76l10.334,7.793l-2.754,1.655l-1.797-1.341l-4.313,2.592l0.34,2.216l-2.769,1.663
			L254.724,94.779z M261.438,99.649l-3.462-2.66l0.751,4.289L261.438,99.649z"/>
	</g>
	<g>
		<path fill="#A7C497" d="M55.816,188.265l4.253-0.916l1.479,6.872l8.048-1.733l-1.479-6.872l4.252-0.916l3.653,16.962l-4.252,0.916
			l-1.475-6.847l-8.049,1.733l1.475,6.847l-4.253,0.916L55.816,188.265z"/>
		<path fill="#A7C497" d="M80.394,182.972l4.829-1.04l10.499,15.487l-4.54,0.978l-1.832-2.672l-7.111,1.532l-0.571,3.189
			l-4.564,0.983L80.394,182.972z M87.306,192.771l-3.495-5.256l-0.974,6.218L87.306,192.771z"/>
	</g>
</g>
</svg>
