<?xml version="1.0" encoding="utf-8"?>
<!-- Generator: Adobe Illustrator 16.0.0, SVG Export Plug-In . SVG Version: 6.00 Build 0)  -->
<!DOCTYPE svg PUBLIC "-//W3C//DTD SVG 1.1 Tiny//EN" "http://www.w3.org/Graphics/SVG/1.1/DTD/svg11-tiny.dtd">
<svg version="1.1" baseProfile="tiny" id="Layer_1" xmlns="http://www.w3.org/2000/svg" xmlns:xlink="http://www.w3.org/1999/xlink"
	 x="0px" y="0px" width="300px" height="300px" viewBox="0 0 300 300" xml:space="preserve">
<g>
	<g>
		<circle fill="#D52029" cx="150" cy="150" r="131.6"/>
	</g>
	<path fill="#F8AE32" d="M73.904,99.36c0,0-6.097,24.667,14.144,27.94c17.471,2.826,25.69,4.737,52.469,2.188
		c0,0,5.073-1.365,1.172-5.266s-4.519-4.353-0.669-5.073s-3.799-8.643-2.876-16.11S98.675,85.492,73.904,99.36z"/>
	<g>
		<path fill="#F06FB6" d="M245.146,165.56c-7.514-38.348-41.967-36.596-46.887-35.771c-4.98-0.256-36.368-2.156-42.468,40.981
			c0,0-4.124,63.294,50.943,63.265C233.036,234.022,245.146,165.56,245.146,165.56z"/>
		<path fill="#DDC2E0" d="M215.37,162.708c0.162,2.818-3.702,5.332-8.63,5.615l-11.345,0.653c-4.929,0.284-9.055-1.771-9.218-4.588
			l-1.5-26.057c-0.162-2.817,3.702-5.332,8.63-5.615l11.345-0.653c4.929-0.284,9.055,1.771,9.217,4.588L215.37,162.708z"/>
		<path fill="#393A39" d="M170.782,133.548c0.919-1.465,1.157-3.166,0.797-4.728c2.403-0.133,4.711-1.387,6.087-3.583
			c2.253-3.592,1.165-8.33-2.426-10.582c-3.592-2.252-8.33-1.166-10.582,2.427c-1.376,2.195-1.5,4.818-0.572,7.041
			c-1.564,0.356-2.99,1.31-3.909,2.776c-1.251,1.996-1.236,4.424-0.174,6.351c-1.458,0.151-2.834,0.944-3.673,2.282
			c-1.094,1.745-0.961,3.91,0.166,5.487c-1.472,0.107-3.394,0.69-4.693,2.765c-2.372,3.782-0.081,6.496-4.33,8.942
			c-4.248,2.446,2.362,3.876,5.361,2.402c2.881-1.416,9.597-2.808,8.505-12.121c1.336-0.229,2.573-0.998,3.35-2.237
			c0.838-1.338,0.952-2.922,0.454-4.301C167.337,136.589,169.531,135.544,170.782,133.548z"/>
		<path fill="#393A39" d="M226.538,130.34c-1.081-1.351-1.511-3.013-1.333-4.605c-2.403,0.144-4.839-0.837-6.459-2.861
			c-2.649-3.31-2.113-8.141,1.197-10.79c3.309-2.649,8.14-2.113,10.79,1.197c1.619,2.022,2.043,4.614,1.376,6.929
			c1.594,0.175,3.12,0.958,4.201,2.31c1.473,1.839,1.736,4.253,0.902,6.289c1.466-0.017,2.924,0.613,3.911,1.846
			c1.287,1.608,1.402,3.773,0.465,5.47c1.475-0.062,3.451,0.297,4.98,2.209c2.789,3.485,0.825,6.443,5.326,8.386
			c4.5,1.943-1.902,4.122-5.05,3.001c-3.024-1.075-9.855-1.688-9.838-11.065c-1.354-0.074-2.671-0.696-3.584-1.838
			c-0.986-1.233-1.282-2.793-0.945-4.221C230.309,132.965,228.01,132.179,226.538,130.34z"/>
		
			<rect x="153.864" y="140.23" transform="matrix(0.8472 0.5312 -0.5312 0.8472 99.7286 -62.7924)" fill="#F06FB6" width="10.356" height="3.545"/>
		<path fill="#F19574" d="M211.259,146.889c0.222,3.848-2.717,7.145-6.563,7.367l-8.855,0.509c-3.847,0.222-7.145-2.716-7.367-6.564
			l-2.047-35.577c-0.221-3.846,2.717-7.145,6.564-7.366l8.855-0.509c3.847-0.222,7.144,2.718,7.366,6.564L211.259,146.889z"/>
		<path fill="#F3A285" d="M225.883,102.694c0.808,14.042-9.917,26.076-23.958,26.884l-7.437,0.428
			c-14.04,0.808-26.077-9.917-26.885-23.958l-1.944-33.772c-0.808-14.04,9.919-26.077,23.958-26.885l7.437-0.428
			c14.041-0.808,26.077,9.918,26.885,23.958L225.883,102.694z"/>
		<g>
			<path fill="#F3A285" d="M167.515,85.766c-0.097,0.002-0.194,0.003-0.291,0.008c-5.26,0.303-9.277,4.813-8.975,10.073
				c0.303,5.259,4.811,9.278,10.071,8.976c0.097-0.006,0.193-0.016,0.29-0.023L167.515,85.766z"/>
			<path fill="#F08660" d="M167.78,90.37c-0.051,0.002-0.1,0.001-0.149,0.004c-2.715,0.156-4.789,2.483-4.633,5.199
				c0.156,2.714,2.483,4.787,5.199,4.631c0.049-0.003,0.098-0.007,0.149-0.012L167.78,90.37z"/>
		</g>
		<g>
			<path fill="#F3A285" d="M223.879,82.521c0.097-0.009,0.193-0.019,0.29-0.025c5.26-0.303,9.768,3.717,10.071,8.977
				c0.303,5.259-3.714,9.769-8.975,10.071c-0.097,0.005-0.194,0.007-0.291,0.01L223.879,82.521z"/>
			<path fill="#F08660" d="M224.145,87.126c0.051-0.004,0.1-0.01,0.149-0.013c2.715-0.156,5.042,1.918,5.199,4.633
				c0.156,2.714-1.917,5.041-4.633,5.197c-0.049,0.003-0.099,0.004-0.149,0.006L224.145,87.126z"/>
		</g>
		<path fill="#F6B9A3" d="M202.063,97.687c0.042,0.729-0.516,1.353-1.243,1.395l-8.07,0.464c-0.728,0.042-1.353-0.514-1.395-1.243
			l0,0c-0.042-0.729,0.515-1.352,1.243-1.394l8.07-0.464C201.396,96.402,202.021,96.958,202.063,97.687L202.063,97.687z"/>
		<path fill="#393A39" d="M192.891,43.165c0,0-31.597,2.006-30.164,26.912l0.942,16.366l3.846-0.677c0,0,3.012-7.496,2.516-16.109
			c0,0-0.168-6.189,4.888-6.48s12.733-0.733,12.733-0.733s6.35,0.01,6.059-5.046L192.891,43.165z"/>
		<path fill="#393A39" d="M192.287,43.2c0,0,31.618-1.632,33.051,23.274l0.942,16.366l-3.897-0.231c0,0-3.852-7.101-4.348-15.714
			c0,0-0.543-6.168-5.599-5.877c-5.057,0.292-12.734,0.733-12.734,0.733s-6.306,0.739-6.597-4.317L192.287,43.2z"/>
		<g>
			<path fill="#E6352B" d="M184.838,105.399c0.046,0.993,0.037,1.205,0.05,1.421c0.4,6.955,6.361,12.269,13.317,11.868
				c6.956-0.4,12.269-6.363,11.868-13.318c-0.012-0.216-0.047-0.426-0.114-1.417L184.838,105.399z"/>
			<path fill="#D50C00" d="M190.802,116.795c0,0,1.528-4.47,6.861-4.777c5.334-0.307,7.313,4.223,7.313,4.223
				s-2.668,2.201-7.254,2.464C193.133,118.969,190.802,116.795,190.802,116.795z"/>
			<path fill="#F28D92" d="M193.036,118.05c0,0,4.568,2.016,9.785-0.563C202.821,117.487,197.543,114.338,193.036,118.05z"/>
		</g>
		<path fill="#393A39" d="M183.693,79.105c0.266,0.851-0.208,1.757-1.059,2.022l-6.357,1.986c-0.851,0.266-1.756-0.208-2.022-1.06
			l0,0c-0.266-0.851,0.208-1.756,1.06-2.022l6.356-1.986C182.522,77.78,183.427,78.254,183.693,79.105L183.693,79.105z"/>
		<path fill="#393A39" d="M206.763,77.778c-0.167,0.875,0.41,1.721,1.285,1.887l6.543,1.243c0.876,0.167,1.721-0.409,1.886-1.284
			l0,0c0.167-0.876-0.408-1.721-1.283-1.888l-6.543-1.243C207.774,76.326,206.93,76.902,206.763,77.778L206.763,77.778z"/>
		<polygon fill="#FFFFFF" points="184.838,105.399 209.959,103.953 210.092,106.258 184.949,107.705 		"/>
		<path fill="#20275B" d="M183.979,90.38c0.109,1.9-1.464,1.396-3.365,1.506c-1.9,0.109-3.406,0.791-3.515-1.11
			c-0.109-1.9,1.342-3.529,3.242-3.638C182.241,87.028,183.869,88.48,183.979,90.38z"/>
		<path fill="#20275B" d="M215.254,88.58c0.109,1.9-1.488,1.002-3.387,1.111c-1.9,0.109-3.385,1.185-3.494-0.715
			s1.343-3.529,3.243-3.639S215.145,86.68,215.254,88.58z"/>
		<path fill="#F7C0AC" d="M184.882,93.945c-0.122,0-0.247-0.026-0.364-0.081c-4.564-2.129-7.45-0.541-7.478-0.524
			c-0.415,0.238-0.942,0.091-1.177-0.323c-0.236-0.415-0.091-0.941,0.323-1.177c0.149-0.086,3.701-2.043,9.062,0.459
			c0.432,0.202,0.619,0.715,0.417,1.147C185.519,93.76,185.208,93.945,184.882,93.945z"/>
		<path fill="#F7C0AC" d="M207.89,92.621c-0.29,0-0.573-0.146-0.736-0.411c-0.25-0.406-0.123-0.938,0.283-1.188
			c5.041-3.102,8.791-1.564,8.949-1.497c0.438,0.187,0.643,0.694,0.456,1.133c-0.186,0.437-0.688,0.64-1.127,0.458
			c-0.135-0.055-3.141-1.227-7.373,1.376C208.201,92.58,208.044,92.621,207.89,92.621z"/>
		<g>
			<circle fill="#F08660" cx="175.262" cy="97.515" r="0.764"/>
			<circle fill="#F08660" cx="179.318" cy="98.705" r="0.656"/>
			<circle fill="#F08660" cx="176.516" cy="100.599" r="0.76"/>
			<circle fill="#F08660" cx="173.845" cy="102.171" r="0.656"/>
			<circle fill="#F08660" cx="178.677" cy="104.228" r="0.957"/>
		</g>
		<g>
			<circle fill="#F08660" cx="218.564" cy="95.022" r="0.764"/>
			<circle fill="#F08660" cx="214.671" cy="96.67" r="0.656"/>
			<circle fill="#F08660" cx="217.673" cy="98.231" r="0.76"/>
			<circle fill="#F08660" cx="220.506" cy="99.485" r="0.656"/>
			<circle fill="#F08660" cx="215.942" cy="102.083" r="0.957"/>
		</g>
	</g>
	<g>
		<path fill="#FFFFFF" d="M56.917,165.56c7.514-38.348,41.967-36.596,46.887-35.771c4.98-0.256,36.368-2.156,42.468,40.981
			c0,0,8.642,52.934-45.739,52.934C46.517,223.705,56.917,165.56,56.917,165.56z"/>
		<path fill="#F19574" d="M90.804,146.889c-0.222,3.848,2.717,7.145,6.563,7.367l8.855,0.509c3.847,0.222,7.145-2.716,7.367-6.564
			l2.047-35.577c0.221-3.846-2.717-7.145-6.564-7.366l-8.855-0.509c-3.847-0.222-7.144,2.718-7.366,6.564L90.804,146.889z"/>
		<path fill="#F3A285" d="M76.18,102.694c-0.808,14.042,9.917,26.076,23.958,26.884l7.437,0.428
			c14.04,0.808,26.077-9.917,26.885-23.958l1.944-33.772c0.808-14.04-9.919-26.077-23.958-26.885l-7.437-0.428
			c-14.041-0.808-26.077,9.918-26.885,23.958L76.18,102.694z"/>
		<g>
			<path fill="#F3A285" d="M134.548,85.766c0.097,0.002,0.194,0.003,0.291,0.008c5.26,0.303,9.277,4.813,8.975,10.073
				c-0.303,5.259-4.811,9.278-10.071,8.976c-0.097-0.006-0.193-0.016-0.29-0.023L134.548,85.766z"/>
			<path fill="#F08660" d="M134.283,90.37c0.051,0.002,0.1,0.001,0.149,0.004c2.715,0.156,4.789,2.483,4.633,5.199
				c-0.156,2.714-2.483,4.787-5.199,4.631c-0.049-0.003-0.098-0.007-0.149-0.012L134.283,90.37z"/>
		</g>
		<g>
			<path fill="#F3A285" d="M78.184,82.521c-0.097-0.009-0.193-0.019-0.29-0.025c-5.26-0.303-9.768,3.717-10.071,8.977
				c-0.303,5.259,3.714,9.769,8.975,10.071c0.097,0.005,0.194,0.007,0.291,0.01L78.184,82.521z"/>
			<path fill="#F08660" d="M77.918,87.126c-0.051-0.004-0.1-0.01-0.149-0.013c-2.715-0.156-5.042,1.918-5.199,4.633
				c-0.156,2.714,1.917,5.041,4.633,5.197c0.049,0.003,0.099,0.004,0.149,0.006L77.918,87.126z"/>
		</g>
		<path fill="#F6B9A3" d="M100,97.687c-0.042,0.729,0.516,1.353,1.243,1.395l8.07,0.464c0.728,0.042,1.353-0.514,1.395-1.243l0,0
			c0.042-0.729-0.515-1.352-1.243-1.394l-8.07-0.464C100.667,96.402,100.042,96.958,100,97.687L100,97.687z"/>
		<path fill="#F8AE32" d="M109.172,43.165c0,0,31.597,2.006,30.164,26.912l-0.942,16.366l-3.846-0.677c0,0-3.012-7.496-2.516-16.109
			c0,0,0.168-6.189-4.888-6.48s-12.733-0.733-12.733-0.733s-6.35,0.01-6.059-5.046L109.172,43.165z"/>
		<path fill="#F8AE32" d="M109.776,43.2c0,0-31.618-1.632-33.051,23.274l-0.942,16.366l3.897-0.231c0,0,3.852-7.101,4.348-15.714
			c0,0,0.543-6.168,5.599-5.877c5.057,0.292,12.734,0.733,12.734,0.733s6.306,0.739,6.597-4.317L109.776,43.2z"/>
		<g>
			<path fill="#E6352B" d="M117.225,105.399c-0.046,0.993-0.037,1.205-0.05,1.421c-0.4,6.955-6.361,12.269-13.317,11.868
				c-6.956-0.4-12.269-6.363-11.868-13.318c0.012-0.216,0.047-0.426,0.114-1.417L117.225,105.399z"/>
			<path fill="#D50C00" d="M111.261,116.795c0,0-1.528-4.47-6.861-4.777c-5.334-0.307-7.313,4.223-7.313,4.223
				s2.668,2.201,7.254,2.464C108.93,118.969,111.261,116.795,111.261,116.795z"/>
			<path fill="#F28D92" d="M109.027,118.05c0,0-4.568,2.016-9.785-0.563C99.242,117.487,104.52,114.338,109.027,118.05z"/>
		</g>
		<path fill="#F8AE32" d="M118.37,79.105c-0.266,0.851,0.208,1.757,1.059,2.022l6.357,1.986c0.851,0.266,1.756-0.208,2.022-1.06l0,0
			c0.266-0.851-0.208-1.756-1.06-2.022l-6.356-1.986C119.541,77.78,118.636,78.254,118.37,79.105L118.37,79.105z"/>
		<path fill="#F8AE32" d="M95.3,77.778c0.167,0.875-0.41,1.721-1.285,1.887l-6.543,1.243c-0.876,0.167-1.721-0.409-1.886-1.284l0,0
			c-0.167-0.876,0.408-1.721,1.283-1.888l6.543-1.243C94.289,76.326,95.133,76.902,95.3,77.778L95.3,77.778z"/>
		<polygon fill="#FFFFFF" points="117.225,105.399 92.104,103.953 91.971,106.258 117.114,107.705 		"/>
		<path fill="#20275B" d="M118.084,90.38c-0.109,1.9,1.464,1.396,3.365,1.506c1.9,0.109,3.406,0.791,3.515-1.11
			c0.109-1.9-1.342-3.529-3.242-3.638C119.822,87.028,118.194,88.48,118.084,90.38z"/>
		<path fill="#20275B" d="M86.809,88.58c-0.109,1.9,1.488,1.002,3.387,1.111c1.9,0.109,3.385,1.185,3.494-0.715
			s-1.343-3.529-3.243-3.639S86.918,86.68,86.809,88.58z"/>
		<path fill="#F7C0AC" d="M117.181,93.945c-0.325,0-0.636-0.184-0.783-0.499c-0.202-0.432-0.015-0.945,0.417-1.147
			c5.362-2.501,8.914-0.543,9.062-0.459c0.414,0.236,0.559,0.763,0.323,1.177c-0.233,0.413-0.758,0.559-1.172,0.326
			c-0.125-0.067-2.978-1.58-7.483,0.521C117.427,93.919,117.303,93.945,117.181,93.945z"/>
		<path fill="#F7C0AC" d="M94.173,92.621c-0.154,0-0.311-0.042-0.451-0.128c-4.239-2.608-7.248-1.427-7.374-1.376
			c-0.439,0.18-0.944-0.028-1.126-0.465c-0.183-0.438,0.019-0.939,0.455-1.125c0.157-0.067,3.909-1.604,8.949,1.497
			c0.406,0.25,0.533,0.782,0.283,1.188C94.746,92.475,94.463,92.621,94.173,92.621z"/>
		<g>
			<circle fill="#F08660" cx="126.801" cy="97.515" r="0.764"/>
			<circle fill="#F08660" cx="122.745" cy="98.705" r="0.656"/>
			<circle fill="#F08660" cx="125.547" cy="100.599" r="0.76"/>
			<circle fill="#F08660" cx="128.218" cy="102.171" r="0.656"/>
			<circle fill="#F08660" cx="123.385" cy="104.228" r="0.957"/>
		</g>
		<g>
			<circle fill="#F08660" cx="83.499" cy="95.022" r="0.764"/>
			<circle fill="#F08660" cx="87.392" cy="96.67" r="0.656"/>
			<circle fill="#F08660" cx="84.39" cy="98.231" r="0.76"/>
			<circle fill="#F08660" cx="81.557" cy="99.485" r="0.656"/>
			<circle fill="#F08660" cx="86.121" cy="102.083" r="0.957"/>
		</g>
	</g>
	<g>
		<path fill="#895D39" d="M119.023,202.478c0,0-4.962,1.718-3.905,6.015s5.158,5.923,2.563,8.518s-2.165,5.126-0.685,6.605
			s3.708,3.13,2.026,4.812s-7.49,4.353-5.484,6.358s2.947,3.438,2.947,5.5s-0.114,4.19,1.195,5.499s65.25,1.008,65.25,1.008
			s2.941-4.413,0.159-7.195s-4.526-5.215-2.695-7.046s0.333-4.661-1.537-6.53s-1.685-4.784,0-6.468s6.746-8.342-0.551-15.638
			S119.023,202.478,119.023,202.478z"/>
		<path fill="#2EDEFF" d="M194.477,273.892c-5.298-38.717-39.795-43.873-44.754-43.331c-4.958-0.542-36.184,0.023-44.752,42.739
			c0,0,17.266,8.299,45.019,8.299C176.291,281.6,194.477,273.892,194.477,273.892z"/>
		<path fill="#F19574" d="M161.719,248.379c0,3.854-3.123,6.977-6.976,6.977h-8.87c-3.854,0-6.977-3.123-6.977-6.977v-35.636
			c0-3.853,3.124-6.977,6.977-6.977h8.87c3.853,0,6.976,3.124,6.976,6.977V248.379z"/>
		<path fill="#F3A285" d="M178.859,205.098c0,14.065-11.399,25.463-25.463,25.463h-7.449c-14.063,0-25.464-11.398-25.464-25.463
			V171.27c0-14.063,11.401-25.463,25.464-25.463h7.449c14.064,0,25.463,11.4,25.463,25.463V205.098z"/>
		<g>
			<path fill="#F3A285" d="M121.56,184.844c-0.097-0.003-0.193-0.008-0.291-0.008c-5.269,0-9.539,4.272-9.539,9.541
				c0,5.268,4.27,9.539,9.539,9.539c0.097,0,0.194-0.004,0.291-0.007V184.844z"/>
			<path fill="#F08660" d="M121.56,189.456c-0.051-0.001-0.1-0.004-0.149-0.004c-2.72,0-4.924,2.204-4.924,4.924
				c0,2.719,2.204,4.922,4.924,4.922c0.049,0,0.099-0.001,0.149-0.003V189.456z"/>
		</g>
		<g>
			<path fill="#F3A285" d="M178.018,184.844c0.097-0.003,0.193-0.008,0.291-0.008c5.269,0,9.539,4.272,9.539,9.541
				c0,5.268-4.27,9.539-9.539,9.539c-0.097,0-0.194-0.004-0.291-0.007V184.844z"/>
			<path fill="#F08660" d="M178.018,189.456c0.051-0.001,0.1-0.004,0.149-0.004c2.72,0,4.924,2.204,4.924,4.924
				c0,2.719-2.204,4.922-4.924,4.922c-0.049,0-0.099-0.001-0.149-0.003V189.456z"/>
		</g>
		<path fill="#F6B9A3" d="M155.366,198.73c0,0.729-0.593,1.321-1.321,1.321h-8.083c-0.729,0-1.32-0.591-1.32-1.321l0,0
			c0-0.729,0.591-1.32,1.32-1.32h8.083C154.773,197.41,155.366,198,155.366,198.73L155.366,198.73z"/>
		<path fill="#895D39" d="M149.342,143.771c0,0-31.66,0.188-31.66,25.134v16.393l3.878-0.455c0,0,3.438-7.31,3.438-15.938
			c0,0,0.188-6.189,5.252-6.189c5.064,0,12.754,0,12.754,0s6.338,0.375,6.338-4.689V143.771z"/>
		<path fill="#895D39" d="M148.736,143.771c0,0,31.659,0.188,31.659,25.134v16.393l-3.877-0.455c0,0-3.438-7.31-3.438-15.938
			c0,0-0.188-6.189-5.251-6.189c-5.065,0-12.755,0-12.755,0s-6.338,0.375-6.338-4.689V143.771z"/>
		<g>
			<path fill="#E6352B" d="M137.727,205.44c-0.011,0.994-0.032,1.205-0.032,1.422c0,6.966,5.646,12.614,12.613,12.614
				c6.967,0,12.614-5.647,12.614-12.614c0-0.217-0.022-0.428-0.033-1.422H137.727z"/>
			<path fill="#D50C00" d="M143.025,217.16c0,0,1.782-4.375,7.125-4.375c5.343,0,7.059,4.636,7.059,4.636s-2.79,2.043-7.384,2.043
				C145.228,219.464,143.025,217.16,143.025,217.16z"/>
			<path fill="#F28D92" d="M145.184,218.542c0,0,4.444,2.275,9.801,0C154.984,218.542,149.896,215.095,145.184,218.542z"/>
		</g>
		<path fill="#895D39" d="M138.094,179.124c0.216,0.865-0.309,1.742-1.174,1.958l-6.46,1.617c-0.865,0.217-1.742-0.309-1.958-1.174
			l0,0c-0.217-0.865,0.309-1.742,1.175-1.958l6.459-1.617C137.001,177.733,137.877,178.259,138.094,179.124L138.094,179.124z"/>
		<path fill="#895D39" d="M161.202,179.124c-0.217,0.865,0.31,1.742,1.174,1.958l6.461,1.617c0.865,0.217,1.741-0.309,1.957-1.174
			l0,0c0.217-0.865-0.309-1.742-1.173-1.958l-6.46-1.617C162.295,177.733,161.419,178.259,161.202,179.124L161.202,179.124z"/>
		<path fill="#20275B" d="M137.731,190.396c0,1.903-1.542,1.31-3.446,1.31c-1.903,0-3.446,0.594-3.446-1.31s1.543-3.446,3.446-3.446
			C136.188,186.95,137.731,188.493,137.731,190.396z"/>
		<path fill="#20275B" d="M169.058,190.396c0,1.903-1.543,0.915-3.446,0.915c-1.903,0-3.447,0.988-3.447-0.915
			s1.543-3.446,3.447-3.446C167.515,186.95,169.058,188.493,169.058,190.396z"/>
		<path fill="#895D39" d="M121.56,184.844c0,0,35.157,0.792,47.108-22.064c0,0-2.687-12.029-18.997-8.592
			s-25.271,2.921-27.149,13.404S121.56,184.844,121.56,184.844z"/>
		<path fill="#FFFFFF" d="M139.719,205.44h21.435C161.153,205.44,150.116,211.07,139.719,205.44z"/>
		<circle fill="#2EDEFF" cx="118.895" cy="201.264" r="1.213"/>
		<circle fill="#2EDEFF" cx="179.997" cy="201.391" r="1.138"/>
		<path fill="#F08F6C" d="M122.973,184.835c0,0,34-0.192,45.308-21.349C168.281,163.486,161.563,191.252,122.973,184.835z"/>
	</g>
	<g>
		<path fill="#F8AE32" d="M263.802,216.125c-7.738-9.434-22.214-8.428-27.058-7.237c-4.986,0.117-42.267,10.665-37.268,63.09
			c0,0,13.504-3.511,34.699-20.82C255.142,234.036,263.802,216.125,263.802,216.125z"/>
		<path fill="#F19574" d="M250.986,224.968c0.508,3.821-2.175,7.328-5.995,7.836l-8.792,1.17c-3.82,0.508-7.328-2.175-7.836-5.996
			l-4.702-35.324c-0.508-3.819,2.176-7.328,5.996-7.836l8.792-1.17c3.819-0.508,7.327,2.176,7.835,5.995L250.986,224.968z"/>
		<path fill="#F3A285" d="M262.266,179.803c1.856,13.942-7.94,26.745-21.881,28.601l-7.383,0.983
			c-13.94,1.855-26.745-7.939-28.601-21.881l-4.463-33.532c-1.855-13.94,7.941-26.745,21.882-28.601l7.383-0.983
			c13.941-1.855,26.745,7.941,28.601,21.881L262.266,179.803z"/>
		<g>
			<path fill="#F3A285" d="M202.795,167.286c-0.096,0.009-0.193,0.017-0.289,0.03c-5.223,0.695-8.892,5.494-8.196,10.716
				c0.695,5.222,5.491,8.893,10.714,8.197c0.096-0.013,0.191-0.03,0.287-0.045L202.795,167.286z"/>
			<path fill="#F08660" d="M203.404,171.858c-0.051,0.006-0.1,0.009-0.149,0.016c-2.696,0.358-4.59,2.834-4.231,5.531
				c0.358,2.695,2.834,4.588,5.53,4.229c0.049-0.006,0.097-0.014,0.147-0.022L203.404,171.858z"/>
		</g>
		<g>
			<path fill="#F3A285" d="M258.759,159.837c0.096-0.017,0.191-0.034,0.287-0.047c5.223-0.695,10.019,2.977,10.714,8.199
				c0.695,5.221-2.974,10.019-8.197,10.714c-0.096,0.013-0.192,0.021-0.289,0.031L258.759,159.837z"/>
			<path fill="#F08660" d="M259.368,164.409c0.05-0.008,0.099-0.018,0.147-0.024c2.696-0.359,5.171,1.535,5.53,4.231
				c0.359,2.695-1.535,5.17-4.231,5.528c-0.049,0.007-0.098,0.012-0.148,0.017L259.368,164.409z"/>
		</g>
		<path fill="#F6B9A3" d="M238.138,176.59c0.096,0.723-0.413,1.388-1.135,1.484l-8.013,1.066c-0.723,0.096-1.387-0.412-1.483-1.135
			l0,0c-0.096-0.723,0.412-1.387,1.135-1.483l8.013-1.066C237.376,175.36,238.042,175.867,238.138,176.59L238.138,176.59z"/>
		<g>
			<path fill="#E6352B" d="M221.538,185.569c0.12,0.986,0.127,1.199,0.156,1.414c0.919,6.905,7.26,11.759,14.167,10.839
				c6.906-0.919,11.759-7.262,10.84-14.168c-0.028-0.215-0.079-0.421-0.22-1.405L221.538,185.569z"/>
			<path fill="#D50C00" d="M228.336,196.488c0,0,1.189-4.572,6.485-5.276c5.297-0.705,7.609,3.664,7.609,3.664s-2.496,2.394-7.05,3
				C230.824,198.481,228.336,196.488,228.336,196.488z"/>
			<path fill="#F28D92" d="M230.659,197.572c0,0,4.706,1.669,9.715-1.293C240.374,196.279,234.875,193.534,230.659,197.572z"/>
		</g>
		<path fill="#20275B" d="M219.558,170.657c0.251,1.887-1.356,1.501-3.243,1.753c-1.886,0.251-3.337,1.043-3.588-0.844
			c-0.251-1.887,1.075-3.62,2.961-3.871C217.574,167.444,219.307,168.77,219.558,170.657z"/>
		<path fill="#20275B" d="M250.611,166.523c0.251,1.887-1.409,1.11-3.295,1.362c-1.887,0.251-3.286,1.434-3.537-0.453
			c-0.251-1.887,1.075-3.62,2.962-3.871C248.627,163.311,250.36,164.637,250.611,166.523z"/>
		<path fill="#FFFFFF" d="M223.513,185.306l21.248-2.828C244.76,182.478,234.562,189.515,223.513,185.306z"/>
		<path fill="#895D39" d="M201.209,163.531l0.522,3.925c0,0,6.361-2.349,7.425-4.685
			C209.156,162.771,204.702,163.585,201.209,163.531z"/>
		<path fill="#895D39" d="M225.036,160.566c0,0,10.365,5.125,13.784,3.775s-0.643-3.224,1.553-3.775s9.176,1.257,10.263-0.86
			s-2.595-5.865-2.595-5.865L225.036,160.566z"/>
		<g>
			<path fill="#734390" d="M199.768,161.78c0,0,36.629-2.896,59.601-11.78c0,0-0.609-35.869-35.855-30.252
				C192.843,124.635,197.291,150,197.291,150L199.768,161.78z"/>
			<path fill="#9875AD" d="M199.767,163.78c-1.076,0-1.964-0.854-1.998-1.937c-0.035-1.104,0.832-2.027,1.936-2.062
				c0.375-0.012,37.934-1.369,74.468-17.101c1.015-0.436,2.191,0.031,2.628,1.046c0.437,1.015-0.031,2.191-1.046,2.628
				c-37.256,16.043-75.542,17.413-75.925,17.425C199.809,163.78,199.788,163.78,199.767,163.78z"/>
			<path fill="#693688" d="M221.538,121.525c0,0,22.21,8.656,22.21,29.681l14.18-3.997
				C257.928,147.209,254.083,113.919,221.538,121.525z"/>
		</g>
		<path fill="#895D39" d="M258.718,153.149l0.877,6.589c0,0-4.904-0.77-7.992-4.808c0,0,4.378-1.278,7.058-2.226L258.718,153.149z"
			/>
	</g>
	<g>
		<g>
			<path fill="#8BBF26" d="M100.515,271.979c0-53.46-34.891-61.528-39.877-61.689c-4.832-1.234-17.45-5.472-26.002,3.081
				c0,0,5.427,14.711,27.811,34.879C81.672,265.572,100.515,271.979,100.515,271.979z"/>
			<path fill="#F19574" d="M70.008,224.686c-0.542,3.816-4.073,6.468-7.888,5.926l-8.782-1.248
				c-3.815-0.542-6.469-4.073-5.926-7.889l5.014-35.281c0.542-3.814,4.074-6.468,7.889-5.926l8.782,1.248
				c3.815,0.542,6.467,4.074,5.925,7.889L70.008,224.686z"/>
			<path fill="#F3A285" d="M93.066,189.178c-1.979,13.925-14.869,23.606-28.792,21.628l-7.375-1.048
				c-13.923-1.979-23.607-14.868-21.628-28.793l4.759-33.491c1.979-13.923,14.87-23.606,28.793-21.628l7.375,1.048
				c13.924,1.979,23.606,14.87,21.627,28.793L93.066,189.178z"/>
			<g>
				<path fill="#F3A285" d="M39.187,161.063c-0.095-0.017-0.19-0.035-0.287-0.049c-5.217-0.741-10.045,2.888-10.786,8.104
					c-0.741,5.215,2.885,10.045,8.102,10.786c0.096,0.014,0.192,0.023,0.289,0.034L39.187,161.063z"/>
				<path fill="#F08660" d="M38.538,165.63c-0.05-0.008-0.099-0.019-0.147-0.025c-2.693-0.382-5.185,1.49-5.568,4.183
					c-0.382,2.692,1.49,5.183,4.183,5.566c0.049,0.007,0.098,0.012,0.148,0.018L38.538,165.63z"/>
			</g>
			<g>
				<path fill="#F3A285" d="M95.083,169.007c0.096,0.01,0.192,0.019,0.289,0.032c5.217,0.741,8.843,5.572,8.102,10.788
					s-5.569,8.844-10.786,8.103c-0.096-0.014-0.191-0.032-0.287-0.048L95.083,169.007z"/>
				<path fill="#F08660" d="M94.434,173.573c0.05,0.006,0.1,0.009,0.148,0.017c2.693,0.382,4.565,2.875,4.182,5.568
					c-0.383,2.692-2.875,4.563-5.567,4.18c-0.049-0.007-0.098-0.015-0.147-0.024L94.434,173.573z"/>
			</g>
			<path fill="#F6B9A3" d="M70.703,179.568c-0.103,0.722-0.772,1.224-1.494,1.122l-8.003-1.137
				c-0.722-0.103-1.224-0.771-1.121-1.494l0,0c0.103-0.722,0.771-1.224,1.493-1.122l8.003,1.137
				C70.302,178.177,70.806,178.846,70.703,179.568L70.703,179.568z"/>
			<path fill="#393A39" d="M72.471,124.309c0,0-31.372-4.269-34.881,20.43l-2.306,16.23l3.903,0.095c0,0,4.432-6.754,5.646-15.296
				c0,0,1.056-6.102,6.07-5.389c5.014,0.712,12.627,1.794,12.627,1.794s6.223,1.263,6.935-3.751L72.471,124.309z"/>
			<path fill="#393A39" d="M71.871,124.223c0,0,31.318,4.64,27.808,29.338l-2.306,16.23l-3.775-0.996c0,0-2.375-7.721-1.161-16.264
				c0,0,0.685-6.154-4.328-6.866c-5.015-0.713-12.628-1.795-12.628-1.795s-6.328-0.52-5.615-5.534L71.871,124.223z"/>
			<g>
				<path fill="#E6352B" d="M52.295,183.729c-0.151,0.982-0.202,1.188-0.232,1.403c-0.98,6.897,3.815,13.282,10.713,14.263
					c6.898,0.98,13.283-3.816,14.263-10.714c0.031-0.214,0.038-0.427,0.167-1.412L52.295,183.729z"/>
				<path fill="#D50C00" d="M55.892,196.079c0,0,2.38-4.081,7.669-3.329c5.29,0.751,6.336,5.583,6.336,5.583
					s-3.05,1.631-7.598,0.984C57.748,198.67,55.892,196.079,55.892,196.079z"/>
				<path fill="#F28D92" d="M57.834,197.75c0,0,4.08,2.878,9.704,1.379C67.538,199.129,62.985,195,57.834,197.75z"/>
			</g>
			<path fill="#895D39" d="M56.361,157.727c0.092,0.886-0.551,1.681-1.438,1.773l-6.624,0.692c-0.886,0.093-1.681-0.551-1.773-1.438
				l0,0c-0.093-0.887,0.551-1.681,1.439-1.773l6.623-0.692C55.475,156.196,56.268,156.84,56.361,157.727L56.361,157.727z"/>
			<path fill="#393A39" d="M79.239,160.978c-0.336,0.826,0.062,1.769,0.887,2.104l6.169,2.51c0.826,0.336,1.768-0.061,2.103-0.887
				l0,0c0.336-0.826-0.061-1.768-0.886-2.104l-6.168-2.51C80.517,159.755,79.576,160.152,79.239,160.978L79.239,160.978z"/>
			<path fill="#393A39" d="M39.187,161.063c0,0,34.695,5.73,49.744-15.217c0,0-0.968-12.288-17.6-11.18
				c-16.631,1.108-25.431-0.663-28.765,9.452C39.232,154.232,39.187,161.063,39.187,161.063z"/>
			<path fill="#FFFFFF" d="M54.267,184.01l21.222,3.016C75.489,187.025,63.77,191.046,54.267,184.01z"/>
		</g>
		<path fill="#F08660" d="M82.78,175.642c-0.256,0-0.512-0.098-0.707-0.293c-2.25-2.249-5.778-2.781-5.813-2.787
			c-0.466-0.067-0.822-0.45-0.855-0.918c-0.033-0.469,0.264-0.898,0.715-1.031c0.35-0.103,8.588-2.446,11.918,3.175
			c0.282,0.475,0.125,1.088-0.351,1.37s-1.088,0.125-1.37-0.351c-1.198-2.022-3.399-2.646-5.395-2.74
			c0.881,0.47,1.778,1.08,2.565,1.867c0.391,0.391,0.391,1.023,0,1.414C83.292,175.544,83.036,175.642,82.78,175.642z"/>
		<path fill="#F08660" d="M57.093,169.907c-0.159,0-0.319-0.038-0.467-0.116c-0.032-0.016-3.195-1.662-6.339-1.168
			c-0.547,0.086-1.058-0.287-1.144-0.832c-0.086-0.546,0.287-1.058,0.832-1.144c1.1-0.173,2.183-0.139,3.171,0
			c-1.669-1.1-3.815-1.891-5.974-0.96c-0.509,0.217-1.095-0.016-1.314-0.523c-0.218-0.507,0.016-1.096,0.523-1.314
			c6.002-2.585,11.282,4.159,11.504,4.448c0.287,0.373,0.274,0.895-0.029,1.254C57.663,169.783,57.38,169.907,57.093,169.907z"/>
		<path fill="#FCEBE5" d="M88.931,145.846c0,0-7.866,15.934-14.526,16.336c-3.989,0.241-3.688-1.251-3.688-1.251
			s-7.869,8.206-17.411,5.757c0,0-2.059-0.994-0.72-2.333c0,0-9.798,3.997-12.92-2.576C39.666,161.78,48.325,138.964,88.931,145.846
			z"/>
		<path fill="#393A39" d="M88.931,145.846c0,0-10.53,13.646-14.526,13.646s-3.688-1.251-3.688-1.251s-7.869,8.206-17.411,5.757
			c0,0-2.059-0.994-0.72-2.333c0,0-8.548,3.225-13.399-0.602C39.187,161.063,48.325,138.964,88.931,145.846z"/>
	</g>
	<path fill="#F8AE32" d="M79.68,82.608c0,0,32.351,4.721,50.61-18.056c0,0-4.178-11.573-21.077-11.573S81.177,53.471,79.68,67.996
		S79.68,82.608,79.68,82.608z"/>
	<path fill="#FCEBE5" d="M128.218,66.952c0,0-12.969,18.496-48.538,15.656C79.68,82.608,111.065,92.632,128.218,66.952z"/>
	<g>
		<path fill="#E2676D" d="M58.746,102.142c-0.359,0-0.723-0.097-1.051-0.3l-11.407-7.06c-0.939-0.582-1.229-1.814-0.648-2.753
			c0.582-0.94,1.813-1.229,2.753-0.648l11.407,7.06c0.939,0.582,1.229,1.814,0.648,2.753
			C60.07,101.805,59.416,102.142,58.746,102.142z"/>
		<path fill="#E2676D" d="M46.78,122.396c-0.691,0-1.363-0.359-1.734-1c-0.552-0.957-0.225-2.18,0.732-2.732l11.97-6.913
			c0.957-0.554,2.179-0.225,2.732,0.732c0.552,0.957,0.225,2.18-0.732,2.732l-11.97,6.913
			C47.463,122.31,47.119,122.396,46.78,122.396z"/>
		<path fill="#E2676D" d="M51.443,109.705H39.666c-1.104,0-2-0.896-2-2s0.896-2,2-2h11.778c1.104,0,2,0.896,2,2
			S52.548,109.705,51.443,109.705z"/>
	</g>
	<g>
		<path fill="#E2676D" d="M239.224,102.142c-0.67,0-1.324-0.336-1.703-0.948c-0.581-0.939-0.291-2.172,0.648-2.753l11.407-7.06
			c0.941-0.581,2.172-0.291,2.753,0.648c0.581,0.939,0.291,2.172-0.648,2.753l-11.407,7.06
			C239.946,102.044,239.583,102.142,239.224,102.142z"/>
		<path fill="#E2676D" d="M251.19,122.396c-0.339,0-0.683-0.086-0.998-0.269l-11.97-6.913c-0.957-0.552-1.284-1.775-0.732-2.732
			c0.553-0.957,1.775-1.286,2.732-0.732l11.97,6.913c0.957,0.552,1.284,1.775,0.732,2.732
			C252.553,122.037,251.881,122.396,251.19,122.396z"/>
		<path fill="#E2676D" d="M258.304,109.705h-11.778c-1.104,0-2-0.896-2-2s0.896-2,2-2h11.778c1.104,0,2,0.896,2,2
			S259.409,109.705,258.304,109.705z"/>
	</g>
	<path fill="#E2676D" d="M31.272,155.841c-0.412,0-0.827-0.126-1.184-0.389l-7.685-5.653c-0.89-0.654-1.081-1.906-0.426-2.796
		c0.654-0.89,1.906-1.081,2.796-0.426l7.685,5.653c0.89,0.654,1.081,1.906,0.426,2.796
		C32.493,155.559,31.886,155.841,31.272,155.841z"/>
	<path fill="#E2676D" d="M267.619,187.798c-0.72,0-1.415-0.39-1.772-1.072c-0.513-0.978-0.136-2.187,0.842-2.7l5.815-3.05
		c0.977-0.514,2.187-0.137,2.7,0.842c0.513,0.978,0.136,2.187-0.842,2.7l-5.815,3.05
		C268.25,187.725,267.932,187.798,267.619,187.798z"/>
</g>
</svg>
