<?xml version="1.0" encoding="utf-8"?>
<!-- Generator: Adobe Illustrator 17.0.0, SVG Export Plug-In . SVG Version: 6.00 Build 0)  -->
<!DOCTYPE svg PUBLIC "-//W3C//DTD SVG 1.1//EN" "http://www.w3.org/Graphics/SVG/1.1/DTD/svg11.dtd">
<svg version="1.1" id="Layer_1" xmlns="http://www.w3.org/2000/svg" xmlns:xlink="http://www.w3.org/1999/xlink" x="0px" y="0px"
	 width="512px" height="512px" viewBox="0 0 512 512" enable-background="new 0 0 512 512" xml:space="preserve">
<g>
	<g>
		<path fill="#FED401" d="M256,31C131.747,31,31,131.747,31,256s100.747,225,225,225s225-100.747,225-225S380.253,31,256,31z"/>
	</g>
	<g>
		<g id="XMLID_2135_">
			<g id="XMLID_2379_">
				<g id="XMLID_2453_">
					<g id="XMLID_2455_">
						<line fill="#E15A59" x1="311.002" y1="153.205" x2="348.097" y2="188.414"/>
					</g>
					<g id="XMLID_2454_">
						<path fill="#DBAA94" d="M345.492,193.817c-0.545-0.263-1.06-0.614-1.523-1.054l-37.095-35.208
							c-2.402-2.28-2.501-6.076-0.221-8.479c2.28-2.402,6.075-2.503,8.478-0.221l37.095,35.208c2.402,2.28,2.501,6.076,0.221,8.478
							C350.606,194.482,347.777,194.92,345.492,193.817z"/>
						<path fill="#640C19" d="M349.612,195.155c-1.518,0.34-3.122,0.159-4.518-0.516c-0.64-0.31-1.23-0.717-1.755-1.212
							l-37.095-35.209c-2.764-2.624-2.878-7.007-0.254-9.771c0.948-0.999,2.157-1.685,3.495-1.985
							c2.255-0.505,4.599,0.141,6.274,1.731l37.095,35.208c2.764,2.624,2.878,7.007,0.255,9.769
							C352.161,194.169,350.953,194.855,349.612,195.155z M309.886,148.245c-0.984,0.22-1.873,0.725-2.571,1.459
							c-1.928,2.034-1.845,5.259,0.187,7.189l37.095,35.208c0.385,0.365,0.822,0.666,1.292,0.893
							c1.932,0.929,4.407,0.486,5.897-1.082c1.929-2.032,1.844-5.257-0.188-7.187l-37.095-35.208
							C313.27,148.35,311.545,147.873,309.886,148.245z"/>
					</g>
				</g>
				<g id="XMLID_2451_">
					<g id="XMLID_2452_">
						<path fill="#640C19" d="M314.015,251.213c-0.526-0.123-1.048-0.299-1.558-0.531l-45.508-20.65
							c-0.815-0.369-1.678-0.618-2.566-0.738l-40.76-5.186c-4.559-0.581-7.792-4.751-7.212-9.314
							c0.581-4.564,4.751-7.792,9.314-7.212l40.826,5.195c2.562,0.347,4.988,1.045,7.281,2.085l45.509,20.65
							c4.189,1.901,6.044,6.838,4.143,11.027C321.814,250.218,317.804,252.096,314.015,251.213z"/>
					</g>
				</g>
				<g id="XMLID_2449_">
					<g id="XMLID_2450_">
						<path fill="#640C19" d="M246.079,269.057c-0.699-0.465-1.339-1.043-1.892-1.734c-2.876-3.591-2.297-8.833,1.294-11.708
							l34.734-27.821c4.849-3.885,11.4-4.753,17.094-2.265l48.595,21.552c0,0-2.528,3.051-5.931,6.193
							c-3.701,3.416-9.658,4.878-15.3,2.404l-34.032-14.883l-34.746,27.823C252.995,270.94,249.017,271.008,246.079,269.057z"/>
						<path fill="#640C19" d="M333.818,257.46c-3.182,0.713-6.472,0.385-9.512-0.947l-33.524-14.661l-34.315,27.478
							c-3.081,2.47-7.631,2.656-10.894,0.487c-0.791-0.528-1.497-1.175-2.099-1.923c-1.544-1.927-2.245-4.338-1.974-6.793
							c0.273-2.454,1.483-4.657,3.41-6.2l34.734-27.821c2.087-1.671,4.56-2.862,7.153-3.443c3.661-0.821,7.423-0.457,10.879,1.052
							l49.702,22.042l-0.77,0.93c-0.105,0.126-2.607,3.135-6.014,6.281C338.724,255.669,336.382,256.886,333.818,257.46z
							 M290.501,239.735l34.538,15.103c2.683,1.176,5.58,1.466,8.379,0.839c2.249-0.504,4.302-1.569,5.935-3.076
							c2.212-2.041,4.06-4.058,5.056-5.187l-47.47-21.052c-3.093-1.351-6.462-1.676-9.742-0.941
							c-2.322,0.521-4.539,1.588-6.41,3.086l-34.734,27.821c-1.547,1.239-2.519,3.005-2.736,4.974s0.345,3.905,1.584,5.45
							c0.482,0.601,1.049,1.122,1.684,1.544c2.616,1.737,6.26,1.59,8.74-0.392L290.501,239.735z"/>
					</g>
				</g>
				<g id="XMLID_2409_">
					<g id="XMLID_2448_">
						<path fill="#DBAA94" d="M366.991,200.88L366.991,200.88c-0.369,16.595-7.163,32.399-18.952,44.084l-2.135,2.116l-31.023-14.16
							l1.136-1.106c12.244-11.922,19.408-28.113,19.995-45.193l0,0c2.044-4.478,7.331-6.452,11.809-4.408l14.707,6.713
							C367.062,190.995,369.06,196.347,366.991,200.88z"/>
					</g>
					<g id="XMLID_2447_">
						<path fill="#FFEDDA" d="M362.917,181.046l-2.319,5.082c-0.071,0.155-0.147,0.305-0.229,0.451
							c-1.561,2.804-5.04,3.981-8.012,2.625l-4.126-1.883c-1.418-0.647-2.043-2.322-1.396-3.74l2.874-6.298L362.917,181.046z"/>
						<path fill="#640C19" d="M356.495,190.508c-1.529,0.343-3.09,0.179-4.518-0.474l-4.125-1.884
							c-0.908-0.413-1.599-1.155-1.949-2.09c-0.35-0.934-0.313-1.95,0.102-2.859l3.2-7.013l14.984,4.27l-2.76,6.047
							c-0.081,0.179-0.17,0.353-0.263,0.522C360.181,188.793,358.478,190.063,356.495,190.508z M350.214,178.376l-2.548,5.583
							c-0.212,0.464-0.231,0.984-0.053,1.462c0.178,0.477,0.532,0.857,0.996,1.068l4.125,1.884c2.448,1.119,5.54,0.091,6.836-2.238
							c0.072-0.128,0.136-0.252,0.196-0.384l1.878-4.118L350.214,178.376z"/>
					</g>
					<g id="XMLID_2445_">
						<path fill="#FBD3B7" d="M362.7,181.521l-2.102,4.606c-0.071,0.155-0.147,0.305-0.229,0.451
							c-2.3,0.155-4.671-0.247-6.917-1.272l-2.133-0.974c-1.411-0.644-2.637-1.524-3.652-2.574
							c-0.015-0.011-0.025-0.023-0.038-0.037l1.806-3.956l0.048,0.014L362.7,181.521z"/>
					</g>
					<g id="XMLID_2444_">
						<path fill="#640C19" d="M356.471,190.497c-1.527,0.342-3.088,0.178-4.516-0.472l-4.978-2.272
							c-1.404-0.642-2.025-2.305-1.385-3.708l3.591-7.866l14.985,4.271l-2.762,6.048c-0.08,0.175-0.167,0.348-0.262,0.518
							C360.158,188.782,358.454,190.052,356.471,190.497z M350.192,178.365l-2.938,6.436c-0.221,0.488-0.006,1.066,0.483,1.289
							l4.976,2.273c2.446,1.114,5.542,0.089,6.835-2.24c0.071-0.126,0.136-0.25,0.193-0.38l1.881-4.121L350.192,178.365z"/>
					</g>
					<g id="XMLID_2443_">
						<path fill="#FFEDDA" d="M374.356,164.025l-4.148,9.152l0,0c-3.285,7.256-11.831,10.475-19.086,7.189l-2.136-0.967
							c-6.072-2.75-8.765-9.902-6.015-15.974l5.344-11.798l0.74-1.634c1.685-3.721,6.068-5.372,9.79-3.687l12.79,5.791
							c3.722,1.685,5.373,6.069,3.687,9.791l-1.469,3.244"/>
					</g>
					<g id="XMLID_2442_">
						
							<rect x="346.59" y="154.1" transform="matrix(0.9109 0.4126 -0.4126 0.9109 95.5829 -130.2032)" fill="#FBD3B7" width="5.452" height="4.299"/>
					</g>
					<g id="XMLID_2441_">
						<path fill="#FBD3B7" d="M360.086,163.571l-3.139-1.422c-1.066-0.483-1.539-1.738-1.056-2.804l0.9-1.987l6.875,3.114
							l-0.956,2.111C362.258,163.58,361.083,164.022,360.086,163.571z"/>
					</g>
					<g id="XMLID_2439_">
						<path fill="#FBD3B7" d="M374.355,164.026l-4.149,9.152c-0.001,0.003-0.001,0.003-0.003,0.006
							c-3.284,7.251-11.83,10.466-19.08,7.182l-2.136-0.967c-0.139-0.063-0.281-0.131-0.418-0.197
							c7.148,2.941,15.4-0.29,18.614-7.386c0.001-0.003,0.001-0.003,0.003-0.006l4.149-9.152l-0.504,1.104l1.469-3.245
							c1.681-3.711,0.045-8.085-3.661-9.779l2.995,1.356c3.721,1.685,5.372,6.07,3.687,9.791l-1.469,3.245L374.355,164.026z"/>
					</g>
					<g id="XMLID_2437_">
						<path fill="#640C19" d="M360.428,182.128c-3.226,0.723-6.584,0.384-9.649-1.004l-2.137-0.967
							c-3.158-1.431-5.571-4.006-6.794-7.252c-1.221-3.246-1.107-6.773,0.325-9.932l6.084-13.433
							c1.891-4.174,6.821-6.032,10.998-4.142l12.789,5.791c2.023,0.916,3.568,2.565,4.35,4.642s0.708,4.335-0.208,6.358
							l-0.939,2.074c-0.008,0.022-0.016,0.044-0.026,0.064l-4.147,9.152c-1.689,3.732-4.73,6.582-8.564,8.026
							C361.825,181.764,361.129,181.971,360.428,182.128z M354.418,146.644c-1.92,0.43-3.625,1.725-4.497,3.65l-6.084,13.433
							c-1.229,2.715-1.328,5.746-0.277,8.535c1.049,2.789,3.123,5.001,5.836,6.231l2.137,0.967c3.289,1.49,6.964,1.604,10.333,0.337
							c3.377-1.273,6.056-3.784,7.545-7.07l3.619-7.986c0.007-0.02,0.017-0.04,0.025-0.06l1.469-3.244
							c0.714-1.579,0.773-3.34,0.163-4.96c-0.61-1.622-1.816-2.908-3.394-3.622l-12.79-5.791
							C357.171,146.462,355.743,146.347,354.418,146.644z"/>
					</g>
					<g id="XMLID_2436_">
						<path fill="none" stroke="#2E3173" stroke-width="0.7175" stroke-linecap="round" stroke-miterlimit="10" d="M347.513,153.185
							"/>
					</g>
					<g id="XMLID_2435_">
						<path fill="#640C19" d="M350.07,167.577c-0.186,0.042-0.387,0.026-0.576-0.059c-1.552-0.7-2.245-2.534-1.542-4.09l2.019-4.453
							c0.21-0.464,0.753-0.662,1.209-0.456c0.46,0.208,0.664,0.751,0.456,1.209l-2.019,4.453c-0.287,0.635-0.004,1.385,0.631,1.672
							c0.46,0.208,0.663,0.747,0.456,1.209C350.58,167.333,350.34,167.517,350.07,167.577z"/>
					</g>
					<g id="XMLID_2433_">
						<g id="XMLID_2434_">
							<path fill="#640C19" d="M356.328,162.958c0.063,0.039,0.13,0.074,0.201,0.103c0.681,0.279,1.459-0.047,1.739-0.728
								l0.264-0.645c0.279-0.681-0.045-1.461-0.728-1.739c-0.681-0.279-1.459,0.047-1.738,0.728l-0.264,0.645
								C355.551,161.932,355.786,162.621,356.328,162.958z"/>
						</g>
					</g>
					<g id="XMLID_2431_">
						<g id="XMLID_2432_">
							<path fill="#640C19" d="M346.868,158.8c0.063,0.039,0.131,0.073,0.202,0.101c0.684,0.273,1.459-0.059,1.732-0.743
								l0.259-0.648c0.273-0.683-0.058-1.46-0.743-1.732c-0.683-0.273-1.459,0.059-1.732,0.743l-0.259,0.647
								C346.082,157.781,346.323,158.467,346.868,158.8z"/>
						</g>
					</g>
					<g id="XMLID_2430_">
						<path fill="#FFF4E5" stroke="#640C19" stroke-linecap="round" stroke-miterlimit="10" d="M372.646,172.05"/>
					</g>
					<g id="XMLID_2429_">
						<path fill="#640C19" d="M362.41,160.782l-5.107-2.313c-0.47-0.213-0.678-0.766-0.465-1.236l0,0
							c0.213-0.47,0.766-0.678,1.236-0.465l5.107,2.313c0.47,0.213,0.678,0.766,0.466,1.236l0,0
							C363.434,160.786,362.88,160.994,362.41,160.782z"/>
					</g>
					<g id="XMLID_2427_">
						<g id="XMLID_2428_">
							<path fill="#640C19" d="M377.752,160.776c2.884-6.368,0.06-13.867-6.308-16.751l-0.042-0.019l-6.709-2.852
								c-5.442-2.313-11.735,0.141-14.174,5.527l0,0c-0.914,2.017,0.011,4.391,2.049,5.258l13.142,5.595
								c2.069,0.937,3.204,3.19,2.727,5.411l-1.092,5.072c-0.366,1.698,1.606,2.913,2.959,1.823l3.828-1.072l3.601-7.951
								L377.752,160.776z"/>
							<path fill="#640C19" d="M369.745,171.105L369.745,171.105c-0.902,0.202-1.879-0.087-2.551-0.752
								c-0.673-0.668-0.943-1.59-0.741-2.529l1.091-5.07c0.385-1.789-0.546-3.633-2.21-4.388l-13.124-5.586
								c-1.213-0.516-2.145-1.477-2.623-2.707c-0.48-1.227-0.444-2.566,0.101-3.769c1.544-3.407,4.522-5.83,8.175-6.648
								c2.418-0.542,4.905-0.315,7.19,0.657l6.708,2.852c3.364,1.522,5.887,4.213,7.164,7.606c1.276,3.393,1.157,7.08-0.339,10.383
								l-3.797,8.38l-4.074,1.14C370.417,170.882,370.091,171.027,369.745,171.105z M358.261,141.438
								c-3.087,0.692-5.606,2.741-6.91,5.619c-0.34,0.751-0.361,1.586-0.063,2.353c0.3,0.767,0.88,1.366,1.638,1.688l13.142,5.595
								c2.463,1.117,3.826,3.823,3.262,6.445l-1.091,5.07c-0.094,0.436,0.112,0.719,0.242,0.849c0.338,0.334,0.864,0.38,1.249,0.073
								l0.328-0.169l3.418-0.958l3.426-7.562c1.312-2.9,1.416-6.09,0.31-9.025c-1.104-2.936-3.288-5.264-6.145-6.558l-6.73-2.863
								C362.405,141.173,360.303,140.98,358.261,141.438z"/>
						</g>
					</g>
					<g id="XMLID_2425_" opacity="0.24">
						<g id="XMLID_2426_">
							<path fill="#52131C" d="M370.381,166.987l-0.518,0.997l-1.72,1.749c-0.363,1.699,0.837,1.129,2.19,0.035l3.831-1.069
								l3.62-7.993c2.883-6.366,0.06-13.866-6.307-16.749l-3.778-1.711c6.363,2.882,9.187,10.381,6.303,16.747L370.381,166.987z"/>
						</g>
					</g>
					<g id="XMLID_2424_">
						<path fill="#640C19" d="M351.389,155.79l-3.265-1.479c-0.47-0.213-0.678-0.766-0.465-1.236l0,0
							c0.213-0.47,0.766-0.678,1.236-0.466l3.265,1.479c0.47,0.213,0.678,0.766,0.466,1.236l0,0
							C352.413,155.794,351.859,156.003,351.389,155.79z"/>
					</g>
					<g id="XMLID_2422_">
						<path fill="#FBD3B7" d="M368.029,169.959c0.821-1.813,2.956-2.617,4.769-1.796c1.813,0.821,2.617,2.956,1.796,4.769
							c-0.821,1.813-2.956,2.617-4.769,1.796c-0.591-0.268-1.075-0.675-1.43-1.166"/>
						<path fill="#640C19" d="M372.291,175.856c-0.951,0.213-1.941,0.111-2.844-0.297c-0.714-0.324-1.336-0.83-1.793-1.463
							c-0.296-0.409-0.205-0.98,0.204-1.275c0.403-0.297,0.979-0.207,1.275,0.204c0.272,0.374,0.641,0.675,1.069,0.868
							c0.656,0.299,1.386,0.32,2.058,0.069c0.671-0.253,1.204-0.753,1.502-1.408c0.296-0.655,0.32-1.385,0.067-2.057
							s-0.753-1.206-1.408-1.502c-0.656-0.299-1.391-0.323-2.058-0.069c-0.673,0.253-1.206,0.753-1.502,1.408
							c-0.21,0.464-0.753,0.661-1.209,0.456c-0.46-0.208-0.663-0.749-0.456-1.209c0.498-1.099,1.394-1.94,2.523-2.365
							c1.129-0.419,2.357-0.382,3.456,0.114c1.097,0.498,1.938,1.394,2.363,2.522c0.425,1.13,0.385,2.356-0.112,3.455
							c-0.5,1.099-1.395,1.94-2.523,2.365C372.701,175.748,372.496,175.81,372.291,175.856z"/>
					</g>
					<g id="XMLID_2421_">
						<path fill="#AF7E6C" d="M360.685,188.085l0.928-2.034c0.205-0.448,0.007-0.978-0.441-1.183l0,0l-11.559,1.124l-3.207,7.026
							c-0.073,0.16,0.083,0.328,0.248,0.267L360.685,188.085z"/>
					</g>
					<g id="XMLID_2420_">
						<path fill="#FFD672" d="M345.25,189.142l1.309,0.597c0.614,0.28,1.34,0.01,1.62-0.605l0.927-2.031
							c0.28-0.614,0.01-1.34-0.605-1.62l-1.309-0.597c-0.614-0.28-1.34-0.01-1.62,0.605l-0.927,2.031
							C344.365,188.136,344.636,188.862,345.25,189.142z"/>
						<path fill="#640C19" d="M347.532,190.712c-0.456,0.102-0.924,0.054-1.35-0.14l-1.314-0.6c-0.518-0.237-0.912-0.66-1.113-1.195
							c-0.2-0.535-0.179-1.116,0.058-1.635l0.927-2.031c0.476-1.043,1.786-1.536,2.832-1.055l1.307,0.596
							c0.521,0.238,0.917,0.663,1.115,1.198c0.2,0.535,0.179,1.115-0.06,1.633l-0.925,2.03
							C348.729,190.128,348.19,190.565,347.532,190.712z M346.618,185.695c-0.045,0.01-0.157,0.048-0.215,0.174l-0.927,2.031
							c-0.06,0.132,0.02,0.35,0.152,0.41l1.312,0.598c0.153,0.072,0.292,0.095,0.41-0.154l0.925-2.03
							c0.047-0.102,0.026-0.192,0.009-0.236c-0.017-0.045-0.06-0.127-0.162-0.174l-1.309-0.597
							C346.734,185.682,346.663,185.685,346.618,185.695z"/>
					</g>
					<g id="XMLID_2417_">
						<path fill="#FFFFFF" stroke="#640C19" stroke-linecap="round" stroke-miterlimit="10" d="M334.799,177.798"/>
					</g>
					<g id="XMLID_2416_">
						<path fill="#FFFFFF" stroke="#640C19" stroke-linecap="round" stroke-miterlimit="10" d="M338.288,174.325"/>
					</g>
					<g id="XMLID_2414_">
						<path fill="#FFFFFF" d="M346.8,173.437l3.664,1.66c0.928,0.421,1.914-0.464,1.596-1.432l-0.26-0.791
							c-0.246-0.748-0.794-1.359-1.511-1.684l-4.856-2.175c-0.316-0.142-0.686,0.046-0.76,0.385
							C344.324,171.003,345.252,172.736,346.8,173.437z"/>
						<path fill="#640C19" d="M351.399,176.068L351.399,176.068c-0.44,0.099-0.894,0.05-1.311-0.139l-3.665-1.66
							c-1.943-0.879-3.078-3.055-2.641-5.063c0.186-0.861,1.213-1.385,2.024-1.026l4.856,2.177c0.95,0.429,1.681,1.241,2.007,2.231
							l0.26,0.792c0.186,0.567,0.127,1.162-0.164,1.675C352.472,175.57,351.974,175.94,351.399,176.068z M345.514,170.052
							c-0.011,1.037,0.655,2.098,1.662,2.553l3.823,1.681c0.071-0.016,0.138-0.068,0.176-0.135c0.036-0.061,0.041-0.126,0.015-0.203
							l-0.259-0.79c-0.166-0.502-0.537-0.918-1.019-1.136L345.514,170.052z"/>
					</g>
					<g id="XMLID_2412_">
						<path fill="#E15A59" stroke="#640C19" stroke-linecap="round" stroke-miterlimit="10" d="M352.825,194.593"/>
					</g>
					<g id="XMLID_2411_">
						<polygon fill="#FFD672" points="313.164,162.676 307.07,164.025 308.971,169.969 344.071,187.767 345.885,184.614 						"/>
					</g>
				</g>
				<g id="XMLID_2407_">
					<g id="XMLID_2408_">
						<path fill="#DBAA94" d="M353.432,201.34l-60.687-8.047c-3.283-0.435-5.592-3.45-5.157-6.733
							c0.435-3.283,3.45-5.592,6.733-5.157l67.587,8.962"/>
						<path fill="#640C19" d="M353.632,202.232c-0.103,0.023-0.209,0.029-0.32,0.015l-60.687-8.046
							c-3.777-0.503-6.442-3.983-5.943-7.761c0.502-3.779,3.979-6.441,7.761-5.943l67.586,8.961c0.5,0.067,0.851,0.526,0.786,1.027
							c-0.069,0.502-0.525,0.849-1.027,0.786l-67.586-8.961c-2.778-0.372-5.339,1.59-5.709,4.371
							c-0.367,2.777,1.595,5.338,4.373,5.706l60.687,8.046c0.5,0.067,0.851,0.526,0.786,1.027
							C354.285,201.851,353.994,202.15,353.632,202.232z"/>
					</g>
				</g>
				<g id="XMLID_2405_">
					<path fill="#B06D5B" d="M219.4,225.989l-12.084-24.124c-0.753-1.502-0.145-3.33,1.358-4.083l0,0
						c1.225-0.614,2.71-0.333,3.626,0.687l9.537,10.614l7.166,14.305l-6.952,3.482C221.075,227.359,219.889,226.964,219.4,225.989z"
						/>
				</g>
				<g id="XMLID_2403_">
					<g id="XMLID_2404_">
						<path fill="#FFEDDA" d="M286.032,181.382l-2.164-2.395c-0.714-0.627-0.785-1.714-0.158-2.428
							c0.338-0.385,0.81-0.583,1.286-0.585c0.406-0.002,0.813,0.139,1.142,0.428l4.182,4.301"/>
						<path fill="#640C19" d="M290.519,181.594c-0.299,0.067-0.626-0.019-0.854-0.255l-4.18-4.301
							c-0.096-0.079-0.288-0.151-0.485-0.151c-0.232,0.001-0.451,0.101-0.601,0.274c-0.144,0.164-0.215,0.372-0.201,0.586
							c0.015,0.214,0.111,0.412,0.272,0.553l2.241,2.469c0.338,0.374,0.309,0.953-0.065,1.291c-0.377,0.335-0.953,0.309-1.291-0.065
							l-2.164-2.395c-0.453-0.389-0.769-1.033-0.815-1.734c-0.046-0.703,0.184-1.381,0.649-1.91
							c0.493-0.566,1.206-0.892,1.968-0.896c0.643-0.002,1.264,0.231,1.748,0.652l4.234,4.353c0.352,0.362,0.344,0.939-0.018,1.291
							C290.83,181.48,290.679,181.558,290.519,181.594z"/>
					</g>
				</g>
				<g id="XMLID_2401_">
					<path fill="#B06D5B" d="M249.8,273.09l-22.445-14.973c-1.398-0.933-1.775-2.822-0.843-4.219l0,0
						c0.76-1.14,2.189-1.631,3.49-1.199l13.542,4.498l13.31,8.879l-4.315,6.468C251.933,273.451,250.707,273.695,249.8,273.09z"/>
				</g>
				<g id="XMLID_2400_">
					<path fill="#FFEDDA" d="M293.325,181.268l-7.813-0.903c-1.75-0.202-3.597,0.035-3.94,1.356
						c-0.126,0.486,0.809,2.441,0.809,2.441c-0.067,0.252-0.172,0.185-0.26,0.449l-1.555-0.035c-0.014,0.413-0.733,3.39-0.733,3.39
						l1.312,0.109c0.43,0.036,0.438,0.328,0.354,0.752c-0.178,0.898-0.184,2.485-0.459,3.578l11.848,0.908L293.325,181.268z"/>
					<path fill="#640C19" d="M293.769,194.297l-13.877-1.064l0.264-1.05c0.139-0.556,0.206-1.324,0.266-2.001
						c0.038-0.449,0.077-0.879,0.132-1.238l-1.857-0.154l0.25-1.036c0.321-1.335,0.683-2.949,0.707-3.225l0.074-0.854l1.434,0.002
						c-0.641-1.537-0.523-1.993-0.475-2.183c0.182-0.699,0.729-1.602,2.31-1.957c0.924-0.207,1.936-0.158,2.621-0.077l8.649,0.998
						L293.769,194.297z M282.116,191.571l9.895,0.757l0.371-10.249l-6.975-0.806c-1.581-0.183-2.801,0.09-2.949,0.677
						c0.031,0.121,0.372,1.03,0.748,1.82l0.145,0.302l-0.086,0.325c-0.082,0.313-0.221,0.488-0.346,0.619l-0.214,0.635l-0.602-0.126
						l-0.77-0.018c-0.097,0.481-0.232,1.076-0.363,1.637l0.253,0.02c0.525,0.043,0.822,0.297,0.977,0.501
						c0.365,0.485,0.247,1.084,0.196,1.34c-0.07,0.356-0.109,0.829-0.153,1.334C282.207,190.736,282.169,191.157,282.116,191.571z"
						/>
				</g>
				<g id="XMLID_2397_">
					<g id="XMLID_2399_">
						<path fill="#FFEDDA" d="M282.606,192.525l-6.181,1.617c-0.925,0.216-1.851-0.358-2.067-1.284
							c-0.117-0.499-0.003-0.998,0.272-1.386c0.234-0.331,0.586-0.581,1.012-0.681l6.334-2.053"/>
						<path fill="#640C19" d="M276.629,195.032c-1.428,0.32-2.831-0.559-3.161-1.965c-0.171-0.739-0.019-1.512,0.418-2.125
							c0.366-0.523,0.917-0.893,1.55-1.04l6.258-2.033c0.511-0.151,0.995,0.108,1.152,0.587c0.155,0.481-0.108,0.995-0.587,1.152
							l-6.334,2.054c-0.323,0.078-0.469,0.224-0.546,0.336c-0.139,0.194-0.184,0.425-0.131,0.655c0.1,0.429,0.531,0.698,0.961,0.602
							c0.002,0,0.005-0.001,0.007-0.002l6.159-1.611c0.496-0.095,0.988,0.166,1.115,0.653c0.128,0.489-0.164,0.988-0.653,1.115
							l-6.182,1.616C276.647,195.028,276.638,195.03,276.629,195.032z"/>
					</g>
				</g>
				<g id="XMLID_2395_">
					<g id="XMLID_2396_">
						<path fill="#FFEDDA" d="M281.951,188.142l-7.825-0.648c-0.944-0.109-1.621-0.962-1.512-1.906
							c0.059-0.509,0.334-0.94,0.724-1.213c0.332-0.232,0.748-0.349,1.183-0.299l8.05,0.638"/>
						<path fill="#640C19" d="M282.151,189.033c-0.087,0.02-0.18,0.028-0.275,0.02l-7.825-0.649
							c-1.471-0.169-2.511-1.478-2.346-2.921c0.089-0.751,0.494-1.427,1.11-1.858c0.522-0.369,1.164-0.532,1.808-0.458l8.019,0.636
							c0.502,0.039,0.879,0.479,0.838,0.982c-0.041,0.503-0.481,0.879-0.982,0.838l-8.049-0.639
							c-0.227-0.024-0.426,0.022-0.586,0.137c-0.196,0.137-0.316,0.338-0.344,0.571c-0.049,0.441,0.269,0.841,0.71,0.892
							l7.797,0.646c0.503,0.043,0.876,0.484,0.835,0.987C282.827,188.625,282.53,188.948,282.151,189.033z"/>
					</g>
				</g>
				<g id="XMLID_2392_">
					<g id="XMLID_2393_">
						<path fill="#FFEDDA" d="M282.747,184.148l-6.996-3.565c-0.832-0.458-1.135-1.505-0.677-2.337
							c0.247-0.449,0.666-0.744,1.129-0.848c0.396-0.089,0.824-0.039,1.208,0.172l6.996,3.565"/>
						<path fill="#640C19" d="M282.947,185.039c-0.2,0.045-0.417,0.022-0.615-0.078l-6.995-3.564
							c-1.297-0.715-1.764-2.322-1.061-3.593c0.679-1.229,2.36-1.706,3.58-1.035l6.969,3.552c0.448,0.229,0.628,0.779,0.398,1.229
							c-0.23,0.45-0.779,0.626-1.229,0.398l-6.996-3.566c-0.43-0.236-0.918-0.072-1.124,0.305c-0.104,0.188-0.127,0.405-0.067,0.613
							c0.059,0.208,0.198,0.378,0.386,0.484l6.97,3.55c0.448,0.229,0.628,0.779,0.398,1.229
							C283.432,184.815,283.202,184.981,282.947,185.039z"/>
					</g>
				</g>
				<g id="XMLID_2391_">
					<path fill="#FFEDDA" d="M308.611,159.21l-7.337-6.908c-1.322-1.165-1.384-1.314-0.632-2.452
						c0.277-0.419,2.355-1.032,2.355-1.032c0.142-0.218,0.023-0.252,0.159-0.493l-1.066-1.132c0.298-0.287,2.029-2.813,2.029-2.813
						l0.959,0.902c0.314,0.296,0.536,0.268,0.794-0.078c0.548-0.733,1.725-1.961,2.353-2.897l8.603,8.197L308.611,159.21z"/>
					<path fill="#640C19" d="M308.65,160.498l-8.003-7.531c-1.444-1.272-1.892-1.922-0.768-3.622
						c0.108-0.163,0.369-0.556,1.938-1.109l-1.011-1.075l0.648-0.626c0.178-0.192,1.134-1.54,1.911-2.674l0.604-0.879l1.428,1.346
						c0.203-0.25,0.434-0.518,0.675-0.799c0.491-0.573,1.05-1.221,1.396-1.735l0.603-0.898l10.046,9.571L308.65,160.498z
						 M303.293,147.137l0.989,1.051l-0.332,0.584c0.027,0.049-0.011,0.271-0.189,0.543l-0.184,0.281l-0.322,0.096
						c-0.837,0.248-1.741,0.602-1.935,0.757c-0.122,0.212-0.236,0.408-0.253,0.485c0.059,0.02,0.547,0.451,0.811,0.681l6.695,6.303
						l6.966-7.383l-7.201-6.863c-0.286,0.355-0.595,0.713-0.883,1.046c-0.332,0.387-0.642,0.747-0.855,1.029
						c-0.251,0.34-0.537,0.543-0.871,0.618c-0.305,0.068-0.775,0.051-1.277-0.42l-0.186-0.176
						C303.936,146.246,303.585,146.743,303.293,147.137z"/>
				</g>
				<g id="XMLID_2388_">
					<g id="XMLID_2389_">
						<path fill="#FFEDDA" d="M309.382,143.408l-3.13-5.805c-0.458-0.832-1.505-1.135-2.337-0.677
							c-0.449,0.247-0.744,0.665-0.848,1.129c-0.089,0.396-0.04,0.824,0.172,1.208l2.831,6.387"/>
						<path fill="#640C19" d="M306.268,146.542c-0.416,0.093-0.854-0.116-1.033-0.522l-2.831-6.388
							c-0.279-0.493-0.372-1.153-0.227-1.781c0.165-0.734,0.638-1.363,1.297-1.726c0.619-0.34,1.329-0.417,2.005-0.223
							c0.677,0.196,1.234,0.645,1.574,1.262l3.132,5.809c0.239,0.446,0.074,0.998-0.37,1.238c-0.449,0.241-0.996,0.073-1.238-0.37
							l-3.129-5.804c-0.1-0.184-0.271-0.321-0.477-0.381c-0.207-0.06-0.426-0.04-0.615,0.07c-0.205,0.112-0.346,0.301-0.397,0.53
							c-0.045,0.193-0.017,0.391,0.079,0.564l2.867,6.461c0.204,0.461-0.004,1.001-0.465,1.205
							C306.383,146.511,306.327,146.529,306.268,146.542z"/>
					</g>
				</g>
				<g id="XMLID_2385_">
					<g id="XMLID_2387_">
						<path fill="#FFEDDA" d="M310.539,146.007l1.157-4.417c0.179-0.933,1.08-1.545,2.014-1.366
							c0.503,0.096,0.913,0.403,1.156,0.812c0.207,0.349,0.292,0.772,0.21,1.202l-1.922,7.232"/>
						<path fill="#640C19" d="M313.353,150.361c-0.139,0.031-0.288,0.03-0.435-0.008c-0.486-0.131-0.778-0.63-0.647-1.118
							l1.921-7.23c0.024-0.131-0.012-0.332-0.112-0.501c-0.12-0.202-0.311-0.336-0.54-0.38c-0.213-0.038-0.424,0-0.606,0.125
							c-0.178,0.12-0.298,0.303-0.338,0.515l-1.171,4.477c-0.128,0.489-0.633,0.78-1.115,0.652
							c-0.488-0.128-0.781-0.628-0.652-1.115l1.157-4.417c0.118-0.632,0.512-1.23,1.095-1.624s1.283-0.54,1.973-0.407
							c0.737,0.14,1.384,0.593,1.771,1.243c0.328,0.557,0.441,1.21,0.319,1.841l-1.934,7.294
							C313.946,150.045,313.673,150.289,313.353,150.361z"/>
					</g>
				</g>
				<g id="XMLID_2383_">
					<g id="XMLID_2384_">
						<path fill="#FFEDDA" d="M305.665,145.833l-5.718-5.381c-0.712-0.629-1.8-0.561-2.428,0.152
							c-0.339,0.384-0.475,0.878-0.417,1.35c0.05,0.403,0.241,0.789,0.569,1.079l5.861,5.555"/>
						<path fill="#640C19" d="M303.732,149.48c-0.285,0.064-0.598-0.01-0.828-0.228l-5.862-5.555
							c-0.458-0.406-0.769-0.992-0.848-1.631c-0.091-0.748,0.141-1.5,0.64-2.065c0.465-0.528,1.103-0.84,1.812-0.889
							c0.701-0.044,1.379,0.19,1.906,0.655l5.74,5.402c0.366,0.346,0.384,0.923,0.039,1.291c-0.345,0.368-0.923,0.384-1.291,0.039
							l-5.719-5.383c-0.139-0.122-0.347-0.193-0.561-0.18c-0.215,0.012-0.411,0.109-0.554,0.27
							c-0.156,0.178-0.226,0.402-0.196,0.635c0.024,0.196,0.119,0.376,0.267,0.507l5.885,5.576c0.367,0.347,0.381,0.926,0.035,1.292
							C304.066,149.354,303.904,149.441,303.732,149.48z"/>
					</g>
				</g>
				<g id="XMLID_2380_">
					<g id="XMLID_2381_">
						<path fill="#FFEDDA" d="M303.23,149.098l-7.331-2.813c-0.897-0.312-1.878,0.163-2.189,1.061
							c-0.168,0.484-0.107,0.992,0.125,1.407c0.199,0.354,0.522,0.639,0.936,0.782l7.331,2.813"/>
						<path fill="#640C19" d="M302.302,153.24c-0.171,0.038-0.352,0.028-0.526-0.039l-7.332-2.813
							c-0.582-0.199-1.091-0.626-1.408-1.189c-0.369-0.66-0.437-1.445-0.19-2.155c0.23-0.662,0.706-1.197,1.34-1.503
							c0.634-0.31,1.346-0.349,2.012-0.118l7.358,2.823c0.472,0.18,0.707,0.708,0.526,1.179c-0.179,0.475-0.71,0.706-1.179,0.526
							l-7.332-2.813c-0.176-0.059-0.394-0.051-0.589,0.048c-0.195,0.093-0.339,0.257-0.409,0.459
							c-0.077,0.218-0.056,0.46,0.059,0.663c0.095,0.171,0.25,0.3,0.436,0.365l7.36,2.825c0.472,0.18,0.707,0.708,0.526,1.179
							C302.842,152.972,302.589,153.175,302.302,153.24z"/>
					</g>
				</g>
			</g>
			<path fill="#640C19" d="M265.967,152.492c-0.392,0.088-0.817,0.044-1.203-0.155l-28.366-14.643
				c-0.872-0.45-1.214-1.523-0.764-2.396c0.45-0.871,1.52-1.215,2.396-0.764l28.366,14.643c0.872,0.45,1.214,1.523,0.764,2.396
				C266.908,152.06,266.463,152.381,265.967,152.492z"/>
			<path fill="#640C19" d="M286.701,163.196c-0.392,0.088-0.817,0.044-1.203-0.155l-8.173-4.218
				c-0.872-0.45-1.214-1.523-0.764-2.396c0.449-0.869,1.52-1.215,2.396-0.764l8.173,4.218c0.872,0.45,1.214,1.523,0.764,2.396
				C287.643,162.764,287.197,163.085,286.701,163.196z"/>
			<path fill="#640C19" d="M201.7,216.594c-0.4,0.09-0.833,0.044-1.221-0.163l-43.758-23.235c-0.868-0.462-1.199-1.538-0.738-2.404
				c0.463-0.872,1.542-1.198,2.404-0.738l43.758,23.235c0.868,0.462,1.199,1.538,0.738,2.404
				C202.627,216.171,202.187,216.485,201.7,216.594z"/>
			<path fill="#640C19" d="M263.176,197.904c-0.4,0.09-0.833,0.044-1.221-0.163l-43.757-23.239c-0.867-0.46-1.198-1.536-0.736-2.402
				c0.459-0.871,1.54-1.199,2.402-0.738l43.757,23.239c0.867,0.46,1.198,1.536,0.738,2.404
				C264.103,197.481,263.664,197.795,263.176,197.904z"/>
			<path fill="#640C19" d="M294.765,116.154c-0.399,0.089-0.828,0.043-1.217-0.161l-12.074-6.357
				c-0.869-0.458-1.201-1.534-0.745-2.402c0.458-0.87,1.534-1.198,2.402-0.745l12.074,6.357c0.869,0.458,1.201,1.534,0.745,2.402
				C295.697,115.727,295.254,116.044,294.765,116.154z"/>
			<path fill="#640C19" d="M336.832,138.306c-0.399,0.089-0.828,0.043-1.217-0.161l-29.73-15.654
				c-0.869-0.458-1.201-1.534-0.745-2.402c0.46-0.869,1.536-1.198,2.402-0.745l29.73,15.654c0.869,0.458,1.201,1.534,0.745,2.402
				C337.764,137.879,337.321,138.196,336.832,138.306z"/>
		</g>
		<polygon fill="#E9583F" points="263.28,322.347 263.28,276.353 197.74,276.353 197.74,230.36 132.199,230.36 132.199,391.247 
			197.74,391.247 263.28,391.247 328.821,391.247 328.821,322.347 		"/>
	</g>
</g>
</svg>
