<?xml version="1.0" encoding="utf-8"?>
<!-- Generator: Adobe Illustrator 17.0.0, SVG Export Plug-In . SVG Version: 6.00 Build 0)  -->
<!DOCTYPE svg PUBLIC "-//W3C//DTD SVG 1.1//EN" "http://www.w3.org/Graphics/SVG/1.1/DTD/svg11.dtd">
<svg version="1.1" id="Layer_1" xmlns="http://www.w3.org/2000/svg" xmlns:xlink="http://www.w3.org/1999/xlink" x="0px" y="0px"
	 width="512px" height="512px" viewBox="0 0 512 512" enable-background="new 0 0 512 512" xml:space="preserve">
<g>
	<path fill="#163A6C" d="M256,31C131.747,31,31,131.747,31,256s100.747,225,225,225s225-100.747,225-225S380.253,31,256,31z"/>
	<g>
		<path fill="#F05A28" d="M224.44,271.896l-74.348-12.483v93.825c0,10.969,8.891,19.86,19.86,19.86h74.002
			c10.969,0,19.86-8.891,19.86-19.86v-73.169C250.89,276.605,237.755,273.845,224.44,271.896z"/>
		<polygon fill="#FFFFFF" points="206.952,285.222 217.291,305.899 237.967,305.899 222.46,326.575 227.629,352.421 
			206.952,342.083 186.276,352.421 191.445,326.575 175.938,305.899 196.614,305.899 		"/>
		<path fill="#F05A28" d="M106.154,269.715L106.154,269.715c-7.108,0-12.923-5.815-12.923-12.923v-25.846
			c0-7.108,5.815-12.923,12.923-12.923l0,0c7.108,0,12.923,5.815,12.923,12.923v25.846
			C119.077,263.899,113.262,269.715,106.154,269.715z"/>
		<path fill="#FFD400" d="M387.873,124.978c-2.859,0-5.169,2.311-5.169,5.169v19.436c-46.326,35.011-100.736,57.843-158.264,66.258
			L119.077,233.53v20.677l105.363,17.689c57.527,8.415,111.938,31.247,158.264,66.258v19.436c0,2.859,2.311,5.169,5.169,5.169
			s5.169-2.311,5.169-5.169V130.147C393.042,127.289,390.731,124.978,387.873,124.978z"/>
		<path fill="#F05A28" d="M299.997,291.895c6.989,2.724,13.884,5.676,20.677,8.855V186.993c-6.792,3.174-13.688,6.125-20.677,8.855
			V291.895z"/>
	</g>
</g>
</svg>
