<?xml version="1.0" encoding="utf-8"?>
<!-- Generator: Adobe Illustrator 17.0.0, SVG Export Plug-In . SVG Version: 6.00 Build 0)  -->
<!DOCTYPE svg PUBLIC "-//W3C//DTD SVG 1.1//EN" "http://www.w3.org/Graphics/SVG/1.1/DTD/svg11.dtd">
<svg version="1.1" id="Layer_1" xmlns="http://www.w3.org/2000/svg" xmlns:xlink="http://www.w3.org/1999/xlink" x="0px" y="0px"
	 width="512px" height="512px" viewBox="0 0 512 512" enable-background="new 0 0 512 512" xml:space="preserve">
<g>
	<path fill="#F05A28" d="M256,31C131.747,31,31,131.747,31,256s100.747,225,225,225s225-100.747,225-225S380.253,31,256,31z"/>
	<g>
		<path fill="#471F13" d="M323.244,187.133c-9.215-2.254-4.048-8.933-4.048-8.933c5.512-8.265-1.12-10.602-1.12-10.602
			c-5.167,5.844-12.316,2.922-12.316,2.922c-10.593-8.933-1.464-8.098,2.842-19.869c4.823-13.107-2.842-19.619-9.215-22.374
			c-6.373-2.755-12.488-1.503-20.153-11.103s0.086-12.272,3.962-23.626c3.789-11.354-5.081-21.288-12.746-24.377
			c-7.579-3.089-14.211-9.768-14.383-9.935l0,0l0,0l0,0l0,0c-0.172,0.167-6.804,6.929-14.383,9.935
			c-7.665,3.089-16.536,13.024-12.746,24.377c3.789,11.354,11.541,14.025,3.962,23.626c-7.665,9.601-13.78,8.348-20.153,11.103
			c-6.373,2.755-14.038,9.267-9.215,22.374c4.306,11.855,13.522,12.773,2.842,19.869c0,0-7.148,2.922-12.316-2.922
			c0,0-6.632,2.421-1.12,10.602c0,0,5.167,6.679-4.048,8.933c-5.684,1.419-24.804,14.109-9.99,46.584
			c8.612,18.951,16.105,23.793,18.431,42.076c0,0-0.258,5.093-3.617,10.185c-1.809,2.755-7.234,3.59-8.182,9.517
			c-0.775,5.093,9.474,6.261,9.474,6.261s-7.837,5.176-6.804,12.272c0,0,2.239,3.924,11.627,15.278c0,0,3.014,6.094-4.392,8.599
			c-7.407,2.505-11.799,4.425-6.373,8.014c1.206,0.835,2.239,0.167,2.239,0.167c0.344,2.171,0.517,1.169,1.809,1.419
			c4.995,1.002,5.512,4.508,7.923,6.846c2.411,2.421,4.995,2.755,7.062,2.421c0,0,1.895-0.835,1.206,1.503
			c0,0,1.292-0.167,6.804,0.501c5.512,0.668,10.249,6.178,8.957,9.267h2.498c0,0-1.722,2.755,1.292,5.844
			c0,0,11.11,6.512,17.053-3.089c2.067-3.256,6.545-10.936,4.22-2.004c0,0-9.474,11.604-3.531,15.778l9.301,6.846l0,0l0,0l0,0l0,0
			l9.301-6.846c5.943-4.091-3.531-15.778-3.531-15.778c-1.378-5.093,2.239-1.252,4.22,2.004c6.029,9.684,17.053,3.089,17.053,3.089
			c3.014-3.089,1.292-5.844,1.292-5.844h2.498c-1.292-3.089,3.445-8.599,8.957-9.267c5.512-0.668,6.804-0.501,6.804-0.501
			c-0.689-2.338,1.206-1.503,1.206-1.503c2.153,0.334,4.651,0,7.062-2.421c2.411-2.421,2.842-5.844,7.923-6.846
			c1.378-0.25,1.464,0.751,1.809-1.419c0,0,1.034,0.668,2.239-0.167c5.426-3.59,1.033-5.51-6.373-8.014
			c-7.407-2.505-4.392-8.599-4.392-8.599c9.301-11.354,11.627-15.278,11.627-15.278c1.034-7.013-6.804-12.272-6.804-12.272
			s10.249-1.169,9.474-6.261c-0.947-5.927-6.373-6.762-8.182-9.517c-3.359-5.093-3.617-10.185-3.617-10.185
			c2.325-18.2,9.818-23.042,18.431-42.076C348.048,201.242,328.928,188.469,323.244,187.133z"/>
		<path fill="#603D24" d="M315.579,189.888c-7.493-2.171-3.273-5.426-3.273-5.426c4.478-8.014-0.947-10.352-0.947-10.352
			c-4.22,5.76-10.077,2.922-10.077,2.922c-14.038-11.604-4.995-11.187-1.464-22.708c3.876-12.773-2.325-19.118-7.493-21.789
			s-12.144-2.588-18.344-11.938s1.034-14.192,4.134-25.296s-4.134-17.448-10.335-20.454c-6.115-3.005-11.541-9.517-11.713-9.684l0,0
			l0,0l0,0l0,0c-0.172,0.167-5.598,6.762-11.713,9.684c-6.201,3.005-13.522,9.35-10.335,20.454
			c3.1,11.103,10.335,15.862,4.134,25.296c-6.201,9.35-13.177,9.267-18.344,11.938c-5.167,2.671-11.455,9.016-7.493,21.789
			c3.531,11.521,12.574,11.02-1.464,22.708c0,0-5.856,2.838-10.077-2.922c0,0-5.426,2.338-0.947,10.352c0,0,4.22,3.172-3.273,5.426
			c-4.651,1.336-20.239,13.775-8.182,45.332c7.062,18.45,17.914,23.209,19.809,40.991c0,0-0.258,5.009-2.928,9.851
			c-1.464,2.755-5.856,3.506-6.632,9.267c-0.689,4.926,7.751,6.094,7.751,6.094s-6.373,5.093-5.598,11.938
			c0,0,1.809,1.336,9.474,12.439c0,0,2.498,5.927-3.531,8.348c-6.029,2.421-9.56,4.258-5.167,7.848
			c1.033,0.835,1.809,0.167,1.809,0.167c0.258,2.087,0.431,1.085,1.55,1.419c4.134,1.002,4.478,4.341,6.459,6.679
			c1.981,2.338,4.048,2.671,5.77,2.338c0,0,1.55-0.835,1.033,1.503c0,0,1.033-0.167,5.512,0.501
			c4.478,0.668,8.354,6.011,7.321,9.016h2.067c0,0-1.378,2.672,1.033,5.677c0,0,6.201,6.345,11.11-3.005
			c1.636-3.172,9.129-7.347,7.321,1.419c0,0-8.699,8.014-3.789,12.022l7.579,6.679l0,0l0,0l0,0l0,0l7.579-6.679
			c4.823-4.007-3.789-12.022-3.789-12.022c-1.809-8.682,5.598-4.592,7.321-1.419c4.909,9.434,11.11,3.005,11.11,3.005
			c2.411-3.005,1.033-5.677,1.033-5.677h2.067c-1.034-3.005,2.756-8.348,7.321-9.016c4.478-0.668,5.512-0.501,5.512-0.501
			c-0.517-2.338,1.034-1.503,1.034-1.503c1.722,0.334,3.789,0,5.77-2.338c1.981-2.338,2.325-5.677,6.459-6.679
			c1.12-0.25,1.206,0.751,1.464-1.419c0,0,0.861,0.668,1.809-0.167c4.392-3.506,0.861-5.426-5.167-7.848
			c-6.029-2.421-3.531-8.348-3.531-8.348c7.579-11.103,9.474-12.439,9.474-12.439c0.861-6.846-5.598-11.938-5.598-11.938
			s8.354-1.169,7.751-6.094c-0.775-5.76-5.167-6.512-6.632-9.267c-2.67-4.926-2.928-9.851-2.928-9.851
			c1.895-17.782,12.746-22.457,19.809-40.991C335.818,203.663,320.229,191.224,315.579,189.888z"/>
		<path fill="#471F13" d="M265.54,77.101c-4.909-2.421-9.129-7.514-9.301-7.681c0,0,0,0.167-0.086,0.417
			c0-0.334-0.086-0.417-0.086-0.417c-0.086,0.167-4.392,5.259-9.301,7.681c-4.995,2.421-10.766,7.514-8.268,16.363
			s5.77,7.931,5.598,11.604h24.029c-0.172-3.673,3.1-2.755,5.598-11.604C276.306,84.614,270.536,79.522,265.54,77.101z"/>
		
			<linearGradient id="SVGID_1_" gradientUnits="userSpaceOnUse" x1="-116.0504" y1="401.806" x2="-97.9381" y2="401.806" gradientTransform="matrix(2.0637 0 0 2.0637 477.2394 -697.8456)">
			<stop  offset="0.139" style="stop-color:#694F21"/>
			<stop  offset="0.97" style="stop-color:#64491B"/>
		</linearGradient>
		<path fill="url(#SVGID_1_)" d="M250.124,141.05c1.809,0.083,4.134,0.083,6.373,0.083c9.818,0,16.88-0.668,18.689-1.503
			l-0.517-1.252l-0.775-2.421h-0.086c-2.325-6.679-7.407-12.69-14.9-13.858c-0.258-1.67-1.12-2.254-2.498-2.254
			c-1.378,0-2.153,0.25-2.498,2.254c-7.579,0.918-12.144,6.094-14.813,13.942h-0.086l-0.775,2.421l-0.431,1.169
			c1.809,0.668,6.201,1.169,10.938,1.336C247.799,144.222,249.263,142.636,250.124,141.05z"/>
		<g>
			<path fill="#CAA76B" d="M278.545,155.409c1.034-1.252,2.842-1.419,4.134-0.417c1.292,1.002,1.292,4.174,2.239,3.005
				c1.636-1.92,1.206-4.759-0.861-6.345s-4.995-1.336-6.632,0.501C275.875,154.073,277.77,156.327,278.545,155.409z"/>
			<path fill="#CAA76B" d="M233.416,155.409c-1.033-1.252-2.842-1.419-4.134-0.417c-1.292,1.002-1.292,4.174-2.239,3.005
				c-1.636-1.92-1.206-4.759,0.861-6.345c2.067-1.586,4.995-1.336,6.632,0.501C236.086,154.073,234.191,156.327,233.416,155.409z"/>
			<path fill="#CAA76B" d="M258.995,122.433c-0.258-1.753-0.344-26.131-3.359-26.131c-3.273,0-1.292,24.043-1.722,26.131h0.603
				c0,0,0.947-0.167,2.067-0.167c1.033,0,1.981,0.167,1.981,0.167H258.995z"/>
			<path fill="#CAA76B" d="M260.287,103.816c-0.258-0.334-1.636-3.423-4.651-3.423c-3.273,0-4.048,3.005-4.392,3.423H260.287z"/>
			<path fill="#CAA76B" d="M262.612,111.496c-0.431-0.501-1.809-5.176-6.287-5.176c-4.995,0-6.545,4.592-7.148,5.176H262.612z"/>
			<path fill="#CAA76B" d="M262.612,111.496c-0.431,0.751-1.636,8.265-6.201,8.265c-4.995,0-7.234-7.013-7.234-8.265H262.612z"/>
			<ellipse fill="#CAA76B" cx="255.636" cy="97.22" rx="2.928" ry="1.837"/>
		</g>
		<path fill="#987D50" d="M274.928,139.213c-1.895,0.918-8.612,1.085-18.517,1.085c-9.818,0-15.761,0-18.517-1.085l1.033-3.256
			l34.88-0.083L274.928,139.213z"/>
		<g>
			<path fill="#CAA76B" d="M274.756,138.962c-1.895-8.515-8.182-17.114-18.258-17.114c-10.077,0-15.416,6.762-18.258,17.114
				l4.134-1.419c0,0,6.89-0.918,14.641-0.918c7.751,0,14.124,0.918,14.124,0.918L274.756,138.962z"/>
			<path fill="#CAA76B" d="M256.497,144.806c-3.187,0-6.115,0.334-8.871,1.085c2.584-3.59,3.789-8.933,3.876-9.183l-1.722,0.083
				c-0.517,6.345-4.565,9.1-6.976,10.769c-0.947,0.417-1.895,0.918-2.756,1.419l0,0l0,0c-11.11,6.428-18,19.869-22.22,37.651
				l8.871-3.339c0,0,14.641-2.338,31.177-2.338c16.45,0,29.885,2.338,29.885,2.338l7.579,3.339
				C291.206,165.677,277.856,144.806,256.497,144.806z"/>
		</g>
		<rect x="207.923" y="176.113" fill="#25261E" width="93.617" height="102.185"/>
		<rect x="218.43" y="189.22" fill="#383226" width="74.498" height="75.219"/>
		<ellipse fill="#21241C" cx="255.636" cy="226.537" rx="39.531" ry="38.319"/>
		
			<radialGradient id="SVGID_2_" cx="-111.1031" cy="447.9285" r="17.5024" gradientTransform="matrix(2.1289 0 0 2.0637 492.169 -697.8456)" gradientUnits="userSpaceOnUse">
			<stop  offset="0" style="stop-color:#D8D1B5"/>
			<stop  offset="0.964" style="stop-color:#D6CB97"/>
		</radialGradient>
		<ellipse fill="url(#SVGID_2_)" cx="255.636" cy="226.537" rx="37.206" ry="36.065"/>
		<path fill="#DED6AE" d="M252.277,225.369l8.268,36.483c0,0,11.627-3.005,16.191-5.844c4.651-2.838,9.904-10.769,9.904-10.769
			l-31.866-22.624l-0.431-31.807c0,0-9.474,0.083-19.033,6.011c-9.99,6.178-12.746,13.524-12.746,13.524L252.277,225.369z"/>
		<g>
			<ellipse fill="#32352C" cx="255.636" cy="226.537" rx="20.239" ry="19.619"/>
			<ellipse fill="#32352C" cx="255.636" cy="226.537" rx="20.239" ry="19.619"/>
			<ellipse fill="#32352C" cx="255.636" cy="226.537" rx="20.239" ry="19.619"/>
		</g>
		<g>
			<path fill="#CAA76B" d="M268.038,263.688h24.201v-19.452C288.536,254.421,279.32,262.018,268.038,263.688z"/>
			<path fill="#CAA76B" d="M219.033,244.319v19.368h24.115C231.952,262.018,222.737,254.421,219.033,244.319z"/>
		</g>
		<polygon fill="#9E532E" points="213.78,269.365 206.287,269.365 206.287,264.523 207.665,226.537 206.287,188.552 206.287,183.71 
			213.78,183.71 213.78,188.552 212.143,226.537 213.78,264.523 		"/>
		<g>
			<rect x="206.287" y="183.71" fill="#8A4826" width="7.579" height="4.007"/>
			<rect x="206.287" y="265.107" fill="#8A4826" width="7.579" height="4.007"/>
		</g>
		<g>
			<rect x="206.287" y="264.523" fill="#773D1D" width="7.579" height="0.918"/>
			<rect x="206.287" y="187.717" fill="#773D1D" width="7.579" height="0.918"/>
		</g>
		<polygon fill="#9E532E" points="304.985,269.365 297.406,269.365 297.406,264.523 298.871,226.537 297.406,188.552 
			297.406,183.71 304.985,183.71 304.985,188.552 303.521,226.537 304.985,264.523 		"/>
		<g>
			<rect x="297.406" y="183.71" fill="#8A4826" width="7.579" height="4.007"/>
			<rect x="297.406" y="265.107" fill="#8A4826" width="7.579" height="4.007"/>
		</g>
		<g>
			<rect x="297.406" y="264.523" fill="#773D1D" width="7.579" height="0.918"/>
			<rect x="297.406" y="187.717" fill="#773D1D" width="7.579" height="0.918"/>
		</g>
		
			<radialGradient id="SVGID_3_" cx="-111.0829" cy="480.1137" r="11.9597" gradientTransform="matrix(2.1289 0 0 2.0637 492.169 -697.8456)" gradientUnits="userSpaceOnUse">
			<stop  offset="0" style="stop-color:#5C2E22"/>
			<stop  offset="0.994" style="stop-color:#471F13"/>
		</radialGradient>
		<path fill="url(#SVGID_3_)" d="M288.277,307.684c0,0-9.818-11.354-33.33-11.354s-31.866,11.354-31.866,11.354V278.13h65.196
			V307.684z"/>
		<polygon fill="#9E532E" points="223.34,270.116 219.981,270.116 218.947,285.811 218.947,287.815 218.947,290.069 
			219.981,307.684 223.34,307.684 224.545,290.069 224.545,287.815 224.545,285.811 		"/>
		<g>
			<rect x="218.947" y="289.651" fill="#773D1D" width="5.598" height="0.417"/>
			<rect x="218.947" y="285.811" fill="#773D1D" width="5.598" height="0.334"/>
		</g>
		<polygon fill="#9E532E" points="291.206,270.116 287.761,270.116 286.641,285.811 286.641,287.815 286.641,290.069 
			287.761,307.684 291.206,307.684 292.239,290.069 292.239,287.815 292.239,285.811 		"/>
		<g>
			<rect x="286.641" y="289.651" fill="#773D1D" width="5.598" height="0.417"/>
			<rect x="286.641" y="285.811" fill="#773D1D" width="5.598" height="0.334"/>
		</g>
		<g>
			<path fill="#9E532E" d="M250.469,291.071c-3.1-1.252-6.545-0.584-8.612,1.336c0.603-2.004,0.258-4.425-1.033-6.428
				c0.172-1.002,0.431-2.004,0.775-2.922c0.086-0.167,0.172-0.334,0.258-0.584c1.033-1.92,2.153-1.67,3.1-1.503
				c0.775,0.167,1.981,1.837,2.067,3.339c0.086-1.085,0-2.254-0.172-3.172c1.378,0.167,2.842,0.167,4.306-0.167
				c3.531-0.835,5.856-2.755,3.876-3.84c-1.206-0.668-3.187,2.588-5.081,3.172c-0.172,0.083-0.344,0.083-0.517,0.167
				c-0.861,0.167-1.809,0.167-2.67,0.083c-0.172-0.751-0.431-1.419-0.775-1.92c-0.775-1.252-1.895-1.419-2.928-0.584
				c-1.12,0.751-2.498,2.505-3.876,2.922c-0.172,0.083-0.344,0.083-0.517,0.167c-1.809,0.417-3.962-0.083-5.512-0.584
				c-1.292-0.918-3.187-0.918-4.392,0c-0.775,0.584-1.12,1.503-0.947,2.338c0.086-0.584,0.344-1.085,0.861-1.503
				c0.344-0.25,0.775-0.501,1.206-0.584c-0.172,0.083-0.258,0.167-0.431,0.334c-0.603,0.584-0.861,1.252-0.775,1.92
				c0.086-0.417,0.258-0.918,0.689-1.252c0.861-0.835,2.325-0.918,3.273-0.417c0.086,0.083,0.172,0.083,0.172,0.167
				c0.172,0.167,0.258,0.25,0.431,0.417c-1.033,0.083-2.067,0.417-3.014,0.918c-1.981,1.252-3.187,3.339-3.273,5.593
				c0.431-1.419,1.292-2.672,2.67-3.506c0.947-0.584,1.981-0.835,3.014-0.835c-0.344,0.167-0.689,0.334-1.033,0.584
				c-1.636,1.169-2.584,3.005-2.584,4.842c0.344-1.169,1.033-2.254,2.153-3.089c2.325-1.67,5.598-1.336,7.493,0.668
				c0.172,0.167,0.258,0.334,0.431,0.584c1.981,3.089,1.464,6.929-1.12,8.933c0.258-0.083,0.517-0.25,0.775-0.417
				c0.431-0.25,0.775-0.501,1.12-0.835l0,0c2.411-2.254,5.426-3.924,8.871-2.588c0.258,0.083,0.431,0.167,0.603,0.25
				c2.325,1.503,3.187,4.508,1.895,7.013c-0.603,1.169-1.636,2.087-2.756,2.588c1.895-0.334,3.531-1.503,4.478-3.339
				c0.172-0.334,0.344-0.751,0.431-1.085c0.172,1.002,0.086,2.087-0.344,3.089c-0.603,1.419-1.722,2.505-3.1,3.172
				c2.325-0.501,4.306-1.92,5.167-4.091C256.842,296.914,254.689,292.74,250.469,291.071z M234.363,282.054
				c-0.086-0.25-0.172-0.501-0.344-0.751c1.809,0.584,4.134,0.918,6.545,0.334c0.172,0,0.344-0.083,0.517-0.083
				c-0.431,1.085-0.689,2.338-0.775,3.506C238.67,283.223,236.517,282.138,234.363,282.054z"/>
			<path fill="#9E532E" d="M256.153,300.588c0.861,2.171,2.842,3.59,5.167,4.091c-1.378-0.668-2.498-1.753-3.1-3.172
				c-0.431-1.002-0.517-2.004-0.344-3.089c0.086,0.334,0.258,0.751,0.431,1.085c0.947,1.753,2.584,3.005,4.478,3.339
				c-1.12-0.501-2.153-1.419-2.756-2.588c-1.292-2.505-0.431-5.51,1.895-7.013c0.172-0.083,0.431-0.167,0.603-0.25
				c3.445-1.336,6.545,0.334,8.871,2.588l0,0c0.344,0.334,0.689,0.584,1.12,0.835c0.258,0.167,0.517,0.25,0.775,0.417
				c-2.584-2.004-3.1-5.844-1.12-8.933c0.086-0.167,0.258-0.417,0.431-0.584c1.895-2.004,5.167-2.338,7.493-0.668
				c1.12,0.751,1.809,1.92,2.153,3.089c-0.086-1.837-0.947-3.673-2.584-4.842c-0.345-0.25-0.689-0.417-1.034-0.584
				c1.034,0,2.067,0.334,3.014,0.835c1.378,0.835,2.239,2.087,2.67,3.506c-0.086-2.254-1.206-4.425-3.273-5.593
				c-0.947-0.584-1.981-0.835-3.014-0.918c0.086-0.167,0.258-0.334,0.431-0.417c0.086-0.083,0.172-0.083,0.172-0.167
				c0.947-0.584,2.411-0.417,3.273,0.417c0.431,0.334,0.689,0.835,0.689,1.252c0.086-0.668-0.172-1.419-0.775-1.92
				c-0.086-0.083-0.258-0.25-0.431-0.334c0.431,0.083,0.861,0.25,1.206,0.584c0.517,0.417,0.861,0.918,0.861,1.503
				c0.086-0.835-0.172-1.67-0.947-2.338c-1.206-0.918-3.1-0.918-4.392,0c-1.55,0.417-3.703,1.002-5.512,0.584
				c-0.172-0.083-0.344-0.083-0.517-0.167c-1.378-0.501-2.756-2.171-3.876-2.922c-1.034-0.835-2.067-0.668-2.928,0.584
				c-0.345,0.501-0.603,1.169-0.775,1.92c-0.861,0.083-1.809,0.083-2.67-0.083c-0.172-0.083-0.344-0.083-0.517-0.167
				c-1.895-0.668-3.962-3.84-5.081-3.172c-1.981,1.085,0.344,3.005,3.876,3.84c1.55,0.334,3.014,0.334,4.306,0.167
				c-0.172,1.002-0.172,2.087-0.172,3.172c0.086-1.419,1.292-3.172,2.067-3.339c0.861-0.167,2.067-0.417,3.1,1.503
				c0.086,0.167,0.172,0.334,0.258,0.584c0.345,0.918,0.603,1.92,0.775,2.922c-1.292,2.087-1.55,4.425-0.947,6.428
				c-2.153-1.92-5.512-2.588-8.612-1.336C256.756,292.74,254.603,296.914,256.153,300.588z M271.311,284.976
				c-0.172-1.169-0.431-2.421-0.775-3.506c0.172,0,0.345,0.083,0.517,0.083c2.411,0.584,4.651,0.25,6.545-0.334
				c-0.172,0.25-0.258,0.501-0.345,0.751C274.928,282.138,272.775,283.223,271.311,284.976z"/>
		</g>
		<g>
			<path fill="#E2C340" d="M241.77,410.286c1.033,0,1.895-1.503,1.895-3.423c0-1.92-0.861-3.423-1.895-3.423
				c-1.033,0-1.895,1.503-1.895,3.423C239.875,408.783,240.737,410.286,241.77,410.286z M241.77,404.358
				c0.775,0,1.378,1.085,1.378,2.505c0,1.336-0.603,2.505-1.378,2.505c-0.775,0-1.378-1.085-1.378-2.505
				C240.392,405.527,240.995,404.358,241.77,404.358z"/>
			<path fill="#E2C340" d="M241.77,400.852c1.033,0,1.895-1.503,1.895-3.423s-0.861-3.423-1.895-3.423
				c-1.033,0-1.895,1.503-1.895,3.423C239.875,399.266,240.737,400.852,241.77,400.852z M241.77,394.925
				c0.775,0,1.378,1.085,1.378,2.505c0,1.336-0.603,2.505-1.378,2.505c-0.775,0-1.378-1.085-1.378-2.505
				C240.392,396.01,240.995,394.925,241.77,394.925z"/>
			<path fill="#E2C340" d="M241.77,405.527c0.861,0,1.206-1.503,1.206-3.423c0-1.92-0.344-3.423-1.206-3.423
				c-0.861,0-1.206,1.503-1.206,3.423C240.564,404.025,240.823,405.527,241.77,405.527z M241.77,399.683
				c0.689,0,0.775,1.085,0.775,2.505c0,1.336-0.172,2.505-0.775,2.505c-0.689,0-0.775-1.085-0.775-2.505
				S241.081,399.683,241.77,399.683z"/>
			<path fill="#E2C340" d="M241.77,396.094c0.861,0,1.206-1.503,1.206-3.423s-0.344-3.423-1.206-3.423
				c-0.861,0-1.206,1.503-1.206,3.423C240.478,394.591,240.823,396.094,241.77,396.094z M241.77,390.166
				c0.689,0,0.775,1.085,0.775,2.505c0,1.336-0.172,2.505-0.775,2.505c-0.689,0-0.775-1.085-0.775-2.505
				C240.995,391.335,241.081,390.166,241.77,390.166z"/>
			<path fill="#E2C340" d="M241.77,391.335c1.033,0,1.895-1.503,1.895-3.423s-0.861-3.423-1.895-3.423
				c-1.033,0-1.895,1.503-1.895,3.423C239.875,389.832,240.737,391.335,241.77,391.335z M241.77,385.491
				c0.775,0,1.378,1.085,1.378,2.505c0,1.336-0.603,2.505-1.378,2.505c-0.775,0-1.378-1.085-1.378-2.505
				S240.995,385.491,241.77,385.491z"/>
			<path fill="#E2C340" d="M241.77,381.901c1.033,0,1.895-1.503,1.895-3.423c0-1.92-0.861-3.423-1.895-3.423
				c-1.033,0-1.895,1.503-1.895,3.423C239.875,380.399,240.737,381.901,241.77,381.901z M241.77,376.057
				c0.775,0,1.378,1.085,1.378,2.505c0,1.336-0.603,2.505-1.378,2.505c-0.775,0-1.378-1.085-1.378-2.505
				C240.392,377.143,240.995,376.057,241.77,376.057z"/>
			<path fill="#E2C340" d="M241.77,386.66c0.861,0,1.206-1.503,1.206-3.423c0-1.92-0.344-3.423-1.206-3.423
				c-0.861,0-1.206,1.503-1.206,3.423C240.478,385.074,240.823,386.66,241.77,386.66z M241.77,380.732
				c0.689,0,0.775,1.085,0.775,2.505c0,1.336-0.172,2.505-0.775,2.505c-0.689,0-0.775-1.085-0.775-2.505
				C240.995,381.818,241.081,380.732,241.77,380.732z"/>
			<path fill="#E2C340" d="M241.77,377.143c0.861,0,1.206-1.503,1.206-3.423s-0.344-3.423-1.206-3.423
				c-0.861,0-1.206,1.503-1.206,3.423C240.478,375.64,240.823,377.143,241.77,377.143z M241.77,371.299
				c0.689,0,0.775,1.085,0.775,2.505c0,1.336-0.172,2.505-0.775,2.505c-0.689,0-0.775-1.085-0.775-2.505
				C240.995,372.384,241.081,371.299,241.77,371.299z"/>
			<path fill="#E2C340" d="M241.77,372.468c1.033,0,1.895-1.503,1.895-3.423c0-1.92-0.861-3.423-1.895-3.423
				c-1.033,0-1.895,1.503-1.895,3.423C239.875,370.881,240.737,372.468,241.77,372.468z M241.77,366.54
				c0.775,0,1.378,1.085,1.378,2.505c0,1.336-0.603,2.505-1.378,2.505c-0.775,0-1.378-1.085-1.378-2.505
				C240.392,367.709,240.995,366.54,241.77,366.54z"/>
			<path fill="#E2C340" d="M241.77,362.95c1.033,0,1.895-1.503,1.895-3.423c0-1.92-0.861-3.423-1.895-3.423
				c-1.033,0-1.895,1.503-1.895,3.423C239.875,361.448,240.737,362.95,241.77,362.95z M241.77,357.106
				c0.775,0,1.378,1.085,1.378,2.505c0,1.336-0.603,2.505-1.378,2.505c-0.775,0-1.378-1.085-1.378-2.505
				C240.392,358.192,240.995,357.106,241.77,357.106z"/>
			<path fill="#E2C340" d="M241.77,367.709c0.861,0,1.206-1.503,1.206-3.423c0-1.92-0.344-3.423-1.206-3.423
				c-0.861,0-1.206,1.503-1.206,3.423C240.478,366.206,240.823,367.709,241.77,367.709z M241.77,361.865
				c0.689,0,0.775,1.085,0.775,2.505c0,1.336-0.172,2.505-0.775,2.505c-0.689,0-0.775-1.085-0.775-2.505
				S241.081,361.865,241.77,361.865z"/>
			<path fill="#E2C340" d="M241.77,358.275c0.861,0,1.206-1.503,1.206-3.423s-0.344-3.423-1.206-3.423
				c-0.861,0-1.206,1.503-1.206,3.423C240.478,356.773,240.823,358.275,241.77,358.275z M241.77,352.348
				c0.689,0,0.775,1.085,0.775,2.505c0,1.336-0.172,2.505-0.775,2.505c-0.689,0-0.775-1.085-0.775-2.505
				C240.995,353.517,241.081,352.348,241.77,352.348z"/>
			<path fill="#E2C340" d="M241.77,353.517c1.033,0,1.895-1.503,1.895-3.423s-0.861-3.423-1.895-3.423
				c-1.033,0-1.895,1.503-1.895,3.423C239.875,352.014,240.737,353.517,241.77,353.517z M241.77,347.673
				c0.775,0,1.378,1.085,1.378,2.505c0,1.336-0.603,2.505-1.378,2.505c-0.775,0-1.378-1.085-1.378-2.505
				C240.392,348.758,240.995,347.673,241.77,347.673z"/>
			<path fill="#E2C340" d="M241.77,344.083c1.033,0,1.895-1.503,1.895-3.423s-0.861-3.423-1.895-3.423
				c-1.033,0-1.895,1.503-1.895,3.423C239.875,342.58,240.737,344.083,241.77,344.083z M241.77,338.156
				c0.775,0,1.378,1.085,1.378,2.505c0,1.336-0.603,2.505-1.378,2.505c-0.775,0-1.378-1.085-1.378-2.505
				C240.392,339.324,240.995,338.156,241.77,338.156z"/>
			<path fill="#E2C340" d="M241.77,348.842c0.861,0,1.206-1.503,1.206-3.423s-0.344-3.423-1.206-3.423
				c-0.861,0-1.206,1.503-1.206,3.423C240.478,347.255,240.823,348.842,241.77,348.842z M241.77,342.914
				c0.689,0,0.775,1.085,0.775,2.505c0,1.336-0.172,2.505-0.775,2.505c-0.689,0-0.775-1.085-0.775-2.505
				C240.995,343.999,241.081,342.914,241.77,342.914z"/>
			<path fill="#E2C340" d="M241.77,339.324c0.861,0,1.206-1.503,1.206-3.423s-0.344-3.423-1.206-3.423
				c-0.861,0-1.206,1.503-1.206,3.423C240.478,337.822,240.823,339.324,241.77,339.324z M241.77,333.48
				c0.689,0,0.775,1.085,0.775,2.505c0,1.336-0.172,2.505-0.775,2.505c-0.689,0-0.775-1.085-0.775-2.505
				C240.995,334.566,241.081,333.48,241.77,333.48z"/>
			<path fill="#E2C340" d="M241.77,334.566c1.033,0,1.895-1.503,1.895-3.423s-0.861-3.423-1.895-3.423
				c-1.033,0-1.895,1.503-1.895,3.423C239.875,333.063,240.737,334.566,241.77,334.566z M241.77,328.722
				c0.775,0,1.378,1.085,1.378,2.505c0,1.336-0.603,2.505-1.378,2.505c-0.775,0-1.378-1.085-1.378-2.505
				C240.392,329.807,240.995,328.722,241.77,328.722z"/>
			<path fill="#E2C340" d="M241.77,325.132c1.033,0,1.895-1.503,1.895-3.423c0-1.92-0.861-3.423-1.895-3.423
				c-1.033,0-1.895,1.503-1.895,3.423C239.875,323.629,240.737,325.132,241.77,325.132z M241.77,319.205
				c0.775,0,1.378,1.085,1.378,2.505c0,1.336-0.603,2.505-1.378,2.505c-0.775,0-1.378-1.085-1.378-2.505
				C240.392,320.373,240.995,319.205,241.77,319.205z"/>
			<path fill="#E2C340" d="M241.77,329.807c0.861,0,1.206-1.503,1.206-3.423c0-1.92-0.344-3.423-1.206-3.423
				c-0.861,0-1.206,1.503-1.206,3.423C240.478,328.304,240.823,329.807,241.77,329.807z M241.77,323.963
				c0.689,0,0.775,1.085,0.775,2.505c0,1.336-0.172,2.505-0.775,2.505c-0.689,0-0.775-1.085-0.775-2.505
				C240.995,325.049,241.081,323.963,241.77,323.963z"/>
			<path fill="#E2C340" d="M241.77,320.373c0.861,0,1.206-1.503,1.206-3.423c0-1.92-0.344-3.423-1.206-3.423
				c-0.861,0-1.206,1.503-1.206,3.423C240.478,318.871,240.823,320.373,241.77,320.373z M241.77,314.53
				c0.689,0,0.775,1.085,0.775,2.505c0,1.336-0.172,2.505-0.775,2.505c-0.689,0-0.775-1.085-0.775-2.505
				S241.081,314.53,241.77,314.53z"/>
			<path fill="#E2C340" d="M241.77,315.698c1.033,0,1.895-1.503,1.895-3.423s-0.861-3.423-1.895-3.423
				c-1.033,0-1.895,1.503-1.895,3.423C239.875,314.112,240.737,315.698,241.77,315.698z M241.77,309.771
				c0.775,0,1.378,1.085,1.378,2.505c0,1.336-0.603,2.505-1.378,2.505c-0.775,0-1.378-1.085-1.378-2.505
				S240.995,309.771,241.77,309.771z"/>
			<path fill="#E2C340" d="M241.77,306.181c1.033,0,1.895-1.503,1.895-3.423s-0.861-3.423-1.895-3.423
				c-1.033,0-1.895,1.503-1.895,3.423C239.875,304.678,240.737,306.181,241.77,306.181z M241.77,300.337
				c0.775,0,1.378,1.085,1.378,2.505c0,1.336-0.603,2.505-1.378,2.505c-0.775,0-1.378-1.085-1.378-2.505
				S240.995,300.337,241.77,300.337z"/>
			<path fill="#E2C340" d="M241.77,310.94c0.861,0,1.206-1.503,1.206-3.423s-0.344-3.423-1.206-3.423
				c-0.861,0-1.206,1.503-1.206,3.423C240.478,309.437,240.823,310.94,241.77,310.94z M241.77,305.012
				c0.689,0,0.775,1.085,0.775,2.505c0,1.336-0.172,2.505-0.775,2.505c-0.689,0-0.775-1.085-0.775-2.505
				C240.995,306.181,241.081,305.012,241.77,305.012z"/>
			<path fill="#E2C340" d="M241.77,301.506c0.861,0,1.206-1.503,1.206-3.423s-0.344-3.423-1.206-3.423
				c-0.861,0-1.206,1.503-1.206,3.423C240.478,299.92,240.823,301.506,241.77,301.506z M241.77,295.579
				c0.689,0,0.775,1.085,0.775,2.505c0,1.336-0.172,2.505-0.775,2.505c-0.689,0-0.775-1.085-0.775-2.505
				C240.995,296.747,241.081,295.579,241.77,295.579z"/>
			<path fill="#E2C340" d="M241.77,296.747c1.033,0,1.895-1.503,1.895-3.423s-0.861-3.423-1.895-3.423
				c-1.033,0-1.895,1.503-1.895,3.423C239.875,295.245,240.737,296.747,241.77,296.747z M241.77,290.904
				c0.775,0,1.378,1.085,1.378,2.505c0,1.336-0.603,2.505-1.378,2.505c-0.775,0-1.378-1.085-1.378-2.505
				C240.392,291.989,240.995,290.904,241.77,290.904z"/>
			<path fill="#E2C340" d="M241.77,287.314c1.033,0,1.895-1.503,1.895-3.423c0-1.92-0.861-3.423-1.895-3.423
				c-1.033,0-1.895,1.503-1.895,3.423S240.737,287.314,241.77,287.314z M241.77,281.386c0.775,0,1.378,1.085,1.378,2.505
				c0,1.336-0.603,2.505-1.378,2.505c-0.775,0-1.378-1.085-1.378-2.505C240.392,282.555,240.995,281.386,241.77,281.386z"/>
			<path fill="#E2C340" d="M241.77,291.989c0.861,0,1.206-1.503,1.206-3.423s-0.344-3.423-1.206-3.423
				c-0.861,0-1.206,1.503-1.206,3.423C240.478,290.486,240.823,291.989,241.77,291.989z M241.77,286.145
				c0.689,0,0.775,1.085,0.775,2.505c0,1.336-0.172,2.505-0.775,2.505c-0.689,0-0.775-1.085-0.775-2.505
				C240.995,287.23,241.081,286.145,241.77,286.145z"/>
			<path fill="#E2C340" d="M241.77,282.555c0.861,0,1.206-1.503,1.206-3.423c0-1.92-0.344-3.423-1.206-3.423
				c-0.861,0-1.206,1.503-1.206,3.423C240.478,281.052,240.823,282.555,241.77,282.555z M241.77,276.711
				c0.689,0,0.775,1.085,0.775,2.505c0,1.336-0.172,2.505-0.775,2.505c-0.689,0-0.775-1.085-0.775-2.505
				S241.081,276.711,241.77,276.711z"/>
			<path fill="#E2C340" d="M241.77,277.88c1.033,0,1.895-1.503,1.895-3.423c0-1.92-0.861-3.423-1.895-3.423
				c-1.033,0-1.895,1.503-1.895,3.423C239.875,276.294,240.737,277.88,241.77,277.88z M241.77,271.953
				c0.775,0,1.378,1.085,1.378,2.505c0,1.336-0.603,2.505-1.378,2.505c-0.775,0-1.378-1.085-1.378-2.505
				C240.392,273.038,240.995,271.953,241.77,271.953z"/>
			<path fill="#E2C340" d="M248.143,428.652l-2.498-13.024c0-0.918-1.206-2.421-2.239-2.421h-0.603v-2.004
				c0-0.668-0.517-0.918-1.206-0.918s-1.206,0.25-1.206,0.918v2.004h-0.431c-0.947,0-2.239,1.503-2.239,2.421l-2.756,14.025
				c-1.722,1.837-2.756,4.341-2.756,7.096c0,5.593,4.392,10.185,9.904,10.185c5.426,0,9.904-4.592,9.904-10.185
				C251.933,433.411,250.469,430.489,248.143,428.652z"/>
			<path fill="#E2C340" d="M271.052,377.477c1.034,0,1.895-1.503,1.895-3.423s-0.861-3.423-1.895-3.423
				c-1.033,0-1.895,1.503-1.895,3.423C269.244,375.974,270.019,377.477,271.052,377.477z M271.052,371.633
				c0.775,0,1.378,1.085,1.378,2.505c0,1.419-0.603,2.505-1.378,2.505s-1.378-1.085-1.378-2.505
				C269.674,372.718,270.363,371.633,271.052,371.633z"/>
			<path fill="#E2C340" d="M271.052,368.043c1.034,0,1.895-1.503,1.895-3.423c0-1.92-0.861-3.423-1.895-3.423
				c-1.033,0-1.895,1.503-1.895,3.423C269.244,366.54,270.019,368.043,271.052,368.043z M271.052,362.199
				c0.775,0,1.378,1.085,1.378,2.505c0,1.336-0.603,2.505-1.378,2.505s-1.378-1.085-1.378-2.505
				C269.761,363.284,270.363,362.199,271.052,362.199z"/>
			<path fill="#E2C340" d="M271.052,372.802c0.861,0,1.206-1.503,1.206-3.423c0-1.92-0.344-3.423-1.206-3.423
				c-0.861,0-1.206,1.503-1.206,3.423C269.847,371.215,270.191,372.802,271.052,372.802z M271.052,366.874
				c0.689,0,0.775,1.085,0.775,2.505c0,1.336-0.172,2.505-0.775,2.505c-0.689,0-0.775-1.085-0.775-2.505
				C270.277,368.043,270.45,366.874,271.052,366.874z"/>
			<path fill="#E2C340" d="M271.052,363.284c0.861,0,1.206-1.503,1.206-3.423c0-1.92-0.344-3.423-1.206-3.423
				c-0.861,0-1.206,1.503-1.206,3.423S270.191,363.284,271.052,363.284z M271.052,357.44c0.689,0,0.775,1.085,0.775,2.505
				c0,1.336-0.172,2.505-0.775,2.505c-0.689,0-0.775-1.085-0.775-2.505S270.45,357.44,271.052,357.44z"/>
			<path fill="#E2C340" d="M271.052,358.609c1.034,0,1.895-1.503,1.895-3.423c0-1.92-0.861-3.423-1.895-3.423
				c-1.033,0-1.895,1.503-1.895,3.423C269.244,357.106,270.019,358.609,271.052,358.609z M271.052,352.682
				c0.775,0,1.378,1.085,1.378,2.505c0,1.336-0.603,2.505-1.378,2.505s-1.378-1.085-1.378-2.505
				C269.761,353.851,270.363,352.682,271.052,352.682z"/>
			<path fill="#E2C340" d="M271.052,349.175c1.034,0,1.895-1.503,1.895-3.423s-0.861-3.423-1.895-3.423
				c-1.033,0-1.895,1.503-1.895,3.423C269.244,347.589,270.019,349.175,271.052,349.175z M271.052,343.248
				c0.775,0,1.378,1.085,1.378,2.505c0,1.336-0.603,2.505-1.378,2.505s-1.378-1.085-1.378-2.505
				C269.761,344.333,270.363,343.248,271.052,343.248z"/>
			<path fill="#E2C340" d="M271.052,353.851c0.861,0,1.206-1.503,1.206-3.423c0-1.92-0.344-3.423-1.206-3.423
				c-0.861,0-1.206,1.503-1.206,3.423C269.847,352.348,270.191,353.851,271.052,353.851z M271.052,348.007
				c0.689,0,0.775,1.085,0.775,2.505c0,1.336-0.172,2.505-0.775,2.505c-0.689,0-0.775-1.085-0.775-2.505
				C270.277,349.092,270.45,348.007,271.052,348.007z"/>
			<path fill="#E2C340" d="M271.052,344.417c0.861,0,1.206-1.503,1.206-3.423s-0.344-3.423-1.206-3.423
				c-0.861,0-1.206,1.503-1.206,3.423C269.847,342.914,270.191,344.417,271.052,344.417z M271.052,338.49
				c0.689,0,0.775,1.085,0.775,2.505c0,1.336-0.172,2.505-0.775,2.505c-0.689,0-0.775-1.085-0.775-2.505
				C270.277,339.658,270.45,338.49,271.052,338.49z"/>
			<path fill="#E2C340" d="M271.052,339.658c1.034,0,1.895-1.503,1.895-3.423s-0.861-3.423-1.895-3.423
				c-1.033,0-1.895,1.503-1.895,3.423C269.244,338.156,270.019,339.658,271.052,339.658z M271.052,333.814
				c0.775,0,1.378,1.085,1.378,2.505c0,1.336-0.603,2.505-1.378,2.505s-1.378-1.085-1.378-2.505
				C269.761,334.9,270.363,333.814,271.052,333.814z"/>
			<path fill="#E2C340" d="M271.052,330.225c1.034,0,1.895-1.503,1.895-3.423c0-1.92-0.861-3.423-1.895-3.423
				c-1.033,0-1.895,1.503-1.895,3.423C269.244,328.722,270.019,330.225,271.052,330.225z M271.052,324.381
				c0.775,0,1.378,1.085,1.378,2.505c0,1.336-0.603,2.505-1.378,2.505s-1.378-1.085-1.378-2.505
				C269.761,325.466,270.363,324.381,271.052,324.381z"/>
			<path fill="#E2C340" d="M271.052,334.983c0.861,0,1.206-1.503,1.206-3.423c0-1.837-0.344-3.423-1.206-3.423
				c-0.861,0-1.206,1.503-1.206,3.423C269.847,333.397,270.191,334.983,271.052,334.983z M271.052,329.056
				c0.689,0,0.775,1.085,0.775,2.505c0,1.336-0.172,2.505-0.775,2.505c-0.689,0-0.775-1.085-0.775-2.505
				C270.277,330.141,270.45,329.056,271.052,329.056z"/>
			<path fill="#E2C340" d="M271.052,325.466c0.861,0,1.206-1.503,1.206-3.423c0-1.92-0.344-3.423-1.206-3.423
				c-0.861,0-1.206,1.503-1.206,3.423C269.847,323.963,270.191,325.466,271.052,325.466z M271.052,319.622
				c0.689,0,0.775,1.085,0.775,2.505c0,1.336-0.172,2.505-0.775,2.505c-0.689,0-0.775-1.085-0.775-2.505
				C270.277,320.707,270.45,319.622,271.052,319.622z"/>
			<path fill="#E2C340" d="M271.052,320.791c1.034,0,1.895-1.503,1.895-3.423c0-1.92-0.861-3.423-1.895-3.423
				c-1.033,0-1.895,1.503-1.895,3.423C269.244,319.205,270.019,320.791,271.052,320.791z M271.052,314.864
				c0.775,0,1.378,1.085,1.378,2.505c0,1.336-0.603,2.505-1.378,2.505s-1.378-1.085-1.378-2.505
				C269.761,316.032,270.363,314.864,271.052,314.864z"/>
			<path fill="#E2C340" d="M271.052,311.274c1.034,0,1.895-1.503,1.895-3.423c0-1.92-0.861-3.423-1.895-3.423
				c-1.033,0-1.895,1.503-1.895,3.423C269.244,309.771,270.019,311.274,271.052,311.274z M271.052,305.43
				c0.775,0,1.378,1.085,1.378,2.505c0,1.336-0.603,2.505-1.378,2.505s-1.378-1.085-1.378-2.505
				C269.761,306.515,270.363,305.43,271.052,305.43z"/>
			<path fill="#E2C340" d="M271.052,316.032c0.861,0,1.206-1.503,1.206-3.423c0-1.92-0.344-3.423-1.206-3.423
				c-0.861,0-1.206,1.503-1.206,3.423C269.847,314.53,270.191,316.032,271.052,316.032z M271.052,310.188
				c0.689,0,0.775,1.085,0.775,2.505c0,1.336-0.172,2.505-0.775,2.505c-0.689,0-0.775-1.085-0.775-2.505
				S270.45,310.188,271.052,310.188z"/>
			<path fill="#E2C340" d="M271.052,306.599c0.861,0,1.206-1.503,1.206-3.423s-0.344-3.423-1.206-3.423
				c-0.861,0-1.206,1.503-1.206,3.423C269.847,305.096,270.191,306.599,271.052,306.599z M271.052,300.671
				c0.689,0,0.775,1.085,0.775,2.505c0,1.336-0.172,2.505-0.775,2.505c-0.689,0-0.775-1.085-0.775-2.505
				C270.277,301.84,270.45,300.671,271.052,300.671z"/>
			<path fill="#E2C340" d="M271.052,301.84c1.034,0,1.895-1.503,1.895-3.423s-0.861-3.423-1.895-3.423
				c-1.033,0-1.895,1.503-1.895,3.423C269.244,300.254,270.019,301.84,271.052,301.84z M271.052,295.913
				c0.775,0,1.378,1.085,1.378,2.505c0,1.419-0.603,2.505-1.378,2.505s-1.378-1.085-1.378-2.505
				C269.674,296.998,270.363,295.913,271.052,295.913z"/>
			<path fill="#E2C340" d="M271.052,292.323c1.034,0,1.895-1.503,1.895-3.423s-0.861-3.423-1.895-3.423
				c-1.033,0-1.895,1.503-1.895,3.423C269.244,290.82,270.019,292.323,271.052,292.323z M271.052,286.479
				c0.775,0,1.378,1.085,1.378,2.505c0,1.336-0.603,2.505-1.378,2.505s-1.378-1.085-1.378-2.505
				C269.761,287.564,270.363,286.479,271.052,286.479z"/>
			<path fill="#E2C340" d="M271.052,297.081c0.861,0,1.206-1.503,1.206-3.423s-0.344-3.423-1.206-3.423
				c-0.861,0-1.206,1.503-1.206,3.423C269.847,295.579,270.191,297.081,271.052,297.081z M271.052,291.237
				c0.689,0,0.775,1.085,0.775,2.505c0,1.336-0.172,2.505-0.775,2.505c-0.689,0-0.775-1.085-0.775-2.505
				S270.45,291.237,271.052,291.237z"/>
			<path fill="#E2C340" d="M271.052,287.648c0.861,0,1.206-1.503,1.206-3.423s-0.344-3.423-1.206-3.423
				c-0.861,0-1.206,1.503-1.206,3.423C269.847,286.145,270.191,287.648,271.052,287.648z M271.052,281.72
				c0.689,0,0.775,1.085,0.775,2.505c0,1.336-0.172,2.505-0.775,2.505c-0.689,0-0.775-1.085-0.775-2.505
				C270.277,282.889,270.45,281.72,271.052,281.72z"/>
			<path fill="#E2C340" d="M271.052,282.889c1.034,0,1.895-1.503,1.895-3.423s-0.861-3.423-1.895-3.423
				c-1.033,0-1.895,1.503-1.895,3.423C269.244,281.386,270.019,282.889,271.052,282.889z M271.052,277.045
				c0.775,0,1.378,1.085,1.378,2.505c0,1.336-0.603,2.505-1.378,2.505s-1.378-1.085-1.378-2.505
				C269.761,278.13,270.363,277.045,271.052,277.045z"/>
			<path fill="#E2C340" d="M271.052,278.13c0.861,0,1.206-1.503,1.206-3.423c0-1.92-0.344-3.423-1.206-3.423
				c-0.861,0-1.206,1.503-1.206,3.423S270.191,278.13,271.052,278.13z M271.052,272.287c0.689,0,0.775,1.085,0.775,2.505
				c0,1.336-0.172,2.505-0.775,2.505c-0.689,0-0.775-1.085-0.775-2.505C270.277,273.372,270.45,272.287,271.052,272.287z"/>
			<path fill="#E2C340" d="M277.426,395.927l-2.498-13.024c0-0.918-1.206-2.421-2.239-2.421h-0.603v-2.004
				c0-0.668-0.517-0.918-1.206-0.918c-0.689,0-1.206,0.25-1.206,0.918v2.004h-0.431c-0.947,0-2.239,1.503-2.239,2.421l-2.756,14.025
				c-1.722,1.837-2.756,4.341-2.756,7.096c0,5.677,4.392,10.185,9.904,10.185c5.426,0,9.904-4.592,9.904-10.185
				C281.301,400.685,279.751,397.763,277.426,395.927z"/>
		</g>
		<polygon fill="#B85227" points="305.933,271.869 205.34,271.869 206.287,269.448 305.072,269.448 		"/>
		<polygon fill="#9E532E" points="305.933,271.869 205.34,271.869 206.287,275.96 205.34,279.8 305.933,279.8 305.072,275.96 		"/>
		<polygon fill="#B85227" points="305.933,279.8 205.34,279.8 205.77,278.214 305.502,278.214 		"/>
		<g>
			<path fill="#CAA76B" d="M240.995,190.389h-21.962v18.951C222.478,199.989,230.746,192.726,240.995,190.389z"/>
			<path fill="#CAA76B" d="M291.119,209.423v-19.034h-21.962C279.32,192.726,287.588,199.989,291.119,209.423z"/>
		</g>
		<g>
			<path fill="#C19C00" d="M280.44,176.113c0-13.107-10.938-23.793-24.545-23.793c-13.522,0-24.545,10.602-24.545,23.793h17.655
				c-0.603-0.417-1.292-1.336-1.981-1.586c-0.086,0-0.172-0.083-0.258-0.083c-0.947-0.25-2.153,0.083-2.928,0.334
				c-0.689,0.501-1.722,0.501-2.411,0c-0.431-0.334-0.603-0.835-0.517-1.336c0,0.334,0.172,0.584,0.517,0.835
				c0.172,0.167,0.431,0.25,0.689,0.334c-0.086-0.083-0.172-0.083-0.172-0.167c-0.344-0.334-0.517-0.751-0.431-1.085
				c0,0.25,0.172,0.501,0.344,0.751c0.517,0.417,1.206,0.501,1.722,0.25l0.086-0.083c0.086-0.083,0.172-0.167,0.258-0.25
				c-0.603-0.083-1.12-0.25-1.636-0.501c-1.12-0.668-1.722-1.837-1.722-3.172c0.258,0.835,0.689,1.503,1.464,2.004
				c0.517,0.334,1.033,0.501,1.636,0.501c-0.172-0.083-0.344-0.167-0.603-0.334c-0.861-0.668-1.378-1.67-1.378-2.671
				c0.172,0.668,0.603,1.252,1.206,1.753c1.292,0.918,3.014,0.751,4.048-0.334c0.086-0.083,0.172-0.167,0.172-0.334
				c1.033-1.753,0.775-3.924-0.603-5.009c0.172,0.083,0.258,0.167,0.431,0.25c0.258,0.167,0.431,0.334,0.603,0.501l0,0
				c1.292,1.252,2.928,2.254,4.823,1.419c0.086-0.083,0.258-0.083,0.344-0.167c1.292-0.835,1.722-2.505,1.033-3.924
				c-0.344-0.668-0.861-1.169-1.464-1.503c1.033,0.167,1.895,0.835,2.411,1.837c0.086,0.167,0.172,0.417,0.258,0.584
				c0.086-0.584,0-1.169-0.172-1.753c-0.344-0.835-0.947-1.419-1.636-1.753c1.206,0.25,2.325,1.085,2.756,2.254
				c0.086,0.25,0.172,0.501,0.258,0.835c0-0.25,0.086-0.584,0.258-0.835c0.517-1.169,1.55-2.004,2.756-2.254
				c-0.775,0.334-1.378,1.002-1.636,1.753c-0.258,0.584-0.258,1.169-0.172,1.753c0.086-0.167,0.172-0.417,0.258-0.584
				c0.517-1.002,1.378-1.67,2.411-1.837c-0.603,0.25-1.12,0.751-1.464,1.503c-0.689,1.419-0.258,3.089,1.033,3.924
				c0.086,0.083,0.258,0.083,0.345,0.167c1.895,0.751,3.531-0.167,4.823-1.419l0,0c0.172-0.167,0.344-0.334,0.603-0.501
				c0.172-0.083,0.258-0.167,0.431-0.25c-1.378,1.169-1.636,3.256-0.603,5.009c0.086,0.083,0.172,0.25,0.172,0.334
				c1.034,1.085,2.756,1.336,4.048,0.334c0.603-0.417,1.034-1.085,1.206-1.753c0,1.002-0.517,2.087-1.378,2.671
				c-0.172,0.167-0.344,0.25-0.517,0.334c0.603,0,1.12-0.167,1.636-0.501c0.689-0.417,1.206-1.169,1.464-2.004
				c-0.086,1.252-0.689,2.505-1.722,3.172c-0.517,0.334-1.034,0.501-1.636,0.501c0.086,0.083,0.172,0.167,0.172,0.25l0.086,0.083
				c0.517,0.334,1.292,0.25,1.723-0.25c0.258-0.25,0.344-0.501,0.344-0.751c0.086,0.417-0.086,0.751-0.431,1.085
				c-0.086,0.083-0.172,0.083-0.258,0.167c0.258-0.083,0.517-0.167,0.689-0.334c0.258-0.25,0.431-0.501,0.517-0.835
				c0.086,0.501-0.086,0.918-0.517,1.336c-0.689,0.501-1.636,0.501-2.411,0c-0.861-0.25-1.981-0.584-2.928-0.334
				c-0.086,0-0.172,0.083-0.258,0.083c-0.689,0.25-1.378,1.169-1.981,1.586h15.244H280.44z"/>
			<path fill="#C19C00" d="M263.387,168.015c-1.12,1.085-2.928,1.419-4.651,0.751c-1.55-0.668-2.584-2.004-2.842-3.423
				c-0.172,1.419-1.206,2.838-2.842,3.423c-1.722,0.668-3.531,0.334-4.651-0.751c0.344,1.169,0.172,2.505-0.517,3.673
				c0.086,0.584,0.172,1.085,0.431,1.67c0,0.083,0.086,0.25,0.086,0.334c0.517,1.085,1.206,0.918,1.636,0.835
				c0.431-0.083,1.12-1.002,1.12-1.837c0,0.668,0,1.252-0.086,1.753c0.689-0.083,1.55-0.083,2.325,0.083
				c1.292,0.334,2.239,0.835,2.411,1.419c0.172-0.501,1.206-1.085,2.411-1.419c0.775-0.167,1.636-0.167,2.325-0.083
				c-0.086-0.584-0.086-1.169-0.086-1.753c0,0.835,0.689,1.753,1.12,1.837c0.517,0.083,1.12,0.25,1.636-0.835
				c0-0.083,0.086-0.167,0.086-0.334c0.172-0.501,0.345-1.085,0.431-1.67C263.215,170.436,263.043,169.184,263.387,168.015z"/>
			<path fill="#C19C00" d="M267.607,174.276c-0.086-0.167-0.172-0.25-0.172-0.417c-1.12-0.083-2.325-0.668-3.1-1.67
				c-0.086,0.668-0.172,1.336-0.431,2.004c0.086,0,0.172-0.083,0.258-0.083C265.454,173.775,266.66,173.942,267.607,174.276z"/>
			<path fill="#C19C00" d="M244.44,173.859c-0.086,0.167-0.086,0.25-0.172,0.417c1.033-0.334,2.239-0.501,3.531-0.167
				c0.086,0,0.172,0.083,0.258,0.083c-0.172-0.668-0.344-1.336-0.431-2.004C246.765,173.191,245.56,173.775,244.44,173.859z"/>
		</g>
		
			<radialGradient id="SVGID_4_" cx="-110.9656" cy="417.7175" r="9.1013" gradientTransform="matrix(2.1289 0 0 2.0637 492.169 -697.8456)" gradientUnits="userSpaceOnUse">
			<stop  offset="0" style="stop-color:#956627"/>
			<stop  offset="1" style="stop-color:#BD8D48"/>
		</radialGradient>
		<path opacity="0.76" fill="url(#SVGID_4_)" enable-background="new    " d="M260.804,174.694
			c-0.517-0.083-0.947-0.083-1.464,0.083c-0.086,0-0.172,0.083-0.258,0.083c-0.517,0.167-1.12,0.751-1.55,1.252h3.962
			c-0.086-0.083-0.172-0.167-0.172-0.25C260.976,175.529,260.89,175.111,260.804,174.694z"/>
		
			<radialGradient id="SVGID_5_" cx="-110.9656" cy="417.7175" r="9.1009" gradientTransform="matrix(2.1289 0 0 2.0637 492.169 -697.8456)" gradientUnits="userSpaceOnUse">
			<stop  offset="0" style="stop-color:#956627"/>
			<stop  offset="1" style="stop-color:#BD8D48"/>
		</radialGradient>
		<path opacity="0.76" fill="url(#SVGID_5_)" enable-background="new    " d="M252.536,174.777
			c-0.431-0.083-0.947-0.083-1.464-0.083c-0.086,0.417-0.258,0.835-0.431,1.085c-0.086,0.083-0.172,0.167-0.172,0.25h3.876
			c-0.517-0.501-1.033-1.085-1.55-1.252C252.794,174.777,252.622,174.777,252.536,174.777z"/>
		<g>
			<path fill="#CAA76B" d="M265.11,174.36c0.947-0.25,2.153,0.083,2.928,0.334c0.689,0.501,1.722,0.501,2.411,0
				c0.431-0.334,0.603-0.835,0.517-1.336c0,0.334-0.172,0.584-0.517,0.835c-0.172,0.167-0.431,0.25-0.689,0.334
				c0.086-0.083,0.172-0.083,0.258-0.167c0.344-0.334,0.517-0.751,0.431-1.085c0,0.25-0.172,0.501-0.344,0.751
				c-0.517,0.417-1.206,0.501-1.723,0.25l-0.086-0.083c-0.086-0.083-0.172-0.167-0.172-0.25c0.603-0.083,1.12-0.25,1.636-0.501
				c1.12-0.668,1.722-1.837,1.722-3.172c-0.258,0.835-0.689,1.503-1.464,2.004c-0.517,0.334-1.034,0.501-1.636,0.501
				c0.172-0.083,0.345-0.167,0.517-0.334c0.861-0.668,1.378-1.67,1.378-2.671c-0.172,0.668-0.603,1.252-1.206,1.753
				c-1.292,0.918-3.014,0.751-4.048-0.334c-0.086-0.083-0.172-0.167-0.172-0.334c-1.033-1.753-0.775-3.924,0.603-5.009
				c-0.172,0.083-0.258,0.167-0.431,0.25c-0.258,0.167-0.431,0.334-0.603,0.501l0,0c-1.292,1.252-2.928,2.254-4.823,1.419
				c-0.086-0.083-0.258-0.083-0.345-0.167c-1.292-0.835-1.722-2.505-1.033-3.924c0.344-0.668,0.861-1.169,1.464-1.503
				c-1.033,0.167-1.895,0.835-2.411,1.837c-0.086,0.167-0.172,0.417-0.258,0.584c-0.086-0.584,0-1.169,0.172-1.753
				c0.344-0.835,0.947-1.419,1.636-1.753c-1.206,0.25-2.325,1.085-2.756,2.254c-0.086,0.25-0.172,0.501-0.258,0.835
				c0-0.25-0.086-0.584-0.258-0.835c-0.517-1.169-1.55-2.004-2.756-2.254c0.775,0.334,1.378,1.002,1.636,1.753
				c0.258,0.584,0.258,1.169,0.172,1.753c-0.086-0.167-0.172-0.417-0.258-0.584c-0.517-1.002-1.378-1.67-2.411-1.837
				c0.603,0.25,1.12,0.751,1.464,1.503c0.689,1.419,0.258,3.089-1.033,3.924c-0.086,0.083-0.258,0.083-0.344,0.167
				c-1.895,0.751-3.531-0.167-4.823-1.419l0,0c-0.172-0.167-0.344-0.334-0.603-0.501c-0.172-0.083-0.258-0.167-0.431-0.25
				c1.378,1.169,1.636,3.256,0.603,5.009c-0.086,0.083-0.172,0.25-0.172,0.334c-1.033,1.085-2.756,1.336-4.048,0.334
				c-0.603-0.417-1.033-1.085-1.206-1.753c0,1.002,0.517,2.087,1.378,2.671c0.172,0.167,0.344,0.25,0.603,0.334
				c-0.603,0-1.12-0.167-1.636-0.501c-0.689-0.417-1.206-1.169-1.464-2.004c0.086,1.252,0.689,2.505,1.722,3.172
				c0.517,0.334,1.033,0.501,1.636,0.501c-0.086,0.083-0.172,0.167-0.258,0.25l-0.086,0.083c-0.517,0.334-1.292,0.25-1.722-0.25
				c-0.258-0.25-0.344-0.501-0.344-0.751c-0.086,0.417,0.086,0.751,0.431,1.085c0.086,0.083,0.172,0.083,0.172,0.167
				c-0.258-0.083-0.431-0.167-0.689-0.334c-0.258-0.25-0.431-0.501-0.517-0.835c-0.086,0.501,0.086,0.918,0.517,1.336
				c0.689,0.501,1.636,0.501,2.411,0c0.861-0.25,1.981-0.584,2.928-0.334c0.086,0,0.172,0.083,0.258,0.083
				c0.689,0.25,1.378,1.169,1.981,1.586c0,0,0.086,0,0.086,0.083c0.431,0.417,0.947,0.417,1.378-0.083
				c0.086-0.083,0.172-0.167,0.172-0.25c0.172-0.25,0.344-0.668,0.431-1.085c0.517-0.083,0.947-0.083,1.464,0.083
				c0.086,0,0.172,0.083,0.258,0.083c0.517,0.167,1.12,0.751,1.55,1.252c0.431,0.417,0.861,0.751,1.12,0.584
				c0.172-0.083,0.258-0.25,0.344-0.334c0.086,0.167,0.172,0.25,0.344,0.334c0.344,0.167,0.689-0.167,1.12-0.584
				c0.517-0.501,1.033-1.085,1.55-1.252c0.086,0,0.172-0.083,0.258-0.083c0.431-0.083,0.947-0.083,1.464-0.083
				c0.086,0.417,0.258,0.835,0.431,1.085c0.086,0.083,0.172,0.167,0.172,0.25c0.431,0.417,0.861,0.417,1.378,0.083
				c0,0,0.086,0,0.086-0.083c0.603-0.417,1.292-1.336,1.981-1.586C264.851,174.443,265.024,174.443,265.11,174.36z M247.713,174.109
				c-1.292-0.334-2.498-0.167-3.531,0.167c0.086-0.167,0.172-0.25,0.172-0.417c1.12-0.083,2.325-0.668,3.1-1.67
				c0.086,0.668,0.172,1.336,0.431,2.004C247.885,174.109,247.799,174.109,247.713,174.109z M263.387,173.608
				c-0.517,1.085-1.206,0.918-1.636,0.835c-0.431-0.083-1.12-1.002-1.12-1.837c0,0.668,0,1.252,0.086,1.753
				c-0.689-0.083-1.55-0.083-2.325,0.083c-1.292,0.334-2.239,0.835-2.411,1.419c-0.172-0.501-1.206-1.085-2.411-1.419
				c-0.775-0.167-1.636-0.167-2.325-0.083c0.086-0.584,0.086-1.169,0.086-1.753c0,0.835-0.689,1.753-1.12,1.837
				c-0.517,0.083-1.12,0.25-1.636-0.835c0-0.083-0.086-0.167-0.086-0.334c-0.172-0.501-0.344-1.085-0.431-1.67
				c0.689-1.169,0.861-2.505,0.517-3.673c1.12,1.085,2.928,1.419,4.651,0.751c1.55-0.668,2.584-2.004,2.842-3.423
				c0.172,1.419,1.206,2.838,2.842,3.423c1.722,0.668,3.531,0.334,4.651-0.751c-0.344,1.169-0.172,2.505,0.517,3.673
				c-0.086,0.584-0.172,1.085-0.431,1.67C263.473,173.358,263.473,173.525,263.387,173.608z M263.904,174.193
				c0.172-0.668,0.344-1.336,0.431-2.004c0.861,1.002,1.981,1.586,3.1,1.67c0,0.167,0.086,0.25,0.172,0.417
				c-1.034-0.334-2.239-0.501-3.531-0.167C264.076,174.109,263.99,174.109,263.904,174.193z"/>
			<path fill="#CAA76B" d="M255.895,158.498c-9.215,0-16.622,7.263-16.622,16.112h33.33
				C272.603,165.761,265.11,158.498,255.895,158.498z M240.651,174.61c0-8.181,6.89-14.86,15.33-14.86s15.33,6.679,15.33,14.86
				H240.651z"/>
			<path fill="#CAA76B" d="M255.895,153.656c-11.971,0-21.703,9.434-21.703,21.038h43.407
				C277.598,163.089,267.866,153.656,255.895,153.656z M236,174.694c0-10.686,8.957-19.285,19.895-19.285
				c11.024,0,19.895,8.682,19.895,19.285H236z"/>
		</g>
		<polygon fill="#9E4523" points="305.072,183.626 206.287,183.626 205.34,179.619 305.933,179.619 		"/>
		<polygon fill="#9E532E" points="305.933,174.61 205.34,174.61 206.201,176.864 205.34,179.786 305.933,179.786 305.072,176.864 		
			"/>
		<g>
			<path fill="#B1995A" d="M262.871,226.621c0.172,0,0.258-0.083,0.431-0.083c0.775-0.25,1.378-0.835,1.464-1.419l17.655-6.094
				l7.062-3.256l-7.751,1.336l-18.086,4.759c-0.431-0.501-1.206-0.668-2.067-0.417c-0.172,0.083-0.258,0.083-0.431,0.167
				c-0.603-0.417-1.464-0.501-2.325-0.25c-1.292,0.417-2.067,1.503-1.723,2.505c0.172,0.417,0.431,0.751,0.861,0.918
				c-0.517,0.25-0.861,0.584-0.775,0.918c0.086,0.25,0.517,0.417,1.033,0.334c-0.172,0.334-0.172,0.751-0.086,1.085
				c0.344,1.002,1.636,1.419,2.928,1.085C261.923,227.873,262.612,227.289,262.871,226.621z M263.215,226.287
				c-0.086,0-0.172,0.083-0.258,0.083c0-0.25,0-0.417-0.086-0.668c-0.172-0.501-0.603-0.835-1.12-1.002
				c0.172-0.167,0.431-0.334,0.775-0.417c0.775-0.25,1.55,0,1.722,0.584C264.421,225.369,263.99,226.036,263.215,226.287z
				 M260.89,224.45c0.172-0.083,0.258-0.167,0.344-0.334c0.172,0,0.258,0.083,0.431,0.083c-0.172,0.083-0.258,0.167-0.345,0.334
				C261.234,224.534,261.062,224.534,260.89,224.45z M262.354,226.287c-0.431-0.083-0.775-0.334-0.947-0.668
				c-0.086-0.167-0.086-0.417,0-0.584c0.431,0.167,0.689,0.417,0.861,0.751C262.354,226.036,262.354,226.203,262.354,226.287z
				 M276.134,219.107l9.129-2.171l-8.785,3.339l-11.971,4.091c-0.258-0.417-0.775-0.668-1.378-0.668
				c0.517-0.334,0.775-0.835,0.775-1.252L276.134,219.107z M261.665,221.779c0.775-0.25,1.55,0,1.723,0.584
				c0.172,0.584-0.258,1.169-1.034,1.419c-0.258,0.083-0.603,0.083-0.861,0.083c0.344-0.417,0.431-1.002,0.258-1.419
				c-0.086-0.167-0.172-0.417-0.344-0.584C261.493,221.862,261.579,221.779,261.665,221.779z M261.062,223.699
				c-0.172-0.083-0.344-0.25-0.431-0.501c-0.086-0.334,0-0.751,0.345-1.002c0.086,0.083,0.172,0.25,0.258,0.417
				C261.32,222.947,261.234,223.365,261.062,223.699z M257.617,223.699c-0.258-0.751,0.344-1.586,1.378-1.92
				c0.603-0.167,1.292-0.083,1.723,0.167c-0.431,0.417-0.689,0.918-0.517,1.419c0.086,0.25,0.258,0.501,0.517,0.668
				c-0.258,0.25-0.517,0.417-0.861,0.501C258.909,224.784,257.875,224.45,257.617,223.699z M258.737,226.955
				c-0.172-0.417,0-0.835,0.258-1.169c0.172-0.083,0.345-0.25,0.431-0.417c0.172-0.167,0.431-0.25,0.689-0.334
				c0.344-0.083,0.689-0.167,1.033-0.083c-0.172,0.25-0.172,0.584-0.086,0.835c0.172,0.501,0.689,0.751,1.206,0.835
				c-0.172,0.501-0.689,0.918-1.292,1.085C259.942,228.04,258.995,227.706,258.737,226.955z"/>
			<path fill="#B1995A" d="M257.531,225.452c-0.258-0.668-0.689-1.085-1.292-1.419c0.861-0.417,1.292-1.503,0.947-2.505
				c-0.258-0.668-0.775-1.169-1.292-1.336l-4.823-10.102l-2.842-2.922l-0.258,4.007l2.584,10.769
				c-0.431,0.501-0.517,1.252-0.258,1.92c0.344,1.085,1.464,1.67,2.498,1.336c-0.258,0.584-0.344,1.252-0.086,1.837
				c0.172,0.417,0.431,0.835,0.775,1.085l-0.431,3.172l6.89-2.254l-2.239-2.171C257.703,226.37,257.703,225.869,257.531,225.452z
				 M254,223.532C254,223.448,254,223.448,254,223.532C254,223.448,254,223.448,254,223.532C254,223.448,254,223.448,254,223.532z
				 M254.861,220.693c0.775-0.25,1.636,0.167,1.895,1.002c0.258,0.835-0.086,1.67-0.861,1.92c-0.775,0.25-1.636-0.167-1.895-1.002
				S254.172,220.944,254.861,220.693z M248.66,211.51l0.172-2.588l1.809,1.92l2.842,6.929c-0.431-0.25-1.033-0.334-1.55-0.167
				c-0.517,0.167-0.947,0.584-1.12,1.085L248.66,211.51z M252.105,218.022c0.775-0.25,1.636,0.167,1.895,1.002
				c0.258,0.835-0.086,1.67-0.861,1.92c-0.775,0.25-1.636-0.167-1.895-1.002C250.985,219.107,251.33,218.272,252.105,218.022z
				 M250.727,223.699c-0.258-0.835,0.086-1.67,0.861-1.92c0.086,0,0.258-0.083,0.344-0.083c0.689,0,1.292,0.417,1.55,1.085
				c0.258,0.835-0.086,1.67-0.861,1.92C251.847,225.035,250.985,224.534,250.727,223.699z M253.828,230.712l0.258-2.171
				c0.603,0.25,1.206,0.25,1.895,0.083c0.603-0.167,1.12-0.584,1.378-1.085l1.55,1.503L253.828,230.712z"/>
		</g>
		<path fill="#837442" d="M252.755,227.071c-0.434-1.221,0.271-2.563,1.576-2.999c1.304-0.436,2.713,0.201,3.147,1.421
			c0.434,1.221-0.272,2.563-1.576,2.999C254.598,228.927,253.189,228.291,252.755,227.071z"/>
		<path fill="#A48F53" d="M252.938,227.015c-0.403-1.133,0.255-2.381,1.47-2.786s2.525,0.185,2.927,1.319s-0.255,2.381-1.47,2.786
			S253.341,228.148,252.938,227.015z"/>
		<path fill="#B79F5D" d="M256.067,225.953c0.172,0.501-0.086,1.085-0.603,1.252c-0.517,0.167-1.12-0.083-1.292-0.584
			c-0.172-0.501,0.086-1.085,0.689-1.252C255.464,225.202,255.895,225.452,256.067,225.953z"/>
		<g>
			<path fill="#231F20" d="M272.172,199.572l1.636,1.002l-0.775,0.167l-2.239,3.59l0.258,0.584l-1.636-0.918l0.775-0.083l2.239-3.59
				L272.172,199.572z M273.895,200.824l-0.603,0.167l-2.153,3.506l0.172,1.002l-1.809-1.085v-0.167l1.722,1.002l-0.172-0.835
				l2.153-3.506l0.603-0.167L273.895,200.824z"/>
			<path fill="#231F20" d="M284.057,209.674l0.689,1.753l-0.689-0.334l-4.048,1.419l-0.258,0.584l-0.689-1.753l0.603,0.334
				l4.048-1.419L284.057,209.674z M284.574,211.677l-0.517-0.25l-3.962,1.419l-0.517,0.918l-0.775-1.92l0.086-0.167l0.689,1.837
				l0.345-0.751l3.962-1.419l0.603,0.25L284.574,211.677z"/>
			<path fill="#231F20" d="M284.574,211.093l0.689,1.753l-0.689-0.334l-4.048,1.419l-0.258,0.584l-0.689-1.753l0.603,0.334
				l4.048-1.419L284.574,211.093z M285.091,213.18l-0.517-0.25l-3.962,1.419l-0.517,0.918l-0.775-1.92l0.086-0.167l0.689,1.837
				l0.345-0.751l3.962-1.419l0.603,0.25L285.091,213.18z"/>
			<path fill="#231F20" d="M281.99,229.459v-1.92l0.517,0.501h4.306l0.431-0.501v1.837l-0.517-0.584h-4.306L281.99,229.459z
				 M282.162,227.372l0.431,0.417h4.22l0.775-0.668v2.087l-0.086,0.083v-1.92l-0.603,0.584h-4.22L282.162,227.372L282.162,227.372z"
				/>
			<path fill="#231F20" d="M281.99,227.873v-1.92l0.517,0.501h4.306l0.431-0.501v1.837l-0.517-0.584h-4.306L281.99,227.873z
				 M282.162,225.786l0.431,0.417h4.22l0.775-0.668v2.087l-0.086,0.083v-1.92l-0.603,0.584h-4.22L282.162,225.786L282.162,225.786z"
				/>
			<path fill="#231F20" d="M281.99,226.036v-1.92l0.517,0.501h4.306l0.431-0.501v1.837l-0.517-0.584h-4.306L281.99,226.036z
				 M282.162,223.949l0.431,0.417h4.22l0.775-0.668v2.087l-0.086,0.083v-1.92l-0.603,0.584h-4.22L282.162,223.949L282.162,223.949z"
				/>
			<path fill="#231F20" d="M285.866,237.891l-1.034,1.586l-0.172-0.751l-3.703-2.087l-0.603,0.25l0.947-1.586l0.086,0.751
				l3.703,2.087L285.866,237.891z M284.574,239.561l-0.172-0.584l-3.617-2.087l-1.034,0.167l1.12-1.753h0.172l-1.034,1.67
				l0.861-0.167l3.703,2.087l0.172,0.584L284.574,239.561z"/>
			<path fill="#231F20" d="M282.679,243.318L282.679,243.318c-0.172-0.417,0-0.501-0.258-0.835
				c-0.258-0.334-0.603-0.751-1.206-1.336l-1.809-1.837l-0.517,0.083l0.775-1.169l0.172,0.584l4.306,1.169l0.689-0.167l-0.775,1.252
				l-0.258-0.668l-3.876-1.085l0.258,0.25l3.445,0.918l0.172,0.501h-0.086l-0.172-0.417l-3.273-0.918l1.206,1.252
				c0.517,0.501,0.775,0.751,1.034,0.918c0.258,0.167,0.689,0.334,0.947,0.25C283.368,242.149,282.851,242.984,282.679,243.318z
				 M280.957,241.231l-1.722-1.753h-0.861l0.861-1.336h0.172l-0.775,1.252h0.689L280.957,241.231l0.517,0.417
				c0.345,0.334,0.603,0.668,0.775,1.085C282.507,243.067,281.99,242.316,280.957,241.231z"/>
			<path fill="#231F20" d="M226.957,241.481l-0.861-1.67l0.775,0.25l3.789-1.837l0.172-0.668l0.861,1.67l-0.689-0.25l-3.789,1.837
				L226.957,241.481z M226.182,239.561l0.517,0.167l3.703-1.837l0.344-0.918l0.947,1.837l-0.086,0.167l-0.861-1.753l-0.344,0.751
				l-3.789,1.837l-0.603-0.167L226.182,239.561z"/>
			<path fill="#231F20" d="M226.096,239.895l-0.861-1.67l0.775,0.25l3.789-1.837l0.172-0.668l0.861,1.67l-0.689-0.25l-3.789,1.837
				L226.096,239.895z M225.32,237.891l0.517,0.167l3.703-1.837l0.344-0.918l0.947,1.837l-0.086,0.167l-0.861-1.753l-0.344,0.751
				l-3.789,1.837l-0.603-0.167L225.32,237.891z"/>
			<path fill="#231F20" d="M225.234,238.225l-0.861-1.67l0.775,0.25l3.789-1.837l0.172-0.668l0.861,1.67l-0.689-0.25l-3.876,1.837
				L225.234,238.225z M224.545,236.305l0.603,0.167l3.703-1.837l0.344-0.918l0.947,1.837l-0.086,0.167l-0.861-1.753l-0.344,0.751
				l-3.789,1.837l-0.603-0.167L224.545,236.305z"/>
			<path fill="#231F20" d="M226.871,241.481L226.871,241.481c0.431,0,0.431,0.25,0.861,0.25c0.431,0,0.947-0.083,1.809-0.25
				l2.584-0.501l0.258-0.501l0.603,1.252l-0.603-0.167l-3.359,2.838l-0.258,0.668l-0.689-1.336l0.689,0.167l3.014-2.588
				l-0.431,0.083l-2.67,2.254l-0.517-0.083l0.086-0.083l0.431,0.083l2.498-2.171l-1.809,0.334c-0.689,0.167-1.12,0.167-1.292,0.334
				c-0.258,0.083-0.603,0.417-0.775,0.584C227.473,242.733,227.043,241.815,226.871,241.481z M229.627,241.231l2.498-0.417
				l0.431-0.751l0.689,1.419l-0.086,0.083l-0.689-1.336l-0.344,0.584L229.627,241.231l-0.603,0.167
				c-0.517,0.083-0.947,0.083-1.378,0.083C227.215,241.564,228.076,241.481,229.627,241.231z"/>
			<path fill="#231F20" d="M236.947,252.334l-1.636-1.002l0.775-0.167l2.239-3.506l-0.172-0.584l1.636,1.002l-0.775,0.083
				l-2.325,3.506L236.947,252.334z M235.225,251.082l0.603-0.083l2.239-3.423l-0.172-1.002l1.809,1.085v0.167l-1.722-1.002
				l0.172,0.835l-2.239,3.506l-0.603,0.167L235.225,251.082z"/>
			<path fill="#231F20" d="M235.569,251.499l-1.636-1.002l0.775-0.167l2.239-3.506l-0.172-0.584l1.636,1.002l-0.775,0.083
				l-2.325,3.506L235.569,251.499z M233.847,250.247l0.603-0.083l2.239-3.423l-0.172-1.002l1.809,1.085v0.167l-1.722-1.002
				l0.172,0.835l-2.239,3.506l-0.603,0.167L233.847,250.247z"/>
			<path fill="#231F20" d="M237.033,252.501L237.033,252.501c0.431-0.167,0.517,0,0.861-0.25c0.344-0.25,0.775-0.501,1.464-1.085
				l1.981-1.753l-0.086-0.501l1.206,0.751l-0.603,0.167l-1.292,4.091l0.086,0.668l-1.292-0.835l0.689-0.25l1.206-3.673l-0.344,0.25
				l-1.033,3.256l-0.517,0.167v-0.083l0.431-0.167l1.033-3.089l-1.378,1.169c-0.517,0.501-0.775,0.751-0.947,0.918
				c-0.172,0.25-0.344,0.668-0.344,0.918C238.239,253.252,237.378,252.668,237.033,252.501z M239.273,250.915l1.895-1.67v-0.835
				l1.378,0.835v0.167l-1.292-0.751v0.668L239.273,250.915l-0.431,0.417c-0.431,0.334-0.689,0.501-1.12,0.751
				C237.378,252.417,238.153,251.916,239.273,250.915z"/>
			<path fill="#231F20" d="M254.086,258.345h-1.981l0.517-0.501v-4.174l-0.517-0.417H254l-0.603,0.417v4.174L254.086,258.345z
				 M251.933,258.178l0.431-0.417v-4.091l-0.689-0.751h2.153l0.086,0.083h-1.981l0.603,0.584v4.174L251.933,258.178L251.933,258.178
				z"/>
			<path fill="#231F20" d="M254.258,258.428L254.258,258.428c0.258-0.417,0.431-0.25,0.603-0.668
				c0.172-0.417,0.344-0.835,0.603-1.67l0.775-2.505l-0.344-0.417h1.464l-0.431,0.417l1.12,4.174l0.517,0.501h-1.55l0.431-0.584
				l-1.033-3.757l-0.086,0.334l0.947,3.339l-0.345,0.417l-0.086-0.083l0.258-0.334l-0.861-3.172l-0.517,1.67
				c-0.172,0.668-0.258,1.002-0.258,1.252s0.086,0.751,0.258,0.918C255.722,258.428,254.689,258.428,254.258,258.428z
				 M255.292,256.007l0.689-2.338l-0.517-0.751h1.636l0.086,0.083h-1.464l0.431,0.584L255.292,256.007l-0.086,0.584
				c-0.172,0.501-0.344,0.835-0.517,1.252C254.517,258.178,254.947,257.343,255.292,256.007z"/>
			<path fill="#231F20" d="M269.244,253.586L269.244,253.586c0.086-0.417,0.258-0.417,0.258-0.835s0-0.918-0.172-1.753l-0.431-2.505
				l-0.517-0.25l1.292-0.584l-0.172,0.584l2.842,3.256l0.689,0.25l-1.378,0.668l0.172-0.668l-2.584-2.922l0.086,0.417l2.325,2.588
				l-0.086,0.501l-0.086-0.083l0.086-0.417l-2.153-2.505l0.345,1.753c0.086,0.668,0.172,1.085,0.258,1.252
				c0.086,0.25,0.431,0.668,0.603,0.751C270.536,252.918,269.588,253.419,269.244,253.586z M269.158,250.915l-0.431-2.421
				l-0.775-0.417l1.464-0.668l0.086,0.083l-1.378,0.584l0.603,0.334L269.158,250.915l0.172,0.584
				c0.086,0.501,0.086,0.918,0.086,1.336C269.33,253.252,269.33,252.334,269.158,250.915z"/>
			<path fill="#231F20" d="M227.387,210.759l0.344,0.668l1.292,1.336h2.67l0.689-0.25l-0.431,1.169l-0.344-0.501h-1.636l1.12,1.169
				l0.947-0.083l-0.517,1.252h-0.086l0.431-1.169l-0.861,0.083l-1.206-1.252h-0.172l1.292,1.336l0.689-0.083l-0.431,1.085
				l-0.344-0.751l-1.55-1.586h-2.239l-0.689,0.25l0.431-1.252l0.344,0.501h1.636l-0.172-0.167h-1.292l-0.344-0.417h0.086
				l0.258,0.334h1.206l-0.861-0.918l-0.603,0.083L227.387,210.759z M227.732,210.842l0.258,0.584l1.12,1.169h2.498l1.12-0.25
				l-0.517,1.419h-0.086l0.517-1.336l-0.947,0.167h-2.584l-1.206-1.252l-0.258-0.584L227.732,210.842z"/>
			<path fill="#231F20" d="M236.43,201.075v0.751l0.431,1.753l2.325,1.252l0.689,0.083l-1.033,0.835l-0.086-0.584l-1.464-0.751
				l0.431,1.586l0.861,0.417l-1.033,0.835l-0.086-0.083l0.947-0.835L237.636,206l-0.431-1.67l-0.172-0.083L237.55,206l0.603,0.25
				l-0.861,0.751l0.086-0.835l-0.603-2.087l-1.981-1.085l-0.689-0.083l1.033-0.835l0.086,0.584l1.378,0.751l-0.086-0.167
				l-1.12-0.584l-0.086-0.501h0.086l0.086,0.417l1.033,0.584l-0.345-1.169l-0.603-0.167L236.43,201.075z M236.689,201.242
				l-0.086,0.668l0.431,1.586l2.153,1.169l1.12,0.334L239.1,206l-0.086-0.083l1.12-0.918l-0.947-0.25l-2.239-1.169l-0.431-1.67
				L236.689,201.242L236.689,201.242z"/>
			<path fill="#231F20" d="M236.517,201.075l1.464-1.252l-0.086,0.751l2.756,3.172h0.689l-1.464,1.169l0.086-0.668l-2.756-3.172
				L236.517,201.075z M238.239,199.906l-0.086,0.584l2.756,3.089l1.033,0.167l-1.636,1.336h-0.172l1.55-1.252l-0.861-0.083
				l-2.756-3.172l0.086-0.668H238.239z"/>
			<path fill="#231F20" d="M254.689,195.565l-0.517,0.584l-0.775,1.586l0.947,2.421l0.431,0.501h-1.292l0.344-0.501l-0.603-1.503
				l-0.689,1.419l0.431,0.835h-1.378v-0.083h1.292l-0.344-0.751l0.775-1.586l-0.086-0.167l-0.861,1.67l0.344,0.584h-1.12
				l0.603-0.584l0.947-1.92l-0.775-2.004l-0.517-0.501h1.292l-0.344,0.417l0.603,1.419l0.086-0.167l-0.431-1.169l0.258-0.417
				l0.086,0.083l-0.258,0.334l0.431,1.085l0.517-1.085l-0.344-0.501L254.689,195.565L254.689,195.565z M254.775,195.899
				l-0.517,0.417l-0.689,1.419l0.861,2.254l0.603,0.918h-1.55l-0.086-0.083h1.464l-0.517-0.751l-0.861-2.338l0.775-1.503
				L254.775,195.899L254.775,195.899z"/>
			<path fill="#231F20" d="M254.775,195.565h1.981l-0.517,0.501v4.174l0.517,0.417h-1.895l0.603-0.417v-4.174L254.775,195.565z
				 M256.842,195.815l-0.431,0.417v4.091l0.689,0.751h-2.153l-0.086-0.083h1.981l-0.603-0.584v-4.091L256.842,195.815
				L256.842,195.815z"/>
			<path fill="#231F20" d="M257.1,195.565h1.981l-0.517,0.501v4.174l0.517,0.417h-1.895l0.603-0.417v-4.174L257.1,195.565z
				 M259.167,195.815l-0.431,0.417v4.091l0.689,0.751h-2.153l-0.086-0.083h1.981l-0.603-0.584v-4.091L259.167,195.815
				L259.167,195.815z"/>
			<path fill="#231F20" d="M222.823,223.699l0.603,0.501l1.722,0.668l2.411-1.085l0.517-0.417l0.086,1.252l-0.517-0.25l-1.464,0.668
				l1.55,0.584l0.861-0.417l0.086,1.336l-0.086,0.083l-0.086-1.252l-0.775,0.417l-1.636-0.668l-0.172,0.083l1.722,0.668l0.603-0.334
				l0.086,1.085l-0.689-0.501l-2.067-0.835l-2.067,0.918l-0.517,0.501l-0.086-1.252l0.517,0.25l1.464-0.668l-0.172-0.083
				l-1.206,0.501l-0.431-0.25l0.086-0.083l0.344,0.25l1.12-0.501l-1.206-0.501l-0.517,0.334L222.823,223.699z M223.081,223.615
				l0.517,0.417l1.55,0.584l2.239-1.002l0.947-0.668l0.086,1.503l-0.086,0.083l-0.086-1.419l-0.775,0.584l-2.325,1.002l-1.636-0.668
				L223.081,223.615L223.081,223.615z"/>
			<path fill="#231F20" d="M223.167,229.459l-0.086-1.92l0.603,0.501l4.306-0.25l0.431-0.501l0.086,1.837l-0.517-0.501l-4.306,0.25
				L223.167,229.459z M223.253,227.372l0.431,0.417l4.22-0.25l0.689-0.751l0.172,2.087l-0.086,0.083l-0.086-1.92l-0.603,0.584
				l-4.22,0.25L223.253,227.372L223.253,227.372z"/>
		</g>
		
			<linearGradient id="SVGID_6_" gradientUnits="userSpaceOnUse" x1="-107.4241" y1="384.157" x2="-107.4241" y2="377.9877" gradientTransform="matrix(2.0637 0 0 2.0637 477.2394 -697.8456)">
			<stop  offset="0" style="stop-color:#623126"/>
			<stop  offset="1" style="stop-color:#310C00"/>
		</linearGradient>
		<ellipse fill="url(#SVGID_6_)" cx="255.55" cy="88.538" rx="5.684" ry="6.345"/>
		
			<linearGradient id="SVGID_7_" gradientUnits="userSpaceOnUse" x1="-107.4241" y1="383.3155" x2="-107.4241" y2="378.7159" gradientTransform="matrix(2.0637 0 0 2.0637 477.2394 -697.8456)">
			<stop  offset="0" style="stop-color:#471F13"/>
			<stop  offset="1" style="stop-color:#310C00"/>
		</linearGradient>
		<ellipse fill="url(#SVGID_7_)" cx="255.55" cy="88.455" rx="4.909" ry="4.759"/>
		<path fill="#CAA76B" d="M258.995,122.099c-0.258-1.753-0.172-2.338-2.498-2.338c-1.378,0-2.756-0.083-2.498,2.254l0.603,0.083
			c0,0,0.947-0.167,2.067-0.167c1.033,0,1.981,0.167,1.981,0.167H258.995z"/>
	</g>
</g>
</svg>
