<?xml version="1.0" encoding="utf-8"?>
<!-- Generator: Adobe Illustrator 17.0.0, SVG Export Plug-In . SVG Version: 6.00 Build 0)  -->
<!DOCTYPE svg PUBLIC "-//W3C//DTD SVG 1.1//EN" "http://www.w3.org/Graphics/SVG/1.1/DTD/svg11.dtd">
<svg version="1.1" id="Layer_1" xmlns="http://www.w3.org/2000/svg" xmlns:xlink="http://www.w3.org/1999/xlink" x="0px" y="0px"
	 width="512px" height="512px" viewBox="0 0 512 512" enable-background="new 0 0 512 512" xml:space="preserve">
<g>
	<g>
		<circle fill="#163A6C" cx="256" cy="256" r="225"/>
	</g>
	<g>
		<g>
			<path fill="#F4C892" d="M256.682,338.399L256.682,338.399c-7.662,0.356-26.478,5.159-32.653,9.708l-13.317,10.136l-52.558-68.778
				c7.754-5.925,12.312-11.495,12.891-13.688l24.926-67.26c0.969-7.246,7.628-12.335,14.874-11.366l0,0
				c7.246,0.969,12.335,7.628,11.366,14.874l-3.844,26.49c-0.349,2.405,2.398,4.019,4.33,2.544l83.17-63.538
				c5.741-4.387,14.042-3.602,18.575,2.024c4.689,5.818,3.636,14.32-2.264,18.829l12.27-9.377c5.809-4.438,14.115-3.328,18.554,2.48
				l0,0c4.439,5.809,3.328,14.115-2.481,18.554l-15.027,11.483c5.809-4.438,14.115-3.328,18.554,2.481l0,0
				c4.438,5.809,3.328,14.115-2.481,18.554l-14.54,11.111c5.809-4.438,14.115-3.328,18.554,2.481l0,0
				c4.438,5.809,3.328,14.115-2.48,18.554l-75.042,56.062C271.855,335.378,264.411,338.039,256.682,338.399z"/>
			<g>
				<path fill="#E2B583" d="M355.584,256.142L355.584,256.142c-1.463-1.914-3.345-3.317-5.419-4.179
					c0.58,4.53-1.199,9.237-5.089,12.21l-35.528,26.576c-5.838,4.367-6.993,12.656-2.571,18.453l0,0l46.128-34.505
					C358.912,270.257,360.023,261.95,355.584,256.142z"/>
				<path fill="#E2B583" d="M337.03,253.661l14.532-11.104c5.81-4.44,6.924-12.747,2.49-18.561l0,0
					c-1.465-1.917-3.353-3.319-5.432-4.182c0.573,4.525-1.207,9.224-5.092,12.192l-14.54,11.111l-35.237,26.914
					c-5.822,4.446-6.939,12.769-2.496,18.594l0,0L337.03,253.661z"/>
				<path fill="#E2B583" d="M350.524,210.032c5.808-4.439,6.918-12.745,2.48-18.554l0,0c-1.466-1.919-3.356-3.321-5.436-4.184
					c0.571,4.523-1.208,9.219-5.092,12.187l-64.8,49.504c-5.825,4.45-6.943,12.778-2.497,18.606l0,0L350.524,210.032z"/>
			</g>
			<path fill="#EFCEBD" d="M322.179,198.374c5.901-4.509,6.953-13.011,2.264-18.829c-1.428-1.772-3.23-3.063-5.208-3.864
				c0.556,4.511-1.229,9.189-5.101,12.148l-52.534,40.131c-5.822,4.447-6.939,12.772-2.496,18.596l0,0L322.179,198.374z"/>
			<path fill="#FED9A8" d="M336.463,302.696L336.463,302.696c-4.359,6.31-11.941,24.189-12.064,31.858l-0.007,16.736l-86.56,0.131
				c-0.015-9.759-1.683-16.759-3.077-18.549l-38.399-60.586c-5.177-5.162-5.19-13.542-0.028-18.719l0,0
				c5.161-5.177,13.542-5.189,18.719-0.028l18.743,19.11c1.702,1.735,4.651,0.528,4.647-1.903l-0.144-104.663
				c-0.011-7.225,5.644-13.352,12.867-13.55c7.47-0.204,13.595,5.785,13.606,13.212l-0.024-15.443
				c-0.01-7.311,5.907-13.246,13.217-13.257l0,0c7.311-0.011,13.246,5.906,13.257,13.216l0.029,18.912
				c-0.011-7.311,5.906-13.246,13.216-13.257l0,0c7.311-0.011,13.246,5.906,13.257,13.216l0.028,18.3
				c-0.011-7.311,5.906-13.246,13.216-13.257l0,0c7.311-0.011,13.246,5.906,13.257,13.216l-0.878,93.668
				C343.256,288.796,340.86,296.331,336.463,302.696z"/>
			<g>
				<path fill="#F4C892" d="M330.961,174.176L330.961,174.176c-2.39,0.004-4.631,0.641-6.564,1.753
					c3.971,2.28,6.65,6.556,6.657,11.464l-0.389,44.44c-0.063,7.251,5.797,13.162,13.048,13.162l0,0l0.504-57.603
					C344.207,180.082,338.272,174.165,330.961,174.176z"/>
				<path fill="#F4C892" d="M317.745,187.432l-0.028-18.3c-0.011-7.311-5.946-13.227-13.257-13.216l0,0
					c-2.415,0.004-4.676,0.657-6.623,1.79c3.935,2.289,6.585,6.546,6.593,11.427l0.028,18.3l0.057,44.57
					c0.009,7.2,5.848,13.032,13.048,13.032h0.255L317.745,187.432z"/>
				<path fill="#F4C892" d="M291.215,150.259c-0.012-7.309-5.946-13.226-13.256-13.215l0,0c-2.418,0.004-4.681,0.658-6.63,1.794
					c3.931,2.29,6.578,6.544,6.586,11.422l0.112,81.785c0.01,7.2,5.849,13.031,13.048,13.031h0.271L291.215,150.259z"/>
				<path fill="#F4C892" d="M264.766,165.743c-0.011-7.427-6.136-13.415-13.606-13.212c-2.278,0.062-4.399,0.715-6.236,1.805
					c3.914,2.294,6.545,6.542,6.552,11.407l0.089,66.34c0.009,7.2,5.849,13.031,13.048,13.031h0.259L264.766,165.743z"/>
			</g>
			<path fill="#E8E8E8" d="M143.38,297.741l54.902,71.846c1.199,1.57,3.445,1.87,5.015,0.67l15.782-12.06
				c1.57-1.199,1.87-3.445,0.67-5.015l-54.902-71.846c-1.199-1.57-3.445-1.87-5.015-0.67l-15.782,12.06
				C142.48,293.926,142.18,296.171,143.38,297.741z"/>
			<path fill="#DDDDDD" d="M203.297,370.257l15.782-12.06c1.57-1.199,1.87-3.445,0.67-5.015l-25.832-33.805l-22.306,15.307
				l26.671,34.903C199.481,371.157,201.727,371.457,203.297,370.257z"/>
			<path fill="#7AB8DD" d="M110.383,315.16l62.424,81.689c1.342,1.756,3.884,2.024,5.563,0.586l29.627-25.375
				c1.551-1.329,1.795-3.638,0.555-5.261l-59.785-78.234c-1.24-1.623-3.532-1.995-5.222-0.847l-32.266,21.921
				C109.45,310.881,109.041,313.404,110.383,315.16z"/>
			<path fill="#6FA9D4" d="M208.551,366.8l-17.102-22.38c0.964,1.608,0.649,3.707-0.806,4.954l-29.957,25.659
				c-1.173,1.005-2.762,1.185-4.08,0.615l16.202,21.201c1.342,1.756,3.884,2.024,5.563,0.586l29.627-25.375
				C209.548,370.732,209.791,368.423,208.551,366.8z"/>
			<path fill="#E8E8E8" d="M235.462,368.189l90.422-0.137c1.976-0.003,3.575-1.607,3.572-3.583l-0.03-19.863
				c-0.003-1.976-1.607-3.575-3.583-3.572l-90.422,0.137c-1.976,0.003-3.575,1.607-3.572,3.583l0.03,19.863
				C231.882,366.592,233.486,368.192,235.462,368.189z"/>
			<path fill="#DDDDDD" d="M325.842,341.035l-45.12,0.068v27.018l45.161-0.068c1.976-0.003,3.575-1.607,3.572-3.583l-0.03-19.863
				C329.423,342.631,327.818,341.032,325.842,341.035z"/>
			<path fill="#7AB8DD" d="M229.323,404.993l102.81-0.155c2.21-0.003,3.964-1.863,3.837-4.069l-2.233-38.944
				c-0.117-2.039-1.806-3.632-3.849-3.629l-98.462,0.149c-2.043,0.003-3.727,1.601-3.838,3.641l-2.115,38.951
				C225.354,403.142,227.113,404.996,229.323,404.993z"/>
			<path fill="#6FA9D4" d="M335.97,400.768l-2.233-38.944c-0.117-2.039-1.806-3.632-3.849-3.629l-29.87,0.045
				c1.78,0.261,3.177,1.737,3.283,3.584l2.233,38.944c0.127,2.206-1.627,4.066-3.837,4.07l-72.938,0.11
				c0.185,0.027,0.372,0.046,0.564,0.045l102.81-0.155C334.343,404.834,336.097,402.974,335.97,400.768z"/>
		</g>
		<path fill="#FFD400" d="M271.9,122.324c0.178,3.072-2.168,5.706-5.24,5.884l0,0c-3.072,0.178-5.706-2.168-5.884-5.24l-2.93-50.589
			c-0.178-3.072,2.168-5.706,5.24-5.884l0,0c3.072-0.178,5.706,2.168,5.884,5.24L271.9,122.324z"/>
		<path fill="#FFD400" d="M234.063,139.386c1.897,2.423,1.471,5.924-0.952,7.821l0,0c-2.423,1.897-5.924,1.471-7.821-0.952
			l-31.241-39.898c-1.897-2.423-1.471-5.924,0.952-7.821l0,0c2.423-1.897,5.924-1.471,7.821,0.952L234.063,139.386z"/>
		<path fill="#FFD400" d="M304.39,132.414c-1.897,2.423-1.471,5.924,0.952,7.821l0,0c2.423,1.897,5.924,1.471,7.821-0.952
			l31.241-39.898c1.897-2.423,1.471-5.924-0.952-7.821l0,0c-2.423-1.897-5.924-1.471-7.821,0.952L304.39,132.414z"/>
	</g>
</g>
</svg>
