<?xml version="1.0" encoding="utf-8"?>
<!-- Generator: Adobe Illustrator 16.0.0, SVG Export Plug-In . SVG Version: 6.00 Build 0)  -->
<!DOCTYPE svg PUBLIC "-//W3C//DTD SVG 1.1 Tiny//EN" "http://www.w3.org/Graphics/SVG/1.1/DTD/svg11-tiny.dtd">
<svg version="1.1" baseProfile="tiny" id="Layer_1" xmlns="http://www.w3.org/2000/svg" xmlns:xlink="http://www.w3.org/1999/xlink"
	 x="0px" y="0px" width="300px" height="300px" viewBox="0 0 300 300" xml:space="preserve">
<g>
	<circle fill="#25A7DE" cx="150" cy="150" r="131.6"/>
	<g>
		<path fill="#808181" d="M61.078,186.895h195.078c0,0,0.348-36.993-40.758-36.993s-121.741,0-121.741,0
			S53.414,151.272,61.078,186.895z"/>
		<path fill="#E6352B" d="M148.323,102.911l-0.905-12.408c0-1.747-1.416-3.163-3.163-3.163h-10.817
			c-1.746,0-3.162,1.416-3.162,3.163l-0.905,12.408H148.323z"/>
		<path fill="#ED6C64" d="M130.275,92.571c0-1.748,1.416-3.164,3.162-3.164h10.817c1.747,0,3.163,1.416,3.163,3.164l0.754,10.34
			h0.151l-0.905-12.408c0-1.747-1.416-3.163-3.163-3.163h-10.817c-1.746,0-3.162,1.416-3.162,3.163l-0.905,12.408h0.151
			L130.275,92.571z"/>
		<path fill="#6A6C6C" d="M153.582,106.627c0,3.043-2.467,5.51-5.51,5.51h-21.785c-3.043,0-5.51-2.467-5.51-5.51l0,0
			c0-3.043,2.467-5.51,5.51-5.51h21.785C151.115,101.117,153.582,103.584,153.582,106.627L153.582,106.627z"/>
		<circle fill="#535554" cx="94.57" cy="186.895" r="21.908"/>
		<g>
			<circle fill="#949696" cx="94.571" cy="186.895" r="13.769"/>
			<circle fill="#808181" cx="94.57" cy="186.895" r="6.701"/>
		</g>
		<circle fill="#535554" cx="219.03" cy="186.895" r="21.909"/>
		<g>
			<circle fill="#949696" cx="219.03" cy="186.895" r="13.769"/>
			<circle fill="#808181" cx="219.03" cy="186.895" r="6.702"/>
		</g>
		<path fill="#FFFFFF" d="M264.103,177.847v-14.696c0,0-1.838-7.808-8.956-11.712c-7.119-3.904-24.571-15.386-50.75-15.386
			l-23.883-20.897c0,0-8.838-7.613-25.52-8.525c-14.675-0.804-33.038-2.497-46.127,2.095c-13.09,4.593-26.639,16.075-37.201,23.883
			c0,0-4.822,3.674-9.187,3.674c-4.363,0-18.142-0.757-18.142,12.401c0,11.251,0,17.682,0,17.682v8.726
			c0,0-1.606,16.075,21.127,16.075c0,0,0.122,0.01,0.346,0.028c-0.208-1.404-0.318-2.839-0.318-4.3
			c0-16.06,13.019-29.079,29.077-29.079c16.061,0,29.079,13.019,29.079,29.079c0,2.505-0.316,4.937-0.912,7.256
			c0.122,0,0.246,0.001,0.367,0.001h67.055h0.707c-0.598-2.32-0.914-4.751-0.914-7.257c0-16.06,13.019-29.079,29.079-29.079
			c16.06,0,29.079,13.019,29.079,29.079c0,2.506-0.318,4.938-0.914,7.257h14.609c0,0,7.349-0.23,7.349-6.66c0-4.74,0-5.61,0-5.741
			C269.153,181.751,268.465,177.847,264.103,177.847z"/>
		<path fill="#80E5FF" d="M135.734,120.668v8.616c0,0,0,6.999,6.889,6.999h37.458c0,0,5.021-1.848-0.945-7.815
			s-12.891-12.304-24.112-13.542c-3.426-0.377-11.656-1.673-14.926-1.077C135.781,114.636,135.734,118.969,135.734,120.668z"/>
		<path fill="#80E5FF" d="M124.712,120.208c0,0,0.229-8.435-6.43-6.514c-6.66,1.921-25.72,10.188-24.112,16.847
			c0,0-0.097,5.741,7.577,5.741h16.075c0,0,6.891,0.444,6.891-7.815L124.712,120.208z"/>
		<g>
			<path fill="#203382" d="M264.103,177.847v-14.696c0,0-1.838-7.808-8.956-11.712c-6.983-3.829-23.915-14.942-49.266-15.366
				l-26.139,39.333v18.746h10.416h0.707c-0.598-2.32-0.914-4.751-0.914-7.257c0-16.06,13.019-29.079,29.079-29.079
				c16.06,0,29.079,13.019,29.079,29.079c0,2.506-0.318,4.938-0.914,7.257h14.609c0,0,7.349-0.23,7.349-6.66c0-4.74,0-5.61,0-5.741
				C269.153,181.751,268.465,177.847,264.103,177.847z"/>
			<path fill="#203382" d="M93.657,157.839L93.657,157.839l-27.475-22.281c-1.192,0.424-2.464,0.725-3.703,0.725
				c-4.363,0-18.142-0.757-18.142,12.401c0,11.251,0,17.682,0,17.682v8.726c0,0-1.606,16.075,21.127,16.075
				c0,0,0.122,0.01,0.346,0.028c-0.208-1.404-0.318-2.839-0.318-4.3C65.492,171.141,78.021,158.322,93.657,157.839z"/>
		</g>
		<path fill="#203382" d="M34.924,180.364c0-4.101,3.324-7.425,7.426-7.425h15.689c4.102,0,7.426,3.324,7.426,7.425v3.377
			c0,4.101-3.324,7.425-7.426,7.425H42.35c-4.102,0-7.426-3.324-7.426-7.425V180.364z"/>
		<path fill="#E7E8E8" d="M156.733,143.647c0,1.557-1.263,2.819-2.819,2.819h-13.915c-1.557,0-2.819-1.262-2.819-2.819l0,0
			c0-1.557,1.263-2.819,2.819-2.819h13.915C155.471,140.829,156.733,142.091,156.733,143.647L156.733,143.647z"/>
		<path fill="#E7E8E8" d="M122.736,194.151c0,0,1.289-8.726,0.509-12.098h67.115c0,0-0.913,7.94,0.505,12.099L122.736,194.151z"/>
		<path fill="#B3EEFF" d="M139.211,129.7c-0.485-0.485-0.485-1.27,0-1.754l9.21-9.21c0.484-0.485,1.27-0.485,1.755,0l0,0
			c0.484,0.485,0.484,1.27-0.001,1.755l-9.209,9.21C140.48,130.184,139.695,130.184,139.211,129.7L139.211,129.7z"/>
		<path fill="#B3EEFF" d="M148.688,126.022c-0.485-0.485-0.485-1.27,0-1.754l5.532-5.533c0.484-0.485,1.27-0.485,1.755,0l0,0
			c0.484,0.485,0.484,1.27-0.001,1.755l-5.532,5.533C149.957,126.506,149.172,126.506,148.688,126.022L148.688,126.022z"/>
		<polygon fill="#FFD202" points="150.539,151.802 154.109,159.037 162.094,160.196 156.315,165.827 157.681,173.779 
			150.539,170.025 143.397,173.779 144.763,165.827 138.985,160.196 146.969,159.037 		"/>
	</g>
	<g>
		<path fill="#FFFFFF" d="M138.847,73.366c-2.209,0-4-1.791-4-4V58.148c0-2.209,1.791-4,4-4s4,1.791,4,4v11.217
			C142.847,71.575,141.056,73.366,138.847,73.366z"/>
	</g>
	<g>
		<path fill="#FFFFFF" d="M176.705,96.477h-11.217c-2.209,0-4-1.791-4-4s1.791-4,4-4h11.217c2.209,0,4,1.791,4,4
			S178.914,96.477,176.705,96.477z"/>
	</g>
	<g>
		<path fill="#FFFFFF" d="M113.47,96.477h-11.217c-2.209,0-4-1.791-4-4s1.791-4,4-4h11.217c2.209,0,4,1.791,4,4
			S115.679,96.477,113.47,96.477z"/>
	</g>
	<g>
		<path fill="#FFFFFF" d="M120.184,79.779c-1.023,0-2.048-0.391-2.828-1.171l-7.932-7.932c-1.562-1.562-1.562-4.095,0-5.657
			c1.561-1.562,4.096-1.562,5.656,0l7.932,7.932c1.562,1.562,1.562,4.095,0,5.657C122.231,79.388,121.207,79.779,120.184,79.779z"/>
	</g>
	<g>
		<path fill="#FFFFFF" d="M158.896,79.778c-1.023,0-2.048-0.391-2.828-1.171c-1.562-1.562-1.562-4.095,0-5.657l7.932-7.932
			c1.561-1.562,4.096-1.562,5.656,0c1.562,1.562,1.562,4.095,0,5.657l-7.932,7.932C160.943,79.388,159.919,79.778,158.896,79.778z"
			/>
	</g>
</g>
</svg>
