<?xml version="1.0" encoding="utf-8"?>
<!-- Generator: Adobe Illustrator 16.0.0, SVG Export Plug-In . SVG Version: 6.00 Build 0)  -->
<!DOCTYPE svg PUBLIC "-//W3C//DTD SVG 1.1 Tiny//EN" "http://www.w3.org/Graphics/SVG/1.1/DTD/svg11-tiny.dtd">
<svg version="1.1" baseProfile="tiny" id="Layer_1" xmlns="http://www.w3.org/2000/svg" xmlns:xlink="http://www.w3.org/1999/xlink"
	 x="0px" y="0px" width="300px" height="300px" viewBox="0 0 300 300" xml:space="preserve">
<g>
	<circle fill="#2C323A" cx="150" cy="150" r="131.6"/>
	<g>
		<g>
			<path fill="#FFD202" d="M191.067,101.305h-81.599c-8.042,0-8.036,7.85-8.036,7.85v39.348
				c0.101,26.889,21.924,48.655,48.835,48.655c26.913,0,48.735-21.766,48.836-48.655v-39.348
				C199.104,109.154,199.107,101.305,191.067,101.305z"/>
			<polygon fill="#FFEEA5" points="150.269,121.283 156.593,134.097 170.732,136.151 160.501,146.125 162.916,160.208 
				150.269,153.559 137.62,160.208 140.035,146.125 129.805,136.151 143.944,134.097 			"/>
			<g>
				<path fill="#FFD202" d="M105.121,168.463c-19.615,0-26.099-12.26-26.785-18.743c-0.009-0.082-0.016-0.163-0.02-0.245
					l-1.034-19.606c-0.005-0.082-0.007-0.163-0.007-0.245c0-11.076,7.395-14.895,11.304-15.367c0.185-0.022,0.371-0.034,0.557-0.034
					h15.985c2.562,0,4.641,2.078,4.641,4.641s-2.078,4.641-4.641,4.641H89.607c-0.934,0.265-3.017,1.378-3.051,6.004l1.019,19.301
					c0.203,1.308,2.177,10.371,17.546,10.371c2.562,0,4.641,2.078,4.641,4.641S107.684,168.463,105.121,168.463z"/>
				<path fill="#FFD202" d="M195.414,168.463c-2.562,0-4.641-2.078-4.641-4.641s2.078-4.641,4.641-4.641
					c7.088,0,12.209-1.878,15.22-5.582c1.802-2.217,2.261-4.417,2.329-4.8l1.017-19.29c-0.036-4.875-2.36-5.835-2.982-6.005h-15.583
					c-2.562,0-4.641-2.078-4.641-4.641s2.078-4.641,4.641-4.641h15.987c0.186,0,0.372,0.011,0.557,0.034
					c3.909,0.472,11.303,4.291,11.303,15.367c0,0.082-0.002,0.163-0.007,0.244l-1.033,19.606c-0.004,0.082-0.011,0.164-0.02,0.246
					C221.514,156.203,215.03,168.463,195.414,168.463z"/>
			</g>
			<path fill="#FFD202" d="M165.221,198.172c0,2.503-2.03,4.533-4.534,4.533h-20.838c-2.504,0-4.533-2.03-4.533-4.533l0,0
				c0-2.504,2.029-4.534,4.533-4.534h20.838C163.19,193.639,165.221,195.668,165.221,198.172L165.221,198.172z"/>
			<path fill="#FFD202" d="M159.291,223.212c0,3.987-3.231,7.219-7.219,7.219h-3.608c-3.987,0-7.219-3.231-7.219-7.219v-19.583
				c0-3.987,3.231-7.219,7.219-7.219h3.608c3.987,0,7.219,3.231,7.219,7.219V223.212z"/>
			<path fill="#FFD202" d="M165.994,228.765c0,3.104-2.516,5.622-5.621,5.622h-20.21c-3.104,0-5.621-2.517-5.621-5.622l0,0
				c0-3.105,2.517-5.622,5.621-5.622h20.21C163.479,223.143,165.994,225.66,165.994,228.765L165.994,228.765z"/>
			<path fill="#FFD202" d="M180.732,237.945c0.01-0.155,0.023-0.308,0.023-0.465v-1.497c0-3.986-3.231-7.218-7.219-7.218h-46.538
				c-3.987,0-7.219,3.232-7.219,7.218v1.497c0,0.157,0.014,0.311,0.023,0.465H180.732z"/>
			<path fill="#FFBD00" d="M150.542,182.762c-24.972,0-45.22-20.197-45.313-45.147v10.877c0.094,24.95,20.342,45.147,45.313,45.147
				c24.974,0,45.223-20.197,45.316-45.147v-10.877C195.765,162.564,175.516,182.762,150.542,182.762z"/>
			<path fill="#FFEB93" d="M190.087,109.637c0,1.7-1.378,3.078-3.078,3.078h-78.81c-1.699,0-3.078-1.378-3.078-3.078l0,0
				c0-1.7,1.379-3.079,3.078-3.079h78.81C188.709,106.558,190.087,107.937,190.087,109.637L190.087,109.637z"/>
		</g>
		<path fill="#009DE1" d="M145.729,47.094c-6.494-0.604-13.779,1.552-15.924,8.298c-1.62,5.098-1.51,13.462,4.182,15.619
			c7.088,2.685,10.509-4.454,9.083-10.458c-1.653-6.961-10.868-6.503-16.372-5.204c-8.026,1.894-12.199,8.553-12.328,16.496
			c-0.166,10.237-4.056,17.837-15.157,16.991c-4.307-0.328-8.326-1.927-12.526-2.762c-4.354-0.866-8.92-0.487-13.205,0.541
			c-8.705,2.089-15.554,8.457-16.593,17.53c-0.404,3.525-0.208,7.402,0.331,10.896c-0.232-1.508,0.234-3.131,0-4.649
			c-1.85-11.996,11.432-18.965,21.391-20.003c9.854-1.028,21.586,7.232,30.609,1.007c4.247-2.929,4.904-9.053,5.143-13.732
			c0.322-6.307,1.354-11.479,6.796-15.272c4.73-3.298,21.812-6.342,21.907,3.34c0.006-1.323,0.012-2.646,0.017-3.968
			c-1.751,8.523-15.549,5.429-12.924-2.83c1.938-6.095,10.016-7.706,15.571-7.189C145.621,51.733,145.906,47.11,145.729,47.094
			L145.729,47.094z"/>
		<path fill="#E8501D" d="M207.018,83.357c4.516-0.092,9.157,0.882,13.298,2.64c9.023,3.832,10.167,11.561,10.234,20.397
			c0.055,7.07-0.567,16.411,4.766,21.885c4.794,4.92,18.216,5.931,18.902-2.972c0.421-5.457-0.373-10.604-6.981-11.251
			c-6.428-0.63-10.687,10.596-10.776,15.87c-0.148,8.706,2.663,15.562,5.856,23.637c3.865,9.772,6.512,20.298-1.965,28.387
			c-4.494,4.289-11.034,6.255-15.94,10.168c-4.459,3.556-8.164,8.161-10.248,13.485c-2.452,6.266-1.534,14.958,3.02,19.864
			c-0.756-0.814,0.788-3.8,0-4.649c-4.597-4.952-4.419-8.247-1.54-13.826c3.444-6.676,9.891-11.657,16.274-15.299
			c5.925-3.379,10.956-5.92,13.457-12.693c1.382-3.743,1.131-7.966,1.092-11.891c-0.054-5.381-1.462-10.604-3.207-15.658
			c-1.286-3.726-2.976-7.29-4.432-10.948c-0.985-2.478-2.552-6.022-2.062-8.733c0.696-3.854,3.501-9.668,6.535-11.99
			c4.252-3.253,10.769,0.465,10.911,5.444c0.002-1.522,0.004-3.044,0.006-4.566c-0.69,8.96-13.107,7.411-18.307,3.496
			c-7.17-5.399-5.27-19.346-5.344-26.767c-0.13-12.923-11.81-18.918-23.55-18.68C206.951,78.709,207.014,83.357,207.018,83.357
			L207.018,83.357z"/>
		<path fill="#8BBF26" d="M71.971,182.917c6.17,1.486,21.959,5.563,22.045,13.773c0.006-1.323,0.011-2.646,0.017-3.968
			c-0.415,3.611-3.092,7.582-6.854,8.138c-2.062,0.305-4.938-1.426-5.263-3.558c0,1.55,0,3.1,0,4.649
			c1.092-6.295,10.827-7.933,15.519-6.015c1.907,0.78,3.581,2.367,4.835,3.966c1.274,1.628,0.551,3.887,1.074,0.073
			c-0.315,2.301-1.807,4.465-3.007,6.385c-3.11,4.977-6.136,9.73-6.455,15.761c-0.273,5.154,0.241,9.877,2.521,14.589
			c-0.601-1.241,0.614-3.38,0-4.649c-1.649-3.407-2.749-6.411-1.761-10.121c0.772-2.901,2.338-5.568,3.898-8.102
			c2.45-3.976,4.922-7.318,4.935-12.118c0.017-5.816-2.366-9.623-8.558-11.287c-4.666-1.254-12.99,2.603-13.021,8.02
			c-0.023,3.956,0.957,7.694,6.078,6.938c5.924-0.875,6.139-8.552,6.062-13.027c-0.146-8.526-15.565-12.53-22.066-14.096
			C72.29,178.344,71.585,182.823,71.971,182.917L71.971,182.917z"/>
		<polygon fill="#8BBF26" points="53.123,149.308 56.811,143.461 60.499,149.308 		"/>
		<polygon fill="#8BBF26" points="170.732,75.391 174.42,69.544 178.108,75.391 		"/>
		<polygon fill="#8BBF26" points="209.842,182.294 208.786,175.463 215.406,177.453 		"/>
		<polygon fill="#38A5DC" points="62.95,210.341 69.846,210.828 66.437,216.841 		"/>
		<polygon fill="#38A5DC" points="142.687,84.945 148.589,85.361 145.67,90.509 		"/>
		<polygon fill="#38A5DC" points="185.125,200.333 186.129,206.165 180.434,204.557 		"/>
		<polygon fill="#38A5DC" points="232.463,207.426 233.466,213.257 227.771,211.65 		"/>
	</g>
</g>
</svg>
