<?xml version="1.0" encoding="utf-8"?>
<!-- Generator: Adobe Illustrator 16.0.0, SVG Export Plug-In . SVG Version: 6.00 Build 0)  -->
<!DOCTYPE svg PUBLIC "-//W3C//DTD SVG 1.1 Tiny//EN" "http://www.w3.org/Graphics/SVG/1.1/DTD/svg11-tiny.dtd">
<svg version="1.1" baseProfile="tiny" id="Layer_1" xmlns="http://www.w3.org/2000/svg" xmlns:xlink="http://www.w3.org/1999/xlink"
	 x="0px" y="0px" width="300px" height="300px" viewBox="0 0 300 300" xml:space="preserve">
<g>
	<circle fill="#25A7DE" cx="150" cy="150" r="131.6"/>
	<g>
		<path fill="#535554" d="M267.512,167.588v-13.821c0,0-1.728-7.342-8.422-11.013s0,0-47.724-14.47l-22.459-19.65
			c0,0-8.312-7.159-23.998-8.017c-13.8-0.756-31.068-2.349-43.377,1.971c-12.31,4.317-60.682,25.201-60.682,37.574
			c0,10.581,0,16.628,0,16.628v6.182h-1.87c-3.857,0-6.983,3.125-6.983,6.981v3.177c0,9.467,10.403,9.79,10.403,9.79h72.52h63.057
			h0.665h52.972h8.733h5.005c0,0,6.91-0.216,6.91-6.263c0-4.457,0-5.275,0-5.398C272.262,171.259,271.614,167.588,267.512,167.588z"
			/>
		<path fill="#80E5FF" d="M146.535,115.878v9.062c0,0,0,7.36,7.244,7.36h39.395c0,0,5.282-1.944-0.994-8.22
			c-6.275-6.276-13.557-12.939-25.358-14.242c-3.604-0.396-12.258-1.76-15.697-1.131
			C146.585,109.535,146.535,114.09,146.535,115.878z"/>
		<path fill="#80E5FF" d="M134.942,115.395c0,0,0.241-8.871-6.763-6.85c-7.003,2.02-27.049,10.714-25.357,17.718
			c0,0-0.103,6.038,7.968,6.038h16.907c0,0,7.246,0.466,7.246-8.22L134.942,115.395z"/>
		<g>
			<path fill="#6A6C6C" d="M240.824,179.978c0,4.305-3.489,7.795-7.795,7.795h-32.955c-4.306,0-7.795-3.49-7.795-7.795v-3.429
				c0-4.306,3.489-7.795,7.795-7.795h32.955c4.306,0,7.795,3.489,7.795,7.795V179.978z"/>
			<path fill="#D2D3D3" d="M233.029,184.78h-32.955c-4.306,0-7.795-3.49-7.795-7.795v3.25c0,4.305,3.489,7.795,7.795,7.795h32.955
				c4.306,0,7.795-3.49,7.795-7.795v-3.25C240.824,181.29,237.335,184.78,233.029,184.78z"/>
			<polygon fill="#808181" points="212.143,187.772 202.846,187.772 210.452,168.754 219.749,168.754 			"/>
		</g>
		<polygon fill="#9B9C9C" points="57.037,131.302 48.873,128.329 45.035,128.329 45.035,170.322 48.873,170.322 57.037,167.177 		
			"/>
		<path fill="#808181" d="M65.201,157.127v-28.373c0,0-0.105-1.805-3.396-5.095l-10.954-7.006c0,0-3.057-0.4-1.57,3.621l7.756,6.994
			v31.57L65.201,157.127z"/>
		<g>
			<path fill="#6A6C6C" d="M128.679,175.12c0,6.902-5.595,12.496-12.497,12.496H63.348c-6.901,0-12.496-5.594-12.496-12.496v-5.496
				c0-6.902,5.595-12.497,12.496-12.497h52.834c6.902,0,12.497,5.595,12.497,12.497V175.12z"/>
			<path fill="#D2D3D3" d="M116.182,182.819H63.348c-6.901,0-12.496-5.595-12.496-12.497v5.211c0,6.902,5.595,12.497,12.496,12.497
				h52.834c6.902,0,12.497-5.595,12.497-12.497v-5.211C128.679,177.225,123.084,182.819,116.182,182.819z"/>
			<polygon fill="#808181" points="82.696,187.616 67.791,187.616 79.985,157.127 94.892,157.127 			"/>
		</g>
		<rect x="42.062" y="128.329" fill="#808181" width="2.973" height="41.993"/>
		<path fill="#414342" d="M159.3,145.1c0,1.289-1.045,2.335-2.336,2.335h-8.094c-1.29,0-2.335-1.046-2.335-2.335l0,0
			c0-1.29,1.045-2.335,2.335-2.335h8.094C158.255,142.765,159.3,143.81,159.3,145.1L159.3,145.1z"/>
		<polygon fill="#414342" points="60.808,187.771 116.182,187.771 118.832,190.823 118.832,193.692 57.037,193.692 57.037,190.731 
					"/>
		<rect x="57.037" y="193.692" fill="#E8501D" width="61.795" height="1.324"/>
		<polygon fill="#414342" points="199.023,187.771 232.747,187.771 235.397,190.823 235.397,193.692 195.253,193.692 
			195.253,190.731 		"/>
		<rect x="195.253" y="193.692" fill="#E8501D" width="40.145" height="1.324"/>
		<path fill="#B4F0FF" d="M174.858,116.114c0.4,1.053-0.127,2.23-1.18,2.631l-17.391,6.619c-1.052,0.4-2.229-0.128-2.629-1.18l0,0
			c-0.4-1.052,0.128-2.229,1.18-2.629l17.391-6.62C173.281,114.536,174.458,115.064,174.858,116.114L174.858,116.114z"/>
		<path fill="#B4F0FF" d="M130.718,116.114c0.4,1.053-0.127,2.23-1.18,2.631l-17.392,6.619c-1.052,0.4-2.228-0.128-2.628-1.18l0,0
			c-0.4-1.052,0.128-2.229,1.179-2.629l17.392-6.62C129.141,114.536,130.317,115.064,130.718,116.114L130.718,116.114z"/>
		<path fill="#D2D3D3" d="M126.554,182.507c0,0,2.125-5.148,2.125-11.105h64.822c0,0-3.34,2.881-0.794,11.105H126.554z"/>
		<polygon fill="#D2D3D3" points="267.512,167.588 244.562,167.588 244.562,166.072 267.512,163.251 		"/>
		<path fill="#D2D3D3" d="M264.667,155.149c0,0,0.098-3.594-2.74-2.775c-2.837,0.818-10.957,4.341-10.271,7.178
			c0,0-0.041,2.446,3.228,2.446h6.85c0,0,2.935,0.188,2.935-3.33V155.149z"/>
	</g>
	<path fill="#5BBDE7" d="M118.832,277.88c-40.877-10.28-63.556-36.524-63.556-36.524l1.761-46.339h61.795V277.88z"/>
	<path fill="#5BBDE7" d="M195.253,195.017v78.594c0,0,21.219-6.977,40.145-23.482v-55.111H195.253z"/>
	<polygon fill="#5BCDE7" points="57.037,195.017 118.832,195.017 118.832,200.437 56.857,200.437 	"/>
	<rect x="195.253" y="195.017" fill="#5BCDE7" width="40.145" height="4.389"/>
</g>
</svg>
