<?xml version="1.0" encoding="utf-8"?>
<!-- Generator: Adobe Illustrator 16.0.0, SVG Export Plug-In . SVG Version: 6.00 Build 0)  -->
<!DOCTYPE svg PUBLIC "-//W3C//DTD SVG 1.1 Tiny//EN" "http://www.w3.org/Graphics/SVG/1.1/DTD/svg11-tiny.dtd">
<svg version="1.1" baseProfile="tiny" id="Layer_1" xmlns="http://www.w3.org/2000/svg" xmlns:xlink="http://www.w3.org/1999/xlink"
	 x="0px" y="0px" width="300px" height="300px" viewBox="0 0 300 300" xml:space="preserve">
<g>
	<circle fill="#2C323A" cx="150" cy="150" r="131.6"/>
	<g>
		<path fill="#F8E332" d="M142.206,108.78c0,0-13.495-26.646-39.181-33.168c0,0-10.178-2.04-12.02,4.076
			c-1.843,6.116,9.706,9.195-0.699,26.964C90.306,106.652,118.601,126.049,142.206,108.78z"/>
		<path fill="#F8E332" d="M124.755,175.285c0,0-0.009,0.083-0.024,0.239c-0.016,0.098-0.042,0.249-0.058,0.55
			c-0.044,0.55-0.063,1.393-0.048,2.41c0.029,0.505,0.025,1.066,0.087,1.645c0.04,0.586,0.101,1.201,0.195,1.828
			c0.065,0.642,0.211,1.267,0.327,1.928c0.134,0.648,0.312,1.286,0.48,1.938c0.222,0.607,0.387,1.275,0.647,1.852
			c0.261,0.574,0.47,1.202,0.782,1.703c0.291,0.523,0.547,1.072,0.881,1.493c0.324,0.432,0.579,0.923,0.918,1.245
			c0.319,0.361,0.611,0.692,0.87,0.985c0.286,0.263,0.552,0.473,0.764,0.662c0.432,0.377,0.678,0.592,0.678,0.592l0.438,0.383
			c1.298,1.134,1.431,3.105,0.297,4.404c-0.95,1.087-2.489,1.355-3.727,0.748c0,0-0.426-0.209-1.17-0.575
			c-0.371-0.189-0.834-0.409-1.346-0.693c-0.485-0.327-1.032-0.695-1.629-1.098c-0.627-0.387-1.164-0.936-1.803-1.47
			c-0.653-0.53-1.212-1.176-1.826-1.836c-0.641-0.65-1.147-1.397-1.726-2.142c-0.575-0.747-1.026-1.553-1.547-2.351
			c-0.451-0.811-0.912-1.632-1.308-2.454c-0.376-0.825-0.777-1.642-1.075-2.446c-0.33-0.802-0.612-1.586-0.856-2.337
			c-0.267-0.748-0.452-1.468-0.652-2.132c-0.358-1.338-0.613-2.469-0.76-3.307c-0.077-0.391-0.132-0.787-0.167-1.06
			c-0.031-0.216-0.048-0.332-0.048-0.332l-0.015-0.105c-0.493-3.421,1.88-6.594,5.301-7.087c3.421-0.494,6.594,1.88,7.088,5.301
			C124.795,174.269,124.801,174.799,124.755,175.285z"/>
		<path fill="#E6352B" d="M239.936,141.88c0,2.025-1.642,3.666-3.666,3.666h-50.201c-2.025,0-3.666-1.641-3.666-3.666l0,0
			c0-2.025,1.641-3.666,3.666-3.666h50.201C238.294,138.214,239.936,139.854,239.936,141.88L239.936,141.88z"/>
		<path fill="#F6B600" d="M208.302,144.544c0,4.054-3.286,7.34-7.339,7.34H129.97c-4.054,0-7.339-3.286-7.339-7.34v-5.328
			c0-4.054,3.286-7.34,7.339-7.34h70.993c4.053,0,7.339,3.286,7.339,7.34V144.544z"/>
		<path fill="#F8C732" d="M151.58,110.337c-27.96-5.146-35.988-5.49-43.196-5.49c-32.281,0-58.449,16.578-58.449,37.029
			s26.168,37.03,58.449,37.03c7.208,0,15.236,0,43.196-5.491V110.337z"/>
		<circle fill="#EA5047" cx="242.18" cy="141.88" r="7.885"/>
		<path fill="#F8C732" d="M68.899,169.178c0,0,11.948,3.076,9.563,13.637c-2.384,10.56-7.153,34.064-7.153,34.064
			s-2.096,7.835,7.469,7.835c9.563,0,15.354,0,15.354,0s8.578,0,8.578-8.176l4.788-22.765c0,0,3.423-15.212,17.496-15.878
			c8.468-0.401-8.72-31.871-25.412-24.718S68.899,165.511,68.899,169.178z"/>
		<g>
			<path fill="#F6AF00" d="M147.287,109.558v57.583c-12.059,2.367-20.403,3.713-26.58,4.479c-0.003,0-0.004,0.001-0.006,0.001
				s-0.004,0.001-0.007,0.001c-0.896,0.11-1.747,0.21-2.556,0.298c-11.932,2.247-14.933,15.579-14.933,15.579l-4.788,22.766
				c0,8.176-8.579,8.176-8.579,8.176s-5.791,0-15.354,0c-1.332,0-2.431-0.156-3.347-0.418c-0.162,2.173,0.374,6.692,7.64,6.692
				c9.564,0,15.355,0,15.355,0s8.578,0,8.578-8.176l4.787-22.765c0,0,3.002-13.333,14.933-15.58c0.81-0.088,1.661-0.187,2.557-0.298
				c0.002,0,0.004,0,0.006,0c0.002,0,0.004-0.001,0.006-0.001c6.177-0.766,14.522-2.111,26.58-4.479v-63.078
				C150.089,110.062,148.667,109.805,147.287,109.558z"/>
		</g>
		<g>
			<path fill="#F2F2F2" d="M162.318,179.53c-3.764,0-6.814-3.052-6.814-6.815v-61.67c0-3.765,3.051-6.815,6.814-6.815
				s6.815,3.051,6.815,6.815v61.67C169.134,176.479,166.082,179.53,162.318,179.53z"/>
			<path fill="#E2E2E2" d="M178.658,171.519c-3.764,0-6.814-3.051-6.814-6.814v-45.648c0-3.764,3.051-6.815,6.814-6.815
				s6.815,3.052,6.815,6.815v45.648C185.474,168.468,182.422,171.519,178.658,171.519z"/>
			<path fill="#CFCFCF" d="M194.5,165.321c-3.764,0-6.814-3.051-6.814-6.814v-33.254c0-3.764,3.051-6.814,6.814-6.814
				s6.815,3.051,6.815,6.814v33.254C201.315,162.271,198.264,165.321,194.5,165.321z"/>
		</g>
		<g>
			<path fill="#F2F2F2" d="M162.318,175.274c-3.764,0-6.814-3.052-6.814-6.815v4.256c0,3.764,3.051,6.815,6.814,6.815
				s6.815-3.052,6.815-6.815v-4.256C169.134,172.223,166.082,175.274,162.318,175.274z"/>
			<path fill="#E2E2E2" d="M178.658,167.263c-3.764,0-6.814-3.051-6.814-6.814v4.256c0,3.764,3.051,6.814,6.814,6.814
				s6.815-3.051,6.815-6.814v-4.256C185.474,164.212,182.422,167.263,178.658,167.263z"/>
			<path fill="#CFCFCF" d="M194.5,161.065c-3.764,0-6.814-3.051-6.814-6.814v4.256c0,3.764,3.051,6.814,6.814,6.814
				s6.815-3.051,6.815-6.814v-4.256C201.315,158.015,198.264,161.065,194.5,161.065z"/>
		</g>
		<path fill="#EA5047" d="M140.51,141.876c0,3.604-2.922,6.527-6.526,6.527H99.035c-3.604,0-6.526-2.923-6.526-6.527l0,0
			c0-3.604,2.922-6.526,6.526-6.526h34.949C137.588,135.35,140.51,138.271,140.51,141.876L140.51,141.876z"/>
		<path fill="#D64347" d="M133.984,145.342H99.035c-3.077,0-5.649-2.131-6.339-4.996c-0.118,0.491-0.188,1.003-0.188,1.53
			c0,3.604,2.922,6.527,6.526,6.527h34.949c3.604,0,6.526-2.923,6.526-6.527c0-0.527-0.069-1.039-0.188-1.53
			C139.633,143.211,137.06,145.342,133.984,145.342z"/>
		<path fill="#EDD732" d="M90.307,106.652l2.501-4.923c0,0,13.72-4.476,45.016,0c0,0,3.565,5.24,4.313,6.92
			C142.137,108.649,116.222,102.311,90.307,106.652z"/>
		<circle fill="#EA5047" cx="100.967" cy="126.853" r="2.905"/>
		<circle fill="#EA5047" cx="111.347" cy="126.853" r="2.905"/>
		<circle fill="#EA5047" cx="121.727" cy="126.853" r="2.906"/>
		<circle fill="#2BAA3A" cx="132.107" cy="126.853" r="2.906"/>
	</g>
</g>
</svg>
