<?xml version="1.0" encoding="utf-8"?>
<!-- Generator: Adobe Illustrator 16.0.0, SVG Export Plug-In . SVG Version: 6.00 Build 0)  -->
<!DOCTYPE svg PUBLIC "-//W3C//DTD SVG 1.1 Tiny//EN" "http://www.w3.org/Graphics/SVG/1.1/DTD/svg11-tiny.dtd">
<svg version="1.1" baseProfile="tiny" id="Layer_1" xmlns="http://www.w3.org/2000/svg" xmlns:xlink="http://www.w3.org/1999/xlink"
	 x="0px" y="0px" width="300px" height="300px" viewBox="0 0 300 300" xml:space="preserve">
<g>
	<circle fill="#163A6C" cx="150" cy="150" r="131.6"/>
	<g>

			<rect x="129.427" y="139.725" transform="matrix(-0.9532 -0.3023 0.3023 -0.9532 222.6217 415.1052)" fill="#393A39" width="28.007" height="101.203"/>
		<polygon fill="#A9AAAA" points="238.127,125.757 257.777,124.246 257.777,119.75 238.127,118.239 		"/>
		<rect x="233.377" y="109.476" fill="#B0B1B2" width="5.393" height="25.045"/>
		<rect x="219.623" y="106.136" fill="#D2D3D3" width="14.256" height="31.724"/>
		<rect x="215.771" y="108.769" fill="#B0B1B2" width="3.852" height="26.457"/>
		<rect x="210.139" y="110.825" fill="#6A6C6C" width="5.633" height="22.347"/>
		<path fill="#517082" d="M210.139,91.328h-14.35v12.336H96.348v-3.021c0,0-0.252-2.014-3.021-2.014
			c-2.768,0-40.783,5.035-40.783,5.035s-5.869,0.133-7.299,4.027l-3.021,14.812l83.957,6.335c0,0,9.693-0.837,13.469,9.525
			l34.742,11.369l6.797-8.559l28.951-2.811V91.328z"/>
		<path fill="#393A39" d="M98.865,95.104c0,0,58.908-3.776,72.252-3.776s24.672,3.776,24.672,3.776v9.009v6.545
			c0,0-11.328,3.775-24.672,3.775s-73.51-3.775-73.51-3.775l-1.26-6.545L98.865,95.104z"/>

			<rect x="74.158" y="90.192" transform="matrix(-0.9939 0.11 -0.11 -0.9939 167.8078 177.7482)" fill="#2E2F2E" width="9.69" height="6.618"/>
		<polygon fill="#393A39" points="71.717,100.728 87.691,98.961 85.943,96.063 72.789,97.518 		"/>
		<circle fill="#3E6074" cx="199.096" cy="129.222" r="7.225"/>
		<circle fill="#BDBEBF" cx="199.096" cy="129.222" r="5.404"/>
		<path fill="#3E6074" d="M181.188,141.173c0,0-20.971-12.772-43.047-5.947l0.359,0.611c0,0,18.73-4.435,40.994,7.467
			L181.188,141.173z"/>
		<path fill="#3E6074" d="M166.625,116.158h43.514v2.081h-43.514c-0.574,0-1.041-0.466-1.041-1.04
			C165.584,116.624,166.051,116.158,166.625,116.158z"/>
		<path fill="#3E6074" d="M150.541,119.054h59.598v2.081h-59.598c-0.574,0-1.041-0.466-1.041-1.04
			C149.5,119.52,149.967,119.054,150.541,119.054z"/>
		<path fill="#BDBEBF" d="M96.348,103.286c0,0.503,0.408,0.911,0.912,0.911h97.617c0.504,0,0.912-0.408,0.912-0.911l0,0
			c0-0.503-0.408-0.911-0.912-0.911H97.26C96.756,102.375,96.348,102.783,96.348,103.286L96.348,103.286z"/>
		<polygon fill="#2E2F2E" points="171.312,148.725 144.693,140.014 138.141,160.677 168.793,156.67 		"/>
		<path fill="#3E6074" d="M139.648,138.363c0,0-2.393-9.645-15.047-9.645l-82.379-6.216l0.869-4.264l81.527,5.579
			c0,0,19.598,1.069,19.598,16.041L139.648,138.363z"/>
		<polygon fill="#C5C6C6" points="219.623,130.854 233.879,135.226 233.879,137.86 219.623,137.86 		"/>
		<path fill="#5E7B8C" d="M194.35,91.467c0,0.438,0.354,0.792,0.793,0.792h14.988c0.438,0,0.791-0.354,0.791-0.792l0,0
			c0-0.438-0.354-0.793-0.791-0.793h-14.988C194.703,90.674,194.35,91.029,194.35,91.467L194.35,91.467z"/>
		<circle fill="#BDBEBF" cx="91.492" cy="105.013" r="1.727"/>
		<path fill="#B2B3B3" d="M221.381,111.728c0,0.499,0.404,0.904,0.902,0.904h9.242c0.5,0,0.904-0.405,0.904-0.904l0,0
			c0-0.499-0.404-0.903-0.904-0.903h-9.242C221.785,110.825,221.381,111.229,221.381,111.728L221.381,111.728z"/>
		<path fill="#B2B3B3" d="M221.381,114.433c0,0.499,0.404,0.904,0.902,0.904h9.242c0.5,0,0.904-0.405,0.904-0.904l0,0
			c0-0.499-0.404-0.903-0.904-0.903h-9.242C221.785,113.53,221.381,113.934,221.381,114.433L221.381,114.433z"/>
		<path fill="#B2B3B3" d="M221.381,120.645c0,0.5,0.404,0.904,0.902,0.904h9.242c0.5,0,0.904-0.404,0.904-0.904l0,0
			c0-0.499-0.404-0.903-0.904-0.903h-9.242C221.785,119.742,221.381,120.146,221.381,120.645L221.381,120.645z"/>
		<path fill="#B2B3B3" d="M221.381,123.351c0,0.499,0.404,0.903,0.902,0.903h9.242c0.5,0,0.904-0.404,0.904-0.903l0,0
			c0-0.499-0.404-0.903-0.904-0.903h-9.242C221.785,122.448,221.381,122.852,221.381,123.351L221.381,123.351z"/>
		<path fill="#B2B3B3" d="M221.381,129.563c0,0.5,0.404,0.904,0.902,0.904h9.242c0.5,0,0.904-0.404,0.904-0.904l0,0
			c0-0.499-0.404-0.903-0.904-0.903h-9.242C221.785,128.66,221.381,129.064,221.381,129.563L221.381,129.563z"/>
		<path fill="#B2B3B3" d="M221.381,132.268c0,0.5,0.404,0.904,0.902,0.904h9.242c0.5,0,0.904-0.404,0.904-0.904l0,0
			c0-0.499-0.404-0.903-0.904-0.903h-9.242C221.785,131.365,221.381,131.769,221.381,132.268L221.381,132.268z"/>
		<path fill="#ACADAD" d="M194.83,129.222c0,0.5,0.404,0.904,0.904,0.904h6.723c0.5,0,0.904-0.404,0.904-0.904l0,0
			c0-0.499-0.404-0.903-0.904-0.903h-6.723C195.234,128.319,194.83,128.723,194.83,129.222L194.83,129.222z"/>
		<path fill="#565858" d="M133.682,240.259c0.32,0,0.617-0.205,0.721-0.527l24.771-78.124c0.127-0.396-0.094-0.821-0.49-0.947
			c-0.402-0.126-0.822,0.094-0.949,0.491l-24.773,78.124c-0.125,0.397,0.096,0.822,0.492,0.948
			C133.529,240.248,133.605,240.259,133.682,240.259z"/>
	</g>
</g>
</svg>
