<?xml version="1.0" encoding="utf-8"?>
<!-- Generator: Adobe Illustrator 16.0.0, SVG Export Plug-In . SVG Version: 6.00 Build 0)  -->
<!DOCTYPE svg PUBLIC "-//W3C//DTD SVG 1.1 Tiny//EN" "http://www.w3.org/Graphics/SVG/1.1/DTD/svg11-tiny.dtd">
<svg version="1.1" baseProfile="tiny" id="Layer_1" xmlns="http://www.w3.org/2000/svg" xmlns:xlink="http://www.w3.org/1999/xlink"
	 x="0px" y="0px" width="300px" height="300px" viewBox="0 0 300 300" xml:space="preserve">
<g>
	<circle fill="#EE5A28" cx="150" cy="150" r="131.6"/>
	<path fill="#FFFFFF" d="M236.01,105.077c0,12.667-10.27,22.935-22.935,22.935H86.658c-12.666,0-22.935-10.268-22.935-22.935V73.126
		c0-12.667,10.269-22.935,22.935-22.935h126.417c12.665,0,22.935,10.268,22.935,22.935V105.077z"/>
	<g>
		<path fill="#0063A2" d="M105.312,74.026l-4.703,4.703h-8.863l-4.703-4.703H105.312z M105.312,105.68H87.043l4.703-4.703h8.863
			L105.312,105.68z M101.197,87.501l2.352,2.352l-2.352,2.352H91.159l-2.352-2.352l2.352-2.352H101.197z M101.469,85.998v-6.402
			l4.703-4.638v12.231l-1.764,1.805L101.469,85.998z M106.171,92.518v12.231l-4.703-4.703v-6.358l2.939-2.931L106.171,92.518z"/>
		<path fill="#0063A2" d="M110.964,105.68v-4.703h4.703v4.703H110.964z"/>
		<path fill="#0063A2" d="M119.917,105.68v-4.703h4.703v4.703H119.917z"/>
		<path fill="#0063A2" d="M128.871,105.68v-4.703h4.703v4.703H128.871z"/>
		<path fill="#0063A2" d="M143.024,93.714v6.376l-4.703,4.702V92.539l1.764-1.764L143.024,93.714z M157.494,74.026l-4.703,4.703
			h-8.863l-4.703-4.703H157.494z M157.494,105.68h-18.269l4.703-4.703h8.863L157.494,105.68z M153.379,87.501l2.352,2.352
			l-2.352,2.352H143.34l-2.352-2.352l2.352-2.352H153.379z M153.65,85.971v-6.376l4.702-4.638v12.189l-1.763,1.809L153.65,85.971z"
			/>
		<path fill="#0063A2" d="M163.146,105.68v-4.703h4.703v4.703H163.146z"/>
		<path fill="#0063A2" d="M172.099,105.68v-4.703h4.703v4.703H172.099z"/>
		<path fill="#0063A2" d="M181.052,105.68v-4.703h4.703v4.703H181.052z"/>
		<path fill="#0063A2" d="M192.628,86.007v-6.381l4.703-4.707v12.264l-1.764,1.81L192.628,86.007z M197.331,92.522v12.264
			l-4.703-4.707v-6.381l2.939-2.941L197.331,92.522z"/>
		<path fill="#0063A2" d="M204.203,105.68v-4.703h4.703v4.703H204.203z"/>
		<path fill="#0063A2" d="M213.156,105.68v-4.703h4.703v4.703H213.156z"/>
		<path fill="#0063A2" d="M222.109,105.68v-4.703h4.703v4.703H222.109z"/>
	</g>
	<g>
		<polygon fill="#ABADAD" points="77.068,259.557 84.703,264.283 84.703,224.278 77.068,224.278 		"/>
		<path fill="#30C7E7" d="M194.59,205.525v-46.547c0-22.109-17.926-40.035-40.035-40.035h-9.109
			c-22.109,0-40.035,17.926-40.035,40.035v46.547H194.59z"/>
		<path fill="#7ADBF0" d="M169.485,134.541c-0.331,0-0.666-0.083-0.976-0.255c-4.992-2.796-10.674-4.273-16.432-4.273
			c-1.104,0-2-0.896-2-2s0.896-2,2-2c6.44,0,12.799,1.654,18.387,4.783c0.964,0.54,1.308,1.759,0.768,2.722
			C170.866,134.172,170.186,134.541,169.485,134.541z"/>
		<path fill="#7ADBF0" d="M187.762,183.411c-1.104,0-2-0.896-2-2v-17.715c0-9.549-4.079-18.688-11.19-25.073
			c-0.822-0.738-0.891-2.002-0.152-2.824c0.737-0.821,2.002-0.891,2.824-0.152c7.956,7.143,12.519,17.367,12.519,28.049v17.715
			C189.762,182.515,188.866,183.411,187.762,183.411z"/>
		<path fill="#6A6C6C" d="M172.156,205.258v-37.073c0-10.986-8.906-19.894-19.893-19.894h-4.527
			c-10.986,0-19.894,8.908-19.894,19.894v37.073H172.156z"/>
		<g>
			<circle fill="#4EE1EA" cx="150" cy="174.365" r="16.028"/>
			<path fill="#E7E8E8" d="M150,192.392c-9.94,0-18.028-8.087-18.028-18.027s8.087-18.028,18.028-18.028s18.027,8.087,18.027,18.028
				S159.94,192.392,150,192.392z M150,160.337c-7.735,0-14.028,6.293-14.028,14.028s6.293,14.027,14.028,14.027
				c7.734,0,14.027-6.292,14.027-14.027S157.734,160.337,150,160.337z"/>
		</g>
		<path fill="#BCEDF7" d="M159.301,175.306c-0.553,0-1-0.448-1-1c0-4.577-3.724-8.301-8.301-8.301c-0.552,0-1-0.448-1-1s0.448-1,1-1
			c5.68,0,10.301,4.621,10.301,10.301C160.301,174.858,159.854,175.306,159.301,175.306z"/>
		<path fill="#D2D3D3" d="M204.167,269.909v-60.434c0-3.866-3.134-7-7-7h-94.334c-3.866,0-7,3.134-7,7v60.432
			C95.833,269.908,145.083,296.333,204.167,269.909z"/>
		<path fill="#D2D3D3" d="M171,209.395h-41.333c-4.411,0-8,3.589-8,8v1.333c0,0.399,0.039,0.788,0.096,1.171
			c0.569-3.856,3.892-6.829,7.904-6.829H171c4.012,0,7.334,2.972,7.904,6.829c0.057-0.383,0.096-0.772,0.096-1.171v-1.333
			C179,212.984,175.411,209.395,171,209.395z"/>
		<path fill="#D2D3D3" d="M153.616,175.748c-2.649,0-4.797-2.148-4.797-4.797c0-0.824,0.227-1.587,0.593-2.264
			c-3.409,0.315-6.08,3.181-6.08,6.672c0,3.703,3.001,6.704,6.704,6.704c3.704,0,6.705-3.001,6.705-6.704
			c0-0.256-0.018-0.508-0.046-0.757C155.859,175.307,154.795,175.748,153.616,175.748z"/>
		<g>
			<path fill="#F0F1F1" d="M100.987,242.109l2.542-2.542c-0.806-0.467-1.853-0.364-2.542,0.326c-0.823,0.823-0.823,2.157,0,2.98
				C100.775,242.662,100.776,242.32,100.987,242.109z"/>
			<path fill="#F0F1F1" d="M104.294,240.33l-2.543,2.543c-0.211,0.211-0.552,0.211-0.764,0c0.823,0.823,2.157,0.823,2.98,0
				C104.657,242.183,104.761,241.136,104.294,240.33z"/>
		</g>
		<g>
			<path fill="#F0F1F1" d="M103.148,261.353l-2.542-2.542c-0.467,0.806-0.364,1.853,0.326,2.542c0.823,0.823,2.157,0.823,2.98,0
				C103.701,261.564,103.359,261.564,103.148,261.353z"/>
			<path fill="#F0F1F1" d="M101.369,258.046l2.543,2.543c0.211,0.211,0.211,0.552,0,0.764c0.823-0.823,0.823-2.157,0-2.98
				C103.222,257.683,102.175,257.579,101.369,258.046z"/>
		</g>
		<g>
			<path fill="#F0F1F1" d="M197.493,242.109l2.542-2.542c-0.805-0.467-1.852-0.364-2.542,0.326c-0.823,0.823-0.823,2.157,0,2.98
				C197.281,242.662,197.282,242.32,197.493,242.109z"/>
			<path fill="#F0F1F1" d="M200.801,240.33l-2.544,2.543c-0.211,0.211-0.552,0.211-0.764,0c0.823,0.823,2.157,0.823,2.979,0
				C201.164,242.183,201.268,241.136,200.801,240.33z"/>
		</g>
		<g>
			<path fill="#F0F1F1" d="M199.654,261.353l-2.543-2.542c-0.467,0.806-0.363,1.853,0.326,2.542c0.824,0.823,2.158,0.823,2.98,0
				C200.207,261.564,199.865,261.564,199.654,261.353z"/>
			<path fill="#F0F1F1" d="M197.875,258.046l2.543,2.543c0.211,0.211,0.211,0.552,0,0.764c0.823-0.823,0.823-2.157,0-2.98
				C199.729,257.683,198.682,257.579,197.875,258.046z"/>
		</g>
		<path fill="#B3B4B4" d="M139.286,257.528c0,2.112-1.712,3.825-3.825,3.825h-7.49c-2.112,0-3.824-1.712-3.824-3.825v-14.337
			c0-2.112,1.712-3.824,3.824-3.824h7.49c2.112,0,3.825,1.712,3.825,3.824V257.528z"/>
		<path fill="#ECECEC" d="M135.461,260.115h-7.49c-2.112,0-3.824-1.712-3.824-3.825v1.215c0,2.112,1.712,3.825,3.824,3.825h7.49
			c2.112,0,3.824-1.712,3.824-3.825v-1.215C139.285,258.403,137.573,260.115,135.461,260.115z"/>
		<circle fill="#2BAA3A" cx="128.163" cy="245.076" r="1.586"/>
		<circle fill="#E6352B" cx="128.163" cy="250.271" r="1.586"/>
		<circle fill="#FFEB00" cx="128.163" cy="255.464" r="1.586"/>
		<path fill="#8E8F8F" d="M136.421,254.698c0,1.299-1.053,2.353-2.353,2.353l0,0c-1.299,0-2.353-1.053-2.353-2.353v-8.855
			c0-1.299,1.054-2.353,2.353-2.353l0,0c1.299,0,2.353,1.053,2.353,2.353V254.698z"/>
		<g>
			<circle fill="#C0C1C1" cx="150.913" cy="247.901" r="7.1"/>
			<g>
				<path fill="#FFEB00" d="M156.808,247.716c-0.135-3.143-2.718-5.651-5.895-5.651c-3.176,0-5.76,2.508-5.895,5.651H156.808z"/>
				<path fill="#8E8F8F" d="M145.013,248.116c0.078,3.195,2.686,5.762,5.9,5.762s5.822-2.567,5.899-5.762H145.013z"/>
			</g>
		</g>
		<g>
			<circle fill="#C0C1C1" cx="168.27" cy="247.9" r="7.099"/>
			<g>
				<path fill="#FFEB00" d="M164.233,252.199c2.317,2.127,5.917,2.074,8.164-0.172c2.246-2.246,2.299-5.846,0.172-8.164
					L164.233,252.199z"/>
				<path fill="#8E8F8F" d="M172.289,243.576c-2.313-2.205-5.973-2.175-8.246,0.097c-2.272,2.272-2.301,5.932-0.097,8.246
					L172.289,243.576z"/>
			</g>
		</g>
		<g>
			<circle fill="#C0C1C1" cx="185.1" cy="247.899" r="7.099"/>
			<g>
				<path fill="#FFEB00" d="M179.205,248.085c0.135,3.143,2.718,5.65,5.896,5.651c3.176,0,5.759-2.508,5.895-5.651L179.205,248.085z
					"/>
				<path fill="#8E8F8F" d="M190.999,247.684c-0.077-3.195-2.685-5.761-5.899-5.762c-3.214,0-5.821,2.568-5.899,5.763
					L190.999,247.684z"/>
			</g>
		</g>
		<rect x="95.833" y="235.042" fill="#B3B4B4" width="108.334" height="1.516"/>
		<rect x="95.833" y="264.283" fill="#B3B4B4" width="108.334" height="1.516"/>
		<rect x="105.411" y="197.142" fill="#E7E8E8" width="89.179" height="5.333"/>
		<rect x="121.667" y="218.729" fill="#B3B4B4" width="57.333" height="16.313"/>
		<g>
			<g>
				<path fill="#FFF98B" d="M178,218.809c0,3.866-3.134,7-7,7h-41.333c-3.866,0-7-3.134-7-7v-1.333c0-3.866,3.134-7,7-7H171
					c3.866,0,7,3.134,7,7V218.809z"/>
				<path fill="#6A6C6C" d="M171,226.809h-41.333c-4.411,0-8-3.589-8-8v-1.333c0-4.411,3.589-8,8-8H171c4.411,0,8,3.589,8,8v1.333
					C179,223.22,175.411,226.809,171,226.809z M129.667,211.476c-3.309,0-6,2.691-6,6v1.333c0,3.309,2.691,6,6,6H171
					c3.309,0,6-2.691,6-6v-1.333c0-3.309-2.691-6-6-6H129.667z"/>
			</g>
			<rect x="127.705" y="210.476" fill="#6A6C6C" width="2" height="14.675"/>
			<rect x="138.286" y="210.476" fill="#6A6C6C" width="2" height="14.675"/>
			<rect x="148.866" y="210.476" fill="#6A6C6C" width="2" height="14.675"/>
			<rect x="159.446" y="210.476" fill="#6A6C6C" width="2" height="14.675"/>
			<rect x="170.027" y="210.476" fill="#6A6C6C" width="2" height="14.675"/>
		</g>
		<rect x="81.444" y="214.647" fill="#C2B1B1" width="14.284" height="16.565"/>
		<circle fill="#E1E2E2" cx="81.444" cy="223.679" r="14.284"/>
		<circle fill="#C2C4C4" cx="81.444" cy="223.679" r="7.533"/>
		<polygon fill="#ABADAD" points="222.827,259.557 215.192,264.283 215.192,224.278 222.827,224.278 		"/>
		<rect x="204.167" y="214.647" fill="#C2B1B1" width="14.284" height="16.565"/>
		<circle fill="#E1E2E2" cx="218.451" cy="223.679" r="14.284"/>
		<circle fill="#C2C4C4" cx="218.452" cy="223.679" r="7.534"/>
		<circle fill="#7ADBF0" cx="142.952" cy="128.012" r="3.667"/>
	</g>
	<path fill="#FFFFFF" d="M201.035,124.346c0,0,0,11.653,0,16.89s4.647,0.057,4.647,0.057l14.651-16.947H201.035z"/>
</g>
</svg>
