<?xml version="1.0" encoding="utf-8"?>
<!-- Generator: Adobe Illustrator 17.0.0, SVG Export Plug-In . SVG Version: 6.00 Build 0)  -->
<!DOCTYPE svg PUBLIC "-//W3C//DTD SVG 1.1//EN" "http://www.w3.org/Graphics/SVG/1.1/DTD/svg11.dtd">
<svg version="1.1" id="Layer_1" xmlns="http://www.w3.org/2000/svg" xmlns:xlink="http://www.w3.org/1999/xlink" x="0px" y="0px"
	 width="512px" height="512px" viewBox="0 0 512 512" enable-background="new 0 0 512 512" xml:space="preserve">
<g>
	<path fill="#163A6C" d="M256,31C131.747,31,31,131.747,31,256s100.747,225,225,225s225-100.747,225-225S380.253,31,256,31z"/>
	<g>
		<defs>
			<path id="SVGID_1_" d="M256,31C131.747,31,31,131.747,31,256s100.747,225,225,225s225-100.747,225-225S380.253,31,256,31z"/>
		</defs>
		<clipPath id="SVGID_2_">
			<use xlink:href="#SVGID_1_"  overflow="visible"/>
		</clipPath>
		<g clip-path="url(#SVGID_2_)">
			<path fill="#745A49" d="M309.501,64.236l-0.966,4.067L219.64,442.483c-5.871,24.712,37.803,56.245,127.655,77.591
				c89.852,21.346,143.042,12.826,148.913-11.887l32.456-136.617l138.55-85.356l1.188-0.732c5.899-3.634,7.836-43.005-8.315-69.211
				c-16.15-26.214-44.257-29.334-50.156-25.7l-1.188,0.732l-43.64,26.885l19.999-84.182l0.966-4.067
				c4.802-20.214-36.837-60.312-126.689-81.659S314.303,44.022,309.501,64.236z"/>
			<path fill="#D1A170" d="M311.821,59.356c1.122,27.577,43.836,58.813,126.302,78.404s134.664,10.904,148.07-13.221
				c-2.609-21.321-44.346-56.665-126.812-76.257S323.732,41.484,311.821,59.356z"/>
			<path fill="#3D3028" d="M271.345,441.877l-11.342,47.741c4.76,2.497,9.853,4.97,15.428,7.403l12.182-51.279
				c1.067-4.49-1.712-9-6.202-10.067C276.922,434.608,272.412,437.387,271.345,441.877z"/>
			<path fill="#3D3028" d="M325.949,429.069l-18.946,79.749c5.122,1.664,10.468,3.286,16.029,4.874l19.186-80.758
				c1.067-4.49-1.712-9-6.202-10.067C331.525,421.8,327.015,424.579,325.949,429.069z"/>
			<path fill="#3D3028" d="M344.959,493.739l-5.77,24.289c2.707,0.686,5.317,1.384,8.107,2.046s5.443,1.216,8.161,1.819l5.77-24.289
				c1.067-4.49-1.712-9-6.202-10.067C350.535,486.471,346.025,489.249,344.959,493.739z"/>
			<path fill="#3D3028" d="M395.293,462.73l-15.23,64.107c5.745,0.995,11.24,1.811,16.588,2.523l14.911-62.765
				c1.067-4.49-1.712-9-6.202-10.067C400.869,455.461,396.36,458.24,395.293,462.73z"/>
			<path fill="#3D3028" d="M465.761,419.317l-26.802,112.815c6.316-0.107,12.139-0.493,17.463-1.162l25.608-107.788
				c1.067-4.49-1.712-9-6.202-10.067C471.337,412.048,466.827,414.827,465.761,419.317z"/>
			<path fill="#3D3028" d="M530.355,148.148l-18.21,75.928c-1.075,4.488,1.693,9.004,6.19,10.081l0.008,0.002
				c4.482,1.065,8.988-1.697,10.063-6.186l19.655-81.936C542.662,147.059,536.74,147.749,530.355,148.148z"/>
			<path fill="#3D3028" d="M487.883,146.643l-29.937,124.711c-1.075,4.488,1.693,9.004,6.182,10.079
				c0.008,0.002,0.016,0.004,0.016,0.004c4.482,1.065,8.99-1.705,10.063-6.186l30.521-127.134
				C499.36,147.814,493.716,147.298,487.883,146.643z"/>
			<path fill="#3D3028" d="M413.88,131.287l-9.823,41.347c-1.067,4.49,1.712,9,6.202,10.067c4.49,1.067,9-1.712,10.067-6.202
				l9.691-40.794C424.452,134.28,419.061,132.81,413.88,131.287z"/>
			<path fill="#3D3028" d="M358.828,109.813l-32.968,138.772c-1.067,4.49,1.712,9,6.202,10.067c4.49,1.067,9-1.712,10.067-6.202
				l32.137-135.274C368.741,114.78,363.629,112.32,358.828,109.813z"/>
			<path fill="#3D3028" d="M329.198,89.84l-20.417,85.939c-1.067,4.49,1.712,9,6.202,10.067c4.49,1.067,9-1.712,10.067-6.202
				l18.676-78.61C338.137,97.361,333.329,93.615,329.198,89.84z"/>
		</g>
	</g>
	<g>
		<path fill="#12130D" d="M182.576,308.494c-1.944,6.2-3.852,12.411-5.839,18.597c-3.82,11.894-7.761,23.749-12.856,35.174
			c-3.013,6.756-6.671,13.141-11.713,18.629c-1.255,1.366-2.518,2.806-4.722,3.2c0.231-5.61,0.458-11.117,0.699-16.977
			c-1.196,1.472-1.981,2.895-3.233,3.932c-1.759,1.458-3.735,2.367-5.965,2.821c-1.075,0.219-1.252-0.069-1.052-1.104
			c3.115-16.051,7.122-31.828,14.075-46.722c0.5-1.071,0.941-2.17,1.542-3.562c-1.104,0.939-1.96,1.667-3.044,2.589
			c0.733-3.217,1.405-6.152,2.067-9.09c0.107-0.475,0.444-0.94,0.106-1.451c-0.222-0.73,0.104-1.345,0.432-1.946
			c7.253-13.308,13.508-27.085,19.354-41.058c4.411-10.544,8.442-21.231,12.237-32.03c-1.77,1.704-3.689,3.204-6.009,4.082
			c-2.977,1.128-5.721,0.549-8.262-1.262c-0.425-0.303-0.792-0.66-0.89-1.209c1.58-18.312,6.301-35.811,13.976-52.475
			c4.079-8.857,9.766-16.767,15.652-24.512c3.596-4.731,7.126-9.508,10.542-14.373c1.608-2.289,2.453-4.661,2.476-7.469
			c0.04-4.982,1.189-9.725,3.687-14.087c0.34-0.593,0.721-1.161,1.084-1.741c0.767-0.237,1.34,0.2,1.867,0.616
			c2.899,2.286,6.182,3.849,9.579,5.221c0.863,0.349,1.915,0.599,2.016,1.832c0.006,0.184-0.019,0.368-0.066,0.546
			c-1.165,3.056-0.339,4.7,2.851,5.635c2.642,0.775,5.353,0.574,7.997,0.242c9.045-1.137,17.612-3.777,25.418-8.614
			c2.038-1.263,4.012-2.623,6.021-3.93c3.064-1.232,6.331-1.326,9.547-1.603c8.117-0.699,16.243-0.892,24.363,0.013
			c1.458,0.162,2.968,0.158,4.22,1.115c0.139,0.233,0.222,0.463-0.054,0.662c-7.153,0.891-14.111,2.666-21.042,4.586
			c-5.123,1.419-10.381,2.189-15.618,3.048c-0.613,0.101-1.218,0.254-1.827,0.383c-0.521,0.388-1.125,0.578-1.754,0.621
			c-6.738,0.457-12.38,3.748-18.018,7.009c-3.606,2.085-7.215,4.184-10.452,6.835c-4.652,3.811-5.913,8.574-3.897,14.23
			c0.966,2.711,2.25,5.254,3.852,7.624c3.932,5.819,4.755,12.255,3.831,19.02c-1.112,8.134-4.182,15.632-7.717,22.958
			c-3.027,6.273-6.563,12.256-10.204,18.196c-6.841,11.158-14.702,21.6-22.178,32.313c-0.951,1.362-2.288,2.399-3.148,3.831
			c-3.563,5.177-7.635,9.953-11.657,14.767c-0.791,0.947-1.307,1.995-1.635,3.165c-1.652,5.883-3.349,11.753-5.03,17.628
			C183.778,305.816,183.378,307.234,182.576,308.494z"/>
		<path fill="#ECECEC" d="M202.316,268.585c3.184-4.388,6.38-8.766,9.549-13.165c7.944-11.029,15.648-22.218,22.163-34.171
			c4.79-8.789,9.03-17.807,10.918-27.743c0.502-2.641,0.751-5.305,0.665-7.997c-0.136-4.251-1.204-8.213-3.534-11.816
			c-1.767-2.732-3.411-5.536-4.459-8.643c-2.14-6.349-0.73-11.229,4.65-15.237c6.238-4.647,13.002-8.47,20.069-11.669
			c3.037-1.375,6.513-1.563,9.856-1.941c-0.379,1.453-1.623,2.284-2.527,3.318c-2.796,3.197-5.737,6.266-8.621,9.386
			c-0.116,0.125-0.192,0.305-0.33,0.39c-2.818,1.732-2.881,4.314-2.428,7.21c1.768,11.315,2.474,22.715,2.501,34.161
			c0.017,7.29-0.266,14.564-1.198,21.803c-0.042,0.326,0.047,0.669,0.075,1.004c0.329,2.706-0.528,5.278-0.943,7.893
			c-0.535,3.366-1.442,6.654-2.378,9.93c-1.656,2.147-2.178,4.827-3.281,7.229c-0.911,1.983-2.078,3.75-3.216,5.565
			c0.061,0.955-0.557,1.585-1.135,2.185c-1.215,1.26-2.387,2.571-3.818,3.603c-0.486,0.26-0.947,0.568-1.45,0.797
			c-5.151,4.239-10.27,8.518-15.591,12.547c-1.128-0.149-2.277,0.008-3.399-0.256c-1.084-0.255-1.649-0.842-1.188-1.968
			c2.251-5.493,4.551-10.965,6.99-16.378c0.115-0.254,0.264-0.513,0.403-0.506c-1.709,2.192-3.819,4.197-5.804,6.321
			c-6.353,6.796-12.785,13.518-19.197,20.259c-0.513,0.539-1.133,1.54-1.934,1.024C202.703,271.066,202.293,269.855,202.316,268.585
			z"/>
		<path fill="#3E3E3E" d="M169.503,241.108c1.377,1.013,2.743,2.024,4.472,2.406c2.723,0.602,5.052-0.312,7.242-1.793
			c1.541-1.042,2.953-2.243,4.251-3.643c-8.991,26.358-19.623,51.957-32.827,76.452c-4.585,8.165-9.384,16.196-14.894,23.782
			c-0.158,0.217-0.311,0.437-0.463,0.651c-0.566-0.257-0.281-0.633-0.237-0.921c4.667-30.544,13.586-59.761,27.335-87.466
			C165.976,247.363,167.53,244.121,169.503,241.108z"/>
		<path fill="#ECECEC" d="M272.828,128.22c-9.911,7.538-21.072,11.843-33.477,12.901c-2.395,0.204-4.795,0.181-7.089-0.664
			c-2.928-1.078-3.754-3.146-2.352-5.729c0.698-0.83,1.118-1.815,1.559-2.79c1.287-2.223,3.323-3.747,5.22-5.354
			c2.739-2.321,5.432-4.694,8.152-7.031c6.631-5.977,14.017-5.186,21.653-2.456c-0.35-0.53-0.691-1.107-1.064-1.666
			c-0.38-0.569-0.764-1.137-1.106-1.729c-0.33-0.57-0.866-1.105-0.522-1.871c1.12-0.765,1.542,0.414,2.126,0.859
			c2.429,1.851,4.837,3.72,7.589,5.084c1.307,3.013,0.981,6.089,0.347,9.175C273.743,127.542,273.324,127.919,272.828,128.22z"/>
		<path fill="#E7341B" d="M202.316,268.585c0.509,1.006,1.017,2.013,1.618,3.202c9.07-9.554,18.041-19.003,27.011-28.452
			c0.077,0.053,0.153,0.107,0.23,0.16c-2.352,5.54-4.705,11.08-7.057,16.62c-0.178,0.42-0.313,0.864-0.536,1.259
			c-0.488,0.864-0.068,0.993,0.712,1.163c1.181,0.258,2.533-0.341,3.556,0.687c-7.918,5.249-15.158,11.323-21.504,18.379
			c-7.659,8.516-15.109,17.221-22.657,25.837c-0.335,0.382-0.741,0.702-1.114,1.051c1.559-5.528,3.117-11.055,4.676-16.583
			c0.093-0.329,0.215-0.652,0.277-0.987c0.757-4.067,2.593-7.506,5.376-10.625C196.236,276.567,199.196,272.505,202.316,268.585z"/>
		<path fill="#0E0A08" d="M244.465,249.745c1.855-1.825,3.89-3.479,5.38-5.651c7.859,1.077,14.579-1.489,19.718-7.256
			c6.151-6.904,13.527-11.799,21.93-15.344c1.258-0.531,2.576-0.921,3.874-1.354c0.362-0.121,0.751-0.16,1.534-0.32
			c-1.917,2.035-3.581,3.761-5.199,5.528c-4.159,4.543-7.985,9.395-12.558,13.553c-0.673,0.612-1.352,1.27-2.144,1.688
			c-7.449,3.935-11.472,10.521-14.186,18.147c-1.091,3.067-1.848,6.222-2.568,9.39c-0.184,0.811-0.209,1.688-0.823,2.522
			c-2.87-6.435-3.995-12.879-1.448-19.672c-4.633-0.461-9.12-0.443-13.608-0.368C243.824,250.256,244.081,249.993,244.465,249.745z"
			/>
		<path fill="#E7341B" d="M245.292,119.641c-3.25,3.434-7.188,6.087-10.588,9.349c-1.062,1.019-2.223,1.95-2.994,3.24
			c-0.422,0.741-0.582,1.7-1.613,1.934c0.14-0.61-0.292-0.774-0.729-0.933c-4.49-1.634-8.662-3.854-12.448-6.78
			c2.318-4.075,5.731-7.194,9.13-10.301c2.637-2.41,5.328-4.78,8.5-6.505c0.975,0.708,1.067,1.959,1.751,2.854
			c0.45,0.589,0.901,1.166,1.45,1.667c1.137,1.44,2.733,2.208,4.337,2.964C243.076,118.07,244.648,118.265,245.292,119.641z"/>
		<path fill="#12130D" d="M237.281,114.294c-1.441-1.238-2.162-2.899-2.731-4.649c3.676-2.462,7.607-4.357,11.994-5.123
			c3.904-0.681,7.709-0.441,11.216,1.668c0.89,0.91,1.906,1.644,3.067,2.172c1.423,0.786,1.927,2.361,2.975,3.468
			c1.156,1.947,2.313,3.893,3.564,6c-7.731-2.792-15.224-4.091-22.075,1.811c-1.188-0.714-2.489-1.242-3.551-2.162
			C240.334,116.305,238.735,115.402,237.281,114.294z"/>
		<path fill="#0E0A08" d="M256.343,231.3c-0.274-0.101-0.517-0.201-0.388-0.59c1.807-5.456,2.72-11.1,3.51-16.769
			c0.022-0.161,0.131-0.31,0.199-0.464c4.176-0.427,7.952-2.001,11.457-4.204c7.875-4.951,16.673-6.551,25.731-7.247
			c1.039-0.08,2.109-0.132,3.388,0.283c-3.142,1.232-5.739,2.949-8.397,4.554c-2.992,1.806-6.105,3.227-9.552,4.025
			c-4.348,1.006-8.05,3.416-11.544,6.108C265.348,221.156,260.67,226.054,256.343,231.3z"/>
		<path fill="#606060" d="M272.828,128.22c1.479-2.828,1.251-5.809,0.817-8.817c-0.077-0.535-0.517-1.055-0.126-1.629
			c9.175,1.378,18.355,2.725,27.523,4.148c3.567,0.554,7.061,1.43,9.876,3.896c0.594,0.521,1.682,0.922,1.159,2.116
			c-0.524,0.038-1.023-0.057-1.496-0.285c-3.748-1.117-7.621-1.21-11.479-1.33c-8.083-0.251-16.135,0.139-24.135,1.376
			C274.244,127.807,273.54,128.042,272.828,128.22z"/>
		<path fill="#535251" d="M244.465,249.745c-0.058,0.285-0.352,0.544-0.099,0.865c-0.295,0.207-0.609,0.147-0.925,0.069
			C243.648,250.22,243.988,249.907,244.465,249.745z"/>
		<path fill="#ECECEC" d="M206.736,185.143c4.741-6.517,10.69-11.761,17.192-16.46c0.472,0.587,0.338,1.185,0.377,1.732
			c0.722,10.285-1.548,19.91-6.297,29.023c-4.144,7.951-8.911,15.534-13.529,23.205c-0.379,0.63-0.706,1.293-1.057,1.94
			c-0.174,1.051-0.986,1.698-1.573,2.488c-2.24,3.506-4.471,7.017-6.727,10.513c-0.618,0.957-1.275,1.895-1.98,2.789
			c-0.616,0.781-1.134,2.098-2.219,1.862c-1.231-0.267-1.344-1.716-1.562-2.814c-0.705-3.564-0.515-7.156-0.105-10.729
			c1.483-12.925,5.663-24.947,12.269-36.136c0.49-0.831,1.09-1.597,1.638-2.393C204.567,188.641,205.744,186.957,206.736,185.143z"
			/>
		<path fill="#ECECEC" d="M177.465,287.985c-1.167,1.118-2.009,0.718-2.671-0.566c-2.13-4.129,0.847-10.653,5.382-11.792
			c1.392-0.349,1.986,0.169,1.769,1.773c-0.402,2.969-1.54,5.703-2.91,8.346c-0.039,0.066-0.078,0.131-0.115,0.198
			c-0.442,0.618-0.885,1.234-1.307,1.866C177.564,287.869,177.514,287.927,177.465,287.985z"/>
		<path fill="#EBEBEB" d="M197.067,255.783c-2.694-1.922-2.46-4.323,0.622-5.681c1.509-0.665,3.293-1.431,4.631-0.026
			c1.312,1.377,0.556,3.158-0.133,4.655C201.187,256.905,199.151,257.27,197.067,255.783z"/>
		<path fill="#EBEBEB" d="M184.097,254.164c0.579-1.92,3.88-4.135,5.8-3.912c0.948,0.11,1.182,0.747,1.228,1.551
			c0.157,2.767-2.24,4.599-5.134,3.923C185.311,255.264,184.627,254.807,184.097,254.164z"/>
		<path fill="#EBEBEB" d="M190.794,271.586c-1.042,1.445-2.278,1.711-3.441,0.74c-1.015-0.849-0.987-1.975,0.142-3.258
			c0.872-0.991,1.925-1.754,3.192-2.172c0.944-0.312,1.389,0.056,1.386,1.052C192.071,268.911,191.501,270.606,190.794,271.586z"/>
		<path fill="#E9E9E9" d="M179.423,266.671c1.113-0.944,2.378-1.251,3.793-0.888c0.794,0.204,1.183,0.664,0.81,1.494
			c-0.613,1.364-3.859,2.594-5.228,2.011c-0.427-0.182-0.612-0.469-0.54-0.924c0.038-0.066,0.076-0.133,0.113-0.2
			c0.291-0.447,0.6-0.881,0.905-1.319C179.324,266.788,179.373,266.729,179.423,266.671z"/>
		<path fill="#11120E" d="M201.849,227.071c0.524-0.829,1.049-1.658,1.573-2.488c0.431-0.343,0.565-0.995,1.64-1.278
			C204.018,224.903,202.956,226.004,201.849,227.071z"/>
		<path fill="#F9F9F8" d="M206.736,185.143c-0.765,1.977-1.947,3.656-3.573,5.02C204.199,188.379,205.391,186.706,206.736,185.143z"
			/>
		<path fill="#090A04" d="M192.98,241.344c0.897-1.262,1.793-2.524,2.69-3.787c0.034,0.022,0.069,0.043,0.103,0.065
			c-0.897,1.263-1.795,2.526-2.692,3.789C193.048,241.388,193.014,241.366,192.98,241.344z"/>
		<path fill="#F8F8F7" d="M184.097,254.164c0.859,0.244,1.511,0.739,1.894,1.562C185.09,255.532,184.268,255.243,184.097,254.164z"
			/>
		<path fill="#0E0F0C" d="M179.187,285.891c0.202,1.13-0.756,1.646-1.276,2.392c-0.01,0.015-0.109-0.008-0.141-0.039
			c-0.038-0.036-0.048-0.101-0.07-0.153C177.808,287.095,178.379,286.413,179.187,285.891z"/>
		<path fill="#F0F7FA" d="M230.097,134.164c0.538-0.645,1.075-1.289,1.613-1.934c-0.19,1.128-0.757,1.984-1.8,2.497
			C229.972,134.54,230.035,134.352,230.097,134.164z"/>
		<path fill="#636360" d="M179.187,285.891c-0.496,0.733-0.992,1.467-1.487,2.2c-0.087-0.017-0.165-0.052-0.235-0.106l-0.094,0.005
			l-0.036-0.087c0.426-0.822,0.964-1.565,1.59-2.246l0.087,0.004l0.023,0.084C179.088,285.791,179.139,285.839,179.187,285.891z"/>
		<path fill="#030400" d="M178.098,268.212c-0.273-0.894,0.406-1.324,0.901-1.842c0.01-0.011,0.097,0.028,0.125,0.063
			c0.032,0.039,0.038,0.099,0.055,0.151C179.158,267.351,178.735,267.852,178.098,268.212z"/>
		<path fill="#72726F" d="M178.098,268.212c0.36-0.543,0.721-1.086,1.081-1.629c0.082,0.028,0.163,0.057,0.244,0.088l0.091-0.001
			l0.029,0.086c-0.29,0.628-0.725,1.156-1.156,1.687l-0.095,0.01l-0.034-0.089C178.2,268.318,178.147,268.267,178.098,268.212z"/>
		<path fill="#FBB467" d="M248.45,127.236c-1.25-0.724-1.734-1.812-0.825-3.312c0.145-0.239,0.169-0.553,0.317-0.79
			c2.59-4.137,2.386-4.184,6.669-3.553c1.58,0.233,3.118,0.583,4.646,1.056c1.274,0.394,1.919,1.172,1.927,2.464
			c0.01,1.535,0.555,3.142-1.145,4.331C256.106,130.18,252.654,130.208,248.45,127.236z"/>
		<path fill="#03100E" d="M237.281,114.294c1.798,0.626,3.297,1.669,4.459,3.185C240.076,116.667,238.494,115.739,237.281,114.294z"
			/>
		<path fill="#13140E" d="M277.662,124.495c-1.184-0.565-0.891-1.042-0.321-1.212c1.965-0.586,3.949-0.531,5.863,0.238
			c0.669,0.269,0.519,0.707-0.072,0.913C281.178,125.116,279.226,125.046,277.662,124.495z"/>
		<path fill="#F7F8F7" d="M178.925,285.658c-0.431,0.818-0.926,1.592-1.59,2.246C177.536,286.923,178.072,286.178,178.925,285.658z"
			/>
		<path fill="#FAFAF9" d="M178.387,268.444c0.2-0.689,0.643-1.212,1.156-1.687C179.471,267.534,179.045,268.069,178.387,268.444z"/>
		<path fill="#030206" d="M254.039,121.519c2.178-0.481,4.064,0.326,4.647,1.989c0.549,1.568-0.268,3.312-1.903,4.059
			c-1.647,0.752-4.469-0.026-5.346-1.453c-0.534-0.869-0.454-1.716-0.003-2.574c0.211-0.235,0.494-0.299,0.778-0.242
			C253.702,123.601,254.174,122.875,254.039,121.519z"/>
		<path fill="#F8F8F7" d="M254.039,121.519c0.412,0.574,0.788,1.21,0.223,1.839c-0.847,0.943-1.864,0.421-2.829,0.182
			c-0.545-0.621-1.094-1.328-0.321-2.055C252.03,120.622,253.07,120.814,254.039,121.519z"/>
	</g>
</g>
</svg>
