<?xml version="1.0" encoding="utf-8"?>
<!-- Generator: Adobe Illustrator 17.0.0, SVG Export Plug-In . SVG Version: 6.00 Build 0)  -->
<!DOCTYPE svg PUBLIC "-//W3C//DTD SVG 1.1//EN" "http://www.w3.org/Graphics/SVG/1.1/DTD/svg11.dtd">
<svg version="1.1" id="Layer_1" xmlns="http://www.w3.org/2000/svg" xmlns:xlink="http://www.w3.org/1999/xlink" x="0px" y="0px"
	 width="512px" height="512px" viewBox="0 0 512 512" enable-background="new 0 0 512 512" xml:space="preserve">
<g>
	<g>
		<path fill="#2D333B" d="M256,31C131.747,31,31,131.747,31,256s100.747,225,225,225s225-100.747,225-225S380.253,31,256,31z"/>
	</g>
	<g>
		<path fill="#FFFFFF" d="M244.759,401.36c-6.06-2.492-8.272-7.094-8.16-13.518c0.227-13.016,0.008-26.039,0.164-39.057
			c0.019-1.597,0.801-3.575,1.913-4.704c6.05-6.149,12.314-12.088,19.164-18.739c0,2.082,0,3.279,0,4.476
			c0,19.415-0.15,38.832,0.084,58.245c0.079,6.533-2.151,11.013-8.36,13.297C247.961,401.36,246.36,401.36,244.759,401.36z"/>
		<path fill="#FFFFFF" d="M270.148,401.36c-6.225-2.273-8.432-6.78-8.365-13.294c0.213-20.551,0.079-41.106,0.079-61.801
			c0.433,0.059,0.823-0.009,0.991,0.153c6.336,6.095,12.69,12.173,18.922,18.374c0.762,0.759,1.197,2.19,1.204,3.313
			c0.08,13.818,0.007,27.637,0.071,41.455c0.027,5.881-2.868,9.604-8.099,11.799C273.35,401.36,271.749,401.36,270.148,401.36z"/>
		<path fill="#FFFFFF" d="M259.845,319.861c-9.543,9.249-18.783,18.203-28.46,27.583c-1.201-11.933-2.771-23.156,0.498-34.427
			c5.291-18.244,5.253-36.992,4.703-55.745c-0.038-1.292-1.093-2.934-2.175-3.754c-7.737-5.871-15.665-11.49-23.384-17.383
			c-1.83-1.397-3.53-3.315-4.551-5.362c-4.943-9.906-9.648-19.932-14.407-29.929c-2.162-4.541-1.13-8.43,2.646-10.273
			c3.8-1.855,7.43-0.277,9.654,4.33c4.416,9.149,8.716,18.355,13.204,27.469c0.768,1.56,2.018,3.054,3.403,4.109
			c6.269,4.781,12.625,9.451,19.054,14.014c1.197,0.85,2.869,1.424,4.331,1.443c9.487,0.126,18.978,0.133,28.465-0.005
			c1.576-0.023,3.33-0.652,4.669-1.516c3.066-1.981,5.746-4.595,8.902-6.392c9.344-5.323,15.306-13.156,19.101-23.135
			c2.383-6.268,5.882-12.106,8.658-18.237c0.39-0.861-0.162-2.542-0.828-3.429c-9.948-13.253-19.989-26.435-30.004-39.638
			c-0.754-0.994-1.468-2.02-2.201-3.031c0.213-0.314,0.425-0.627,0.638-0.941c0.807,0.519,1.837,0.866,2.388,1.582
			c6.341,8.243,12.609,16.542,18.897,24.826c4.076,5.371,8.069,10.808,12.297,16.056c0.809,1.004,2.532,1.757,3.85,1.784
			c5.605,0.115,8.978,4.709,6.617,9.841c-5.009,10.888-10.224,21.683-15.519,32.435c-0.762,1.548-2.287,2.845-3.716,3.918
			c-7.036,5.284-14.119,10.507-21.278,15.623c-1.674,1.196-2.32,2.456-2.3,4.513c0.102,10.174-0.418,20.378,0.203,30.515
			c0.444,7.24,1.88,14.511,3.698,21.555c3.286,12.734,3.606,25.464,1.226,38.975C278.721,338.134,269.447,329.157,259.845,319.861z"
			/>
		<path fill="#97C93D" d="M286.947,285.667c0-7.616,0-14.997,0-22.654c49.231,0,98.416,0,147.843,0c0,7.468,0,14.941,0,22.654
			C385.52,285.667,336.332,285.667,286.947,285.667z"/>
		<path fill="#97C93D" d="M232.676,285.708c-49.353,0-98.452,0-147.773,0c0-7.665,0-15.134,0-22.787c49.259,0,98.374,0,147.773,0
			C232.676,270.387,232.676,277.857,232.676,285.708z"/>
		<path fill="#FFFFFF" d="M259.904,198.668c10.551,0.008,19.11,8.562,19.165,19.152c0.054,10.455-8.626,19.222-19.091,19.283
			c-10.614,0.062-19.434-8.774-19.343-19.379C240.724,207.169,249.328,198.66,259.904,198.668z"/>
		<path fill="#EA0B8C" d="M172.322,225.027c-0.079,1.14-0.222,2.28-0.226,3.42c-0.022,7.202-0.04,14.404,0.001,21.605
			c0.015,2.649-0.465,5.057-3.659,5.075c-3.217,0.018-3.725-2.467-3.728-5.063c-0.013-12.689-0.015-25.378-0.02-38.067
			c0-1.121,0-2.243,0-3.364c-0.414-0.03-0.828-0.059-1.242-0.089c-0.318,4.647-0.566,9.3-0.989,13.937
			c-0.174,1.907,1.433,5.075-1.948,5.219c-3.398,0.144-2.376-3.176-2.297-5.014c0.22-5.107,0.383-10.304,1.483-15.262
			c1.363-6.144,4.06-7.774,10.254-7.78c2.058-0.002,4.115-0.007,6.173-0.008c5.425-0.004,8.404,1.578,9.492,6.923
			c1.238,6.079,1.374,12.398,1.714,18.628c0.046,0.834-1.515,1.756-2.332,2.637c-0.666-1.01-1.816-1.975-1.916-3.039
			c-0.448-4.762-0.574-9.553-0.88-14.33c-0.049-0.756-0.429-1.49-1.135-2.237c-0.054,1.129-0.153,2.259-0.154,3.388
			c-0.009,12.232-0.002,24.463,0,36.695c0,0.686-0.002,1.372,0.003,2.058c0.019,2.561-0.761,4.734-3.68,4.782
			c-2.942,0.049-3.77-2.113-3.775-4.676c-0.012-7.316,0.002-14.632-0.015-21.948c-0.003-1.156-0.115-2.312-0.176-3.468
			C172.955,225.043,172.639,225.035,172.322,225.027z"/>
		<path fill="#EA0B8C" d="M355.005,208.63c0,4.553,0,9.107,0,13.66c0,8.691,0,17.383-0.001,26.074c0,0.801,0.027,1.603-0.019,2.401
			c-0.137,2.395-0.918,4.43-3.726,4.38c-2.736-0.049-3.634-1.935-3.63-4.427c0.01-7.433,0.014-14.867-0.007-22.3
			c-0.003-1.136-0.152-2.271-0.233-3.407c-0.307,0.011-0.614,0.022-0.921,0.033c-0.071,1.046-0.201,2.093-0.203,3.139
			c-0.015,6.747-0.004,13.494,0.003,20.242c0.005,4.862-1.096,6.818-3.824,6.772c-2.612-0.045-3.639-1.893-3.64-6.577
			c-0.002-13.487-0.001-26.973-0.001-40.46c-0.346-0.036-0.693-0.071-1.039-0.107c-0.37,3.724-0.814,7.444-1.081,11.175
			c-0.147,2.046,0.194,4.139-0.066,6.161c-0.112,0.874-1.189,1.624-1.828,2.43c-0.825-0.741-2.295-1.42-2.374-2.234
			c-0.669-6.865-0.598-13.723,2.016-20.259c1.549-3.873,4.32-6.027,8.751-5.724c2.618,0.179,5.264,0.148,7.887,0.015
			c3.647-0.184,6.18,1.423,7.737,4.579c3.437,6.968,2.973,14.436,2.501,21.857c-0.04,0.634-1.351,1.187-2.072,1.778
			c-0.701-0.858-1.934-1.67-2.012-2.581c-0.362-4.201-0.348-8.433-0.588-12.647c-0.075-1.325-0.518-2.63-0.792-3.944
			C355.563,208.65,355.284,208.64,355.005,208.63z"/>
		<path fill="#EA0B8C" d="M389.728,208.309c0,7.369,0,14.738,0,22.106c0,6.513-0.018,13.026,0.005,19.539
			c0.009,2.581-0.301,5.118-3.546,5.173c-3.506,0.059-3.742-2.641-3.74-5.32c0.007-7.199,0.004-14.397-0.025-21.596
			c-0.004-1.025-0.173-2.05-0.265-3.075c-0.306,0.02-0.611,0.041-0.917,0.061c-0.054,1.165-0.15,2.331-0.154,3.496
			c-0.025,7.427,0.023,14.855-0.072,22.281c-0.031,2.425-1.118,4.341-3.907,4.165c-2.521-0.159-3.431-1.934-3.423-4.284
			c0.002-0.8,0.001-1.6,0.002-2.4c0.002-12.341,0.004-24.681,0.005-37.022c0-1.07,0-2.14,0-3.211
			c-0.424-0.026-0.848-0.053-1.272-0.079c-0.32,4.558-0.666,9.115-0.942,13.676c-0.076,1.249,0.341,2.594,0.004,3.739
			c-0.262,0.889-1.312,2.084-2.074,2.131c-0.729,0.045-2.164-1.174-2.215-1.911c-0.506-7.311-0.73-14.65,2.553-21.499
			c1.505-3.14,4.03-4.825,7.69-4.662c2.851,0.127,5.716,0.119,8.568,0.002c3.816-0.157,6.303,1.684,7.839,4.974
			c3.169,6.785,2.74,14.023,2.383,21.205c-0.036,0.72-1.446,1.371-2.219,2.054c-0.715-0.988-1.96-1.931-2.048-2.972
			c-0.317-3.743-0.139-7.526-0.36-11.281c-0.107-1.822-0.682-3.616-1.046-5.423C390.278,208.221,390.003,208.265,389.728,208.309z"
			/>
		<path fill="#EA0B8C" d="M146.016,208.203c0,8.516,0,17.032,0,25.548c0,5.6-0.023,11.2,0.009,16.8
			c0.014,2.457-0.727,4.451-3.465,4.582c-2.992,0.143-3.883-1.993-3.899-4.537c-0.046-7.314-0.007-14.629-0.025-21.943
			c-0.003-1.151-0.135-2.301-0.208-3.452c-0.307-0.004-0.614-0.008-0.921-0.012c-0.082,1.156-0.23,2.312-0.234,3.468
			c-0.022,7.2-0.022,14.4-0.006,21.601c0.005,2.498-0.481,4.814-3.499,4.885c-3.223,0.076-3.783-2.28-3.78-4.945
			c0.019-12.915,0.007-25.829,0.006-38.744c0-1.068,0-2.135,0-3.203c-0.447-0.021-0.894-0.041-1.341-0.062
			c-0.311,4.777-0.612,9.554-0.939,14.33c-0.135,1.976,1.205,5.056-2.045,5.179c-3.313,0.125-2.42-3.104-2.32-5.011
			c0.267-5.106,0.415-10.297,1.489-15.264c1.296-5.996,4.17-7.766,10.29-7.787c2.171-0.008,4.354,0.149,6.512-0.021
			c4.596-0.363,7.384,1.945,8.948,5.943c2.519,6.44,2.433,13.203,1.971,19.942c-0.057,0.828-1.524,1.56-2.337,2.337
			c-0.699-0.999-1.908-1.949-2.009-3.004c-0.465-4.869-0.595-9.77-0.919-14.654c-0.047-0.705-0.491-1.383-0.751-2.074
			C146.367,208.137,146.192,208.17,146.016,208.203z"/>
		<path fill="#EA0B8C" d="M415.78,225.197c0,1.181,0,2.363,0,3.544c0.003,7.088-0.005,14.176,0.013,21.264
			c0.007,2.588-0.348,5.083-3.604,5.126c-3.273,0.043-3.694-2.443-3.694-5.038c0-12.575-0.003-25.151-0.005-37.726
			c0-1.336,0-2.673,0-4.009c-0.42-0.03-0.841-0.06-1.261-0.089c-0.343,4.739-0.655,9.48-1.046,14.214
			c-0.16,1.941,1.377,5.058-1.957,5.216c-3.378,0.161-2.41-3.13-2.325-4.992c0.232-5.109,0.389-10.304,1.467-15.271
			c1.313-6.048,4.162-7.796,10.273-7.792c2.401,0.002,4.807,0.1,7.201-0.022c3.511-0.178,5.999,1.397,7.497,4.399
			c3.456,6.924,3.257,14.375,2.681,21.806c-0.056,0.723-1.476,1.34-2.263,2.006c-0.699-0.997-1.91-1.946-2.01-3
			c-0.451-4.758-0.556-9.548-0.866-14.321c-0.054-0.831-0.49-1.637-1.312-2.369c0,6.907,0,13.815,0,20.722
			c0,6.974-0.03,13.947,0.017,20.921c0.018,2.734-0.31,5.383-3.733,5.341c-3.417-0.042-3.696-2.8-3.698-5.459
			c-0.004-6.974,0.002-13.947,0.004-20.921c0-1.193,0-2.385,0-3.578C416.7,225.178,416.24,225.187,415.78,225.197z"/>
		<path fill="#EA0B8C" d="M102.71,225.154c-0.053,1.17-0.15,2.339-0.153,3.509c-0.019,7.427,0.037,14.855-0.052,22.282
			c-0.029,2.419-1.112,4.345-3.892,4.198c-2.514-0.133-3.469-1.877-3.468-4.241c0-0.571-0.006-1.143-0.006-1.714
			c-0.001-12.684-0.002-25.368-0.003-38.051c0-1.004,0-2.007,0-3.011c-0.352-0.036-0.704-0.072-1.057-0.108
			c-0.378,3.737-0.837,7.469-1.103,11.214c-0.153,2.158,0.21,4.365-0.076,6.494c-0.107,0.792-1.321,1.811-2.183,1.991
			c-0.55,0.115-1.946-1.075-2.001-1.758c-0.618-7.661-0.851-15.333,2.922-22.405c1.456-2.73,3.879-4.042,7.075-3.929
			c2.853,0.1,5.718,0.128,8.568-0.014c3.795-0.19,6.37,1.521,7.944,4.812c3.29,6.879,2.812,14.235,2.414,21.531
			c-0.036,0.663-1.52,1.248-2.332,1.869c-0.643-0.923-1.769-1.808-1.846-2.776c-0.306-3.861-0.202-7.752-0.425-11.622
			c-0.099-1.719-0.613-3.415-0.939-5.121c-0.291,0.036-0.582,0.072-0.874,0.108c0,1.308,0,2.616,0,3.924
			c-0.001,11.998-0.003,23.997-0.004,35.995c0,0.8,0.014,1.6-0.001,2.4c-0.047,2.436-0.861,4.424-3.64,4.426
			c-2.759,0.002-3.641-1.915-3.641-4.394c0-7.313-0.004-14.626-0.006-21.939c0-1.208,0-2.415,0-3.623
			C103.525,225.183,103.117,225.169,102.71,225.154z"/>
		<path fill="#EA0B8C" d="M245.487,199.644c-4.722,4.553-7.649,9.15-8.421,14.96c-0.754,5.677,0.489,10.801,3.393,15.711
			c0.995,1.682,1.176,3.846,1.336,5.91c-4.754-2.137-8.309-4.457-7.545-10.57c0.716-5.729,0.153-11.618-0.598-17.592
			c-0.414,2.077-1.054,4.139-1.19,6.234c-0.222,3.41,0.058,6.858-0.245,10.257c-0.103,1.151-1.33,2.201-2.044,3.298
			c-0.816-1.025-2.36-2.075-2.327-3.073c0.188-5.675,0.255-11.434,1.321-16.98c1.211-6.3,4.225-8.152,10.681-8.155
			C241.439,199.644,243.027,199.644,245.487,199.644z"/>
		<path fill="#EA0B8C" d="M274.962,199.746c2.973,0,6.009-0.503,8.758,0.17c1.957,0.479,4.139,2.19,5.156,3.962
			c3.614,6.296,3.43,13.378,2.955,20.33c-0.083,1.217-2.086,2.302-3.898,4.164c-0.487-7.48-0.902-13.84-1.316-20.2
			c-0.441,0.009-0.882,0.019-1.323,0.028c0,3.496,0,6.993,0,10.489c0,1.598,0,3.196,0.001,4.794
			c0.002,7.419,0.002,7.419-7.564,11.593c0.404-1.689,0.365-3.097,1.018-4.009c6.884-9.611,4.868-23.23-3.586-30.456
			C275.035,200.501,275.063,200.211,274.962,199.746z"/>
		<path fill="#EA0B8C" d="M320.148,222.323c0,9.731,0.058,19.464-0.045,29.194c-0.023,2.168-1.369,3.679-3.704,3.647
			c-2.337-0.032-3.552-1.575-3.602-3.753c-0.116-5.006-0.906-10.217,0.194-14.97c1.159-5.007,4.199-9.579,6.417-14.341
			C319.655,222.174,319.901,222.249,320.148,222.323z"/>
		<path fill="#EA0B8C" d="M199.562,226.754c5.735,7.581,8.962,15.416,7.411,24.671c-0.362,2.157-1.34,3.713-3.66,3.748
			c-2.323,0.035-3.675-1.477-3.705-3.645C199.493,243.398,199.562,235.265,199.562,226.754z"/>
		<path fill="#EA0B8C" d="M196.828,176.334c-0.016,3.758-3.052,6.761-6.74,6.664c-3.579-0.094-6.432-3.002-6.477-6.602
			c-0.048-3.768,2.886-6.822,6.582-6.852C193.862,169.514,196.843,172.565,196.828,176.334z"/>
		<path fill="#EA0B8C" d="M322.872,176.075c0.108-3.728,3.255-6.7,6.907-6.525c3.685,0.176,6.497,3.332,6.329,7.104
			c-0.157,3.537-3.236,6.441-6.736,6.354C325.649,182.915,322.763,179.837,322.872,176.075z"/>
		<path fill="#EA0B8C" d="M388.316,191.27c0.009,3.785-2.961,6.751-6.694,6.686c-3.589-0.063-6.474-2.947-6.535-6.534
			c-0.065-3.779,2.823-6.806,6.547-6.863C385.336,184.503,388.307,187.487,388.316,191.27z"/>
		<path fill="#EA0B8C" d="M155.425,169.552c3.671,0.022,6.705,3.148,6.634,6.837c-0.071,3.71-3.207,6.728-6.863,6.606
			c-3.501-0.117-6.447-3.149-6.48-6.668C148.681,172.666,151.786,169.53,155.425,169.552z"/>
		<path fill="#EA0B8C" d="M266.582,176.38c-0.047,3.618-3.314,6.75-6.904,6.618c-3.517-0.129-6.516-3.174-6.545-6.644
			c-0.03-3.629,3.105-6.793,6.737-6.798C263.47,169.55,266.629,172.761,266.582,176.38z"/>
		<path fill="#EA0B8C" d="M405.851,176.278c0.005,3.579-3.249,6.789-6.819,6.727c-3.479-0.061-6.536-3.08-6.641-6.559
			c-0.107-3.568,3.049-6.847,6.644-6.903C402.612,169.487,405.846,172.683,405.851,176.278z"/>
		<path fill="#EA0B8C" d="M131.379,191.194c0.02-3.729,3.086-6.739,6.766-6.641c3.57,0.095,6.452,3.019,6.497,6.59
			c0.046,3.728-2.934,6.803-6.618,6.829C134.334,197.997,131.358,194.961,131.379,191.194z"/>
		<path fill="#EA0B8C" d="M172.747,197.942c-3.706-0.041-6.726-3.154-6.629-6.836c0.092-3.528,3.077-6.484,6.603-6.54
			c3.665-0.058,6.786,3.007,6.797,6.676C179.529,194.907,176.421,197.983,172.747,197.942z"/>
		<path fill="#EA0B8C" d="M120.468,169.555c3.599-0.079,6.813,3.063,6.838,6.687c0.026,3.637-3.123,6.78-6.762,6.751
			c-3.499-0.028-6.546-2.998-6.673-6.506C113.741,172.895,116.844,169.634,120.468,169.555z"/>
		<path fill="#EA0B8C" d="M347.254,184.57c3.675,0.216,6.575,3.5,6.304,7.14c-0.278,3.739-3.502,6.513-7.202,6.196
			c-3.565-0.305-6.324-3.41-6.16-6.931C340.368,187.304,343.617,184.356,347.254,184.57z"/>
		<path fill="#EA0B8C" d="M364.342,182.998c-3.669,0.022-6.724-3.07-6.693-6.773c0.032-3.696,3.16-6.768,6.799-6.678
			c3.503,0.087,6.478,3.091,6.546,6.608C371.064,179.788,367.963,182.977,364.342,182.998z"/>
		<path fill="#EA0B8C" d="M249.052,191.243c0.012,3.792-2.934,6.754-6.676,6.712c-3.569-0.04-6.482-2.929-6.564-6.51
			c-0.086-3.75,2.826-6.821,6.531-6.886C246.041,184.494,249.04,187.481,249.052,191.243z"/>
		<path fill="#EA0B8C" d="M231.712,176.274c-0.001,3.667-3.124,6.774-6.755,6.719c-3.7-0.055-6.636-3.146-6.545-6.889
			c0.089-3.604,2.98-6.497,6.546-6.55C228.582,169.5,231.713,172.616,231.712,176.274z"/>
		<path fill="#EA0B8C" d="M270.658,191.202c0.02-3.766,3.032-6.733,6.743-6.642c3.588,0.088,6.444,2.978,6.498,6.575
			c0.056,3.739-2.898,6.792-6.602,6.823C273.575,197.989,270.638,195.001,270.658,191.202z"/>
		<path fill="#EA0B8C" d="M416.652,197.953c-3.733,0.071-6.723-2.885-6.735-6.659c-0.012-3.759,2.968-6.767,6.671-6.734
			c3.553,0.032,6.492,2.924,6.594,6.49C423.288,194.764,420.338,197.883,416.652,197.953z"/>
		<path fill="#EA0B8C" d="M109.79,191.288c-0.008,3.769-3.003,6.736-6.729,6.664c-3.566-0.069-6.464-2.976-6.532-6.554
			c-0.071-3.714,2.906-6.803,6.59-6.839C106.836,184.524,109.798,187.512,109.79,191.288z"/>
		<path fill="#EA0B8C" d="M295.652,183.111c-4.192-0.41-6.483-1.927-7.374-4.987c-0.892-3.064,0.168-5.574,2.777-7.421
			c1.553-1.099,2.838-1.112,3.993,0.659c1.053,1.614,2.442,3.014,3.436,4.658c0.744,1.231,1.921,3.369,1.464,3.932
			C298.698,181.489,296.686,182.408,295.652,183.111z"/>
		<path fill="#EA0B8C" d="M311.322,237.432c0,5.188,0.251,9.729-0.159,14.21c-0.116,1.272-2.123,3.25-3.327,3.298
			c-1.204,0.048-3.273-1.733-3.572-3.033c-0.597-2.595-0.488-5.438-0.159-8.116c0.131-1.065,1.531-2.067,2.513-2.911
			C307.896,239.783,309.333,238.872,311.322,237.432z"/>
		<path fill="#EA0B8C" d="M210.656,199.851c5.29-0.225,8.029,1.047,9.274,5.336c1.53,5.268,2.137,10.805,2.413,16.434
			C217.874,214.725,215.465,206.961,210.656,199.851z"/>
		<path fill="#EA0B8C" d="M208.4,239.156c2.485,1.793,4.58,3.109,6.436,4.701c1.746,1.498,1.225,9.044-0.554,10.519
			c-2.229,1.849-5.615,0.545-5.817-2.497C208.199,247.856,208.4,243.802,208.4,239.156z"/>
		<path fill="#EA0B8C" d="M203.162,186.432c1.592-1.741,3.908-2.42,6.648-1.439c2.738,0.98,4.317,3.024,4.46,5.86
			c0.149,2.964-1.212,5.227-3.931,6.398C207.971,193.682,205.641,190.169,203.162,186.432z"/>
		<path fill="#EA0B8C" d="M326.528,210.126c0,5.358,0.066,10.719-0.098,16.072c-0.017,0.565-1.362,1.445-2.149,1.513
			c-0.59,0.051-1.819-0.953-1.832-1.508C322.32,220.64,321.286,214.853,326.528,210.126z"/>
		<path fill="#EA0B8C" d="M298.241,216.956c-0.876-9.555,1.864-15.351,8.196-17.369
			C303.535,205.738,300.888,211.347,298.241,216.956z"/>
		<path fill="#EA0B8C" d="M193.017,213.744c2.639,3.472,5.101,6.856,4.335,11.199c-0.185,1.051-1.339,1.93-2.047,2.889
			c-0.763-0.807-2.132-1.576-2.184-2.427C192.884,221.531,193.017,217.634,193.017,213.744z"/>
		<path fill="#EA0B8C" d="M307.815,195.968c-2.948-2.73-3.198-4.812-1.02-8.497C310.845,191.217,310.905,191.719,307.815,195.968z"
			/>
		<path fill="#FED401" d="M213.782,125.537c-1.726-0.972-3.7-1.172-5.608-1.365c-3.519-0.357-6.062-0.615-6.826-5.021l-2.866,0.497
			l4.533,26.135c-1.536-0.754-3.387-1.048-5.291-0.717c-4.346,0.754-7.342,4.474-6.68,8.293c0.662,3.819,4.737,6.313,9.083,5.559
			c4.346-0.754,7.342-4.474,6.68-8.293l-3.142-18.111c1.669,0.864,3.552,1.055,5.375,1.24c3.519,0.357,6.062,0.615,6.826,5.021
			l2.866-0.497l-1.16-6.687C217.066,128.668,215.826,126.688,213.782,125.537z M214.709,132.099
			c-1.669-0.864-3.552-1.055-5.375-1.24c-3.519-0.357-6.062-0.615-6.826-5.021l-0.002-0.012c1.669,0.864,3.552,1.055,5.375,1.24
			c3.519,0.357,6.062,0.615,6.826,5.021L214.709,132.099L214.709,132.099z"/>
		<path fill="#FED401" d="M276.248,122.682l-1.219,3.483l1.493,0.522c0.803-2.295,2.19-2.206,4.109-2.084
			c0.994,0.064,2.021,0.129,2.993-0.185l-3.301,9.433c-0.696,1.989,0.579,4.252,2.842,5.044c2.263,0.792,4.671-0.182,5.367-2.171
			c0.696-1.989-0.579-4.252-2.842-5.044c-0.991-0.347-2.011-0.355-2.901-0.087l4.763-13.612l-1.493-0.522
			c-0.803,2.295-2.19,2.206-4.109,2.084c-1.041-0.066-2.117-0.135-3.13,0.232C277.623,120.209,276.781,121.16,276.248,122.682z
			 M277.739,123.21l0.002-0.006c0.803-2.295,2.19-2.206,4.109-2.084c0.994,0.064,2.021,0.129,2.993-0.185l-0.002,0.006
			c-0.803,2.295-2.19,2.206-4.109,2.084C279.738,122.962,278.711,122.896,277.739,123.21L277.739,123.21z"/>
		<path fill="#FED401" d="M308.588,101.413c-1.575-0.571-3.249-0.464-4.867-0.361c-2.985,0.191-5.142,0.328-6.391-3.241
			l-2.322,0.812l7.409,21.171c-1.386-0.416-2.971-0.404-4.513,0.136c-3.52,1.232-5.504,4.751-4.421,7.845s4.827,4.608,8.348,3.376
			c3.52-1.232,5.504-4.751,4.421-7.845l-5.134-14.672c1.512,0.489,3.109,0.387,4.656,0.288c2.985-0.191,5.142-0.328,6.391,3.241
			l2.322-0.812l-1.896-5.417C311.762,103.568,310.453,102.089,308.588,101.413z M310.272,106.757
			c-1.512-0.489-3.109-0.387-4.656-0.288c-2.985,0.191-5.142,0.328-6.391-3.241l-0.003-0.01c1.512,0.489,3.109,0.387,4.656,0.288
			c2.985-0.191,5.142-0.328,6.391,3.241L310.272,106.757L310.272,106.757z"/>
		<path id="XMLID_12_" fill="#FED401" d="M239.838,100.85v21.889c-0.787-0.323-1.654-0.495-2.562-0.495
			c-2.202,0-4.449,0.984-6.164,2.698c-3.197,3.197-3.597,7.999-0.892,10.705c1.165,1.165,2.777,1.806,4.541,1.806
			c2.202,0,4.449-0.984,6.164-2.698c1.494-1.494,2.436-3.386,2.652-5.328c0.031-0.277,0.045-0.552,0.045-0.825h0.001v-16.398h15.139
			v10.535c-0.787-0.323-1.654-0.495-2.562-0.495c-2.202,0-4.449,0.984-6.164,2.698c-3.197,3.197-3.597,7.999-0.892,10.705
			c1.165,1.165,2.777,1.806,4.541,1.806c2.202,0,4.449-0.984,6.164-2.698c1.494-1.494,2.436-3.386,2.651-5.328
			c0.031-0.277,0.045-0.552,0.045-0.825h0.001V100.85H239.838z M258.762,108.419h-15.139v-3.785h15.139V108.419z"/>
	</g>
</g>
</svg>
