<?xml version="1.0" encoding="utf-8"?>
<!-- Generator: Adobe Illustrator 17.0.0, SVG Export Plug-In . SVG Version: 6.00 Build 0)  -->
<!DOCTYPE svg PUBLIC "-//W3C//DTD SVG 1.1//EN" "http://www.w3.org/Graphics/SVG/1.1/DTD/svg11.dtd">
<svg version="1.1" id="Layer_1" xmlns="http://www.w3.org/2000/svg" xmlns:xlink="http://www.w3.org/1999/xlink" x="0px" y="0px"
	 width="512px" height="512px" viewBox="0 0 512 512" enable-background="new 0 0 512 512" xml:space="preserve">
<g>
	<path fill="#26A9E0" d="M256,31C131.747,31,31,131.747,31,256s100.747,225,225,225s225-100.747,225-225S380.253,31,256,31z"/>
	<g>
		<path fill="#FFD059" d="M280.352,390.37h-0.547l-5.481-28.632l-6.196,1.186l5.255,27.446l0,0c-2.732,0-4.946,2.215-4.946,4.946
			v1.362h24.884l0,0c0-3.485-2.824-6.309-6.309-6.309L280.352,390.37L280.352,390.37z"/>
		<path fill="#EC4848" d="M290.502,176.282c0.077,0.203,0.154,0.407,0.231,0.617l-0.47,0.168c-1.507,0.476-3.119,0.736-4.788,0.736
			c-8.804,0-15.947-7.136-15.947-15.94c0-7.57,5.279-13.9,12.351-15.533c-0.806-1.907-1.248-3.995-1.248-6.196
			c0-8.804,7.136-15.94,15.94-15.94c3.708,0,7.122,1.269,9.827,3.393c1.633-7.066,7.963-12.337,15.526-12.337
			c8.804,0,15.94,7.143,15.94,15.947c0,4.374-1.753,8.327-4.605,11.209c-5.65-3.82-4.767,11.531-11.902,12.442
			c-5.748,0.736-9.589,5.348-13.669,8.762C298.374,171.396,309.442,173.772,290.502,176.282z"/>
		<path fill="#FFD059" d="M375.901,155.547l-23.055,11.377l-7.15,3.526c0.554-3.799-16.241-4.956-17.328-8.944
			c-1.058-3.89,13.69-10.241,11.271-13.241C339.64,148.264,359.078,145.032,375.901,155.547z"/>
		<path fill="#EC4848" d="M373.714,179.464c5.888,3.533,6.077,12.007,0.343,15.8c-2.159,1.423-4.605,2.117-7.037,2.117
			c-2.755,0-5.495-0.89-7.745-2.615c-1.346-1.514-15.344,9.624-16.781,8.201c-3.862-3.855-8.278-3.624-12.723-6.764
			c1.549-2.902-1.879-31.375-1.402-34.698l24.478,5.418L373.714,179.464z"/>
		<path fill="#E5E5E4" d="M305.426,353.38c0,0-20.971,10.549-27.211,23.199c-1.465,2.968-5.506,3.501-7.678,1.004
			c-5.176-5.952-11.025-15.646-5.304-24.938v-0.007C276.847,326.582,318.555,329.737,305.426,353.38z"/>
		<g>
			<path fill="#EC4848" d="M145.683,181.749c29.216,0.771,52.278,25.088,51.507,54.304c-0.189,7.199-1.815,14.02-4.584,20.209
				c-7.458-19.347-25.978-33.303-47.995-33.885c-22.017-0.582-41.244,12.379-49.72,31.305c-2.44-6.33-3.701-13.227-3.512-20.426
				C92.151,204.039,116.467,180.978,145.683,181.749z"/>
			<path fill="#EC4848" d="M194.709,253.808c-20.728,0.519-40.095,13.262-48.044,33.808c-7.956,20.538-2.215,43.004,12.758,57.346
				c-6.778,0.168-13.697-0.96-20.412-3.561c-27.26-10.55-40.803-41.203-30.246-68.456c10.55-27.26,41.203-40.803,68.456-30.254
				C183.935,245.291,189.816,249.118,194.709,253.808z"/>
		</g>
		<path fill="#F2F2F2" d="M190.583,253.202c0.099-1.773,1.848-2.984,3.546-2.464c9.225,2.83,37.248,9.143,75.343-3.366
			c38.77-12.73,26.665-55.825,21.26-70.475c-0.077-0.211-0.154-0.414-0.231-0.617c-4.276-11.363-1.248-24.365,8.068-32.153
			c4.08-3.413,9.168-5.748,14.916-6.484c7.136-0.911,14.125,0.939,19.774,4.759c2.397,1.619,4.556,3.589,6.379,5.86
			c2.418,3,4.262,6.512,5.32,10.402c1.086,3.989,1.29,7.984,0.736,11.783c-0.476,3.323-1.528,6.505-3.077,9.407
			c4.444,3.14,8.622,6.645,12.484,10.501l2.243,2.594c0.589,0.68,1.233,1.29,1.928,1.815c10.942,12.351,18.849,27.667,22.312,45.009
			c10.458,52.404-23.664,103.357-76.159,113.605c-13.711,2.677-27.352,2.271-40.194-0.743
			c-35.314-8.257-64.594-36.176-72.641-73.727C190.739,270.248,190.11,261.624,190.583,253.202z"/>
		<path fill="#E5E5E4" d="M381.586,239.775c-3.463-17.342-11.369-32.658-22.312-45.009c-0.694-0.525-1.339-1.135-1.928-1.815
			l-2.243-2.594c-3.862-3.855-8.04-7.36-12.484-10.501c1.549-2.902,2.6-6.084,3.077-9.407c0.554-3.799,0.35-7.795-0.736-11.783
			c-1.058-3.89-2.902-7.402-5.32-10.402c-1.822-2.271-3.982-4.241-6.379-5.86c-5.65-3.82-12.638-5.671-19.774-4.759
			c-1.481,0.19-2.917,0.49-4.304,0.883c2.967,0.85,5.773,2.163,8.308,3.877c2.397,1.619,4.556,3.589,6.379,5.86
			c2.418,3,4.262,6.512,5.32,10.402c1.086,3.989,1.29,7.984,0.736,11.783c-0.053,0.369-0.113,0.737-0.18,1.102
			c-0.99,5.395,0.839,10.882,4.969,14.491c1.585,1.385,3.125,2.824,4.618,4.314l2.243,2.594c0.589,0.68,1.233,1.29,1.928,1.815
			c10.942,12.351,18.849,27.667,22.312,45.009c10.458,52.404-23.664,103.357-76.16,113.605c-3.5,0.684-6.995,1.164-10.474,1.453
			c8.589,0.711,17.402,0.274,26.245-1.453C357.921,343.131,392.043,292.179,381.586,239.775z"/>
		<path fill="#EC4848" d="M304.379,264.47c28.304-22.067,64.248,16.706,39.656,42.845c-0.329,0.349-0.666,0.697-1.011,1.042
			c-16.823,16.823-75.536,26.042-117.061-7.711c0,0,45.563-7.009,61.685-23.132L304.379,264.47z"/>
		<circle fill="#4D4E4E" cx="326.954" cy="162.207" r="5.257"/>
	</g>
</g>
</svg>
