<?xml version="1.0" encoding="utf-8"?>
<!-- Generator: Adobe Illustrator 16.0.0, SVG Export Plug-In . SVG Version: 6.00 Build 0)  -->
<!DOCTYPE svg PUBLIC "-//W3C//DTD SVG 1.1 Tiny//EN" "http://www.w3.org/Graphics/SVG/1.1/DTD/svg11-tiny.dtd">
<svg version="1.1" baseProfile="tiny" id="Layer_1" xmlns="http://www.w3.org/2000/svg" xmlns:xlink="http://www.w3.org/1999/xlink"
	 x="0px" y="0px" width="300px" height="300px" viewBox="0 0 300 300" xml:space="preserve">
<g>
	<circle fill="#EE5A28" cx="150" cy="150" r="131.6"/>
	<g>
		<path fill="#393A39" d="M207.652,146.398c-1.381,0-2.5-1.119-2.5-2.5V131.83c0-1.662-0.274-3.869-1.584-4.943
			c-1.351-1.107-3.38-0.72-3.401-0.716c-0.16,0.032-0.351,0.054-0.515,0.054h-10.82c-1.381,0-2.5-1.119-2.5-2.5s1.119-2.5,2.5-2.5
			h10.593c1.078-0.179,4.455-0.5,7.251,1.745c2.307,1.854,3.477,4.834,3.477,8.86v12.068
			C210.152,145.279,209.033,146.398,207.652,146.398z"/>
		<path fill="#393A39" d="M224.152,144.598h-16.5c-0.828,0-1.5-0.671-1.5-1.5s0.672-1.5,1.5-1.5h16.5c0.828,0,1.5,0.671,1.5,1.5
			S224.98,144.598,224.152,144.598z"/>
		<path fill="#81522C" d="M194.142,201.908c0,3.866-3.134,7-7,7h-70.015c-3.866,0-7-3.134-7-7V60.318c0-3.866,3.134-7,7-7h70.015
			c3.866,0,7,3.134,7,7V201.908z"/>
		<path fill="#936A4A" d="M128.652,69.201c0,0-5,59.516,0,89.758C128.652,158.959,133.152,104.701,128.652,69.201z"/>
		<path fill="#936A4A" d="M175.046,92.46c0,0-3.291,48.81,0,67.81C175.046,160.27,179.755,102.151,175.046,92.46z"/>
		<path fill="#936A4A" d="M151.818,121.796c0,0-3.291,48.81,0,67.81C151.818,189.606,156.527,131.487,151.818,121.796z"/>
		<path fill="#936A4A" d="M159.771,69.304c0,0-1.958,29.042,0,40.347C159.771,109.651,162.573,75.069,159.771,69.304z"/>
		<path fill="#744016" d="M151.946,63.18c0,0-1.958,29.042,0,40.347C151.946,103.527,154.748,68.946,151.946,63.18z"/>
		<path fill="#744016" d="M165.746,87.05c0,0-1.958,29.042,0,40.347C165.746,127.397,168.548,92.815,165.746,87.05z"/>
		<path fill="#744016" d="M184.746,75.718c0,0-1.959,29.042,0,40.347C184.746,116.065,187.547,81.483,184.746,75.718z"/>
		<path fill="#744016" d="M136.673,103.551c0,0-1.958,29.042,0,40.347C136.673,143.898,139.475,109.317,136.673,103.551z"/>
		<path fill="#744016" d="M118.428,75.718c0,0-1.958,29.042,0,40.347C118.428,116.065,121.23,81.483,118.428,75.718z"/>
		<path fill="#744016" d="M158.714,158.959c0,0-1.958,29.042,0,40.347C158.714,199.306,161.516,164.725,158.714,158.959z"/>
		<path fill="#744016" d="M120.543,117.351c0,0-1.958,29.042,0,40.347C120.543,157.698,123.345,123.117,120.543,117.351z"/>
		<path fill="#744016" d="M167.861,140.097c0,0-1.958,29.042,0,40.347C167.861,180.444,170.663,145.862,167.861,140.097z"/>
		<path fill="#936A4A" d="M142.846,80.045c0,0-1.958,29.042,0,40.347C142.846,120.393,145.648,85.811,142.846,80.045z"/>
		<path fill="#936A4A" d="M117.371,155.701c0,0-1.958,29.042,0,40.347C117.371,196.048,120.172,161.467,117.371,155.701z"/>
		<path fill="#936A4A" d="M138.146,158.959c0,0-1.958,29.042,0,40.347C138.146,199.306,140.948,164.725,138.146,158.959z"/>
		<path fill="#936A4A" d="M183.688,155.701c0,0-1.957,29.042,0,40.347C183.688,196.048,186.49,161.467,183.688,155.701z"/>
		<g>
			<path fill="#754218" d="M203.699,239.013l-3.051-34.823l-14.602-11.795h-31.879h-4.069h-31.877l-14.604,11.795l-3.05,34.823
				c0,0-0.562,10.11,7.302,10.11h42.229h4.069h42.23C204.26,249.123,203.699,239.013,203.699,239.013z"/>
			<path fill="#8A5F3B" d="M203.699,245.709l-0.287-3.282c-0.574,2.928-2.242,6.652-7.014,6.652h-42.23h-4.069h-42.229
				c-4.773,0-6.44-3.724-7.015-6.652l-0.287,3.282c0,0-0.562,10.11,7.302,10.11h42.229h4.069h42.23
				C204.26,255.819,203.699,245.709,203.699,245.709z"/>
		</g>
		<g>
			<g>
				<g>
					<g>
						<circle fill="#393A39" cx="133.466" cy="83.354" r="16.866"/>
						<path fill="#1A1B1A" d="M133.466,101.471c-9.99,0-18.117-8.127-18.117-18.117s8.127-18.117,18.117-18.117
							s18.117,8.127,18.117,18.117S143.456,101.471,133.466,101.471z M133.466,67.739c-8.61,0-15.615,7.005-15.615,15.615
							s7.005,15.615,15.615,15.615s15.615-7.005,15.615-15.615S142.076,67.739,133.466,67.739z"/>
					</g>
					<circle fill="#707170" cx="133.466" cy="83.354" r="1.564"/>
					<path fill="#4E504F" d="M145.375,85.281c-0.931,0-1.686-0.755-1.686-1.686c0-3.167-1.459-6.073-4.004-7.971
						c-0.746-0.557-0.9-1.613-0.343-2.36c0.557-0.746,1.613-0.9,2.36-0.343c3.356,2.503,5.36,6.494,5.36,10.674
						C147.061,84.526,146.306,85.281,145.375,85.281z"/>
					<path fill="#4E504F" d="M136.861,74.084c-0.149,0-0.3-0.02-0.451-0.062c-0.859-0.238-1.751-0.358-2.653-0.358
						c-0.931,0-1.686-0.755-1.686-1.686s0.755-1.686,1.686-1.686c1.205,0,2.4,0.162,3.552,0.48c0.897,0.249,1.424,1.177,1.175,2.075
						C138.279,73.594,137.601,74.084,136.861,74.084z"/>
				</g>
				<g>
					<g>
						<circle fill="#393A39" cx="171.966" cy="83.354" r="16.866"/>
						<path fill="#1A1B1A" d="M171.967,101.471c-9.99,0-18.117-8.127-18.117-18.117s8.127-18.117,18.117-18.117
							c9.989,0,18.116,8.127,18.116,18.117S181.956,101.471,171.967,101.471z M171.967,67.739c-8.61,0-15.615,7.005-15.615,15.615
							s7.005,15.615,15.615,15.615c8.609,0,15.614-7.005,15.614-15.615S180.576,67.739,171.967,67.739z"/>
					</g>
					<circle fill="#707170" cx="171.966" cy="83.354" r="1.564"/>
					<path fill="#4E504F" d="M183.875,85.281c-0.932,0-1.687-0.755-1.687-1.686c0-3.167-1.459-6.073-4.003-7.971
						c-0.747-0.557-0.9-1.613-0.344-2.36c0.558-0.747,1.612-0.899,2.359-0.343c3.356,2.503,5.36,6.494,5.36,10.674
						C185.562,84.526,184.807,85.281,183.875,85.281z"/>
					<path fill="#4E504F" d="M175.362,74.084c-0.148,0-0.3-0.02-0.45-0.062c-0.86-0.238-1.753-0.358-2.654-0.358
						c-0.932,0-1.687-0.755-1.687-1.686s0.755-1.686,1.687-1.686c1.205,0,2.4,0.162,3.553,0.48c0.897,0.248,1.424,1.177,1.176,2.075
						C176.779,73.594,176.102,74.084,175.362,74.084z"/>
				</g>
			</g>
			<path fill="#292A29" d="M159.959,124.83c0,3.866-3.134,7-7,7h-1.65c-3.866,0-7-3.134-7-7v-10.606c0-3.866,3.134-7,7-7h1.65
				c3.866,0,7,3.134,7,7V124.83z"/>
			<g>
				<g>
					<circle fill="#393A39" cx="152.134" cy="137.524" r="21.433"/>
					<path fill="#1A1B1A" d="M152.134,160.618c-12.733,0-23.092-10.359-23.092-23.093c0-12.733,10.359-23.093,23.092-23.093
						s23.093,10.359,23.093,23.093C175.227,150.258,164.867,160.618,152.134,160.618z M152.134,117.75
						c-10.903,0-19.774,8.871-19.774,19.774c0,10.904,8.871,19.775,19.774,19.775s19.774-8.871,19.774-19.775
						C171.908,126.621,163.037,117.75,152.134,117.75z"/>
				</g>
				<g>
					<circle fill="#1A1B1A" cx="152.134" cy="137.524" r="13.8"/>
					<path fill="#1A1B1A" d="M152.135,152.984c-8.525,0-15.46-6.935-15.46-15.459s6.935-15.459,15.46-15.459
						c8.523,0,15.458,6.935,15.458,15.459S160.658,152.984,152.135,152.984z M152.135,125.384c-6.695,0-12.142,5.446-12.142,12.141
						s5.447,12.141,12.142,12.141c6.693,0,12.14-5.447,12.14-12.141S158.828,125.384,152.135,125.384z"/>
				</g>
				<path fill="#525352" d="M151.45,149.58c-0.37-0.02-0.65-0.33-0.63-0.7l0,0c0.02-0.36,0.33-0.64,0.7-0.62l0,0
					c0.37,0.02,0.641,0.33,0.62,0.7l0,0c-0.02,0.35-0.31,0.62-0.66,0.62l0,0C151.47,149.58,151.46,149.58,151.45,149.58z
					 M153.47,148.88c-0.06-0.36,0.18-0.71,0.54-0.77l0,0c0.36-0.06,0.71,0.18,0.771,0.54l0,0c0.06,0.36-0.181,0.7-0.54,0.77l0,0l0,0
					l0,0c-0.04,0.01-0.08,0.01-0.11,0.01l0,0C153.81,149.43,153.53,149.2,153.47,148.88z M148.69,149.1
					c-0.36-0.1-0.56-0.47-0.45-0.82l0,0c0.1-0.36,0.47-0.56,0.82-0.45l0,0c0.35,0.1,0.55,0.47,0.45,0.82l0,0
					c-0.09,0.29-0.35,0.48-0.64,0.48l0,0C148.81,149.13,148.75,149.12,148.69,149.1z M156.05,148.27c-0.14-0.34,0.01-0.73,0.35-0.88
					v0.01c0.33-0.15,0.73,0,0.87,0.34l0,0c0.15,0.34-0.01,0.73-0.34,0.87l0,0l0,0l0,0c-0.09,0.04-0.18,0.06-0.27,0.06l0,0
					C156.41,148.67,156.16,148.52,156.05,148.27z M146.11,147.99c-0.32-0.18-0.43-0.59-0.24-0.9l0,0c0.18-0.32,0.58-0.43,0.9-0.25
					l0,0c0.32,0.19,0.43,0.59,0.25,0.91l0,0c-0.13,0.21-0.35,0.33-0.58,0.33l0,0C146.33,148.08,146.21,148.05,146.11,147.99z
					 M158.42,147.07c-0.22-0.29-0.16-0.71,0.14-0.93l0,0c0.29-0.21,0.71-0.15,0.931,0.14l0,0c0.21,0.29,0.149,0.71-0.141,0.93l0,0
					l0,0l0,0c-0.12,0.09-0.26,0.13-0.399,0.13l0,0C158.75,147.34,158.55,147.25,158.42,147.07z M143.86,146.32
					c-0.27-0.25-0.28-0.67-0.03-0.94l0,0c0.25-0.26,0.67-0.28,0.94-0.02l0,0c0.27,0.25,0.28,0.66,0.03,0.93l0,0
					c-0.13,0.14-0.31,0.21-0.49,0.21l0,0C144.15,146.5,143.99,146.44,143.86,146.32z M160.45,145.37
					c-0.28-0.24-0.311-0.66-0.08-0.94l0,0c0.239-0.28,0.66-0.32,0.939-0.08l0,0c0.28,0.24,0.311,0.65,0.08,0.93l0,0
					c-0.13,0.16-0.32,0.24-0.51,0.24l0,0C160.729,145.52,160.58,145.47,160.45,145.37z M142.05,144.18
					c-0.2-0.31-0.11-0.72,0.19-0.92l0,0c0.31-0.2,0.72-0.12,0.92,0.19l0,0c0.2,0.3,0.12,0.71-0.18,0.91l0,0
					c-0.12,0.08-0.25,0.12-0.37,0.12l0,0C142.39,144.48,142.18,144.37,142.05,144.18z M162.04,143.24c-0.33-0.17-0.46-0.57-0.3-0.89
					l0,0c0.17-0.33,0.569-0.46,0.89-0.3l0,0c0.33,0.17,0.46,0.56,0.3,0.89l0,0c-0.12,0.23-0.35,0.37-0.59,0.37l0,0
					C162.24,143.31,162.13,143.28,162.04,143.24z M140.79,141.68L140.79,141.68L140.79,141.68c-0.13-0.35,0.05-0.73,0.4-0.85l0,0
					c0.34-0.13,0.72,0.05,0.85,0.39l0,0c0.12,0.34-0.05,0.73-0.4,0.85l0,0c-0.07,0.03-0.15,0.04-0.23,0.04l0,0
					C141.14,142.11,140.89,141.94,140.79,141.68z M163.09,140.8c-0.36-0.08-0.58-0.44-0.49-0.8l0,0c0.08-0.35,0.44-0.57,0.79-0.49
					l0,0c0.36,0.08,0.58,0.44,0.5,0.8l0,0l0,0l0,0c-0.08,0.3-0.35,0.51-0.649,0.51l0,0C163.189,140.82,163.14,140.81,163.09,140.8z
					 M140.14,138.95c-0.04-0.37,0.22-0.69,0.58-0.74l0,0c0.37-0.04,0.7,0.22,0.74,0.58l0,0c0.04,0.37-0.22,0.7-0.58,0.74l0,0
					c-0.03,0-0.05,0.01-0.08,0.01l0,0C140.47,139.54,140.18,139.29,140.14,138.95z M162.88,137.52c0,0,0-0.01,0-0.02l0,0
					c0,0,0-0.01,0-0.02l0,0c0-0.37,0.3-0.66,0.66-0.66l0,0c0.37-0.01,0.67,0.29,0.67,0.66l0,0c0,0,0,0.01,0,0.02l0,0
					c0,0.01,0,0.02,0,0.02l0,0l0,0l0,0c0,0.37-0.3,0.67-0.66,0.67l0,0C163.18,138.19,162.88,137.89,162.88,137.52z M140.72,136.88
					c-0.36-0.04-0.63-0.37-0.58-0.73l0,0c0.04-0.37,0.37-0.63,0.73-0.58l0,0c0.36,0.04,0.62,0.36,0.58,0.73l0,0
					c-0.04,0.34-0.32,0.59-0.66,0.59l0,0C140.77,136.89,140.75,136.89,140.72,136.88z M162.59,135c-0.09-0.35,0.13-0.71,0.49-0.8
					l0,0c0.35-0.08,0.71,0.14,0.8,0.49l0,0l0,0l0,0c0.08,0.36-0.14,0.72-0.49,0.8l0,0c-0.06,0.02-0.109,0.02-0.16,0.02l0,0
					C162.93,135.51,162.66,135.31,162.59,135z M141.17,134.27c-0.34-0.13-0.52-0.51-0.4-0.85l0,0l0,0l0,0
					c0.13-0.35,0.51-0.52,0.85-0.4l0,0c0.35,0.12,0.53,0.5,0.4,0.85l0,0c-0.1,0.27-0.35,0.44-0.62,0.44l0,0
					C141.32,134.31,141.25,134.29,141.17,134.27z M161.72,132.66c-0.16-0.32-0.03-0.72,0.29-0.89l0,0c0.33-0.16,0.73-0.03,0.9,0.29
					l0,0l0,0l0,0c0.159,0.33,0.029,0.73-0.29,0.89l0,0c-0.101,0.05-0.2,0.08-0.301,0.08l0,0
					C162.069,133.03,161.84,132.89,161.72,132.66z M142.22,131.83c-0.31-0.2-0.39-0.61-0.19-0.92l0,0l0,0l0,0
					c0.2-0.31,0.61-0.39,0.92-0.19l0,0c0.3,0.2,0.39,0.61,0.19,0.92l0,0c-0.13,0.19-0.34,0.3-0.56,0.3l0,0
					C142.46,131.94,142.33,131.9,142.22,131.83z M160.34,130.59c-0.24-0.29-0.2-0.7,0.08-0.94l0,0c0.28-0.24,0.7-0.2,0.939,0.08l0,0
					c0.23,0.28,0.2,0.7-0.079,0.93l0,0c-0.131,0.11-0.28,0.16-0.431,0.16l0,0C160.66,130.82,160.479,130.74,160.34,130.59z
					 M143.8,129.7c-0.25-0.27-0.24-0.69,0.03-0.94l0,0l0,0l0,0c0.26-0.25,0.68-0.24,0.93,0.03l0,0c0.25,0.26,0.24,0.68-0.02,0.93
					l0,0c-0.13,0.13-0.3,0.19-0.46,0.19l0,0C144.11,129.91,143.93,129.84,143.8,129.7z M158.52,128.88
					c-0.29-0.22-0.35-0.63-0.13-0.93l0,0c0.21-0.29,0.63-0.36,0.92-0.14l0,0c0.3,0.22,0.36,0.63,0.141,0.93l0,0
					c-0.131,0.18-0.33,0.27-0.53,0.27l0,0C158.78,129.01,158.64,128.97,158.52,128.88z M145.83,127.99
					c-0.19-0.32-0.08-0.72,0.24-0.91l0,0l0,0l0,0c0.31-0.18,0.72-0.08,0.9,0.24l0,0c0.19,0.32,0.08,0.72-0.24,0.91l0,0
					c-0.1,0.06-0.22,0.09-0.33,0.09l0,0C146.17,128.32,145.95,128.2,145.83,127.99z M156.359,127.64L156.359,127.64
					c-0.34-0.15-0.489-0.54-0.35-0.87l0,0c0.15-0.34,0.54-0.5,0.87-0.35l0,0l0,0l0,0c0.34,0.14,0.49,0.53,0.35,0.87l0,0
					c-0.109,0.25-0.35,0.4-0.609,0.4l0,0C156.53,127.69,156.439,127.67,156.359,127.64z M148.19,126.79
					c-0.1-0.35,0.1-0.72,0.45-0.83l0,0c0.35-0.1,0.72,0.09,0.82,0.45l0,0c0.11,0.35-0.09,0.71-0.44,0.82l0,0
					c-0.06,0.02-0.13,0.03-0.19,0.03l0,0C148.54,127.26,148.28,127.08,148.19,126.79z M153.97,126.93
					c-0.36-0.06-0.61-0.41-0.54-0.77l0,0c0.061-0.36,0.4-0.6,0.76-0.54l0,0c0.36,0.07,0.601,0.41,0.54,0.77l0,0
					c-0.05,0.32-0.33,0.55-0.649,0.55l0,0C154.04,126.94,154,126.94,153.97,126.93z M150.77,126.17c-0.02-0.36,0.26-0.68,0.629-0.7
					l0,0c0.36-0.02,0.67,0.26,0.7,0.62l0,0c0.021,0.37-0.26,0.68-0.62,0.7v0.01c-0.02,0-0.029,0-0.04,0l0,0
					C151.09,126.8,150.79,126.53,150.77,126.17z"/>
				<path fill="#525352" d="M151.49,145.98c0-0.37,0.3-0.67,0.659-0.67l0,0c0.37,0,0.66,0.3,0.67,0.67l0,0
					c0,0.36-0.3,0.66-0.67,0.66l0,0C151.79,146.64,151.49,146.34,151.49,145.98z M149.34,146.2c-0.35-0.11-0.54-0.48-0.43-0.83l0,0
					c0.12-0.35,0.49-0.54,0.84-0.43l0,0c0.35,0.11,0.54,0.49,0.43,0.84l0,0c-0.1,0.28-0.35,0.46-0.63,0.46l0,0
					C149.48,146.24,149.41,146.23,149.34,146.2z M154.13,145.77c-0.11-0.35,0.08-0.73,0.43-0.84l0,0c0.34-0.11,0.721,0.08,0.83,0.43
					l0,0c0.12,0.34-0.08,0.72-0.42,0.83l0,0l0,0l0,0c-0.07,0.02-0.14,0.03-0.21,0.03l0,0
					C154.479,146.22,154.22,146.05,154.13,145.77z M146.8,144.92L146.8,144.92L146.8,144.92c-0.3-0.22-0.36-0.63-0.15-0.93l0,0
					c0.21-0.3,0.63-0.36,0.93-0.15l0,0c0.29,0.22,0.36,0.63,0.14,0.93l0,0c-0.12,0.18-0.33,0.27-0.53,0.27l0,0
					C147.05,145.04,146.92,145,146.8,144.92z M156.58,144.75c-0.221-0.3-0.15-0.71,0.14-0.93l0,0c0.3-0.21,0.71-0.15,0.93,0.15l0,0
					c0.21,0.29,0.15,0.71-0.149,0.92l0,0l0,0l0,0c-0.11,0.09-0.25,0.13-0.391,0.13l0,0C156.91,145.02,156.71,144.93,156.58,144.75z
					 M144.78,142.91L144.78,142.91L144.78,142.91c-0.22-0.29-0.15-0.71,0.14-0.93l0,0c0.3-0.21,0.71-0.15,0.93,0.15l0,0
					c0.22,0.29,0.15,0.71-0.14,0.92l0,0c-0.12,0.09-0.26,0.13-0.4,0.13l0,0C145.11,143.18,144.91,143.09,144.78,142.91z
					 M158.59,143.02c-0.3-0.21-0.36-0.63-0.15-0.92l0,0c0.221-0.3,0.63-0.37,0.931-0.15l0,0c0.29,0.22,0.359,0.63,0.14,0.93l0,0
					c0,0,0,0,0.01,0l0,0c-0.13,0.18-0.34,0.27-0.54,0.27l0,0C158.84,143.15,158.7,143.11,158.59,143.02z M143.47,140.38
					c-0.11-0.35,0.08-0.72,0.43-0.84l0,0c0.35-0.11,0.72,0.07,0.83,0.42l0,0c0.12,0.35-0.07,0.73-0.42,0.84l0,0
					c-0.07,0.02-0.14,0.03-0.21,0.03l0,0C143.83,140.83,143.57,140.66,143.47,140.38z M159.97,140.77
					c-0.35-0.12-0.54-0.49-0.43-0.84l0,0c0.12-0.35,0.49-0.54,0.84-0.43l0,0c0.35,0.11,0.54,0.49,0.43,0.84l0,0
					c-0.09,0.28-0.359,0.46-0.64,0.46l0,0C160.109,140.8,160.04,140.79,159.97,140.77z M143.02,137.57c0-0.37,0.29-0.67,0.66-0.67
					l0,0c0.37,0,0.66,0.29,0.66,0.66l0,0c0.01,0.37-0.29,0.67-0.66,0.67l0,0l0,0l0,0C143.32,138.23,143.02,137.93,143.02,137.57z
					 M159.92,137.52c0-0.01,0-0.02,0-0.03l0,0c0-0.01,0-0.03,0-0.04l0,0c0-0.37,0.29-0.66,0.66-0.67l0,0c0.37,0,0.66,0.29,0.67,0.66
					l0,0c0,0.01,0,0.02,0,0.03l0,0c0,0.02,0,0.04,0,0.05l0,0c0,0.37-0.3,0.67-0.66,0.67l0,0
					C160.22,138.19,159.92,137.89,159.92,137.52z M161.25,137.44L161.25,137.44L161.25,137.44L161.25,137.44L161.25,137.44
					L161.25,137.44z M143.88,135.59c-0.35-0.12-0.54-0.49-0.43-0.84l0,0c0.11-0.35,0.48-0.54,0.83-0.43l0,0
					c0.35,0.11,0.54,0.49,0.43,0.84l0,0c-0.09,0.28-0.35,0.46-0.63,0.46l0,0C144.01,135.62,143.94,135.61,143.88,135.59z
					 M159.52,135.05c-0.12-0.35,0.07-0.72,0.42-0.84l0,0c0.351-0.11,0.721,0.07,0.841,0.42l0,0c0.119,0.35-0.07,0.72-0.421,0.84l0,0
					c-0.069,0.02-0.14,0.03-0.21,0.03l0,0C159.87,135.5,159.62,135.33,159.52,135.05z M144.88,133.13c-0.3-0.21-0.36-0.63-0.15-0.92
					l0,0c0.21-0.3,0.63-0.37,0.93-0.15l0,0c0.29,0.21,0.36,0.62,0.15,0.92l0,0c-0.13,0.18-0.34,0.28-0.54,0.28l0,0
					C145.13,133.26,145,133.22,144.88,133.13z M158.399,132.89c-0.22-0.29-0.159-0.71,0.141-0.92l0,0c0.29-0.22,0.71-0.16,0.92,0.13
					l0,0c0.22,0.3,0.16,0.71-0.13,0.93l0,0c-0.12,0.09-0.261,0.13-0.4,0.13l0,0C158.729,133.16,158.53,133.07,158.399,132.89z
					 M146.59,131.11c-0.22-0.3-0.15-0.71,0.14-0.93l0,0c0.29-0.22,0.71-0.15,0.93,0.14l0,0c0.22,0.3,0.15,0.71-0.14,0.93l0,0
					c-0.12,0.09-0.26,0.13-0.4,0.13l0,0C146.92,131.38,146.72,131.29,146.59,131.11z M156.66,131.19L156.66,131.19
					c-0.301-0.22-0.37-0.63-0.15-0.93l0,0c0.21-0.3,0.63-0.37,0.92-0.15l0,0l0,0l0,0c0.3,0.21,0.37,0.62,0.16,0.92l0,0
					c-0.13,0.18-0.34,0.28-0.54,0.28l0,0C156.91,131.31,156.78,131.27,156.66,131.19z M148.84,129.71
					c-0.11-0.35,0.07-0.72,0.42-0.84l0,0c0.35-0.11,0.72,0.07,0.84,0.42l0,0c0.11,0.35-0.07,0.72-0.42,0.84l0,0
					c-0.07,0.02-0.14,0.03-0.21,0.03l0,0C149.19,130.16,148.93,129.99,148.84,129.71z M154.49,130.1
					c-0.351-0.11-0.551-0.49-0.44-0.84l0,0c0.11-0.34,0.49-0.54,0.84-0.43l0,0c0.351,0.11,0.54,0.49,0.43,0.84l0,0
					c-0.09,0.28-0.35,0.46-0.63,0.46l0,0C154.62,130.13,154.55,130.12,154.49,130.1z M151.41,129.08c0-0.37,0.29-0.67,0.659-0.67
					l0,0c0.37,0,0.66,0.29,0.671,0.66l0,0c0,0.36-0.301,0.66-0.66,0.67l0,0c0,0,0,0-0.011,0l0,0
					C151.71,129.74,151.41,129.44,151.41,129.08z"/>
				<path fill="#525352" d="M150.66,142.2c0,0,0,0-0.01,0l0,0c-0.34-0.11-0.54-0.49-0.43-0.83l0,0c0.11-0.35,0.49-0.55,0.83-0.44
					l0,0c0.35,0.11,0.55,0.49,0.44,0.84l0,0c-0.091,0.28-0.351,0.46-0.63,0.46l0,0C150.79,142.23,150.72,142.22,150.66,142.2z
					 M152.83,141.76c-0.11-0.35,0.08-0.73,0.42-0.84l0,0c0.35-0.12,0.729,0.07,0.84,0.42l0,0c0.12,0.35-0.07,0.72-0.42,0.84l0,0
					c-0.07,0.02-0.14,0.03-0.21,0.03l0,0C153.18,142.21,152.92,142.04,152.83,141.76z M148.2,140.45c-0.22-0.3-0.16-0.71,0.13-0.93
					l0,0c0.3-0.22,0.71-0.16,0.93,0.13l0,0c0.22,0.3,0.16,0.71-0.13,0.93l0,0c-0.12,0.09-0.26,0.13-0.4,0.13l0,0
					C148.53,140.71,148.33,140.62,148.2,140.45z M155.18,140.54c-0.3-0.21-0.36-0.63-0.149-0.92l0,0c0.22-0.3,0.63-0.37,0.93-0.15
					l0,0c0.29,0.21,0.359,0.63,0.14,0.93l0,0c-0.13,0.17-0.33,0.27-0.53,0.27l0,0C155.43,140.67,155.3,140.63,155.18,140.54z
					 M147.23,137.59c0-0.37,0.29-0.67,0.66-0.67l0,0c0.36-0.01,0.67,0.28,0.67,0.65l0,0c0,0.37-0.29,0.67-0.66,0.67l0,0l0,0l0,0
					C147.53,138.24,147.24,137.95,147.23,137.59z M155.71,137.52L155.71,137.52c0-0.01,0-0.02,0-0.03l0,0c0-0.02,0-0.04,0-0.06l0,0
					c-0.01-0.36,0.28-0.67,0.64-0.68l0,0c0.37,0,0.67,0.28,0.681,0.65l0,0c0,0.02,0,0.04,0,0.06l0,0c0,0.02,0,0.04,0,0.06l0,0
					c0,0,0,0,0.01,0l0,0c0,0.37-0.3,0.67-0.67,0.67l0,0C156,138.19,155.71,137.89,155.71,137.52z M148.29,135.63
					c-0.31-0.21-0.37-0.63-0.16-0.93l0,0c0.21-0.3,0.62-0.37,0.92-0.15l0,0c0.3,0.21,0.37,0.62,0.16,0.92l0,0
					c-0.13,0.18-0.33,0.28-0.54,0.28l0,0C148.54,135.75,148.4,135.71,148.29,135.63z M154.979,135.36
					c-0.229-0.29-0.17-0.71,0.12-0.93l0,0c0.29-0.22,0.71-0.17,0.931,0.12l0,0c0.22,0.29,0.17,0.71-0.12,0.93l0,0
					c-0.12,0.09-0.271,0.14-0.41,0.14l0,0C155.3,135.62,155.109,135.53,154.979,135.36z M150.13,133.73
					c-0.12-0.34,0.06-0.72,0.41-0.84l0,0c0.34-0.12,0.72,0.07,0.84,0.41l0,0c0.12,0.35-0.07,0.72-0.41,0.84l0,0
					c-0.07,0.03-0.15,0.04-0.22,0.04l0,0C150.48,134.18,150.22,134.01,150.13,133.73z M153.17,134.1L153.17,134.1
					c-0.351-0.1-0.55-0.47-0.44-0.82l0,0c0.101-0.35,0.471-0.55,0.82-0.45l0,0c0.35,0.11,0.55,0.48,0.44,0.83l0,0
					c-0.08,0.29-0.351,0.47-0.631,0.47l0,0C153.3,134.13,153.229,134.12,153.17,134.1z"/>
			</g>
		</g>
		<path fill="#744016" d="M81.234,177.394c-0.292,0-0.501-0.011-0.612-0.019c-4.482-0.012-8.03-1.417-10.546-4.176
			c-4.413-4.84-3.992-12.119-3.924-12.991v-84.49c0-9.052,4.617-14.038,13-14.038c3.114,0,5.591,0.943,7.36,2.803
			c2.89,3.038,2.708,7.385,2.698,7.569l0.002,4.476h-3v-4.551c0.003-0.102,0.116-3.352-1.888-5.442
			c-1.181-1.231-2.921-1.855-5.172-1.855c-6.729,0-10,3.61-10,11.038l-0.006,84.691c-0.006,0.064-0.551,6.727,3.158,10.78
			c1.935,2.114,4.753,3.186,8.377,3.186l0.14,0.006c0.036,0.005,4.369,0.332,7.828-2.845c3.049-2.801,4.595-7.457,4.595-13.838
			v-40.347c-0.008-0.114-0.219-4.768,3.375-8.563c2.947-3.113,7.492-4.691,13.508-4.691v3c-5.135,0-8.936,1.251-11.296,3.719
			c-2.715,2.838-2.59,6.425-2.588,6.461l0.002,40.421c0,7.286-1.887,12.698-5.61,16.087
			C87.056,177.044,82.867,177.394,81.234,177.394z"/>
		<g>
			<g>
				<path fill="#535554" d="M72.642,130.311c0,0,8.108-13.092,8.108-42.481v-6.947h14.259v6.947c0,28.588,8.107,42.481,8.107,42.481
					H72.642z"/>
				<path fill="#393A39" d="M72.309,133.517c-0.667,0-1.207-1.601-1.207-3.576l0,0c0-1.974,0.541-3.575,1.207-3.575h30.808
					c0.667,0,1.207,1.601,1.207,3.575l0,0c0,1.976-0.541,3.576-1.207,3.576H72.309z"/>
			</g>
			<path fill="#393A39" d="M94.744,80.882c-0.111-3.949-4.03-4.354-7.031-4.354c-3,0-6.92,0.405-7.031,4.354H94.744z"/>
		</g>
		<path fill="#393A39" d="M101.9,92.367c0,1.946-1.578,3.524-3.524,3.524H77.048c-1.946,0-3.524-1.578-3.524-3.524l0,0
			c0-1.946,1.578-3.524,3.524-3.524h21.328C100.322,88.843,101.9,90.421,101.9,92.367L101.9,92.367z"/>
		<rect x="94.744" y="90.605" fill="#393A39" width="15.383" height="3.524"/>
	</g>
</g>
</svg>
