<?xml version="1.0" encoding="utf-8"?>
<!-- Generator: Adobe Illustrator 16.0.0, SVG Export Plug-In . SVG Version: 6.00 Build 0)  -->
<!DOCTYPE svg PUBLIC "-//W3C//DTD SVG 1.1 Tiny//EN" "http://www.w3.org/Graphics/SVG/1.1/DTD/svg11-tiny.dtd">
<svg version="1.1" baseProfile="tiny" id="Layer_1" xmlns="http://www.w3.org/2000/svg" xmlns:xlink="http://www.w3.org/1999/xlink"
	 x="0px" y="0px" width="300px" height="300px" viewBox="0 0 300 300" xml:space="preserve">
<g>
	<circle fill="#25A7DE" cx="150" cy="150" r="131.6"/>
	<g>
		<path fill="#464847" d="M188.515,131.871c-0.682,0-1.233-0.552-1.233-1.233V89.936c0-0.681,0.552-1.233,1.233-1.233
			s1.233,0.552,1.233,1.233v40.701C189.748,131.318,189.196,131.871,188.515,131.871z"/>
		<path fill="#464847" d="M69.288,101.037c-0.395,0-0.783-0.189-1.021-0.541c-0.383-0.563-0.236-1.331,0.328-1.713l69.332-47.074
			c0.563-0.382,1.331-0.235,1.713,0.328c0.383,0.563,0.236,1.331-0.328,1.713l-69.332,47.074
			C69.768,100.968,69.526,101.037,69.288,101.037z"/>
		<rect x="193.859" y="148.182" fill="#464847" width="26.928" height="31.098"/>
		<path fill="#535554" d="M257.377,182.643c0,2.384-1.932,4.317-4.316,4.317h-27.956c-2.385,0-4.317-1.933-4.317-4.317v-37.823
			c0-2.384,1.933-4.317,4.317-4.317h27.956c2.385,0,4.316,1.933,4.316,4.317V182.643z"/>
		<g>
			<path fill="#393A39" d="M253.268,148.182c0,0.702-0.57,1.271-1.271,1.271H226.17c-0.702,0-1.271-0.568-1.271-1.271l0,0
				c0-0.702,0.568-1.271,1.271-1.271h25.827C252.697,146.912,253.268,147.48,253.268,148.182L253.268,148.182z"/>
			<path fill="#393A39" d="M253.268,155.957c0,0.702-0.57,1.271-1.271,1.271H226.17c-0.702,0-1.271-0.569-1.271-1.271l0,0
				c0-0.702,0.568-1.271,1.271-1.271h25.827C252.697,154.686,253.268,155.255,253.268,155.957L253.268,155.957z"/>
			<path fill="#393A39" d="M253.268,163.731c0,0.701-0.57,1.27-1.271,1.27H226.17c-0.702,0-1.271-0.569-1.271-1.27l0,0
				c0-0.702,0.568-1.271,1.271-1.271h25.827C252.697,162.461,253.268,163.03,253.268,163.731L253.268,163.731z"/>
			<path fill="#393A39" d="M253.268,171.506c0,0.701-0.57,1.27-1.271,1.27H226.17c-0.702,0-1.271-0.569-1.271-1.27l0,0
				c0-0.702,0.568-1.271,1.271-1.271h25.827C252.697,170.235,253.268,170.804,253.268,171.506L253.268,171.506z"/>
			<path fill="#393A39" d="M253.268,179.28c0,0.702-0.57,1.271-1.271,1.271H226.17c-0.702,0-1.271-0.568-1.271-1.271l0,0
				c0-0.701,0.568-1.27,1.271-1.27h25.827C252.697,178.01,253.268,178.579,253.268,179.28L253.268,179.28z"/>
		</g>
		<path fill="#464847" d="M193.859,200.323c0,2.384-1.934,4.317-4.317,4.317H82.239c-2.384,0-4.317-1.933-4.317-4.317v-72.358
			c0-2.384,1.934-4.317,4.317-4.317h107.303c2.384,0,4.317,1.933,4.317,4.317V200.323z"/>
		<path fill="#3B3D3C" d="M177.003,186.345c0,2.384-1.933,4.316-4.317,4.316h-50.568c-2.385,0-4.316-1.933-4.316-4.316v-22.202
			c0-2.384,1.932-4.316,4.316-4.316h50.568c2.385,0,4.317,1.932,4.317,4.316V186.345z"/>
		<path fill="#535554" d="M167.344,140.724c0,4.118-3.339,7.458-7.459,7.458h-0.711c-4.118,0-7.458-3.34-7.458-7.458v-43.33
			c0-4.118,3.34-7.458,7.458-7.458h0.711c4.12,0,7.459,3.34,7.459,7.458V140.724z"/>
		<circle fill="#393A39" cx="159.53" cy="139.102" r="4.169"/>
		<path fill="#393A39" d="M102.852,204.64v5.016c0,2.384,1.934,4.317,4.318,4.317h52.212c2.385,0,4.317-1.933,4.317-4.317v-5.016
			H102.852z"/>
		<path fill="#393A39" d="M161.792,234.854c0,2.384-1.933,4.317-4.317,4.317H107.17c-2.385,0-4.318-1.933-4.318-4.317v-3.289
			c0-2.384,1.934-4.317,4.318-4.317h50.305c2.385,0,4.317,1.933,4.317,4.317V234.854z"/>
		<rect x="120.605" y="213.972" fill="#464847" width="23.434" height="13.276"/>
		<polygon fill="#3C3E3D" points="204.963,179.28 193.859,179.28 193.859,148.182 199.615,148.182 		"/>
		<g>
			<path fill="#3C3E3D" d="M159.53,42.773c-19.464,0-35.241,15.778-35.241,35.241c0,19.462,15.777,35.24,35.241,35.24
				c19.462,0,35.24-15.778,35.24-35.24C194.771,58.551,178.992,42.773,159.53,42.773z M171.284,56.667
				c2.648-2.65,6.943-2.65,9.592,0c2.649,2.649,2.649,6.944,0,9.593c-2.648,2.649-6.943,2.649-9.592,0
				C168.634,63.61,168.634,59.316,171.284,56.667z M159.529,47.824c3.746,0,6.784,3.037,6.784,6.784
				c0,3.746-3.038,6.783-6.784,6.783s-6.783-3.037-6.783-6.783C152.746,50.861,155.783,47.824,159.529,47.824z M138.183,56.667
				c2.649-2.649,6.944-2.649,9.594,0s2.649,6.943,0.001,9.594c-2.65,2.649-6.945,2.649-9.595,0
				C135.533,63.611,135.533,59.316,138.183,56.667z M129.34,78.013c0-3.747,3.038-6.784,6.784-6.784
				c3.747,0,6.784,3.037,6.784,6.784c0,3.747-3.037,6.783-6.784,6.783C132.378,84.796,129.34,81.76,129.34,78.013z M147.777,99.36
				c-2.65,2.649-6.945,2.649-9.595,0s-2.649-6.944,0-9.593c2.649-2.649,6.944-2.649,9.595,0
				C150.426,92.416,150.426,96.711,147.777,99.36z M159.529,108.202c-3.746,0-6.783-3.037-6.783-6.783
				c0-3.747,3.037-6.784,6.783-6.784s6.784,3.037,6.784,6.784C166.313,105.165,163.275,108.202,159.529,108.202z M165.313,83.798
				c-3.194,3.195-8.373,3.195-11.568,0s-3.195-8.374,0-11.569c3.195-3.195,8.374-3.195,11.568,0
				C168.51,75.424,168.51,80.604,165.313,83.798z M180.876,99.36c-2.648,2.649-6.943,2.649-9.593,0
				c-2.649-2.649-2.649-6.944,0-9.594c2.649-2.649,6.944-2.649,9.593,0C183.525,92.416,183.526,96.71,180.876,99.36z
				 M182.935,84.796c-3.746,0-6.784-3.037-6.784-6.783c0-3.747,3.038-6.784,6.784-6.784c3.747,0,6.784,3.037,6.784,6.784
				C189.719,81.76,186.682,84.796,182.935,84.796z"/>
			<circle fill="#3C3E3D" cx="159.529" cy="78.014" r="3.289"/>
		</g>
		<circle fill="#5B5D5C" cx="85.116" cy="127.349" r="31.862"/>
		<g>
			<path fill="#3C3E3D" d="M85.117,92.108c-19.465,0-35.241,15.777-35.241,35.241c0,19.462,15.776,35.24,35.241,35.24
				c19.463,0,35.239-15.778,35.239-35.24C120.356,107.885,104.58,92.108,85.117,92.108z M96.87,106.002
				c2.649-2.65,6.943-2.65,9.592,0c2.65,2.649,2.65,6.944,0,9.593c-2.648,2.649-6.942,2.649-9.592,0
				C94.22,112.945,94.221,108.651,96.87,106.002z M85.117,97.159c3.744,0,6.782,3.038,6.782,6.784c0,3.746-3.038,6.783-6.782,6.783
				c-3.748,0-6.784-3.037-6.784-6.783C78.333,100.197,81.369,97.159,85.117,97.159z M63.769,106.001c2.65-2.649,6.946-2.649,9.595,0
				c2.649,2.649,2.649,6.943,0,9.594c-2.648,2.649-6.945,2.649-9.595,0C61.12,112.946,61.12,108.651,63.769,106.001z
				 M54.928,127.348c0-3.747,3.037-6.784,6.782-6.784c3.748,0,6.784,3.037,6.784,6.784c0,3.747-3.036,6.783-6.784,6.783
				C57.965,134.131,54.928,131.095,54.928,127.348z M73.363,148.695c-2.648,2.649-6.945,2.649-9.595,0
				c-2.648-2.649-2.648-6.944,0-9.593c2.649-2.649,6.944-2.649,9.595,0C76.013,141.751,76.013,146.046,73.363,148.695z
				 M85.117,157.537c-3.748,0-6.784-3.037-6.784-6.783c0-3.747,3.036-6.784,6.784-6.784c3.744,0,6.782,3.038,6.782,6.784
				C91.899,154.5,88.861,157.537,85.117,157.537z M90.901,133.133c-3.194,3.195-8.374,3.195-11.57,0
				c-3.194-3.195-3.194-8.374,0-11.569c3.196-3.195,8.376-3.195,11.57,0C94.096,124.759,94.096,129.938,90.901,133.133z
				 M106.462,148.695c-2.648,2.649-6.942,2.649-9.592,0c-2.65-2.649-2.65-6.944,0-9.594c2.649-2.649,6.943-2.649,9.592,0
				C109.111,141.751,109.112,146.045,106.462,148.695z M108.521,134.131c-3.746,0-6.782-3.037-6.782-6.783
				c0-3.747,3.036-6.784,6.782-6.784c3.748,0,6.784,3.037,6.784,6.784C115.305,131.095,112.269,134.131,108.521,134.131z"/>
			<circle fill="#3C3E3D" cx="85.116" cy="127.349" r="3.289"/>
		</g>
	</g>
</g>
</svg>
