<?xml version="1.0" encoding="utf-8"?>
<!-- Generator: Adobe Illustrator 16.0.0, SVG Export Plug-In . SVG Version: 6.00 Build 0)  -->
<!DOCTYPE svg PUBLIC "-//W3C//DTD SVG 1.1 Tiny//EN" "http://www.w3.org/Graphics/SVG/1.1/DTD/svg11-tiny.dtd">
<svg version="1.1" baseProfile="tiny" id="Layer_1" xmlns="http://www.w3.org/2000/svg" xmlns:xlink="http://www.w3.org/1999/xlink"
	 x="0px" y="0px" width="300px" height="300px" viewBox="0 0 300 300" xml:space="preserve">
<g>
	<circle fill="#EE5A28" cx="150" cy="150" r="131.6"/>
	<g>
		<path fill="#F8C032" d="M149.049,281.596c-13.228-0.298-17.579-1.468-17.579-1.468V132.788h17.579V281.596z"/>
		<polygon fill="#F7A900" points="136.392,280.874 131.47,280.128 131.47,132.788 136.392,132.788 		"/>
		<polygon fill="#FAD67C" points="149.362,281.605 144.44,281.484 144.44,132.788 149.362,134.264 		"/>
		<path fill="#F8C032" d="M116.552,230.341c-13.543,0.001-18.429-12.942-18.486-13.098c-0.028-0.078-0.054-0.156-0.078-0.235
			c-0.117-0.386-11.669-38.637-13.077-43.181c-1.583-5.106-3.174-8.789-5.797-10.161c-1.918-1.004-4.779-0.916-8.5,0.261
			c-7.883,2.494-6.456,11.721-6.267,12.765c0.44,2.436-1.168,4.783-3.602,5.236c-2.428,0.454-4.774-1.13-5.241-3.562
			c-1.197-6.228-0.146-19.053,12.396-23.02c6.176-1.953,11.208-1.84,15.387,0.345c5.977,3.127,8.411,9.626,10.222,15.472
			c1.386,4.475,12.134,40.056,13.049,43.088c0.728,1.839,4.606,9.821,15.706,6.016c2.351-0.805,4.91,0.447,5.716,2.798
			c0.806,2.351-0.447,4.91-2.798,5.716C121.979,229.878,119.11,230.341,116.552,230.341z"/>
		<circle fill="#F8C032" cx="64.583" cy="177.167" r="9.219"/>
		<circle fill="#F8C032" cx="122.251" cy="225.801" r="9.219"/>
		<circle fill="#F8C032" cx="158.268" cy="225.801" r="9.219"/>
		<circle fill="#F8C032" cx="140.259" cy="223.584" r="18.008"/>
		<path fill="#F8C032" d="M113.501,160.71c0.602,14.278,12.333,25.677,26.759,25.677c14.425,0,26.157-11.399,26.759-25.677H113.501z
			"/>
		<path fill="#FAD67C" d="M167.019,71.854c-0.602-7.139-12.333-12.838-26.759-12.838c-14.425,0-26.157,5.699-26.759,12.838H167.019z
			"/>
		<rect x="113.032" y="71.783" fill="#F8C032" width="53.987" height="76.691"/>
		<rect x="113.032" y="71.783" fill="#F7A900" width="7.547" height="76.691"/>
		<rect x="159.472" y="71.783" fill="#FAD67C" width="7.547" height="76.691"/>
		<path fill="#FACF74" d="M149.362,190.915c-11.944,2.748-17.892,0-17.892,0v-6.005c0,0,5.948,2.748,17.892,0V190.915z"/>
		<path fill="#FACF74" d="M149.362,245.378c-11.944,2.748-17.892,0-17.892,0v-6.005c0,0,6.557,4.983,17.892,0V245.378z"/>
		<polygon fill="#FAD687" points="113.501,160.71 167.019,160.71 166.633,164.22 113.885,164.22 		"/>
		<circle fill="#F7A900" cx="140.416" cy="55.143" r="4.874"/>
	</g>
	<path fill="#FFFFFF" d="M157.329,157.826l42.596-26.207c0,0-12.819-2.872-6.962-15.188c5.858-12.315,13.415-1.79,13.415-1.79
		s-9.058-12.845,6.81-18.082c15.98-5.274,15.357,9.713,15.357,9.713s11.352-6.272,16.656,3.802
		c7.522,14.285-9.458,18.207-9.458,18.207s18.604,3.947,10.535,17.238c-7.991,13.164-20.181-2.014-20.181-2.014
		s3.58,13.268-7.826,14.815c-11.405,1.546-11.325-9.331-11.325-9.331L157.329,157.826z"/>
	<path fill="#C2F1F3" d="M175.214,151.079c-0.379,0-0.741-0.216-0.909-0.583c-0.231-0.502-0.011-1.096,0.49-1.326l34.008-15.629
		c0.504-0.231,1.096-0.01,1.326,0.491c0.231,0.502,0.011,1.096-0.49,1.326l-34.008,15.629
		C175.495,151.049,175.354,151.079,175.214,151.079z"/>
	<path fill="#C2F1F3" d="M190.254,149.474c-0.456,0-0.868-0.314-0.975-0.778c-0.122-0.539,0.215-1.074,0.754-1.197l21.582-4.908
		c0.534-0.125,1.073,0.215,1.197,0.753c0.122,0.539-0.215,1.074-0.754,1.197l-21.582,4.908
		C190.402,149.466,190.327,149.474,190.254,149.474z"/>
</g>
</svg>
