<?xml version="1.0" encoding="utf-8"?>
<!-- Generator: Adobe Illustrator 16.0.0, SVG Export Plug-In . SVG Version: 6.00 Build 0)  -->
<!DOCTYPE svg PUBLIC "-//W3C//DTD SVG 1.1 Tiny//EN" "http://www.w3.org/Graphics/SVG/1.1/DTD/svg11-tiny.dtd">
<svg version="1.1" baseProfile="tiny" id="Layer_1" xmlns="http://www.w3.org/2000/svg" xmlns:xlink="http://www.w3.org/1999/xlink"
	 x="0px" y="0px" width="300px" height="300px" viewBox="0 0 300 300" xml:space="preserve">
<g>
	<g>
		<circle fill="#25A7DE" cx="150" cy="150" r="131.6"/>
	</g>
	<g>
		<g>
			<path fill="#E3E3E3" d="M89.296,209.825c0,0,0.016-0.265,0.046-0.76c0.033-0.524,0.098-1.263,0.193-2.179
				c0.086-0.927,0.242-2.033,0.408-3.311c0.21-1.265,0.396-2.706,0.716-4.251c0.151-0.775,0.309-1.583,0.472-2.419
				c0.191-0.83,0.389-1.688,0.592-2.57c0.38-1.773,0.954-3.597,1.457-5.513c0.622-1.878,1.182-3.853,1.926-5.8
				c0.742-1.948,1.451-3.95,2.354-5.876c0.431-0.973,0.861-1.946,1.29-2.915c0.486-0.944,0.97-1.885,1.45-2.819
				c0.494-0.927,0.935-1.875,1.463-2.762c0.533-0.885,1.06-1.759,1.578-2.62c0.532-0.852,1.003-1.726,1.562-2.517
				c0.56-0.793,1.107-1.569,1.641-2.324c0.536-0.756,1.056-1.491,1.56-2.202c0.533-0.69,1.089-1.326,1.602-1.954
				c1.044-1.24,1.973-2.406,2.856-3.388c0.928-0.942,1.738-1.764,2.404-2.44c1.339-1.353,2.105-2.126,2.105-2.126
				c1.695-1.712,4.457-1.726,6.169-0.03c1.712,1.695,1.726,4.457,0.03,6.169c-0.058,0.058-0.116,0.114-0.176,0.168l-0.284,0.255
				c0,0-0.717,0.644-1.973,1.771c-0.631,0.563-1.397,1.248-2.276,2.032c-0.84,0.827-1.729,1.821-2.736,2.873
				c-0.495,0.534-1.033,1.072-1.552,1.663c-0.493,0.614-1.002,1.25-1.526,1.903c-0.526,0.653-1.066,1.325-1.619,2.011
				c-0.555,0.686-1.027,1.458-1.562,2.205c-0.523,0.756-1.055,1.525-1.593,2.304c-0.536,0.782-0.991,1.631-1.499,2.456
				c-0.497,0.833-0.998,1.673-1.501,2.517c-0.452,0.874-0.906,1.751-1.361,2.629c-0.954,1.735-1.725,3.563-2.534,5.343
				c-0.811,1.779-1.447,3.602-2.146,5.334c-0.581,1.773-1.235,3.464-1.695,5.117c-0.244,0.823-0.481,1.623-0.711,2.397
				c-0.203,0.781-0.399,1.536-0.587,2.261c-0.396,1.448-0.653,2.794-0.927,3.981c-0.229,1.19-0.443,2.233-0.576,3.087
				c-0.144,0.862-0.243,1.524-0.298,1.958c-0.057,0.461-0.088,0.708-0.088,0.708l-0.008,0.066c-0.159,1.28-1.326,2.188-2.605,2.03
				C90.11,212.133,89.224,211.044,89.296,209.825z"/>
			<g>
				<g>
					<ellipse fill="#D0D2D2" cx="92.319" cy="218.016" rx="19.087" ry="4.242"/>
					<rect x="73.232" y="214.25" fill="#D0D2D2" width="38.174" height="3.766"/>
					<ellipse fill="#E7E8E8" cx="92.319" cy="214.25" rx="19.087" ry="4.241"/>
				</g>
				<circle fill="#D0D2D2" cx="91.624" cy="210.008" r="4.966"/>
				<circle fill="#6A6C6C" cx="91.624" cy="210.008" r="2.35"/>
			</g>
		</g>
		<g>
			<path fill="#E3E3E3" d="M207.376,210.19c0,0-0.03-0.246-0.088-0.708c-0.055-0.434-0.154-1.096-0.298-1.958
				c-0.133-0.854-0.347-1.897-0.576-3.087c-0.273-1.188-0.531-2.533-0.927-3.981c-0.188-0.725-0.384-1.48-0.587-2.261
				c-0.23-0.774-0.468-1.575-0.712-2.397c-0.46-1.652-1.114-3.344-1.694-5.117c-0.699-1.732-1.335-3.555-2.146-5.334
				c-0.809-1.779-1.58-3.607-2.534-5.343c-0.454-0.877-0.908-1.755-1.36-2.629c-0.503-0.843-1.004-1.683-1.501-2.517
				c-0.509-0.825-0.963-1.674-1.499-2.456c-0.538-0.778-1.07-1.547-1.594-2.304c-0.534-0.747-1.006-1.52-1.562-2.205
				c-0.552-0.687-1.093-1.358-1.619-2.011c-0.523-0.653-1.033-1.288-1.526-1.903c-0.519-0.591-1.057-1.128-1.552-1.663
				c-1.007-1.052-1.896-2.046-2.735-2.873c-0.879-0.785-1.646-1.469-2.276-2.032c-1.256-1.127-1.974-1.771-1.974-1.771l-0.273-0.246
				c-1.793-1.609-1.942-4.367-0.333-6.16s4.367-1.942,6.16-0.333c0.061,0.055,0.129,0.12,0.187,0.177c0,0,0.765,0.773,2.104,2.126
				c0.667,0.676,1.476,1.498,2.404,2.44c0.883,0.982,1.812,2.148,2.856,3.388c0.513,0.627,1.068,1.264,1.602,1.954
				c0.504,0.711,1.024,1.446,1.56,2.202c0.533,0.755,1.081,1.531,1.641,2.324c0.561,0.792,1.03,1.665,1.562,2.518
				c0.519,0.86,1.046,1.734,1.579,2.619c0.527,0.887,0.969,1.835,1.463,2.762c0.479,0.934,0.964,1.875,1.449,2.819
				c0.43,0.969,0.86,1.942,1.291,2.915c0.903,1.926,1.611,3.928,2.354,5.876c0.744,1.948,1.305,3.922,1.927,5.8
				c0.502,1.916,1.076,3.74,1.456,5.513c0.203,0.882,0.401,1.74,0.593,2.57c0.163,0.836,0.32,1.644,0.472,2.419
				c0.32,1.545,0.507,2.987,0.717,4.251c0.166,1.278,0.321,2.384,0.407,3.311c0.096,0.917,0.161,1.655,0.193,2.179
				c0.03,0.496,0.047,0.76,0.047,0.76c0.079,1.287-0.9,2.395-2.188,2.474c-1.236,0.076-2.307-0.824-2.46-2.036L207.376,210.19z"/>
			<g>
				<g>
					<ellipse fill="#D0D2D2" cx="209.008" cy="218.016" rx="19.087" ry="4.242"/>
					<rect x="189.921" y="214.25" fill="#D0D2D2" width="38.175" height="3.766"/>
					<ellipse fill="#E7E8E8" cx="209.008" cy="214.25" rx="19.087" ry="4.241"/>
				</g>
				<circle fill="#D0D2D2" cx="209.704" cy="210.008" r="4.967"/>
				<circle fill="#6A6C6C" cx="209.704" cy="210.008" r="2.35"/>
			</g>
		</g>
		<g>
			<path fill="#E3E3E3" d="M148.374,192.604c0,0-0.266-4.703-0.666-11.757c-0.2-3.527-0.433-7.643-0.683-12.052
				c-0.277-4.404-0.436-9.127-0.657-13.84c-0.831-18.873-1.661-37.746-1.661-37.746c-0.106-2.407,1.759-4.443,4.166-4.549
				s4.443,1.759,4.549,4.166c0.003,0.073,0.004,0.146,0.004,0.219l-0.002,0.164c0,0-0.182,18.793-0.364,37.587
				c-0.031,4.703-0.127,9.399-0.086,13.819c0.013,4.416,0.024,8.538,0.034,12.071c0.021,7.066,0.034,11.777,0.034,11.777
				c0.005,1.29-1.037,2.34-2.327,2.345C149.469,194.813,148.447,193.833,148.374,192.604z"/>
			<g>
				<g>
					<ellipse fill="#D0D2D2" cx="150.014" cy="200.542" rx="19.086" ry="4.242"/>
					<rect x="130.928" y="196.775" fill="#D0D2D2" width="38.171" height="3.766"/>
					<ellipse fill="#E7E8E8" cx="150.014" cy="196.775" rx="19.086" ry="4.241"/>
				</g>
				<circle fill="#D0D2D2" cx="150.709" cy="192.534" r="4.966"/>
				<circle fill="#6A6C6C" cx="150.708" cy="192.534" r="2.349"/>
			</g>
		</g>
		<ellipse fill="#D0D2D2" cx="150" cy="152.36" rx="101.817" ry="22.626"/>
		<path fill="#808181" d="M150,175.073c-54.327,0-98.712-9.456-101.657-21.365c-0.103,0.418-0.16,0.838-0.16,1.261
			c0,12.497,45.586,22.626,101.817,22.626c56.232,0,101.817-10.13,101.817-22.626c0-0.423-0.057-0.843-0.16-1.261
			C248.712,165.617,204.328,175.073,150,175.073z"/>
		<rect x="48.183" y="139.835" fill="#D0D2D2" width="203.635" height="12.525"/>
		<ellipse fill="#E7E8E8" cx="150" cy="139.835" rx="101.817" ry="22.626"/>
		<ellipse fill="#D3D5D5" cx="149.065" cy="129.734" rx="55.973" ry="12.438"/>
		<path fill="#4553FF" d="M184.639,121.417c0-19.525-15.827-35.354-35.353-35.354c-19.524,0-35.353,15.828-35.353,35.354v5.454
			c0,0,8.08,7.954,35.353,7.954s35.353-7.954,35.353-7.954V121.417z"/>
		<path fill="#7580FF" d="M135.479,99.62c-0.91,0-1.775-0.535-2.152-1.426c-0.502-1.188,0.053-2.559,1.241-3.061
			c3.037-1.285,6.245-2.104,9.536-2.434c1.282-0.139,2.428,0.807,2.557,2.09c0.129,1.284-0.807,2.428-2.09,2.557
			c-2.825,0.284-5.578,0.986-8.182,2.088C136.09,99.561,135.782,99.62,135.479,99.62z"/>
		<path fill="#7580FF" d="M168.099,105.176c-0.56,0-1.121-0.2-1.568-0.606c-3.46-3.141-7.672-5.396-12.18-6.522
			c-1.251-0.313-2.012-1.581-1.699-2.832c0.312-1.251,1.58-2.011,2.832-1.7c5.252,1.312,10.157,3.938,14.186,7.595
			c0.955,0.867,1.027,2.344,0.16,3.299C169.368,104.918,168.734,105.176,168.099,105.176z"/>
		<path fill="#7580FF" d="M177.023,119.545c-1.019,0-1.955-0.671-2.246-1.699c-0.604-2.128-1.461-4.189-2.548-6.126
			c-0.632-1.125-0.232-2.548,0.893-3.18c1.124-0.629,2.548-0.233,3.18,0.893c1.268,2.256,2.267,4.658,2.97,7.14
			c0.352,1.241-0.369,2.532-1.61,2.884C177.448,119.516,177.234,119.545,177.023,119.545z"/>
		<path fill="#FFEB00" d="M151.068,171.817c0,0.984-0.798,1.782-1.782,1.782l0,0c-0.985,0-1.783-0.798-1.783-1.782v-5.835
			c0-0.984,0.798-1.782,1.783-1.782l0,0c0.984,0,1.782,0.798,1.782,1.782V171.817z"/>
		<g>
			<path fill="#FFEB00" d="M121.625,170.883c0,0.984-0.798,1.782-1.782,1.782l0,0c-0.985,0-1.783-0.798-1.783-1.782v-5.835
				c0-0.985,0.798-1.782,1.783-1.782l0,0c0.983,0,1.782,0.797,1.782,1.782V170.883z"/>
			<path fill="#FFEB00" d="M92.522,168.052c0,0.984-0.798,1.782-1.782,1.782l0,0c-0.985,0-1.783-0.798-1.783-1.782v-5.835
				c0-0.984,0.798-1.782,1.783-1.782l0,0c0.983,0,1.782,0.798,1.782,1.782V168.052z"/>
			<path fill="#FFEB00" d="M70.72,162.418c0,0.984-0.798,1.782-1.782,1.782l0,0c-0.985,0-1.783-0.798-1.783-1.782v-5.835
				c0-0.984,0.798-1.782,1.783-1.782l0,0c0.984,0,1.782,0.798,1.782,1.782V162.418z"/>
			<path fill="#FFEB00" d="M56.703,157.56c0,0.984-0.798,1.782-1.782,1.782l0,0c-0.985,0-1.783-0.798-1.783-1.782v-5.835
				c0-0.984,0.798-1.782,1.783-1.782l0,0c0.983,0,1.782,0.798,1.782,1.782V157.56z"/>
		</g>
		<g>
			<path fill="#FFEB00" d="M177.922,170.883c0,0.984,0.797,1.782,1.78,1.782l0,0c0.985,0,1.783-0.798,1.783-1.782v-5.835
				c0-0.985-0.798-1.782-1.783-1.782l0,0c-0.983,0-1.78,0.797-1.78,1.782V170.883z"/>
			<path fill="#FFEB00" d="M207.022,168.052c0,0.984,0.8,1.782,1.783,1.782l0,0c0.984,0,1.782-0.798,1.782-1.782v-5.835
				c0-0.984-0.798-1.782-1.782-1.782l0,0c-0.983,0-1.783,0.798-1.783,1.782V168.052z"/>
			<path fill="#FFEB00" d="M228.825,162.418c0,0.984,0.799,1.782,1.783,1.782l0,0c0.984,0,1.782-0.798,1.782-1.782v-5.835
				c0-0.984-0.798-1.782-1.782-1.782l0,0c-0.984,0-1.783,0.798-1.783,1.782V162.418z"/>
			<path fill="#FFEB00" d="M242.843,157.56c0,0.984,0.799,1.782,1.782,1.782l0,0c0.984,0,1.782-0.798,1.782-1.782v-5.835
				c0-0.984-0.798-1.782-1.782-1.782l0,0c-0.983,0-1.782,0.798-1.782,1.782V157.56z"/>
		</g>
	</g>
	<path fill="#008A3B" d="M55.73,241.811c0,0,91.811-33.189,188.541,0c0,0-34.704,39.789-94.271,39.789
		C90.131,281.6,55.73,241.811,55.73,241.811z"/>
	<path fill="#65C1E8" d="M150,72.667c-1.657,0-3-1.343-3-3V36.333c0-1.657,1.343-3,3-3c1.657,0,3,1.343,3,3v33.333
		C153,71.324,151.657,72.667,150,72.667z"/>
	<g>
		<path fill="#65C1E8" d="M119.179,84c-1.657,0-3-1.343-3-3V47.667c0-1.657,1.343-3,3-3s3,1.343,3,3V81
			C122.179,82.657,120.835,84,119.179,84z"/>
		<path fill="#65C1E8" d="M180.821,84c-1.657,0-3-1.343-3-3V47.667c0-1.657,1.343-3,3-3s3,1.343,3,3V81
			C183.821,82.657,182.479,84,180.821,84z"/>
	</g>
</g>
</svg>
