<?xml version="1.0" encoding="utf-8"?>
<!-- Generator: Adobe Illustrator 16.0.0, SVG Export Plug-In . SVG Version: 6.00 Build 0)  -->
<!DOCTYPE svg PUBLIC "-//W3C//DTD SVG 1.1 Tiny//EN" "http://www.w3.org/Graphics/SVG/1.1/DTD/svg11-tiny.dtd">
<svg version="1.1" baseProfile="tiny" id="Layer_1" xmlns="http://www.w3.org/2000/svg" xmlns:xlink="http://www.w3.org/1999/xlink"
	 x="0px" y="0px" width="300px" height="300px" viewBox="0 0 300 300" xml:space="preserve">
<g>
	<g>
		<circle fill="#D52029" cx="150" cy="150" r="131.6"/>
	</g>
	<path fill="#203382" d="M242.506,243.591c-8.105-41.379-63.465-35.163-71.816-34.25c-8.354-0.913-78.5-1.68-78.5,58.907
		c0,0,30.211,17.419,77.791,11.844C216.96,274.587,242.506,243.591,242.506,243.591z"/>
	<path fill="#F19574" d="M188.619,225.165c0,5.727-4.642,10.367-10.367,10.367h-13.178c-5.727,0-10.367-4.641-10.367-10.367v-52.949
		c0-5.725,4.641-10.365,10.367-10.365h13.178c5.726,0,10.367,4.641,10.367,10.365V225.165z"/>
	<path fill="#F3A285" d="M218.822,156.634c0,23.23-18.83,42.058-42.059,42.058h-12.305c-23.227,0-42.059-18.827-42.059-42.058
		v-55.875c0-23.229,18.832-42.058,42.059-42.058h12.305c23.229,0,42.059,18.829,42.059,42.058V156.634z"/>
	<g>
		<path fill="#F3A285" d="M124.18,115.047c-0.16-0.006-0.319-0.014-0.48-0.014c-8.701,0-15.756,7.057-15.756,15.758
			s7.055,15.756,15.756,15.756c0.161,0,0.32-0.007,0.48-0.011V115.047z"/>
		<path fill="#F08660" d="M124.18,122.665c-0.084-0.002-0.165-0.007-0.248-0.007c-4.49,0-8.131,3.641-8.131,8.133
			c0,4.491,3.641,8.131,8.131,8.131c0.083,0,0.164-0.004,0.248-0.006V122.665z"/>
	</g>
	<g>
		<path fill="#F3A285" d="M218.164,115.047c0.16-0.006,0.318-0.014,0.48-0.014c8.701,0,15.756,7.057,15.756,15.758
			s-7.055,15.756-15.756,15.756c-0.162,0-0.32-0.007-0.48-0.011V115.047z"/>
		<path fill="#F08660" d="M218.164,122.665c0.083-0.002,0.164-0.007,0.248-0.007c4.49,0,8.131,3.641,8.131,8.133
			c0,4.491-3.641,8.131-8.131,8.131c-0.084,0-0.165-0.004-0.248-0.006V122.665z"/>
	</g>
	<path fill="#F6B9A3" d="M180.018,137.67c0,1.205-0.977,2.182-2.182,2.182h-13.351c-1.204,0-2.182-0.977-2.182-2.182l0,0
		c0-1.205,0.978-2.181,2.182-2.181h13.351C179.041,135.489,180.018,136.465,180.018,137.67L180.018,137.67z"/>
	<path fill="#20275B" d="M150.214,126.489c0,3.206-2.599,2.206-5.806,2.206c-3.205,0-5.805,1-5.805-2.206s2.6-5.806,5.805-5.806
		C147.615,120.684,150.214,123.283,150.214,126.489z"/>
	<path fill="#20275B" d="M202.988,126.489c0,3.206-2.6,1.541-5.806,1.541s-5.806,1.665-5.806-1.541s2.6-5.806,5.806-5.806
		S202.988,123.283,202.988,126.489z"/>
	<path fill="#393A39" d="M122.4,115.033v17.262c0,0,5.438-7.283,5.438-23.326V97.991c0,0,1.477-11.821,10.766-11.821
		c0,0,9.553,5.91,32.008,5.91V49.715c0,0-52.062,0.147-52.062,45.321v20.862L122.4,115.033z"/>
	<path fill="#393A39" d="M218.503,115.033v17.262c0,0-5.437-7.283-5.437-23.326V97.991c0,0-1.479-11.821-10.767-11.821
		c0,0-9.552,5.91-32.007,5.91V49.715c0,0,52.061,0.147,52.061,45.321v20.862L218.503,115.033z"/>
	<path fill="#393A39" d="M153.712,112.295c0,1.512-1.226,2.738-2.738,2.738h-13.129c-1.513,0-2.738-1.226-2.738-2.738l0,0
		c0-1.512,1.226-2.738,2.738-2.738h13.129C152.486,109.557,153.712,110.783,153.712,112.295L153.712,112.295z"/>
	<path fill="#393A39" d="M206.485,112.295c0,1.512-1.226,2.738-2.738,2.738h-13.129c-1.513,0-2.738-1.226-2.738-2.738l0,0
		c0-1.512,1.226-2.738,2.738-2.738h13.129C205.26,109.557,206.485,110.783,206.485,112.295L206.485,112.295z"/>
	<path fill="#393A39" d="M146.271,54.731c0,0,3.942-13.745,27.26-10.751c18.252,2.344,25.729-2.425,25.729-2.425
		s7.225-2.666,7.225,5.719c0,0,0.583-6.288,5.674-6.288s15.654,18.664,6.005,34.313S146.271,54.731,146.271,54.731z"/>
	<path fill="#ED7448" d="M194.463,173.577c-1.205,2.597-2.863,4-5.726,4s-2.862-4-5.726-4c-2.861,0-2.861,4-5.722,4
		c-2.858,0-2.858-4-5.717-4c-2.86,0-2.86,4-5.72,4s-2.859-4-5.719-4s-2.859,4-5.719,4s-4.34-1.496-5.718-4
		c-4.37-7.942-3.942-19.577-3.942-19.577c0-3.989,3.942-4,3.942-4c2.858,0,2.858,4,5.718,4s2.859-4,5.719-4s2.859,4,5.719,4
		s2.859-4,5.72-4c2.858,0,2.858,4,5.717,4c2.86,0,2.86-4,5.722-4c2.863,0,2.863,4,5.726,4s2.862-4,5.726-4
		c0,0,4.12,0.079,4.12,4.271S198.428,165.036,194.463,173.577z"/>
	<path fill="#ED4146" d="M162.972,175.546c0,0,2.756-5.81,8.691-5.81s8.51,5.81,8.51,5.81s-1.222,2.031-2.883,2.031
		s-3.269-2.557-3.269-2.557s-0.312-1.443-2.448-1.443s-2.979,2.164-2.979,2.164s-1.071,1.836-2.741,1.836
		S162.972,175.546,162.972,175.546z"/>
	<path fill="#FFF2B6" d="M106.475,166.649c-4.016,0-6.157-2.162-7.722-3.74c-1.472-1.485-2.326-2.26-4.171-2.26
		c-1.847,0-2.7,0.775-4.173,2.26c-1.564,1.579-3.708,3.74-7.725,3.74c-4.016,0-6.157-2.162-7.722-3.74
		c-1.472-1.485-2.326-2.26-4.171-2.26c-1.848,0-2.703,0.775-4.176,2.261c-1.565,1.578-3.709,3.739-7.726,3.739
		s-6.16-2.161-7.726-3.739c-1.473-1.485-2.328-2.261-4.176-2.261c-1.381,0-2.5-1.119-2.5-2.5s1.119-2.5,2.5-2.5
		c4.018,0,6.161,2.162,7.727,3.74c1.473,1.485,2.327,2.26,4.175,2.26s2.702-0.775,4.175-2.26c1.565-1.578,3.709-3.74,7.727-3.74
		c4.016,0,6.157,2.162,7.722,3.74c1.472,1.485,2.326,2.26,4.171,2.26c1.847,0,2.701-0.775,4.174-2.26
		c1.564-1.578,3.708-3.74,7.724-3.74s6.157,2.162,7.722,3.74c1.472,1.485,2.326,2.26,4.171,2.26c1.381,0,2.5,1.119,2.5,2.5
		S107.855,166.649,106.475,166.649z"/>
	<path fill="#FFF2B6" d="M106.475,185.664c-4.016,0-6.157-2.162-7.722-3.74c-1.472-1.485-2.326-2.26-4.171-2.26
		c-1.847,0-2.7,0.775-4.173,2.26c-1.564,1.579-3.708,3.74-7.725,3.74c-4.016,0-6.157-2.162-7.722-3.74
		c-1.472-1.485-2.326-2.26-4.171-2.26c-1.848,0-2.703,0.775-4.176,2.261c-1.565,1.578-3.709,3.739-7.726,3.739
		s-6.16-2.161-7.726-3.739c-1.473-1.485-2.328-2.261-4.176-2.261c-1.381,0-2.5-1.119-2.5-2.5s1.119-2.5,2.5-2.5
		c4.018,0,6.161,2.162,7.727,3.74c1.473,1.485,2.327,2.26,4.175,2.26s2.702-0.775,4.175-2.26c1.565-1.578,3.709-3.74,7.727-3.74
		c4.016,0,6.157,2.162,7.722,3.74c1.472,1.485,2.326,2.26,4.171,2.26c1.847,0,2.701-0.775,4.174-2.26
		c1.564-1.578,3.708-3.74,7.724-3.74s6.157,2.162,7.722,3.74c1.472,1.485,2.326,2.26,4.171,2.26c1.381,0,2.5,1.119,2.5,2.5
		S107.855,185.664,106.475,185.664z"/>
</g>
</svg>
