<?xml version="1.0" encoding="utf-8"?>
<!-- Generator: Adobe Illustrator 16.0.0, SVG Export Plug-In . SVG Version: 6.00 Build 0)  -->
<!DOCTYPE svg PUBLIC "-//W3C//DTD SVG 1.1 Tiny//EN" "http://www.w3.org/Graphics/SVG/1.1/DTD/svg11-tiny.dtd">
<svg version="1.1" baseProfile="tiny" id="Layer_1" xmlns="http://www.w3.org/2000/svg" xmlns:xlink="http://www.w3.org/1999/xlink"
	 x="0px" y="0px" width="300px" height="300px" viewBox="0 0 300 300" xml:space="preserve">
<g>
	<g>
		<path fill="#FFD202" d="M281.601,150c0,72.681-58.918,131.6-131.602,131.6C77.319,281.6,18.4,222.681,18.4,150
			S77.319,18.4,149.999,18.4C222.683,18.4,281.601,77.319,281.601,150z"/>
	</g>
	<g>
		<path fill="#A28B7F" d="M83.812,171.538c0,0-2.623,0.036-7.213,0.1c-4.59,0.036-11.147,0.089-19.016,0.151
			c-3.881,0.007-8.085,0.014-12.532,0.021l-0.421,0.027l-0.196,0.046l-0.213,0.036l-0.319,0.077
			c-0.422,0.087-0.872,0.242-1.305,0.394c-0.886,0.303-1.715,0.755-2.479,1.239c-0.769,0.493-1.369,1.101-1.891,1.715
			c-0.434,0.654-0.806,1.313-0.938,2.068c-0.075,0.175-0.059,0.384-0.077,0.581l-0.051,0.599c0.073,0.434,0.04,0.849,0.152,1.306
			l0.165,0.689l0.076,0.348l0.01,0.043c-0.031-0.079,0.081,0.239-0.066-0.166l0.043,0.109l0.085,0.22l0.171,0.439
			c0.033,0.097,0.051,0.114,0.063,0.114c0.014,0.012,0.026,0.022,0.037,0.035c0.021,0.024,0.035,0.053,0.043,0.086l0.129,0.152
			c0.331,0.425,0.899,0.82,1.789,1.137c0.877,0.314,1.978,0.525,3.142,0.678c2.341,0.307,4.949,0.404,7.607,0.612
			c2.663,0.198,5.418,0.503,8.174,1.084c2.751,0.603,5.519,1.47,8.107,2.784c2.586,1.309,4.98,3.021,7.022,5.021
			c0.965,0.941,1.55,1.447,2.509,2.057c0.907,0.576,1.91,1.07,2.962,1.495c2.104,0.855,4.399,1.425,6.699,1.867
			c4.62,0.878,9.302,1.231,13.757,1.501c4.463,0.289,8.73,0.478,12.694,0.758c3.962,0.289,7.636,0.634,10.897,1.346
			c3.241,0.719,6.162,1.738,8.23,3.521c1.031,0.87,1.757,1.966,2.142,2.98c0.377,1.022,0.488,1.939,0.471,2.646
			c-0.002,0.71-0.07,1.238-0.134,1.583c-0.061,0.348-0.092,0.526-0.092,0.526c-0.102,0.585-0.659,0.978-1.245,0.876
			c-0.549-0.096-0.928-0.592-0.889-1.135l0.008-0.104c0,0,0.011-0.146,0.032-0.429c0.028-0.282,0.038-0.699-0.01-1.216
			c-0.097-1.036-0.508-2.448-2.039-3.575c-1.521-1.145-4.06-1.908-7.081-2.33c-3.036-0.417-6.571-0.622-10.467-0.678
			c-3.934-0.025-8.194-0.052-12.702-0.08c-4.547-0.112-9.385-0.267-14.467-1.052c-2.537-0.422-5.14-0.979-7.758-1.959
			c-1.307-0.489-2.617-1.083-3.892-1.845c-1.241-0.708-2.638-1.861-3.521-2.722c-1.668-1.59-3.574-2.913-5.662-3.938
			c-2.088-1.029-4.376-1.719-6.749-2.208c-2.386-0.47-4.86-0.72-7.408-0.876c-2.552-0.17-5.155-0.221-7.942-0.541
			c-1.395-0.171-2.843-0.397-4.389-0.919c-1.52-0.511-3.245-1.432-4.518-2.979c-0.597-0.602-1.327-2.104-1.423-2.438l-0.088-0.219
			l-0.044-0.109c-0.157-0.443-0.054-0.163-0.094-0.28l-0.019-0.071l-0.146-0.566l-0.277-1.134c-0.169-0.76-0.182-1.604-0.254-2.399
			c0.008-0.413,0.05-0.835,0.083-1.25c0.041-0.417,0.056-0.831,0.181-1.244c0.324-1.676,1.124-3.211,2.072-4.527
			c1.009-1.25,2.157-2.311,3.382-3.103c1.227-0.788,2.482-1.438,3.785-1.892c0.657-0.229,1.3-0.444,1.995-0.596l0.514-0.118
			c0.182-0.038,0.419-0.072,0.627-0.104l0.643-0.086l0.424-0.026c4.569-0.003,8.889-0.005,12.877-0.007
			c7.869,0.062,14.426,0.115,19.016,0.151c4.59,0.063,7.213,0.1,7.213,0.1c1.547,0.021,2.783,1.293,2.762,2.84
			C86.554,170.295,85.322,171.516,83.812,171.538z"/>
		<path fill="#704C3A" d="M210.189,136.656c0,0,0.083-0.089,0.24-0.256c0.165-0.176,0.406-0.42,0.711-0.714
			c0.612-0.595,1.505-1.413,2.638-2.314c0.561-0.458,1.185-0.931,1.861-1.408c0.658-0.501,1.411-0.948,2.158-1.45
			c0.778-0.455,1.569-0.946,2.41-1.379c0.847-0.421,1.687-0.883,2.581-1.234l1.319-0.562c0.451-0.156,0.899-0.312,1.345-0.467
			c0.882-0.332,1.779-0.565,2.648-0.779c0.859-0.251,1.715-0.388,2.523-0.516c0.402-0.067,0.795-0.133,1.174-0.196
			c0.384-0.03,0.754-0.059,1.11-0.087c0.711-0.045,1.36-0.113,1.937-0.125c0.578,0.016,1.081,0.028,1.496,0.039
			c0.826,0.021,1.299,0.034,1.299,0.034s-0.473,0.019-1.299,0.052c-0.412,0.017-0.912,0.037-1.486,0.06
			c-0.571,0.049-1.211,0.161-1.91,0.251c-0.348,0.051-0.711,0.104-1.087,0.157c-0.369,0.087-0.751,0.178-1.145,0.271
			c-0.786,0.178-1.612,0.367-2.439,0.67c-0.837,0.265-1.694,0.549-2.534,0.931c-0.422,0.179-0.849,0.359-1.276,0.54l-1.246,0.632
			c-0.844,0.396-1.63,0.901-2.421,1.361c-0.784,0.472-1.519,0.999-2.238,1.485c-0.689,0.533-1.384,1.008-1.985,1.533
			c-0.62,0.502-1.188,0.995-1.696,1.469c-1.026,0.935-1.824,1.77-2.359,2.363c-0.271,0.299-0.473,0.531-0.6,0.688
			c-0.137,0.165-0.209,0.254-0.209,0.254l-0.017,0.021c-0.352,0.427-0.982,0.488-1.409,0.138c-0.427-0.352-0.488-0.982-0.137-1.409
			C210.159,136.689,210.175,136.672,210.189,136.656z"/>
		<path fill="#704C3A" d="M211.463,137.773c0,0,0.109-0.055,0.313-0.157c0.216-0.108,0.525-0.255,0.912-0.427
			c0.78-0.348,1.899-0.81,3.273-1.268c0.684-0.237,1.432-0.467,2.231-0.683c0.79-0.245,1.651-0.405,2.524-0.62
			c0.888-0.16,1.799-0.351,2.737-0.469c0.939-0.104,1.887-0.25,2.848-0.272l1.433-0.075c0.478,0.008,0.952,0.016,1.423,0.023
			c0.471,0.017,0.938,0.003,1.397,0.043c0.459,0.046,0.912,0.091,1.357,0.135c0.894,0.06,1.743,0.225,2.547,0.382
			c0.401,0.075,0.793,0.148,1.171,0.22c0.37,0.104,0.728,0.203,1.071,0.299c0.684,0.202,1.316,0.36,1.862,0.548
			c0.537,0.212,1.006,0.397,1.392,0.55c0.769,0.305,1.208,0.479,1.208,0.479s-0.45-0.145-1.237-0.397
			c-0.393-0.126-0.869-0.278-1.416-0.454c-0.554-0.15-1.193-0.266-1.881-0.42c-0.344-0.072-0.703-0.148-1.074-0.226
			c-0.377-0.045-0.767-0.092-1.168-0.14c-0.8-0.103-1.641-0.209-2.521-0.209c-0.438-0.014-0.884-0.028-1.334-0.043
			c-0.45-0.011-0.907,0.033-1.366,0.048c-0.458,0.022-0.921,0.046-1.384,0.068l-1.388,0.165c-0.929,0.083-1.841,0.287-2.741,0.447
			c-0.898,0.174-1.769,0.417-2.612,0.627c-0.831,0.265-1.646,0.472-2.392,0.758c-0.754,0.258-1.457,0.526-2.097,0.797
			c-1.285,0.525-2.32,1.035-3.027,1.409c-0.357,0.188-0.626,0.337-0.8,0.439c-0.185,0.108-0.283,0.167-0.283,0.167l-0.023,0.013
			c-0.476,0.28-1.09,0.122-1.37-0.354s-0.121-1.09,0.355-1.37C211.424,137.795,211.444,137.783,211.463,137.773z"/>
		<path fill="#A28B7F" d="M172.953,170.595c0,0-0.816-10.594,3.234-10.594c4.049,0,8.73,5.513,11.16,13.337
			c2.432,7.822,7.414,4.094,11.145,7.826c3.732,3.733-5.279,2.834-11.145,2.834C181.48,183.998,172.953,182.434,172.953,170.595z"/>
		<path fill="#927769" d="M230.271,141.024c0,0-19.879-33.57-56.713-33.326c-30.694,0.202-90.624-3.801-100.563,45.604
			c0,0-4.971,23.095,11.401,31.279c16.371,8.187,89.746,7.31,112.257-21.924c0,0,10.814,1.755,15.785-7.309
			c0,0,13.492-0.718,18.709-5.937C231.148,149.412,234.051,145.431,230.271,141.024z"/>
		<path fill="#8A6D5E" d="M212.439,145.923c-17.341,18.618-24.434,13.099-24.434,13.099
			c-29.182,23.391-87.237,24.321-103.609,16.136c-8.349-4.175-11.144-12.223-11.88-19.112c-0.677,6.689-0.654,21.687,11.88,27.953
			c16.372,8.188,89.748,7.31,112.257-21.925c0,0,10.816,1.755,15.785-7.308c0,0,13.494-0.719,18.709-5.937
			c0,0,2.814-3.866-0.719-8.197C224.793,145.263,212.439,145.923,212.439,145.923z"/>
		<path fill="#927769" d="M177.359,111.573c0,0-5.848-25.726-26.896-21.049c-21.048,4.677-5.003,26.598,11.662,32.151
			L177.359,111.573z"/>
		<path fill="#866858" d="M173.287,112.772c0,0-8.172-22.268-20.289-19.04c-13.231,3.524-3.704,18.756,12.666,24.391
			c0,0-2.367-3.891,0.18-6.438S173.287,112.772,173.287,112.772z"/>
		<path fill="#927769" d="M183.33,108.444c0,0-4.803-18.488,2.215-18.488c7.016,0,8.74,6.739,8.74,21.361
			C194.285,125.937,181.994,113.17,183.33,108.444z"/>
		<path fill="#866858" d="M143.21,108.111c0,0,3.974,8.966,18.915,14.564c0,0-14.272,0.299-24.807-14.153L143.21,108.111z"/>
		<circle fill="#20275B" cx="191.829" cy="131.93" r="5.7"/>
		<path fill="#745240" d="M227.979,137.63c0,0-7.6,1.61-7.6,16.591c0,0,12.232-0.683,13.098-4.594
			C234.752,143.864,227.979,137.63,227.979,137.63z"/>
		<path fill="#FFFFFF" d="M214.484,154.875c0,0,3.689-0.142,5.895-0.654l-2.039,6.505h-2.467L214.484,154.875z"/>
		<path fill="#A28B7F" d="M158.893,177.88c0,0-0.816-4.421,3.232-4.421c4.051,0,8.729-0.658,11.162,7.164
			c2.43,7.824,7.41,4.094,11.143,7.826c3.734,3.734-5.277,2.835-11.143,2.835C167.42,191.284,158.893,189.72,158.893,177.88z"/>
		<path fill="#A28B7F" d="M77.875,179.429c0,0,11.365,9.603,36.434,6.616c0,0,6.963-3.435,11.203-0.785
			c4.238,2.649,11.184,0.276,11.806,4.809c1.262,9.163-3.814-0.355-9.481,2.215c-11.39,5.168-11.867-0.904-11.867-0.904
			S84.811,193.234,77.875,179.429z"/>
		<circle fill="#5C6187" cx="189.952" cy="130.667" r="1.946"/>
		<path fill="#704C3A" d="M193.745,145.336c0,0-0.095-0.064-0.273-0.184c-0.167-0.112-0.427-0.276-0.772-0.484
			c-0.684-0.415-1.688-0.984-2.94-1.583c-0.622-0.308-1.309-0.616-2.047-0.918c-0.728-0.329-1.529-0.584-2.343-0.897
			c-0.83-0.258-1.685-0.551-2.571-0.777c-0.89-0.212-1.789-0.469-2.71-0.605l-1.376-0.246c-0.462-0.05-0.922-0.1-1.378-0.148
			c-0.457-0.042-0.911-0.112-1.361-0.128c-0.45-0.012-0.896-0.023-1.334-0.034c-0.879-0.052-1.725,0.006-2.529,0.062
			c-0.402,0.024-0.794,0.048-1.174,0.071c-0.375,0.057-0.737,0.11-1.085,0.162c-0.695,0.115-1.341,0.193-1.902,0.311
			c-0.556,0.144-1.04,0.269-1.439,0.371c-0.801,0.207-1.259,0.325-1.259,0.325s0.448-0.147,1.234-0.407
			c0.394-0.13,0.872-0.287,1.42-0.469c0.557-0.155,1.197-0.276,1.892-0.438c0.349-0.076,0.712-0.155,1.088-0.237
			c0.381-0.049,0.775-0.1,1.181-0.151c0.812-0.11,1.669-0.226,2.564-0.232c0.448-0.018,0.903-0.036,1.363-0.055
			c0.461-0.014,0.927,0.026,1.397,0.037c0.471,0.021,0.945,0.04,1.422,0.061l1.426,0.158c0.958,0.078,1.896,0.279,2.828,0.438
			c0.929,0.172,1.828,0.414,2.704,0.626c0.86,0.266,1.71,0.477,2.484,0.767c0.785,0.262,1.52,0.535,2.188,0.812
			c1.345,0.536,2.436,1.062,3.193,1.456c0.376,0.193,0.677,0.357,0.886,0.479c0.198,0.115,0.304,0.176,0.304,0.176
			c0.479,0.277,0.642,0.89,0.365,1.368c-0.276,0.478-0.89,0.642-1.367,0.364c-0.019-0.01-0.036-0.021-0.054-0.033L193.745,145.336z"
			/>
		<path fill="#704C3A" d="M193.493,147.038c0,0-0.111-0.026-0.319-0.077c-0.196-0.049-0.496-0.114-0.893-0.19
			c-0.785-0.154-1.924-0.345-3.306-0.477c-0.69-0.075-1.44-0.129-2.237-0.158c-0.797-0.06-1.637-0.023-2.509-0.038
			c-0.868,0.043-1.771,0.061-2.682,0.154c-0.908,0.105-1.841,0.174-2.754,0.361l-1.376,0.242c-0.451,0.111-0.9,0.223-1.346,0.333
			c-0.443,0.118-0.894,0.208-1.321,0.348c-0.428,0.144-0.85,0.286-1.265,0.427c-0.844,0.253-1.618,0.598-2.354,0.926
			c-0.37,0.162-0.729,0.318-1.078,0.471c-0.333,0.182-0.655,0.357-0.964,0.525c-0.613,0.347-1.192,0.642-1.68,0.944
			c-0.473,0.326-0.885,0.61-1.225,0.844c-0.681,0.47-1.07,0.737-1.07,0.737s0.37-0.293,1.02-0.807
			c0.325-0.257,0.72-0.569,1.173-0.928c0.469-0.337,1.029-0.671,1.626-1.061c0.301-0.191,0.615-0.391,0.939-0.597
			c0.342-0.177,0.694-0.359,1.058-0.548c0.724-0.382,1.49-0.785,2.329-1.1c0.414-0.17,0.835-0.344,1.261-0.52
			c0.429-0.172,0.88-0.293,1.325-0.444c0.449-0.144,0.902-0.288,1.356-0.433l1.393-0.342c0.928-0.254,1.877-0.388,2.807-0.559
			c0.933-0.158,1.859-0.239,2.756-0.342c0.898-0.046,1.769-0.14,2.597-0.133c0.827-0.024,1.61-0.02,2.334,0.011
			c1.446,0.042,2.652,0.161,3.499,0.271c0.42,0.053,0.759,0.103,0.997,0.145c0.225,0.04,0.345,0.062,0.345,0.062
			c0.545,0.095,0.909,0.614,0.813,1.159c-0.096,0.544-0.615,0.908-1.159,0.812c-0.021-0.004-0.041-0.008-0.062-0.014
			L193.493,147.038z"/>
	</g>
	<path fill="#FFF8D8" d="M237.641,118.394c-0.768,0-1.535-0.293-2.121-0.879c-1.172-1.171-1.172-3.071,0-4.242l10.233-10.233
		c1.172-1.172,3.07-1.172,4.242,0c1.172,1.171,1.172,3.071,0,4.242l-10.233,10.233C239.176,118.101,238.408,118.394,237.641,118.394
		z"/>
	<path fill="#FFF8D8" d="M259.088,129.68h-11.214c-1.657,0-3-1.343-3-3s1.343-3,3-3h11.214c1.657,0,3,1.343,3,3
		S260.745,129.68,259.088,129.68z"/>
	<path fill="#FFF8D8" d="M227.9,109.163c-1.657,0-3-1.343-3-3V94.95c0-1.657,1.343-3,3-3s3,1.343,3,3v11.213
		C230.9,107.82,229.558,109.163,227.9,109.163z"/>
	<path fill="#8A6D5E" d="M196.826,162.475c0,0-12.872-1.757-15.1-12.475c0,0-4.271,11.914,6.279,20.361L196.826,162.475z"/>
</g>
</svg>
