<?xml version="1.0" encoding="utf-8"?>
<!-- Generator: Adobe Illustrator 17.0.0, SVG Export Plug-In . SVG Version: 6.00 Build 0)  -->
<!DOCTYPE svg PUBLIC "-//W3C//DTD SVG 1.1//EN" "http://www.w3.org/Graphics/SVG/1.1/DTD/svg11.dtd">
<svg version="1.1" id="Layer_1" xmlns="http://www.w3.org/2000/svg" xmlns:xlink="http://www.w3.org/1999/xlink" x="0px" y="0px"
	 width="512px" height="512px" viewBox="0 0 512 512" enable-background="new 0 0 512 512" xml:space="preserve">
<g>
	<path fill="#FFD400" d="M256,31C131.747,31,31,131.747,31,256s100.747,225,225,225s225-100.747,225-225S380.253,31,256,31z"/>
	<g>
		<path fill="#3A88D6" d="M357.077,186.846H304.51h-52.567h-52.567h-52.567h-35.874v-35.973c0-7.992,6.472-14.463,14.456-14.463
			h16.033c4.681,0,9.221-1.122,13.277-3.196c4.056-2.067,7.622-5.086,10.364-8.88c5.483-7.587,14.278-12.077,23.64-12.077h126.474
			c9.355,0,18.15,4.489,23.634,12.076c5.491,7.587,14.279,12.076,23.641,12.076h16.033c7.984,0,14.463,6.472,14.463,14.463v35.973
			L357.077,186.846L357.077,186.846z"/>
		<g>
			<path fill="#4D4D4D" d="M146.805,228.985c-1.962,0-3.552-1.591-3.552-3.552v-62.029c0-1.961,1.59-3.552,3.552-3.552
				c1.962,0,3.552,1.591,3.552,3.552v62.03C150.357,227.394,148.767,228.985,146.805,228.985z"/>
			<path fill="#4D4D4D" d="M199.373,228.985c-1.962,0-3.552-1.591-3.552-3.552v-62.029c0-1.961,1.59-3.552,3.552-3.552
				s3.552,1.591,3.552,3.552v62.03C202.925,227.394,201.335,228.985,199.373,228.985z"/>
			<path fill="#4D4D4D" d="M251.94,228.985c-1.962,0-3.552-1.591-3.552-3.552v-62.029c0-1.961,1.59-3.552,3.552-3.552
				c1.962,0,3.552,1.591,3.552,3.552v62.03C255.492,227.394,253.902,228.985,251.94,228.985z"/>
			<path fill="#4D4D4D" d="M304.507,228.985c-1.962,0-3.552-1.591-3.552-3.552v-62.029c0-1.961,1.59-3.552,3.552-3.552
				c1.962,0,3.552,1.591,3.552,3.552v62.03C308.059,227.394,306.47,228.985,304.507,228.985z"/>
			<path fill="#4D4D4D" d="M357.075,228.985c-1.962,0-3.552-1.591-3.552-3.552v-62.029c0-1.961,1.59-3.552,3.552-3.552
				c1.962,0,3.552,1.591,3.552,3.552v62.03C360.627,227.394,359.037,228.985,357.075,228.985z"/>
		</g>
		<g>
			<polygon fill="#FFFCF8" points="159.949,214.55 159.949,301.926 133.665,301.926 133.665,214.55 146.808,214.55 			"/>
			<polygon fill="#FFFCF8" points="212.517,214.55 212.517,328.493 186.233,328.493 186.233,214.55 199.375,214.55 			"/>
			<polygon fill="#FFFCF8" points="265.084,214.55 265.084,357.832 238.801,357.832 238.801,214.55 251.942,214.55 			"/>
			<polygon fill="#FFFCF8" points="317.652,214.55 317.652,381.537 291.368,381.537 291.368,214.55 304.51,214.55 			"/>
			<polygon fill="#FFFCF8" points="370.219,214.55 370.219,400.738 343.935,400.738 343.935,214.55 357.077,214.55 			"/>
		</g>
		<g opacity="0.25">
			<rect x="148.584" y="214.55" fill="#4D4D4D" width="11.366" height="87.375"/>
			<rect x="201.151" y="214.55" fill="#4D4D4D" width="11.366" height="113.943"/>
			<rect x="253.718" y="214.55" fill="#4D4D4D" width="11.366" height="143.282"/>
			<rect x="306.286" y="214.55" fill="#4D4D4D" width="11.366" height="166.987"/>
			<rect x="358.853" y="214.55" fill="#4D4D4D" width="11.366" height="186.188"/>
		</g>
	</g>
</g>
</svg>
