<?xml version="1.0" encoding="utf-8"?>
<!-- Generator: Adobe Illustrator 17.0.0, SVG Export Plug-In . SVG Version: 6.00 Build 0)  -->
<!DOCTYPE svg PUBLIC "-//W3C//DTD SVG 1.1//EN" "http://www.w3.org/Graphics/SVG/1.1/DTD/svg11.dtd">
<svg version="1.1" id="Layer_1" xmlns="http://www.w3.org/2000/svg" xmlns:xlink="http://www.w3.org/1999/xlink" x="0px" y="0px"
	 width="512px" height="512px" viewBox="0 0 512 512" enable-background="new 0 0 512 512" xml:space="preserve">
<g>
	<path fill="#2D333B" d="M256,31C131.747,31,31,131.747,31,256s100.747,225,225,225s225-100.747,225-225S380.253,31,256,31z"/>
	<g>
		<path fill="#F3F3F3" d="M346.701,309.58H165.299c-5.337,0-9.663-4.326-9.663-9.663V118.514c0-5.337,4.326-9.663,9.663-9.663
			h181.402c5.337,0,9.663,4.326,9.663,9.663v181.402C356.364,305.253,352.038,309.58,346.701,309.58z"/>
		<g>
			<g>
				<path fill="#F7F8F8" d="M346.701,108.851H256h-90.701c-5.337,0-9.663,4.326-9.663,9.663v90.701v90.701
					c0,2.668,1.082,5.084,2.83,6.833L256,209.215l97.534-97.534C351.785,109.933,349.37,108.851,346.701,108.851z"/>
				<path fill="#F2F2F2" d="M353.534,111.681c-1.554-1.554-4.117-2.1-6.489-2.1l-85.625,5.002l-85.627,5.003
					c-2.359,0-4.912,1.367-6.464,2.907c-1.569,1.556-2.959,4.132-2.959,6.517l-5.001,85.625l-5.002,85.626
					c0,2.372,0.546,4.935,2.1,6.489c0.194,0.194,3.788-3.011,4.085-3.011l50.093-40.015l50.106-40.028
					c0.295,0,3.891-3.448,4.085-3.64c0.196-0.195,3.661-3.807,3.661-4.105l40.012-50.09l40.019-50.097
					C350.526,115.467,353.728,111.876,353.534,111.681z"/>
				<path fill="#EDEDEC" d="M353.534,111.681c-1.36-1.36-4.07-1.37-6.146-1.37l-80.549,10.004l-80.552,10.007
					c-2.064,0-4.766,1.664-6.124,3.011c-1.373,1.362-3.059,4.086-3.059,6.172L167.1,220.054l-10.005,80.55
					c0,2.075,0.011,4.785,1.371,6.145c0.389,0.389,3.835-2.281,4.428-2.281l55.169-35.013l55.18-35.024
					c0.59,0,4.037-3.15,4.425-3.535c0.392-0.389,3.56-3.854,3.56-4.45l35.01-55.166l35.017-55.173
					C351.256,115.514,353.923,112.07,353.534,111.681z"/>
				<path fill="#E8E8E7" d="M353.534,111.681c-1.166-1.166-4.023-0.64-5.802-0.64l-75.473,15.006l-75.478,15.01
					c-1.769,0-4.62,1.962-5.784,3.116c-1.177,1.167-3.159,4.039-3.159,5.828l-15.004,75.472l-15.007,75.475
					c0,1.779-0.525,4.635,0.641,5.801c0.583,0.583,3.882-1.551,4.772-1.551l60.245-30.011l60.254-30.021
					c0.885,0,4.182-2.853,4.765-3.43c0.588-0.584,3.46-3.9,3.46-4.794l30.009-60.243l30.015-60.248
					C351.986,115.561,354.117,112.264,353.534,111.681z"/>
				<path fill="#E3E3E2" d="M353.534,111.681c-0.971-0.971-3.976,0.09-5.459,0.09l-70.397,20.007l-70.403,20.014
					c-1.474,0-4.474,2.259-5.445,3.221c-0.981,0.973-3.26,3.993-3.26,5.483l-20.006,70.396l-20.01,70.399
					c0,1.482-1.06,4.486-0.089,5.457c0.777,0.777,3.929-0.821,5.115-0.821l65.321-25.009l65.329-25.017
					c1.179,0,4.328-2.556,5.105-3.326c0.785-0.778,3.36-3.946,3.36-5.139l25.008-65.319l25.012-65.324
					C352.715,115.609,354.311,112.459,353.534,111.681z"/>
				<path fill="#DFDEDE" d="M353.534,111.681c-0.777-0.777-3.929,0.821-5.115,0.821l-65.321,25.009l-65.329,25.017
					c-1.18,0-4.328,2.556-5.105,3.326c-0.785,0.778-3.36,3.946-3.36,5.139l-25.007,65.319l-25.012,65.324
					c0,1.186-1.596,4.336-0.819,5.113c0.971,0.971,3.976-0.09,5.459-0.09l70.397-20.007l70.403-20.014
					c1.474,0,4.474-2.259,5.444-3.221c0.981-0.973,3.26-3.993,3.26-5.483l20.006-70.396l20.01-70.399
					C353.445,115.656,354.505,112.653,353.534,111.681z"/>
				<path fill="#DADAD9" d="M353.534,111.681c-0.583-0.583-3.882,1.551-4.772,1.551l-60.245,30.011l-60.254,30.021
					c-0.885,0-4.183,2.853-4.765,3.43c-0.588,0.584-3.46,3.9-3.46,4.794l-30.009,60.243l-30.015,60.248
					c0,0.889-2.131,4.187-1.549,4.77c1.166,1.166,4.023,0.64,5.802,0.64l75.473-15.006l75.478-15.01c1.769,0,4.62-1.961,5.784-3.116
					c1.177-1.167,3.159-4.039,3.159-5.828l15.004-75.472l15.007-75.475C354.175,115.704,354.7,112.847,353.534,111.681z"/>
				<path fill="#D5D5D4" d="M353.534,111.681c-0.389-0.389-3.835,2.281-4.428,2.281l-55.169,35.013L238.757,184
					c-0.59,0-4.037,3.15-4.425,3.535c-0.392,0.389-3.56,3.854-3.56,4.45l-35.01,55.166l-35.017,55.173
					c0,0.593-2.667,4.037-2.278,4.426c1.36,1.36,4.07,1.37,6.146,1.37l80.549-10.004l80.552-10.007c2.064,0,4.766-1.664,6.124-3.011
					c1.373-1.362,3.059-4.086,3.059-6.172l10.003-80.548l10.005-80.55C354.905,115.751,354.894,113.042,353.534,111.681z"/>
				<path fill="#D1D1D0" d="M353.534,111.681c-0.194-0.194-3.788,3.011-4.085,3.011l-50.093,40.015l-50.106,40.028
					c-0.295,0-3.891,3.448-4.085,3.64c-0.196,0.195-3.661,3.807-3.661,4.105l-40.012,50.09l-40.019,50.097
					c0,0.296-3.202,3.887-3.008,4.082c1.554,1.554,4.117,2.1,6.489,2.1l85.625-5.002l85.627-5.003c2.359,0,4.912-1.367,6.464-2.907
					c1.569-1.556,2.959-4.132,2.959-6.517l5.001-85.625l5.002-85.626C355.634,115.798,355.088,113.236,353.534,111.681z"/>
				<path fill="#CDCCCC" d="M353.534,111.681L256,209.215l-97.534,97.534c1.749,1.749,4.164,2.83,6.833,2.83H256h90.701
					c5.337,0,9.663-4.326,9.663-9.663v-90.701v-90.701C356.364,115.846,355.283,113.43,353.534,111.681z"/>
			</g>
		</g>
		<path fill="#F3F3F3" d="M165.299,306.022c-3.367,0-6.106-2.739-6.106-6.106V118.514c0-3.367,2.739-6.106,6.106-6.106h181.402
			c3.367,0,6.106,2.739,6.106,6.106v181.402c0,3.366-2.739,6.106-6.106,6.106H165.299z"/>
		<circle fill="#676767" cx="317.941" cy="208.585" r="6.165"/>
		<path fill="#818181" d="M278.129,255.603h-44.258c-1.957,0-3.544-1.587-3.544-3.544v-85.688c0-1.957,1.587-3.544,3.544-3.544
			h44.258c1.957,0,3.544,1.587,3.544,3.544v85.688C281.673,254.016,280.086,255.603,278.129,255.603z"/>
		<g>
			<path fill="#EBEBEB" d="M233.871,257.026c-2.739,0-4.967-2.228-4.967-4.967v-85.688c0-2.739,2.228-4.967,4.967-4.967h44.258
				c2.739,0,4.966,2.228,4.966,4.967v85.688c0,2.739-2.228,4.967-4.966,4.967H233.871z"/>
		</g>
		<path fill="#676767" d="M233.871,257.026c-2.739,0-4.967-2.228-4.967-4.967v-85.688c0-2.739,2.228-4.967,4.967-4.967h44.258
			c2.739,0,4.966,2.228,4.966,4.967v85.688c0,2.739-2.228,4.967-4.966,4.967H233.871z"/>
		<path fill="#989898" d="M278.129,255.603h-44.258c-1.957,0-3.544-1.587-3.544-3.544v-85.688c0-1.957,1.587-3.544,3.544-3.544
			h44.258c1.957,0,3.544,1.587,3.544,3.544v85.688C281.673,254.016,280.086,255.603,278.129,255.603z"/>
		<g>
			<path fill="#F3F3F3" d="M281.673,166.372c0-1.957-1.587-3.544-3.544-3.544h-44.258c-1.957,0-3.544,1.587-3.544,3.544v42.844
				h51.346V166.372z"/>
			<path fill="#BE202E" d="M281.673,167.794c0-1.957-1.587-3.544-3.544-3.544h-44.258c-1.957,0-3.544,1.587-3.544,3.544v41.421
				h51.346V167.794z"/>
			<path fill="#EB2227" d="M230.327,209.215v37.153c0,1.957,1.587,3.544,3.544,3.544h44.258c1.957,0,3.544-1.587,3.544-3.544
				v-37.153H230.327z"/>
		</g>
		<circle fill="#676767" cx="194.266" cy="208.585" r="6.165"/>
	</g>
	<g>
		<g>
			<g>
				<path fill="#DD8C7F" d="M321.933,452.79h-74.061l0.11-5.263c0.219-10.441,0.676-32.168-0.929-37.944
					c-0.586-2.103-3.071-4.994-5.949-8.342c-6.351-7.387-15.947-18.55-15.95-34.502l-0.001-40.888c0-2.035,0.66-5.307,5.801-12.619
					c2.99-4.464,5.244-7.282,6.633-8.883l-0.003-69.243c0.002-8.811,7.015-15.978,15.634-15.978
					c8.622,0.001,15.636,7.169,15.636,15.978v37.201c3.269-1.475,6.973-2.043,10.812-1.589c0.232,0.027,0.456,0.066,0.68,0.11
					c7.246,0.997,12.803,7.009,13.472,14.334c3.023-1.166,6.369-1.578,9.817-1.171c0.361,0.043,0.668,0.099,0.91,0.146
					c8.133,0.629,14.446,7.544,14.446,15.919v3.036c2.881-1.198,6.155-1.73,9.612-1.488c8.582,0.047,15.549,7.197,15.549,15.977
					v21.989h-0.03l0.006,28.747c0.078,1.855,0.364,14.739-5.937,25.35c-2.736,4.61-5.989,8.495-8.86,11.922
					c-3.058,3.653-5.692,6.799-6.401,9.355c-1.194,4.296-1.069,25.645-1.027,32.661L321.933,452.79z M258.392,442.481h53.181
					c-0.034-17.897,0.384-26.554,1.424-30.295c1.305-4.703,4.762-8.832,8.42-13.203c2.629-3.139,5.598-6.684,7.909-10.577
					c4.885-8.226,4.522-19.146,4.501-19.683l-0.008-0.291l-0.009-39.17h0.033v-11.681c0-3.091-2.336-5.612-5.228-5.668
					c-0.054,0.002-0.108,0.003-0.163,0.003l-0.416-0.017c-4.427-0.353-8.012,1.572-9.426,5.045l-9.928,24.384v-41.272
					c0-3.022-2.227-5.504-5.069-5.65l-0.348-0.018l-0.593-0.113c-0.083-0.017-0.165-0.035-0.252-0.047
					c-0.467-0.055-0.941-0.083-1.399-0.083c-4.189,0-6.69,2.342-8.051,4.308l-9.392,13.564v-25.361
					c0.001-2.864-2.014-5.28-4.687-5.621l-0.163-0.023c-0.122-0.019-0.24-0.042-0.359-0.065c-0.45-0.049-0.889-0.074-1.315-0.074
					c-5.107,0-7.702,3.472-8.794,5.542l-9.713,18.404v-69.711c0-3.126-2.39-5.67-5.328-5.67c-2.935,0-5.324,2.544-5.325,5.671
					l0.003,74.641l-1.581,1.27l-6.307,7.226c-0.171,0.251-0.344,0.508-0.521,0.772l-0.069,0.1c-3.238,4.599-3.86,6.547-3.956,6.91
					l0.001,40.712c0.001,12.131,7.463,20.81,13.458,27.783c3.682,4.282,6.861,7.981,8.063,12.3
					C258.65,412.813,258.665,427.266,258.392,442.481z"/>
			</g>
			<g>
				<g>
					<path fill="#DD8C7F" d="M328.502,339.742v-19.997c0-7.09,7.425-12.153,0.604-12.94c-10.052-1.159-16.223,5.851-16.223,12.941
						v11.021"/>
				</g>
				<g>
					<path fill="#DD8C7F" d="M311.807,342.322v-37.144c0-8.034-1.049-15.161-8.774-16.07c-10.953-1.288-17.375,8.037-17.373,16.07
						v28.819"/>
				</g>
				<g>
					<path fill="#DD8C7F" d="M287.84,329.05v-37.144c0-8.034-1.05-15.161-8.774-16.07c-10.953-1.288-17.374,8.037-17.373,16.07
						v28.819"/>
				</g>
				<g>
					<path fill="#E59885" d="M234.224,332.92c-1.419-6.443-2.706-11.855,2.963-19.328c5.67-7.474,14.69-14.561,14.69-14.561
						s1.03,27.704,1.803,30.668c0.773,2.963,1.933,5.669-1.159,7.86c-3.092,2.19-10.052,0.773-11.598,0.902
						C239.378,338.59,234.224,332.92,234.224,332.92z"/>
				</g>
				<g>
					<path fill="#FCCAB4" d="M230.308,325.851c0-2.986,4.727-10.036,10.372-16.79l0.001,25.018l2.061-0.001l-0.003-98.971
						c0.001-5.969,4.702-10.824,10.48-10.824c5.779,0.001,10.482,4.855,10.482,10.824v50.504c-0.019,0.347-0.053,0.692-0.053,1.044
						l0.003,27.835h0.05h4.072h0.053l-0.001-28.887c0.513-5.477,4.993-9.772,10.427-9.772c5.779-0.001,10.482,4.854,10.48,10.824
						l0.002,29.897h0.02v4.123h4.122v-20.618c-0.001-5.97,4.7-10.825,10.48-10.825c5.779,0,10.481,4.854,10.481,10.825v26.803h0.077
						h4.048h0.076v-9.277c0-5.97,4.701-10.825,10.48-10.825c5.779-0.001,10.481,4.854,10.481,10.823v16.835h-0.031l0.007,34.015
						c0.008,0.121,0.635,12.755-5.214,22.605c-2.524,4.253-5.636,7.969-8.382,11.248c-3.436,4.105-6.405,7.65-7.414,11.282
						c-1.277,4.596-1.288,21.628-1.215,34.07h-63.613c0.277-13.185,0.662-33.033-1.116-39.432c-0.893-3.209-3.59-6.348-7.006-10.322
						c-6.205-7.217-14.702-17.102-14.704-31.143L230.308,325.851z"/>
				</g>
				<g>
					<path fill="#F9AE9C" d="M242.727,306.376c0,0,0,19.197,0,22.163c0,2.718-11.086-9.449-11.086-9.449s0.198-0.343,0.305-0.516
						C238.261,308.524,242.727,306.376,242.727,306.376z"/>
				</g>
				<g>
					<path fill="#DD8C7F" d="M238.82,293.639c0,0-0.517,41.086,0.858,44.179c1.376,3.092,3.007,2.663,3.007,2.663v-39.883
						L238.82,293.639z"/>
				</g>
				<g>
					<path fill="#FCCAB4" d="M318.021,322.848c0,1.163-0.942,2.105-2.103,2.105c-1.165,0-2.105-0.942-2.105-2.105v5.253h4.254
						L318.021,322.848z"/>
				</g>
				<g>
					<path fill="#FCCAB4" d="M292.938,316.663c0,1.163-0.943,2.105-2.104,2.105c-1.164,0-2.104-0.942-2.104-2.105v5.252h4.253
						L292.938,316.663z"/>
				</g>
				<g>
					<path fill="#FCCAB4" d="M267.854,311.208c0,1.163-0.942,2.104-2.104,2.104c-1.163,0-2.104-0.941-2.104-2.104v5.251h4.253
						L267.854,311.208z"/>
				</g>
			</g>
			<g>
				<g>
					<path fill="#FABCAA" d="M262.412,450.815c0,0-0.042-28.823-2.062-36.094c-1.508-5.427-5.496-11.593-9.581-16.344
						c-5.724-6.658-20.884-21.558-21.227-41.833l-2.406,12.257c0.001,17.862,10.163,26.512,17.008,34.476
						c1.908,2.219,5.928,7.732,5.154,14.948c0.788,3.285,2.893,4.049,2.32,31.255L262.412,450.815z"/>
				</g>
			</g>
			<g>
				<path fill="#F9AE9C" d="M297.406,305.517c0,7.388-0.517,10.824-3.265,11.511c-0.448,0.112-0.869,0.217-1.265,0.306v-17.278
					c-0.001-5.97,4.7-10.825,10.48-10.825c0.176,0,0.347,0.017,0.522,0.027C298.952,289.259,297.406,298.129,297.406,305.517z"/>
			</g>
			<g>
				<path fill="#F9AE9C" d="M322.147,312.947c0,7.388-0.517,9.315-3.265,10.002c-0.448,0.112-0.869,0.217-1.265,0.306v-6.578
					c-0.001-5.968,3.476-11.204,9.254-11.205c0.177,0,1.759,1.28,1.934,1.289C324.868,306.227,322.147,310.591,322.147,312.947z"/>
			</g>
			<g>
				<path fill="#F9AE9C" d="M272.149,291.857c0,11.813-0.515,19.072-3.263,19.759c-0.448,0.112-0.869,0.216-1.266,0.306v-25.526
					c-0.001-5.968,4.701-10.824,10.48-10.824c0.176,0,0.347,0.018,0.522,0.027C273.696,275.601,272.149,284.47,272.149,291.857z"/>
			</g>
		</g>
		<g>
			<g>
				<polygon fill="#E59885" points="321.588,420.782 248.281,420.464 248.242,432.685 321.463,428.026 				"/>
			</g>
			<g>
				<path fill="#FFF8E7" d="M243.632,461.096c0.01,0.666,0.562,1.206,1.228,1.199l82.062-0.789c0.666-0.006,1.203-0.557,1.194-1.222
					l-0.493-34.358c-0.01-0.666-0.562-1.206-1.228-1.199l-82.062,0.788c-0.666,0.006-1.203,0.556-1.194,1.222L243.632,461.096z"/>
			</g>
			<g>
				<path fill="#44526B" d="M239.61,478.612c0.009,0.666,18.106,2.388,18.772,2.388l16.361-0.77l18.904-2.367l24.913-5.678
					c0.666,0,10.76-3.7,10.751-4.366l0.905-33.924c-0.009-0.666-0.562-1.211-1.228-1.211h-87.569c-0.666,0-1.203,0.545-1.194,1.211
					L239.61,478.612z"/>
			</g>
		</g>
	</g>
	<g>
		
			<linearGradient id="SVGID_1_" gradientUnits="userSpaceOnUse" x1="-116.0849" y1="382.5762" x2="-112.5687" y2="388.4364" gradientTransform="matrix(2.1334 0 0 2.1334 501.548 -664.5164)">
			<stop  offset="0" style="stop-color:#FDC20F"/>
			<stop  offset="0.268" style="stop-color:#FEBB12"/>
			<stop  offset="0.659" style="stop-color:#FAA819"/>
			<stop  offset="1" style="stop-color:#F7911E"/>
		</linearGradient>
		<circle fill="url(#SVGID_1_)" cx="254.585" cy="152.821" r="4.359"/>
		
			<linearGradient id="SVGID_2_" gradientUnits="userSpaceOnUse" x1="-112.5959" y1="385.7581" x2="-117.2706" y2="381.0834" gradientTransform="matrix(2.1334 0 0 2.1334 501.548 -664.5164)">
			<stop  offset="0" style="stop-color:#FDC20F;stop-opacity:0"/>
			<stop  offset="0.203" style="stop-color:#FEBB12;stop-opacity:0.203"/>
			<stop  offset="0.499" style="stop-color:#FAA71A;stop-opacity:0.499"/>
			<stop  offset="0.852" style="stop-color:#F6891F;stop-opacity:0.852"/>
			<stop  offset="1" style="stop-color:#F47821"/>
		</linearGradient>
		<path fill="url(#SVGID_2_)" d="M254.585,148.461c-2.271,0-4.135,1.736-4.34,3.954l4.746,4.746c2.217-0.205,3.954-2.069,3.954-4.34
			C258.944,150.413,256.993,148.461,254.585,148.461z"/>
		
			<linearGradient id="SVGID_3_" gradientUnits="userSpaceOnUse" x1="-117.8099" y1="377.7936" x2="-109.0331" y2="392.4218" gradientTransform="matrix(2.1334 0 0 2.1334 501.548 -664.5164)">
			<stop  offset="0" style="stop-color:#FDC20F"/>
			<stop  offset="0.268" style="stop-color:#FEBB12"/>
			<stop  offset="0.659" style="stop-color:#FAA819"/>
			<stop  offset="1" style="stop-color:#F7911E"/>
		</linearGradient>
		<path fill="url(#SVGID_3_)" d="M268.87,145.218H240.3c-1.951,0-3.533,1.582-3.533,3.533s1.582,3.533,3.533,3.533h28.571
			c1.951,0,3.533-1.582,3.533-3.533S270.822,145.218,268.87,145.218z"/>
		
			<linearGradient id="SVGID_4_" gradientUnits="userSpaceOnUse" x1="-117.8375" y1="374.341" x2="-109.83" y2="381.8835" gradientTransform="matrix(2.1334 0 0 2.1334 501.548 -664.5164)">
			<stop  offset="0" style="stop-color:#FDC20F"/>
			<stop  offset="0.268" style="stop-color:#FEBB12"/>
			<stop  offset="0.659" style="stop-color:#FAA819"/>
			<stop  offset="1" style="stop-color:#F7911E"/>
		</linearGradient>
		<path fill="url(#SVGID_4_)" d="M266.825,142.553v-7.082c0-5.728-3.934-10.535-9.247-11.87c0.303-0.516,0.479-1.116,0.479-1.758
			c0-1.917-1.554-3.472-3.472-3.472c-1.917,0-3.472,1.554-3.472,3.472c0,0.641,0.175,1.242,0.479,1.758
			c-5.313,1.335-9.246,6.142-9.246,11.87v7.082c0,1.533-1.243,2.776-2.776,2.776H269.6
			C268.067,145.329,266.825,144.086,266.825,142.553z M254.585,123.23c-0.767,0-1.389-0.621-1.389-1.388
			c0-0.768,0.622-1.389,1.389-1.389s1.389,0.621,1.389,1.389C255.974,122.609,255.352,123.23,254.585,123.23z"/>
		
			<linearGradient id="SVGID_5_" gradientUnits="userSpaceOnUse" x1="-112.546" y1="381.7035" x2="-125.9814" y2="383.4115" gradientTransform="matrix(2.1334 0 0 2.1334 501.548 -664.5164)">
			<stop  offset="0" style="stop-color:#FDC20F;stop-opacity:0"/>
			<stop  offset="0.203" style="stop-color:#FEBB12;stop-opacity:0.203"/>
			<stop  offset="0.499" style="stop-color:#FAA71A;stop-opacity:0.499"/>
			<stop  offset="0.852" style="stop-color:#F6891F;stop-opacity:0.852"/>
			<stop  offset="1" style="stop-color:#F47821"/>
		</linearGradient>
		<path fill="url(#SVGID_5_)" d="M236.81,149.453c0.267,1.687,1.727,2.977,3.489,2.818h28.571c1.762,0.159,3.222-1.131,3.489-2.818
			H236.81z"/>
	</g>
</g>
</svg>
