<?xml version="1.0" encoding="utf-8"?>
<!-- Generator: Adobe Illustrator 16.0.0, SVG Export Plug-In . SVG Version: 6.00 Build 0)  -->
<!DOCTYPE svg PUBLIC "-//W3C//DTD SVG 1.1 Tiny//EN" "http://www.w3.org/Graphics/SVG/1.1/DTD/svg11-tiny.dtd">
<svg version="1.1" baseProfile="tiny" id="Layer_1" xmlns="http://www.w3.org/2000/svg" xmlns:xlink="http://www.w3.org/1999/xlink"
	 x="0px" y="0px" width="300px" height="300px" viewBox="0 0 300 300" xml:space="preserve">
<g>
	<circle fill="#163A6C" cx="150" cy="150" r="131.6"/>
	<path fill="#FFFFFF" d="M157.486,135.728H38.281c-1.933,0-3.5-1.567-3.5-3.5s1.567-3.5,3.5-3.5h119.205
		c10.927,0,19.816-8.889,19.816-19.816s-8.89-19.816-19.816-19.816c-5.892,0-11.438,2.597-15.218,7.125
		c-1.237,1.484-3.444,1.682-4.93,0.444c-1.483-1.239-1.683-3.446-0.443-4.93c5.113-6.125,12.618-9.638,20.591-9.638
		c14.786,0,26.816,12.03,26.816,26.816C184.303,123.698,172.272,135.728,157.486,135.728z"/>
	<path fill="#FFFFFF" d="M209.654,153.579h-96.377c-1.933,0-3.5-1.567-3.5-3.5s1.567-3.5,3.5-3.5h96.377
		c8.465,0,15.352-6.886,15.352-15.351c0-8.465-6.887-15.351-15.352-15.351c-4.563,0-8.861,2.012-11.79,5.519
		c-1.239,1.484-3.446,1.683-4.93,0.443c-1.484-1.239-1.683-3.446-0.443-4.93c4.263-5.105,10.519-8.033,17.163-8.033
		c12.324,0,22.352,10.027,22.352,22.351S221.979,153.579,209.654,153.579z"/>
	<path fill="#FFFFFF" d="M152.588,233.085c-10.092,0-19.593-4.447-26.065-12.2c-1.239-1.484-1.04-3.691,0.443-4.93
		c1.482-1.24,3.69-1.04,4.93,0.443c5.14,6.156,12.682,9.686,20.692,9.686c14.855,0,26.941-12.086,26.941-26.943
		c0-14.856-12.086-26.942-26.941-26.942H38.281c-1.933,0-3.5-1.567-3.5-3.5s1.567-3.5,3.5-3.5h114.307
		c18.716,0,33.941,15.226,33.941,33.942C186.529,217.858,171.304,233.085,152.588,233.085z"/>
	<path fill="#FFFFFF" d="M86.126,153.5H67.311c-1.933,0-3.5-1.567-3.5-3.5s1.567-3.5,3.5-3.5h18.815c1.933,0,3.5,1.567,3.5,3.5
		S88.059,153.5,86.126,153.5z"/>
	<g>
		<path fill="#D6D900" d="M97.146,94.065c0,0-13.17-10.12,0-23.291s16.665-18.277,10.214-24.729c0,0,29.533,5.996,19.89,35.61
			C121.23,100.144,108.172,102.491,97.146,94.065z"/>
		<path fill="#8BBF26" d="M119.097,62.069c0,0-0.021,0.257-0.058,0.741c-0.041,0.477-0.119,1.163-0.233,2.035
			c-0.241,1.739-0.668,4.208-1.439,7.119c-0.406,1.449-0.855,3.021-1.464,4.643c-0.585,1.629-1.294,3.321-2.14,5.026
			c-0.824,1.715-1.843,3.413-2.952,5.095c-1.165,1.645-2.407,3.296-3.873,4.765c-1.417,1.512-3.033,2.84-4.693,4.049
			c-1.702,1.151-3.455,2.193-5.261,2.966c-0.897,0.4-1.784,0.785-2.688,1.057c-0.893,0.308-1.769,0.605-2.646,0.79
			c-1.735,0.481-3.412,0.692-4.955,0.928c-1.545,0.095-2.973,0.291-4.226,0.243c-1.253-0.013-2.357,0.035-3.247-0.062
			c-1.791-0.131-2.814-0.206-2.814-0.206c-1.377-0.101-2.412-1.299-2.312-2.676c0.102-1.377,1.299-2.412,2.677-2.312
			c0.027,0.002,0.055,0.004,0.082,0.007l0.176,0.02c0,0,0.923,0.102,2.539,0.281c0.81,0.124,1.788,0.109,2.914,0.167
			c1.132,0.092,2.384-0.048,3.767-0.07c1.359-0.163,2.85-0.285,4.372-0.651c0.776-0.128,1.543-0.362,2.328-0.6
			c0.798-0.204,1.575-0.511,2.365-0.828c1.592-0.606,3.139-1.456,4.662-2.398c1.484-1.002,2.95-2.106,4.257-3.403
			c1.352-1.249,2.521-2.695,3.637-4.144c1.062-1.492,2.06-3.01,2.882-4.572c0.843-1.548,1.565-3.104,2.173-4.614
			c0.63-1.501,1.109-2.972,1.547-4.33c0.835-2.731,1.332-5.071,1.622-6.709c0.14-0.819,0.237-1.465,0.291-1.9
			c0.05-0.429,0.076-0.658,0.076-0.658l0.007-0.053c0.084-0.724,0.74-1.243,1.465-1.158C118.64,60.737,119.15,61.366,119.097,62.069
			z"/>
	</g>
	<g>
		<path fill="#D6D900" d="M214.445,176.818c0,0-12.584,9.668,0,22.252c12.584,12.584,15.922,17.463,9.759,23.627
			c0,0,28.218-5.729,19.004-34.024C237.456,171.01,224.979,168.768,214.445,176.818z"/>
		<path fill="#8BBF26" d="M232.9,207.583c0,0-0.025-0.219-0.073-0.629c-0.051-0.415-0.145-1.033-0.277-1.815
			c-0.277-1.565-0.752-3.801-1.55-6.41c-0.418-1.297-0.877-2.703-1.479-4.137c-0.58-1.443-1.271-2.929-2.076-4.408
			c-0.785-1.493-1.738-2.942-2.754-4.369c-1.066-1.384-2.184-2.765-3.475-3.958c-1.248-1.239-2.648-2.295-4.066-3.252
			c-1.456-0.9-2.934-1.712-4.455-2.292c-0.755-0.303-1.498-0.597-2.26-0.791c-0.75-0.227-1.482-0.45-2.225-0.573
			c-1.454-0.35-2.878-0.467-4.178-0.622c-1.321-0.022-2.518-0.156-3.599-0.067c-1.076,0.055-2.011,0.041-2.784,0.159
			c-1.544,0.17-2.426,0.268-2.426,0.268l-0.158,0.018c-1.312,0.145-2.492-0.801-2.638-2.112c-0.145-1.312,0.801-2.492,2.112-2.637
			c0.026-0.003,0.062-0.006,0.088-0.008c0,0,0.979-0.071,2.689-0.197c0.85-0.093,1.904-0.047,3.103-0.06
			c1.197-0.046,2.561,0.142,4.037,0.232c1.475,0.225,3.076,0.427,4.734,0.886c0.838,0.177,1.675,0.461,2.528,0.755
			c0.863,0.26,1.711,0.628,2.568,1.01c1.725,0.738,3.4,1.734,5.025,2.833c1.588,1.155,3.131,2.424,4.485,3.869
			c1.4,1.402,2.587,2.981,3.701,4.552c1.059,1.608,2.033,3.229,2.819,4.868c0.809,1.628,1.486,3.245,2.045,4.802
			c0.582,1.55,1.011,3.052,1.399,4.436c0.736,2.781,1.145,5.14,1.375,6.802c0.109,0.833,0.185,1.489,0.223,1.944
			c0.036,0.461,0.056,0.708,0.056,0.708c0.054,0.695-0.465,1.302-1.16,1.356c-0.678,0.053-1.271-0.44-1.351-1.109L232.9,207.583z"/>
	</g>
</g>
</svg>
