<?xml version="1.0" encoding="utf-8"?>
<!-- Generator: Adobe Illustrator 16.0.0, SVG Export Plug-In . SVG Version: 6.00 Build 0)  -->
<!DOCTYPE svg PUBLIC "-//W3C//DTD SVG 1.1 Tiny//EN" "http://www.w3.org/Graphics/SVG/1.1/DTD/svg11-tiny.dtd">
<svg version="1.1" baseProfile="tiny" id="Layer_1" xmlns="http://www.w3.org/2000/svg" xmlns:xlink="http://www.w3.org/1999/xlink"
	 x="0px" y="0px" width="300px" height="300px" viewBox="0 0 300 300" xml:space="preserve">
<g>
	<circle fill="#EE5A28" cx="150.481" cy="150" r="131.6"/>
	<g>
		<path fill="#38CFDC" d="M94.738,107.598c0,3.872-3.14,7.01-7.009,7.01l0,0c-3.871,0-7.011-3.138-7.011-7.01v-8.912
			c0-3.871,3.14-7.01,7.011-7.01l0,0c3.869,0,7.009,3.139,7.009,7.01V107.598z"/>
		<path fill="#38CFDC" d="M183.273,107.763c0,3.872-3.139,7.011-7.008,7.011l0,0c-3.872,0-7.01-3.139-7.01-7.011v-8.912
			c0-3.872,3.138-7.01,7.01-7.01l0,0c3.869,0,7.008,3.138,7.008,7.01V107.763z"/>
		<path fill="#D6D900" d="M242.296,209.896c0,0-5.759,6.235-15.196-4.748c-8.364-9.734-17.287-17.718-29.782-13.399
			c-12.493,4.317-11.244,9.425-27.486,9.425c-6.705,0-10.574-2.381-11.644-8.371c0.723-8.967,11.304-11.333,14.621-8.016
			c3.32,3.32,7.711,0.426,5.166-3.992c-1.973-3.423-6.865-4.649-13.281-5.073c-4.453-0.294-4.126-3.109-4.041-3.574
			c2.114-8.063,5.427-18.088,9.95-30.464c16.661-45.573,9.223-98.561-44.502-89.326s-36.856,85.721-31.858,107.618
			c0.567,2.486,0.933,4.853,1.15,7.104c-0.068,0.06-2.797,2.388-5.672,0.803c-4.155-2.288-7.091-2.789-12.042-0.462
			c-4.869,2.29-5.906,7.333,1.522,7.886c10.946,0.812,12.819,10.955,10.043,19.62c0,0-9.995,12.495-6.872,24.364
			c3.124,11.869,8.747,21.24,46.228,21.24h48.104c0,0,16.242,0,20.613-17.492c3.354-13.416,14.681-15.93,21.239-9.371
			c6.561,6.56,11.871,9.371,21.241,9.371s10.621-14.709,10.621-14.709S249.923,198.17,242.296,209.896z"/>
		<g>
			<path fill="#BCB500" d="M249.377,204.898c-1.546,3.332-6.433,15.237-19.531,8.373c-4.192-1.438-7.347-5.621-11.289-9.563
				c-6.559-6.559-17.885-4.046-21.239,9.37c-4.371,17.492-20.613,17.492-20.613,17.492H128.6c-37.48,0-43.104-9.371-46.228-21.24
				c-0.004-0.011-0.005-0.022-0.008-0.033c-0.706,3.18-0.884,6.611,0.008,9.994c3.124,11.869,8.747,21.24,46.228,21.24h48.104
				c0,0,16.242,0,20.613-17.492c3.354-13.416,14.681-15.93,21.239-9.371c6.561,6.56,11.871,9.371,21.241,9.371
				s10.621-14.709,10.621-14.709S250.655,205.463,249.377,204.898z"/>
		</g>
		<path fill="#006236" d="M146.103,159.283c0,8.652-6.967,18.089-15.56,18.089s-15.559-9.437-15.559-18.089
			c0-8.654,5.94-7.041,14.533-7.041C138.111,152.242,146.103,150.629,146.103,159.283z"/>
		<path fill="#FFFFFF" d="M120.667,153.233v3.466c0,2.479,2.009,2.889,4.486,2.889c2.479,0,4.489-0.41,4.489-2.889v-3.466H120.667z"
			/>
		<path fill="#FFFFFF" d="M131.256,153.233v3.466c0,2.479,2.01,2.889,4.487,2.889c2.479,0,4.488-0.41,4.488-2.889v-3.466H131.256z"
			/>
		<g>
			<ellipse fill="#FFFFFF" cx="133.03" cy="102.662" rx="22.318" ry="25.729"/>
			<path fill="#BCB500" d="M133.03,134.258c-13.056,0-23.772-11.507-24.952-26.201c-0.069,0.887-0.112,1.783-0.112,2.691
				c0,15.958,11.221,25.713,25.064,25.713c13.845,0,25.064-9.755,25.064-25.713c0-0.908-0.042-1.805-0.111-2.691
				C156.803,122.751,146.087,134.258,133.03,134.258z"/>
			<ellipse fill="#7A4C95" cx="133.03" cy="97.92" rx="15.555" ry="16.688"/>
			<ellipse fill="#4D1074" cx="133.029" cy="93.227" rx="7.655" ry="8.213"/>
			<circle fill="#FFFFFF" cx="139.565" cy="87.769" r="6.537"/>
		</g>
		<ellipse fill="#BCB500" cx="153.34" cy="70.059" rx="4.755" ry="4.796"/>
		<ellipse fill="#BCB500" cx="157.731" cy="144.139" rx="4.392" ry="4.496"/>
		<path fill="#38CFDC" d="M82.492,106.381c-3.53,0-10.812-0.813-13.859-7.163c-1.942-4.047-1.043-10.581-0.091-17.5
			c0.518-3.765,1.382-10.045,0.613-11.461c-1.109-1.176-1.09-3.028,0.061-4.18c1.172-1.172,3.071-1.171,4.243-0.001
			c2.894,2.894,2.069,8.88,1.026,16.46c-0.715,5.197-1.604,11.665-0.443,14.085c2.143,4.464,9.646,3.715,9.723,3.706
			c1.625-0.19,3.136,0.983,3.329,2.63c0.193,1.646-0.984,3.136-2.63,3.329C84.349,106.3,83.607,106.381,82.492,106.381z"/>
		<path fill="#38CFDC" d="M182.425,106.381c-1.115,0-1.855-0.081-1.971-0.095c-1.646-0.193-2.823-1.684-2.63-3.329
			c0.193-1.643,1.672-2.829,3.319-2.631l0,0c0.075,0.006,7.577,0.781,9.732-3.705c1.16-2.419,0.271-8.886-0.444-14.082
			c-1.043-7.581-1.867-13.569,1.027-16.463c1.172-1.17,3.071-1.171,4.243,0.001c1.15,1.151,1.17,3.004,0.061,4.18
			c-0.77,1.416,0.095,7.699,0.613,11.465c0.951,6.917,1.85,13.45-0.091,17.496C193.235,105.567,185.955,106.381,182.425,106.381z"/>
		<circle fill="#38CFDC" cx="67.882" cy="65.263" r="4.607"/>
		<circle fill="#38CFDC" cx="195.979" cy="65.263" r="4.607"/>
	</g>
</g>
</svg>
