<?xml version="1.0" encoding="utf-8"?>
<!-- Generator: Adobe Illustrator 16.0.0, SVG Export Plug-In . SVG Version: 6.00 Build 0)  -->
<!DOCTYPE svg PUBLIC "-//W3C//DTD SVG 1.1 Tiny//EN" "http://www.w3.org/Graphics/SVG/1.1/DTD/svg11-tiny.dtd">
<svg version="1.1" baseProfile="tiny" id="Layer_1" xmlns="http://www.w3.org/2000/svg" xmlns:xlink="http://www.w3.org/1999/xlink"
	 x="0px" y="0px" width="300px" height="300px" viewBox="0 0 300 300" xml:space="preserve">
<g>
	<circle fill="#FFD202" cx="153.484" cy="150" r="131.6"/>
	<path fill="#FFE87E" d="M78.774,226.142c0,0-27.813-16.707-7.198-44.354c0,0,13.296-13.103,28.339-1.876
		c0,0-4.471-7.72,1.626-9.427c6.098-1.707,6.612,9.427,6.612,9.427s-1.043-14.225,7.149-9.427s12.258,16.182,12.258,16.182
		l25.743,48.329H90.158L78.774,226.142z"/>
	<path fill="#FFE87E" d="M170.653,166.745c0,0,12.604-23.698,30.492-14.084c17.887,9.613,4.918,35.364,4.918,35.364
		s11.748-7.585,15.408,0c3.659,7.585-2.297,14.221-2.297,14.221s8.257-6.643,14.899,0c6.644,6.644,5.978,24.836-14.899,29.631
		c-20.876,4.795-53.399,6.015-53.399,6.015L170.653,166.745z"/>
	<polygon fill="#E6352B" points="119.762,170.485 125.271,206.281 100.198,213.12 85.054,240.89 85.054,240.89 88.84,195.6 	"/>
	<polygon fill="#E6352B" points="184.468,170.485 178.959,206.281 204.031,213.12 219.175,240.89 219.175,240.89 215.389,195.6 	"/>
	<path fill="#FFFFFF" d="M190.609,137.894c0-48.273-38.646-96.642-38.646-96.642l-0.017,0.483
		c-0.713,0.897-38.629,48.801-38.629,96.619c0,48.273,14.868,93.57,14.868,93.57h23.777v-0.462h23.778
		C175.742,231.463,190.609,186.166,190.609,137.894z"/>
	<path fill="#337CBA" d="M176.029,231.925c0.489-2.928,1.565-6.469,2.928-11.566h-54.108c1.298,4.885,2.35,8.401,2.907,11.566
		H176.029z"/>
	<path fill="#E6352B" d="M179.701,89.21c-11.429-27.541-27.737-47.958-27.737-47.958l-0.017,0.483
		c-0.458,0.577-16.28,20.568-27.531,47.475H179.701z"/>
	<path fill="#D2D3D3" d="M158.59,50.378c-3.946-5.819-6.626-9.174-6.626-9.174l-0.017,0.482
		c-0.713,0.898-38.629,48.801-38.629,96.621c0,48.272,14.868,93.569,14.868,93.569h12.938c0,0-14.868-45.297-14.868-93.569
		C126.257,102.397,147.637,66.44,158.59,50.378z"/>
	<g>
		<circle fill="#96D3D3" cx="153.304" cy="135.311" r="17.35"/>
		<path fill="#E6352B" d="M153.304,154.704c-10.693,0-19.393-8.7-19.393-19.394s8.699-19.393,19.393-19.393
			s19.393,8.699,19.393,19.393S163.997,154.704,153.304,154.704z M153.304,120.004c-8.44,0-15.307,6.866-15.307,15.307
			s6.866,15.308,15.307,15.308s15.307-6.867,15.307-15.308S161.744,120.004,153.304,120.004z"/>
	</g>
	<path fill="#FFFFFF" d="M163.139,128.562c0.331,1.084-0.279,2.229-1.361,2.561l-18.237,5.574c-1.084,0.331-2.23-0.279-2.562-1.361
		l0,0c-0.331-1.084,0.279-2.231,1.362-2.562l18.237-5.573C161.66,126.868,162.808,127.479,163.139,128.562L163.139,128.562z"/>
	<path fill="#FFFFFF" d="M161.343,137.496c0.256,0.837-0.216,1.722-1.052,1.978l-14.086,4.305c-0.836,0.256-1.722-0.216-1.979-1.052
		l0,0c-0.255-0.837,0.216-1.724,1.053-1.979l14.086-4.304C160.201,136.188,161.087,136.659,161.343,137.496L161.343,137.496z"/>
	<path fill="#F2F2F2" d="M153.304,231.877v9.013H71.864c0,0-2.846-17.737,9.35-20.531c12.196-2.794,15.855,10.265,15.855,10.265
		s-0.813-6.554,5.285-6.554s6.099,6.358,6.099,6.358s3.178-3.732,6.91,0l3.66,4.568c0,0,3.219-9.063,9.163-3.119H153.304z"/>
	<path fill="#F2F2F2" d="M149.92,231.877v9.013h87.043c0,0,2.846-17.737-9.35-20.531c-12.196-2.794-15.855,10.265-15.855,10.265
		s0.813-6.554-5.285-6.554s-6.099,6.358-6.099,6.358s-3.178-3.732-6.91,0l-3.66,4.568c0,0-3.219-9.063-9.163-3.119H149.92z"/>
	<circle fill="#FFFFFF" cx="104.584" cy="243.373" r="8.734"/>
	<circle fill="#FFFFFF" cx="205.814" cy="243.373" r="8.734"/>
	<circle fill="#FFFFFF" cx="140.888" cy="243.373" r="8.734"/>
	<circle fill="#FFFFFF" cx="174.51" cy="243.373" r="8.734"/>
	<circle fill="#FFFFFF" cx="153.491" cy="262.464" r="6.702"/>
	<circle fill="#FFFFFF" cx="75.587" cy="181.717" r="9.392"/>
	<circle fill="#FFFFFF" cx="237.251" cy="181.717" r="9.392"/>
	<circle fill="#FFFFFF" cx="221.065" cy="169.497" r="5.188"/>
	<circle fill="#FFFFFF" cx="63.968" cy="207.437" r="5.189"/>
	<circle fill="#FFFFFF" cx="243" cy="207.437" r="5.189"/>
	<circle fill="#FFFFFF" cx="190.436" cy="248.549" r="11.882"/>
	<circle fill="#FFFFFF" cx="122.951" cy="247.998" r="13.003"/>
</g>
</svg>
