<?xml version="1.0" encoding="utf-8"?>
<!-- Generator: Adobe Illustrator 16.0.0, SVG Export Plug-In . SVG Version: 6.00 Build 0)  -->
<!DOCTYPE svg PUBLIC "-//W3C//DTD SVG 1.1 Tiny//EN" "http://www.w3.org/Graphics/SVG/1.1/DTD/svg11-tiny.dtd">
<svg version="1.1" baseProfile="tiny" id="Layer_1" xmlns="http://www.w3.org/2000/svg" xmlns:xlink="http://www.w3.org/1999/xlink"
	 x="0px" y="0px" width="300px" height="300px" viewBox="0 0 300 300" xml:space="preserve">
<g>
	<circle fill="#D52029" cx="150" cy="150" r="131.6"/>
	<g>
		<path fill="#1F6FB3" d="M233.181,193.611c0,4.146-3.359,7.506-7.505,7.506H81.382c-4.146,0-7.506-3.36-7.506-7.506V88.295
			c0-4.146,3.36-7.506,7.506-7.506h144.294c4.146,0,7.505,3.36,7.505,7.506V193.611z"/>
		<path fill="#BDBEBF" d="M149.964,97.295v25.662l-19.201,23.508v51.522H77.262v-86.56c0,0,8.025-20.585,17.464-22.644
			s55.238,0,55.238,0V97.295z"/>
		<path fill="#D2D3D3" d="M108.632,87.897c15.169,0.153,31.501,0.887,31.501,0.887v8.511v25.662l-19.201,23.508v51.522h9.867
			v-51.522L150,122.957V97.295v-8.511C150,88.784,125.486,87.683,108.632,87.897z"/>
		<path fill="#BDBEBF" d="M158.418,197.987v-51.522l17.449-22.602V97.295l24.481-18.324c0,0,26.385,2.496,35.395,7.699
			c9.009,5.203,18.019,29.656,18.019,32.231s-2.934,65.336-2.934,68.276s8.939,13.119-6.076,16.396s-86.334,0-86.334,0V197.987z"/>
		<path fill="#D2D3D3" d="M167.428,203.573v-5.586v-51.522l17.448-22.602V97.295l23.251-17.402
			c-4.563-0.617-7.778-0.922-7.778-0.922l-24.481,18.324v26.568l-17.449,22.602v51.522v5.586c0,0,35.448,1.628,61.624,1.44
			C195.435,204.859,167.428,203.573,167.428,203.573z"/>
		<g>
			<path fill="#D2D3D3" d="M218.272,71.051h-58.91l-69.609-0.139c-39.181,0-37.792,30.289-37.792,30.289v107.957h8.423l3.248-94.619
				l10.56-27.511h79.752v0.14h79.891l10.56,27.509l3.248,94.62h8.423V101.339C256.064,101.339,257.453,71.051,218.272,71.051z"/>
			<path fill="#5F6161" d="M147.823,77.807h71.453c29.467,0,28.505,25.422,28.505,25.422v105.93l-20.224-11.171v-83.78
				c0,0-0.77-20.03-16.948-20.03h-11.941l-10.207,6.935h-27.349h-2.696h-38.713l-10.208-6.935h-11.94
				c-16.178,0-16.949,20.03-16.949,20.03v83.78l-20.222,11.171v-105.93c0,0-0.964-25.422,28.504-25.422h71.454"/>
			<polygon fill="#D2D3D3" points="157.887,75.541 150.277,75.541 97.072,75.541 111.086,88.784 150.277,88.784 157.887,88.784 
				197.079,88.784 211.092,75.541 			"/>
			<polygon fill="#D2D3D3" points="247.781,209.158 60.384,209.158 80.605,197.987 227.582,197.987 			"/>
			<polygon fill="#AFB0B0" points="108.093,78.971 200.349,78.971 194.792,85.084 114.345,85.084 			"/>
			<circle fill="#F9E80E" cx="118.514" cy="82.162" r="1.528"/>
			<circle fill="#F9E80E" cx="189.651" cy="82.162" r="1.529"/>
			<polygon fill="#E6352B" points="138.59,83.694 135.812,83.694 138.729,80.359 141.508,80.359 			"/>
			<polygon fill="#E6352B" points="144.287,83.694 141.508,83.694 144.426,80.359 147.204,80.359 			"/>
			<polygon fill="#E6352B" points="149.983,83.694 147.204,83.694 150.122,80.359 152.901,80.359 			"/>
			<polygon fill="#E6352B" points="155.68,83.694 152.901,83.694 155.819,80.359 158.598,80.359 			"/>
			<polygon fill="#E6352B" points="161.377,83.694 158.598,83.694 161.516,80.359 164.294,80.359 			"/>
			<polygon fill="#E6352B" points="167.073,83.694 164.294,83.694 167.212,80.359 169.99,80.359 			"/>
			<polygon fill="#E6352B" points="172.77,83.694 169.99,83.694 172.909,80.359 175.688,80.359 			"/>
			<path fill="#737575" d="M225.207,104.322l19.187-14.141c0,0,3.391,5.74,3.391,18.799v100.178l-20.202-11.171v-80.114
				C227.582,117.873,227.525,106.642,225.207,104.322z"/>
			<path fill="#737575" d="M82.961,104.322L63.774,90.182c0,0-3.391,5.74-3.391,18.799v100.178l20.203-11.171v-80.114
				C80.587,117.873,80.643,106.642,82.961,104.322z"/>
		</g>
		<rect x="161.445" y="149.67" fill="#D2D3D3" width="65.972" height="7.844"/>
		<rect x="80.587" y="177.338" fill="#D2D3D3" width="45.764" height="7.843"/>
		<circle fill="#D2D3D3" cx="97.866" cy="120.255" r="5.59"/>
		<circle fill="#D2D3D3" cx="181.277" cy="179.716" r="5.59"/>
		<circle fill="#D2D3D3" cx="111.779" cy="120.178" r="3.687"/>
		<circle fill="#D2D3D3" cx="198.118" cy="181.26" r="3.687"/>
		<g>
			<path fill="#949696" d="M65.882,158.156c0,1.178-0.954,2.132-2.133,2.132H47.67c-1.178,0-2.132-0.954-2.132-2.132v-28.838
				c0-1.177,0.954-2.131,2.132-2.131h16.079c1.179,0,2.133,0.954,2.133,2.131V158.156z"/>
			<path fill="#D2D3D3" d="M63.749,161.896H47.67c-2.062,0-3.74-1.678-3.74-3.74v-28.838c0-2.062,1.678-3.739,3.74-3.739h16.079
				c2.063,0,3.741,1.678,3.741,3.739v28.838C67.49,160.219,65.812,161.896,63.749,161.896z M47.67,128.796
				c-0.289,0-0.523,0.234-0.523,0.522v28.838c0,0.289,0.235,0.523,0.523,0.523h16.079c0.289,0,0.524-0.234,0.524-0.523v-28.838
				c0-0.288-0.235-0.522-0.524-0.522H47.67z"/>
		</g>
		<path fill="#00DEFF" d="M62.73,134.334c0,0.521-0.421,0.941-0.94,0.941H50.842c-0.52,0-0.94-0.421-0.94-0.941l0,0
			c0-0.519,0.421-0.939,0.94-0.939H61.79C62.31,133.395,62.73,133.815,62.73,134.334L62.73,134.334z"/>
		<path fill="#00DEFF" d="M62.73,140.104c0,0.521-0.421,0.941-0.94,0.941H50.842c-0.52,0-0.94-0.42-0.94-0.941l0,0
			c0-0.519,0.421-0.939,0.94-0.939H61.79C62.31,139.164,62.73,139.585,62.73,140.104L62.73,140.104z"/>
		<path fill="#00DEFF" d="M62.73,145.873c0,0.521-0.421,0.941-0.94,0.941H50.842c-0.52,0-0.94-0.42-0.94-0.941l0,0
			c0-0.519,0.421-0.939,0.94-0.939H61.79C62.31,144.934,62.73,145.354,62.73,145.873L62.73,145.873z"/>
		<circle fill="#00DEFF" cx="51.428" cy="151.197" r="1.527"/>
		<circle fill="#00DEFF" cx="55.71" cy="151.197" r="1.527"/>
	</g>
	<path fill="#4E8DC3" d="M153.902,160.014h-17.331c-0.829,0-1.5-0.672-1.5-1.5s0.671-1.5,1.5-1.5h17.331c0.829,0,1.5,0.672,1.5,1.5
		S154.73,160.014,153.902,160.014z"/>
	<path fill="#4E8DC3" d="M152.15,176.835h-15.281c-0.829,0-1.5-0.672-1.5-1.5s0.671-1.5,1.5-1.5h15.281c0.829,0,1.5,0.672,1.5,1.5
		S152.979,176.835,152.15,176.835z"/>
	<path fill="#4E8DC3" d="M152.901,168.968h-3.44c-0.829,0-1.5-0.672-1.5-1.5s0.671-1.5,1.5-1.5h3.44c0.829,0,1.5,0.672,1.5,1.5
		S153.73,168.968,152.901,168.968z"/>
	<path fill="#4E8DC3" d="M143.729,168.968h-7.78c-0.829,0-1.5-0.672-1.5-1.5s0.671-1.5,1.5-1.5h7.78c0.829,0,1.5,0.672,1.5,1.5
		S144.558,168.968,143.729,168.968z"/>
</g>
</svg>
