<?xml version="1.0" encoding="utf-8"?>
<!-- Generator: Adobe Illustrator 16.0.0, SVG Export Plug-In . SVG Version: 6.00 Build 0)  -->
<!DOCTYPE svg PUBLIC "-//W3C//DTD SVG 1.1 Tiny//EN" "http://www.w3.org/Graphics/SVG/1.1/DTD/svg11-tiny.dtd">
<svg version="1.1" baseProfile="tiny" id="Layer_1" xmlns="http://www.w3.org/2000/svg" xmlns:xlink="http://www.w3.org/1999/xlink"
	 x="0px" y="0px" width="300px" height="300px" viewBox="0 0 300 300" xml:space="preserve">
<g>
	<circle fill="#25A7DE" cx="150" cy="150" r="131.6"/>
	<path fill="#45B4E3" d="M124.2,221.301c0,0,2.149-21.599-9.808-21.599c0,0,4.535-9.517-1.881-13.909s-10.69,9.273-10.69,9.273
		s0.339-15.417-8.658-15.617c-11.469-0.254-17.661,9.548-14.565,21.718s-0.475,8.296,3.629,16.593s17.665,9.809,27.722,11.493
		s17.659,1.698,17.659,0S124.2,221.301,124.2,221.301z"/>
	<path fill="#45B4E3" d="M220.344,221.301c0,0-2.149-21.599,9.808-21.599c0,0-4.535-9.517,1.881-13.909s10.69,9.273,10.69,9.273
		s-0.339-15.417,8.658-15.617c11.469-0.254,17.661,9.548,14.565,21.718s0.475,8.296-3.629,16.593s-17.665,9.809-27.722,11.493
		s-17.659,1.698-17.659,0S220.344,221.301,220.344,221.301z"/>
	<path fill="#0089D8" d="M47.829,232.914C71.957,262.611,108.754,281.6,150,281.6s78.043-18.988,102.171-48.686H47.829z"/>
	<g>
		<polygon fill="#6A6C6C" points="146.252,217.906 146.252,212.854 135.96,211.672 135.96,211.651 135.872,211.662 135.786,211.651 
			135.782,211.672 125.492,212.854 125.492,217.906 121.744,222.016 121.744,227.556 133.534,227.556 135.96,227.556 
			150.001,227.556 150.001,222.016 		"/>
		<polygon fill="#6A6C6C" points="218.906,217.906 218.906,212.854 208.614,211.672 208.614,211.651 208.526,211.662 
			208.44,211.651 208.437,211.672 198.146,212.854 198.146,217.906 194.398,222.016 194.398,227.556 206.188,227.556 
			208.614,227.556 222.655,227.556 222.655,222.016 		"/>
		<path fill="#6A6C6C" d="M172.087,219.604h24.767V113.417c0-22.441,0.032-30.083-6.306-51.356
			c-7.543-25.327-18.461-24.6-18.461-24.6s-10.519-1.002-18.464,24.6c-6.58,21.199-6.306,28.915-6.306,51.356v106.186H172.087z"/>
		<path fill="#BDBEBF" d="M135.874,214.551h11.673V121.32c0-10.577,0.015-10.717-2.973-20.744c-3.555-11.937-8.7-10.729-8.7-10.729
			s-4.958-1.337-8.702,10.729c-3.1,9.991-2.971,10.167-2.971,20.744v93.231H135.874z"/>
		<path fill="#BDBEBF" d="M208.528,214.551h11.673V121.32c0-10.577,0.015-10.717-2.973-20.744c-3.555-11.937-8.7-10.729-8.7-10.729
			s-4.958-1.337-8.702,10.729c-3.1,9.991-2.971,10.167-2.971,20.744v93.231H208.528z"/>
		<polygon fill="#6A6C6C" points="182.553,219.604 182.553,214.551 172.258,213.369 172.258,213.349 172.173,213.359 
			172.085,213.349 172.082,213.369 161.793,214.551 161.793,219.604 158.045,223.714 158.045,229.253 169.835,229.253 
			172.258,229.253 186.301,229.253 186.301,223.714 		"/>
		<rect x="159.879" y="203.892" fill="#808181" width="24.759" height="10.659"/>
		<g>
			<path fill="#A9AAAA" d="M159.133,148.361l-28.637,33.99c0,0-2.864,3.237-2.864,6.475v6.724c0,0-0.747,5.229,5.977,5.977
				c6.724,0.747,26.271,2.366,26.271,2.366L159.133,148.361z"/>
			<path fill="#E7E8E8" d="M159.879,206.186c-0.062,0-0.126-0.002-0.189-0.008c-0.195-0.016-19.656-1.63-26.334-2.372
				c-2.913-0.324-5.103-1.407-6.508-3.221c-1.626-2.099-1.574-4.423-1.509-5.153v-6.605c0-3.991,3.088-7.596,3.439-7.994
				l28.601-33.948c0.618-0.733,1.627-1.003,2.526-0.682c0.901,0.322,1.508,1.171,1.521,2.129l0.746,55.531
				c0.009,0.646-0.256,1.267-0.729,1.708C161.018,205.967,160.457,206.186,159.879,206.186z M156.922,154.544l-24.672,29.285
				c-0.67,0.767-2.325,3.079-2.325,4.997v6.724c0,0.108-0.007,0.217-0.022,0.324c-0.088,0.845,0.111,2.945,3.959,3.373
				c5.179,0.575,18.189,1.686,23.69,2.149L156.922,154.544z"/>
		</g>
		<g>
			<path fill="#A9AAAA" d="M185.385,148.361l28.637,33.99c0,0,2.864,3.237,2.864,6.475v6.724c0,0,0.747,5.229-5.977,5.977
				c-6.724,0.747-26.271,2.366-26.271,2.366L185.385,148.361z"/>
			<path fill="#E7E8E8" d="M184.638,206.186c-0.578,0-1.139-0.219-1.564-0.617c-0.473-0.441-0.737-1.061-0.729-1.708l0.747-55.531
				c0.013-0.958,0.619-1.807,1.521-2.129c0.9-0.321,1.908-0.051,2.526,0.682l28.637,33.99c0.315,0.356,3.403,3.961,3.403,7.952
				v6.605c0.065,0.73,0.117,3.055-1.509,5.153c-1.405,1.814-3.595,2.897-6.508,3.221c-6.678,0.742-26.14,2.356-26.335,2.372
				C184.764,206.183,184.7,206.186,184.638,206.186z M187.595,154.544l-0.63,46.852c5.501-0.463,18.513-1.574,23.691-2.149
				c3.848-0.428,4.047-2.528,3.954-3.412c-0.009-0.08-0.018-0.205-0.018-0.285v-6.724c0-1.918-1.655-4.23-2.293-4.96
				L187.595,154.544z"/>
		</g>
		<path fill="#E7E8E8" d="M172.086,206.763h14.041v-60.195c0-12.723,0.018-17.054-3.574-29.114
			c-4.278-14.357-10.467-13.945-10.467-13.945s-5.962-0.568-10.467,13.945c-3.729,12.018-3.574,16.391-3.574,29.114v60.195H172.086z
			"/>
		<polygon fill="#5B5D5D" points="147.547,93.568 147.706,90.78 196.389,90.78 196.564,93.568 		"/>
		<path fill="#009DE1" d="M166.479,126.135c-0.229,0-0.462-0.043-0.688-0.135c-0.938-0.38-1.392-1.45-1.011-2.389
			c1.499-3.699,4.385-5.998,7.531-5.998c3.092,0,5.861,2.134,7.409,5.708c0.402,0.93-0.024,2.01-0.954,2.413
			c-0.935,0.403-2.011-0.025-2.413-0.955c-0.934-2.157-2.482-3.496-4.042-3.496c-1.621,0-3.204,1.42-4.131,3.706
			C167.891,125.703,167.204,126.135,166.479,126.135z"/>
		<rect x="124.201" y="121.32" fill="#6A6C6C" width="23.346" height="2.98"/>
		<rect x="124.201" y="133.951" fill="#6A6C6C" width="23.346" height="2.98"/>
		<rect x="196.854" y="121.32" fill="#6A6C6C" width="23.347" height="2.98"/>
		<rect x="196.854" y="133.951" fill="#6A6C6C" width="23.347" height="2.98"/>
	</g>
	<path fill="#77C8EA" d="M56.123,232.914c0,0-9.97-5.358-8.294-23.692c1.274-13.942,8.862-20.836,19.402-20.836
		s13.389,15.507,13.389,15.507s0.741-5.822,6.353-5.822s6.586,7.612,3.047,11.151c0,0,5.008-1.826,8.261,1.428
		s-1.709,8.954-1.709,8.954s2.849-5.866,9.4-2.733s3.988,8.545,3.988,8.545s7.617-10.248,11.784,2.14h28.257h22.257v5.358H56.123z"
		/>
	<path fill="#77C8EA" d="M275.8,188.757c-8.315,2.357-11.904,15.135-11.904,15.135s-0.741-5.822-6.353-5.822
		s-6.586,7.612-3.047,11.151c0,0-5.008-1.826-8.261,1.428s1.709,8.954,1.709,8.954s-2.849-5.866-9.4-2.733s-3.988,8.545-3.988,8.545
		s-7.617-10.248-11.784,2.14h-28.257h-22.257l-8.176,5.358c0,0,90.752,0,88.09,0c-1.171,0,4.496-3.66,14.121-21.262
		C272.372,200.534,275.8,188.757,275.8,188.757z"/>
	<circle fill="#0088D8" cx="55.374" cy="127.679" r="20.33"/>
	<g>
		<path fill="#FFFFFF" d="M49.893,135.094c0.874,0.437,1.657,0.765,2.35,0.983c0.692,0.219,1.443,0.328,2.254,0.328
			c0.958,0,1.778-0.275,2.461-0.827c0.682-0.551,1.022-1.293,1.022-2.226c0-1.06-0.426-1.844-1.278-2.353
			c-0.703-0.423-1.609-0.636-2.717-0.636v-4.156c0.938,0,1.726-0.191,2.365-0.575c0.746-0.447,1.119-1.087,1.119-1.918
			s-0.325-1.481-0.976-1.95s-1.401-0.703-2.253-0.703c-0.64,0-1.269,0.069-1.887,0.208c-0.618,0.139-1.3,0.347-2.045,0.624
			l0.031-4.06c0.768-0.256,1.593-0.464,2.478-0.624c0.884-0.16,1.71-0.24,2.478-0.24c2.131,0,3.846,0.479,5.146,1.438
			c1.47,1.087,2.205,2.664,2.205,4.731c0,1.193-0.287,2.249-0.863,3.165c-0.639,1.002-1.502,1.63-2.589,1.886
			c1.278,0.34,2.28,0.967,3.005,1.881s1.087,2.041,1.087,3.38c0,2.253-0.799,4.028-2.397,5.324
			c-1.492,1.212-3.399,1.817-5.722,1.817c-0.959,0-1.817-0.084-2.573-0.254c-0.757-0.17-1.657-0.466-2.701-0.89V135.094z"/>
	</g>
	<circle fill="#0075D8" cx="78.598" cy="95.015" r="23.224"/>
	<g>
		<path fill="#FFFFFF" d="M80.882,90.369c0-1.118-0.354-2.041-1.059-2.77c-0.707-0.729-1.632-1.094-2.775-1.094
			c-0.853,0-1.771,0.201-2.757,0.603c-0.986,0.402-1.856,0.907-2.611,1.515v-5.294c1.217-0.608,2.422-1.096,3.615-1.46
			c1.192-0.365,2.386-0.548,3.578-0.548c2.265,0,4.157,0.664,5.679,1.99c1.521,1.327,2.282,3.11,2.282,5.35
			c0,1.583-0.342,3.238-1.022,4.966c-0.561,1.437-1.376,2.994-2.446,4.674c-0.293,0.438-1.267,1.851-2.922,4.236h7.814v5.222H70.84
			c1.242-1.75,2.495-3.499,3.762-5.249c1.995-2.794,3.42-4.958,4.271-6.489C80.212,93.614,80.882,91.73,80.882,90.369z"/>
	</g>
	<circle fill="#0063C0" cx="112.511" cy="66.356" r="27.211"/>
	<g>
		<path fill="#FFFFFF" d="M104.296,58.269c1.541-0.514,2.924-1.44,4.15-2.781c1.227-1.34,2.054-2.809,2.481-4.407h5.22v30.207
			h-6.717V61.563c-0.685,0.485-1.513,0.941-2.481,1.369c-0.4,0.171-1.284,0.528-2.653,1.069V58.269z"/>
	</g>
	<circle fill="#079BD9" cx="49.541" cy="162.673" r="10.496"/>
	<circle fill="#079BD9" cx="71.935" cy="176.127" r="6.83"/>
	<path fill="#F2F2F2" d="M176.519,206.763v-58.945c0-2.353-1.907-4.26-4.26-4.26c-2.354,0-4.261,1.907-4.261,4.26v58.945H176.519z"
		/>
</g>
</svg>
