<?xml version="1.0" encoding="utf-8"?>
<!-- Generator: Adobe Illustrator 16.0.0, SVG Export Plug-In . SVG Version: 6.00 Build 0)  -->
<!DOCTYPE svg PUBLIC "-//W3C//DTD SVG 1.1 Tiny//EN" "http://www.w3.org/Graphics/SVG/1.1/DTD/svg11-tiny.dtd">
<svg version="1.1" baseProfile="tiny" id="Layer_1" xmlns="http://www.w3.org/2000/svg" xmlns:xlink="http://www.w3.org/1999/xlink"
	 x="0px" y="0px" width="300px" height="300px" viewBox="0 0 300 300" xml:space="preserve">
<g>
	<g>
		<circle fill="#D52029" cx="150" cy="150" r="131.6"/>
	</g>
</g>
<g>
	<path fill="#C5B69A" d="M245.367,211.131c0,1.766-1.432,3.197-3.197,3.197H57.83c-1.766,0-3.197-1.431-3.197-3.197V88.869
		c0-1.766,1.431-3.197,3.197-3.197H242.17c1.765,0,3.197,1.431,3.197,3.197V211.131z"/>
	<path fill="#313931" d="M187.779,186.059c0,1.766-1.431,3.197-3.196,3.197H72.699c-1.766,0-3.197-1.431-3.197-3.197v-83.606
		c0-1.765,1.431-3.196,3.197-3.196h111.883c1.765,0,3.196,1.431,3.196,3.196V186.059z"/>
	<g>
		<path fill="#DAD0BE" d="M184.757,189.255H72.874c-0.982,0-1.851-0.453-2.438-1.151c-2.871,1.443-5.411,3.405-7.941,5.386
			c0.643,1.001,1.76,1.668,3.039,1.668h126.562c0.888,0,1.691-0.332,2.321-0.864c-2.399-2.074-4.796-4.15-7.247-6.162
			C186.584,188.815,185.727,189.255,184.757,189.255z"/>
		<path fill="#CBBEA5" d="M69.677,102.452c0-0.366,0.075-0.713,0.188-1.041c-2.082-2.557-4.351-4.955-6.965-6.909
			c-0.605,0.647-0.982,1.509-0.982,2.464v94.577c0,0.604,0.162,1.165,0.424,1.666c2.514-1.968,5.039-3.917,7.887-5.356
			c-0.348-0.512-0.551-1.129-0.551-1.794V102.452z"/>
		<path fill="#AD9871" d="M186.6,99.847c2.844-1.59,5.708-3.15,8.246-5.204c-0.664-0.784-1.642-1.292-2.749-1.292H65.534
			c-0.925,0-1.76,0.357-2.399,0.929c2.572,1.933,4.809,4.287,6.864,6.798c0.515-1.074,1.604-1.822,2.875-1.822h111.883
			C185.445,99.256,186.078,99.478,186.6,99.847z"/>
		<path fill="#CBBEA5" d="M186.855,100.058c0.668,0.586,1.099,1.437,1.099,2.395v83.606c0,0.682-0.217,1.311-0.581,1.83
			c2.467,2.023,4.878,4.113,7.292,6.199c0.647-0.653,1.048-1.551,1.048-2.544V96.967c0-0.775-0.25-1.49-0.665-2.079
			C192.525,96.926,189.681,98.479,186.855,100.058z"/>
	</g>
	<g>
		<path fill="#484F48" d="M187.73,146.34c-0.657,1.007-1.811,2.389-2.639,2.333c-0.613-0.045-1.07-1.03-1.289-1.613
			c-0.47-1.252-0.961-3.589-1.48-6.062c-1.45-6.907-2.259-9.949-3.886-9.949c-0.008,0-0.017,0-0.024,0
			c-1.209,0.022-2.218,1.547-3.513,9.072c-0.86,4.997-1.717,11.783-2.545,18.344c-0.954,7.55-2.108,16.704-2.969,19.654
			c-0.499-2.344-1.08-9.462-1.476-28.146c-0.86-40.573-1.713-40.618-2.894-40.679c-1.238-0.053-1.574,1.521-3.325,15.414
			c-0.615,4.889-1.313,10.429-2.077,15.137l-0.344,2.126c-1.442,8.912-2.507,15.5-3.324,16.82c-0.761-1.097-2-6.11-2.426-7.837
			c-2.11-8.535-2.909-9.986-4.007-10.163c-0.889-0.142-1.415,0.697-2.026,1.669c-0.331,0.527-0.705,1.124-1.153,1.609
			c-1.381,1.494-2.439,2.169-3.225,2.067c-0.649-0.084-1.298-0.731-1.929-1.921c-0.54-1.019-1.288-2.164-2.292-2.001
			c-1.104,0.183-1.542,1.678-2.005,4.557c-0.183,1.142-0.438,1.756-0.604,2.031c-0.176-0.3-0.495-1.076-0.774-2.992l-0.104-0.728
			c-0.662-4.588-0.921-6.04-1.995-6.04h0c-0.818,0-1.388,0.512-2.402,7.599c-0.278,1.941-0.681,4.757-1.031,6.589
			c-0.301-1.958-0.625-5.077-0.864-7.392c-0.992-9.56-1.199-10.192-2.184-10.211c-0.959-0.019-1.203,0.615-2.452,9.355
			c-0.436,3.043-0.772,4.679-1.006,5.557c-0.233-1.053-0.469-2.69-0.658-4l-0.105-0.729c-0.433-2.978-1.089-4.308-2.127-4.316
			h-0.009c-1.187,0-1.728,1.812-1.972,3.334c-0.367,2.279-0.662,3.102-0.862,3.362c-0.13-0.105-0.412-0.406-0.851-1.234
			c-0.864-1.632-1.836-2.497-2.971-2.645c-1.664-0.215-3.236,1.221-4.417,2.499c-0.536,0.58-0.947,1.234-1.31,1.812
			c-0.212,0.338-0.489,0.78-0.672,0.971c-0.561-0.63-1.519-3.674-2.85-9.061c-1.806-7.306-2.548-9.073-3.823-9.026
			c-1.653,0.067-2.221,3.223-4.63,18.12l-0.344,2.125c-0.694,4.281-1.325,8.976-1.88,13.119c-0.636,4.734-1.339,9.967-1.896,12.352
			c-0.963-5.688-1.563-27.66-1.775-35.412c-0.853-31.203-1.877-31.25-2.961-31.298c-1.447-0.054-1.98,2.716-4.162,21.229
			c-0.838,7.118-1.706,14.478-2.608,19.722c-1.09,6.333-1.905,7.623-2.177,7.885c-0.837-0.727-1.936-5.959-2.535-8.811
			c-0.53-2.527-1.031-4.913-1.538-6.265c-0.594-1.584-1.428-2.428-2.479-2.505c-0.828-0.061-1.625,0.41-2.304,1.027v2.052
			c0.698-0.921,1.571-1.752,2.202-1.703c0.612,0.046,1.07,1.03,1.288,1.613c0.47,1.252,0.96,3.589,1.479,6.063
			c1.451,6.906,2.26,9.948,3.887,9.948c0.008,0,0.016-0.001,0.024-0.001c1.209-0.022,2.218-1.547,3.514-9.071
			c0.909-5.28,1.778-12.658,2.619-19.793c0.862-7.32,1.906-16.179,2.711-19.173c0.509,2.468,1.133,9.871,1.66,29.118
			c1.031,37.737,1.883,37.783,3.064,37.846c1.223,0.074,1.602-1.578,3.356-14.64c0.555-4.133,1.184-8.819,1.875-13.082l0.344-2.125
			c1.442-8.913,2.506-15.5,3.323-16.821c0.761,1.098,2,6.111,2.426,7.838c2.109,8.534,2.909,9.985,4.007,10.162
			c0.887,0.141,1.414-0.697,2.025-1.669c0.331-0.526,0.706-1.123,1.154-1.608c1.381-1.494,2.439-2.171,3.224-2.068
			c0.649,0.084,1.298,0.731,1.929,1.922c0.54,1.019,1.292,2.167,2.292,2.001c1.105-0.183,1.542-1.678,2.005-4.557
			c0.184-1.142,0.438-1.755,0.604-2.032c0.177,0.301,0.495,1.077,0.774,2.992l0.105,0.729c0.662,4.588,0.921,6.04,1.995,6.04h0
			c0.818,0,1.388-0.512,2.402-7.6c0.277-1.941,0.681-4.757,1.031-6.589c0.301,1.958,0.625,5.078,0.864,7.393
			c0.992,9.559,1.198,10.191,2.183,10.211c0.946,0.018,1.203-0.615,2.453-9.354c0.436-3.044,0.771-4.679,1.005-5.557
			c0.233,1.052,0.469,2.69,0.658,4l0.105,0.729c0.434,2.978,1.09,4.309,2.128,4.316h0.008c1.187,0,1.728-1.812,1.972-3.334
			c0.367-2.279,0.662-3.103,0.862-3.363c0.13,0.106,0.412,0.407,0.851,1.234c0.865,1.632,1.836,2.497,2.971,2.645
			c1.666,0.213,3.236-1.221,4.417-2.499c0.536-0.58,0.947-1.234,1.31-1.812c0.212-0.338,0.489-0.78,0.672-0.971
			c0.561,0.63,1.519,3.674,2.85,9.061c1.806,7.307,2.558,9.086,3.824,9.027c1.652-0.068,2.221-3.223,4.63-18.121l0.344-2.125
			c0.767-4.732,1.467-10.286,2.083-15.185c0.622-4.934,1.308-10.379,1.859-12.946c0.935,6.249,1.433,29.75,1.609,38.069
			c0.639,30.152,1.671,30.206,2.764,30.262c0.024,0.002,0.048,0.002,0.072,0.002c1.339,0,1.899-2.134,4.359-21.629
			c0.827-6.547,1.681-13.317,2.536-18.283c1.091-6.333,1.905-7.624,2.177-7.885c0.837,0.727,1.935,5.959,2.535,8.811
			c0.53,2.526,1.031,4.913,1.538,6.265c0.594,1.584,1.428,2.428,2.479,2.505c1.018,0.079,1.985-0.641,2.742-1.455V146.34z"/>
		<path fill="#FFFFFF" d="M187.73,145.175c-0.061-0.093-0.119-0.194-0.171-0.313c-0.546-1.26-1.396-1.954-2.263-1.852
			c-1.042,0.12-1.743,1.246-2.141,3.441c-0.253,1.396-0.509,2.078-0.671,2.396c-0.176-0.344-0.465-1.12-0.766-2.81
			c-0.886-4.971-1.478-5.833-2.365-5.802c-0.87,0.027-1.41,0.901-1.946,5.605c-0.371,3.259-0.699,4.912-0.928,5.747
			c-0.203-0.78-0.484-2.269-0.791-5.102c-0.081-0.739-0.159-1.48-0.236-2.21c-0.966-9.104-1.182-10.037-2.198-10.017
			c-0.801,0.017-1.242,0.026-1.886,10.188c-0.264,4.167-0.504,7.268-0.717,9.279c-0.288-2.186-0.583-5.189-0.777-7.154
			c-1.174-11.931-1.449-12.374-2.436-12.361c-0.829,0.016-1.245,0.024-1.885,10.886c-0.338,5.721-0.697,8.553-0.961,9.952
			c-0.219-1.194-0.472-3.266-0.678-6.613c-0.678-10.957-1.455-10.97-2.205-10.983c-0.819-0.018-1.346,0.449-1.969,6.972
			c-0.368,3.851-0.742,5.543-0.984,6.282c-0.232-0.644-0.591-2.017-0.956-4.887c-0.648-5.096-1.267-6.075-2.183-6.101
			c-0.946-0.024-1.473,1.082-2.052,4.235c-0.41,2.223-0.719,3.273-0.917,3.768c-0.07-0.157-0.154-0.372-0.253-0.664
			c-0.952-2.835-2.384-3.596-3.417-3.735c-1.694-0.229-3.476,0.974-5.158,3.476c-2.632,3.915-4.774,5.181-8.79,5.192
			c-0.445-0.073-4.252-0.868-5.761-6.844c-1.544-6.117-6.813-7.081-7.286-7.155c-4.773-1.018-7.505,2.377-10.11,6.252
			c-1.33,1.979-2.727,3.028-3.828,2.878c-0.912-0.124-1.726-1.12-2.292-2.806c-0.352-1.046-0.798-2.006-1.64-1.946
			c-0.846,0.06-1.391,0.859-2.197,5.24c-0.266,1.443-0.496,2.241-0.66,2.678c-0.206-0.594-0.513-1.846-0.847-4.469
			c-0.771-6.066-1.591-6.57-2.35-6.551c-0.861,0.013-1.631,0.625-2.335,7.991c-0.214,2.244-0.415,3.638-0.577,4.502
			c-0.238-1.292-0.553-3.764-0.844-8.468c-0.556-8.993-1.337-9.085-2.031-9.085h-0.021c-0.792,0.001-1.611,0.002-2.344,12.429
			c-0.215,3.646-0.407,5.959-0.567,7.42c-0.375-2.593-0.771-6.625-1-8.949c-1.037-10.54-1.234-10.858-2.2-10.854
			c-0.8,0.014-1.008,0.815-1.312,3.565c-0.219,1.993-0.453,5-0.736,9.462c-0.209,3.315-0.399,5.433-0.557,6.787
			c-0.261-1.833-0.536-4.421-0.775-6.676c-0.078-0.731-0.156-1.473-0.236-2.211c-0.708-6.537-1.339-7.043-2.153-7.046h-0.006
			c-0.837,0-1.494,0.562-2.306,7.682c-0.24,2.107-0.468,3.234-0.636,3.833c-0.215-0.62-0.532-1.814-0.943-4.116
			c-0.525-2.955-1.142-4.161-2.126-4.162h-0.001c-0.946,0-1.553,1.12-2.028,3.743c-0.391,2.158-0.936,2.315-0.94,2.315
			c-0.117,0.016-0.507-0.265-0.838-1.028c-0.254-0.586-0.61-0.995-1-1.28v2.354c0.535,0.921,1.254,1.411,1.996,1.328
			c1.042-0.121,1.743-1.246,2.142-3.442c0.252-1.396,0.509-2.077,0.671-2.396c0.176,0.345,0.465,1.12,0.766,2.811
			c0.885,4.97,1.468,5.833,2.365,5.802c0.87-0.027,1.41-0.902,1.946-5.605c0.372-3.259,0.7-4.912,0.929-5.747
			c0.203,0.779,0.484,2.269,0.79,5.103c0.081,0.738,0.159,1.479,0.236,2.208c0.965,9.104,1.163,10.031,2.198,10.019
			c0.801-0.017,1.243-0.026,1.886-10.189c0.264-4.167,0.504-7.268,0.717-9.279c0.288,2.186,0.584,5.19,0.777,7.154
			c1.154,11.727,1.441,12.362,2.385,12.362c0.017,0,0.033,0,0.05,0c0.829-0.017,1.246-0.025,1.886-10.886
			c0.337-5.722,0.697-8.554,0.961-9.953c0.218,1.192,0.472,3.265,0.678,6.613c0.677,10.958,1.454,10.971,2.205,10.983
			c0.802,0.021,1.346-0.449,1.969-6.971c0.368-3.852,0.741-5.544,0.984-6.284c0.233,0.644,0.591,2.017,0.956,4.887
			c0.648,5.096,1.267,6.076,2.183,6.102c0.01,0,0.021,0,0.032,0c0.915,0,1.446-1.119,2.02-4.236
			c0.409-2.222,0.719-3.272,0.917-3.768c0.07,0.158,0.154,0.372,0.252,0.664c0.951,2.835,2.383,3.596,3.417,3.735
			c1.689,0.229,3.475-0.974,5.158-3.476c2.873-4.272,5.109-6.44,8.694-5.668l0.048,0.009c0.047,0.006,4.81,0.748,6.168,6.13
			c1.813,7.179,6.758,7.856,6.967,7.881l0.083,0.005c4.492,0,7.105-1.518,9.986-5.802c1.33-1.978,2.721-3.029,3.828-2.878
			c0.912,0.122,1.726,1.119,2.292,2.806c0.351,1.045,0.789,2.003,1.639,1.945c0.847-0.06,1.391-0.86,2.197-5.24
			c0.265-1.443,0.496-2.241,0.659-2.678c0.207,0.594,0.514,1.846,0.848,4.469c0.771,6.068,1.594,6.574,2.35,6.551
			c0.861-0.013,1.631-0.624,2.334-7.991c0.215-2.245,0.415-3.638,0.577-4.503c0.238,1.292,0.553,3.764,0.844,8.469
			c0.556,8.992,1.338,9.085,2.031,9.085h0.022c0.792-0.001,1.611-0.003,2.343-12.429c0.215-3.646,0.408-5.959,0.568-7.421
			c0.375,2.594,0.771,6.625,1,8.949c1.037,10.541,1.244,10.874,2.2,10.854c0.799-0.014,1.009-0.815,1.312-3.565
			c0.219-1.994,0.453-5,0.735-9.462c0.21-3.315,0.4-5.434,0.558-6.788c0.261,1.833,0.535,4.42,0.775,6.674
			c0.077,0.732,0.156,1.474,0.236,2.213c0.708,6.537,1.338,7.044,2.153,7.046h0.005c0.838,0,1.495-0.563,2.306-7.682
			c0.24-2.107,0.468-3.234,0.636-3.833c0.216,0.619,0.533,1.814,0.942,4.117c0.526,2.954,1.143,4.159,2.127,4.161h0.001
			c0.946,0,1.553-1.12,2.028-3.743c0.391-2.158,0.935-2.316,0.94-2.316c0.096-0.025,0.507,0.265,0.838,1.029
			c0.347,0.8,0.885,1.275,1.438,1.545V145.175z"/>
	</g>
	<g>
		
			<line fill="none" stroke="#505750" stroke-width="0.3996" stroke-miterlimit="10" x1="69.55" y1="113.447" x2="70.35" y2="113.447"/>
		
			<line fill="none" stroke="#505750" stroke-width="0.3996" stroke-miterlimit="10" stroke-dasharray="1.597,1.597" x1="71.946" y1="113.447" x2="186.133" y2="113.447"/>
		
			<line fill="none" stroke="#505750" stroke-width="0.3996" stroke-miterlimit="10" x1="186.931" y1="113.447" x2="187.73" y2="113.447"/>
	</g>
	<g>
		
			<line fill="none" stroke="#505750" stroke-width="0.3996" stroke-miterlimit="10" x1="69.55" y1="170.391" x2="70.35" y2="170.391"/>
		
			<line fill="none" stroke="#505750" stroke-width="0.3996" stroke-miterlimit="10" stroke-dasharray="1.597,1.597" x1="71.946" y1="170.391" x2="186.133" y2="170.391"/>
		
			<line fill="none" stroke="#505750" stroke-width="0.3996" stroke-miterlimit="10" x1="186.931" y1="170.391" x2="187.73" y2="170.391"/>
	</g>
	<g>
		<path fill="#A68F64" d="M77.615,208.453c0,0.862-0.698,1.561-1.56,1.561h-4.993c-0.861,0-1.56-0.699-1.56-1.561v-6.901
			c0-0.862,0.699-1.56,1.56-1.56h4.993c0.862,0,1.56,0.698,1.56,1.56V208.453z"/>
		<path fill="#997F4E" d="M76.055,208.668h-4.993c-0.861,0-1.56-0.699-1.56-1.56v1.345c0,0.862,0.699,1.561,1.56,1.561h4.993
			c0.862,0,1.56-0.699,1.56-1.561v-1.345C77.615,207.97,76.917,208.668,76.055,208.668z"/>
	</g>
	<g>
		<path fill="#A68F64" d="M100.063,208.453c0,0.862-0.698,1.561-1.56,1.561H93.51c-0.862,0-1.56-0.699-1.56-1.561v-6.901
			c0-0.862,0.698-1.56,1.56-1.56h4.993c0.862,0,1.56,0.698,1.56,1.56V208.453z"/>
		<path fill="#997F4E" d="M98.503,208.668H93.51c-0.862,0-1.56-0.699-1.56-1.56v1.345c0,0.862,0.698,1.561,1.56,1.561h4.993
			c0.862,0,1.56-0.699,1.56-1.561v-1.345C100.063,207.97,99.365,208.668,98.503,208.668z"/>
	</g>
	<g>
		<path fill="#A68F64" d="M122.511,208.453c0,0.862-0.698,1.561-1.56,1.561h-4.993c-0.862,0-1.56-0.699-1.56-1.561v-6.901
			c0-0.862,0.698-1.56,1.56-1.56h4.993c0.862,0,1.56,0.698,1.56,1.56V208.453z"/>
		<path fill="#997F4E" d="M120.951,208.668h-4.993c-0.862,0-1.56-0.699-1.56-1.56v1.345c0,0.862,0.698,1.561,1.56,1.561h4.993
			c0.862,0,1.56-0.699,1.56-1.561v-1.345C122.511,207.97,121.812,208.668,120.951,208.668z"/>
	</g>
	<g>
		<path fill="#A68F64" d="M144.958,208.453c0,0.862-0.699,1.561-1.56,1.561h-4.993c-0.862,0-1.561-0.699-1.561-1.561v-6.901
			c0-0.862,0.699-1.56,1.561-1.56h4.993c0.861,0,1.56,0.698,1.56,1.56V208.453z"/>
		<path fill="#997F4E" d="M143.398,208.668h-4.993c-0.862,0-1.561-0.699-1.561-1.56v1.345c0,0.862,0.699,1.561,1.561,1.561h4.993
			c0.861,0,1.56-0.699,1.56-1.561v-1.345C144.958,207.97,144.26,208.668,143.398,208.668z"/>
	</g>
	<g>
		<path fill="#A68F64" d="M167.406,208.453c0,0.862-0.699,1.561-1.56,1.561h-4.993c-0.861,0-1.56-0.699-1.56-1.561v-6.901
			c0-0.862,0.699-1.56,1.56-1.56h4.993c0.861,0,1.56,0.698,1.56,1.56V208.453z"/>
		<path fill="#997F4E" d="M165.846,208.668h-4.993c-0.861,0-1.56-0.699-1.56-1.56v1.345c0,0.862,0.699,1.561,1.56,1.561h4.993
			c0.861,0,1.56-0.699,1.56-1.561v-1.345C167.406,207.97,166.708,208.668,165.846,208.668z"/>
	</g>
	<g>
		<path fill="#A68F64" d="M189.854,208.453c0,0.862-0.699,1.561-1.56,1.561h-4.993c-0.861,0-1.56-0.699-1.56-1.561v-6.901
			c0-0.862,0.699-1.56,1.56-1.56h4.993c0.861,0,1.56,0.698,1.56,1.56V208.453z"/>
		<path fill="#997F4E" d="M188.294,208.668h-4.993c-0.861,0-1.56-0.699-1.56-1.56v1.345c0,0.862,0.699,1.561,1.56,1.561h4.993
			c0.861,0,1.56-0.699,1.56-1.561v-1.345C189.854,207.97,189.155,208.668,188.294,208.668z"/>
	</g>
	<path fill="#BCAA8A" d="M242.97,122.7c0,0.882-0.715,1.598-1.598,1.598h-41.557c-0.883,0-1.598-0.716-1.598-1.598l0,0
		c0-0.883,0.715-1.599,1.598-1.599h41.557C242.254,121.101,242.97,121.817,242.97,122.7L242.97,122.7z"/>
	<g>
		<circle fill="#DFD6C6" cx="206.668" cy="108.013" r="6.935"/>
		<path fill="#D3C6B0" d="M206.125,101.749v2.665c0,0.3,0.243,0.543,0.544,0.543c0.3,0,0.543-0.243,0.543-0.543v-2.665H206.125z"/>
	</g>
	<g>
		<circle fill="#DFD6C6" cx="206.939" cy="136.492" r="4.651"/>
		<path fill="#D3C6B0" d="M206.575,132.29v1.788c0,0.201,0.163,0.364,0.365,0.364c0.201,0,0.363-0.163,0.363-0.364v-1.788H206.575z"
			/>
	</g>
	<path fill="#A68F64" d="M224.606,109.212c0,0.698-0.565,1.264-1.263,1.264h-5.499c-0.698,0-1.264-0.566-1.264-1.264v-2.398
		c0-0.698,0.566-1.264,1.264-1.264h5.499c0.698,0,1.263,0.566,1.263,1.264V109.212z"/>
	<path fill="#A68F64" d="M236.751,109.212c0,0.698-0.566,1.264-1.264,1.264h-5.499c-0.698,0-1.263-0.566-1.263-1.264v-2.398
		c0-0.698,0.565-1.264,1.263-1.264h5.499c0.698,0,1.264,0.566,1.264,1.264V109.212z"/>
	<path fill="#BCAA8A" d="M220.593,189.228c0,0.602-0.488,1.089-1.089,1.089l0,0c-0.602,0-1.089-0.487-1.089-1.089v-66.23
		c0-0.602,0.488-1.089,1.089-1.089l0,0c0.602,0,1.089,0.488,1.089,1.089V189.228z"/>
	<path fill="#CED3C2" d="M210.674,149.811c0,1.13-0.916,2.046-2.046,2.046h-3.376c-1.13,0-2.046-0.916-2.046-2.046l0,0
		c0-1.129,0.916-2.046,2.046-2.046h3.376C209.758,147.765,210.674,148.682,210.674,149.811L210.674,149.811z"/>
	<path fill="#CED3C2" d="M210.674,161.53c0,1.13-0.916,2.046-2.046,2.046h-3.376c-1.13,0-2.046-0.916-2.046-2.046l0,0
		c0-1.129,0.916-2.046,2.046-2.046h3.376C209.758,159.484,210.674,160.401,210.674,161.53L210.674,161.53z"/>
	<path fill="#CED3C2" d="M210.674,173.25c0,1.13-0.916,2.046-2.046,2.046h-3.376c-1.13,0-2.046-0.917-2.046-2.046l0,0
		c0-1.13,0.916-2.046,2.046-2.046h3.376C209.758,171.204,210.674,172.12,210.674,173.25L210.674,173.25z"/>
	<path fill="#CED3C2" d="M210.674,184.969c0,1.13-0.916,2.046-2.046,2.046h-3.376c-1.13,0-2.046-0.916-2.046-2.046l0,0
		c0-1.129,0.916-2.046,2.046-2.046h3.376C209.758,182.923,210.674,183.84,210.674,184.969L210.674,184.969z"/>
	<g>
		<circle fill="#DFD6C6" cx="232.738" cy="136.492" r="4.651"/>
		<path fill="#D3C6B0" d="M232.374,132.29v1.788c0,0.201,0.163,0.364,0.365,0.364c0.201,0,0.364-0.163,0.364-0.364v-1.788H232.374z"
			/>
	</g>
	<path fill="#CED3C2" d="M236.472,149.811c0,1.13-0.916,2.046-2.046,2.046h-3.376c-1.13,0-2.046-0.916-2.046-2.046l0,0
		c0-1.129,0.917-2.046,2.046-2.046h3.376C235.556,147.765,236.472,148.682,236.472,149.811L236.472,149.811z"/>
	<path fill="#CED3C2" d="M236.472,161.53c0,1.13-0.916,2.046-2.046,2.046h-3.376c-1.13,0-2.046-0.916-2.046-2.046l0,0
		c0-1.129,0.917-2.046,2.046-2.046h3.376C235.556,159.484,236.472,160.401,236.472,161.53L236.472,161.53z"/>
	<path fill="#CED3C2" d="M236.472,173.25c0,1.13-0.916,2.046-2.046,2.046h-3.376c-1.13,0-2.046-0.917-2.046-2.046l0,0
		c0-1.13,0.917-2.046,2.046-2.046h3.376C235.556,171.204,236.472,172.12,236.472,173.25L236.472,173.25z"/>
	<path fill="#CED3C2" d="M236.472,184.969c0,1.13-0.916,2.046-2.046,2.046h-3.376c-1.13,0-2.046-0.916-2.046-2.046l0,0
		c0-1.129,0.917-2.046,2.046-2.046h3.376C235.556,182.923,236.472,183.84,236.472,184.969L236.472,184.969z"/>
	<rect x="199.733" y="196.066" fill="#393A39" width="43.236" height="3.925"/>
</g>
</svg>
