<?xml version="1.0" encoding="utf-8"?>
<!-- Generator: Adobe Illustrator 16.0.0, SVG Export Plug-In . SVG Version: 6.00 Build 0)  -->
<!DOCTYPE svg PUBLIC "-//W3C//DTD SVG 1.1 Tiny//EN" "http://www.w3.org/Graphics/SVG/1.1/DTD/svg11-tiny.dtd">
<svg version="1.1" baseProfile="tiny" id="Layer_1" xmlns="http://www.w3.org/2000/svg" xmlns:xlink="http://www.w3.org/1999/xlink"
	 x="0px" y="0px" width="300px" height="300px" viewBox="0 0 300 300" xml:space="preserve">
<g>
	<circle fill="#25A7DE" cx="150" cy="150" r="131.6"/>
	<g>
		<path fill="#BDBEBF" d="M231.273,219.735l-3.779-10.331l1.89,5.166l-1.904-5.16c1.089-0.406,26.669-10.243,26.669-36.837
			c0-22.862-16.262-37.443-24.765-37.443v-11c16.199,0,35.765,21.609,35.765,48.443
			C265.148,206.949,232.656,219.229,231.273,219.735z"/>
		<path fill="#D4D5D6" d="M219.974,114.058c7.865,0.282,14.159,6.729,14.159,14.664c0,7.935-6.294,14.382-14.159,14.664V114.058z"/>
		<path fill="#F29000" d="M211.697,142.152c0,2.379,1.929,4.308,4.308,4.308l0,0c2.379,0,4.308-1.929,4.308-4.308v-27.963
			c0-2.379-1.929-4.308-4.308-4.308l0,0c-2.379,0-4.308,1.929-4.308,4.308V142.152z"/>
		<path fill="#BDBEBF" d="M70.005,219.735c-1.383-0.506-33.875-12.786-33.875-47.162c0-12.467,4.146-24.597,11.673-34.153
			c7.047-8.948,16.054-14.29,24.092-14.29v11c-8.503,0-24.765,14.582-24.765,37.443c0,26.594,25.58,36.431,26.669,36.837
			L70.005,219.735z"/>
		<path fill="#30C7E7" d="M200.299,194.115V141.67c0-24.91-20.197-45.107-45.108-45.107h-10.264
			c-24.91,0-45.107,20.197-45.107,45.107v52.445H200.299z"/>
		<path fill="#7ADBF0" d="M172.014,114.136c-0.373,0-0.751-0.093-1.099-0.288c-5.625-3.15-12.027-4.815-18.515-4.815
			c-1.244,0-2.254-1.009-2.254-2.253s1.01-2.253,2.254-2.253c7.257,0,14.42,1.864,20.716,5.389c1.086,0.608,1.474,1.981,0.865,3.067
			C173.568,113.721,172.803,114.136,172.014,114.136z"/>
		<path fill="#7ADBF0" d="M192.605,169.198c-1.244,0-2.253-1.009-2.253-2.253v-19.959c0-10.758-4.596-21.055-12.609-28.25
			c-0.926-0.832-1.002-2.256-0.171-3.182c0.832-0.926,2.256-1.002,3.183-0.171c8.963,8.048,14.104,19.567,14.104,31.604v19.959
			C194.859,168.189,193.85,169.198,192.605,169.198z"/>
		<path fill="#6A6C6C" d="M175.022,193.814v-41.771c0-12.378-10.034-22.414-22.413-22.414h-5.101
			c-12.379,0-22.413,10.036-22.413,22.414v41.771H175.022z"/>
		<g>
			<circle fill="#E5FAFC" cx="150.059" cy="159.006" r="18.058"/>
			<path fill="#E7E8E8" d="M150.059,179.318c-11.199,0-20.312-9.112-20.312-20.312c0-11.2,9.112-20.312,20.312-20.312
				c11.2,0,20.312,9.112,20.312,20.312C170.37,170.206,161.259,179.318,150.059,179.318z M150.059,143.201
				c-8.715,0-15.805,7.09-15.805,15.806c0,8.715,7.09,15.805,15.805,15.805s15.805-7.09,15.805-15.805
				C165.863,150.291,158.773,143.201,150.059,143.201z"/>
		</g>
		<path fill="#FFFFFF" d="M160.538,160.067c-0.622,0-1.127-0.504-1.127-1.126c0-5.157-4.195-9.354-9.353-9.354
			c-0.622,0-1.127-0.504-1.127-1.126s0.505-1.127,1.127-1.127c6.399,0,11.606,5.207,11.606,11.607
			C161.665,159.562,161.16,160.067,160.538,160.067z"/>
		<path fill="#D2D3D3" d="M211.09,266.657v-68.091c0-4.355-3.531-7.887-7.888-7.887H96.915c-4.355,0-7.887,3.532-7.887,7.887v68.089
			c0,0,25.223,15.244,62.06,14.938C168.889,281.446,190.405,277.282,211.09,266.657z"/>
		<path fill="#D2D3D3" d="M154.134,160.565c-2.985,0-5.406-2.42-5.406-5.405c0-0.928,0.257-1.788,0.669-2.551
			c-3.842,0.355-6.851,3.584-6.851,7.518c0,4.171,3.383,7.553,7.553,7.553c4.174,0,7.555-3.382,7.555-7.553
			c0-0.289-0.02-0.573-0.052-0.854C156.661,160.067,155.462,160.565,154.134,160.565z"/>
		<g>
			<path fill="#F0F1F1" d="M94.835,235.334l2.865-2.864c-0.908-0.527-2.088-0.411-2.865,0.367c-0.927,0.928-0.927,2.431,0,3.358
				C94.597,235.957,94.597,235.572,94.835,235.334z"/>
			<path fill="#F0F1F1" d="M98.562,233.33l-2.866,2.865c-0.237,0.237-0.622,0.237-0.86,0c0.929,0.927,2.432,0.927,3.358,0
				C98.971,235.417,99.088,234.238,98.562,233.33z"/>
		</g>
		<g>
			<path fill="#F0F1F1" d="M97.271,257.017l-2.865-2.865c-0.525,0.908-0.41,2.087,0.368,2.865c0.928,0.928,2.431,0.928,3.358,0
				C97.894,257.255,97.509,257.254,97.271,257.017z"/>
			<path fill="#F0F1F1" d="M95.267,253.291l2.865,2.866c0.237,0.238,0.237,0.622,0,0.86c0.926-0.928,0.926-2.431,0-3.357
				C97.354,252.881,96.175,252.765,95.267,253.291z"/>
		</g>
		<g>
			<path fill="#F0F1F1" d="M203.57,235.334l2.864-2.864c-0.907-0.527-2.087-0.411-2.864,0.367c-0.928,0.928-0.928,2.431,0,3.358
				C203.331,235.957,203.332,235.572,203.57,235.334z"/>
			<path fill="#F0F1F1" d="M207.297,233.33l-2.866,2.865c-0.238,0.237-0.622,0.237-0.86,0c0.927,0.927,2.431,0.927,3.356,0
				C207.706,235.417,207.822,234.238,207.297,233.33z"/>
		</g>
		<g>
			<path fill="#F0F1F1" d="M206.005,257.017l-2.865-2.865c-0.525,0.908-0.409,2.087,0.367,2.865c0.929,0.928,2.432,0.928,3.358,0
				C206.628,257.255,206.242,257.254,206.005,257.017z"/>
			<path fill="#F0F1F1" d="M204,253.291l2.865,2.866c0.237,0.238,0.237,0.622,0,0.86c0.928-0.928,0.928-2.431,0-3.357
				C206.089,252.881,204.909,252.765,204,253.291z"/>
		</g>
		<path fill="#B3B4B4" d="M137.986,252.708c0,2.38-1.929,4.309-4.309,4.309h-8.439c-2.38,0-4.309-1.929-4.309-4.309v-16.154
			c0-2.38,1.929-4.309,4.309-4.309h8.439c2.38,0,4.309,1.929,4.309,4.309V252.708z"/>
		<path fill="#ECECEC" d="M133.678,255.622h-8.439c-2.38,0-4.309-1.93-4.309-4.31v1.37c0,2.38,1.929,4.309,4.309,4.309h8.439
			c2.38,0,4.309-1.929,4.309-4.309v-1.37C137.986,253.692,136.058,255.622,133.678,255.622z"/>
		<circle fill="#2BAA3A" cx="125.455" cy="238.677" r="1.788"/>
		<circle fill="#E6352B" cx="125.455" cy="244.53" r="1.788"/>
		<circle fill="#FFEB00" cx="125.455" cy="250.382" r="1.788"/>
		<path fill="#8E8F8F" d="M134.761,249.519c0,1.464-1.188,2.651-2.652,2.651l0,0c-1.463,0-2.65-1.187-2.65-2.651v-9.978
			c0-1.464,1.188-2.65,2.65-2.65l0,0c1.465,0,2.652,1.187,2.652,2.65V249.519z"/>
		<g>
			<circle fill="#C0C1C1" cx="151.088" cy="241.86" r="7.999"/>
			<g>
				<path fill="#FFEB00" d="M157.729,241.651c-0.152-3.541-3.062-6.367-6.642-6.367s-6.489,2.826-6.642,6.367H157.729z"/>
				<path fill="#8E8F8F" d="M144.44,242.103c0.088,3.6,3.026,6.492,6.647,6.492s6.56-2.893,6.646-6.492H144.44z"/>
			</g>
		</g>
		<g>
			<circle fill="#C0C1C1" cx="170.644" cy="241.859" r="7.999"/>
			<g>
				<path fill="#FFEB00" d="M166.096,246.703c2.611,2.396,6.667,2.337,9.198-0.194c2.531-2.531,2.591-6.587,0.194-9.199
					L166.096,246.703z"/>
				<path fill="#8E8F8F" d="M175.172,236.987c-2.606-2.484-6.729-2.451-9.29,0.109s-2.593,6.684-0.109,9.291L175.172,236.987z"/>
			</g>
		</g>
		<g>
			<circle fill="#C0C1C1" cx="189.607" cy="241.858" r="7.999"/>
			<g>
				<path fill="#FFEB00" d="M182.965,242.067c0.151,3.541,3.062,6.366,6.643,6.367c3.578,0,6.488-2.826,6.642-6.368L182.965,242.067
					z"/>
				<path fill="#8E8F8F" d="M196.253,241.615c-0.087-3.6-3.024-6.491-6.646-6.492c-3.621,0-6.56,2.893-6.647,6.493L196.253,241.615z
					"/>
			</g>
		</g>
		<rect x="89.028" y="227.372" fill="#B3B4B4" width="122.062" height="1.708"/>
		<rect x="89.028" y="260.317" fill="#B3B4B4" width="122.062" height="1.708"/>
		<rect x="99.819" y="184.669" fill="#E7E8E8" width="100.479" height="6.009"/>
		<rect x="72.816" y="204.393" fill="#C2B1B1" width="16.095" height="18.664"/>
		<circle fill="#E1E2E2" cx="72.817" cy="214.569" r="16.094"/>
		<circle fill="#C2C4C4" cx="72.816" cy="214.569" r="8.488"/>
		<rect x="211.09" y="204.393" fill="#C2B1B1" width="16.094" height="18.664"/>
		<circle fill="#E1E2E2" cx="227.184" cy="214.569" r="16.094"/>
		<circle fill="#C2C4C4" cx="227.185" cy="214.569" r="8.488"/>
		<circle fill="#7ADBF0" cx="142.118" cy="106.78" r="4.131"/>
		<g>
			<circle fill="#393A39" cx="149.348" cy="207.413" r="14.587"/>
			<path fill="#BDBEBF" d="M149.348,192.826c8.057,0,14.588,6.531,14.588,14.587c0,8.056-6.531,14.587-14.588,14.587
				c-8.056,0-14.587-6.531-14.587-14.587C134.761,199.356,141.292,192.826,149.348,192.826 M149.348,188.826
				c-10.249,0-18.587,8.338-18.587,18.587S139.099,226,149.348,226s18.588-8.338,18.588-18.587S159.597,188.826,149.348,188.826
				L149.348,188.826z"/>
		</g>
		<path fill="#6A6C6C" d="M163.935,117.51c0,2.436-1.974,4.411-4.411,4.411h-18.848c-2.437,0-4.411-1.975-4.411-4.411l0,0
			c0-2.436,1.975-4.411,4.411-4.411h18.848C161.961,113.1,163.935,115.075,163.935,117.51L163.935,117.51z"/>
		<path fill="#D4D5D6" d="M81.305,114.058c-7.865,0.282-14.159,6.729-14.159,14.664c0,7.935,6.294,14.382,14.159,14.664V114.058z"/>
		<path fill="#F29000" d="M89.581,142.152c0,2.379-1.929,4.308-4.308,4.308l0,0c-2.379,0-4.308-1.929-4.308-4.308v-27.963
			c0-2.379,1.929-4.308,4.308-4.308l0,0c2.379,0,4.308,1.929,4.308,4.308V142.152z"/>
	</g>
	<g>
		<path fill="#FFFFFF" d="M94.035,60.331c0.056,0.139,0.818,1.942,2.288,5.41c0.666,1.581,1.408,3.44,2.227,5.576
			c0.818,2.136,1.449,3.953,1.894,5.451c0.526-2.357,1.456-5.131,2.788-8.322c1.165-2.69,2.33-5.395,3.495-8.114h4.66l4.743,11.484
			c0.306,0.749,0.617,1.582,0.937,2.497c0.318,0.915,0.548,1.762,0.687,2.538c0.583-1.775,1.241-3.62,1.977-5.534
			c0.734-1.914,1.47-3.766,2.205-5.555c0.734-1.789,1.491-3.599,2.268-5.43h7.906L119.75,89.708h-4.244l-5.908-16.27l-0.541-1.748
			c-0.722,2.636-1.721,5.659-2.996,9.071c-1.138,2.996-2.262,5.979-3.37,8.946h-4.244L86.088,60.331H94.035z"/>
		<path fill="#FFFFFF" d="M149.542,59.707c4.716,0,8.641,1.32,11.776,3.958c3.301,2.778,4.951,6.5,4.951,11.167
			c0,4.75-1.596,8.542-4.785,11.375c-3.052,2.723-6.977,4.083-11.775,4.083c-4.8,0-8.738-1.306-11.817-3.917
			c-3.273-2.777-4.91-6.528-4.91-11.25c0-4.86,1.567-8.68,4.702-11.458C140.68,61.026,144.633,59.707,149.542,59.707z
			 M149.667,83.799c2.524,0,4.64-0.813,6.346-2.44c1.706-1.627,2.559-3.705,2.559-6.235c0-2.725-0.825-4.901-2.476-6.528
			c-1.65-1.626-3.835-2.44-6.554-2.44c-2.69,0-4.848,0.786-6.47,2.357c-1.623,1.571-2.435,3.705-2.435,6.402
			c0,2.642,0.846,4.783,2.538,6.423C144.868,82.979,147.031,83.799,149.667,83.799z"/>
		<path fill="#FFFFFF" d="M174.425,60.331c0.056,0.139,0.818,1.942,2.288,5.41c0.666,1.581,1.408,3.44,2.227,5.576
			c0.818,2.136,1.449,3.953,1.894,5.451c0.526-2.357,1.456-5.131,2.788-8.322c1.165-2.69,2.33-5.395,3.495-8.114h4.66l4.743,11.484
			c0.306,0.749,0.617,1.582,0.937,2.497c0.318,0.915,0.548,1.762,0.687,2.538c0.583-1.775,1.241-3.62,1.977-5.534
			c0.734-1.914,1.47-3.766,2.205-5.555c0.734-1.789,1.491-3.599,2.268-5.43h7.906L200.14,89.708h-4.244l-5.908-16.27l-0.541-1.748
			c-0.722,2.636-1.721,5.659-2.996,9.071c-1.138,2.996-2.262,5.979-3.37,8.946h-4.244l-12.358-29.377H174.425z"/>
	</g>
	<path fill="#9DDADE" d="M150,47.446c-1.104,0-2-0.896-2-2v-8.941c0-1.104,0.896-2,2-2s2,0.896,2,2v8.941
		C152,46.55,151.104,47.446,150,47.446z"/>
	<path fill="#9DDADE" d="M74.667,75.489h-8.941c-1.104,0-2-0.896-2-2s0.896-2,2-2h8.941c1.104,0,2,0.896,2,2
		S75.771,75.489,74.667,75.489z"/>
	<path fill="#9DDADE" d="M104.29,50.607c-0.512,0-1.023-0.195-1.414-0.586l-6.322-6.323c-0.781-0.781-0.781-2.047,0-2.828
		c0.781-0.781,2.047-0.781,2.828,0l6.322,6.323c0.781,0.781,0.781,2.047,0,2.828C105.313,50.412,104.802,50.607,104.29,50.607z"/>
	<path fill="#9DDADE" d="M97.968,107.811c-0.512,0-1.023-0.195-1.414-0.586c-0.781-0.781-0.781-2.047,0-2.828l6.322-6.323
		c0.781-0.781,2.047-0.781,2.828,0c0.781,0.781,0.781,2.047,0,2.828l-6.322,6.323C98.991,107.615,98.479,107.811,97.968,107.811z"/>
	<path fill="#9DDADE" d="M201.459,107.811c-0.512,0-1.023-0.195-1.414-0.585l-6.323-6.322c-0.781-0.781-0.781-2.047,0-2.829
		s2.047-0.781,2.828,0l6.323,6.322c0.781,0.781,0.781,2.047,0,2.829C202.482,107.615,201.971,107.811,201.459,107.811z"/>
	<path fill="#9DDADE" d="M197.092,50.607c-0.512,0-1.023-0.195-1.414-0.586c-0.781-0.781-0.781-2.047,0-2.828L202,40.871
		c0.781-0.781,2.047-0.781,2.828,0c0.781,0.781,0.781,2.047,0,2.828l-6.322,6.323C198.115,50.412,197.604,50.607,197.092,50.607z"/>
	<path fill="#9DDADE" d="M229.254,75.489h-8.941c-1.104,0-2-0.896-2-2s0.896-2,2-2h8.941c1.104,0,2,0.896,2,2
		S230.358,75.489,229.254,75.489z"/>
</g>
</svg>
