<?xml version="1.0" encoding="utf-8"?>
<!-- Generator: Adobe Illustrator 16.0.0, SVG Export Plug-In . SVG Version: 6.00 Build 0)  -->
<!DOCTYPE svg PUBLIC "-//W3C//DTD SVG 1.1 Tiny//EN" "http://www.w3.org/Graphics/SVG/1.1/DTD/svg11-tiny.dtd">
<svg version="1.1" baseProfile="tiny" id="Layer_1" xmlns="http://www.w3.org/2000/svg" xmlns:xlink="http://www.w3.org/1999/xlink"
	 x="0px" y="0px" width="300px" height="300px" viewBox="0 0 300 300" xml:space="preserve">
<g>
	<circle fill="#163A6C" cx="150" cy="150" r="131.6"/>
	<g>
		<g>
			<path fill="#9A9B9C" d="M66.496,196.092l-12.568-4.912c5.485-14.035,16.198-32.247,36.083-39.303
				c12.042-4.271,21.612-2.389,22.664-2.161l-2.868,13.187l1.434-6.593l-1.38,6.604C108.708,162.684,81.493,157.721,66.496,196.092z
				"/>
			<path fill="#F8AE32" d="M111.603,142.641c-2.538,0-2.551-0.001-2.564-0.001h-0.296c-2.436,0-4.41,1.975-4.41,4.411v19.634
				c0,2.437,1.974,4.41,4.41,4.41h0.296c0.014,0,0.027-0.001,2.564-0.001V142.641z"/>
			<path fill="#F8AE32" d="M57.547,180.077c-1.723,3.45-1.733,3.467-1.743,3.486l-0.201,0.402c-1.653,3.311-0.935,7.023,1.606,8.292
				l5.977,2.984c2.54,1.271,5.938-0.387,7.593-3.697l0.2-0.402c0.01-0.019,0.017-0.037,1.739-3.485L57.547,180.077z"/>
			<g>
				
					<rect x="63.154" y="192.006" transform="matrix(0.9627 -0.2704 0.2704 0.9627 -52.0607 25.2626)" fill="#868788" width="4.998" height="19.13"/>
				
					<rect x="49.027" y="183.299" transform="matrix(0.2702 0.9628 -0.9628 0.2702 223.2937 91.1417)" fill="#9A9B9C" width="4.998" height="19.13"/>
				<circle fill="#9A9B9C" cx="60.899" cy="192.418" r="4.603"/>
				
					<rect x="42.104" y="192.432" transform="matrix(0.2703 0.9628 -0.9628 0.2703 221.707 98.7625)" fill="#9A9B9C" width="7.194" height="6.413"/>
				
					<rect x="62.988" y="204.301" transform="matrix(0.2703 0.9628 -0.9628 0.2703 248.3739 87.3172)" fill="#868788" width="7.194" height="6.413"/>
				<circle fill="#737475" cx="61.05" cy="192.41" r="1.956"/>
			</g>
		</g>
		<g>
			<path fill="#9A9B9C" d="M233.504,196.092c-14.997-38.371-42.214-33.408-43.365-33.178l-2.813-13.198
				c1.051-0.228,10.623-2.11,22.663,2.161c19.885,7.056,30.599,25.268,36.084,39.303L233.504,196.092z"/>
			<path fill="#F8AE32" d="M188.397,142.641c2.538,0,2.551-0.001,2.564-0.001h0.296c2.436,0,4.41,1.975,4.41,4.411v19.634
				c0,2.437-1.974,4.41-4.41,4.41h-0.296c-0.014,0-0.027-0.001-2.564-0.001V142.641z"/>
			<path fill="#F8AE32" d="M242.453,180.077c1.723,3.45,1.733,3.467,1.742,3.486l0.202,0.402c1.653,3.311,0.935,7.023-1.606,8.292
				l-5.976,2.984c-2.54,1.271-5.938-0.387-7.593-3.697l-0.2-0.402c-0.01-0.019-0.017-0.037-1.739-3.485L242.453,180.077z"/>
			<g>
				
					<rect x="231.848" y="192.006" transform="matrix(-0.9627 -0.2704 0.2704 -0.9627 405.4564 459.0016)" fill="#868788" width="4.998" height="19.13"/>
				
					<rect x="245.974" y="183.299" transform="matrix(-0.2702 0.9628 -0.9628 -0.2702 501.3011 5.7452)" fill="#9A9B9C" width="4.998" height="19.13"/>
				<circle fill="#9A9B9C" cx="239.101" cy="192.418" r="4.603"/>
				
					<rect x="250.702" y="192.432" transform="matrix(-0.2702 0.9628 -0.9628 -0.2702 511.3737 3.6623)" fill="#9A9B9C" width="7.194" height="6.413"/>
				
					<rect x="229.818" y="204.301" transform="matrix(-0.2703 0.9628 -0.9628 -0.2703 496.2855 38.8627)" fill="#868788" width="7.194" height="6.413"/>
				<circle fill="#737475" cx="238.95" cy="192.41" r="1.956"/>
			</g>
		</g>
		<rect x="100.266" y="88.75" fill="#FFFFFF" width="7.702" height="1.19"/>
		<path fill="#FFFFFF" d="M97.875,92.331c-1.646,0-2.985-1.339-2.985-2.986c0-1.646,1.339-2.984,2.985-2.984
			s2.985,1.339,2.985,2.984C100.861,90.992,99.521,92.331,97.875,92.331z M97.875,87.551c-0.99,0-1.795,0.805-1.795,1.794
			c0,0.99,0.805,1.795,1.795,1.795s1.795-0.806,1.795-1.795C99.67,88.356,98.865,87.551,97.875,87.551z"/>
		<rect x="190.109" y="88.75" fill="#FFFFFF" width="7.702" height="1.19"/>
		<path fill="#FFFFFF" d="M200.201,92.331c-1.646,0-2.985-1.339-2.985-2.986c0-1.646,1.339-2.984,2.985-2.984
			s2.985,1.339,2.985,2.984C203.187,90.992,201.847,92.331,200.201,92.331z M200.201,87.551c-0.99,0-1.795,0.805-1.795,1.794
			c0,0.99,0.805,1.795,1.795,1.795s1.795-0.806,1.795-1.795C201.996,88.356,201.191,87.551,200.201,87.551z"/>
		<g>
			<path fill="#9A9B9C" d="M158.076,144.996c0,1.535-1.243,2.778-2.778,2.778H143.59c-1.534,0-2.778-1.244-2.778-2.778v-20.652
				c0-1.536,1.244-2.779,2.778-2.779h11.708c1.535,0,2.778,1.244,2.778,2.779V144.996z"/>
			<path fill="#8A8B8C" d="M158.076,127.995c0,0.616-0.499,1.115-1.115,1.115h-15.034c-0.616,0-1.115-0.499-1.115-1.115l0,0
				c0-0.617,0.5-1.117,1.115-1.117h15.034C157.577,126.878,158.076,127.377,158.076,127.995L158.076,127.995z"/>
			<path fill="#8A8B8C" d="M158.076,133.479c0,0.616-0.499,1.115-1.115,1.115h-15.034c-0.616,0-1.115-0.5-1.115-1.115l0,0
				c0-0.617,0.5-1.116,1.115-1.116h15.034C157.577,132.362,158.076,132.861,158.076,133.479L158.076,133.479z"/>
			<path fill="#8A8B8C" d="M158.076,138.961c0,0.616-0.499,1.116-1.115,1.116h-15.034c-0.616,0-1.115-0.5-1.115-1.116l0,0
				c0-0.615,0.5-1.115,1.115-1.115h15.034C157.577,137.846,158.076,138.346,158.076,138.961L158.076,138.961z"/>
			<path fill="#8A8B8C" d="M158.076,144.445c0,0.616-0.499,1.115-1.115,1.115h-15.034c-0.616,0-1.115-0.5-1.115-1.115l0,0
				c0-0.617,0.5-1.116,1.115-1.116h15.034C157.577,143.329,158.076,143.828,158.076,144.445L158.076,144.445z"/>
		</g>
		<path fill="#BDBEBF" d="M181.553,117.676c0,3.484-2.825,6.309-6.309,6.309h-52.412c-3.484,0-6.308-2.825-6.308-6.309V67.773
			c0-3.483,2.824-6.308,6.308-6.308h52.412c3.484,0,6.309,2.825,6.309,6.308V117.676z"/>
		<path fill="#BDBEBF" d="M188.7,213.637c0,4.163-3.375,7.537-7.538,7.537h-62.625c-4.163,0-7.538-3.374-7.538-7.537v-69.558
			c0-4.163,3.375-7.537,7.538-7.537h62.625c4.163,0,7.538,3.374,7.538,7.537V213.637z"/>
		<path fill="#D6D7D8" d="M175.244,61.466h-52.412c-3.484,0-6.308,2.825-6.308,6.308v3.321c0-3.485,2.824-6.309,6.308-6.309h52.412
			c3.484,0,6.309,2.824,6.309,6.309v-3.321C181.553,64.291,178.728,61.466,175.244,61.466z"/>
		<g>
			<g>
				<circle fill="#6A6C6C" cx="133.251" cy="84.945" r="12.349"/>
				<circle fill="#00B6E1" cx="133.252" cy="84.945" r="8.769"/>
				<path fill="#5ED1EC" d="M139.646,88.054c-0.093,0-0.188-0.017-0.28-0.051c-0.41-0.155-0.617-0.613-0.462-1.023
					c0.238-0.631,0.359-1.297,0.359-1.979c0-3.102-2.523-5.625-5.624-5.625c-0.438,0-0.794-0.355-0.794-0.794
					s0.355-0.794,0.794-0.794c3.977,0,7.212,3.235,7.212,7.212c0,0.875-0.155,1.729-0.461,2.54
					C140.268,87.858,139.966,88.054,139.646,88.054z"/>
			</g>
			<g>
				<circle fill="#6A6C6C" cx="164.825" cy="84.945" r="12.349"/>
				<circle fill="#00B6E1" cx="164.825" cy="84.945" r="8.769"/>
				<path fill="#5ED1EC" d="M171.219,88.054c-0.093,0-0.188-0.017-0.28-0.051c-0.41-0.155-0.617-0.613-0.462-1.023
					c0.238-0.631,0.359-1.297,0.359-1.979c0-3.102-2.522-5.625-5.624-5.625c-0.438,0-0.794-0.355-0.794-0.794
					s0.355-0.794,0.794-0.794c3.976,0,7.211,3.235,7.211,7.212c0,0.875-0.155,1.729-0.461,2.54
					C171.841,87.858,171.54,88.054,171.219,88.054z"/>
			</g>
		</g>
		<path fill="#E7E8E8" d="M169.742,112.774c0,1.535-1.243,2.778-2.778,2.778h-35.851c-1.535,0-2.778-1.243-2.778-2.778v-7.254
			c0-1.534,1.243-2.776,2.778-2.776h35.851c1.535,0,2.778,1.243,2.778,2.776V112.774z"/>
		<path fill="#D2D3D3" d="M166.963,102.744h-35.851c-1.535,0-2.778,1.243-2.778,2.776v1.166c0-1.535,1.243-2.778,2.778-2.778h35.851
			c1.535,0,2.778,1.243,2.778,2.778v-1.166C169.742,103.986,168.499,102.744,166.963,102.744z"/>
		<g>
			<path fill="#D2D3D3" d="M133.397,112.724c0,0.449-0.363,0.812-0.812,0.812l0,0c-0.448,0-0.811-0.364-0.811-0.812v-7.199
				c0-0.447,0.363-0.811,0.811-0.811l0,0c0.449,0,0.812,0.364,0.812,0.811V112.724z"/>
			<path fill="#D2D3D3" d="M141.624,112.724c0,0.449-0.364,0.812-0.812,0.812l0,0c-0.448,0-0.811-0.364-0.811-0.812v-7.199
				c0-0.447,0.363-0.811,0.811-0.811l0,0c0.448,0,0.812,0.364,0.812,0.811V112.724z"/>
			<path fill="#D2D3D3" d="M149.85,112.724c0,0.449-0.364,0.812-0.812,0.812l0,0c-0.449,0-0.812-0.364-0.812-0.812v-7.199
				c0-0.447,0.364-0.811,0.812-0.811l0,0c0.448,0,0.812,0.364,0.812,0.811V112.724z"/>
			<path fill="#D2D3D3" d="M158.076,112.724c0,0.449-0.363,0.812-0.811,0.812l0,0c-0.448,0-0.812-0.364-0.812-0.812v-7.199
				c0-0.447,0.363-0.811,0.812-0.811l0,0c0.448,0,0.811,0.364,0.811,0.811V112.724z"/>
			<path fill="#D2D3D3" d="M166.303,112.724c0,0.449-0.363,0.812-0.812,0.812l0,0c-0.449,0-0.812-0.364-0.812-0.812v-7.199
				c0-0.447,0.363-0.811,0.812-0.811l0,0c0.448,0,0.812,0.364,0.812,0.811V112.724z"/>
		</g>
		<path fill="#F8AE32" d="M116.524,75.951c-2.39,0-2.401-0.001-2.415-0.001h-0.279c-2.293,0-4.152,1.859-4.152,4.152v18.487
			c0,2.292,1.859,4.151,4.152,4.151h0.279c0.013,0,0.025-0.002,2.415-0.002V75.951z"/>
		<path fill="#F29000" d="M109.679,82.648c-1.194,0-1.201-0.001-1.207-0.001h-0.139c-1.147,0-2.077,0.93-2.077,2.077v9.246
			c0,1.147,0.929,2.077,2.077,2.077h0.139c0.006,0,0.013-0.001,1.207-0.001V82.648z"/>
		<path fill="#F8AE32" d="M181.553,75.951c2.389,0,2.401-0.001,2.413-0.001h0.279c2.293,0,4.152,1.859,4.152,4.152v18.487
			c0,2.292-1.858,4.151-4.152,4.151h-0.279c-0.012,0-0.024-0.002-2.413-0.002V75.951z"/>
		<path fill="#F29000" d="M188.397,82.648c1.195,0,1.201-0.001,1.208-0.001h0.14c1.146,0,2.076,0.93,2.076,2.077v9.246
			c0,1.147-0.929,2.077-2.076,2.077h-0.14c-0.006,0-0.013-0.001-1.208-0.001V82.648z"/>
		<polygon fill="#E7E8E8" points="140.838,123.985 158.051,123.985 158.051,136.542 140.812,126.878 		"/>
		<g>
			<g>
				<path fill="#00CBE1" d="M170.705,163.489c-0.003-11.515-9.338-20.85-20.854-20.85s-20.852,9.334-20.855,20.85H170.705z"/>
				<path fill="#FFFFFF" d="M171.75,164.533H127.95l0-1.045c0.003-12.072,9.827-21.894,21.899-21.894s21.896,9.821,21.899,21.894
					L171.75,164.533z M130.067,162.444h39.566c-0.548-10.437-9.213-18.761-19.783-18.761
					C139.28,143.684,130.615,152.007,130.067,162.444z"/>
			</g>
			<path fill="#67E0ED" d="M161.402,152.009c-0.146,0-0.292-0.053-0.407-0.16c-3.213-3.004-7.406-4.658-11.807-4.658
				c-1.543,0-3.076,0.204-4.554,0.606c-0.317,0.085-0.645-0.101-0.731-0.418c-0.086-0.317,0.101-0.645,0.418-0.731
				c1.581-0.429,3.218-0.647,4.867-0.647c4.704,0,9.186,1.768,12.62,4.979c0.24,0.225,0.253,0.602,0.028,0.842
				C161.72,151.946,161.562,152.009,161.402,152.009z"/>
			<path fill="#67E0ED" d="M166.382,160.128c-0.259,0-0.497-0.17-0.572-0.431c-0.43-1.498-1.065-2.934-1.886-4.268
				c-0.172-0.28-0.085-0.646,0.195-0.819c0.28-0.172,0.647-0.084,0.819,0.195c0.878,1.426,1.557,2.961,2.017,4.563
				c0.091,0.316-0.092,0.646-0.408,0.737C166.492,160.12,166.437,160.128,166.382,160.128z"/>
			<path fill="#FFFFFF" d="M155.43,162.623c0-3.082-2.499-5.581-5.58-5.581c-3.082,0-5.58,2.499-5.581,5.581H155.43z"/>
			<path fill="#FFFFFF" d="M149.85,162.912c-0.355,0-0.711-0.136-0.982-0.407c-0.542-0.542-0.542-1.422,0-1.965l6.368-6.367
				c0.543-0.542,1.422-0.542,1.965,0c0.542,0.542,0.542,1.422,0,1.965l-6.368,6.367C150.561,162.776,150.206,162.912,149.85,162.912
				z"/>
		</g>
		<g>
			<circle fill="#2BAA3A" cx="120.639" cy="145.131" r="2.492"/>
			<path fill="#D2D3D3" d="M120.64,148.218c-1.703,0-3.087-1.385-3.087-3.087s1.385-3.087,3.087-3.087
				c1.702,0,3.087,1.385,3.087,3.087S122.342,148.218,120.64,148.218z M120.64,143.234c-1.046,0-1.897,0.851-1.897,1.896
				s0.851,1.896,1.897,1.896s1.896-0.851,1.896-1.896S121.686,143.234,120.64,143.234z"/>
		</g>
		<g>
			<circle fill="#E6352B" cx="120.639" cy="153.906" r="2.492"/>
			<path fill="#D2D3D3" d="M120.64,156.994c-1.703,0-3.087-1.385-3.087-3.087s1.385-3.087,3.087-3.087
				c1.702,0,3.087,1.385,3.087,3.087S122.342,156.994,120.64,156.994z M120.64,152.009c-1.046,0-1.897,0.851-1.897,1.897
				s0.851,1.897,1.897,1.897s1.896-0.851,1.896-1.897S121.686,152.009,120.64,152.009z"/>
		</g>
		<path fill="#868788" d="M119.219,221.174c0,4.753-0.004,4.778-0.004,4.804v0.554c0,4.562,3.699,8.26,8.264,8.26h45.044
			c4.566,0,8.262-3.697,8.262-8.26v-0.554c0-0.026-0.002-0.051-0.002-4.804H119.219z"/>
		<path fill="#BDBEBF" d="M127.479,234.792v44.887c0,0,10.582,1.732,17.375,1.821v-46.708H127.479z"/>
		<path fill="#BDBEBF" d="M172.139,234.792v44.887c0,0-10.582,1.732-17.375,1.821v-46.708H172.139z"/>
		<polygon fill="#ADAEAF" points="127.479,234.792 144.853,234.792 144.853,244.125 127.479,237.625 		"/>
		<polygon fill="#ADAEAF" points="154.765,234.792 172.139,234.792 172.139,244.125 154.765,237.625 		"/>
		<rect x="128.335" y="174.751" fill="#8F2581" width="11.666" height="5.326"/>
		<rect x="128.335" y="184.054" fill="#622C82" width="11.666" height="5.326"/>
		<rect x="128.335" y="193.356" fill="#622C82" width="11.666" height="5.326"/>
		<rect x="128.335" y="202.659" fill="#8F2581" width="11.666" height="5.326"/>
		<g>
			<rect x="146.684" y="174.751" fill="#38A599" width="24.945" height="33.234"/>
			<path fill="#D2D3D3" d="M172.224,208.58h-26.135v-34.424h26.135V208.58z M147.279,207.39h23.754v-32.043h-23.754V207.39z"/>
		</g>
		<path fill="#D2D3D3" d="M152.94,179.453h-3.091c-0.329,0-0.595-0.267-0.595-0.595s0.267-0.595,0.595-0.595h3.091
			c0.329,0,0.595,0.267,0.595,0.595S153.269,179.453,152.94,179.453z"/>
		<path fill="#D2D3D3" d="M152.94,184.649h-3.091c-0.329,0-0.595-0.267-0.595-0.595s0.267-0.595,0.595-0.595h3.091
			c0.329,0,0.595,0.267,0.595,0.595S153.269,184.649,152.94,184.649z"/>
		<path fill="#D2D3D3" d="M152.94,189.845h-3.091c-0.329,0-0.595-0.267-0.595-0.595s0.267-0.595,0.595-0.595h3.091
			c0.329,0,0.595,0.267,0.595,0.595S153.269,189.845,152.94,189.845z"/>
		<path fill="#D2D3D3" d="M152.94,195.041h-3.091c-0.329,0-0.595-0.267-0.595-0.595s0.267-0.595,0.595-0.595h3.091
			c0.329,0,0.595,0.267,0.595,0.595S153.269,195.041,152.94,195.041z"/>
		<path fill="#D2D3D3" d="M152.94,200.236h-3.091c-0.329,0-0.595-0.267-0.595-0.595s0.267-0.595,0.595-0.595h3.091
			c0.329,0,0.595,0.267,0.595,0.595S153.269,200.236,152.94,200.236z"/>
		<path fill="#D2D3D3" d="M152.94,205.432h-3.091c-0.329,0-0.595-0.267-0.595-0.595s0.267-0.595,0.595-0.595h3.091
			c0.329,0,0.595,0.267,0.595,0.595S153.269,205.432,152.94,205.432z"/>
	</g>
	<polygon fill="#269D90" points="155.25,176.066 170.228,176.066 170.228,198.682 	"/>
</g>
</svg>
