<?xml version="1.0" encoding="utf-8"?>
<!-- Generator: Adobe Illustrator 16.0.0, SVG Export Plug-In . SVG Version: 6.00 Build 0)  -->
<!DOCTYPE svg PUBLIC "-//W3C//DTD SVG 1.1 Tiny//EN" "http://www.w3.org/Graphics/SVG/1.1/DTD/svg11-tiny.dtd">
<svg version="1.1" baseProfile="tiny" id="Layer_1" xmlns="http://www.w3.org/2000/svg" xmlns:xlink="http://www.w3.org/1999/xlink"
	 x="0px" y="0px" width="300px" height="300px" viewBox="0 0 300 300" xml:space="preserve">
<g>
	<circle fill="#2C323A" cx="150" cy="150" r="131.6"/>
	<g>
		<path fill="#F8AE32" d="M55.886,230.68c0-0.872,0.09-1.722,0.249-2.546c-3.676,0-3.699-0.003-3.722-0.003H51.89
			c-2.312,0-4.382,1.011-5.812,2.608c3.057,3.929,6.333,7.677,9.808,11.232V230.68z"/>
		<path fill="#9A9B9C" d="M232.966,252.148c-10.465-4.199-20.095-6.388-27.203-7.525v24.268c0.166,0.033,0.333,0.066,0.501,0.101
			C215.859,264.446,224.816,258.775,232.966,252.148z"/>
		<path fill="#F8AE32" d="M205.763,235.938c0-4.312-3.492-7.808-7.806-7.808h-0.523c-0.023,0-0.06,0.003-4.253,0.003
			c0.159,0.825,0.249,1.675,0.249,2.546v43.575c4.213-1.473,8.328-3.153,12.333-5.029v-0.335v-24.268V235.938z"/>
		<path fill="#9A9B9C" d="M139.176,211.506c0.027,0.132,0.043,0.268,0.043,0.408v-9.708c0,0.14-0.016,0.275-0.043,0.407V211.506z"/>
		<path fill="#9A9B9C" d="M139.176,217.337h0.043v-5.423c0,0.14-0.016,0.276-0.043,0.407V217.337z"/>
		<path fill="#9A9B9C" d="M139.219,202.207v-6.463c0-0.146-0.03-0.284-0.043-0.427v6.481
			C139.203,201.931,139.219,202.067,139.219,202.207z"/>
		<path fill="#9A9B9C" d="M108.657,195.744v4.485l0.046-4.944C108.689,195.439,108.657,195.587,108.657,195.744z"/>
		<path fill="#9A9B9C" d="M109.42,200.657l-0.763-0.427v1.978C108.657,201.575,108.959,201.019,109.42,200.657z"/>
		<path fill="#9A9B9C" d="M110.631,209.938h15.346l-10.272-5.759h-5.073c-1.089,0-1.974-0.883-1.974-1.973v9.708
			C108.657,210.822,109.542,209.938,110.631,209.938z"/>
		<path fill="#9A9B9C" d="M133.023,213.889h-22.393c-1.089,0-1.974-0.884-1.974-1.974v5.423h30.519L133.023,213.889z"/>
		<path fill="#8A8B8C" d="M139.176,202.614c0.027-0.132,0.043-0.268,0.043-0.407c0-0.14-0.016-0.276-0.043-0.408V202.614z"/>
		<path fill="#8A8B8C" d="M110.631,204.18h5.073l-6.284-3.523c-0.461,0.362-0.763,0.918-0.763,1.55
			C108.657,203.297,109.542,204.18,110.631,204.18z"/>
		<path fill="#8A8B8C" d="M110.631,213.889h22.393l-7.047-3.95h-15.346c-1.089,0-1.974,0.883-1.974,1.976
			C108.657,213.004,109.542,213.889,110.631,213.889z"/>
		<path fill="#8A8B8C" d="M139.176,212.322c0.027-0.131,0.043-0.268,0.043-0.407c0-0.14-0.016-0.276-0.043-0.408V212.322z"/>
		<path fill="#BDBEBF" d="M139.176,195.108h30.436c6.166,0,11.168-5,11.168-11.168v-30.784v-23.27v-5.129v-23.27v-0.005
			c0-6.17-5.002-11.168-11.168-11.168h-92.78c-6.168,0-11.168,4.998-11.168,11.168v0.005v23.27v5.129v23.27v30.784
			c0,6.168,5,11.168,11.168,11.168h31.874H139.176z M151.166,104.139c12.074,0,21.861,9.788,21.861,21.861
			c0,12.072-9.787,21.861-21.861,21.861c-12.073,0-21.861-9.789-21.861-21.861C129.305,113.926,139.093,104.139,151.166,104.139z
			 M118.556,110.116c0-2.684,2.176-4.859,4.858-4.859c2.684,0,4.859,2.175,4.859,4.859v34.844c0,2.684-2.176,4.859-4.859,4.859
			c-2.683,0-4.858-2.175-4.858-4.859V110.116z M73.416,126c0-12.073,9.786-21.861,21.859-21.861
			c12.072,0,21.859,9.788,21.859,21.861c0,12.072-9.787,21.861-21.859,21.861C83.202,147.86,73.416,138.072,73.416,126z
			 M91.489,180.181c-2.716,0-4.918-2.2-4.918-4.917v-2.296v-8.482v-2.063c0-2.715,2.202-4.915,4.918-4.915h63.463
			c2.718,0,4.918,2.2,4.918,4.915v2.063v8.482v2.296c0,2.718-2.2,4.917-4.918,4.917H91.489z"/>
		<path fill="#BDBEBF" d="M193.43,230.68c0-0.872-0.09-1.722-0.249-2.546c-1.19-6.15-6.597-10.796-13.093-10.796h-40.869h-0.043
			h-30.519H69.229c-6.497,0-11.904,4.646-13.094,10.796c-0.159,0.825-0.249,1.675-0.249,2.546v11.291
			c8.816,9.021,18.917,16.777,30.009,22.976c0.056-21.329,17.424-38.665,38.764-38.665c21.371,0,38.761,17.386,38.765,38.757
			l0.001,1.85H89.492c18.115,9.397,38.69,14.712,60.508,14.712c15.22,0,29.832-2.592,43.43-7.345V230.68z M72.948,253.541
			c-3.014,0-5.465-2.452-5.465-5.465s2.451-5.465,5.465-5.465s5.466,2.452,5.466,5.465S75.962,253.541,72.948,253.541z
			 M72.948,238.006c-3.014,0-5.465-2.451-5.465-5.464s2.451-5.465,5.465-5.465s5.466,2.452,5.466,5.465
			S75.962,238.006,72.948,238.006z"/>
		<path fill="#D6D7D8" d="M76.831,90.314h92.78c6.166,0,11.168,4.998,11.168,11.168v-5.88c0-6.165-5.002-11.166-11.168-11.166
			h-21.163h-48.303H76.831c-6.168,0-11.168,5-11.168,11.166v5.88C65.663,95.312,70.663,90.314,76.831,90.314z"/>
		<path fill="#E6352B" d="M117.135,126c0-12.073-9.787-21.861-21.859-21.861c-12.073,0-21.859,9.788-21.859,21.861
			c0,12.072,9.786,21.861,21.859,21.861C107.348,147.86,117.135,138.072,117.135,126z M79.753,126
			c0-8.574,6.949-15.524,15.522-15.524c8.572,0,15.523,6.951,15.523,15.524c0,8.573-6.951,15.521-15.523,15.521
			C86.702,141.521,79.753,134.572,79.753,126z"/>
		<path fill="#00B6E1" d="M110.799,126c0-8.574-6.951-15.524-15.523-15.524c-8.573,0-15.522,6.951-15.522,15.524
			c0,8.573,6.949,15.521,15.522,15.521C103.848,141.521,110.799,134.572,110.799,126z M94.553,114.736
			c0-0.776,0.629-1.405,1.405-1.405c7.039,0,12.766,5.728,12.766,12.767c0,1.552-0.274,3.066-0.816,4.498
			c-0.213,0.562-0.747,0.909-1.314,0.909c-0.165,0-0.333-0.03-0.497-0.091c-0.726-0.275-1.092-1.086-0.817-1.812
			c0.421-1.113,0.635-2.292,0.635-3.503c0-5.49-4.466-9.957-9.955-9.957C95.182,116.142,94.553,115.512,94.553,114.736z"/>
		<path fill="#5ED1EC" d="M105.913,126.098c0,1.211-0.214,2.39-0.635,3.503c-0.274,0.726,0.092,1.537,0.817,1.812
			c0.164,0.062,0.332,0.091,0.497,0.091c0.567,0,1.102-0.346,1.314-0.909c0.542-1.432,0.816-2.945,0.816-4.498
			c0-7.04-5.727-12.767-12.766-12.767c-0.776,0-1.405,0.629-1.405,1.405s0.629,1.405,1.405,1.405
			C101.447,116.142,105.913,120.608,105.913,126.098z"/>
		<path fill="#E6352B" d="M151.166,147.86c12.074,0,21.861-9.789,21.861-21.861c0-12.073-9.787-21.861-21.861-21.861
			c-12.073,0-21.861,9.788-21.861,21.861C129.305,138.072,139.093,147.86,151.166,147.86z M151.166,110.475
			c8.574,0,15.524,6.951,15.524,15.524c0,8.573-6.95,15.521-15.524,15.521c-8.572,0-15.523-6.948-15.523-15.521
			C135.643,117.426,142.594,110.475,151.166,110.475z"/>
		<path fill="#00B6E1" d="M151.166,141.521c8.574,0,15.524-6.948,15.524-15.521c0-8.574-6.95-15.524-15.524-15.524
			c-8.572,0-15.523,6.951-15.523,15.524C135.643,134.572,142.594,141.521,151.166,141.521z M151.851,113.331
			c7.039,0,12.767,5.728,12.767,12.767c0,1.543-0.274,3.056-0.815,4.495c-0.212,0.563-0.747,0.911-1.315,0.911
			c-0.164,0-0.332-0.029-0.494-0.09c-0.727-0.273-1.094-1.083-0.821-1.81c0.422-1.122,0.636-2.301,0.636-3.506
			c0-5.49-4.466-9.957-9.956-9.957c-0.776,0-1.405-0.629-1.405-1.405S151.074,113.331,151.851,113.331z"/>
		<path fill="#5ED1EC" d="M151.851,116.142c5.49,0,9.956,4.466,9.956,9.957c0,1.205-0.214,2.384-0.636,3.506
			c-0.272,0.727,0.095,1.537,0.821,1.81c0.162,0.061,0.33,0.09,0.494,0.09c0.568,0,1.104-0.348,1.315-0.911
			c0.541-1.439,0.815-2.952,0.815-4.495c0-7.04-5.728-12.767-12.767-12.767c-0.776,0-1.405,0.629-1.405,1.405
			S151.074,116.142,151.851,116.142z"/>
		<path fill="#E7E8E8" d="M92.659,162.432c0-0.792,0.644-1.436,1.436-1.436c0.795,0,1.438,0.645,1.438,1.436v2.054h11.689v-2.054
			c0-0.792,0.644-1.436,1.436-1.436c0.795,0,1.438,0.645,1.438,1.436v2.054h11.688v-2.054c0-0.792,0.645-1.436,1.438-1.436
			c0.794,0,1.438,0.645,1.438,1.436v2.054h11.689v-2.054c0-0.792,0.644-1.436,1.436-1.436c0.795,0,1.436,0.645,1.436,1.436v2.054
			h11.689v-2.054c0-0.792,0.644-1.436,1.438-1.436c0.795,0,1.438,0.645,1.438,1.436v2.054h6.087c0-2.718-2.2-4.918-4.918-4.918
			H91.489c-2.716,0-4.918,2.201-4.918,4.918h6.088V162.432z"/>
		<path fill="#E7E8E8" d="M159.87,175.264v-2.296h-6.087v2.207c0,0.794-0.643,1.438-1.438,1.438c-0.794,0-1.438-0.644-1.438-1.438
			v-2.207h-11.689v2.207c0,0.794-0.641,1.438-1.436,1.438c-0.792,0-1.436-0.644-1.436-1.438v-2.207h-11.689v2.207
			c0,0.794-0.644,1.438-1.438,1.438c-0.793,0-1.438-0.644-1.438-1.438v-2.207h-11.688v2.207c0,0.794-0.644,1.438-1.438,1.438
			c-0.792,0-1.436-0.644-1.436-1.438v-2.207H95.532v2.207c0,0.794-0.643,1.438-1.438,1.438c-0.792,0-1.436-0.644-1.436-1.438v-2.207
			h-6.088v2.296c0,2.718,2.202,4.917,4.918,4.917h63.463C157.67,180.181,159.87,177.981,159.87,175.264z"/>
		<path fill="#D2D3D3" d="M91.489,159.567h63.463c2.718,0,4.918,2.201,4.918,4.918v-2.063c0-2.715-2.2-4.915-4.918-4.915H91.489
			c-2.716,0-4.918,2.2-4.918,4.915v2.063C86.571,161.768,88.773,159.567,91.489,159.567z"/>
		<path fill="#D2D3D3" d="M92.659,175.175c0,0.794,0.644,1.438,1.436,1.438c0.795,0,1.438-0.644,1.438-1.438v-2.207h-2.873V175.175z
			"/>
		<path fill="#D2D3D3" d="M94.095,160.996c-0.792,0-1.436,0.645-1.436,1.436v2.054h2.873v-2.054
			C95.532,161.64,94.89,160.996,94.095,160.996z"/>
		<path fill="#D2D3D3" d="M107.222,175.175c0,0.794,0.644,1.438,1.436,1.438c0.795,0,1.438-0.644,1.438-1.438v-2.207h-2.874V175.175
			z"/>
		<path fill="#D2D3D3" d="M108.657,160.996c-0.792,0-1.436,0.645-1.436,1.436v2.054h2.874v-2.054
			C110.096,161.64,109.452,160.996,108.657,160.996z"/>
		<path fill="#D2D3D3" d="M121.783,175.175c0,0.794,0.645,1.438,1.438,1.438c0.794,0,1.438-0.644,1.438-1.438v-2.207h-2.875V175.175
			z"/>
		<path fill="#D2D3D3" d="M123.221,160.996c-0.793,0-1.438,0.645-1.438,1.436v2.054h2.875v-2.054
			C124.658,161.64,124.015,160.996,123.221,160.996z"/>
		<path fill="#D2D3D3" d="M136.348,175.175c0,0.794,0.644,1.438,1.436,1.438c0.795,0,1.436-0.644,1.436-1.438v-2.207h-2.871V175.175
			z"/>
		<path fill="#D2D3D3" d="M137.783,160.996c-0.792,0-1.436,0.645-1.436,1.436v2.054h2.871v-2.054
			C139.219,161.64,138.578,160.996,137.783,160.996z"/>
		<path fill="#D2D3D3" d="M150.908,175.175c0,0.794,0.644,1.438,1.438,1.438c0.795,0,1.438-0.644,1.438-1.438v-2.207h-2.875V175.175
			z"/>
		<path fill="#D2D3D3" d="M152.346,160.996c-0.794,0-1.438,0.645-1.438,1.436v2.054h2.875v-2.054
			C153.783,161.64,153.141,160.996,152.346,160.996z"/>
		<path fill="#8BBF26" d="M62.033,101.482h-0.416c-3.453,0-6.246,2.798-6.246,6.248v10.782c0,3.453,2.793,6.248,6.246,6.248h0.416
			c0.021,0,0.042-0.003,3.63-0.003v-23.27C62.075,101.487,62.054,101.482,62.033,101.482z"/>
		<path fill="#8A8B8C" d="M148.453,80.893v-0.406c0-3.372-2.732-6.1-6.101-6.1h-0.798h-34.514h-0.798
			c-3.371,0-6.101,2.728-6.101,6.1v0.406c0,0.02,0.003,0.041,0.003,3.544h48.303C148.448,80.933,148.453,80.913,148.453,80.893z"/>
		<path fill="#E6352B" d="M140.557,61.339v-0.273c0-2.27-1.839-4.105-4.106-4.105h-24.305c-2.269,0-4.105,1.835-4.105,4.105v0.273
			c0,0.013-0.999,0.027-0.999,13.047h34.514C141.555,61.367,140.557,61.353,140.557,61.339z M118.556,72.396
			c-1.782,0-3.228-2.675-3.228-5.975c0-3.3,1.445-5.975,3.228-5.975s3.228,2.675,3.228,5.975
			C121.783,69.721,120.338,72.396,118.556,72.396z M129.305,72.396c-1.782,0-3.228-2.675-3.228-5.975c0-3.3,1.445-5.975,3.228-5.975
			s3.228,2.675,3.228,5.975C132.532,69.721,131.087,72.396,129.305,72.396z"/>
		<path fill="#D6D900" d="M62.033,129.881h-0.416c-3.453,0-6.246,2.798-6.246,6.248v10.782c0,3.453,2.793,6.248,6.246,6.248h0.416
			c0.021,0,0.042-0.003,3.63-0.003v-23.27C62.075,129.886,62.054,129.881,62.033,129.881z"/>
		<path fill="#8BBF26" d="M184.409,124.76h0.416c3.453,0,6.246-2.795,6.246-6.248V107.73c0-3.45-2.793-6.248-6.246-6.248h-0.416
			c-0.021,0-0.042,0.005-3.63,0.005v23.27C184.367,124.757,184.389,124.76,184.409,124.76z"/>
		<path fill="#D6D900" d="M184.409,153.159h0.416c3.453,0,6.246-2.795,6.246-6.248v-10.782c0-3.45-2.793-6.248-6.246-6.248h-0.416
			c-0.021,0-0.042,0.005-3.63,0.005v23.27C184.367,153.156,184.389,153.159,184.409,153.159z"/>
		<polygon fill="#E7E8E8" points="115.704,204.18 125.977,209.938 133.023,213.889 139.176,217.337 139.176,212.322 
			139.176,211.506 139.176,202.614 139.176,201.799 139.176,195.317 139.176,195.108 108.705,195.108 108.703,195.286 
			108.657,200.229 109.42,200.657 		"/>
		<path fill="#00CBE1" d="M124.658,229.979c-18.711,0-34.05,14.735-35.021,33.21h25.157c0.169-5.308,4.514-9.563,9.863-9.563
			c1.318,0,2.573,0.263,3.723,0.732l5.811-5.81c0.96-0.961,2.518-0.959,3.478,0c0.96,0.96,0.96,2.517-0.001,3.478l-5.306,5.305
			c1.296,1.615,2.088,3.645,2.158,5.858h25.156C158.708,244.714,143.37,229.979,124.658,229.979z M145.878,244.384
			c-0.207,0.222-0.488,0.334-0.77,0.334c-0.258,0-0.517-0.094-0.72-0.284c-5.688-5.317-13.11-8.246-20.9-8.246
			c-2.73,0-5.442,0.361-8.062,1.072c-0.56,0.151-1.141-0.178-1.293-0.741c-0.153-0.562,0.179-1.141,0.74-1.293
			c2.799-0.76,5.697-1.146,8.614-1.146c8.327,0,16.261,3.13,22.34,8.813C146.253,243.292,146.275,243.958,145.878,244.384z
			 M154.216,259.048c-0.097,0.028-0.195,0.042-0.292,0.042c-0.458,0-0.879-0.301-1.012-0.763c-0.763-2.653-1.887-5.195-3.34-7.555
			c-0.305-0.496-0.15-1.145,0.345-1.45c0.497-0.304,1.145-0.151,1.45,0.345c1.554,2.523,2.755,5.242,3.57,8.079
			C155.099,258.303,154.775,258.887,154.216,259.048z"/>
		<path fill="#FFFFFF" d="M163.423,265.038c-0.004-21.371-17.394-38.757-38.765-38.757c-21.34,0-38.708,17.336-38.764,38.665
			c1.188,0.664,2.387,1.313,3.598,1.941h73.932L163.423,265.038z M134.536,263.505h-8.395c-0.438,0.334-0.958,0.512-1.483,0.512
			s-1.045-0.177-1.484-0.512h-8.395c0-0.106,0.013-0.21,0.016-0.316H89.638c0.971-18.475,16.31-33.21,35.021-33.21
			c18.712,0,34.05,14.735,35.019,33.21h-25.156C134.523,263.295,134.536,263.399,134.536,263.505z"/>
		<path fill="#67E0ED" d="M123.488,234.081c-2.917,0-5.815,0.385-8.614,1.146c-0.562,0.153-0.894,0.731-0.74,1.293
			c0.152,0.562,0.733,0.892,1.293,0.741c2.619-0.711,5.331-1.072,8.062-1.072c7.79,0,15.213,2.929,20.9,8.246
			c0.203,0.19,0.462,0.284,0.72,0.284c0.281,0,0.562-0.112,0.77-0.334c0.397-0.425,0.375-1.092-0.05-1.49
			C139.749,237.21,131.815,234.081,123.488,234.081z"/>
		<path fill="#67E0ED" d="M154.938,257.744c-0.815-2.837-2.017-5.555-3.57-8.079c-0.306-0.496-0.953-0.649-1.45-0.345
			c-0.495,0.305-0.649,0.955-0.345,1.45c1.453,2.36,2.577,4.902,3.34,7.555c0.133,0.462,0.554,0.763,1.012,0.763
			c0.097,0,0.195-0.013,0.292-0.042C154.775,258.887,155.099,258.303,154.938,257.744z"/>
		<path fill="#FFFFFF" d="M126.396,263.297c-0.079,0.08-0.168,0.142-0.255,0.208h8.395c0-0.106-0.013-0.21-0.016-0.316
			c-0.07-2.214-0.862-4.244-2.158-5.858L126.396,263.297z"/>
		<path fill="#FFFFFF" d="M122.92,259.819l5.461-5.461c-1.149-0.469-2.404-0.732-3.723-0.732c-5.35,0-9.694,4.255-9.863,9.563
			c-0.003,0.106-0.016,0.209-0.016,0.316h8.395c-0.086-0.066-0.176-0.129-0.255-0.208
			C121.959,262.336,121.959,260.78,122.92,259.819z"/>
		<path fill="#FFFFFF" d="M132.362,257.331l5.306-5.305c0.961-0.96,0.961-2.517,0.001-3.478c-0.96-0.959-2.518-0.961-3.478,0
			l-5.811,5.81l-5.461,5.461c-0.961,0.96-0.961,2.517-0.001,3.478c0.079,0.08,0.169,0.142,0.255,0.208
			c0.439,0.334,0.959,0.512,1.484,0.512s1.045-0.177,1.483-0.512c0.087-0.066,0.176-0.129,0.255-0.208L132.362,257.331z"/>
		<path fill="#2BAA3A" d="M72.948,229.184c-1.852,0-3.357,1.506-3.357,3.357s1.506,3.357,3.357,3.357s3.358-1.506,3.358-3.357
			S74.8,229.184,72.948,229.184z"/>
		<path fill="#D2D3D3" d="M72.948,227.077c-3.014,0-5.465,2.452-5.465,5.465s2.451,5.464,5.465,5.464s5.466-2.451,5.466-5.464
			S75.962,227.077,72.948,227.077z M72.948,235.898c-1.852,0-3.357-1.506-3.357-3.357s1.506-3.357,3.357-3.357
			s3.358,1.506,3.358,3.357S74.8,235.898,72.948,235.898z"/>
		<path fill="#E6352B" d="M72.948,244.718c-1.852,0-3.357,1.506-3.357,3.358s1.506,3.358,3.357,3.358s3.358-1.506,3.358-3.358
			S74.8,244.718,72.948,244.718z"/>
		<path fill="#D2D3D3" d="M72.948,242.61c-3.014,0-5.465,2.452-5.465,5.465s2.451,5.465,5.465,5.465s5.466-2.452,5.466-5.465
			S75.962,242.61,72.948,242.61z M72.948,251.434c-1.852,0-3.357-1.506-3.357-3.358s1.506-3.358,3.357-3.358
			s3.358,1.506,3.358,3.358S74.8,251.434,72.948,251.434z"/>
		<ellipse fill="#E6772B" cx="118.556" cy="66.421" rx="3.228" ry="5.975"/>
		<ellipse fill="#E6772B" cx="129.305" cy="66.421" rx="3.228" ry="5.975"/>
		<path fill="#D6D7D8" d="M123.414,149.819c2.684,0,4.859-2.175,4.859-4.859v-34.844c0-2.684-2.176-4.859-4.859-4.859
			c-2.683,0-4.858,2.175-4.858,4.859v34.844C118.556,147.644,120.731,149.819,123.414,149.819z"/>
		<polygon fill="#6A6C6C" points="95.532,172.968 107.222,172.968 110.096,172.968 121.783,172.968 124.658,172.968 
			136.348,172.968 139.219,172.968 150.908,172.968 153.783,172.968 159.87,172.968 159.87,164.485 153.783,164.485 
			150.908,164.485 139.219,164.485 136.348,164.485 124.658,164.485 121.783,164.485 110.096,164.485 107.222,164.485 
			95.532,164.485 92.659,164.485 86.571,164.485 86.571,172.968 92.659,172.968 		"/>
	</g>
	<path fill="#808181" d="M233.854,172.125h-27.989c-2.209,0-4-1.791-4-4s1.791-4,4-4h27.989c2.209,0,4,1.791,4,4
		S236.063,172.125,233.854,172.125z"/>
	<path fill="#808181" d="M205.865,157.92c-1.023,0-2.047-0.391-2.828-1.171c-1.562-1.562-1.562-4.095,0-5.657l13.994-13.994
		c1.561-1.562,4.094-1.562,5.656,0c1.562,1.562,1.562,4.095,0,5.657l-13.994,13.994C207.913,157.53,206.889,157.92,205.865,157.92z"
		/>
	<path fill="#808181" d="M219.859,201.147c-1.023,0-2.047-0.391-2.828-1.171l-13.994-13.994c-1.562-1.562-1.562-4.095,0-5.657
		c1.561-1.562,4.094-1.562,5.656,0l13.994,13.994c1.562,1.562,1.562,4.095,0,5.657C221.907,200.757,220.883,201.147,219.859,201.147
		z"/>
</g>
</svg>
