<?xml version="1.0" encoding="utf-8"?>
<!-- Generator: Adobe Illustrator 16.0.0, SVG Export Plug-In . SVG Version: 6.00 Build 0)  -->
<!DOCTYPE svg PUBLIC "-//W3C//DTD SVG 1.1 Tiny//EN" "http://www.w3.org/Graphics/SVG/1.1/DTD/svg11-tiny.dtd">
<svg version="1.1" baseProfile="tiny" id="Layer_1" xmlns="http://www.w3.org/2000/svg" xmlns:xlink="http://www.w3.org/1999/xlink"
	 x="0px" y="0px" width="300px" height="300px" viewBox="0 0 300 300" xml:space="preserve">
<g>
	<circle fill="#25A7DE" cx="150" cy="150" r="131.6"/>
	<g>
		<path fill="#585A5A" d="M62.212,147.645c-4.603,0-7.188-0.091-7.288-0.095l0.172-4.522c0.396,0.017,40.088,1.401,89.191-7.091
			l0.771,4.46C107.874,146.827,76.002,147.645,62.212,147.645z"/>
		<path fill="#D2D3D3" d="M67.195,252.285c-7.404-6.018-12.186-11.206-12.186-11.206V107.553h12.186V252.285z"/>
		<polygon fill="#BABBBB" points="58.672,244.75 55.01,241.079 55.01,107.553 58.672,107.553 		"/>
		<polygon fill="#E3E4E4" points="67.583,252.602 64.976,250.448 64.976,107.553 67.583,107.553 		"/>
		<rect x="38.949" y="163.134" fill="#808181" width="44.308" height="36.413"/>
		<rect x="38.949" y="159.644" fill="#747676" width="44.308" height="4.89"/>
		<rect x="46.979" y="199.547" fill="#6A6C6C" width="28.247" height="2.806"/>
		<polygon fill="#E3E4E4" points="55.01,202.353 67.195,202.353 67.195,209.573 55.01,205.963 		"/>
		<path fill="#E3E4E4" d="M71.2,159.644v-5.496c0-3.219-2.608-5.829-5.827-5.829h-8.54c-3.219,0-5.828,2.61-5.828,5.829v5.496H71.2z
			"/>
		<path fill="#6A6C6C" d="M72.48,146.479c0,1.016-0.824,1.839-1.84,1.839H51.564c-1.016,0-1.84-0.823-1.84-1.839v-35.524
			c0-1.017,0.824-1.84,1.84-1.84h19.076c1.016,0,1.84,0.823,1.84,1.84V146.479z"/>
		<path fill="#E3E4E4" d="M72.43,113.776v-5.179c0-3.619-2.934-6.553-6.553-6.553h-9.6c-3.619,0-6.553,2.934-6.553,6.553v5.179
			H72.43z"/>
		<g>
			<rect x="175.668" y="76.177" fill="#808181" width="46.766" height="85.892"/>
			<path fill="#6A6C6C" d="M175.668,76.177c0,0-23.233,37.767-103.188,37.767v13.04c0,0,67.776-2.852,103.188,35.086V76.177z"/>
			<rect x="175.668" y="76.177" fill="#535554" width="46.766" height="7.456"/>
			<rect x="175.668" y="154.613" fill="#8F9191" width="46.766" height="7.456"/>
			<polygon fill="#9FA1A1" points="222.434,76.177 217.716,83.632 217.716,154.613 222.434,162.069 			"/>
			<rect x="206.049" y="83.632" fill="#6A6C6C" width="2.984" height="70.981"/>
			<rect x="188.632" y="83.632" fill="#6A6C6C" width="2.986" height="70.981"/>
			<rect x="175.668" y="98.079" fill="#6A6C6C" width="42.048" height="2.736"/>
			<rect x="175.668" y="117.754" fill="#6A6C6C" width="42.048" height="2.737"/>
			<rect x="175.668" y="137.431" fill="#6A6C6C" width="42.048" height="2.737"/>
		</g>
		<rect x="172.189" y="72.325" fill="#949696" width="3.479" height="94.955"/>
		<rect x="175.668" y="162.069" fill="#6A6C6C" width="46.766" height="5.21"/>
		<rect x="175.668" y="72.325" fill="#6A6C6C" width="46.766" height="5.211"/>
	</g>
	<path fill="#71C5E9" d="M260.001,127h-24.667c-2.209,0-4-1.791-4-4s1.791-4,4-4h24.667c2.209,0,4,1.791,4,4S262.21,127,260.001,127
		z"/>
	<path fill="#71C5E9" d="M235.334,103.299c-1.023,0-2.047-0.391-2.828-1.171c-1.562-1.562-1.562-4.095,0-5.657l15.667-15.667
		c1.561-1.562,4.094-1.562,5.656,0c1.562,1.562,1.562,4.095,0,5.657l-15.667,15.667
		C237.382,102.908,236.357,103.299,235.334,103.299z"/>
	<path fill="#71C5E9" d="M251.001,166.228c-1.023,0-2.047-0.391-2.828-1.171l-15.667-15.667c-1.562-1.562-1.562-4.095,0-5.657
		c1.561-1.562,4.094-1.562,5.656,0l15.667,15.667c1.562,1.562,1.562,4.095,0,5.657C253.049,165.837,252.024,166.228,251.001,166.228
		z"/>
	<rect x="55.01" y="113.776" fill="#787A7A" width="6.094" height="34.542"/>
</g>
</svg>
