<?xml version="1.0" encoding="utf-8"?>
<!-- Generator: Adobe Illustrator 16.0.0, SVG Export Plug-In . SVG Version: 6.00 Build 0)  -->
<!DOCTYPE svg PUBLIC "-//W3C//DTD SVG 1.1 Tiny//EN" "http://www.w3.org/Graphics/SVG/1.1/DTD/svg11-tiny.dtd">
<svg version="1.1" baseProfile="tiny" id="Layer_1" xmlns="http://www.w3.org/2000/svg" xmlns:xlink="http://www.w3.org/1999/xlink"
	 x="0px" y="0px" width="300px" height="300px" viewBox="0 0 300 300" xml:space="preserve">
<g>
	<circle fill="#D52029" cx="150" cy="150" r="131.6"/>
	<g>
		<g>
			<path fill="#393A39" d="M103.798,136.198l-0.001,0.003c-6.169-9.78-17.062-16.283-29.48-16.283
				c-19.241,0-34.839,15.598-34.839,34.839s15.598,34.839,34.839,34.839c12.418,0,23.311-6.502,29.48-16.283l0.001,0.003
				c0,0,6.83-11.023,15.744-11.023v-7.536v-7.536C110.627,147.222,103.798,136.198,103.798,136.198z"/>
			<rect x="119.542" y="143.897" fill="#E7E8E8" width="10.385" height="21.14"/>
			<path fill="#E7E8E8" d="M129.927,147.533c4.836,0.182,9.673,0.318,14.51,0.44c4.836,0.117,9.673,0.288,14.51,0.36l7.255,0.129
				l0.454,0.008l0.461,0.014l0.239,0.02l0.339,0.035c0.43,0.048,0.823,0.105,1.215,0.172c0.782,0.132,1.543,0.297,2.305,0.499
				c1.521,0.403,3.043,0.948,4.564,1.721c1.514,0.764,3.038,1.789,4.412,3.135c1.363,1.355,2.568,3.057,3.301,4.929
				c0.752,1.863,1.072,3.808,1.089,5.593l-0.045,3.775l-0.099,7.255c-0.002,3.391-0.891,6.92-3.21,10.067
				c-1.162,1.551-2.711,2.907-4.41,3.837c-1.695,0.959-3.483,1.489-5.171,1.768c-1.642,0.288-3.477,0.273-4.511,0.258l-3.627-0.023
				l-7.255-0.046l-3.627-0.022l-1.813-0.012l-1.076-0.01c-0.575-0.022-0.985-0.066-1.438-0.126
				c-1.745-0.241-3.424-0.724-5.094-1.544c-1.658-0.81-3.266-2.021-4.543-3.549c-1.281-1.529-2.172-3.327-2.695-5.076
				c-0.535-1.758-0.719-3.471-0.741-5.074l0.057,0.78c-0.127-0.809-0.203-1.41-0.284-2.104c-0.077-0.672-0.14-1.342-0.193-2.015
				c-0.114-1.346-0.192-2.704-0.205-4.094c-0.012-2.793,0.077-5.658,1.052-9.042c0.521-1.679,1.308-3.583,2.999-5.48
				c0.845-0.933,1.956-1.816,3.22-2.456c1.266-0.637,2.645-1.009,3.918-1.148l7.829-0.487l7.328-0.453
				c2.443-0.173,4.885-0.342,7.328-0.579c4.885-0.469,9.771-1.18,14.656-2.079c4.885-0.956,9.771-1.83,14.655-2.84
				c4.885-0.991,9.771-2.388,14.656-4.512c2.442-1.054,4.885-2.251,7.328-3.537c2.443-1.329,4.885-2.83,7.328-4.585
				c2.442-1.786,4.885-3.812,7.328-6.168c0.61-0.596,1.221-1.209,1.832-1.845l1.832-2.007c1.222-1.365,2.443-2.896,3.664-4.597
				v80.074c-1.221-1.702-2.442-3.232-3.664-4.597l-1.832-2.007c-0.61-0.636-1.221-1.249-1.832-1.845
				c-2.443-2.356-4.885-4.383-7.328-6.168c-2.443-1.756-4.885-3.256-7.328-4.585c-2.442-1.286-4.885-2.483-7.328-3.537
				c-4.885-2.125-9.771-3.521-14.656-4.512c-4.885-1.01-9.77-1.884-14.655-2.84c-4.885-0.899-9.771-1.61-14.656-2.079
				c-2.442-0.237-4.885-0.406-7.328-0.579l-7.328-0.453l-3.664-0.222l-1.832-0.111l-0.916-0.056l-0.438-0.027
				c0.01-0.004,0.008-0.021,0.024-0.031c0.119-0.045,0.693-0.421,0.652-0.567c-0.015-0.134-0.354,0.197-0.635,0.816
				c-0.609,1.251-0.986,3.316-1.128,5.393c-0.065,1.052-0.089,2.138-0.065,3.23c0.017,0.546,0.043,1.095,0.08,1.639
				c0.034,0.522,0.088,1.136,0.13,1.536l0.061,0.58l-0.003,0.201c-0.029,1.655,0.322,2.784,0.863,3.398
				c0.278,0.325,0.627,0.619,1.142,0.872c0.499,0.252,1.17,0.459,1.82,0.546c0.167,0.08,1.799,0.009,2.918,0.021l3.627-0.022
				l7.255-0.046l3.627-0.023c1.382-0.001,1.978-0.019,2.722-0.145c1.424-0.264,2.108-0.728,2.659-1.474
				c0.55-0.761,1.014-2.146,0.935-3.574l-0.099-7.255l-0.025-1.813l-0.015-0.907c-0.007-0.285-0.01-0.671-0.029-0.759
				c-0.039-0.629-0.173-1.101-0.349-1.473c-0.169-0.376-0.425-0.667-0.784-1.002c-0.376-0.322-0.885-0.663-1.545-0.953
				c-0.649-0.295-1.426-0.547-2.251-0.726c-0.411-0.09-0.836-0.164-1.25-0.215c-0.205-0.026-0.412-0.046-0.583-0.058l-0.113-0.006
				c-0.011,0,0.01,0.002,0.013,0.002l-0.025-0.001c-0.084-0.003,0.633,0.019,0.316,0.01l-0.057,0.001l-0.454,0.008l-7.255,0.129
				c-4.836,0.073-9.673,0.244-14.51,0.36c-4.836,0.122-9.673,0.259-14.51,0.44V147.533z"/>
			<path fill="#FFFFFF" d="M243.595,199.65c0,1.129-0.916,2.045-2.045,2.045l0,0c-1.129,0-2.044-0.916-2.044-2.045v-83.708
				c0-1.129,0.915-2.044,2.044-2.044l0,0c1.129,0,2.045,0.915,2.045,2.044V199.65z"/>
		</g>
		<path fill="#D2D3D3" d="M239.505,194.266c0,0-17.304-22.139-50.335-26.246c0,0,30.906-1.269,50.335,18.16V194.266z"/>
		<path fill="#FFFFFF" d="M239.505,119.197c0,0-17.304,22.139-50.335,26.246c0,0,30.906,1.269,50.335-18.16V119.197z"/>
		<path fill="#D2D3D3" d="M146.677,163.556c0,0,4.106-4.82,12.676-4.82s13.283,0,13.283,0v6.302L146.677,163.556z"/>
		<path fill="#D2D3D3" d="M134.893,161.887c0,0,3.75-13.149,16.069-13.149v-0.714h-21.035v13.034L134.893,161.887z"/>
		<path fill="#FFFFFF" d="M190.242,156.967c-1.381,0-2.5-1.119-2.5-2.5s1.119-2.5,2.5-2.5c3.515,0,7.135-0.244,10.761-0.725
			c1.37-0.189,2.625,0.78,2.807,2.149c0.182,1.369-0.78,2.625-2.149,2.807C197.818,156.708,193.976,156.967,190.242,156.967z"/>
		<path fill="#FFFFFF" d="M210.107,154.619c-1.137,0-2.166-0.781-2.433-1.937c-0.312-1.345,0.526-2.688,1.872-3
			c13.794-3.195,23.144-8.589,23.535-8.817c0.773-0.451,1.731-0.456,2.507-0.009c0.773,0.444,1.25,1.268,1.253,2.161
			c0.003,0.892-0.472,1.719-1.242,2.168c-0.418,0.244-10.402,6.004-24.925,9.368C210.484,154.598,210.294,154.619,210.107,154.619z"
			/>
		<path fill="#6A6C6C" d="M97.659,158.538c-1.381,0-2.5-1.119-2.5-2.5c0-10.135-7.208-18.891-17.139-20.82
			c-1.355-0.263-2.241-1.576-1.978-2.931c0.263-1.355,1.577-2.241,2.931-1.978c12.276,2.385,21.186,13.205,21.186,25.729
			C100.159,157.419,99.04,158.538,97.659,158.538z"/>
		<path fill="#6A6C6C" d="M57.609,141.357c-0.661,0-1.32-0.26-1.812-0.777c-0.952-1-0.913-2.583,0.088-3.534
			c2.819-2.682,6.256-4.734,9.939-5.934c1.313-0.429,2.724,0.29,3.151,1.603c0.428,1.313-0.29,2.724-1.603,3.151
			c-2.979,0.97-5.759,2.631-8.042,4.802C58.848,141.129,58.228,141.357,57.609,141.357z"/>
	</g>
</g>
</svg>
