<?xml version="1.0" encoding="utf-8"?>
<!-- Generator: Adobe Illustrator 16.0.0, SVG Export Plug-In . SVG Version: 6.00 Build 0)  -->
<!DOCTYPE svg PUBLIC "-//W3C//DTD SVG 1.1 Tiny//EN" "http://www.w3.org/Graphics/SVG/1.1/DTD/svg11-tiny.dtd">
<svg version="1.1" baseProfile="tiny" id="Layer_1" xmlns="http://www.w3.org/2000/svg" xmlns:xlink="http://www.w3.org/1999/xlink"
	 x="0px" y="0px" width="300px" height="300px" viewBox="0 0 300 300" xml:space="preserve">
<g>
	<circle fill="#FFD202" cx="150" cy="150" r="131.6"/>
	<g>
		<path fill="#F29000" d="M84.232,103.854c-1.657,0-3-1.343-3-3c0-13.434,10.93-24.364,24.364-24.365c1.657,0,3,1.343,3,3
			c0,1.657-1.343,3-3,3c-10.127,0.001-18.365,8.239-18.365,18.365C87.232,102.51,85.889,103.854,84.232,103.854z"/>
		<path fill="#F29000" d="M65.945,103.852c-1.657,0-3-1.343-3-3c0-11.393,4.436-22.103,12.492-30.159
			c8.056-8.055,18.766-12.492,30.159-12.492c1.657,0,3,1.343,3,3s-1.343,3-3,3c-9.79,0-18.994,3.812-25.916,10.734
			c-6.923,6.922-10.735,16.126-10.734,25.916C68.945,102.509,67.602,103.852,65.945,103.852z"/>
	</g>
	<g>
		<path fill="#363837" d="M72.8,210.449c-0.003,0-0.006,0-0.009,0c-1.08-0.006-1.184-0.964-1.686-5.565
			c-0.002-0.018-0.003-0.035-0.005-0.053c-0.001,0.009-0.003,0.019-0.004,0.027c-0.67,4.584-0.802,5.52-1.912,5.468
			c-1.056-0.067-1.13-1.026-1.488-5.634c-0.002-0.03-0.005-0.061-0.007-0.092c-0.001,0.005-0.002,0.011-0.003,0.016
			c-0.815,4.563-0.978,5.517-2.106,5.373c-1.028-0.126-1.073-1.084-1.285-5.693c-0.002-0.043-0.004-0.088-0.006-0.132
			c0,0.003-0.001,0.005-0.001,0.008c-0.964,4.53-1.159,5.477-2.3,5.265c-0.972-0.18-1.011-0.975-1.077-5.733
			c-0.001-0.062-0.002-0.125-0.003-0.189c0,0.002-0.001,0.005-0.002,0.007c-1.114,4.491-1.342,5.427-2.49,5.145
			c-0.943-0.233-0.955-1.027-0.869-5.769c0.001-0.079,0.003-0.16,0.004-0.243c0,0.003-0.001,0.006-0.002,0.009
			c-1.139,3.996-1.393,4.641-1.941,4.937l-0.331,0.178l-0.41-0.105c-0.909-0.282-0.895-1.073-0.655-5.787
			c0.015-0.292,0.031-0.612,0.047-0.941c-0.089,0.254-0.176,0.5-0.255,0.728c-1.23,3.51-1.581,4.359-2.199,4.646l-0.341,0.158
			l-0.418-0.129c-0.886-0.34-0.899-1.216-0.575-5.985c0.028-0.418,0.061-0.894,0.09-1.374c-0.169,0.406-0.332,0.807-0.477,1.161
			c-1.38,3.384-1.768,4.2-2.406,4.443l-0.361,0.138l-0.415-0.169c-0.846-0.411-0.809-1.289-0.217-6.032
			c0.06-0.48,0.13-1.039,0.194-1.592c-0.231,0.447-0.459,0.896-0.656,1.286c-1.63,3.215-2.043,3.921-2.712,4.098l-0.387,0.102
			l-0.402-0.23c-0.775-0.516-0.643-1.456,0.376-6.02c0.138-0.619,0.297-1.33,0.435-1.989c-0.365,0.486-0.741,1.002-1.054,1.433
			c-1.996,2.746-2.49,3.339-3.189,3.384l-0.417,0.026l-0.359-0.331c-0.646-0.686-0.292-1.69,1.501-5.69
			c0.334-0.747,0.771-1.718,1.079-2.479c-0.623,0.327-1.371,0.763-1.912,1.079c-2.323,1.354-3.16,1.807-3.869,1.549
			c-0.287-0.105-0.509-0.33-0.61-0.615c-0.372-1.052,0.707-1.854,3.401-3.727c0.702-0.488,1.669-1.161,2.21-1.618
			c-0.599-0.299-1.62-0.692-2.361-0.977c-2.661-1.023-4.127-1.586-3.91-2.788c0.052-0.286,0.217-0.532,0.464-0.695
			c0.618-0.405,1.547-0.235,4.046,0.354c0.606,0.143,1.461,0.344,2.127,0.462c-0.457-0.653-1.132-1.52-1.642-2.174
			c-2.25-2.888-3.005-3.931-2.543-4.801c0.139-0.261,0.384-0.447,0.674-0.513c0.719-0.168,1.526,0.375,3.841,2.083
			c0.415,0.306,0.922,0.68,1.397,1.014c-0.327-0.693-0.724-1.481-1.041-2.11c-1.868-3.71-2.25-4.65-1.715-5.357l0.247-0.326
			l0.493-0.068c0.729-0.038,1.365,0.54,3.61,2.852c0.298,0.307,0.649,0.668,0.997,1.018c-0.244-0.652-0.518-1.347-0.744-1.921
			c-1.568-3.985-1.849-4.901-1.258-5.546l0.275-0.3l0.49-0.022c0.716,0.02,1.331,0.677,3.447,3.261
			c0.237,0.29,0.51,0.623,0.786,0.954c-0.197-0.615-0.41-1.253-0.59-1.79c-1.387-4.147-1.604-5.013-0.978-5.62l0.29-0.281
			l0.486,0.006c0.714,0.059,1.307,0.761,3.334,3.505c0.201,0.272,0.43,0.582,0.664,0.894c-0.169-0.589-0.35-1.192-0.503-1.705
			c-1.256-4.195-1.446-5.067-0.801-5.646l0.299-0.269l0.483,0.023c0.713,0.083,1.292,0.815,3.264,3.663
			c0.177,0.256,0.376,0.542,0.581,0.834c-0.153-0.574-0.315-1.155-0.454-1.652c-1.172-4.208-1.345-5.083-0.69-5.643l0.304-0.26
			l0.481,0.033c0.715,0.099,1.287,0.849,3.234,3.763c0.157,0.235,0.332,0.497,0.513,0.765c-0.147-0.565-0.3-1.135-0.433-1.625
			c-1.146-4.25-1.298-5.051-0.642-5.605l0.312-0.263l0.456,0.052c0.59,0.095,0.955,0.517,2.682,3.298
			c-1.319-4.147-1.463-4.791-0.86-5.325l0.306-0.27l0.458,0.041c0.596,0.081,0.967,0.494,2.752,3.237
			c-1.401-4.134-1.559-4.774-0.97-5.324l0.299-0.279l0.461,0.029c0.601,0.067,0.981,0.471,2.828,3.179
			c-1.488-4.125-1.662-4.761-1.087-5.327l0.293-0.288l0.464,0.019c0.632,0.055,1.09,0.578,2.903,3.11
			c-1.578-4.109-1.767-4.74-1.206-5.322l0.285-0.295l0.466,0.005c0.638,0.039,1.107,0.55,2.985,3.042
			c-0.002-0.006-0.005-0.012-0.007-0.019c-1.667-4.075-1.87-4.7-1.327-5.297l0.277-0.305l0.469-0.007
			c0.638,0.022,1.153,0.559,3.068,2.965c-0.011-0.024-0.021-0.048-0.032-0.073c-1.745-4.004-1.961-4.62-1.435-5.23l0.269-0.311
			l0.468-0.021c0.644,0.003,1.172,0.525,3.158,2.882c-0.021-0.044-0.042-0.089-0.062-0.132c-1.826-3.924-2.055-4.529-1.547-5.154
			l0.259-0.318l0.469-0.036c0.673-0.02,1.191,0.49,3.249,2.787c-0.033-0.066-0.065-0.131-0.097-0.194
			c-1.879-3.774-2.146-4.427-1.663-5.061l0.249-0.327l0.47-0.052c0.665-0.032,1.213,0.451,3.346,2.681
			c-0.047-0.088-0.092-0.173-0.137-0.256c-1.964-3.675-2.246-4.312-1.785-4.96l0.237-0.334l0.47-0.07
			c0.667-0.056,1.267,0.44,3.445,2.555c-0.066-0.114-0.13-0.225-0.191-0.331c-2.046-3.544-2.342-4.161-1.906-4.822l0.224-0.34
			l0.468-0.09c0.661-0.088,1.292,0.384,3.553,2.399c-0.095-0.151-0.187-0.297-0.274-0.436c-2.118-3.363-2.429-3.952-2.025-4.623
			l0.208-0.347l0.469-0.116c0.67-0.125,1.37,0.348,3.692,2.208c-0.184-0.263-0.36-0.513-0.517-0.735
			c-2.052-2.909-2.427-3.478-2.063-4.162c0.164-0.309,0.443-0.521,0.788-0.598c0.888-0.198,1.965,0.523,4.208,2.213
			c0.291,0.219,0.638,0.48,0.976,0.726l-1.127-3.75l0.179-0.327c0.089-0.163,2.229-3.992,5.641-3.992v1.78
			c-1.905,0-3.387,1.989-3.893,2.765l1.563,5.198l-0.137,0.304c-0.133,0.295-0.39,0.511-0.705,0.591
			c-0.773,0.201-1.654-0.431-3.568-1.873c-0.289-0.218-0.64-0.482-1-0.744c0.202,0.29,0.406,0.579,0.592,0.842
			c2.522,3.575,3.021,4.416,2.58,5.194l-0.204,0.358l-0.453,0.109c-0.633,0.125-1.169-0.253-3.609-2.217
			c-0.154-0.125-0.321-0.259-0.495-0.397c0.139,0.222,0.276,0.439,0.405,0.644c2.261,3.589,2.665,4.355,2.214,5.069l-0.22,0.35
			l-0.461,0.089c-0.65,0.092-1.229-0.36-3.632-2.51c-0.087-0.078-0.178-0.159-0.272-0.243c0.12,0.208,0.235,0.408,0.342,0.593
			c2.142,3.71,2.485,4.426,2.015,5.114l-0.234,0.343l-0.467,0.07c-0.664,0.054-1.231-0.423-3.599-2.73
			c-0.05-0.049-0.101-0.099-0.153-0.15c0.101,0.19,0.199,0.373,0.291,0.544c2.022,3.784,2.343,4.51,1.853,5.175l-0.246,0.334
			l-0.468,0.054c-0.662,0.036-1.188-0.437-3.545-2.909c-0.026-0.027-0.052-0.055-0.079-0.083c0.084,0.17,0.167,0.334,0.244,0.489
			c1.95,3.917,2.226,4.593,1.714,5.244l-0.257,0.327l-0.469,0.038c-0.651,0.029-1.179-0.482-3.485-3.066
			c-0.007-0.008-0.014-0.016-0.021-0.024c0.071,0.152,0.14,0.3,0.205,0.44c1.853,3.982,2.112,4.668,1.583,5.3l-0.266,0.318
			l-0.469,0.024c0,0-0.001,0-0.002,0c-0.667,0-1.168-0.524-3.397-3.18c0.059,0.135,0.115,0.266,0.17,0.39
			c1.764,4.046,2.007,4.741,1.461,5.356l-0.275,0.311l-0.468,0.01c-0.663-0.018-1.15-0.554-3.295-3.26
			c0.047,0.116,0.093,0.229,0.138,0.337c1.679,4.104,1.908,4.807,1.345,5.407l-0.284,0.302l-0.466-0.003
			c-0.659-0.035-1.133-0.583-3.202-3.336c0.038,0.099,0.075,0.195,0.111,0.289c1.622,4.222,1.816,4.867,1.235,5.456l-0.292,0.295
			l-0.465-0.016c-0.652-0.053-1.116-0.611-3.106-3.4c0.028,0.078,0.056,0.154,0.082,0.228c1.544,4.278,1.727,4.931,1.127,5.504
			l-0.298,0.285l-0.462-0.027c-0.619-0.065-1-0.493-3.021-3.467c0.021,0.064,0.043,0.127,0.064,0.188
			c1.465,4.321,1.635,4.979,1.022,5.537l-0.305,0.278l-0.46-0.039c-0.613-0.08-0.986-0.516-2.936-3.524
			c0.015,0.046,0.029,0.091,0.043,0.135c1.392,4.37,1.55,5.034,0.921,5.578l-0.311,0.269l-0.457-0.05
			c-0.626-0.096-0.995-0.566-3.033-3.87c-0.053-0.086-0.108-0.175-0.165-0.267c0.071,0.267,0.141,0.525,0.205,0.764
			c1.165,4.317,1.335,5.213,0.665,5.779l-0.304,0.257l-0.475-0.035c-0.703-0.099-1.227-0.788-3.166-3.688
			c-0.162-0.241-0.34-0.509-0.526-0.784c0.134,0.498,0.272,0.993,0.393,1.425c1.187,4.258,1.362,5.143,0.709,5.713l-0.3,0.262
			l-0.478-0.027c-0.706-0.088-1.279-0.814-3.236-3.64c-0.153-0.221-0.322-0.464-0.497-0.715c0.145,0.496,0.292,0.99,0.421,1.42
			c1.252,4.185,1.443,5.056,0.814,5.641l-0.292,0.271l-0.481-0.011c-0.714-0.066-1.307-0.771-3.339-3.521
			c-0.148-0.201-0.311-0.421-0.48-0.648c0.161,0.495,0.326,0.987,0.469,1.415c1.365,4.08,1.581,4.933,0.986,5.541l-0.278,0.285
			l-0.486,0.014c-0.723-0.032-1.345-0.699-3.484-3.311c-0.143-0.175-0.299-0.365-0.461-0.562c0.186,0.485,0.376,0.968,0.542,1.389
			c1.54,3.914,1.794,4.736,1.252,5.379c-0.186,0.221-0.45,0.348-0.743,0.358c-0.75,0.048-1.517-0.696-3.697-2.941
			c-0.126-0.13-0.263-0.271-0.405-0.416c0.22,0.446,0.443,0.889,0.637,1.275c1.792,3.558,2.133,4.387,1.682,5.078
			c-0.157,0.239-0.401,0.4-0.689,0.452c-0.748,0.139-1.639-0.461-3.996-2.199c-0.043-0.032-0.088-0.065-0.133-0.098
			c0.217,0.282,0.431,0.556,0.623,0.802c2.231,2.864,2.724,3.612,2.436,4.38c-0.293,0.774-1.06,0.878-2.342,0.673
			c1.246,0.549,1.829,0.99,1.874,1.672c0.03,0.445-0.173,0.832-0.726,1.344c0.632-0.159,1.087-0.053,1.398,0.427
			c0.424,0.65,0.149,1.403-1.444,4.955c-0.005,0.012-0.011,0.025-0.017,0.037c1.632-2.219,2.202-2.824,2.852-2.908l0.38-0.049
			l0.394,0.266c0.637,0.519,0.521,1.304-0.411,5.48c-0.057,0.256-0.119,0.533-0.182,0.819c1.663-3.279,2.163-4.136,2.854-4.346
			l0.364-0.11l0.417,0.192c0.755,0.424,0.72,1.171,0.164,5.635c-0.038,0.304-0.08,0.637-0.122,0.981
			c0.036-0.087,0.07-0.172,0.104-0.255c1.427-3.497,1.861-4.414,2.521-4.684l0.346-0.142l0.423,0.145
			c0.822,0.351,0.832,1.111,0.521,5.688c-0.021,0.313-0.045,0.657-0.067,1.011c0.05-0.142,0.098-0.28,0.144-0.411
			c1.427-4.073,1.86-5.3,3.037-4.893c0.857,0.296,0.869,1.045,0.651,5.37c1.108-3.879,1.395-4.696,2.473-4.395
			c0.885,0.247,0.926,0.993,0.85,5.295c0.975-3.917,1.24-4.742,2.305-4.514c0.911,0.198,0.98,0.938,1.043,5.211
			c0.843-3.948,1.077-4.786,2.134-4.624c0.936,0.144,1.032,0.879,1.231,5.134c0.715-3.987,0.916-4.838,1.964-4.739
			c0.985,0.091,1.096,0.967,1.415,5.05c0.59-4.024,0.765-4.891,1.794-4.846c1.006,0.033,1.146,0.902,1.591,4.964
			c0.467-4.056,0.613-4.924,1.624-4.948c0.985-0.015,1.195,0.839,1.763,4.881c0.348-4.091,0.464-4.968,1.457-5.047
			c1.049-0.079,1.238,0.772,1.927,4.797c0.24-4.277,0.343-5.014,1.289-5.142c1.05-0.145,1.28,0.708,2.086,4.712
			c0.12-4.312,0.198-5.056,1.125-5.23c1.072-0.199,1.315,0.642,2.238,4.628c0.003-4.347,0.057-5.097,0.963-5.314
			c1.076-0.256,1.347,0.576,2.384,4.545c-0.112-4.38-0.083-5.134,0.802-5.394c1.012-0.294,1.397,0.87,1.742,1.896
			c0.238,0.71,0.511,1.632,0.782,2.564c-0.226-4.41-0.219-5.168,0.646-5.465l0.354-0.121l0.386,0.174
			c0.546,0.275,0.818,0.893,2.024,4.661v-2.173l0.836-0.05c0.204-0.012,5.004-0.3,6.956-0.3v1.78c-1.419,0-4.519,0.165-6.012,0.249
			v5.866l-0.939,0.346l-0.394-0.172c-0.565-0.276-0.82-0.86-2.075-4.789c0.004,0.078,0.008,0.154,0.012,0.229
			c0.242,4.708,0.257,5.498-0.649,5.785l-0.358,0.113l-0.382-0.184c-0.547-0.292-0.804-0.932-1.947-4.872
			c0.002,0.064,0.003,0.128,0.005,0.19c0.123,4.732,0.117,5.524-0.814,5.772l-0.358,0.095l-0.37-0.196
			c-0.533-0.311-0.772-0.962-1.813-4.956c0,0.053,0,0.104,0,0.156c0,4.749-0.028,5.542-0.984,5.748
			c-1.141,0.235-1.355-0.693-2.389-5.17c-0.001,0.043-0.002,0.085-0.003,0.127c-0.13,4.759-0.179,5.554-1.161,5.712
			c-1.125,0.185-1.318-0.761-2.227-5.285c-0.002,0.032-0.004,0.064-0.005,0.096c-0.255,4.601-0.308,5.558-1.343,5.669
			c-1.113,0.11-1.279-0.832-2.058-5.398c-0.002,0.023-0.004,0.046-0.006,0.069c-0.389,4.602-0.47,5.56-1.53,5.614
			c-1.09,0.058-1.232-0.898-1.874-5.484c-0.001-0.008-0.002-0.017-0.003-0.025c-0.002,0.015-0.003,0.03-0.005,0.044
			C73.984,209.484,73.874,210.449,72.8,210.449z"/>
		<path fill="#474948" d="M249.222,98.143c-50.626-16.502-74.401-14.265-74.401-14.265s-23.775-2.237-74.402,14.265
			c0,0-10.908,12.867-5.874,34.403l3.077,5.315c0,0,19.15,0.72,36.627-16.758c3.636-3.637,0.798-5.317,0.798-5.317l-1.624-3.099
			c0,0-0.28-7.551,6.713-7.551s34.684,0,34.684,0s27.691,0,34.683,0c6.994,0,6.713,7.551,6.713,7.551l-1.062,2.028
			c0,0-2.05,4.116,0.503,6.669c17.296,17.297,36.362,16.477,36.362,16.477l3.077-5.315
			C260.131,111.01,249.222,98.143,249.222,98.143z"/>
		<path fill="#474948" d="M245.444,200.46v-14.261c0-3.707-3.993-5.988-3.993-5.988c-32.708-21.39-37.793-44.347-40.503-47.056
			c-2.709-2.71-5.133-4.849-5.133-4.849l-10.002-6.559l-7.835-1.142l-3.157,0.009l-3.157-0.009l-7.834,1.142l-10.003,6.559
			c0,0-2.424,2.139-5.133,4.849c-2.71,2.708-7.794,25.666-40.503,47.056c0,0-3.993,2.282-3.993,5.988v14.261
			c0,0-0.256,6.274,3.707,6.274h63.164h4.718h65.951C245.701,206.734,245.444,200.46,245.444,200.46z"/>
		<path fill="#393A39" d="M200.954,108.339V98.078c0-1.996-1.618-3.613-3.613-3.613h-2.26c-1.996,0-3.613,1.617-3.613,3.613v4.405
			c-0.032,7.506-5.241,7.581-5.241,7.581h-10.084h-2.644h-10.085c0,0-5.209-0.074-5.241-7.581v-4.405
			c0-1.996-1.618-3.613-3.614-3.613H152.3c-1.996,0-3.613,1.617-3.613,3.613v10.261h0.001v1.704c0,0-0.25,5.073,7.487,5.073h2.745
			c0,0,4.993,0.749,4.993,8.236h9.585h2.644h9.585c0-7.487,4.992-8.236,4.992-8.236h2.745c7.737,0,7.487-5.073,7.487-5.073
			L200.954,108.339L200.954,108.339z"/>
		<circle fill="#949696" cx="174.821" cy="159.887" r="27.281"/>
		<rect x="106.232" y="192.354" fill="#363837" width="137.176" height="2.842"/>
		<circle fill="#B0B2B2" cx="174.821" cy="159.887" r="8.913"/>
		<path fill="#A6A8A8" d="M174.821,167.06c-4.629,0-8.433-3.529-8.87-8.042c-0.028,0.286-0.042,0.576-0.042,0.869
			c0,4.922,3.99,8.913,8.913,8.913c4.922,0,8.913-3.991,8.913-8.913c0-0.293-0.015-0.583-0.042-0.869
			C183.253,163.531,179.449,167.06,174.821,167.06z"/>
		<circle fill="#474948" cx="174.821" cy="140.972" r="4.349"/>
		<circle fill="#474948" cx="174.821" cy="180.261" r="4.349"/>
		<circle fill="#474948" cx="154.669" cy="159.887" r="4.349"/>
		<circle fill="#474948" cx="157.569" cy="149.67" r="4.349"/>
		<circle fill="#474948" cx="193.073" cy="149.67" r="4.35"/>
		<circle fill="#474948" cx="164.818" cy="142.216" r="4.349"/>
		<circle fill="#474948" cx="185.569" cy="142.216" r="4.349"/>
		<circle fill="#474948" cx="157.569" cy="169.752" r="4.349"/>
		<circle fill="#474948" cx="164.818" cy="177.207" r="4.349"/>
		<path fill="#D2D3D3" d="M204.034,160.995c0,0-0.486-1.604-2.107-1.604c-1.621,0-7.986,2.772-13.234,0c0,0-2.004-0.665-1.194,1.604
			c0.81,2.27,6.322,8.178,15.239,8.178c0,0,2.27,0.091,2.27-1.854S204.034,160.995,204.034,160.995z"/>
		<path fill="#363837" d="M94.545,132.546c0,0,27.22-8.2,38.879-19.859C133.424,112.687,124.335,127.866,94.545,132.546z"/>
		<path fill="#363837" d="M255.741,132.546c0,0-27.22-8.2-38.879-19.859C216.862,112.687,225.952,127.866,255.741,132.546z"/>
	</g>
</g>
</svg>
