<?xml version="1.0" encoding="utf-8"?>
<!-- Generator: Adobe Illustrator 16.0.0, SVG Export Plug-In . SVG Version: 6.00 Build 0)  -->
<!DOCTYPE svg PUBLIC "-//W3C//DTD SVG 1.1 Tiny//EN" "http://www.w3.org/Graphics/SVG/1.1/DTD/svg11-tiny.dtd">
<svg version="1.1" baseProfile="tiny" id="Layer_1" xmlns="http://www.w3.org/2000/svg" xmlns:xlink="http://www.w3.org/1999/xlink"
	 x="0px" y="0px" width="300px" height="300px" viewBox="0 0 300 300" xml:space="preserve">
<g>
	<circle fill="#609544" cx="150" cy="150" r="131.6"/>
	<g>
		<path fill-rule="evenodd" fill="#753D11" d="M124.535,160.781c-6.485,2.996-12.135,7.427-18.298,10.988
			c1.018,0.35,2.059,0.703,3.133,1.062l-3.91,9.531c0,0-4.893,6.179,0.763,9.718s25.332,15.851,25.332,15.851l0.979,9.747
			l10.916,0.776c0,0-1.346-13.163-7.494-17.01c-6.149-3.847-14.295-9.972-14.295-9.972s-3.689-2.308,0.159-8.457
			c3.847-6.148,7.54-12.051,7.54-12.051s3.265-6.61,1.962-12.52C128.998,159.006,126.725,159.77,124.535,160.781z"/>
		<path fill-rule="evenodd" fill="#753D11" d="M184.367,150.311c-5.306,3.843-6.629,3.636-11.544,7.932
			c0.977,0.136,10.235,16.696,11.264,16.829l-1.832,9.269c0,0-3.31,6.426,2.407,8.61c5.716,2.184,25.6,9.78,25.6,9.78l-0.044,6.819
			l12.609,0.546c0,0-3.541-11.607-9.753-13.98c-6.214-2.374-14.628-6.443-14.628-6.443s-3.728-1.424-1.353-7.638
			c2.374-6.213,4.653-12.178,4.653-12.178s1.769-6.525-0.449-11.614C199.302,159.157,186.158,149.014,184.367,150.311z"/>
		<path fill-rule="evenodd" fill="#C59A67" d="M173.094,114.321l-6.667-4.71c0,0,4.97-32.083,43.369-36.291
			C209.795,73.319,196.353,93.82,173.094,114.321z"/>
		<path fill-rule="evenodd" fill="#895D39" d="M212.966,72.434c0,0-21.71,9.936-31.085,28.631
			c-9.375,18.695-18.475,20.558-26.779,23.912s-37.322-5.819-51.176,6.695c-13.853,12.513-12.478,22.604-9.506,38.442l-10.229,1.223
			c0,0-7.779-1.267-8.118,5.397c-0.338,6.664-1.517,29.843-1.517,29.843l-7.086,2.253l3.684,13.26c0,0,10.843-7.582,11.211-14.826
			c0.369-7.244,1.753-17.341,1.753-17.341s0.221-4.346,7.465-3.978c7.243,0.368,14.197,0.722,14.197,0.722s11.648-0.569,14.653-8.26
			c3.005-7.69,5.167-10.195,5.167-10.195s21.514,16.779,55.895-2.388c0,0,11.438,9.297,35.569-2.549l10.284,3.428
			c0,0,0.835,6.433-3.733,10.558c0,0-2.298,2.353-0.235,4.636l-7.726,3.384l1.877,8.81l8.911-6.809c0,0,6.151-3.755,6.386-8.39
			c0.235-4.636,2.936-12.052,2.936-12.052l-4.828-13.607c0,0-1.518-4.435-9.139-3.079l-11.939,0.555c0,0,0.369-7.244-1.203-16.329
			c-1.572-9.085-2.354-28.006,2.665-35.304c0,0,7.646,3.874,12.774,5.878c0,0,2.582,3.472,4.095,5.146
			c1.514,1.675,8.909,1.906,10.578-2.367c1.67-4.272,1.296-8.357-3.266-10.042c-4.562-1.685-6.57-7.887-6.334-12.522
			C229.402,80.532,225.906,69.315,212.966,72.434z"/>
		<path fill-rule="evenodd" fill="#895D39" d="M209.795,73.319c0,0,0.519-4.989,3.586-8.029c0,0,3.201-1.799,3.16,1.907
			c-0.041,3.707,1.698,7.034,1.698,7.034S213.967,76.51,209.795,73.319z"/>
		<path fill-rule="evenodd" fill="#C59A67" d="M102.101,133.393c0,0-9.058-16.218-18.486-19.312
			c-9.429-3.094-21.416-1.599-29.151,7.705c-7.735,9.303-17.945,4.426-17.945,4.426s-2.456-1.037,1.43,6.173
			c3.463,6.427,19.685,10.877,29.953,4.137c0,0-7.24,6.217-3.184,6.423c4.057,0.207,7.93-4.584,13.26-9.397
			c5.327-4.812,11.663-5.41,20.288,4.14L102.101,133.393z"/>
		<path fill-rule="evenodd" fill="#804D25" d="M102.101,186.481c0,0,13.142,2.861,17.772-6.901l5.726-11.368
			c0,0,24.316,17.658,55.895-2.388c0,0,13.922,9.652,35.569-2.549c0,0-24.611,4.519-31.578-2.448
			c-6.967-6.966-13.261-5.797-19.059,0c-5.798,5.798-29.987,7.803-43.642-1.393s-6.409,4.807-7.524,12.018
			S112.908,183.433,102.101,186.481z"/>
		<path fill-rule="evenodd" fill="#804D25" d="M223.053,104.535c0,0-14.717,0.027-14.717-10.715c0,0,0.773-2.85,3.623,0
			c2.85,2.849,5.468,7.092,11.094,7.092s6.045,4.599,8.413,6.967c2.368,2.369,5.677,1.917,5.677,1.917s-6.137,3.119-8.954,0.303
			C225.373,107.284,223.053,104.535,223.053,104.535z"/>
		<circle fill-rule="evenodd" fill="#3F291B" cx="221.294" cy="86.84" r="1.532"/>
		<polygon fill-rule="evenodd" fill="#C59A67" points="74.556,206.578 78.708,215.073 71.509,223.249 67.47,208.831 		"/>
		<polygon fill-rule="evenodd" fill="#C59A67" points="221.294,182.811 224.399,188.842 217.531,194.091 215.654,185.281 		"/>
	</g>
</g>
</svg>
