<?xml version="1.0" encoding="utf-8"?>
<!-- Generator: Adobe Illustrator 16.0.0, SVG Export Plug-In . SVG Version: 6.00 Build 0)  -->
<!DOCTYPE svg PUBLIC "-//W3C//DTD SVG 1.1 Tiny//EN" "http://www.w3.org/Graphics/SVG/1.1/DTD/svg11-tiny.dtd">
<svg version="1.1" baseProfile="tiny" id="Layer_1" xmlns="http://www.w3.org/2000/svg" xmlns:xlink="http://www.w3.org/1999/xlink"
	 x="0px" y="0px" width="300px" height="300px" viewBox="0 0 300 300" xml:space="preserve">
<g>
	<circle fill="#D52029" cx="150" cy="150" r="131.6"/>
	<g>
		<g>
			<g>
				<path fill="#E7E8E8" d="M259.752,146.565c0-21.31-32.375-41.134-74.479-44.059c0-0.001,0.002-0.007,0.002-0.007
					s-17.469-3.213-32.89-14.386c-1.056-1.52-2.159-2.897-3.296-4.153c-0.029-0.041-0.061-0.078-0.09-0.119
					c0,0-0.002,0.018-0.003,0.02c-4.495-4.922-9.586-7.717-14.983-7.717c-18.191,0-32.938,31.529-32.938,70.421
					s14.746,70.421,32.938,70.421c5.396,0,10.485-2.794,14.98-7.713c0.002,0.009,0.006,0.037,0.006,0.037
					c0.057-0.08,0.115-0.152,0.172-0.231c1.077-1.197,2.123-2.507,3.127-3.942c19.904-12.832,32.977-14.485,32.977-14.485
					s-0.006-0.018-0.009-0.028C227.375,187.701,259.752,167.876,259.752,146.565z"/>
				<path fill="#F7F7F7" d="M134.869,76.144c-1.685,0-3.338,0.273-4.955,0.795c15.84,5.11,27.982,34.335,27.982,69.626
					c0,35.291-12.143,64.517-27.982,69.626c1.617,0.522,3.271,0.795,4.955,0.795c18.19,0,32.938-31.529,32.938-70.421
					S153.06,76.144,134.869,76.144z"/>
				<g>
					<ellipse fill="#ADB0B0" cx="125.177" cy="146.565" rx="23.28" ry="49.773"/>
					<path fill="#F4F5F5" d="M125.179,197.99c-13.981,0-24.933-22.588-24.933-51.425s10.951-51.424,24.933-51.424
						c13.979,0,24.93,22.588,24.93,51.424S139.158,197.99,125.179,197.99z M125.179,98.443c-11.725,0-21.63,22.037-21.63,48.122
						c0,26.085,9.905,48.122,21.63,48.122c11.723,0,21.627-22.037,21.627-48.122C146.806,120.48,136.901,98.443,125.179,98.443z"/>
				</g>
				<path fill="#525352" d="M125.2,189.65c-0.19-0.63,0.159-1.3,0.79-1.49l0,0c0.63-0.19,1.3,0.16,1.489,0.79l0,0
					c0.19,0.63-0.16,1.3-0.79,1.49l0,0c-0.12,0.04-0.239,0.06-0.35,0.06l0,0C125.83,190.5,125.35,190.16,125.2,189.65z
					 M121.3,190.42c-0.63-0.2-0.98-0.86-0.78-1.49l0,0c0.2-0.63,0.87-0.98,1.49-0.79h0.01c0.62,0.2,0.971,0.87,0.78,1.5l0,0
					c-0.16,0.51-0.64,0.84-1.14,0.84l0,0C121.54,190.48,121.42,190.46,121.3,190.42z M129.51,187.69c-0.44-0.49-0.4-1.25,0.09-1.69
					l0,0c0.49-0.44,1.24-0.4,1.681,0.09l0,0c0.439,0.49,0.409,1.24-0.08,1.68l0,0c-0.23,0.21-0.521,0.31-0.801,0.31l0,0
					C130.069,188.08,129.75,187.95,129.51,187.69z M116.81,187.73c-0.49-0.45-0.52-1.2-0.08-1.69l0,0c0.44-0.49,1.2-0.52,1.681-0.08
					l0,0c0.489,0.45,0.529,1.2,0.08,1.69l0,0c-0.23,0.26-0.551,0.39-0.881,0.39l0,0C117.319,188.04,117.04,187.93,116.81,187.73z
					 M132.81,184.25c-0.54-0.37-0.68-1.11-0.31-1.65h-0.01c0.369-0.55,1.119-0.69,1.659-0.32l0,0c0.551,0.37,0.69,1.11,0.32,1.66
					l0,0c0,0,0,0,0-0.01l0,0c-0.229,0.34-0.61,0.53-0.99,0.53l0,0C133.25,184.46,133.02,184.39,132.81,184.25z M113.55,183.88
					L113.55,183.88L113.55,183.88c-0.37-0.55-0.22-1.29,0.32-1.66l0,0c0.55-0.36,1.29-0.22,1.66,0.32l0,0
					c0.369,0.55,0.22,1.29-0.32,1.66l0,0c-0.21,0.14-0.44,0.21-0.67,0.21l0,0C114.16,184.41,113.78,184.22,113.55,183.88z
					 M135.319,180.2c-0.59-0.29-0.84-1-0.55-1.6v0.01c0.28-0.6,1-0.85,1.59-0.56l0,0c0.591,0.29,0.841,1,0.561,1.59l0,0
					c-0.21,0.43-0.64,0.68-1.08,0.68l0,0C135.67,180.32,135.49,180.28,135.319,180.2z M111.109,179.58
					c-0.279-0.59-0.029-1.3,0.561-1.59l0,0c0.6-0.28,1.31-0.03,1.59,0.56l0,0c0.29,0.59,0.04,1.3-0.56,1.59l0,0
					c-0.16,0.08-0.341,0.12-0.511,0.12l0,0C111.75,180.26,111.319,180.01,111.109,179.58z M137.27,175.85
					c-0.62-0.23-0.939-0.91-0.71-1.53l0,0c0.221-0.62,0.91-0.94,1.53-0.72l0,0c0.62,0.22,0.94,0.91,0.71,1.53l0,0
					c-0.17,0.48-0.63,0.79-1.12,0.79l0,0C137.54,175.92,137.41,175.89,137.27,175.85z M109.229,175.07
					c-0.22-0.62,0.101-1.31,0.721-1.53l0,0c0.619-0.22,1.3,0.1,1.529,0.72l0,0c0.221,0.62-0.1,1.3-0.72,1.52l0,0
					c-0.13,0.05-0.27,0.07-0.4,0.07l0,0C109.87,175.85,109.41,175.55,109.229,175.07z M138.8,171.32c-0.63-0.17-1.01-0.83-0.83-1.46
					l0,0c0.17-0.64,0.83-1.01,1.46-0.84l0,0c0.64,0.18,1.01,0.83,0.84,1.47l0,0c-0.149,0.53-0.63,0.88-1.149,0.88l0,0
					C139.01,171.37,138.91,171.35,138.8,171.32z M107.77,170.43c-0.17-0.64,0.2-1.3,0.84-1.47l0,0c0.631-0.17,1.29,0.2,1.46,0.84
					l0,0c0.181,0.63-0.199,1.29-0.829,1.46l0,0c-0.11,0.03-0.221,0.05-0.32,0.05l0,0C108.399,171.31,107.92,170.96,107.77,170.43z
					 M139.99,166.7c-0.65-0.13-1.061-0.76-0.931-1.41l0,0c0.13-0.64,0.76-1.06,1.41-0.93l0,0c0.64,0.14,1.061,0.77,0.93,1.41l0,0
					l0,0l0,0c-0.119,0.57-0.619,0.96-1.17,0.96l0,0C140.149,166.73,140.069,166.72,139.99,166.7z M106.649,165.71
					c-0.13-0.65,0.28-1.28,0.931-1.41l0,0c0.64-0.13,1.27,0.28,1.41,0.93h-0.011c0.141,0.65-0.279,1.28-0.92,1.41l0,0
					c-0.09,0.01-0.17,0.02-0.25,0.02l0,0C107.26,166.66,106.76,166.27,106.649,165.71z M140.88,162.01c-0.65-0.09-1.1-0.7-1.01-1.35
					l0,0c0.1-0.65,0.699-1.1,1.35-1.01l0,0c0.66,0.1,1.11,0.7,1.01,1.36l0,0c-0.09,0.59-0.6,1.01-1.18,1.01l0,0
					C141,162.02,140.939,162.02,140.88,162.01z M105.81,160.94c0,0,0,0,0.01,0l0,0c-0.1-0.65,0.351-1.25,1-1.35l0,0
					c0.66-0.1,1.261,0.36,1.36,1.01l0,0c0.09,0.65-0.36,1.25-1.01,1.35l0,0c-0.061,0.01-0.12,0.01-0.18,0.01l0,0
					C106.41,161.96,105.899,161.54,105.81,160.94z M141.51,157.28c-0.66-0.06-1.14-0.64-1.08-1.3l0,0c0.061-0.65,0.65-1.13,1.3-1.07
					l0,0c0.66,0.06,1.141,0.64,1.08,1.3l0,0c-0.06,0.61-0.58,1.08-1.189,1.08l0,0C141.59,157.29,141.55,157.29,141.51,157.28z
					 M105.24,156.14c-0.061-0.65,0.42-1.24,1.079-1.3l0,0c0.65-0.06,1.24,0.42,1.301,1.08l0,0c0.06,0.66-0.42,1.24-1.08,1.3l0,0
					c-0.04,0-0.07,0-0.11,0l0,0C105.819,157.22,105.3,156.76,105.24,156.14z M141.899,152.53c-0.659-0.03-1.17-0.59-1.14-1.25l0,0
					c0.03-0.66,0.59-1.17,1.25-1.14l0,0c0.66,0.03,1.17,0.59,1.14,1.25l0,0c-0.029,0.64-0.56,1.14-1.189,1.14l0,0
					C141.939,152.53,141.92,152.53,141.899,152.53z M104.91,151.33c-0.03-0.66,0.479-1.22,1.14-1.25l0,0
					c0.65-0.03,1.21,0.48,1.24,1.14l0,0c0.029,0.66-0.48,1.21-1.141,1.24l0,0c-0.01,0-0.029,0-0.05,0l0,0
					C105.47,152.46,104.939,151.97,104.91,151.33z M140.87,146.56c0-0.65,0.54-1.19,1.189-1.19l0,0c0.66,0,1.2,0.54,1.2,1.19l0,0
					l0,0l0,0c0,0.66-0.54,1.2-1.2,1.2l0,0C141.41,147.76,140.87,147.22,140.87,146.56z M104.8,146.5L104.8,146.5L104.8,146.5
					c0-0.66,0.53-1.19,1.19-1.19l0,0c0.659,0,1.199,0.53,1.199,1.19l0,0c0,0.66-0.54,1.19-1.199,1.19l0,0
					C105.33,147.69,104.8,147.16,104.8,146.5z M140.77,141.98L140.77,141.98c-0.029-0.66,0.48-1.22,1.141-1.25l0,0
					c0.649-0.03,1.21,0.48,1.239,1.14l0,0c0.03,0.66-0.479,1.22-1.14,1.25l0,0c-0.01,0-0.03,0-0.05,0l0,0
					C141.33,143.12,140.8,142.62,140.77,141.98z M106.05,142.92c-0.66-0.03-1.17-0.59-1.14-1.25l0,0c0.029-0.65,0.59-1.16,1.25-1.13
					l0,0c0.659,0.03,1.17,0.59,1.14,1.25l0,0c-0.03,0.64-0.56,1.13-1.19,1.13l0,0C106.09,142.92,106.069,142.92,106.05,142.92z
					 M140.439,137.27h0.011c-0.07-0.65,0.42-1.23,1.069-1.29l0,0c0.66-0.07,1.24,0.42,1.3,1.07l0,0l0,0l0,0
					c0.061,0.66-0.42,1.24-1.079,1.3l0,0c-0.03,0-0.07,0.01-0.11,0.01l0,0C141.02,138.36,140.5,137.89,140.439,137.27z
					 M106.33,138.16c-0.66-0.06-1.141-0.65-1.07-1.3l0,0c0.06-0.66,0.64-1.14,1.29-1.08l0,0c0.66,0.06,1.14,0.65,1.08,1.3l0,0
					c-0.061,0.62-0.58,1.08-1.19,1.08l0,0C106.399,138.16,106.37,138.16,106.33,138.16z M139.89,132.6
					c-0.1-0.66,0.36-1.26,1.01-1.36l0,0c0.65-0.09,1.25,0.36,1.351,1.01l0,0c0.1,0.65-0.36,1.26-1.01,1.35l0,0
					c-0.061,0.01-0.11,0.02-0.171,0.02l0,0C140.479,133.62,139.979,133.19,139.89,132.6z M106.84,133.42
					c-0.65-0.1-1.1-0.71-1.01-1.36l0,0c0,0,0,0,0.01,0l0,0c0.09-0.65,0.7-1.1,1.35-1.01l0,0c0.65,0.1,1.101,0.71,1.011,1.36l0,0
					c-0.091,0.59-0.601,1.02-1.19,1.02l0,0C106.96,133.43,106.899,133.42,106.84,133.42z M139.08,127.96
					c-0.13-0.64,0.29-1.27,0.93-1.4l0,0c0.65-0.14,1.28,0.28,1.41,0.93l0,0c0.13,0.64-0.28,1.27-0.93,1.4l0,0
					c-0.08,0.02-0.16,0.03-0.24,0.03l0,0C139.7,128.92,139.2,128.53,139.08,127.96z M107.6,128.7c-0.64-0.13-1.06-0.76-0.92-1.41
					l0,0c0.13-0.64,0.76-1.06,1.4-0.92l0,0c0.649,0.13,1.06,0.76,0.93,1.4l0,0c-0.11,0.57-0.61,0.96-1.17,0.96l0,0
					C107.76,128.73,107.68,128.72,107.6,128.7z M138,123.4c-0.17-0.64,0.2-1.3,0.84-1.47l0,0c0.63-0.17,1.29,0.2,1.46,0.84l0,0
					c0.18,0.63-0.2,1.29-0.83,1.46l0,0c-0.11,0.03-0.21,0.04-0.32,0.04l0,0C138.63,124.27,138.149,123.93,138,123.4z M108.64,124.04
					c-0.64-0.17-1.01-0.83-0.83-1.46l0,0c0.17-0.64,0.83-1.01,1.46-0.84l0,0c0.641,0.18,1.011,0.84,0.84,1.47h-0.01
					c-0.14,0.53-0.62,0.88-1.14,0.88l0,0C108.85,124.09,108.75,124.07,108.64,124.04z M136.6,118.93L136.6,118.93
					c-0.22-0.62,0.101-1.3,0.72-1.52l0,0c0.62-0.23,1.301,0.09,1.53,0.72l0,0l0,0l0,0c0.22,0.62-0.1,1.3-0.72,1.52l0,0
					c-0.14,0.05-0.271,0.07-0.41,0.07l0,0C137.229,119.72,136.78,119.42,136.6,118.93z M109.99,119.47
					c-0.62-0.23-0.94-0.91-0.71-1.53l0,0c0.22-0.62,0.909-0.94,1.529-0.71l0,0c0.62,0.22,0.931,0.9,0.71,1.52l0,0
					c-0.18,0.49-0.63,0.79-1.12,0.79l0,0C110.27,119.54,110.13,119.52,109.99,119.47z M134.819,114.64
					c-0.279-0.6-0.029-1.31,0.561-1.59l0,0c0.6-0.29,1.31-0.04,1.59,0.56l0,0l0,0l0,0c0.29,0.59,0.04,1.3-0.56,1.59l0,0
					c-0.16,0.08-0.341,0.11-0.511,0.11l0,0C135.45,115.31,135.03,115.06,134.819,114.64z M111.72,115.02
					c-0.59-0.29-0.84-1-0.55-1.59l0,0c0.29-0.59,1-0.84,1.59-0.56l0,0c0.6,0.29,0.85,1,0.56,1.6l0,0
					c-0.21,0.42-0.63,0.67-1.079,0.67l0,0C112.069,115.14,111.89,115.1,111.72,115.02z M132.56,110.63
					c-0.359-0.54-0.22-1.28,0.33-1.65l0,0c0.55-0.37,1.29-0.22,1.66,0.33l0,0c0.36,0.54,0.22,1.28-0.33,1.65l0,0
					c-0.2,0.14-0.439,0.2-0.66,0.2l0,0C133.17,111.16,132.79,110.98,132.56,110.63z M113.939,110.8
					c-0.55-0.37-0.689-1.12-0.319-1.66l0,0c0.38-0.55,1.12-0.69,1.66-0.32l0,0c0.55,0.38,0.689,1.12,0.319,1.66l0,0
					c-0.229,0.34-0.609,0.52-0.99,0.52l0,0C114.38,111,114.149,110.94,113.939,110.8z M129.689,107.21L129.689,107.21
					c-0.489-0.45-0.52-1.2-0.08-1.69l0,0c0.45-0.48,1.2-0.52,1.69-0.07l0,0c0.48,0.45,0.52,1.2,0.07,1.68l0,0
					c-0.23,0.26-0.561,0.39-0.88,0.39l0,0C130.2,107.52,129.92,107.42,129.689,107.21z M116.819,106.99
					c-0.439-0.49-0.399-1.24,0.091-1.68l0,0c0.489-0.44,1.25-0.4,1.689,0.09l0,0c0.431,0.5,0.391,1.25-0.1,1.69l0,0
					c-0.23,0.2-0.51,0.3-0.79,0.3l0,0C117.38,107.39,117.05,107.26,116.819,106.99z M126.1,105L126.1,105
					c-0.63-0.2-0.979-0.87-0.77-1.5l0,0c0.2-0.63,0.87-0.97,1.5-0.77l0,0c0.62,0.2,0.97,0.87,0.77,1.5l0,0
					c-0.17,0.51-0.63,0.83-1.14,0.83l0,0C126.34,105.06,126.22,105.04,126.1,105z M120.64,104.15c-0.189-0.63,0.17-1.3,0.8-1.48l0,0
					l0,0l0,0c0.63-0.19,1.301,0.17,1.48,0.8l0,0c0.189,0.63-0.17,1.29-0.8,1.48l0,0c-0.11,0.04-0.23,0.05-0.34,0.05l0,0
					C121.27,105,120.79,104.67,120.64,104.15z"/>
				<path fill="#525352" d="M121.479,182.15L121.479,182.15L121.479,182.15c-0.609-0.23-0.92-0.92-0.689-1.54l0,0
					c0.24-0.61,0.92-0.92,1.54-0.69l0,0c0.62,0.24,0.93,0.93,0.689,1.54l0,0c-0.18,0.48-0.63,0.77-1.109,0.77l0,0
					C121.77,182.23,121.62,182.2,121.479,182.15z M125.439,181.46c-0.239-0.62,0.07-1.31,0.69-1.54l0,0
					c0.61-0.24,1.3,0.07,1.54,0.68l0,0c0.229,0.62-0.08,1.31-0.69,1.55l0,0l0,0l0,0c-0.14,0.05-0.29,0.08-0.43,0.08l0,0
					C126.069,182.23,125.62,181.93,125.439,181.46z M117.21,179.06c-0.45-0.49-0.41-1.24,0.08-1.69l0,0
					c0.49-0.44,1.24-0.4,1.689,0.09l0,0c0.44,0.49,0.4,1.24-0.09,1.68l0,0c-0.229,0.21-0.51,0.31-0.8,0.31l0,0
					C117.77,179.45,117.439,179.32,117.21,179.06z M129.56,179.14c-0.479-0.45-0.52-1.2-0.08-1.69l0,0
					c0.44-0.49,1.19-0.53,1.681-0.09l0,0c0.489,0.45,0.529,1.2,0.09,1.69l0,0l0,0l0,0c-0.24,0.26-0.561,0.39-0.891,0.39l0,0
					C130.08,179.44,129.79,179.34,129.56,179.14z M114.33,174.92L114.33,174.92L114.33,174.92c-0.32-0.57-0.11-1.3,0.47-1.62l0,0
					c0.58-0.31,1.3-0.1,1.62,0.48l0,0c0.32,0.57,0.11,1.3-0.47,1.62l0,0c-0.181,0.1-0.381,0.14-0.57,0.14l0,0
					C114.96,175.54,114.55,175.32,114.33,174.92z M132.5,175.38c-0.57-0.31-0.79-1.04-0.47-1.61l0,0
					c0.319-0.58,1.039-0.79,1.619-0.48l0,0c0.58,0.32,0.79,1.05,0.471,1.62l0,0l0,0l0,0c-0.221,0.4-0.62,0.62-1.04,0.62l0,0
					C132.88,175.53,132.689,175.48,132.5,175.38z M112.28,170.44c-0.23-0.62,0.079-1.31,0.699-1.54l0,0
					c0.61-0.24,1.301,0.07,1.53,0.69l0,0c0.24,0.61-0.07,1.3-0.69,1.53l0,0c-0.14,0.06-0.279,0.08-0.42,0.08l0,0
					C112.92,171.2,112.46,170.91,112.28,170.44z M134.63,171.11c-0.62-0.23-0.93-0.92-0.69-1.53l0,0c0.23-0.62,0.92-0.93,1.54-0.69
					l0,0c0.61,0.23,0.92,0.92,0.69,1.53l0,0c-0.18,0.48-0.64,0.77-1.12,0.77l0,0C134.91,171.19,134.77,171.17,134.63,171.11z
					 M110.79,165.78c-0.181-0.64,0.2-1.29,0.84-1.46l0,0c0.63-0.17,1.29,0.2,1.46,0.84l0,0c0.17,0.63-0.2,1.29-0.84,1.46l0,0
					c-0.101,0.03-0.21,0.04-0.311,0.04l0,0C111.41,166.66,110.93,166.31,110.79,165.78z M136.2,166.61
					c-0.631-0.17-1.011-0.83-0.841-1.46l0,0c0.171-0.64,0.83-1.02,1.46-0.84l0,0c0.641,0.17,1.011,0.82,0.841,1.46l0,0
					c-0.141,0.53-0.62,0.88-1.15,0.88l0,0C136.41,166.65,136.31,166.64,136.2,166.61z M109.71,161.04L109.71,161.04L109.71,161.04
					c-0.12-0.65,0.3-1.27,0.95-1.4l0,0c0.649-0.12,1.27,0.31,1.39,0.96l0,0c0.12,0.64-0.3,1.27-0.95,1.39l0,0
					c-0.069,0.01-0.149,0.02-0.22,0.02l0,0C110.319,162.01,109.819,161.61,109.71,161.04z M137.35,161.98
					c-0.649-0.12-1.08-0.75-0.95-1.39l0,0c0.12-0.65,0.74-1.08,1.391-0.96l0,0c0.649,0.12,1.069,0.75,0.95,1.39l0,0
					c-0.11,0.58-0.61,0.98-1.171,0.98l0,0C137.5,162,137.42,161.99,137.35,161.98z M108.979,156.24L108.979,156.24L108.979,156.24
					c-0.08-0.65,0.391-1.25,1.04-1.32l0,0c0.66-0.08,1.25,0.38,1.33,1.04l0,0c0.08,0.65-0.39,1.25-1.05,1.32l0,0
					c-0.04,0.01-0.09,0.01-0.14,0.01l0,0C109.569,157.29,109.05,156.85,108.979,156.24z M138.14,157.27
					c-0.649-0.07-1.12-0.67-1.04-1.32l0,0c0.08-0.66,0.67-1.13,1.33-1.05l0,0c0.65,0.08,1.12,0.67,1.04,1.33l0,0
					c-0.07,0.6-0.59,1.05-1.189,1.05l0,0C138.24,157.28,138.189,157.28,138.14,157.27z M108.56,151.42
					c-0.04-0.66,0.46-1.23,1.12-1.26l0,0c0.66-0.04,1.22,0.46,1.26,1.12l0,0c0.04,0.66-0.46,1.22-1.12,1.26l0,0
					c-0.029,0-0.05,0-0.069,0l0,0C109.12,152.54,108.59,152.05,108.56,151.42z M138.63,152.52c-0.66-0.03-1.16-0.6-1.12-1.25l0,0
					c0.04-0.66,0.6-1.16,1.26-1.12l0,0c0.66,0.03,1.16,0.6,1.12,1.25l0,0c-0.04,0.64-0.56,1.13-1.189,1.13l0,0
					C138.68,152.53,138.649,152.53,138.63,152.52z M108.42,146.58L108.42,146.58L108.42,146.58c0-0.66,0.53-1.19,1.189-1.19l0,0
					c0.66-0.01,1.2,0.53,1.2,1.19l0,0c0,0.66-0.54,1.19-1.2,1.19l0,0C108.95,147.77,108.42,147.24,108.42,146.58z M137.64,146.57
					L137.64,146.57c0-0.01,0-0.02,0-0.03l0,0c0-0.66,0.54-1.19,1.2-1.19l0,0c0.65,0,1.19,0.53,1.19,1.19l0,0l0,0l0,0
					c0,0.01,0,0.02,0,0.03l0,0c0,0.65-0.54,1.19-1.19,1.19l0,0C138.18,147.76,137.64,147.22,137.64,146.57z M109.68,143
					c-0.66-0.04-1.16-0.6-1.12-1.26l0,0c0.03-0.66,0.601-1.16,1.25-1.12l0,0c0.66,0.03,1.17,0.6,1.13,1.25v0.01
					c-0.04,0.63-0.569,1.12-1.189,1.12l0,0C109.72,143,109.7,143,109.68,143z M137.51,141.84c-0.04-0.66,0.46-1.22,1.12-1.26l0,0
					c0.66-0.04,1.22,0.47,1.26,1.12l0,0c0.04,0.66-0.46,1.23-1.12,1.26l0,0c-0.029,0-0.05,0-0.069,0l0,0
					C138.069,142.96,137.54,142.47,137.51,141.84z M110.02,138.24c-0.649-0.08-1.12-0.67-1.04-1.32l0,0c0,0,0,0,0-0.01l0,0
					c0.07-0.65,0.67-1.12,1.32-1.04l0,0c0.66,0.08,1.12,0.67,1.05,1.33v-0.01c-0.08,0.61-0.59,1.06-1.189,1.06l0,0
					C110.12,138.25,110.069,138.24,110.02,138.24z M137.1,137.16c-0.08-0.66,0.391-1.25,1.04-1.33l0,0
					c0.65-0.07,1.25,0.39,1.33,1.05l0,0c0.07,0.65-0.39,1.25-1.05,1.32l0,0c-0.05,0.01-0.09,0.01-0.14,0.01l0,0
					C137.689,138.21,137.17,137.77,137.1,137.16z M110.66,133.51c-0.65-0.12-1.08-0.74-0.96-1.39l0,0c0,0,0,0,0.01,0l0,0
					c0.12-0.65,0.74-1.08,1.39-0.95l0,0c0.641,0.12,1.07,0.74,0.95,1.39l0,0c-0.11,0.57-0.61,0.97-1.17,0.97l0,0
					C110.81,133.53,110.729,133.52,110.66,133.51z M136.39,132.52L136.39,132.52c-0.12-0.65,0.311-1.27,0.95-1.39l0,0
					c0.65-0.12,1.27,0.3,1.4,0.95l0,0l0,0l0,0c0.119,0.65-0.311,1.27-0.96,1.39l0,0c-0.07,0.02-0.141,0.03-0.221,0.03l0,0
					C137,133.5,136.5,133.09,136.39,132.52z M111.62,128.84c-0.63-0.17-1.011-0.83-0.84-1.47l0,0c0.17-0.63,0.829-1.01,1.46-0.84
					l0,0c0.64,0.17,1.02,0.83,0.84,1.47h0.01c-0.15,0.53-0.63,0.88-1.16,0.88l0,0C111.83,128.88,111.729,128.87,111.62,128.84z
					 M135.35,127.96c-0.17-0.63,0.21-1.29,0.84-1.46l0,0c0.641-0.17,1.29,0.2,1.471,0.84l0,0c0.17,0.63-0.21,1.29-0.851,1.46l0,0
					c-0.1,0.03-0.2,0.04-0.31,0.04l0,0C135.979,128.84,135.5,128.49,135.35,127.96z M112.97,124.26c-0.62-0.24-0.93-0.92-0.7-1.54
					l0,0c0,0,0,0,0.011,0l0,0c0.229-0.62,0.92-0.93,1.529-0.69l0,0c0.62,0.23,0.931,0.92,0.7,1.54v-0.01
					c-0.18,0.48-0.64,0.78-1.12,0.78l0,0C113.25,124.34,113.109,124.31,112.97,124.26z M133.93,123.53L133.93,123.53
					c-0.24-0.61,0.08-1.3,0.69-1.54l0,0c0.62-0.23,1.31,0.08,1.54,0.7l0,0c0.229,0.61-0.08,1.3-0.69,1.53l0,0
					c-0.14,0.06-0.28,0.08-0.42,0.08l0,0C134.56,124.3,134.109,124.01,133.93,123.53z M114.79,119.85
					c-0.58-0.32-0.79-1.04-0.471-1.62l0,0c0.32-0.58,1.04-0.79,1.62-0.47l0,0c0.58,0.31,0.79,1.04,0.471,1.61v0.01
					c-0.221,0.39-0.63,0.62-1.051,0.62l0,0C115.17,120,114.97,119.95,114.79,119.85z M132.02,119.34L132.02,119.34
					c-0.319-0.57-0.109-1.3,0.471-1.61l0,0c0.579-0.32,1.3-0.11,1.619,0.47l0,0c0.32,0.57,0.11,1.3-0.47,1.62l0,0
					c-0.18,0.1-0.38,0.14-0.57,0.14l0,0C132.649,119.96,132.24,119.74,132.02,119.34z M117.28,115.77
					c-0.49-0.44-0.53-1.19-0.091-1.68l0,0l0,0l0,0c0.44-0.49,1.19-0.53,1.681-0.09l0,0c0.489,0.44,0.529,1.2,0.09,1.69l0,0
					c-0.23,0.26-0.561,0.39-0.891,0.39l0,0C117.79,116.08,117.5,115.98,117.28,115.77z M129.46,115.66h0.01
					c-0.45-0.48-0.41-1.24,0.08-1.68l0,0c0.49-0.44,1.24-0.41,1.68,0.08l0,0c0.45,0.49,0.41,1.24-0.08,1.69l0,0
					c-0.229,0.2-0.52,0.31-0.8,0.31l0,0C130.02,116.06,129.7,115.92,129.46,115.66z M120.77,112.53c-0.239-0.61,0.07-1.3,0.69-1.54
					l0,0c0,0,0,0-0.01,0l0,0c0.619-0.24,1.31,0.07,1.55,0.68l0,0c0.229,0.62-0.07,1.31-0.69,1.55l0,0
					c-0.14,0.05-0.279,0.08-0.43,0.08l0,0C121.399,113.3,120.95,113,120.77,112.53z M126.109,113.21
					c-0.619-0.24-0.93-0.93-0.699-1.54l0,0c0.239-0.62,0.93-0.93,1.54-0.7l0,0c0.619,0.24,0.93,0.93,0.699,1.54l0,0
					c-0.189,0.48-0.64,0.77-1.119,0.77l0,0C126.39,113.28,126.25,113.26,126.109,113.21z"/>
				<path fill="#525352" d="M121.74,174.42c0,0,0,0,0.01,0l0,0c-0.62-0.24-0.92-0.93-0.681-1.54l0,0c0.24-0.61,0.931-0.92,1.54-0.68
					h0.011c0.609,0.24,0.91,0.93,0.67,1.55l0,0c-0.181,0.47-0.63,0.75-1.11,0.75l0,0C122.03,174.5,121.89,174.48,121.74,174.42z
					 M125.72,173.49c-0.34-0.56-0.15-1.29,0.42-1.63l0,0c0.57-0.33,1.3-0.14,1.63,0.43l0,0c0.34,0.56,0.15,1.3-0.42,1.63l0,0
					c-0.189,0.11-0.399,0.16-0.6,0.16l0,0C126.34,174.08,125.939,173.87,125.72,173.49z M117.6,171.03L117.6,171.03L117.6,171.03
					c-0.399-0.52-0.29-1.27,0.23-1.67l0,0c0.529-0.4,1.279-0.29,1.68,0.23l0,0c0.39,0.52,0.29,1.27-0.24,1.67l0,0
					c-0.21,0.16-0.46,0.24-0.72,0.24l0,0C118.189,171.5,117.84,171.34,117.6,171.03z M129.399,170.52
					c-0.55-0.37-0.689-1.11-0.33-1.66l0,0c0.37-0.55,1.11-0.69,1.65-0.33l0,0c0.55,0.37,0.7,1.11,0.34,1.65l0,0
					c-0.229,0.35-0.609,0.54-1,0.54l0,0C129.84,170.72,129.609,170.65,129.399,170.52z M115.1,166.66L115.1,166.66L115.1,166.66
					c-0.26-0.61,0.01-1.31,0.62-1.58l0,0c0.6-0.26,1.3,0.01,1.57,0.62l0,0c0.26,0.6-0.01,1.3-0.62,1.57l0,0
					c-0.15,0.06-0.32,0.1-0.48,0.1l0,0C115.74,167.37,115.3,167.1,115.1,166.66z M131.79,166.39c-0.61-0.24-0.91-0.94-0.66-1.55l0,0
					c0.24-0.61,0.93-0.91,1.55-0.66l0,0c0.61,0.24,0.91,0.94,0.66,1.55l0,0c-0.19,0.46-0.63,0.75-1.11,0.75l0,0
					C132.08,166.48,131.939,166.45,131.79,166.39z M113.46,162c-0.18-0.63,0.189-1.29,0.83-1.47l0,0c0.63-0.18,1.29,0.19,1.47,0.82
					l0,0c0.18,0.64-0.19,1.3-0.83,1.48l0,0c-0.11,0.03-0.21,0.04-0.32,0.04l0,0C114.09,162.87,113.609,162.53,113.46,162z
					 M133.399,161.9c-0.63-0.16-1.02-0.81-0.85-1.45l0,0c0.16-0.64,0.81-1.02,1.45-0.86l0,0c0.63,0.17,1.02,0.82,0.859,1.45l0,0
					c-0.14,0.54-0.63,0.9-1.159,0.9l0,0C133.6,161.94,133.5,161.93,133.399,161.9z M112.38,157.23L112.38,157.23L112.38,157.23
					c-0.11-0.65,0.32-1.27,0.97-1.38l0,0c0.65-0.11,1.271,0.32,1.38,0.97l0,0c0.12,0.65-0.319,1.27-0.97,1.38l0,0
					c-0.07,0.01-0.13,0.02-0.2,0.02l0,0C112.99,158.22,112.49,157.81,112.38,157.23z M134.47,157.25c-0.65-0.1-1.09-0.71-0.99-1.36
					l0,0c0.101-0.65,0.71-1.1,1.36-0.99l0,0c0.65,0.1,1.1,0.71,1,1.36l0,0c-0.1,0.59-0.61,1.01-1.18,1.01l0,0
					C134.6,157.27,134.53,157.26,134.47,157.25z M111.75,152.4L111.75,152.4L111.75,152.4c-0.061-0.65,0.42-1.23,1.08-1.29l0,0
					c0.66-0.06,1.229,0.42,1.3,1.08l0,0c0.05,0.66-0.43,1.23-1.09,1.29l0,0c-0.03,0.01-0.07,0.01-0.101,0.01l0,0
					C112.33,153.49,111.8,153.02,111.75,152.4z M135.109,152.52c-0.659-0.05-1.149-0.62-1.1-1.28l0,0c0.05-0.65,0.62-1.15,1.28-1.1
					l0,0c0.649,0.05,1.149,0.62,1.1,1.28l0,0c-0.05,0.63-0.57,1.11-1.189,1.11l0,0C135.17,152.53,135.14,152.52,135.109,152.52z
					 M111.5,147.55c-0.01-0.66,0.51-1.2,1.17-1.21l0,0c0.66-0.01,1.2,0.51,1.21,1.17l0,0c0.01,0.66-0.51,1.2-1.17,1.21l0,0
					c-0.01,0-0.01,0-0.021,0l0,0C112.04,148.72,111.51,148.2,111.5,147.55z M134.18,146.56c0-0.39,0.19-0.73,0.48-0.95l0,0
					c-0.301-0.21-0.49-0.55-0.511-0.94l0,0c-0.02-0.66,0.5-1.21,1.16-1.23l0,0c0.66-0.02,1.21,0.5,1.23,1.16l0,0
					c0.01,0.4-0.181,0.76-0.48,0.99l0,0c0.311,0.21,0.51,0.57,0.51,0.97l0,0l0,0l0,0c0,0.66-0.539,1.2-1.199,1.2l0,0
					C134.72,147.76,134.18,147.22,134.18,146.56z M112.72,143.95c-0.65-0.04-1.16-0.6-1.12-1.26l0,0c0.04-0.66,0.61-1.16,1.26-1.12
					l0,0c0.66,0.04,1.16,0.6,1.12,1.26l0,0c-0.029,0.63-0.56,1.12-1.18,1.12l0,0C112.77,143.95,112.75,143.95,112.72,143.95z
					 M133.84,140L133.84,140c-0.07-0.66,0.4-1.25,1.06-1.31l0,0c0.66-0.07,1.24,0.4,1.311,1.05l0,0c0.07,0.66-0.4,1.25-1.061,1.32
					l0,0c-0.04,0-0.08,0-0.13,0l0,0C134.42,141.06,133.899,140.61,133.84,140z M113.09,139.2c-0.65-0.1-1.1-0.7-1.01-1.35l0,0
					c0.09-0.65,0.689-1.11,1.34-1.02l0,0c0.66,0.09,1.11,0.69,1.02,1.35l0,0c-0.08,0.59-0.59,1.03-1.18,1.03l0,0
					C113.2,139.21,113.149,139.2,113.09,139.2z M133.149,135.38c-0.119-0.65,0.301-1.27,0.95-1.4l0,0c0.641-0.12,1.271,0.3,1.4,0.94
					l0,0c0.12,0.65-0.3,1.28-0.95,1.4l0,0c-0.08,0.02-0.15,0.03-0.23,0.03l0,0C133.76,136.35,133.26,135.95,133.149,135.38z
					 M113.85,134.48c-0.64-0.15-1.04-0.79-0.88-1.43l0,0c0.15-0.64,0.79-1.04,1.43-0.89l0,0c0.641,0.15,1.04,0.79,0.891,1.43l0,0
					c-0.13,0.55-0.62,0.93-1.16,0.93l0,0C114.04,134.52,113.95,134.5,113.85,134.48z M132.04,130.87c-0.2-0.63,0.149-1.29,0.79-1.49
					l0,0c0.62-0.19,1.29,0.16,1.489,0.79l0,0c0.19,0.63-0.159,1.3-0.789,1.49l0,0c-0.12,0.04-0.24,0.06-0.36,0.06l0,0
					C132.67,131.72,132.189,131.39,132.04,130.87z M115.069,129.87c-0.619-0.23-0.939-0.91-0.71-1.53l0,0l0,0l0,0
					c0.221-0.62,0.91-0.94,1.53-0.71l0,0c0.62,0.22,0.93,0.91,0.71,1.53l0,0c-0.18,0.48-0.64,0.78-1.12,0.78l0,0
					C115.34,129.94,115.2,129.92,115.069,129.87z M130.38,126.59L130.38,126.59c-0.28-0.59-0.04-1.3,0.56-1.59l0,0
					c0.591-0.29,1.301-0.04,1.591,0.56l0,0c0.289,0.59,0.039,1.3-0.551,1.59l0,0c-0.17,0.08-0.35,0.12-0.52,0.12l0,0
					C131.02,127.27,130.59,127.02,130.38,126.59z M116.87,125.45c-0.561-0.34-0.75-1.07-0.41-1.63l0,0
					c0.33-0.57,1.06-0.76,1.63-0.42l0,0c0.56,0.33,0.75,1.06,0.42,1.63l0,0c-0.22,0.38-0.62,0.59-1.03,0.59l0,0
					C117.27,125.62,117.06,125.56,116.87,125.45z M128,122.86L128,122.86c-0.44-0.5-0.391-1.25,0.1-1.69l0,0
					c0.5-0.43,1.25-0.38,1.69,0.11l0,0c0.43,0.5,0.39,1.25-0.11,1.68l0,0c-0.229,0.2-0.51,0.3-0.79,0.3l0,0
					C128.56,123.26,128.229,123.13,128,122.86z M119.58,121.51c-0.41-0.52-0.311-1.26,0.21-1.67l0,0c0.52-0.4,1.27-0.31,1.67,0.21
					l0,0c0.399,0.52,0.31,1.27-0.21,1.67l0,0c-0.22,0.17-0.47,0.26-0.73,0.26l0,0C120.16,121.98,119.81,121.82,119.58,121.51z
					 M124.729,120.72c-0.649-0.13-1.069-0.75-0.949-1.4l0,0c0.13-0.64,0.75-1.07,1.399-0.94l0,0c0.65,0.12,1.07,0.75,0.95,1.39l0,0
					c-0.11,0.57-0.61,0.97-1.17,0.97l0,0C124.88,120.74,124.81,120.73,124.729,120.72z"/>
				<path fill="#525352" d="M123.85,167.39c-0.229-0.57,0.03-1.22,0.59-1.45h0.011c0.56-0.24,1.21,0.03,1.439,0.59l0,0
					c0.24,0.56-0.03,1.21-0.59,1.45l0,0l0,0l0,0c-0.14,0.06-0.28,0.08-0.43,0.08l0,0C124.439,168.06,124.03,167.81,123.85,167.39z
					 M120.14,166.42c-0.399-0.45-0.359-1.15,0.09-1.56l0,0c0.46-0.4,1.16-0.36,1.57,0.09l0,0c0.4,0.46,0.36,1.16-0.1,1.57l0,0
					c-0.21,0.18-0.471,0.27-0.73,0.27l0,0C120.67,166.79,120.359,166.67,120.14,166.42z M127.31,164.76
					c-0.54-0.29-0.729-0.96-0.439-1.5l0,0c0.29-0.53,0.96-0.73,1.5-0.44l0,0c0.54,0.29,0.729,0.96,0.439,1.5l0,0
					c-0.2,0.37-0.58,0.58-0.97,0.58l0,0C127.66,164.9,127.479,164.85,127.31,164.76z M117.75,162.28c-0.22-0.57,0.05-1.21,0.62-1.44
					l0,0c0.569-0.22,1.21,0.05,1.439,0.62l0,0c0.221,0.57-0.05,1.21-0.62,1.44l0,0c-0.14,0.05-0.27,0.08-0.409,0.08l0,0
					C118.34,162.98,117.92,162.71,117.75,162.28z M129.17,160.75c-0.59-0.18-0.92-0.79-0.74-1.38l-0.01,0.01
					c0.18-0.59,0.79-0.92,1.38-0.75l0,0c0.59,0.17,0.92,0.79,0.75,1.37l0,0c0,0,0,0,0,0.01l0,0c-0.15,0.47-0.59,0.78-1.07,0.78l0,0
					C129.38,160.79,129.27,160.78,129.17,160.75z M116.41,157.89c-0.13-0.6,0.239-1.19,0.83-1.33l0,0
					c0.6-0.14,1.189,0.24,1.329,0.83l0,0c0.141,0.6-0.239,1.19-0.829,1.33l0,0c-0.08,0.02-0.171,0.03-0.25,0.03l0,0
					C116.99,158.75,116.53,158.4,116.41,157.89z M130.29,156.47c-0.61-0.1-1.01-0.68-0.91-1.28l0,0c0.1-0.6,0.67-1.01,1.28-0.9l0,0
					c0.6,0.1,1.01,0.67,0.899,1.27l0,0l0,0l0,0c-0.09,0.54-0.56,0.92-1.09,0.92l0,0C130.41,156.48,130.35,156.48,130.29,156.47z
					 M115.64,153.42c-0.08-0.61,0.351-1.16,0.96-1.24l0,0c0.601-0.07,1.16,0.36,1.23,0.96l0,0c0.08,0.61-0.351,1.16-0.96,1.24l0,0
					c-0.051,0-0.09,0.01-0.141,0.01l0,0C116.18,154.39,115.71,153.98,115.64,153.42z M130.92,152.09
					c-0.61-0.05-1.061-0.58-1.01-1.19l0,0c0.05-0.61,0.58-1.07,1.189-1.02l0,0c0.61,0.05,1.061,0.58,1.01,1.19l0,0
					c-0.04,0.58-0.529,1.02-1.1,1.02l0,0C130.979,152.09,130.95,152.09,130.92,152.09z M115.27,148.91L115.27,148.91L115.27,148.91
					c-0.02-0.61,0.45-1.12,1.061-1.15l0,0c0.609-0.02,1.13,0.45,1.149,1.06l0,0c0.03,0.62-0.449,1.13-1.06,1.15l0,0
					c-0.01,0-0.03,0-0.04,0l0,0C115.79,149.97,115.3,149.51,115.27,148.91z M130.08,146.57L130.08,146.57c0-0.03,0-0.06,0-0.08l0,0
					c0-0.04,0-0.07,0-0.11l0,0c-0.011-0.61,0.489-1.11,1.1-1.11l0,0c0.61,0,1.11,0.5,1.11,1.11l0,0c0,0.03,0,0.06-0.01,0.09l0,0
					c0.01,0.03,0.01,0.06,0.01,0.1l0,0l0,0l0,0c0,0.61-0.5,1.1-1.11,1.1l0,0C130.569,147.67,130.08,147.18,130.08,146.57z
					 M116.33,145.55c-0.61-0.02-1.09-0.54-1.07-1.15l0,0c0.03-0.61,0.54-1.08,1.15-1.06l0,0c0.609,0.02,1.09,0.53,1.069,1.14l0,0
					c-0.029,0.6-0.52,1.07-1.109,1.07l0,0C116.359,145.55,116.34,145.55,116.33,145.55z M129.89,142.05
					c-0.05-0.61,0.41-1.14,1.01-1.19l0,0c0.62-0.05,1.15,0.4,1.2,1.01l0,0c0.05,0.61-0.399,1.14-1.01,1.19l0,0c-0.04,0-0.07,0-0.1,0
					l0,0C130.42,143.06,129.939,142.63,129.89,142.05z M116.58,141.13c-0.61-0.07-1.04-0.62-0.971-1.23l0,0l0,0l0,0
					c0.08-0.61,0.631-1.04,1.23-0.96l0,0c0.61,0.07,1.04,0.62,0.97,1.22l0,0c-0.069,0.57-0.55,0.98-1.1,0.98l0,0
					C116.67,141.14,116.62,141.14,116.58,141.13z M129.35,137.76c-0.1-0.6,0.3-1.18,0.9-1.28l0,0c0.6-0.11,1.18,0.3,1.28,0.9l0,0
					c0.1,0.6-0.301,1.17-0.9,1.28l0,0c-0.061,0.01-0.13,0.02-0.19,0.02l0,0C129.91,138.67,129.439,138.3,129.35,137.76z
					 M117.21,136.75c-0.601-0.13-0.97-0.73-0.84-1.32l0,0l0,0l0,0c0.14-0.6,0.729-0.97,1.319-0.84l0,0
					c0.601,0.14,0.971,0.73,0.841,1.32l0,0c-0.11,0.52-0.57,0.87-1.08,0.87l0,0C117.37,136.78,117.29,136.77,117.21,136.75z
					 M128.37,133.58c-0.17-0.58,0.149-1.2,0.739-1.38l0,0c0.58-0.17,1.2,0.16,1.381,0.74l0,0l0,0l0,0c0.18,0.58-0.15,1.2-0.74,1.38
					l0,0c-0.101,0.03-0.21,0.05-0.32,0.05l0,0C128.96,134.37,128.52,134.06,128.37,133.58z M118.31,132.46
					c-0.569-0.22-0.85-0.86-0.63-1.43l0,0c0.22-0.57,0.86-0.85,1.43-0.63l0,0c0.57,0.22,0.851,0.86,0.631,1.43l0,0
					c-0.171,0.44-0.591,0.71-1.03,0.71l0,0C118.58,132.54,118.439,132.51,118.31,132.46z M126.79,129.72
					c-0.3-0.53-0.11-1.21,0.42-1.51l0,0c0.53-0.3,1.21-0.11,1.51,0.42l0,0c0.3,0.54,0.11,1.21-0.43,1.51l0,0
					c-0.17,0.1-0.351,0.14-0.54,0.14l0,0C127.37,130.28,126.99,130.08,126.79,129.72z M120.14,128.43c-0.47-0.4-0.53-1.1-0.13-1.56
					l0,0l0,0l0,0c0.39-0.47,1.09-0.53,1.55-0.13l0,0c0.471,0.39,0.53,1.09,0.141,1.55l0,0c-0.221,0.26-0.54,0.4-0.851,0.4l0,0
					C120.6,128.69,120.34,128.6,120.14,128.43z M124.33,127.15L124.33,127.15c-0.58-0.21-0.88-0.84-0.67-1.41l0,0
					c0.199-0.58,0.83-0.88,1.409-0.68l0,0l0,0l0,0c0.57,0.2,0.881,0.84,0.671,1.41l0,0c-0.16,0.46-0.58,0.74-1.04,0.74l0,0
					C124.58,127.21,124.45,127.19,124.33,127.15z"/>
				<path fill="#F7F7F7" d="M189.81,100.869c0,0,21.519,4,21.519,42.144v7.107c0,38.143-21.519,42.143-21.519,42.143h-10.757
					c0,0,21.518-4,21.518-42.143v-7.107c0-38.144-21.518-42.144-21.518-42.144H189.81z"/>
				<g>
					<path fill="#BBBBBB" d="M218.999,140.403c-0.046,0-0.094-0.003-0.142-0.009c-0.603-0.078-1.029-0.629-0.951-1.232
						c1.169-9.111-3.05-19.171-3.093-19.272c-0.237-0.56,0.023-1.206,0.583-1.444c0.562-0.239,1.205,0.023,1.444,0.583
						c0.184,0.433,4.494,10.717,3.249,20.414C220.019,139.998,219.545,140.403,218.999,140.403z"/>
					<path fill="#BBBBBB" d="M223.386,140.403c-0.046,0-0.094-0.003-0.141-0.009c-0.604-0.078-1.029-0.629-0.952-1.232
						c1.165-9.094-3.05-19.172-3.093-19.272c-0.237-0.56,0.024-1.206,0.584-1.443c0.554-0.239,1.205,0.022,1.443,0.583
						c0.184,0.433,4.492,10.717,3.249,20.414C224.405,139.998,223.932,140.403,223.386,140.403z"/>
					<path fill="#BBBBBB" d="M227.772,140.403c-0.046,0-0.094-0.003-0.141-0.009c-0.604-0.078-1.029-0.629-0.952-1.232
						c1.165-9.094-3.05-19.172-3.093-19.272c-0.237-0.56,0.024-1.206,0.584-1.443c0.555-0.239,1.204,0.022,1.443,0.583
						c0.184,0.433,4.492,10.717,3.249,20.414C228.792,139.998,228.318,140.403,227.772,140.403z"/>
				</g>
				<g>
					<path fill="#BBBBBB" d="M215.827,172.335c-0.144,0-0.29-0.028-0.431-0.088c-0.56-0.238-0.82-0.884-0.583-1.443
						c0.043-0.101,4.26-10.178,3.093-19.272c-0.078-0.603,0.349-1.155,0.951-1.232c0.617-0.075,1.155,0.35,1.232,0.952
						c1.245,9.697-3.065,19.98-3.249,20.414C216.662,172.084,216.255,172.335,215.827,172.335z"/>
					<path fill="#BBBBBB" d="M220.214,172.335c-0.144,0-0.29-0.028-0.43-0.088c-0.561-0.237-0.821-0.884-0.584-1.443
						c0.043-0.101,4.258-10.178,3.093-19.272c-0.077-0.604,0.349-1.155,0.952-1.232c0.605-0.075,1.153,0.35,1.231,0.952
						c1.243,9.697-3.065,19.98-3.249,20.414C221.049,172.084,220.642,172.335,220.214,172.335z"/>
					<path fill="#BBBBBB" d="M224.601,172.335c-0.144,0-0.29-0.028-0.43-0.088c-0.561-0.237-0.821-0.884-0.584-1.443
						c0.043-0.101,4.258-10.178,3.093-19.272c-0.077-0.604,0.349-1.155,0.952-1.232c0.601-0.075,1.154,0.35,1.231,0.952
						c1.243,9.697-3.065,19.98-3.249,20.414C225.436,172.084,225.028,172.335,224.601,172.335z"/>
				</g>
			</g>
			<g>
				<path fill="#E7E8E8" d="M247.198,123.914c-3.531,17.859-29.288,33.913-63.459,38.758c-3.422,2.266-6.056,2.762-6.056,2.762
					h-10.757c0,0,0.918-0.176,2.362-0.775c-0.819,0.216-1.778,0.494-2.838,0.827c-2.084,16.002-6.739,29.703-12.961,38.944
					c12.944-8.178,22.872-11.591,27.99-12.942c-1.443,0.599-2.362,0.776-2.362,0.776h10.758c0,0,2.634-0.496,6.057-2.762
					c36.817-5.22,63.887-23.453,63.887-42.936C259.819,138.525,255.199,130.701,247.198,123.914z"/>
			</g>
		</g>
		<g>
			<path fill="#E98C91" d="M85.483,150.887H54.037c-2.387,0-4.321-1.935-4.321-4.322s1.935-4.322,4.321-4.322h31.446
				c2.387,0,4.321,1.935,4.321,4.322S87.87,150.887,85.483,150.887z"/>
			<path fill="#E98C91" d="M85.483,118.918c-1.106,0-2.212-0.422-3.056-1.266L60.192,95.415c-1.688-1.688-1.688-4.424,0-6.112
				c1.688-1.689,4.424-1.688,6.111,0l22.235,22.237c1.688,1.688,1.688,4.424,0,6.112C87.695,118.496,86.589,118.918,85.483,118.918z
				"/>
			<path fill="#E98C91" d="M63.248,205.278c-1.106,0-2.212-0.422-3.056-1.266c-1.688-1.688-1.688-4.424,0-6.112l22.235-22.237
				c1.688-1.688,4.424-1.688,6.111,0c1.688,1.688,1.688,4.424,0,6.112l-22.235,22.237C65.46,204.856,64.354,205.278,63.248,205.278z
				"/>
		</g>
	</g>
</g>
</svg>
