<?xml version="1.0" encoding="utf-8"?>
<!-- Generator: Adobe Illustrator 16.0.0, SVG Export Plug-In . SVG Version: 6.00 Build 0)  -->
<!DOCTYPE svg PUBLIC "-//W3C//DTD SVG 1.1 Tiny//EN" "http://www.w3.org/Graphics/SVG/1.1/DTD/svg11-tiny.dtd">
<svg version="1.1" baseProfile="tiny" id="Layer_1" xmlns="http://www.w3.org/2000/svg" xmlns:xlink="http://www.w3.org/1999/xlink"
	 x="0px" y="0px" width="300px" height="300px" viewBox="0 0 300 300" xml:space="preserve">
<g>
	<circle fill="#2C323A" cx="150" cy="150" r="131.6"/>
	<g>
		<path fill="#C2C3C3" d="M196.683,239.845c0,3.866-3.134,7-7,7h-48.766c-3.866,0-7-3.134-7-7V187.99c0-3.866,3.134-7,7-7h48.766
			c3.866,0,7,3.134,7,7V239.845z"/>
		<g>
			<circle fill="#E7E8E8" cx="165.525" cy="130.873" r="68.823"/>
			<path fill="#B4B9B9" d="M196.609,192.249c-9.338,4.738-19.895,7.419-31.084,7.419c-11.34,0-22.035-2.748-31.465-7.606v8.366
				c9.434,4.859,20.123,7.62,31.465,7.62c11.189,0,21.745-2.687,31.084-7.425V192.249z"/>
			<path fill="#D2D3D3" d="M165.525,76.266c30.11,0,54.606,24.497,54.606,54.607s-24.497,54.607-54.606,54.607
				s-54.606-24.497-54.606-54.607S135.416,76.266,165.525,76.266 M165.525,62.049c-38.01,0-68.823,30.814-68.823,68.824
				c0,38.01,30.813,68.824,68.823,68.824c38.011,0,68.823-30.813,68.823-68.824C234.349,92.863,203.536,62.049,165.525,62.049
				L165.525,62.049z"/>
			<circle fill="#D2D3D3" cx="165.525" cy="130.873" r="11.07"/>
			<g>
				<path fill="#F8F8F8" d="M165.525,121.258c5.87,0,10.669,4.568,11.045,10.343c0.016-0.241,0.025-0.483,0.025-0.728
					c0-6.114-4.956-11.071-11.07-11.071s-11.07,4.957-11.07,11.071c0,0.245,0.01,0.487,0.025,0.728
					C154.856,125.826,159.656,121.258,165.525,121.258z"/>
				<path fill="#A9AAAA" d="M165.525,140.487c-5.869,0-10.669-4.568-11.045-10.342c-0.016,0.241-0.025,0.483-0.025,0.728
					c0,6.114,4.956,11.071,11.07,11.071s11.07-4.957,11.07-11.071c0-0.245-0.01-0.487-0.025-0.728
					C176.194,135.919,171.396,140.487,165.525,140.487z"/>
			</g>
			<polygon fill="#A9AAAA" points="167.014,136.427 161.46,134.938 159.971,129.384 164.037,125.319 169.592,126.807 
				171.079,132.361 			"/>
			<path fill="#D2D3D3" d="M152.096,231.318c-1.933,0-3.5-1.567-3.5-3.5v-14.217c-0.102-2.101-2.254-2.101-2.962-2.101
				c-0.434,0-43.617-0.541-64.913-47.285c-0.801-1.759-0.025-3.835,1.734-4.636c1.76-0.802,3.834-0.025,4.636,1.734
				c19.45,42.694,58.154,43.188,58.542,43.188c7.309,0,9.962,5.442,9.962,9.101v14.217
				C155.596,229.751,154.029,231.318,152.096,231.318z"/>
			<circle fill="#E7E8E8" cx="81.226" cy="153.394" r="9.371"/>
		</g>
		<g>
			<path fill="#FFFFFF" d="M60.379,167.553c-0.611,0-1.222-0.233-1.688-0.7c-3.679-3.679-5.706-8.57-5.706-13.774
				c0-5.203,2.026-10.095,5.706-13.774c0.933-0.933,2.444-0.933,3.377,0s0.933,2.444,0,3.377c-2.777,2.777-4.307,6.47-4.307,10.397
				c0,3.928,1.529,7.62,4.307,10.397c0.933,0.933,0.933,2.444,0,3.377C61.601,167.32,60.99,167.553,60.379,167.553z"/>
			<path fill="#FFFFFF" d="M50.033,177.897c-0.611,0-1.222-0.233-1.688-0.7c-6.442-6.442-9.99-15.007-9.99-24.118
				c0-9.111,3.548-17.676,9.99-24.118c0.933-0.933,2.444-0.933,3.377,0s0.933,2.444,0,3.377c-5.54,5.541-8.591,12.906-8.591,20.741
				s3.051,15.201,8.591,20.741c0.933,0.933,0.933,2.444,0,3.377C51.255,177.664,50.645,177.897,50.033,177.897z"/>
		</g>
		<circle fill="#E7E8E8" cx="141.889" cy="237.191" r="2.779"/>
		<circle fill="#E7E8E8" cx="188.092" cy="237.191" r="2.779"/>
	</g>
</g>
</svg>
