<?xml version="1.0" encoding="utf-8"?>
<!-- Generator: Adobe Illustrator 16.0.0, SVG Export Plug-In . SVG Version: 6.00 Build 0)  -->
<!DOCTYPE svg PUBLIC "-//W3C//DTD SVG 1.1 Tiny//EN" "http://www.w3.org/Graphics/SVG/1.1/DTD/svg11-tiny.dtd">
<svg version="1.1" baseProfile="tiny" id="Layer_1" xmlns="http://www.w3.org/2000/svg" xmlns:xlink="http://www.w3.org/1999/xlink"
	 x="0px" y="0px" width="300px" height="300px" viewBox="0 0 300 300" xml:space="preserve">
<g>
	<circle fill="#25A7DE" cx="150" cy="150" r="131.6"/>
	<g>
		<g>
			<g>
				<rect x="65.01" y="103.217" fill="#E7E8E8" width="107.064" height="49.131"/>
				<g>
					<path fill="#393A39" d="M206.631,140.66c0,6.455-2.537,11.688-8.991,11.688H62.605c-6.456,0-10.34-5.232-10.34-11.688v-12.275
						c0-6.455,3.884-11.688,10.34-11.688H197.64c6.454,0,8.991,5.232,8.991,11.688V140.66z"/>
					<rect x="52.266" y="128.385" fill="#4F504F" width="154.365" height="12.275"/>
				</g>
				<path fill="#BDBEBF" d="M52.266,127.43c-2.682,0.295-4.775,2.795-4.775,5.835v2.515c0,3.04,2.094,5.54,4.775,5.834V127.43z"/>
				<path fill="#BDBEBF" d="M206.632,127.43c2.682,0.295,4.776,2.795,4.776,5.835v2.515c0,3.04-2.095,5.54-4.776,5.834V127.43z"/>
				<path fill="#BDBEBF" d="M44.702,137.031c-0.729,0-2.535-0.15-3.976-1.509c-0.764-0.721-1.676-2.032-1.676-4.194v-20.883h5.343
					v20.883c0,0.156,0.016,0.255,0.028,0.311c0.086,0.028,0.219,0.052,0.22,0.052l0,0l0.159-0.005h3.263v5.344h-3.21
					C44.81,137.03,44.759,137.031,44.702,137.031z"/>
				<path fill="#BDBEBF" d="M49.999,113.975c0,2.042-1.655,3.699-3.698,3.699h-3.563c-2.045,0-3.699-1.657-3.699-3.699v-7.059
					c0-2.043,1.654-3.699,3.699-3.699h3.563c2.043,0,3.698,1.656,3.698,3.699V113.975z"/>
				<rect x="74.09" y="90.429" fill="#FFFFFF" width="109.93" height="61.919"/>
				<path fill="#D2D3D3" d="M117.108,104.562H83.456c-0.744,0-1.346-0.603-1.346-1.346s0.603-1.346,1.346-1.346h33.652
					c0.744,0,1.346,0.603,1.346,1.346S117.852,104.562,117.108,104.562z"/>
				<path fill="#D2D3D3" d="M171.903,113.865H83.456c-0.744,0-1.346-0.603-1.346-1.346s0.603-1.346,1.346-1.346h88.447
					c0.744,0,1.346,0.603,1.346,1.346S172.647,113.865,171.903,113.865z"/>
				<path fill="#D2D3D3" d="M171.903,123.748H83.456c-0.744,0-1.346-0.603-1.346-1.346s0.603-1.346,1.346-1.346h88.447
					c0.744,0,1.346,0.603,1.346,1.346S172.647,123.748,171.903,123.748z"/>
				<g>
					<rect x="50.939" y="131.415" fill="#BDBEBF" width="159.021" height="1.346"/>
					<path fill="#1C1B1A" d="M84.723,133.123c0,0.822-0.665,1.488-1.487,1.488h-4.41c-0.821,0-1.487-0.666-1.487-1.488v-2.072
						c0-0.821,0.666-1.488,1.487-1.488h4.41c0.822,0,1.487,0.667,1.487,1.488V133.123z"/>
					<path fill="#1C1B1A" d="M180.481,132.184c0,0.821-0.666,1.487-1.487,1.487h-4.409c-0.822,0-1.489-0.666-1.489-1.487v-2.072
						c0-0.821,0.667-1.487,1.489-1.487h4.409c0.821,0,1.487,0.666,1.487,1.487V132.184z"/>
				</g>
				<path fill="#D2D3D3" d="M197.64,146.496H62.605c-6.456,0-10.34-5.231-10.34-11.686v5.85c0,6.455,3.884,11.688,10.34,11.688
					H197.64c6.454,0,8.991-5.232,8.991-11.688v-5.85C206.631,141.265,204.094,146.496,197.64,146.496z"/>
			</g>
			<path fill="#393A39" d="M219.633,159.348c0,5.205-4.218,9.423-9.421,9.423H139.83c-5.204,0-9.423-4.218-9.423-9.423v-14.05
				c0-5.204,4.219-9.423,9.423-9.423h70.382c5.203,0,9.421,4.219,9.421,9.423V159.348z"/>
			<g>
				<path fill="#535554" d="M106.207,162.04v59.192c0,5.202,4.218,9.422,9.422,9.422h116.024c5.203,0,9.421-4.22,9.421-9.422V162.04
					H106.207z"/>
				<path fill="#FFA300" d="M231.653,144.271h-27.279c-12.122,12.123-30.733,10.968-30.733,10.968s-18.135,1.63-30.733-10.968
					h-27.278c-5.204,0-9.422,4.219-9.422,9.423v65.38c0,5.202,4.218,9.422,9.422,9.422h116.024c5.203,0,9.421-4.22,9.421-9.422
					v-65.38C241.074,148.49,236.856,144.271,231.653,144.271z"/>
				<path fill="#FFD202" d="M231.653,134.521H200.37l7.244,7.224c-14.479,14.479-33.974,13.494-33.974,13.494
					s-21.313,1.153-33.974-13.494l7.244-7.224h-31.282c-5.204,0-9.422,4.219-9.422,9.423v65.38c0,5.203,4.218,9.422,9.422,9.422
					h116.024c5.203,0,9.421-4.219,9.421-9.422v-65.38C241.074,138.74,236.856,134.521,231.653,134.521z"/>
				<path fill="#FFBE00" d="M106.207,168.771v40.554c0,5.203,4.218,9.422,9.422,9.422h116.024c5.203,0,9.421-4.219,9.421-9.422
					v-40.554H106.207z"/>
				<rect x="115.982" y="176.634" fill="#535554" width="115.315" height="33.596"/>
				<g>
					<circle fill="#BDBEBF" cx="124.283" cy="183.981" r="3.366"/>
					<circle fill="#BDBEBF" cx="136.623" cy="183.981" r="3.365"/>
					<circle fill="#BDBEBF" cx="148.962" cy="183.981" r="3.365"/>
					<circle fill="#BDBEBF" cx="161.301" cy="183.981" r="3.366"/>
					<circle fill="#BDBEBF" cx="173.641" cy="183.981" r="3.365"/>
					<circle fill="#BDBEBF" cx="185.98" cy="183.981" r="3.366"/>
					<circle fill="#BDBEBF" cx="198.32" cy="183.981" r="3.365"/>
					<circle fill="#BDBEBF" cx="210.66" cy="183.981" r="3.365"/>
					<circle fill="#BDBEBF" cx="222.999" cy="183.981" r="3.366"/>
				</g>
				<g>
					<circle fill="#BDBEBF" cx="136.623" cy="193.432" r="3.365"/>
					<circle fill="#BDBEBF" cx="148.962" cy="193.432" r="3.365"/>
					<circle fill="#BDBEBF" cx="161.301" cy="193.432" r="3.366"/>
					<circle fill="#BDBEBF" cx="173.641" cy="193.432" r="3.365"/>
					<circle fill="#BDBEBF" cx="185.98" cy="193.432" r="3.366"/>
					<circle fill="#BDBEBF" cx="198.32" cy="193.432" r="3.365"/>
					<circle fill="#BDBEBF" cx="210.66" cy="193.432" r="3.365"/>
				</g>
				<g>
					<circle fill="#BDBEBF" cx="136.623" cy="202.883" r="3.365"/>
					<circle fill="#BDBEBF" cx="148.962" cy="202.883" r="3.365"/>
					<circle fill="#BDBEBF" cx="173.641" cy="202.883" r="3.365"/>
					<circle fill="#BDBEBF" cx="185.98" cy="202.883" r="3.366"/>
					<circle fill="#BDBEBF" cx="210.66" cy="202.883" r="3.365"/>
				</g>
				<path fill="#BDBEBF" d="M198.32,199.518h-49.358c-1.859,0-3.365,1.507-3.365,3.365s1.506,3.365,3.365,3.365h49.358
					c1.859,0,3.365-1.507,3.365-3.365S200.18,199.518,198.32,199.518z"/>
			</g>
		</g>
		<path fill="#E7E8E8" d="M221.574,117.221c-0.993,0-1.985-0.379-2.743-1.136c-1.515-1.516-1.515-3.971,0-5.486l19.482-19.482
			c1.515-1.514,3.971-1.514,5.485,0c1.515,1.516,1.515,3.971,0,5.486l-19.482,19.482
			C223.56,116.842,222.567,117.221,221.574,117.221z"/>
		<path fill="#E7E8E8" d="M209.021,108.039c-2.142,0-3.879-1.736-3.879-3.879V90.585c0-2.143,1.737-3.879,3.879-3.879
			s3.879,1.736,3.879,3.879v13.575C212.899,106.303,211.163,108.039,209.021,108.039z"/>
		<path fill="#E7E8E8" d="M247.862,128.4h-13.576c-2.142,0-3.879-1.736-3.879-3.879s1.737-3.879,3.879-3.879h13.576
			c2.142,0,3.879,1.736,3.879,3.879S250.004,128.4,247.862,128.4z"/>
	</g>
</g>
</svg>
