<?xml version="1.0" encoding="utf-8"?>
<!-- Generator: Adobe Illustrator 16.0.0, SVG Export Plug-In . SVG Version: 6.00 Build 0)  -->
<!DOCTYPE svg PUBLIC "-//W3C//DTD SVG 1.1 Tiny//EN" "http://www.w3.org/Graphics/SVG/1.1/DTD/svg11-tiny.dtd">
<svg version="1.1" baseProfile="tiny" id="Layer_1" xmlns="http://www.w3.org/2000/svg" xmlns:xlink="http://www.w3.org/1999/xlink"
	 x="0px" y="0px" width="300px" height="300px" viewBox="0 0 300 300" xml:space="preserve">
<g>
	<circle fill="#FFD202" cx="150" cy="150" r="131.6"/>
	<g>
		<path fill="#393A39" d="M201.786,159.121c0,5.367-4.35,9.717-9.716,9.717h-72.58c-5.367,0-9.718-4.35-9.718-9.717v-14.489
			c0-5.366,4.351-9.717,9.718-9.717h72.58c5.366,0,9.716,4.351,9.716,9.717V159.121z"/>
		<g>
			<path fill="#393A39" d="M233.951,139.85c0,6.656-2.616,12.052-9.272,12.052H85.426c-6.657,0-10.663-5.396-10.663-12.052V127.19
				c0-6.657,4.006-12.053,10.663-12.053h139.253c6.656,0,9.272,5.396,9.272,12.053V139.85z"/>
			<rect x="74.763" y="127.19" fill="#4F504F" width="159.188" height="12.659"/>
		</g>
		<g>
			<path fill="#535554" d="M84.816,161.897v61.042c0,5.365,4.35,9.717,9.716,9.717h119.649c5.366,0,9.716-4.352,9.716-9.717v-61.042
				H84.816z"/>
			<path fill="#0088D2" d="M214.182,143.573h-28.131c-12.501,12.502-31.694,11.311-31.694,11.311s-18.701,1.681-31.693-11.311
				H94.532c-5.366,0-9.716,4.351-9.716,9.718v67.422c0,5.365,4.35,9.717,9.716,9.717h119.649c5.366,0,9.716-4.352,9.716-9.717
				v-67.422C223.897,147.924,219.548,143.573,214.182,143.573z"/>
			<path fill="#57C5E1" d="M214.182,133.52h-32.26l7.47,7.449c-14.932,14.931-35.035,13.916-35.035,13.916
				s-21.979,1.189-35.034-13.916l7.47-7.449h-32.26c-5.366,0-9.716,4.35-9.716,9.717v67.422c0,5.366,4.35,9.717,9.716,9.717h119.649
				c5.366,0,9.716-4.352,9.716-9.717v-67.422C223.897,137.87,219.548,133.52,214.182,133.52z"/>
			<path fill="#38A5DC" d="M84.816,168.838v41.82c0,5.366,4.35,9.717,9.716,9.717h119.649c5.366,0,9.716-4.352,9.716-9.717v-41.82
				H84.816z"/>
			<rect x="94.897" y="176.947" fill="#535554" width="118.918" height="34.645"/>
			<g>
				<circle fill="#BDBEBF" cx="103.457" cy="184.524" r="3.471"/>
				<circle fill="#BDBEBF" cx="116.182" cy="184.524" r="3.47"/>
				<circle fill="#BDBEBF" cx="128.907" cy="184.524" r="3.47"/>
				<circle fill="#BDBEBF" cx="141.632" cy="184.524" r="3.471"/>
				<circle fill="#BDBEBF" cx="154.357" cy="184.524" r="3.47"/>
				<circle fill="#BDBEBF" cx="167.082" cy="184.524" r="3.471"/>
				<circle fill="#BDBEBF" cx="179.808" cy="184.524" r="3.471"/>
				<circle fill="#BDBEBF" cx="192.532" cy="184.524" r="3.47"/>
				<circle fill="#BDBEBF" cx="205.257" cy="184.524" r="3.471"/>
			</g>
			<g>
				<circle fill="#BDBEBF" cx="116.182" cy="194.27" r="3.47"/>
				<circle fill="#BDBEBF" cx="128.907" cy="194.27" r="3.47"/>
				<circle fill="#BDBEBF" cx="141.632" cy="194.27" r="3.471"/>
				<circle fill="#BDBEBF" cx="154.357" cy="194.27" r="3.47"/>
				<circle fill="#BDBEBF" cx="167.082" cy="194.27" r="3.471"/>
				<circle fill="#BDBEBF" cx="179.808" cy="194.27" r="3.471"/>
				<circle fill="#BDBEBF" cx="192.532" cy="194.27" r="3.47"/>
			</g>
			<g>
				<circle fill="#BDBEBF" cx="116.182" cy="204.016" r="3.47"/>
				<circle fill="#BDBEBF" cx="128.907" cy="204.016" r="3.47"/>
				<circle fill="#BDBEBF" cx="154.357" cy="204.016" r="3.47"/>
				<circle fill="#BDBEBF" cx="167.082" cy="204.016" r="3.471"/>
				<circle fill="#BDBEBF" cx="192.532" cy="204.016" r="3.47"/>
			</g>
			<path fill="#BDBEBF" d="M179.808,200.546h-50.9c-1.918,0-3.471,1.554-3.471,3.47c0,1.917,1.553,3.471,3.471,3.471h50.9
				c1.917,0,3.471-1.554,3.471-3.471C183.278,202.1,181.725,200.546,179.808,200.546z"/>
		</g>
		<path fill="#BDBEBF" d="M74.763,126.206c-2.766,0.304-4.925,2.882-4.925,6.018v2.592c0,3.136,2.159,5.714,4.925,6.017V126.206z"/>
		<path fill="#BDBEBF" d="M233.952,126.206c2.766,0.304,4.926,2.882,4.926,6.018v2.592c0,3.136-2.16,5.714-4.926,6.017V126.206z"/>
		<path fill="#BDBEBF" d="M66.962,136.106c-0.752,0-2.613-0.155-4.1-1.556c-0.788-0.743-1.728-2.096-1.728-4.325V108.69h5.51v21.535
			c0,0.161,0.016,0.263,0.029,0.32c0.08,0.028,0.208,0.05,0.297,0.051l3.459-0.002v5.51h-3.311
			C67.074,136.105,67.021,136.106,66.962,136.106z"/>
		<path fill="#BDBEBF" d="M72.426,112.331c0,2.105-1.707,3.814-3.814,3.814h-3.675c-2.108,0-3.814-1.709-3.814-3.814v-7.28
			c0-2.106,1.706-3.815,3.814-3.815h3.675c2.107,0,3.814,1.708,3.814,3.815V112.331z"/>
		<rect x="97.269" y="88.049" fill="#FFFFFF" width="113.364" height="45.562"/>
		<path fill="#D2D3D3" d="M141.632,102.624h-34.704c-0.767,0-1.388-0.622-1.388-1.388s0.621-1.388,1.388-1.388h34.704
			c0.767,0,1.388,0.622,1.388,1.388S142.398,102.624,141.632,102.624z"/>
		<path fill="#D2D3D3" d="M198.139,112.218h-91.211c-0.767,0-1.388-0.622-1.388-1.388s0.621-1.388,1.388-1.388h91.211
			c0.767,0,1.388,0.622,1.388,1.388S198.905,112.218,198.139,112.218z"/>
		<path fill="#D2D3D3" d="M198.139,122.409h-91.211c-0.767,0-1.388-0.622-1.388-1.388s0.621-1.388,1.388-1.388h91.211
			c0.767,0,1.388,0.622,1.388,1.388S198.905,122.409,198.139,122.409z"/>
		<g>
			<rect x="73.396" y="130.315" fill="#BDBEBF" width="163.988" height="1.388"/>
			<path fill="#1C1B1A" d="M108.234,132.077c0,0.848-0.687,1.535-1.534,1.535h-4.548c-0.847,0-1.534-0.687-1.534-1.535v-2.136
				c0-0.848,0.688-1.535,1.534-1.535h4.548c0.848,0,1.534,0.688,1.534,1.535V132.077z"/>
			<path fill="#1C1B1A" d="M206.984,131.107c0,0.848-0.687,1.534-1.533,1.534h-4.548c-0.848,0-1.535-0.687-1.535-1.534v-2.136
				c0-0.847,0.688-1.534,1.535-1.534h4.548c0.847,0,1.533,0.687,1.533,1.534V131.107z"/>
		</g>
	</g>
</g>
</svg>
