<?xml version="1.0" encoding="utf-8"?>
<!-- Generator: Adobe Illustrator 17.0.0, SVG Export Plug-In . SVG Version: 6.00 Build 0)  -->
<!DOCTYPE svg PUBLIC "-//W3C//DTD SVG 1.1//EN" "http://www.w3.org/Graphics/SVG/1.1/DTD/svg11.dtd">
<svg version="1.1" id="Layer_1" xmlns="http://www.w3.org/2000/svg" xmlns:xlink="http://www.w3.org/1999/xlink" x="0px" y="0px"
	 width="512px" height="512px" viewBox="0 0 512 512" enable-background="new 0 0 512 512" xml:space="preserve">
<g>
	<path fill="#D71F2A" d="M256,31C131.747,31,31,131.747,31,256s100.747,225,225,225s225-100.747,225-225S380.253,31,256,31z"/>
	<g>
		<path fill="#E6E6E6" d="M373.552,316.433c6.289,0,11.405,5.123,11.405,11.412c0,6.296-5.116,11.412-11.405,11.412
			c-6.296,0-11.412-5.116-11.412-11.412C362.14,321.556,367.256,316.433,373.552,316.433z"/>
		<path fill="#E6E6E6" d="M145.781,316.433c6.289,0,11.412,5.123,11.412,11.412c0,6.296-5.123,11.412-11.412,11.412
			c-6.296,0-11.412-5.116-11.412-11.412C134.369,321.556,139.485,316.433,145.781,316.433z"/>
		<path d="M122.318,312.901c4.939-7.738,13.601-12.876,23.464-12.876c15.363,0,27.819,12.457,27.819,27.819
			c0,0.611-0.021,1.215-0.057,1.812c-0.938,14.517-13.011,26.007-27.763,26.007s-26.825-11.49-27.763-26.007
			c-0.036-0.597-0.057-1.201-0.057-1.812C117.962,322.345,119.561,317.215,122.318,312.901z M157.193,327.845
			c0-6.289-5.123-11.412-11.412-11.412c-6.296,0-11.412,5.123-11.412,11.412c0,6.296,5.116,11.412,11.412,11.412
			C152.07,339.257,157.193,334.141,157.193,327.845z"/>
		<path d="M397.016,312.901c2.75,4.313,4.349,9.444,4.349,14.944c0,0.604-0.021,1.208-0.057,1.805
			c-0.931,14.524-12.997,26.014-27.755,26.014s-26.832-11.49-27.763-26.014c-0.036-0.597-0.057-1.201-0.057-1.805
			c0-15.363,12.457-27.819,27.819-27.819C383.415,300.026,392.077,305.163,397.016,312.901z M384.957,327.845
			c0-6.289-5.116-11.412-11.405-11.412c-6.296,0-11.412,5.123-11.412,11.412c0,6.296,5.116,11.412,11.412,11.412
			C379.841,339.257,384.957,334.141,384.957,327.845z"/>
		<path fill="#CCCCCC" d="M111.566,327.845c0,0.583,0.014,1.172,0.043,1.812H97.127c-4.626,0-8.378-3.752-8.378-8.378
			c0-2.309,0.938-4.406,2.452-5.926c1.521-1.514,3.617-2.452,5.926-2.452h17.878C112.746,317.534,111.566,322.629,111.566,327.845z"
			/>
		<path fill="#CCCCCC" d="M431.365,321.272v0.007c0,4.619-3.745,8.371-8.371,8.371H407.71c0.036-0.632,0.05-1.222,0.05-1.805
			c0-5.209-1.172-10.303-3.425-14.944h18.66C427.621,312.901,431.365,316.653,431.365,321.272z"/>
		<path fill="#E6E6E6" d="M410.893,258.904l-22.696-5.543l-23.719-58.552h-64.855V329.65h39.764c-0.036-0.64-0.05-1.222-0.05-1.805
			c0-18.866,15.349-34.215,34.215-34.215c11.739,0,22.526,5.919,28.857,15.832c0.711,1.116,1.357,2.26,1.926,3.439h18.66v-38.578
			C422.995,267.005,417.999,260.638,410.893,258.904z M315.355,254.733v-44.184h38.521l17.9,44.184H315.355z"/>
		<path fill="#E6E6E6" d="M96.609,162.968v149.934h18.397c0.568-1.18,1.215-2.331,1.926-3.446
			c6.324-9.906,17.111-15.825,28.85-15.825c18.866,0,34.215,15.349,34.215,34.215c0,0.59-0.014,1.187-0.05,1.812h119.677V162.968
			H96.609z M235.066,233.955H212.96v22.099h-29.695v-22.099h-22.099V204.26h22.099v-22.106h29.695v22.106h22.106L235.066,233.955
			L235.066,233.955z"/>
		<path fill="#F4581B" d="M341.884,167.732l2.506,27.077h-22.739l2.5-27.076c0.138-1.492,1.389-2.633,2.888-2.633h11.957
			C340.494,165.1,341.746,166.241,341.884,167.732z"/>
		<polygon fill="#76CDCE" points="353.876,210.549 371.776,254.733 315.355,254.733 315.355,210.549 		"/>
		<polygon fill="#F4581B" points="235.066,204.26 235.066,233.955 212.96,233.955 212.96,256.055 183.265,256.055 183.265,233.955 
			161.165,233.955 161.165,204.26 183.265,204.26 183.265,182.154 212.96,182.154 212.96,204.26 		"/>
		<rect x="299.623" y="194.809" fill="#CCCCCC" width="6.603" height="134.841"/>
		<rect x="96.609" y="278.459" fill="#F4581B" width="326.386" height="11.838"/>
		<rect x="299.623" y="278.459" fill="#DB481B" width="6.601" height="11.838"/>
		<polygon fill="#96E0DE" points="315.355,210.549 359.904,254.733 371.776,254.733 353.876,210.549 		"/>
		<path fill="#F7CF52" d="M411.867,297.24h-5.081c-3.081,0-5.578-2.498-5.578-5.578v-12.968c0-3.081,2.498-5.578,5.578-5.578h5.081
			V297.24z"/>
	</g>
</g>
</svg>
