<?xml version="1.0" encoding="utf-8"?>
<!-- Generator: Adobe Illustrator 17.0.0, SVG Export Plug-In . SVG Version: 6.00 Build 0)  -->
<!DOCTYPE svg PUBLIC "-//W3C//DTD SVG 1.1//EN" "http://www.w3.org/Graphics/SVG/1.1/DTD/svg11.dtd">
<svg version="1.1" id="Layer_1" xmlns="http://www.w3.org/2000/svg" xmlns:xlink="http://www.w3.org/1999/xlink" x="0px" y="0px"
	 width="512px" height="512px" viewBox="0 0 512 512" enable-background="new 0 0 512 512" xml:space="preserve">
<g>
	<path fill="#163A6C" d="M256,31C131.747,31,31,131.747,31,256s100.747,225,225,225s225-100.747,225-225S380.253,31,256,31z"/>
	<g>
		<path id="XMLID_9_" fill="#FFD400" d="M375.053,196.117c-1.506-0.161-2.938,0.717-3.477,2.132
			c-9.523,24.89-26.723,37.771-42.1,47.893c-3.241,2.133-6.524,4.208-9.814,6.287c-2.44,1.544-4.885,3.088-7.313,4.657
			c-0.76,0.461-1.151,1.072-1.381,1.822c-1.36,4.403,1.687,9.727,3.059,11.811c1.372,2.085,5.057,6.983,9.635,7.474
			c0.781,0.082,1.436-0.13,2.22-0.548c1.593-1.068,3.158-2.147,4.73-3.223c0.363,0.878,0.781,1.738,1.317,2.553
			c6.224,9.456,21.534,9.994,34.859,1.223c12.027-7.916,17.7-20.303,14.124-29.597c6.762-1.496,14.192-2.308,22.48-2.084
			c0.704,0.018,1.373-0.184,1.93-0.55c0.63-0.415,1.12-1.042,1.355-1.803c2.599-8.378-2.6-20.663-8.332-29.37
			C391.16,203.884,382.455,196.901,375.053,196.117z M362.744,272.054c-9.549,6.285-20.847,6.687-24.671,0.877
			c-0.561-0.852-0.914-1.805-1.113-2.82c2.065-1.412,4.13-2.837,6.212-4.207c8.674-5.709,18.481-11.602,30.565-15.378
			C376.686,256.433,371.884,266.038,362.744,272.054z"/>
		<g>
			<rect x="223.438" y="111.503" fill="#FC5A29" width="7.667" height="233.157"/>
			<path fill="#76DECB" d="M231.435,174.068c34.169,37.735,61.195,79.756,70.512,132.401H198.461
				C221.876,295.96,250.803,246.631,231.435,174.068z"/>
			<path fill="#21A58D" d="M223.438,111.503C170.1,169.267,123.564,231.02,116.167,315.712h161.081
				C240.797,301.235,193.284,211.466,223.438,111.503z"/>
			<path fill="#F9AF46" d="M94.426,329.134h264.57l-1.483,23.17C309.002,417.605,138.338,415.945,94.426,329.134z"/>
			<polygon fill="#FC5A29" points="231.105,114.675 279.056,128.459 231.105,139.141 			"/>
		</g>
		<path fill="#FFD400" d="M409.761,207.502c-0.948,0.46-2.09,0.065-2.55-0.883l0,0c-0.46-0.948-0.065-2.09,0.883-2.55l15.613-7.578
			c0.948-0.46,2.09-0.065,2.55,0.883l0,0c0.46,0.948,0.065,2.09-0.883,2.55L409.761,207.502z"/>
		<path fill="#FFD400" d="M399.391,197.78c-0.517,0.918-1.68,1.244-2.598,0.727l0,0c-0.918-0.517-1.244-1.68-0.727-2.598
			l8.51-15.125c0.517-0.918,1.68-1.244,2.599-0.727l0,0c0.918,0.517,1.244,1.68,0.727,2.598L399.391,197.78z"/>
		<path fill="#FFD400" d="M410.842,219.103c-1.016-0.281-2.067,0.314-2.348,1.329l0,0c-0.281,1.016,0.314,2.067,1.329,2.348
			l16.724,4.634c1.016,0.281,2.067-0.314,2.348-1.329l0,0c0.281-1.016-0.314-2.067-1.329-2.348L410.842,219.103z"/>
	</g>
</g>
</svg>
