<?xml version="1.0" encoding="utf-8"?>
<!-- Generator: Adobe Illustrator 17.0.0, SVG Export Plug-In . SVG Version: 6.00 Build 0)  -->
<!DOCTYPE svg PUBLIC "-//W3C//DTD SVG 1.1//EN" "http://www.w3.org/Graphics/SVG/1.1/DTD/svg11.dtd">
<svg version="1.1" id="Layer_1" xmlns="http://www.w3.org/2000/svg" xmlns:xlink="http://www.w3.org/1999/xlink" x="0px" y="0px"
	 width="512px" height="512px" viewBox="0 0 512 512" enable-background="new 0 0 512 512" xml:space="preserve">
<g>
	<path fill="#163A6C" d="M256,31C131.747,31,31,131.747,31,256s100.747,225,225,225s225-100.747,225-225S380.253,31,256,31z"/>
	<g>
		<path fill="#E95353" d="M386.9,297.955c-0.395-7.995-3.366-15.654-8.248-22.009c-11.009-14.333-13.155-25.712-13.155-25.712
			c-8.644-22.648-16.328-37.739-21.975-47.317c-5.942-10.058-16.218-16.833-27.808-18.322c-23.305-3.013-96.14-3.013-119.445,0
			c-11.581,1.498-21.857,8.273-27.799,18.322c-5.648,9.578-13.323,24.668-21.975,47.317c0,0-2.146,11.379-13.155,25.712
			c-4.873,6.354-7.853,14.013-8.239,22.009c-0.833,17.346,4.192,21.159,8.686,60.413c0.354,3.089,2.962,5.412,6.077,5.412h232.283
			c3.114,0,5.723-2.332,6.077-5.412c1.262-11.009,5.008-33.337,5.008-33.337C386.512,313.929,387.228,304.882,386.9,297.955z"/>
		<path fill="#168DE2" d="M360.606,249.326c-6.817-17.06-13.769-31.957-20.687-43.832c-5.243-8.98-14.493-15.25-24.727-16.622
			c-23.356-3.097-95.189-3.072-118.376,0c-10.234,1.372-19.484,7.642-24.728,16.622c-7.011,12.027-14.055,27.126-20.771,43.832
			C220.971,254.804,290.944,254.804,360.606,249.326z"/>
		<path fill="#FFFFFF" d="M350.717,269.053c-2.66,0.833-5.134,2.003-7.204,3.165c-3.771,2.104-7.642,4.065-11.682,5.597
			c-6.699,2.542-7.836,6.338-7.836,6.338c-0.202,0.261-0.395,0.522-0.581,0.791c-5.083,7.549,1.59,17.599,10.605,16.319
			c13.037-1.843,23.776-5.622,29.23-7.81c3.122-1.254,5.563-3.863,6.363-7.137c0.076-0.311,0.143-0.623,0.202-0.926
			C371.817,274.583,361.212,265.78,350.717,269.053z"/>
		<path fill="#FFE21F" d="M364.647,329.542h-14.502c-2.18,0-3.274,2.634-1.734,4.183l14.502,14.502
			c1.54,1.54,4.183,0.446,4.183-1.734v-14.502C367.095,330.636,366.001,329.542,364.647,329.542z"/>
		<path d="M378.222,358.351c-0.354,3.097-2.971,5.428-6.085,5.428h-27.9v16.193c0,5.732,4.646,10.386,10.386,10.386h17.523
			c5.732,0,10.386-4.646,10.386-10.386V329.28C381.378,336.3,379.14,350.33,378.222,358.351z"/>
		<path fill="#ED6262" d="M390.46,237.989c-0.842-3.771-4.385-6.329-8.248-6.329h-7.003c-4.486,0-8.122,3.636-8.122,8.122v4.991
			h-3.712l2.129,5.058h8.164c4.225,0,8.408-0.909,12.246-2.668C389.374,245.58,391.31,241.793,390.46,237.989z"/>
		<circle fill="#FFBD49" cx="355.313" cy="282.133" r="10.209"/>
		<circle fill="#FFDB6F" cx="334.777" cy="290.187" r="7.499"/>
		<polygon fill="#6F6F6F" points="315.344,290.196 303.619,310.613 208.38,310.613 196.656,290.196 		"/>
		<path fill="#FFFFFF" d="M188.577,284.944c-0.177-0.269-0.37-0.53-0.581-0.791c0,0-1.136-3.796-7.836-6.338
			c-4.04-1.532-7.903-3.493-11.682-5.597c-2.079-1.161-4.545-2.332-7.204-3.165c-10.487-3.282-21.1,5.529-19.105,16.336
			c0.059,0.311,0.126,0.615,0.194,0.926c0.8,3.274,3.24,5.883,6.363,7.137c5.454,2.188,16.193,5.967,29.239,7.81
			C186.985,302.542,193.66,292.493,188.577,284.944z"/>
		<path fill="#FFE21F" d="M161.854,329.542h-14.502c-1.355,0-2.449,1.094-2.449,2.449v14.502c0,2.18,2.643,3.274,4.183,1.734
			l14.502-14.502C165.128,332.185,164.034,329.542,161.854,329.542z"/>
		<path fill="#777777" d="M352.552,354.85c-15.099-26.124-32.462-25.308-32.462-25.308H191.901c0,0-17.354-0.816-32.462,25.308
			H133.34l0.32,3.367c0.295,3.165,2.937,5.563,6.102,5.563h232.477c3.165,0,5.807-2.399,6.102-5.563l0.32-3.366L352.552,354.85
			L352.552,354.85z"/>
		<path d="M139.862,363.788c-3.114,0-5.732-2.34-6.085-5.428c-0.917-8.021-3.165-22.059-4.309-29.07v50.692
			c0,5.732,4.646,10.386,10.386,10.386h17.523c5.732,0,10.386-4.646,10.386-10.386v-16.193L139.862,363.788L139.862,363.788z"/>
		<path fill="#ED6262" d="M144.904,244.772v-4.991c0-4.486-3.636-8.122-8.114-8.122h-7.002c-3.863,0-7.406,2.559-8.248,6.329
			c-0.85,3.796,1.094,7.592,4.545,9.165c3.846,1.759,8.021,2.668,12.246,2.668h8.164l2.129-5.058h-3.72
			C144.904,244.764,144.904,244.772,144.904,244.772z"/>
		<circle fill="#FFBD49" cx="156.678" cy="282.133" r="10.209"/>
		<circle fill="#FFDB6F" cx="177.231" cy="290.187" r="7.499"/>
		<g>
			<path fill="#6F6F6F" d="M310.277,336.687H201.723c-1.7,0-3.072,1.38-3.072,3.072c0,1.7,1.372,3.072,3.072,3.072h108.546
				c1.7,0,3.072-1.38,3.072-3.072C313.349,338.059,311.968,336.687,310.277,336.687z"/>
			<path fill="#6F6F6F" d="M310.277,348.95H201.723c-1.7,0-3.072,1.38-3.072,3.072c0,1.7,1.372,3.072,3.072,3.072h108.546
				c1.7,0,3.072-1.38,3.072-3.072C313.349,350.322,311.968,348.95,310.277,348.95z"/>
		</g>
		<path fill="#3AA2EB" d="M349.228,223.302v1.052c0,4.233-3.476,7.625-7.794,7.449c-3.981-0.252-7.028-3.812-7.028-7.878v-15.099
			c0-3.56-2.962-6.27-6.523-6.178c-0.084,0-0.084,0-0.168,0c0,0,0,0-0.084,0c-3.56-0.084-6.523,2.626-6.523,6.178v13.66
			c0,4.233-3.644,7.625-7.878,7.364c-3.981-0.168-7.028-3.812-7.028-7.794v-11.876c0-3.56-2.962-6.523-6.607-6.523h-0.505
			c-3.392,0-6.186,2.794-6.186,6.186v15.444c0,4.233-3.56,7.617-7.878,7.449c-3.981-0.252-6.943-3.812-6.943-7.878v-20.705
			c0-3.299-2.878-6.093-6.27-5.841h-0.505c-3.476,0-6.262,2.794-6.262,6.186v21.167c0,4.065-3.299,7.449-7.449,7.449
			c-3.981,0-7.28-3.215-7.364-7.196v-17.767c0-4.065-3.046-7.617-7.028-7.878c-4.317-0.168-7.794,3.215-7.794,7.449l-0.084,16.412
			c0,4.233-3.467,7.617-7.794,7.449c-3.905-0.244-6.868-3.678-6.986-7.566v-19.258c0-3.998-3.005-7.575-7.003-7.81
			c-4.284-0.185-7.819,3.19-7.819,7.432v20.174c-0.118,4.132-3.585,7.423-7.836,7.255c-3.981-0.252-6.943-3.812-6.943-7.878v-15.108
			c0-3.56-3.046-6.27-6.607-6.178c-0.084,0-0.084,0-0.084,0c-0.084,0-0.084,0-0.084,0c-3.644-0.084-6.607,2.626-6.607,6.178v13.66
			c0,4.233-3.56,7.625-7.794,7.364c-3.687-0.143-6.43-3.223-6.901-6.792c-3.914,8.105-7.794,16.883-11.564,26.259
			c69.654,5.488,139.636,5.488,209.289,0C356.844,239.916,353.04,231.247,349.228,223.302z"/>
	</g>
	<g>
		<path fill="#FFD400" d="M227.345,124.66l-7.197,0.869l3.803,21.01l7.197-0.869c24.154-4.372,46.611,4.335,63.228,22.401
			l-15.668-86.555C269.479,104.261,251.499,120.288,227.345,124.66z"/>
		<path fill="#FFFFFF" d="M220.339,126.582l-9.435,1.708c-1.315,0.238-2.663-0.111-3.705-0.948
			c-4.503-3.616-10.79-4.949-16.922-2.644c-6.448,2.424-10.891,8.732-10.979,15.62c-0.143,11.185,9.787,19.154,20.214,17.266
			c5.087-0.921,9.239-3.999,11.688-8.119c0.684-1.15,1.824-1.952,3.14-2.19l9.435-1.708L220.339,126.582L220.339,126.582z"/>
		<ellipse transform="matrix(-0.1781 -0.984 0.984 -0.1781 214.7893 428.9846)" cx="286.545" cy="124.793" rx="43.979" ry="4.796"/>
		<path d="M221.69,124.553l-5.896,1.067c-0.905,0.164-1.505,1.03-1.342,1.935l3.469,19.164c0.164,0.905,1.03,1.505,1.935,1.342
			l5.896-1.067c0.905-0.164,1.505-1.03,1.342-1.935l-3.469-19.164C223.461,124.99,222.595,124.389,221.69,124.553z"/>
		<g>
			<path fill="#64798A" d="M192.997,128.092c-1.609,0.291-2.835,0.962-2.738,1.498c0.097,0.536,1.48,0.735,3.089,0.444
				c1.609-0.291,2.835-0.962,2.738-1.499C195.989,127.999,194.606,127.8,192.997,128.092z"/>
			<path fill="#64798A" d="M185.15,144.786c-1.609,0.291-2.835,0.962-2.738,1.498c0.097,0.536,1.48,0.735,3.089,0.444
				c1.609-0.291,2.835-0.962,2.738-1.499C188.142,144.694,186.759,144.495,185.15,144.786z"/>
			<path fill="#64798A" d="M192.819,136.72c-1.819,0.329-3.204,1.087-3.094,1.694c0.11,0.606,1.673,0.831,3.491,0.502
				c1.819-0.329,3.204-1.088,3.094-1.694C196.201,136.615,194.638,136.391,192.819,136.72z"/>
		</g>
		<path fill="#FFD400" d="M306.685,119.046c-1.432,0.09-2.666-0.998-2.755-2.43l0,0c-0.09-1.432,0.998-2.666,2.43-2.755l23.583-1.48
			c1.432-0.09,2.666,0.998,2.755,2.43l0,0c0.09,1.432-0.998,2.666-2.43,2.755L306.685,119.046z"/>
		<path fill="#FFD400" d="M298.644,101.441c-1.125,0.89-2.759,0.699-3.649-0.426l0,0c-0.89-1.125-0.699-2.759,0.426-3.649
			l18.534-14.657c1.125-0.89,2.759-0.699,3.649,0.426l0,0c0.89,1.125,0.699,2.759-0.426,3.649L298.644,101.441z"/>
		<path fill="#FFD400" d="M302.053,134.219c-1.134-0.879-2.766-0.673-3.645,0.461l0,0c-0.879,1.134-0.673,2.766,0.461,3.645
			l18.674,14.478c1.134,0.879,2.766,0.673,3.645-0.461l0,0c0.879-1.134,0.673-2.766-0.461-3.645L302.053,134.219z"/>
	</g>
</g>
</svg>
