<?xml version="1.0" encoding="utf-8"?>
<!-- Generator: Adobe Illustrator 17.0.0, SVG Export Plug-In . SVG Version: 6.00 Build 0)  -->
<!DOCTYPE svg PUBLIC "-//W3C//DTD SVG 1.1//EN" "http://www.w3.org/Graphics/SVG/1.1/DTD/svg11.dtd">
<svg version="1.1" id="Layer_1" xmlns="http://www.w3.org/2000/svg" xmlns:xlink="http://www.w3.org/1999/xlink" x="0px" y="0px"
	 width="512px" height="512px" viewBox="0 0 512 512" enable-background="new 0 0 512 512" xml:space="preserve">
<g>
	<path fill="#163A6C" d="M256,31C131.747,31,31,131.747,31,256s100.747,225,225,225s225-100.747,225-225S380.253,31,256,31z"/>
	<g>
		<path fill="#966642" d="M301.852,354.689l7.175,41.2c0,0,20.6,3.472,28.701-0.232c0,0,2.315,0.232,1.62-2.546
			c0,0-2.031-6.102-9.669-6.796c0,0-3.292-1.073-2.598-7.786c0,0,12.036-49.532,11.804-68.049l-1.389-4.629
			C337.497,305.851,294.214,329.923,301.852,354.689z"/>
		<path fill="#B77F55" d="M327.097,380.958c0,0-14.092-0.606-16.388,12.147l-1.682,2.783c0,0,15.71,3.338,27.698,0.023
			c0,0,4.591,0.255,2.806-4.336c0,0-1.49-6.433-9.672-5.64C329.859,385.935,327.192,386.506,327.097,380.958z"/>
		<path fill="#A87144" d="M350.457,260.39c0,0-0.617-13.888-4.938-23.455c0,0-1.405-13.507,4.15-23.073
			c0,0-74.273-40.822-80.599-39.279c0,0-4.716,18.221,2.074,37.664c0,0,1.697,20.06-14.505,28.624c0,0-49.686,23.377-54.624,28.932
			c0,0-41.971,28.238-38.576,68.358c0,0,2.206,52.288,48.498,60.621l45.401-1.53c0,0,0.51-15.304-24.996-26.016
			c0,0,20.379-2.931,29.848-4.805c2.175,5.008,3.815,10.102,3.264,13.227l19.443-0.463l-1.323-18.087
			c13.338-4.095,27.342-10.08,36.64-18.625C320.213,342.48,353.852,308.533,350.457,260.39z"/>
		<path fill="#B77F55" d="M265.454,379.655l-0.463,10.184c0,0-4.262,4.804-1.022,10.822l1.253,0.057l22.914,0.463
			c0,0,4.166-7.407-1.157-11.804l-2.083-10.184C284.896,379.193,268.926,373.406,265.454,379.655z"/>
		<path fill="#B77F55" d="M211.018,395.567c1.46-0.794,26.232-21.911,44.44-12.345c0,0,8.256,4.845,5.864,14.196l-0.159,1.872
			l-50.087-0.255C211.076,399.036,207.633,397.41,211.018,395.567z"/>
		<g>
			<path fill="#E2B796" d="M344.266,132.013c0.694-0.232,20.6-17.591,23.609-18.054l1.389,1.852c0,0-6.712,30.553-11.11,34.95
				l-12.962-12.73L344.266,132.013z"/>
			<polygon fill="#E2B796" points="255.743,118.979 249.622,122.04 263.395,165.655 279.081,132.752 			"/>
			<path fill="#A87144" d="M279.226,130.007c21.151-4.307,49.031-10.771,66.056,2.498c11.379,8.869,16.624,23.291,21.325,36.931
				c3.561,10.33,9.419,21.076,2.957,29.888c-8.417,11.478-26.87,24.592-36.665,27.291c-9.795,2.699-12.735-2.022-22.828-3.188
				c-14.962-1.729-22.99-7.016-35.301-15.694c-12.311-8.678-20.786-24.35-16.949-38.915c1.472-5.587,4.579-10.581,7.644-15.479
				c2.927-4.677,4.815-8.157,6.353-13.456C273.039,135.681,273.98,133.711,279.226,130.007"/>
			<path fill="#A87144" d="M333.664,127.906c0,0,19.397-14.641,31.896-15.798c0,0,3.703-0.463,4.398,1.852
				c0,0-20.853,14.182-22.01,22.746C347.948,136.706,334.359,135.544,333.664,127.906z"/>
			<path fill="#A87144" d="M360.063,153.157c0,0,11.515-34.337,9.895-39.198l-2.083,1.852c0,0-3.241,25.692-9.953,31.71
				C357.922,147.521,354.74,152.694,360.063,153.157z"/>
			<path fill="#A87144" d="M275.043,137.656c0,0-13.656-15.508-20.831-15.276c0,0-2.546,0-2.315,2.546l10.647,34.024l-1.389,2.546
				l-12.499-37.728c0,0-2.546-12.036,9.49-8.333c0,0,20.323,8.668,24.952,15.149C283.099,130.584,276.664,136.961,275.043,137.656z"
				/>
			<g>
				<path fill="#E9E9F4" d="M290.054,166.076c0.372-0.539,6.327-12.605,17.915-3.896c0,0,5.676,5.317,5.689,9.471
					c0,0-9.363,13.159-23.339-1.545l-1.723-1.921L290.054,166.076z"/>
				<path fill="#543229" d="M301.78,159.315c0,0-9.655,8.256,1.075,17.925c0,0,6.039,1.474,11.504-5.891
					C314.359,171.349,310.762,158.244,301.78,159.315z"/>
			</g>
			<g>
				<path fill="#E9E9F4" d="M358.158,160.148c-0.344-0.386-6.301-9.403-13.605-0.515c0,0-3.437,5.217-2.893,8.63
					c0,0,8.593,9.403,16.842-4.766l1.003-1.836L358.158,160.148z"/>
				<path fill="#543229" d="M349.478,156.09c0,0-4.591,6.759,2.168,14.666c0,0,5.386-1.482,7.858-9.094
					C359.504,161.662,354.579,153.54,349.478,156.09z"/>
			</g>
			<g>
				<path fill="#EAE0DC" d="M350.626,180.768c-0.325-0.251-0.861-0.765-5.075-4.556c-2.296-2.368-4.593-4.735-6.889-7.103
					c-1.021-1.053-2.064-2.123-3.4-2.854c-2.024-1.109-4.536-1.33-6.907-1.111c-2.311,0.213-4.667,0.864-6.314,2.306
					c-1.838,1.609-2.534,3.939-3.258,6.13c-1.722,5.211-1.978,5.994-4.791,10.823c0,0-2.951,5.598-3.156,6.026
					c0,0-4.922,9.96,10.043,15.782c0,0,22.382,6.791,33.955-10.043C354.834,196.167,361.147,188.898,350.626,180.768z"/>
				<path fill="#BC9F96" d="M331.775,180.243c0.431,1.961-1.133,3.958-3.256,5.177c-2.122,1.218-4.729,1.814-7.272,2.385
					c2.92,0.658,6.294,0.112,8.658-1.402s3.641-3.947,3.278-6.243"/>
				<path fill="#BC9F96" d="M334.176,179.866c-0.283,1.988,1.426,3.863,3.634,4.919c2.208,1.056,4.851,1.455,7.429,1.835
					c-2.862,0.875-6.268,0.582-8.738-0.75c-2.47-1.333-3.926-3.663-3.735-5.98"/>
				<path fill="#F7AD7C" d="M339.235,175.879c-0.108-1.528-3.337-2.545-7.213-2.271c-3.876,0.273-6.931,1.733-6.823,3.261
					c0.059,0.839,1.08,1.514,2.613,1.916c0.388,1.307,2.494,2.196,4.986,2.021c2.624-0.185,4.667-1.477,4.677-2.915
					C338.605,177.315,339.286,176.607,339.235,175.879z"/>
			</g>
		</g>
		<path fill="#B77F55" d="M270.091,207.166c3.537,10.703-1.334,21.779-8.8,30.225c10.363,9.919,24.386,25.404,28.943,39.007
			c1.725-2.75,3.449-5.499,5.174-8.249c8.511,12.487,14.02,27.005,15.935,41.995c1.167-2.509,2.335-5.019,3.502-7.528
			c2.57,10.763,5.147,29.712,4.409,40.753c18.747-9.947,22.15-32.78,28.312-48.972c8.226-21.616,6.313-41.001-2.232-61.406
			c-2.779,4.809-13.765,20.407-14.972,25.828c-1.556-5.47-4.062-10.669-7.372-15.294c-2.13,2.427-3.531,5.487-3.975,8.685
			C309.068,233.627,289.696,214.906,270.091,207.166"/>
		<path fill="#DBCBC6" d="M330.1,217.108"/>
		<path fill="#A87144" d="M174.57,245.744c16.379-18.596,29.098-39.067,34.265-63.303c1.514-7.104,2.497-14.396,1.843-21.63
			c-1.343-14.861-9.548-28.411-19.984-39.075c3.134,6.412,4.306,13.593,3.77,20.678c-0.082-0.17-0.168-0.334-0.251-0.503
			c-1.069-5.851-3.26-11.522-6.8-16.287c-4.016-5.405-9.841-9.577-16.42-11.013c2.321,1.398,4.132,3.38,5.595,5.647
			c-22.169-15.718-43.947,3.721-43.947,3.721c-31.478,29.009,6.161,61.875,6.161,61.875c5.06,5.404,8.615,10.474,11.019,15.195
			c-3.248-3.202-7.421-5.427-11.929-5.469c4.574,2.055,7.641,6.428,10.067,10.816c2.124,3.842,3.957,7.908,4.715,12.232
			c0.387,2.208,0.471,4.495,0.184,6.718c-3.507,11.793-13.594,18.217-13.594,18.217c-24.38,21.294-24.072,43.206-24.072,43.206
			c0,67.895,64.974,69.285,64.974,69.285l-1.091-6.945c-53.081-44.132-13.887-91.658-13.887-91.658
			C169.469,251.483,174.57,245.744,174.57,245.744z"/>
	</g>
</g>
</svg>
