<?xml version="1.0" encoding="utf-8"?>
<!-- Generator: Adobe Illustrator 16.0.0, SVG Export Plug-In . SVG Version: 6.00 Build 0)  -->
<!DOCTYPE svg PUBLIC "-//W3C//DTD SVG 1.1 Tiny//EN" "http://www.w3.org/Graphics/SVG/1.1/DTD/svg11-tiny.dtd">
<svg version="1.1" baseProfile="tiny" id="Layer_1" xmlns="http://www.w3.org/2000/svg" xmlns:xlink="http://www.w3.org/1999/xlink"
	 x="0px" y="0px" width="300px" height="300px" viewBox="0 0 300 300" xml:space="preserve">
<g>
	<circle fill="#25A7DE" cx="150" cy="150" r="131.6"/>
	<g>
		<g>
			<path fill="#393A39" d="M245.355,206.761c-7.706-9.818-30.74-41.01-35.647-68.923l-38.718,16.608l-38.719,16.609
				c16.843,22.793,23.569,60.979,25.372,73.33c0.246,1.928,0.01,2.765,0.534,3.986c4.025,9.383,27.368,8.377,52.138-2.248
				c24.77-10.625,41.587-26.846,37.562-36.229C247.352,208.673,246.469,208.259,245.355,206.761z"/>
			<path fill="#BDBEBF" d="M225.904,178.578c3.28,7.647-11.509,21.33-31.694,29.989c-20.185,8.658-40.519,8.954-43.799,1.308
				l-7.081-18.915c3.28,7.647,22.974,8.266,43.159-0.393c20.185-8.658,33.303-23.34,30.023-30.988L225.904,178.578z"/>
			<g>
				
					<ellipse transform="matrix(0.919 -0.3942 0.3942 0.919 -48.4443 80.8917)" fill="#535554" cx="172.667" cy="158.359" rx="77.942" ry="29.527"/>
				<path fill="#737574" d="M184.171,185.177c-38.357,16.453-74.571,18.463-82.598,4.909c0.135,0.476,0.298,0.942,0.494,1.397
					c6.428,14.987,43.709,13.38,83.27-3.589c39.561-16.97,66.418-42.875,59.99-57.862c-0.195-0.456-0.421-0.896-0.672-1.321
					C248.943,143.869,222.528,168.723,184.171,185.177z"/>
				
					<ellipse transform="matrix(0.919 -0.3942 0.3942 0.919 -47.0386 79.9146)" fill="#393A39" cx="170.989" cy="154.447" rx="42.131" ry="15.961"/>
			</g>
		</g>
		<g>
			
				<rect x="114.597" y="37.332" transform="matrix(-0.5801 0.8145 -0.8145 -0.5801 267.6493 59.4041)" fill="#393A39" width="7.834" height="122.711"/>
			
				<rect x="175.701" y="128.548" transform="matrix(-0.5801 0.8146 -0.8146 -0.5801 399.6493 78.3941)" fill="#FFFFFF" width="7.833" height="27.33"/>
			<polygon fill="#A9AAAA" points="188.475,153.332 166.215,137.476 66.268,66.28 67.971,63.889 167.917,135.085 190.178,150.941 
							"/>
		</g>
		<g>
			<path fill="#FFD202" d="M131.757,74.452c-0.783,0-1.417-0.635-1.417-1.417v-18.29c0-0.783,0.635-1.417,1.417-1.417
				s1.417,0.635,1.417,1.417v18.29C133.174,73.817,132.54,74.452,131.757,74.452z"/>
			<path fill="#FFD202" d="M140.901,65.307h-18.29c-0.783,0-1.417-0.635-1.417-1.417s0.635-1.417,1.417-1.417h18.29
				c0.783,0,1.417,0.635,1.417,1.417S141.684,65.307,140.901,65.307z"/>
			<path fill="#FFD202" d="M127.485,69.097c-0.24,0-0.479-0.091-0.662-0.274c-0.366-0.366-0.366-0.958,0-1.324l8.542-8.542
				c0.365-0.366,0.959-0.366,1.324,0c0.366,0.366,0.366,0.958,0,1.324l-8.542,8.542C127.965,69.006,127.725,69.097,127.485,69.097z"
				/>
			<path fill="#FFD202" d="M136.028,69.097c-0.24,0-0.479-0.091-0.662-0.274l-8.542-8.542c-0.366-0.366-0.366-0.958,0-1.324
				c0.365-0.366,0.959-0.366,1.324,0l8.542,8.542c0.366,0.366,0.366,0.958,0,1.324C136.507,69.006,136.268,69.097,136.028,69.097z"
				/>
		</g>
		<g>
			<path fill="#FFD202" d="M211.68,96.845c-0.363,0-0.726-0.138-1.002-0.415l-12.933-12.933c-0.554-0.554-0.554-1.451,0-2.005
				s1.451-0.554,2.005,0l12.933,12.933c0.554,0.554,0.554,1.451,0,2.005C212.405,96.707,212.042,96.845,211.68,96.845z"/>
			<path fill="#FFD202" d="M198.747,96.845c-0.363,0-0.726-0.138-1.002-0.415c-0.554-0.554-0.554-1.451,0-2.005l12.933-12.933
				c0.554-0.554,1.451-0.554,2.005,0s0.554,1.451,0,2.005L199.75,96.43C199.473,96.707,199.11,96.845,198.747,96.845z"/>
			<path fill="#FFD202" d="M205.213,95.938c-0.517,0-0.937-0.419-0.937-0.937V82.921c0-0.517,0.419-0.937,0.937-0.937
				s0.937,0.419,0.937,0.937v12.081C206.149,95.519,205.73,95.938,205.213,95.938z"/>
			<path fill="#FFD202" d="M211.253,89.898h-12.081c-0.517,0-0.937-0.419-0.937-0.937s0.419-0.937,0.937-0.937h12.081
				c0.517,0,0.937,0.419,0.937,0.937S211.771,89.898,211.253,89.898z"/>
		</g>
		<g>
			<path fill="#FFD202" d="M158.659,168.194c-0.783,0-1.417-0.635-1.417-1.417v-18.29c0-0.783,0.635-1.417,1.417-1.417
				s1.417,0.635,1.417,1.417v18.29C160.076,167.559,159.441,168.194,158.659,168.194z"/>
			<path fill="#FFD202" d="M167.804,159.049h-18.29c-0.783,0-1.417-0.635-1.417-1.417s0.635-1.417,1.417-1.417h18.29
				c0.783,0,1.417,0.635,1.417,1.417S168.586,159.049,167.804,159.049z"/>
			<path fill="#FFD202" d="M154.388,162.839c-0.24,0-0.479-0.091-0.662-0.274c-0.366-0.366-0.366-0.958,0-1.324l8.542-8.542
				c0.365-0.366,0.959-0.366,1.324,0c0.366,0.366,0.366,0.958,0,1.324l-8.542,8.542
				C154.867,162.748,154.627,162.839,154.388,162.839z"/>
			<path fill="#FFD202" d="M162.93,162.839c-0.24,0-0.479-0.091-0.662-0.274l-8.542-8.542c-0.366-0.366-0.366-0.958,0-1.324
				c0.365-0.366,0.959-0.366,1.324,0l8.542,8.542c0.366,0.366,0.366,0.958,0,1.324C163.41,162.748,163.17,162.839,162.93,162.839z"
				/>
		</g>
		<g>
			<path fill="#FFD202" d="M77.115,106.591c-0.281,0-0.562-0.107-0.776-0.321L66.331,96.261c-0.428-0.429-0.428-1.123,0-1.552
				c0.429-0.429,1.123-0.429,1.552,0l10.009,10.009c0.428,0.429,0.428,1.123,0,1.552C77.677,106.484,77.396,106.591,77.115,106.591z
				"/>
			<path fill="#FFD202" d="M67.106,106.591c-0.281,0-0.562-0.107-0.776-0.321c-0.428-0.429-0.428-1.123,0-1.552l10.009-10.009
				c0.429-0.429,1.123-0.429,1.552,0c0.428,0.429,0.428,1.123,0,1.552L67.882,106.27C67.668,106.484,67.387,106.591,67.106,106.591z
				"/>
			<path fill="#FFD202" d="M72.111,105.889c-0.4,0-0.725-0.324-0.725-0.725v-9.35c0-0.4,0.324-0.725,0.725-0.725
				s0.725,0.324,0.725,0.725v9.35C72.836,105.564,72.512,105.889,72.111,105.889z"/>
			<path fill="#FFD202" d="M76.786,101.214h-9.35c-0.4,0-0.725-0.324-0.725-0.725s0.324-0.725,0.725-0.725h9.35
				c0.4,0,0.725,0.324,0.725,0.725S77.187,101.214,76.786,101.214z"/>
		</g>
		<g>
			<path fill="#FFD202" d="M72.843,159.049c-0.783,0-1.417-0.635-1.417-1.417v-18.29c0-0.783,0.635-1.417,1.417-1.417
				s1.417,0.635,1.417,1.417v18.29C74.261,158.414,73.626,159.049,72.843,159.049z"/>
			<path fill="#FFD202" d="M81.988,149.904h-18.29c-0.783,0-1.417-0.635-1.417-1.417s0.635-1.417,1.417-1.417h18.29
				c0.783,0,1.417,0.635,1.417,1.417S82.771,149.904,81.988,149.904z"/>
			<path fill="#FFD202" d="M68.572,153.694c-0.24,0-0.479-0.091-0.662-0.274c-0.366-0.366-0.366-0.958,0-1.324l8.542-8.542
				c0.365-0.366,0.959-0.366,1.324,0c0.366,0.366,0.366,0.958,0,1.324l-8.542,8.542C69.052,153.603,68.812,153.694,68.572,153.694z"
				/>
			<path fill="#FFD202" d="M77.115,153.694c-0.24,0-0.479-0.091-0.662-0.274l-8.542-8.542c-0.366-0.366-0.366-0.958,0-1.324
				c0.365-0.366,0.959-0.366,1.324,0l8.542,8.542c0.366,0.366,0.366,0.958,0,1.324C77.594,153.603,77.354,153.694,77.115,153.694z"
				/>
		</g>
		<circle fill="#FFD202" cx="110.762" cy="124.307" r="3.74"/>
		<circle fill="#FFD202" cx="190.371" cy="52.982" r="3.741"/>
		<circle fill="#FFD202" cx="166.215" cy="94.947" r="3.741"/>
	</g>
</g>
</svg>
